<?xml version="1.0" encoding="utf-8"?>
<!-- Generator: Adobe Illustrator 23.0.1, SVG Export Plug-In . SVG Version: 6.00 Build 0)  -->
<svg version="1.1" id="Layer_1" xmlns="http://www.w3.org/2000/svg" xmlns:xlink="http://www.w3.org/1999/xlink" x="0px" y="0px"
	 viewBox="0 0 896.2 512.7" style="enable-background:new 0 0 896.2 512.7;" xml:space="preserve">
<style type="text/css">
	.st0{clip-path:url(#SVGID_2_);}
	.st1{fill:#66216E;}
	.st2{fill:#FFFFFF;}
	.st3{fill:#E3F1FF;}
	.st4{fill:#FFAE00;}
	.st5{fill:#FF9600;}
	.st6{fill:#FBCDBB;}
	.st7{fill:#66276F;}
	.st8{fill:#AEABFF;}
	.st9{fill:#EAAC9A;}
	.st10{fill:none;stroke:#66276F;stroke-linecap:round;stroke-linejoin:round;stroke-miterlimit:10;}
	.st11{fill:#8E8EEF;}
	.st12{fill:none;stroke:#863590;stroke-linecap:round;stroke-linejoin:round;stroke-miterlimit:10;}
	.st13{fill:none;stroke:#863590;stroke-width:2;stroke-linecap:round;stroke-linejoin:round;stroke-miterlimit:10;}
	.st14{fill:#1DA1F2;}
	.st15{fill:#3765A3;}
	.st16{fill:#FEFEFE;}
	.st17{fill:none;stroke:#E3F1FF;stroke-width:4;stroke-miterlimit:10;}
	.st18{fill:#772B82;}
</style>
<g>
	<defs>
		<rect id="SVGID_1_" width="896.2" height="512.7"/>
	</defs>
	<clipPath id="SVGID_2_">
		<use xlink:href="#SVGID_1_"  style="overflow:visible;"/>
	</clipPath>
	<g class="st0">
		<path class="st1" d="M818.8,496.3H77.4V26.6C77.4,11.9,89.3,0,104,0h688.3c14.7,0,26.6,11.9,26.6,26.6v469.7H818.8z"/>
		<path class="st2" d="M792.2,22.5H104.1v460.6h688.1V22.5z"/>
		<path class="st3" d="M617.7,79.1H314.4v389.6h303.3V79.1z"/>
		<path class="st4" d="M596.3,92.3H335.9v135.6h260.4V92.3z"/>
		<path class="st5" d="M423.6,146c13.9,13.2,28.8,25.3,42.6,38.6c0.9,0.9,2.5,1.2,3.6,0.5c35.8-23.8,71-48.7,106.3-73.3
			c6.8-4.8,13.7-9.5,20.5-14.3c3.1-2.2,0.1-7.4-3-5.2c-34.7,24.3-69.6,48.5-104.5,72.5c-7.4,5.1-14.8,10.2-22.3,15.1
			c1.2,0.2,2.4,0.3,3.6,0.5c-13.8-13.3-28.8-25.3-42.6-38.6C425.1,139,420.8,143.3,423.6,146z"/>
		<path class="st6" d="M739.7,203.9c3.5,0.5,40,34,49,42.4c-1.8,3,0.1,7.7,0.1,7.7s-44-21.5-49.8-35.7"/>
		<path class="st7" d="M643,120.3c-4,18-7.1,26.8-5.4,44.4c3,31,48.3,100.9,59.9,97.1c11.6-3.8,68.2-77.8,47.8-109
			c-9.4-14.5-39.1-18.2-59.5-27.6c-0.7-40.8-34.3-26.7-37.9-19.8C642.8,114.8,643.5,118,643,120.3z"/>
		<path class="st6" d="M658.6,140.8l0.9,29.8l19.5-5.7l-4-27.6"/>
		<path class="st6" d="M643,311.8l34.3-11.7c-5.9,34.2-13.8,57.1-13.4,91.4c4.3,17.2,4.1,45.9,6.6,63.3c-0.5,0.2-1,0.5-1.4,0.8
			c-1.3,0.9-2.7,1.8-4.2,2.7c-7.7-17.9-15.8-47.4-18.8-65.8C641.2,362.1,640.3,342.6,643,311.8z"/>
		<path class="st6" d="M701.5,308l26.2-3.4c16.9,21.5,22,43.5,32.2,53.4c12.3-4.7,40.5-4.8,61.6-9.5c0.1,0.5,0.2,1.1,0.3,1.6
			c0.5,1.5,0.9,3.2,1.2,4.8c-15.6,7.9-53.5,27.2-71.8,23.5C738.7,375.9,711.9,349.4,701.5,308z"/>
		<path class="st8" d="M821.6,349.9c-0.2-0.5-0.3-1.1-0.3-1.6c-21,4.6-49.3,4.8-61.6,9.5c-2-1.9-3.8-4.4-5.5-7.1
			c-7.1,5.5-14.9,9.9-23.3,13.4c7.7,8.3,15.1,13.2,20.2,14.2c18.2,3.7,56.2-15.6,71.8-23.5C822.5,353,822.1,351.4,821.6,349.9z"/>
		<path class="st9" d="M746,335c-4.5-9.2-9.9-19.6-18-29.9l-26.2,3.4c3.1,12.3,7.7,23.3,12.8,32.7C725.2,342.3,736.2,339.6,746,335z
			"/>
		<path class="st6" d="M717.3,279.9l-1.9,0.8C715.6,279.3,716.2,278.9,717.3,279.9z"/>
		<path class="st9" d="M659.7,340.4c-5.9-0.1-12.1,0.8-17.9,2.8c0-9.5,0.5-19.4,1.5-30.9l34.3-11.7c-2.6,15.1-5.6,28-8.1,40.7
			C666.2,340.7,662.9,340.4,659.7,340.4z"/>
		<path class="st8" d="M642.4,359.5c0.8-0.2,1.6-0.4,2.4-0.5c0.1,0,0.1,0,0.2,0c0.4,0,0.8-0.1,1.1-0.1c1.8-0.1,3.5-0.1,5.3,0
			c0.8,0.1,1.6,0.1,2.4,0.2c0.3,0,0.6,0.1,0.9,0.1c0.1,0,0.3,0,0.4,0.1c3.5,0.6,6.9,1.3,10.3,2.1c0.2,0,0.3,0.1,0.5,0.1
			c-1.3,9.4-2,19.3-1.9,30.3c4.3,17.2,4.1,45.9,6.6,63.3c-0.5,0.2-1,0.5-1.4,0.8c-1.3,0.9-2.7,1.8-4.2,2.7
			c-7.7-17.9-15.8-47.4-18.8-65.8c-2-12.4-3.3-23-4-33.4C642.3,359.5,642.4,359.5,642.4,359.5z"/>
		<path class="st6" d="M681,136.6c-13.8,26.9-46.9,23.1-41.4-4.7c8.9-45,43.7-22,39.4,4.8"/>
		<path class="st8" d="M647.8,164.2c11.4-3.1,20.6-3.4,32.6-3.5c47.7-0.3,56.1,126.7,73.4,163.4c-3.4,1.7-6.7,3.4-10.2,5
			c-9.9,4.5-20.3,6.3-31.1,5.8c-13.2-0.6-26.2-2.9-39.4-3.7c-12.5-0.8-31.8,6.1-40.1,8C630,311.9,625.4,179,647.8,164.2z"/>
		<path class="st7" d="M676,113.7c3.8,4.9,8.8,48.1,2.6,48.8c-4.4-1.3-3.3-26-10.5-31.2c-6.3-4.5-10.2-14.4-10.4-21.7
			c-8.8,2.5-15.4,11.7-15.4,11.7s0.5-26.4,21.8-18.9C670.2,104.6,673.5,110.5,676,113.7z"/>
		<path class="st6" d="M678.3,140.9c3.3-2.4,4.4-6.5,2.5-9.1c-1.9-2.6-6.1-2.7-9.4-0.3c-3.3,2.4-4.4,6.5-2.5,9.1
			C670.8,143.2,675,143.3,678.3,140.9z"/>
		<path class="st10" d="M645.2,114.3c0,0-6.4,12.3-6.5,22.9c-0.1,6.9,6.5,25.3,25.4,14.6"/>
		<path class="st10" d="M675.4,133.7c0,0-4.8,1-4.2,4.9c1.7-1.3,4.1-0.6,4.4-0.1"/>
		<path class="st10" d="M647.5,125.4c0,0-3,7.3-4.5,10.1c-1.1,2,2,3.9,4.4,2.4"/>
		<path class="st7" d="M655.3,128.8c0.4-1.4,0.1-2.7-0.7-2.9c-0.8-0.2-1.8,0.7-2.2,2c-0.4,1.4-0.1,2.7,0.7,2.9
			C653.9,131,654.9,130.1,655.3,128.8z"/>
		<path class="st7" d="M644.3,126.6c0.4-1.2,0.1-2.3-0.5-2.5c-0.6-0.2-1.4,0.6-1.8,1.7c-0.4,1.2-0.1,2.3,0.5,2.5
			C643.1,128.6,643.9,127.8,644.3,126.6z"/>
		<path class="st10" d="M654.8,141.5c0,0-1.4,5.9-6.1,2.1"/>
		<path class="st6" d="M682.2,161.4c-10-2.9-30-0.5-34.6,4.1c1.1,4.5,9.5,14.3,14.5,13.2C673.6,176.1,683.8,167.2,682.2,161.4z"/>
		<path class="st6" d="M785.7,251.5c-0.1,0.7,25.6,4.6,26.3,3.4c0.7-1.2-10.9-7-18.8-8.4C785.3,245,784.4,244.8,785.7,251.5z"/>
		<path class="st6" d="M785.1,248.7c-1.3,3.4,3.4,6.3,7.6,8.9c2,1.2,3.4,3.4,4.8,3.6c4.4,0.6-0.8-3.3-2.6-8.3
			c-1.5-4.2,3.8-1.3,3.8-1.3"/>
		<path class="st11" d="M674,449.6l-18,2.4l4.2,15.2c0,0-10.2,2.1-9,5.1c4.9,0.1,23.5,0.7,23.5,0.7L674,449.6z"/>
		<path class="st11" d="M814.4,366l-4.9-19.6l22.1-1.7c0,0,2.6,16.4,4.4,22c-2.3,1.9-7-7.9-7-7.9L814.4,366z"/>
		<path class="st12" d="M667,124.2c0.6,0.6,1.2,1.2,1.9,1.7"/>
		<path class="st12" d="M663.6,119.5c0.5,0.9,1.2,2,1.9,3"/>
		<path class="st12" d="M660.9,108.5c0.3,2.9,0.7,5.8,1.6,8.6"/>
		<path class="st12" d="M684.2,129.1c14.3,14.6,84.9,12.8,53.9,66.5"/>
		<path class="st12" d="M683.9,131.4c13.7,19.6,77,14.2,50.7,59.8"/>
		<path class="st12" d="M683.3,133.1c15.4,22.9,66.1,12.9,48.2,51.4"/>
		<path class="st13" d="M750.7,320.6c0,0-23.7,13.6-48.1,8.5c-37-7.7-62.6-0.7-68.7,4.8"/>
		<path class="st13" d="M748.4,315.2c0,0-23.3,14.8-47.4,8.8c-36.6-9.1-61.8-1.7-67.8,4.3"/>
		<path class="st8" d="M736,237.3c4.7-8,7.9-19.6,15.5-24.7c-18.5-18.4-52.2-43-52.2-43l2,21.6l21,32.6
			C727.4,224.6,732,230.9,736,237.3z"/>
		<path class="st4" d="M611.2,457.2H470.3c-3.6,0-6.4-2.9-6.4-6.4h147.4L611.2,457.2L611.2,457.2z"/>
		<path class="st4" d="M569.3,372.8l-8.7,4.7l41.9,78l8.7-4.7L569.3,372.8z"/>
		<path class="st4" d="M592.4,295.5l-8.3-5.3l-47.6,74.6l8.3,5.3L592.4,295.5z"/>
		<path class="st4" d="M478.4,471.5c4.1,0,7.4-3.3,7.4-7.4s-3.3-7.4-7.4-7.4s-7.4,3.3-7.4,7.4S474.3,471.5,478.4,471.5z"/>
		<path class="st4" d="M589,471.5c4.1,0,7.4-3.3,7.4-7.4s-3.3-7.4-7.4-7.4s-7.4,3.3-7.4,7.4S584.9,471.5,589,471.5z"/>
		<path class="st6" d="M606.5,285.3c-0.1,0.7-29.1,6.7-29.5,5.3c-2.5-10.9,14.7-11.2,22.7-11.4C607.7,279,608.8,278.9,606.5,285.3z"
			/>
		<path class="st6" d="M606.8,282c1.5,2.6-4.4,9.2-7.8,14.2c-1.3,1.9-2.7,5.7-4.1,6c-4.3,1.1-0.4-5.6,0.9-10.8
			c1-4.3-10.7-4.3-10.7-4.3"/>
		<path class="st6" d="M623.2,223.7c-2.9,2-21.2,48.1-25.5,59.5c2.9,1.9,3.3,7,3.3,7s30.2-38.6,29.2-53.9"/>
		<path class="st8" d="M639,255.8c-7.9-4.9-16.1-13.6-25.3-14.6c7.7-24.9,25.9-62.5,25.9-62.5l8.4,20l-3.2,38.7
			C640.7,240.5,639.6,248.3,639,255.8z"/>
		<path class="st4" d="M587.1,306.7c6.2,0,11.2-5,11.2-11.2s-5-11.2-11.2-11.2c-6.2,0-11.2,5-11.2,11.2S580.9,306.7,587.1,306.7z"/>
		<path class="st14" d="M531.4,331.7l-49.9,6.3c-3.3,0.4-6.4-1.9-6.8-5.3l-6.3-49.9c-0.4-3.3,1.9-6.4,5.3-6.8l49.9-6.3
			c3.3-0.4,6.4,1.9,6.8,5.3l6.3,49.9C537.1,328.2,534.8,331.3,531.4,331.7z"/>
		<path class="st2" d="M494.7,314.7c14.8-1.8,21.5-14.9,20.2-25.4c0-0.3-0.1-0.7-0.1-1c1.4-1.3,2.6-2.9,3.5-4.6
			c-1.4,0.8-2.9,1.4-4.5,1.8c1.6-1.2,2.6-2.9,3-4.8c-1.5,1.1-3.1,2-4.9,2.5c-1.4-1.1-3.1-1.8-4.9-1.8c-1.8-0.1-3.5,0.4-5,1.5
			c-1.5,1-2.6,2.5-3.1,4.2c-0.5,1.7-0.5,3.5,0.1,5.1c-3.2,0.2-6.5-0.2-9.5-1.3s-5.8-2.8-8.1-5c-0.8,1.9-0.9,4-0.2,5.9
			c0.7,1.9,2.1,3.5,4,4.4c-1.3,0.1-2.6-0.1-3.8-0.6v0.1c0.2,1.8,1.1,3.5,2.4,4.8c1.4,1.3,3.1,2.1,5,2.2c-1.1,0.5-2.4,0.7-3.6,0.6
			c0.7,1.5,1.9,2.8,3.3,3.6c1.5,0.8,3.2,1.2,4.9,1c-2.6,2.6-6,4.2-9.6,4.6c-0.6,0.1-1.3,0.1-1.9,0.1
			C485.8,314.5,490.3,315.2,494.7,314.7z"/>
		<path class="st15" d="M540.4,341.1l-44.5-23.3c-3-1.6-4.1-5.2-2.6-8.2l23.3-44.5c1.6-3,5.2-4.1,8.2-2.6l44.5,23.3
			c3,1.6,4.1,5.2,2.6,8.2l-23.3,44.5C547,341.5,543.4,342.6,540.4,341.1z"/>
		<path class="st16" d="M539.8,309.8l6-7.5l-7.9-4.5l3.1-5.3c1.3-2.3,3.7-3.8,7.2-1.8l3.6,2.1l4-7c0,0-2.9-2.4-6-4.2
			c-6.5-3.7-13-2.2-17.1,4.9l-3.6,6.3l-7.2-4.1l-4.7,8.2l7.2,4.1L513,320.9c1.3,1.1,2.7,2,4.2,2.9c1.5,0.9,3.1,1.6,4.6,2.2
			l11.4-19.9L539.8,309.8z"/>
		<path class="st4" d="M575.8,392.4l-121.5-1.3l-22.5-72.6c-0.9-3.1,1.3-6.1,4.5-6.1h139.5V392.4z"/>
		<path class="st5" d="M532.5,319.7c0,15.1,0,30.3,0,45.4c0,1.9,3,1.9,3,0c0-15.1,0-30.3,0-45.4
			C535.5,317.7,532.5,317.7,532.5,319.7z"/>
		<path class="st5" d="M543.3,319.7c0,17.1,0,34.2,0,51.3c0,1.9,3,1.9,3,0c0-17.1,0-34.2,0-51.3
			C546.3,317.7,543.3,317.7,543.3,319.7z"/>
		<path class="st5" d="M554.1,319.7c0,20.8,0,41.5,0,62.3c0,1.9,3,1.9,3,0c0-20.8,0-41.5,0-62.3
			C557.1,317.7,554.1,317.7,554.1,319.7z"/>
		<path class="st5" d="M508.1,335.7c19.1,0,38.3,0,57.4,0c1.9,0,1.9-3,0-3c-19.1,0-38.3,0-57.4,0
			C506.2,332.7,506.2,335.7,508.1,335.7z"/>
		<path class="st5" d="M516.9,346.6c14.9,0,29.8,0,44.7,0c1.9,0,1.9-3,0-3c-14.9,0-29.8,0-44.7,0C515,343.6,515,346.6,516.9,346.6z"
			/>
		<path class="st5" d="M529.3,357.2c12.3,0,24.7,0,37,0c1.9,0,1.9-3,0-3c-12.3,0-24.7,0-37,0C527.4,354.2,527.4,357.2,529.3,357.2z"
			/>
		<path class="st3" d="M242.5,89.9c0,94.8,0,189.7,0,284.5c0,27,0,53.9,0,80.9c0,3.2,5,3.2,5,0c0-94.8,0-189.7,0-284.5
			c0-27,0-53.9,0-80.9C247.5,86.7,242.5,86.6,242.5,89.9z"/>
		<path class="st17" d="M216.3,128.2h-73.5c-4.9,0-8.8-3.9-8.8-8.8V98.7c0-4.9,3.9-8.8,8.8-8.8h73.5c4.9,0,8.8,3.9,8.8,8.8v20.7
			C225.1,124.2,221.1,128.2,216.3,128.2z"/>
		<path class="st17" d="M740.2,69.2H253.5c-4.9,0-8.8-3.9-8.8-8.8V52c0-4.9,3.9-8.8,8.8-8.8h486.7c4.9,0,8.8,3.9,8.8,8.8v8.4
			C749,65.2,745,69.2,740.2,69.2z"/>
		<path class="st3" d="M133.9,153.2c30.3,0,60.6,0,90.9,0c3.2,0,3.2-5,0-5c-30.3,0-60.6,0-90.9,0
			C130.7,148.2,130.7,153.2,133.9,153.2z"/>
		<path class="st3" d="M133.9,174.6c30.3,0,60.6,0,90.9,0c3.2,0,3.2-5,0-5c-30.3,0-60.6,0-90.9,0
			C130.7,169.6,130.7,174.6,133.9,174.6z"/>
		<path class="st3" d="M133.9,196.1c30.3,0,60.6,0,90.9,0c3.2,0,3.2-5,0-5c-30.3,0-60.6,0-90.9,0
			C130.7,191.1,130.7,196.1,133.9,196.1z"/>
		<path class="st3" d="M133.9,217.5c30.3,0,60.6,0,90.9,0c3.2,0,3.2-5,0-5c-30.3,0-60.6,0-90.9,0
			C130.7,212.5,130.7,217.5,133.9,217.5z"/>
		<path class="st3" d="M133.9,238.9c30.3,0,60.6,0,90.9,0c3.2,0,3.2-5,0-5c-30.3,0-60.6,0-90.9,0
			C130.7,233.9,130.7,238.9,133.9,238.9z"/>
		<path class="st3" d="M133.9,260.4c30.3,0,60.6,0,90.9,0c3.2,0,3.2-5,0-5c-30.3,0-60.6,0-90.9,0
			C130.7,255.4,130.7,260.4,133.9,260.4z"/>
		<path class="st1" d="M854.8,512.7H41.4C18.5,512.7,0,494.2,0,471.3h896.2C896.2,494.2,877.7,512.7,854.8,512.7z"/>
		<path class="st18" d="M866.2,486.6H29c-6.3,0-11.5-5.1-11.5-11.5h860.2C877.7,481.5,872.5,486.6,866.2,486.6z"/>
		<path class="st18" d="M788,14.3H108.8c-2.5,0-4.6-2.1-4.6-4.6s2.1-4.6,4.6-4.6H788c2.5,0,4.6,2.1,4.6,4.6S790.6,14.3,788,14.3z"/>
	</g>
</g>
</svg>
