<?xml version="1.0" encoding="utf-8"?>
<!-- Generator: Adobe Illustrator 23.0.1, SVG Export Plug-In . SVG Version: 6.00 Build 0)  -->
<svg version="1.1" id="Layer_1" xmlns="http://www.w3.org/2000/svg" xmlns:xlink="http://www.w3.org/1999/xlink" x="0px" y="0px"
	 viewBox="0 0 864 505.4" style="enable-background:new 0 0 864 505.4;" xml:space="preserve">
<style type="text/css">
	.st0{clip-path:url(#SVGID_2_);}
	.st1{fill:#732759;}
	.st2{fill:#AFCFEF;}
	.st3{fill:url(#SVGID_3_);}
	.st4{fill:#574E56;}
	.st5{fill:url(#SVGID_4_);}
	.st6{fill:url(#SVGID_5_);}
	.st7{fill:url(#SVGID_6_);}
	.st8{fill:url(#SVGID_7_);}
	.st9{fill:url(#SVGID_8_);}
	.st10{fill:url(#SVGID_9_);}
	.st11{fill:url(#SVGID_10_);}
	.st12{fill:#681D51;}
	.st13{fill:#F8B341;}
	.st14{fill:url(#SVGID_11_);}
	.st15{fill:url(#SVGID_12_);}
	.st16{fill:url(#SVGID_13_);}
	.st17{fill:#EBF6FB;}
	.st18{fill:#A85A82;}
	.st19{fill:url(#SVGID_14_);}
	.st20{fill:url(#SVGID_15_);}
</style>
<g>
	<defs>
		<rect id="SVGID_1_" width="864" height="505.4"/>
	</defs>
	<clipPath id="SVGID_2_">
		<use xlink:href="#SVGID_1_"  style="overflow:visible;"/>
	</clipPath>
	<g class="st0">
		<path class="st1" d="M393.6,21.9c2.6,20.5,19.4,58.7,47.3,68.3c15.2,5.2,52-7.3,61,12.2c0.3,0.6-0.3,1.3-1,1.1
			c-10.1-2.8-14.7-4.4-22.9-1.8c10.1,5,15.1,12.7,17.4,21.3c0.2,0.7-0.6,1.3-1.3,0.9c-49.4-33.8-66.1,5.9-103.5-72.8"/>
		<path class="st2" d="M422.4,505.4c233.3,0,422.4-8.1,422.4-18c0-9.9-189.1-18-422.4-18S0,477.5,0,487.4
			C0,497.3,189.1,505.4,422.4,505.4z"/>
		
			<linearGradient id="SVGID_3_" gradientUnits="userSpaceOnUse" x1="-181.8092" y1="21.8894" x2="-144.7708" y2="-53.1127" gradientTransform="matrix(1 0 0 -1 242.3622 384.6238)">
			<stop  offset="0" style="stop-color:#FFAE00"/>
			<stop  offset="0.234" style="stop-color:#FFA000"/>
			<stop  offset="0.5562" style="stop-color:#FF9500"/>
			<stop  offset="0.8895" style="stop-color:#FF9100"/>
		</linearGradient>
		<path class="st3" d="M31.1,354.2c30.7,0.4,53.3,0.8,79.5,0.5c1.9,0,3.6,1.4,3.8,3.4c1.4,13.9,0.1,42-1.1,51.7
			c-0.2,1.9-1.8,3.3-3.7,3.3c-12,0-43.1,0.9-78.3,0c-2,0-3.6-1.6-3.7-3.6c-0.3-9.1-0.8-33.9-0.3-51.7
			C27.3,355.7,29,354.1,31.1,354.2z"/>
		<path class="st4" d="M35.5,366.2c10.7,1.1,21.4,0.1,32.2,0.5c0.8,0,0.8-1.2,0-1.2C57,365,46.2,366.1,35.5,365
			C34.7,364.9,34.7,366.1,35.5,366.2z"/>
		<path class="st4" d="M35.7,371c10.8,1.1,21.6-0.4,32.4-0.1c0.8,0,0.8-1.2,0-1.2c-10.9-0.3-21.6,1.3-32.4,0.1
			C34.9,369.6,35,370.9,35.7,371z"/>
		<path class="st4" d="M36.3,375.5c10.7,0.3,21.4,0.3,32.1-0.1c0.8,0,0.8-1.3,0-1.2c-10.7,0.4-21.4,0.4-32.1,0.1
			C35.5,374.2,35.5,375.5,36.3,375.5z"/>
		
			<linearGradient id="SVGID_4_" gradientUnits="userSpaceOnUse" x1="300.9425" y1="266.3194" x2="350.2535" y2="166.4634" gradientTransform="matrix(1 0 0 -1 242.3622 384.6238)">
			<stop  offset="0" style="stop-color:#FFAE00"/>
			<stop  offset="0.234" style="stop-color:#FFA000"/>
			<stop  offset="0.5562" style="stop-color:#FF9500"/>
			<stop  offset="0.8895" style="stop-color:#FF9100"/>
		</linearGradient>
		<path class="st5" d="M504.1,106.9c40.8,0.5,70.9,1,105.9,0.7c2.6,0,4.8,1.9,5,4.5c1.8,18.5,0.1,55.9-1.4,68.9
			c-0.3,2.5-2.4,4.4-5,4.4c-16,0-57.4,1.1-104.3,0c-2.7-0.1-4.8-2.2-4.9-4.8c-0.3-12.1-1.1-45.2-0.3-68.8
			C499.1,109,501.4,106.9,504.1,106.9z"/>
		<path class="st4" d="M584.4,119.7c-0.3,6.2,0.2,12.4-0.1,18.6c0,0.5,0.4,0.9,0.9,0.9c4.5,0,9.2,0,13.7-0.7
			c0.4-0.1,0.7-0.5,0.7-0.9c-0.2-6,1.5-12.7,0.3-18.7c-0.1-0.4-0.5-0.6-0.9-0.7c-4.3-0.6-9.2,0.3-13.6,0.4c-1.2,0-1.2,1.9,0,1.9
			c3.1-0.1,6.2-0.2,9.3-0.4c1.3,0,2.9-0.3,4.1-0.1c-1-0.2-0.3-0.5-0.6,0.7c-0.2,0.8,0,2,0,2.9c-0.1,4.2-0.3,8.4-0.4,12.6
			c0,1.3,0.3,0.6-0.7,0.6c-1.1,0-2.3,0.2-3.4,0.2c-2.8,0.1-5.6,0.2-8.4,0.2c0.3,0.3,0.6,0.6,0.9,0.9c0.3-6.2-0.1-12.4,0.1-18.6
			C586.3,118.5,584.4,118.5,584.4,119.7z"/>
		<path class="st4" d="M592.7,125.4c1.7-1.6,3.5-1.9,5.6-0.7c1,0.6,2,1.6,3.1,2c1.8,0.6,3.7-0.6,4.2-2.4c0.3-1.2-1.5-1.6-1.8-0.5
			c-0.8,2.9-4.9-1-6.4-1.5c-2.2-0.7-4.4,0.4-6,1.8C590.5,124.9,591.8,126.2,592.7,125.4z"/>
		<path class="st4" d="M593.3,130.3c1.9-2.6,4.4-2.2,6.7-0.4c0.8,0.7,1.4,1.3,2.6,1.4c1.7,0.1,2.9-1.1,3.6-2.5
			c0.5-1.1-1.3-1.6-1.8-0.5c-0.9,2.2-3,0.2-4.3-0.7c-0.8-0.5-1.8-0.9-2.8-1c-2.4-0.2-4.3,0.9-5.6,2.8
			C591,130.3,592.6,131.3,593.3,130.3z"/>
		<path class="st4" d="M594.4,135.2c0.8-1.3,2.2-2,3.7-1.8c1.1,0.2,1.8,0.9,2.7,1.4c1.4,0.7,2.7,0.5,4-0.2c1.1-0.5,0.1-2.1-0.9-1.6
			c-2,1-2.6-0.4-4.1-1c-0.9-0.4-1.8-0.5-2.7-0.4c-1.8,0.2-3.2,1.2-4.2,2.7C592.1,135.2,593.7,136.2,594.4,135.2z"/>
		<path class="st4" d="M510,123c14.3,1.5,28.5,0.1,42.8,0.7c1.2,0.1,1.2-1.8,0-1.9c-14.3-0.6-28.6,0.8-42.8-0.7
			C508.8,121.1,508.8,122.9,510,123z"/>
		<path class="st4" d="M510.3,129.4c14.4,1.5,28.7-0.6,43.2-0.2c1.2,0,1.2-1.8,0-1.9c-14.5-0.4-28.8,1.7-43.2,0.2
			C509.1,127.4,509.1,129.2,510.3,129.4z"/>
		<path class="st4" d="M511,135.4c14.3,0.4,28.5,0.4,42.7-0.2c1.2,0,1.2-1.9,0-1.9c-14.3,0.5-28.5,0.6-42.7,0.2
			C509.8,133.5,509.8,135.4,511,135.4z"/>
		<path class="st4" d="M555,158.1c14.3,1.5,28.5,0.1,42.8,0.7c1.2,0.1,1.2-1.8,0-1.9c-14.3-0.6-28.6,0.8-42.8-0.7
			C553.8,156.2,553.8,158,555,158.1z"/>
		<path class="st4" d="M554.5,164.6c14.4,1.5,28.8-0.3,43.2,0.1c1.2,0,1.2-1.8,0-1.9c-14.4-0.4-28.8,1.4-43.2-0.1
			C553.3,162.6,553.3,164.4,554.5,164.6z"/>
		<path class="st4" d="M554.8,171.1c14.3,0.4,28.5,0.4,42.7-0.2c1.2,0,1.2-1.9,0-1.9c-14.3,0.5-28.5,0.6-42.7,0.2
			C553.7,169.2,553.7,171,554.8,171.1z"/>
		
			<linearGradient id="SVGID_5_" gradientUnits="userSpaceOnUse" x1="460.53" y1="244.0442" x2="509.842" y2="144.1882" gradientTransform="matrix(1 0 0 -1 242.3622 384.6238)">
			<stop  offset="0" style="stop-color:#FFAE00"/>
			<stop  offset="0.234" style="stop-color:#FFA000"/>
			<stop  offset="0.5562" style="stop-color:#FF9500"/>
			<stop  offset="0.8895" style="stop-color:#FF9100"/>
		</linearGradient>
		<path class="st6" d="M663.7,129.2c40.8,0.5,70.9,1,105.9,0.7c2.6,0,4.8,1.9,5,4.5c1.8,18.5,0.1,55.9-1.4,68.9
			c-0.3,2.5-2.4,4.4-5,4.4c-16,0-57.4,1.1-104.3,0c-2.7-0.1-4.8-2.2-4.9-4.8c-0.3-12.1-1.1-45.2-0.3-68.8
			C658.7,131.3,661,129.1,663.7,129.2z"/>
		<path class="st4" d="M744,142c-0.3,6.2,0.2,12.4-0.1,18.6c0,0.5,0.4,0.9,0.9,0.9c4.5,0,9.2,0,13.7-0.7c0.4-0.1,0.7-0.5,0.7-0.9
			c-0.2-6,1.5-12.7,0.3-18.7c-0.1-0.4-0.5-0.6-0.9-0.7c-4.3-0.6-9.2,0.3-13.6,0.4c-1.2,0-1.2,1.9,0,1.9c3.1-0.1,6.2-0.2,9.3-0.4
			c1.3,0,2.9-0.3,4.1-0.1c-1-0.2-0.3-0.5-0.6,0.7c-0.2,0.8,0,2,0,2.9c-0.1,4.2-0.3,8.4-0.4,12.6c0,1.3,0.3,0.6-0.7,0.6
			c-1.1,0-2.3,0.2-3.4,0.2c-2.8,0.1-5.6,0.2-8.4,0.2c0.3,0.3,0.6,0.6,0.9,0.9c0.3-6.2-0.1-12.4,0.1-18.6
			C745.9,140.8,744,140.8,744,142z"/>
		<path class="st4" d="M752.3,147.6c1.7-1.6,3.5-1.9,5.6-0.7c1,0.6,2,1.6,3.1,2c1.8,0.6,3.7-0.6,4.2-2.4c0.3-1.2-1.5-1.6-1.8-0.5
			c-0.8,2.9-4.9-1-6.4-1.5c-2.2-0.7-4.4,0.4-6,1.8C750.1,147.1,751.4,148.5,752.3,147.6z"/>
		<path class="st4" d="M752.9,152.6c1.9-2.6,4.4-2.2,6.7-0.4c0.8,0.7,1.4,1.3,2.6,1.4c1.7,0.1,2.9-1.1,3.6-2.5
			c0.5-1.1-1.3-1.6-1.8-0.5c-0.9,2.2-3,0.2-4.3-0.7c-0.8-0.5-1.8-0.9-2.8-1c-2.4-0.2-4.3,0.9-5.6,2.8
			C750.6,152.6,752.2,153.5,752.9,152.6z"/>
		<path class="st4" d="M753.9,157.4c0.8-1.3,2.2-2,3.7-1.8c1.1,0.2,1.8,0.9,2.7,1.4c1.4,0.7,2.7,0.5,4-0.2c1.1-0.5,0.1-2.1-0.9-1.6
			c-2,1-2.6-0.4-4.1-1c-0.9-0.4-1.8-0.5-2.7-0.4c-1.8,0.2-3.2,1.2-4.2,2.7C751.7,157.5,753.3,158.4,753.9,157.4z"/>
		<path class="st4" d="M669.6,145.3c14.3,1.5,28.5,0.1,42.8,0.7c1.2,0.1,1.2-1.8,0-1.9c-14.3-0.6-28.6,0.8-42.8-0.7
			C668.4,143.3,668.4,145.2,669.6,145.3z"/>
		<path class="st4" d="M669.9,151.6c14.4,1.5,28.7-0.6,43.2-0.2c1.2,0,1.2-1.8,0-1.9c-14.5-0.4-28.8,1.7-43.2,0.2
			C668.7,149.7,668.7,151.5,669.9,151.6z"/>
		<path class="st4" d="M670.6,157.7c14.3,0.4,28.5,0.4,42.7-0.2c1.2,0,1.2-1.9,0-1.9c-14.3,0.5-28.5,0.6-42.7,0.2
			C669.4,155.8,669.4,157.6,670.6,157.7z"/>
		<path class="st4" d="M714.6,180.4c14.3,1.5,28.5,0.1,42.8,0.7c1.2,0.1,1.2-1.8,0-1.9c-14.3-0.6-28.6,0.8-42.8-0.7
			C713.4,178.4,713.4,180.3,714.6,180.4z"/>
		<path class="st4" d="M714.1,186.8c14.4,1.5,28.8-0.3,43.2,0.1c1.2,0,1.2-1.8,0-1.9c-14.4-0.4-28.8,1.4-43.2-0.1
			C712.9,184.9,712.9,186.7,714.1,186.8z"/>
		<path class="st4" d="M714.4,193.3c14.3,0.4,28.5,0.4,42.7-0.2c1.2,0,1.2-1.9,0-1.9c-14.3,0.5-28.5,0.6-42.7,0.2
			C713.2,191.4,713.2,193.3,714.4,193.3z"/>
		
			<linearGradient id="SVGID_6_" gradientUnits="userSpaceOnUse" x1="222.9012" y1="230.2942" x2="299.9542" y2="161.9172" gradientTransform="matrix(1 0 0 -1 242.3622 384.6238)">
			<stop  offset="0.1438" style="stop-color:#C34F82"/>
			<stop  offset="0.2854" style="stop-color:#BB4B80"/>
			<stop  offset="0.5113" style="stop-color:#A3417B"/>
			<stop  offset="0.7916" style="stop-color:#7E2F73"/>
			<stop  offset="0.9527" style="stop-color:#65246E"/>
		</linearGradient>
		<path class="st7" d="M451.8,147c27.7,0.4,48.4,0.7,72.1,0.5c2.2,0,4,1.6,4.2,3.8c1.1,12.7,0,37.1-1,46.4c-0.2,2.1-2,3.7-4.2,3.7
			c-11.5,0-39.4,0.8-71.1,0c-2.2-0.1-4-1.8-4.1-4.1c-0.2-8.8-0.7-30.4-0.2-46.4C447.6,148.7,449.5,146.9,451.8,147z"/>
		<path class="st4" d="M506.8,155.8c-0.2,4.3,0.1,8.6-0.1,12.9c0,0.4,0.2,0.7,0.7,0.7c3.1,0,6.3,0,9.3-0.5c0.3-0.1,0.6-0.3,0.6-0.7
			c-0.1-4.1,1-8.7,0.2-12.8c-0.1-0.3-0.2-0.5-0.5-0.6c-3.1-0.4-6.5,0.2-9.6,0.3c-0.8,0-0.7,1.3,0.1,1.2c1.6-0.1,3.1-0.1,4.7-0.2
			c1.1,0,2.2-0.1,3.2-0.1c0.4,0,0.8,0,1.2,0c0.5,0-0.3-0.8-0.2-0.2c0.3,4.1-0.4,8.3-0.3,12.4c0.2-0.2,0.4-0.5,0.6-0.7
			c-3,0.5-6.3,0.5-9.3,0.5c0.2,0.2,0.5,0.5,0.7,0.7c0.2-4.3-0.1-8.6,0.1-12.9C508.1,155.2,506.9,155,506.8,155.8z"/>
		<path class="st4" d="M512.6,159.7c1.2-1.2,2.5-1.2,3.9-0.4c0.7,0.4,1.4,1.1,2.1,1.4c1.2,0.4,2.6-0.6,2.8-1.8
			c0.2-0.8-1.1-1-1.2-0.2c-0.3,1.3-1.5,0.6-2.2,0.1s-1.4-0.9-2.2-1.2c-1.6-0.5-3.1,0.2-4.3,1.3C511.1,159.5,512,160.3,512.6,159.7z"
			/>
		<path class="st4" d="M512.9,163.3c0.9-1.3,2.5-1.8,3.9-1c0.8,0.5,1.3,1.4,2.3,1.6c1.2,0.3,2.3-0.5,2.7-1.6
			c0.3-0.7-0.8-1.3-1.1-0.5c-0.3,0.7-0.5,0.8-1.2,0.7c-0.8-0.1-0.9-0.3-1.5-0.8s-1.3-0.8-2-0.9c-1.6-0.2-3.1,0.5-4,1.8
			C511.5,163.1,512.5,164,512.9,163.3z"/>
		<path class="st4" d="M513.7,166.7c1.1-1.7,2.7-1.5,4.3-0.5c1,0.6,1.9,0.6,2.9,0.1c0.7-0.4,0.3-1.5-0.4-1.2c-1.6,0.8-2.8-1-4.5-1
			c-1.3,0-2.5,0.7-3.2,1.8C512.3,166.5,513.2,167.3,513.7,166.7z"/>
		<path class="st4" d="M455.1,158.1c9.9,1.1,19.8,0,29.7,0.5c0.8,0,1-1.2,0.2-1.2c-9.9-0.4-19.8,0.6-29.7-0.5
			C454.5,156.8,454.3,158.1,455.1,158.1z"/>
		<path class="st4" d="M455.3,162.5c10.1,1.1,20.1-0.4,30.2-0.1c0.8,0,0.7-1.2-0.1-1.2c-10-0.3-19.9,1.2-29.8,0.1
			C454.7,161.2,454.5,162.4,455.3,162.5z"/>
		<path class="st4" d="M455.9,166.7c9.9,0.3,19.8,0.3,29.7-0.1c0.8,0,0.7-1.3-0.1-1.2c-9.9,0.4-19.8,0.4-29.7,0.1
			C455,165.5,455.1,166.7,455.9,166.7z"/>
		<path class="st4" d="M486.3,182.5c9.9,1.1,19.8,0,29.7,0.5c0.8,0,1-1.2,0.2-1.2c-9.9-0.4-19.8,0.6-29.7-0.5
			C485.7,181.2,485.5,182.4,486.3,182.5z"/>
		<path class="st4" d="M486,187c10.1,1.1,20.1-0.2,30.2,0.1c0.8,0,0.7-1.2-0.1-1.2c-10-0.3-19.9,1-29.8-0.1
			C485.4,185.7,485.2,186.9,486,187z"/>
		<path class="st4" d="M486.4,191.5c9.9,0.3,19.8,0.3,29.7-0.1c0.8,0,0.7-1.3-0.1-1.2c-9.9,0.4-19.8,0.4-29.7,0.1
			C485.5,190.2,485.6,191.5,486.4,191.5z"/>
		
			<linearGradient id="SVGID_7_" gradientUnits="userSpaceOnUse" x1="-105.2569" y1="86.0567" x2="-28.2029" y2="17.6797" gradientTransform="matrix(1 0 0 -1 242.3622 384.6238)">
			<stop  offset="0.1438" style="stop-color:#C34F82"/>
			<stop  offset="0.2854" style="stop-color:#BB4B80"/>
			<stop  offset="0.5113" style="stop-color:#A3417B"/>
			<stop  offset="0.7916" style="stop-color:#7E2F73"/>
			<stop  offset="0.9527" style="stop-color:#65246E"/>
		</linearGradient>
		<path class="st8" d="M123.6,291.2c27.7,0.4,48.4,0.7,72.1,0.5c2.2,0,4,1.6,4.2,3.8c1.1,12.7,0,37.1-1,46.4c-0.2,2.1-2,3.7-4.2,3.7
			c-11.5,0-39.4,0.8-71.1,0c-2.2-0.1-4-1.8-4.1-4.1c-0.2-8.8-0.7-30.4-0.2-46.4C119.4,293,121.3,291.2,123.6,291.2z"/>
		<path class="st4" d="M178.7,300c-0.2,4.3,0.1,8.6-0.1,12.9c0,0.4,0.2,0.7,0.7,0.7c3.1,0,6.3,0,9.3-0.5c0.3-0.1,0.6-0.3,0.6-0.7
			c-0.1-4.1,1-8.7,0.2-12.8c-0.1-0.3-0.2-0.5-0.5-0.6c-3.1-0.4-6.5,0.2-9.6,0.3c-0.8,0-0.7,1.3,0.1,1.2c1.6-0.1,3.1-0.1,4.7-0.2
			c1.1,0,2.2-0.1,3.2-0.1c0.4,0,0.8,0,1.2,0c0.5,0-0.3-0.8-0.2-0.2c0.3,4.1-0.4,8.3-0.3,12.4c0.2-0.2,0.4-0.5,0.6-0.7
			c-3,0.5-6.3,0.5-9.3,0.5c0.2,0.2,0.5,0.5,0.7,0.7c0.2-4.3-0.1-8.6,0.1-12.9C179.9,299.4,178.7,299.2,178.7,300z"/>
		<path class="st4" d="M184.5,304c1.2-1.2,2.5-1.2,3.9-0.4c0.7,0.4,1.4,1.1,2.1,1.4c1.2,0.4,2.6-0.6,2.8-1.8c0.2-0.8-1.1-1-1.2-0.2
			c-0.3,1.3-1.5,0.6-2.2,0.1c-0.7-0.5-1.4-0.9-2.2-1.2c-1.6-0.5-3.1,0.2-4.3,1.3C182.9,303.7,183.9,304.5,184.5,304z"/>
		<path class="st4" d="M184.8,307.5c0.9-1.3,2.5-1.8,3.9-1c0.8,0.5,1.3,1.4,2.3,1.6c1.2,0.3,2.3-0.5,2.7-1.6
			c0.3-0.7-0.8-1.3-1.1-0.5c-0.3,0.7-0.5,0.8-1.2,0.7c-0.8-0.1-0.9-0.3-1.5-0.8c-0.6-0.5-1.3-0.8-2-0.9c-1.6-0.2-3.1,0.5-4,1.8
			C183.3,307.4,184.3,308.2,184.8,307.5z"/>
		<path class="st4" d="M185.5,310.9c1.1-1.7,2.7-1.5,4.3-0.5c1,0.6,1.9,0.6,2.9,0.1c0.7-0.4,0.3-1.5-0.4-1.2c-1.6,0.8-2.8-1-4.5-1
			c-1.3,0-2.5,0.7-3.2,1.8C184.1,310.7,185.1,311.6,185.5,310.9z"/>
		<path class="st4" d="M126.9,302.4c9.9,1.1,19.8,0,29.7,0.5c0.8,0,1-1.2,0.2-1.2c-9.9-0.4-19.8,0.6-29.7-0.5
			C126.3,301,126.1,302.3,126.9,302.4z"/>
		<path class="st4" d="M127.1,306.7c10.1,1.1,20.1-0.4,30.2-0.1c0.8,0,0.7-1.2-0.1-1.2c-10-0.3-19.9,1.2-29.8,0.1
			C126.5,305.4,126.3,306.7,127.1,306.7z"/>
		<path class="st4" d="M127.8,311c9.9,0.3,19.8,0.3,29.7-0.1c0.8,0,0.7-1.3-0.1-1.2c-9.9,0.4-19.8,0.4-29.7,0.1
			C126.8,309.7,127,310.9,127.8,311z"/>
		<path class="st4" d="M158.1,326.7c9.9,1.1,19.8,0,29.7,0.5c0.8,0,1-1.2,0.2-1.2c-9.9-0.4-19.8,0.6-29.7-0.5
			C157.5,325.4,157.3,326.7,158.1,326.7z"/>
		<path class="st4" d="M157.8,331.2c10.1,1.1,20.1-0.2,30.2,0.1c0.8,0,0.7-1.2-0.1-1.2c-10-0.3-19.9,1-29.8-0.1
			C157.2,329.9,157,331.1,157.8,331.2z"/>
		<path class="st4" d="M158.2,335.7c9.9,0.3,19.8,0.3,29.7-0.1c0.8,0,0.7-1.3-0.1-1.2c-9.9,0.4-19.8,0.4-29.7,0.1
			C157.3,334.4,157.4,335.7,158.2,335.7z"/>
		
			<linearGradient id="SVGID_8_" gradientUnits="userSpaceOnUse" x1="350.7475" y1="155.7966" x2="413.5634" y2="28.5956" gradientTransform="matrix(1 0 0 -1 242.3622 384.6238)">
			<stop  offset="0" style="stop-color:#FFAE00"/>
			<stop  offset="0.234" style="stop-color:#FFA000"/>
			<stop  offset="0.5562" style="stop-color:#FF9500"/>
			<stop  offset="0.8895" style="stop-color:#FF9100"/>
		</linearGradient>
		<path class="st9" d="M545.1,213.3c50.5,0.7,87.7,1.3,130.9,0.9c3.2,0,5.9,2.5,6.2,5.8c2.3,24,0.1,72.7-1.8,89.5
			c-0.4,3.3-3,5.7-6.1,5.7c-19.8,0-71,1.5-128.9,0c-3.3-0.1-5.9-2.9-6-6.3c-0.4-15.8-1.4-58.7-0.4-89.4
			C539,216,541.8,213.2,545.1,213.3z"/>
		<path class="st4" d="M644.6,230c-0.3,8.1,0.3,16.1-0.2,24.2c0,0.5,0.4,0.9,0.9,0.9c5.5,0,11.4,0.1,16.8-0.9
			c0.4-0.1,0.7-0.5,0.7-0.9c-0.1-4.2,0.2-8.5,0.4-12.8c0.1-3.6,0.7-7.8,0-11.4c-0.1-0.3-0.4-0.6-0.6-0.6c-5.4-0.8-11.6,0.3-17.1,0.5
			c-1.2,0.1-1.2,1.9,0,1.9c4-0.2,7.9-0.3,11.9-0.5c1.1,0,2.2,0,3.2-0.1c1.4-0.2,1.2,0.4,0.9-0.4c0.7,1.6,0.1,4.5,0,6.2
			c-0.1,5.2,0.2,10.8-0.5,15.9c-0.2,1.3,0.4,0.7-1,0.6c-1.5-0.1-3,0.2-4.5,0.3c-3.4,0.2-6.8,0.3-10.2,0.3c0.3,0.3,0.6,0.6,0.9,0.9
			c0.4-8.1-0.2-16.1,0.2-24.2C646.5,228.8,644.7,228.8,644.6,230z"/>
		<path class="st4" d="M654.5,237.1c2.5-2.4,5-2.4,7.8-0.6c1.1,0.7,2.1,1.8,3.4,2.3c2,0.7,4.3-1.1,4.7-3.1c0.3-1.2-1.5-1.7-1.8-0.5
			c-0.8,3.3-3.1,1.2-4.5,0.3c-1.2-0.8-2.4-1.6-3.7-2c-2.7-0.8-5.3,0.5-7.2,2.3C652.4,236.6,653.7,237.9,654.5,237.1z"/>
		<path class="st4" d="M655.2,243.6c2.1-3.1,5.5-3.3,8.3-0.9c0.9,0.8,1.6,1.7,2.9,1.9c2.2,0.4,3.8-1.2,4.6-3.1
			c0.4-1.1-1.3-1.6-1.8-0.5c-1.2,3-3.9,0.4-5.6-0.7c-1.1-0.8-2.4-1.2-3.7-1.3c-2.7-0.1-4.9,1.4-6.3,3.5
			C653,243.6,654.6,244.6,655.2,243.6z"/>
		<path class="st4" d="M656.5,249.9c1.1-1.7,2.8-2.7,4.8-2.4c1.5,0.2,2.2,1.2,3.4,1.8c1.6,0.8,3.1,0.6,4.7-0.3
			c1.1-0.5,0.1-2.1-0.9-1.6c-2.6,1.4-3.4-0.5-5.3-1.3c-1-0.5-2.2-0.7-3.3-0.5c-2.2,0.2-3.9,1.6-5,3.4
			C654.3,250,655.9,250.9,656.5,249.9z"/>
		<path class="st4" d="M552.4,234c17.6,2,35.3,0.1,52.9,0.9c1.2,0.1,1.2-1.8,0-1.9c-17.7-0.8-35.3,1.1-52.9-0.9
			C551.2,232,551.2,233.9,552.4,234z"/>
		<path class="st4" d="M552.8,242.2c17.9,2,35.5-0.8,53.4-0.2c1.2,0,1.2-1.8,0-1.9c-17.9-0.6-35.6,2.3-53.4,0.2
			C551.6,240.2,551.6,242.1,552.8,242.2z"/>
		<path class="st4" d="M553.7,250.1c17.6,0.5,35.2,0.5,52.8-0.2c1.2,0,1.2-1.9,0-1.9c-17.6,0.7-35.2,0.7-52.8,0.2
			C552.5,248.2,552.5,250,553.7,250.1z"/>
		<path class="st4" d="M608,279.6c17.6,2,35.3,0.1,52.9,0.9c1.2,0.1,1.2-1.8,0-1.9c-17.7-0.8-35.3,1.1-52.9-0.9
			C606.8,277.6,606.9,279.5,608,279.6z"/>
		<path class="st4" d="M607.4,288c17.8,2,35.5-0.4,53.4,0.2c1.2,0,1.2-1.8,0-1.9c-17.9-0.6-35.6,1.9-53.4-0.2
			C606.3,286,606.3,287.8,607.4,288z"/>
		<path class="st4" d="M607.9,296.4c17.6,0.5,35.2,0.5,52.8-0.2c1.2,0,1.2-1.9,0-1.9c-17.6,0.7-35.2,0.7-52.8,0.2
			C606.7,294.5,606.7,296.4,607.9,296.4z"/>
		
			<linearGradient id="SVGID_9_" gradientUnits="userSpaceOnUse" x1="290.3312" y1="372.3878" x2="553.8492" y2="111.5178" gradientTransform="matrix(1 0 0 -1 242.3622 384.6238)">
			<stop  offset="0.1438" style="stop-color:#C34F82"/>
			<stop  offset="0.2557" style="stop-color:#B94A80"/>
			<stop  offset="0.4472" style="stop-color:#9E3E7A"/>
			<stop  offset="0.6935" style="stop-color:#722A71"/>
			<stop  offset="0.757" style="stop-color:#65246E"/>
		</linearGradient>
		<path class="st10" d="M548.3,44.1c52.9,0.7,92.1,1.3,137.4,0.9c3.7,0,6.8,2.8,7.2,6.5c2.3,24.1,0.1,71.6-1.9,89
			c-0.4,3.6-3.5,6.3-7.1,6.3c-21.3,0-74.8,1.5-135.4,0c-3.8-0.1-6.9-3.2-7-7c-0.5-16.3-1.4-58.3-0.5-88.8
			C541.2,47.1,544.4,44,548.3,44.1z"/>
		<path class="st4" d="M653.1,60.8c-0.4,8.1,0.3,16.3-0.2,24.4c0,0.5,0.4,0.9,0.9,0.9c5.9,0,12,0.1,17.8-0.9
			c0.4-0.1,0.7-0.5,0.7-0.9c-0.1-4.3,0.2-8.6,0.4-12.8c0.1-3.7,0.8-7.9,0-11.5c-0.1-0.3-0.4-0.6-0.6-0.6c-2.8-0.4-6,0.1-8.8,0.2
			c-3.1,0.1-6.1,0.2-9.2,0.4c-1.2,0-1.2,1.9,0,1.9c4.1-0.2,8.2-0.3,12.3-0.5c1.1,0,2.2-0.1,3.3-0.1c0.6,0,2.1,0.2,1.6-0.2
			c-0.5-0.5-0.2,1.4-0.2,1.9c0,1.3,0,2.6,0,3.9c-0.1,5.3,0.2,11.1-0.5,16.3c0,0.2,0.1,0.9,0,1c0.7-0.8-1.3-0.4-1.4-0.4
			c-1.5-0.1-3.1,0.2-4.6,0.3c-3.6,0.2-7.1,0.3-10.7,0.3c0.3,0.3,0.6,0.6,0.9,0.9c0.5-8.1-0.2-16.3,0.2-24.4
			C655,59.7,653.2,59.7,653.1,60.8z"/>
		<path class="st4" d="M663.5,68c2.4-2.2,4.8-2.5,7.6-1c1.3,0.7,2.6,2.1,4.1,2.6c2.2,0.7,4.5-0.8,5.1-3c0.3-1.2-1.5-1.6-1.8-0.5
			c-1.2,4.2-6.6-1.1-8.8-1.7c-2.8-0.8-5.5,0.5-7.5,2.3C661.3,67.5,662.6,68.8,663.5,68z"/>
		<path class="st4" d="M664.2,74.6c2.6-3.6,6.1-3,9.2-0.6c1,0.8,1.8,1.6,3.2,1.7c2.1,0.2,3.6-1.3,4.4-3.1c0.5-1.1-1.3-1.6-1.8-0.5
			c-1.5,3.6-6.6-1.6-9.4-2c-3-0.3-5.4,1.2-7.1,3.5C661.9,74.6,663.5,75.5,664.2,74.6z"/>
		<path class="st4" d="M665.6,80.9c1.2-1.7,3-2.8,5.1-2.4c1.5,0.2,2.4,1.2,3.7,1.8c1.7,0.8,3.3,0.6,4.9-0.3c1.1-0.5,0.1-2.1-0.9-1.6
			c-2.8,1.4-3.6-0.4-5.6-1.3c-1.1-0.5-2.3-0.7-3.5-0.5c-2.3,0.2-4,1.6-5.3,3.4C663.4,81,665,81.9,665.6,80.9z"/>
		<path class="st4" d="M555.4,64.9c18.7,2,37.4,0.1,56.1,0.9c1.2,0.1,1.2-1.8,0-1.9c-18.7-0.8-37.4,1.1-56.1-0.9
			C554.3,62.9,554.3,64.8,555.4,64.9z"/>
		<path class="st4" d="M555.8,73.2c18.9,2,37.6-0.8,56.6-0.3c1.2,0,1.2-1.8,0-1.9c-18.9-0.6-37.7,2.3-56.6,0.3
			C554.7,71.2,554.7,73,555.8,73.2z"/>
		<path class="st4" d="M556.8,81.1c18.7,0.5,37.3,0.5,55.9-0.2c1.2,0,1.2-1.9,0-1.9c-18.7,0.7-37.3,0.7-55.9,0.2
			C555.6,79.2,555.6,81.1,556.8,81.1z"/>
		<path class="st4" d="M614.3,110.9c18.7,2,37.4,0.1,56.1,0.9c1.2,0.1,1.2-1.8,0-1.9c-18.7-0.8-37.4,1.1-56.1-0.9
			C613.1,108.9,613.2,110.7,614.3,110.9z"/>
		<path class="st4" d="M613.7,119.3c18.9,2,37.6-0.4,56.5,0.2c1.2,0,1.2-1.8,0-1.9c-18.9-0.6-37.7,1.9-56.5-0.2
			C612.5,117.3,612.5,119.1,613.7,119.3z"/>
		<path class="st4" d="M614.2,127.7c18.7,0.5,37.3,0.5,55.9-0.2c1.2,0,1.2-1.9,0-1.9c-18.7,0.7-37.3,0.7-55.9,0.2
			C613,125.9,613,127.7,614.2,127.7z"/>
		
			<linearGradient id="SVGID_10_" gradientUnits="userSpaceOnUse" x1="496.38" y1="380.4958" x2="740.9119" y2="138.4208" gradientTransform="matrix(1 0 0 -1 242.3622 384.6238)">
			<stop  offset="0" style="stop-color:#FFAE00"/>
			<stop  offset="0.2092" style="stop-color:#FFA200"/>
			<stop  offset="0.4177" style="stop-color:#FF9100"/>
		</linearGradient>
		<path class="st11" d="M728.9,9.6c49.1,0.6,85.5,1.2,127.5,0.9c3.4,0,6.4,2.6,6.7,6c2.1,22.4,0.1,66.5-1.7,82.6
			c-0.4,3.4-3.2,5.9-6.6,5.9c-19.7,0-69.4,1.4-125.6,0c-3.5-0.1-6.4-2.9-6.5-6.5c-0.4-15.1-1.3-54.1-0.4-82.4
			C722.3,12.4,725.3,9.6,728.9,9.6z"/>
		<path class="st4" d="M826.1,25.2c-0.3,7.5,0.3,15.1-0.2,22.6c0,0.5,0.4,0.9,0.9,0.9c5.5,0,11.2,0,16.6-0.8
			c0.4-0.1,0.7-0.5,0.7-0.9c-0.1-4,0.2-8,0.4-11.9c0.1-3.4,0.7-7.3,0-10.7c-0.1-0.3-0.4-0.6-0.6-0.6c-5.3-0.8-11.4,0.3-16.8,0.5
			c-1.2,0-1.2,1.9,0,1.9c3.8-0.2,7.6-0.3,11.4-0.4c1,0,2-0.1,3-0.1c0.6,0,1.9,0.2,1.5-0.2c-0.5-0.6-0.2,1.3-0.2,1.7
			c0,1.2,0,2.4,0,3.6c-0.1,4.7,0.5,10.4-0.5,15c-0.3,1.3,0.5,0.7-1.1,0.6c-1.4-0.1-2.8,0.2-4.2,0.3c-3.3,0.2-6.7,0.3-10,0.3
			c0.3,0.3,0.6,0.6,0.9,0.9c0.4-7.5-0.2-15.1,0.2-22.6C828,24,826.1,24,826.1,25.2z"/>
		<path class="st4" d="M835.8,31.9c2.2-2,4.4-2.3,7-0.9c1.2,0.7,2.4,1.9,3.8,2.4c2.1,0.7,4.3-0.8,4.8-2.8c0.3-1.2-1.5-1.6-1.8-0.5
			c-1.1,3.8-6.1-1.1-8-1.7c-2.6-0.8-5.2,0.4-7.1,2.2C833.6,31.4,834.9,32.7,835.8,31.9z"/>
		<path class="st4" d="M836.5,37.9c2.4-3.3,5.6-2.8,8.4-0.5c1,0.8,1.7,1.5,3,1.6c2,0.2,3.4-1.2,4.1-2.9c0.5-1.1-1.3-1.6-1.8-0.5
			c-1.2,2.8-3.8,0.4-5.5-0.7c-1-0.6-2.1-1-3.2-1.2c-2.8-0.3-5,1.1-6.7,3.3C834.2,38,835.8,38.9,836.5,37.9z"/>
		<path class="st4" d="M837.8,43.8c1.1-1.6,2.8-2.5,4.7-2.2c1.4,0.2,2.2,1.1,3.4,1.7c1.6,0.8,3.1,0.5,4.6-0.2
			c1.1-0.5,0.1-2.1-0.9-1.6c-2.6,1.3-3.3-0.4-5.2-1.2c-1-0.4-2.1-0.6-3.2-0.5c-2.1,0.2-3.8,1.5-5,3.2
			C835.5,43.9,837.1,44.8,837.8,43.8z"/>
		<path class="st4" d="M735.5,29c17.3,1.9,34.7,0.1,52,0.8c1.2,0.1,1.2-1.8,0-1.9c-17.4-0.8-34.7,1-52-0.8
			C734.3,27,734.3,28.9,735.5,29z"/>
		<path class="st4" d="M735.9,36.7c17.5,1.9,34.9-0.8,52.5-0.2c1.2,0,1.2-1.8,0-1.9c-17.6-0.5-34.9,2.1-52.5,0.2
			C734.7,34.7,734.7,36.5,735.9,36.7z"/>
		<path class="st4" d="M736.7,44c17.3,0.5,34.6,0.5,51.9-0.2c1.2,0,1.2-1.9,0-1.9c-17.3,0.6-34.6,0.7-51.9,0.2
			C735.5,42.1,735.5,44,736.7,44z"/>
		<path class="st4" d="M790.1,71.6c17.3,1.9,34.7,0.1,52,0.8c1.2,0.1,1.2-1.8,0-1.9c-17.4-0.8-34.7,1-52-0.8
			C788.9,69.7,789,71.5,790.1,71.6z"/>
		<path class="st4" d="M789.6,79.4c17.5,1.9,34.9-0.4,52.5,0.2c1.2,0,1.2-1.8,0-1.9c-17.5-0.5-35,1.7-52.5-0.2
			C788.4,77.5,788.4,79.3,789.6,79.4z"/>
		<path class="st4" d="M790,87.3c17.3,0.5,34.6,0.5,51.9-0.2c1.2,0,1.2-1.9,0-1.9c-17.3,0.6-34.6,0.7-51.9,0.2
			C788.8,85.4,788.8,87.3,790,87.3z"/>
		<path class="st12" d="M585.8,330.7c-87.2-32.1-177.3-181-177.3-181l-147.3,31.9c0,0-27.1,62.1-34,96.6
			c-12.2,61-0.3,137.5,57.1,176.5C309.5,414.4,458.5,478.8,585.8,330.7z"/>
		<path class="st13" d="M348.2,358.9c0,0,8.6,67.4,31.4,97.7c30.6,40.7,101.6,51.6,116,3.3c-7.9,1.9-23.1,3-23.1,3l-105-123.1"/>
		<path class="st4" d="M397.9,361.3c2,40.9,7.7,98.9,10.5,126.3c13.5,0.4,24.4,5.5,26.5,14.5l-36.1-5.9l-28.2-137.6"/>
		
			<linearGradient id="SVGID_11_" gradientUnits="userSpaceOnUse" x1="160.3956" y1="-45.9895" x2="161.5326" y2="-84.4585" gradientTransform="matrix(1 0 0 -1 242.3622 384.6238)">
			<stop  offset="0" style="stop-color:#000000;stop-opacity:0"/>
			<stop  offset="1" style="stop-color:#000000"/>
		</linearGradient>
		<path class="st14" d="M397.9,361.3c2,40.9,7.7,98.9,10.5,126.3c13.5,0.4,24.4,5.5,26.5,14.5l-36.1-5.9l-28.2-137.6"/>
		<path class="st4" d="M289.7,355c2.9,40.9,4.1,99.2,4.5,126.8c-13.9,2.2-24.6,8.6-25.6,17.8l36.5-10.6l12.3-140.2"/>
		
			<linearGradient id="SVGID_12_" gradientUnits="userSpaceOnUse" x1="50.6587" y1="-39.7916" x2="54.3827" y2="-78.1036" gradientTransform="matrix(1 0 0 -1 242.3622 384.6238)">
			<stop  offset="0" style="stop-color:#000000;stop-opacity:0"/>
			<stop  offset="1" style="stop-color:#000000"/>
		</linearGradient>
		<path class="st15" d="M289.7,355c2.9,40.9,4.1,99.2,4.5,126.8c-13.9,2.2-24.6,8.6-25.6,17.8l36.5-10.6l12.3-140.2"/>
		<path class="st4" d="M314.5,7.1c-4.6-16.2-56.4,1.5-71-6.8c2.6,23.7,21.6,32.4,33.7,53.6C277.2,54,319.9,25.8,314.5,7.1z"/>
		<path class="st13" d="M249.5,83.6c12.9-25.2,13.5-47.5,26.8-59c7.8-6.7,20.5-11.5,29-12.6c1.4-0.2-7.1-2.2-5.8-2.6
			c2.6-0.8,16.9,2,20.1,2c3.2,0.1-17.8-5.6-14.5-5.9c6.4-0.6,21.1,2.9,25.4,4.5c18.2-0.3,45.4,10.7,59,19.9
			c20.3,13.8,23.5,57.3,22.2,48.4c5.1,32.8-5.4,57.5-11.5,105.9c-5.4,43.2-23,90.8-18.5,124.3L288.5,178L249.5,83.6z"/>
		<path class="st13" d="M260.3,136.8c29.8,94-68,169.7,22.6,258.2c28.9,10.6,110.3-0.1,134.3-20c34.5-56.8,9.3-88.4,1.5-140.3
			c-9.7-64.6-13.4-81.1-6.3-128.6"/>
		
			<linearGradient id="SVGID_13_" gradientUnits="userSpaceOnUse" x1="48.2724" y1="260.4239" x2="152.0142" y2="-1.5219" gradientTransform="matrix(1 0 0 -1 242.3622 384.6238)">
			<stop  offset="0" style="stop-color:#F8B341"/>
			<stop  offset="0.2982" style="stop-color:#F7AB3E"/>
			<stop  offset="0.7487" style="stop-color:#F39736"/>
			<stop  offset="1" style="stop-color:#F08831"/>
		</linearGradient>
		<path class="st16" d="M260.3,136.8c29.8,94-68,169.7,22.6,258.2c28.9,10.6,110.3-0.1,134.3-20c34.5-56.8,9.3-88.4,1.5-140.3
			c-9.7-64.6-13.4-81.1-6.3-128.6"/>
		<path class="st13" d="M295.1,53.2c-6.5,19.4-54.1,16.5-94.7,14.2c-1.2,43.8,11.1,61.1,34.3,75.6c8.3,5.2,24.3,6.4,43.1,5.8"/>
		<path class="st4" d="M221.7,68.8c-4.9,39.6-25.5,31.6-31.4,4.6C185.7,52.1,222.9,59,221.7,68.8z"/>
		<path class="st17" d="M341.1,42.2c45.5,57.9-42.4,70.4-48.8,35.5C286.5,45.5,329.7,27.7,341.1,42.2z"/>
		<path class="st4" d="M261.3,152.4c1.4,7.4,11.3,10.2,17.5,11.7c12.3,2.9,25.2,3.4,37.8,3.3c14.9,0,29.7-1.1,44.5-3
			c12.1-1.6,24.5-3.6,36-7.7c5.2-1.9,16.3-6.1,12.9-13.6c-1-2.2-4.2-0.3-3.2,1.9c1.7,3.8-8.6,7.5-11.4,8.4
			c-10.6,3.7-21.8,5.6-32.9,7.2c-25.2,3.5-52.2,5.4-77.3,1.1c-5.8-1-18.8-2.7-20.2-10.1C264.5,149.1,260.9,150.1,261.3,152.4z"/>
		<path class="st17" d="M317.6,171.5c-14.6,8.3-22.1,9.8-36,7.4c1.2-4.2,9-7.6,13.1-10.6c-7.1-5.3-11.2-12.5-12.1-22.2
			c13.1,4.1,17.2,9.4,30.7,10.2l3.3,0.7c17.1-6.3,48.5-11.5,66.8-6.6c-5.7,2.5-12.2,8.7-12.8,9.4c-1.1,1.2,2.2-0.5,16.3,8
			c-14.2,1.3-19.6,3-21,4.5c6,3.6,6.8,4.4,14.3,7c-16,1-45.8-3.3-61.8-7.6"/>
		<path class="st4" d="M328.7,77c2.2-4.8,1.7-9.8-1.1-11.1c-2.8-1.3-6.9,1.6-9.1,6.4c-2.2,4.8-1.7,9.8,1.1,11.1
			C322.4,84.7,326.5,81.8,328.7,77z"/>
		<path class="st4" d="M271.7,63.5c1.4-3.1,1.1-6.3-0.7-7.1s-4.4,1-5.8,4.2c-1.4,3.1-1.1,6.3,0.7,7.1
			C267.7,68.5,270.3,66.6,271.7,63.5z"/>
		<path class="st4" d="M324.2,176.2c0.7-12.3,1.3-16.7-1.3-23.4c-4.7-1.7-11.5-1.2-12.1,2c-1,5.3-1.1,12.8,0.4,21.6
			C315.9,179.6,324.2,176.2,324.2,176.2z"/>
		<path class="st4" d="M338.7,62.3c-1.8-6.7-7.4-11.9-14.7-10.4c-2.3,0.5-1.3,4.1,1,3.6c5.2-1.1,8.9,3.3,10.1,7.9
			C335.8,65.6,339.3,64.6,338.7,62.3z"/>
		<path class="st4" d="M279.9,41.9c-6.7-2.1-14,0-16.6,6.9c-0.9,2.2,2.7,3.2,3.6,1c1.9-5,7.5-5.7,12.1-4.3
			C281.2,46.1,282.2,42.6,279.9,41.9z"/>
		<path class="st13" d="M387.8,45.1c-2.4,1-0.9,4.7,1.5,3.7C391.7,47.9,390.1,44.1,387.8,45.1z"/>
		<path class="st13" d="M397.7,50.7c-2.4,1-0.9,4.7,1.5,3.7C401.6,53.4,400.1,49.7,397.7,50.7z"/>
		<path class="st4" d="M230.5,77.8c2.6-0.2,2.8,3.8,0.3,4C228.2,82,228,78,230.5,77.8z"/>
		<path class="st4" d="M236.1,88.8c5.2-0.3,5.7,7.7,0.5,8C231.5,97.1,231,89.1,236.1,88.8z"/>
		<path class="st4" d="M224.7,91.5c2.6-0.2,2.8,3.8,0.3,4C222.4,95.7,222.2,91.7,224.7,91.5z"/>
		<path class="st17" d="M208.8,73.6c2.7-0.2,4.7-2.6,4.6-5.4c-0.2-2.8-2.5-5-5.2-4.8c-2.7,0.2-4.7,2.6-4.6,5.4
			C203.8,71.6,206.1,73.8,208.8,73.6z"/>
		<path class="st17" d="M251.5,289.5c-5.8,50.2,20.6,99.8,36.4,98.3c23.4-2.1,53.9-10.1,41.8-59.2c-18.9-76.2-1.8-124.4-25.2-127.1
			S257.3,239.3,251.5,289.5z"/>
		<path class="st4" d="M290.8,112.2c-1.2,13.8-22.2,14.2-29.2,4.9c-1.4-1.9-4.6,0-3.2,1.9c9.3,12.3,34.6,11,36.1-6.7
			C294.7,109.8,291,109.8,290.8,112.2z"/>
		<path class="st4" d="M260.1,199.7c-8.3,11.3-15.9,23.1-22.2,35.6c-4.7,9.3-9,19.2-11,29.5c-1.2,6-2,13.5,1.7,18.9
			c3.6,5.2,10.2,5.4,15.9,4.4c-0.8-0.8-1.5-1.5-2.3-2.3c-2.3,10.2,12.8,12.9,19.8,12.4c2.4-0.1,2.4-3.9,0-3.7
			c-3.9,0.2-17.8-0.7-16.2-7.7c0.3-1.4-0.9-2.5-2.3-2.3c-5.3,1-11,0.5-13-5.2c-2.2-6.3-0.2-14,1.6-20.1
			c6.1-20.9,18.3-40.3,31.1-57.7C264.7,199.7,261.5,197.8,260.1,199.7z"/>
		<path class="st4" d="M259.8,304.7c-4.6-0.3-9.6-1.1-11.7-5.8c-1.6-3.8-1.6-8.3-2.1-12.4c-1.1,0.4-2.1,0.9-3.2,1.3
			c5,4.1,12,2.5,17.3-0.1c2.1-1.1,0.3-4.3-1.9-3.2c-3.6,1.8-9.4,3.5-12.8,0.7c-1.1-0.9-3.4-0.5-3.2,1.3c0.6,5.1,0.5,11,3.3,15.5
			c3,4.9,8.9,6,14.2,6.3C262.2,308.5,262.2,304.8,259.8,304.7z"/>
		<path class="st4" d="M363.4,209.6c18.1,9.3,36.4,22,47.3,39.6c5.1,8.3,7.5,20.5,0.9,28.8c-6.2,7.7-17.7,6.6-26.3,4.7
			c-0.8-0.2-1.6,0.1-2.1,0.9c-2.4,3.6-4.8,8.4-8.6,10.8c-3.6,2.3-8.1,0.8-11.9-0.3c-2.3-0.7-3.3,2.9-1,3.6c4.5,1.4,9.7,2.7,14.2,0.3
			c4.7-2.6,7.6-8.2,10.5-12.4c-0.7,0.3-1.4,0.6-2.1,0.9c8.6,1.9,19,2.9,26.6-2.6c5.2-3.8,7.7-9.9,8.2-16.2
			c1.1-13.9-7.7-25.3-16.9-34.7c-10.6-10.9-23.4-19.4-36.9-26.3C363.1,205.3,361.3,208.5,363.4,209.6z"/>
		<path class="st4" d="M364.3,290.5c6.5,4.8,16.4,1.5,21.5-3.9c-1.1-0.4-2.1-0.9-3.2-1.3c0.4,10.7-6.8,18.8-17.9,17.3
			c-2.3-0.3-3.3,3.2-1,3.6c6.8,0.9,13.5-0.3,18-5.9c3.3-4.1,4.8-9.7,4.6-14.9c-0.1-1.5-2-2.5-3.2-1.3c-4.1,4.3-11.8,7.2-17,3.3
			C364.2,285.9,362.4,289.1,364.3,290.5z"/>
		<path class="st1" d="M293.4,227.6c0,0,31.1-34.6,88.6-41.1c15.2-1.7,29.7,6.8,35.9,20.8c21.4,49,37.4,141.6,85.9,214.9
			c44.1-20.4,107.5-83.9,102.5-118.5c-84.3-24.8-165.1-124-190-154.3c-3.5-4.3-9.7-5.8-14.9-3.6C376,156.1,303.8,188.9,293.4,227.6z
			"/>
		<path class="st1" d="M448.6,213.1c0,0-31.5-72.6-40.8-71.4c-40,5.3-118.6,48.8-114.2,85.6C346.1,164,448.6,213.1,448.6,213.1z"/>
		<path class="st1" d="M266.1,175.1c5.5,5.5,29.3,34.1,28.7,49.5c0.1,0.9-1.4,3.1-1.4,3.1s-23.8-27.5-42.1-21.7
			C251.2,205.9,259.5,177.7,266.1,175.1z"/>
		<path class="st18" d="M368.8,164.4h4.8l0.1,16.7c0,1.7-0.2,3.1-0.6,4.3c-0.4,1.2-1,2.2-1.8,3c-0.8,0.8-1.7,1.4-2.9,1.8
			c-1.1,0.4-2.4,0.6-3.7,0.6c-6.5,0-9.8-2.9-9.9-8.9l-0.1-17.3h5.1l0.1,16.3c0,1,0.1,1.9,0.3,2.6c0.2,0.7,0.5,1.3,0.9,1.7
			c0.4,0.4,0.9,0.7,1.5,0.9c0.6,0.2,1.3,0.3,2.1,0.3c1.5,0,2.7-0.4,3.3-1.3c0.7-0.9,1-2.3,1-4.2L368.8,164.4z"/>
		
			<linearGradient id="SVGID_14_" gradientUnits="userSpaceOnUse" x1="452.6446" y1="238.866" x2="689.4886" y2="4.402" gradientTransform="matrix(1 0 0 -1 242.3622 384.6238)">
			<stop  offset="0.1438" style="stop-color:#C34F82"/>
			<stop  offset="0.2851" style="stop-color:#B84A80"/>
			<stop  offset="0.5342" style="stop-color:#9A3C79"/>
			<stop  offset="0.8599" style="stop-color:#6B276F"/>
			<stop  offset="0.8959" style="stop-color:#65246E"/>
		</linearGradient>
		<path class="st19" d="M718.6,183.8c47.5,0.6,82.8,1.2,123.5,0.9c3.3,0,6.2,2.5,6.5,5.8c2,21.7,0.1,64.4-1.7,80
			c-0.4,3.2-3.1,5.7-6.4,5.7c-19.1,0-67.2,1.3-121.7,0c-3.4-0.1-6.2-2.8-6.3-6.3c-0.4-14.6-1.3-52.4-0.4-79.8
			C712.2,186.5,715.1,183.7,718.6,183.8z"/>
		<path class="st4" d="M812.7,198.8c-0.3,7.3,0.2,14.6-0.2,21.9c0,0.5,0.4,0.9,0.9,0.9c5.3,0,10.8,0,16-0.8c0.4-0.1,0.7-0.5,0.7-0.9
			c-0.1-3.8,0.2-7.7,0.4-11.6c0.1-3.3,0.7-7.1,0-10.3c-0.1-0.3-0.4-0.6-0.6-0.6c-5.2-0.7-11,0.3-16.2,0.5c-1.2,0-1.2,1.9,0,1.9
			c3.7-0.2,7.4-0.3,11.1-0.4c1,0,2,0,3-0.1c0.6,0,1.7,0.2,1.3-0.2c-0.4-0.5-0.2,1.3-0.2,1.7c0,1.2,0,2.4,0,3.7
			c-0.1,2.7-0.2,5.4-0.3,8c-0.1,1.9,0.3,4.5-0.2,6.4c-0.2,0.7,0,0.5,0,0.6c0.5-0.3-1.6-0.1-1.4-0.1c-1.4,0-2.8,0.2-4.2,0.3
			c-3.1,0.2-6.1,0.3-9.2,0.2c0.3,0.3,0.6,0.6,0.9,0.9c0.4-7.3-0.2-14.6,0.2-21.9C814.6,197.7,812.7,197.7,812.7,198.8z"/>
		<path class="st4" d="M822.2,205.4c2.1-1.9,4.3-2.2,6.7-0.9c1.2,0.7,2.3,1.9,3.6,2.3c2,0.7,4.2-0.7,4.7-2.8
			c0.3-1.2-1.5-1.6-1.8-0.5c-1,3.7-5.9-1.1-7.8-1.6c-2.5-0.8-5,0.4-6.9,2.1C820,204.9,821.3,206.2,822.2,205.4z"/>
		<path class="st4" d="M822.8,211.2c2.3-3.2,5.4-2.7,8.1-0.5c0.9,0.8,1.6,1.4,2.9,1.5c1.9,0.2,3.3-1.2,4-2.9
			c0.5-1.1-1.3-1.6-1.8-0.5c-1.1,2.7-3.6,0.4-5.2-0.7c-0.9-0.6-2-1-3.2-1.1c-2.7-0.3-4.9,1.1-6.5,3.2
			C820.5,211.2,822.1,212.2,822.8,211.2z"/>
		<path class="st4" d="M824.1,216.9c1-1.5,2.7-2.4,4.5-2.2c1.4,0.2,2.1,1,3.3,1.6c1.6,0.8,3,0.5,4.5-0.2c1.1-0.5,0.1-2.1-0.9-1.6
			c-2.5,1.2-3.2-0.4-5-1.2c-1-0.4-2.1-0.6-3.2-0.5c-2.1,0.2-3.7,1.4-4.8,3.1C821.8,217,823.4,217.9,824.1,216.9z"/>
		<path class="st4" d="M725,202.6c16.8,1.8,33.6,0.1,50.4,0.8c1.2,0.1,1.2-1.8,0-1.9c-16.8-0.7-33.6,1-50.4-0.8
			C723.8,200.6,723.8,202.5,725,202.6z"/>
		<path class="st4" d="M725.3,210c17,1.8,33.8-0.7,50.8-0.2c1.2,0,1.2-1.8,0-1.9c-17-0.5-33.8,2.1-50.8,0.2
			C724.1,208,724.2,209.9,725.3,210z"/>
		<path class="st4" d="M726.2,217.1c16.8,0.5,33.5,0.4,50.3-0.2c1.2,0,1.2-1.9,0-1.9c-16.8,0.6-33.5,0.7-50.3,0.2
			C725,215.2,725,217.1,726.2,217.1z"/>
		<path class="st4" d="M777.9,243.9c16.8,1.8,33.6,0.1,50.4,0.8c1.2,0.1,1.2-1.8,0-1.9c-16.8-0.7-33.6,1-50.4-0.8
			C776.7,241.9,776.7,243.8,777.9,243.9z"/>
		<path class="st4" d="M777.3,251.4c17,1.8,33.8-0.4,50.8,0.2c1.2,0,1.2-1.8,0-1.9c-17-0.5-33.9,1.7-50.8-0.2
			C776.2,249.5,776.2,251.3,777.3,251.4z"/>
		<path class="st4" d="M777.7,259.1c16.8,0.5,33.5,0.4,50.3-0.2c1.2,0,1.2-1.9,0-1.9c-16.8,0.6-33.5,0.7-50.3,0.2
			C776.6,257.2,776.6,259,777.7,259.1z"/>
		
			<linearGradient id="SVGID_15_" gradientUnits="userSpaceOnUse" x1="-151.9713" y1="49.6627" x2="-113.8437" y2="-51.2732" gradientTransform="matrix(1 0 0 -1 242.3622 384.6238)">
			<stop  offset="0" style="stop-color:#FFAE00"/>
			<stop  offset="0.234" style="stop-color:#FFA000"/>
			<stop  offset="0.5562" style="stop-color:#FF9500"/>
			<stop  offset="0.8895" style="stop-color:#FF9100"/>
		</linearGradient>
		<path class="st20" d="M93.1,354.8c5.7,0,11.5,0,17.5-0.1c1.9,0,3.6,1.4,3.8,3.4c1.4,13.9,0.1,42-1.1,51.7
			c-0.2,1.9-1.8,3.3-3.7,3.3c-1.4,0-3.1,0-5.1,0"/>
		<path class="st4" d="M91.5,363.8c-0.2,4.7,0.2,9.3-0.1,14c0,0.3,0.3,0.6,0.6,0.6c3.4,0,6.9,0,10.3-0.5c0.3,0,0.5-0.3,0.5-0.6
			c-0.1-4.5,1.1-9.5,0.2-14c-0.1-0.3-0.3-0.4-0.6-0.5c-3.3-0.4-6.9,0.2-10.2,0.3c-0.8,0-0.8,1.3,0,1.2c2.3-0.1,4.7-0.2,7-0.3
			c0.8,0,2.4-0.4,3.1-0.1c-0.7-0.3-0.2-0.1-0.4,0.6c-0.2,0.6,0,1.5,0,2.2c-0.1,3,0.3,6.6-0.3,9.5c-0.2,1,0.3,0.4-0.6,0.5
			c-0.9,0.1-1.7,0.1-2.6,0.2c-2.1,0.1-4.2,0.2-6.3,0.2c0.2,0.2,0.4,0.4,0.6,0.6c0.3-4.7-0.1-9.3,0.1-14
			C92.7,363,91.5,363,91.5,363.8z"/>
		<path class="st4" d="M97.6,368c1.3-1.2,2.7-1.4,4.3-0.6c0.8,0.4,1.5,1.2,2.3,1.5c1.3,0.5,2.7-0.5,3.1-1.8c0.2-0.8-1-1.1-1.2-0.3
			c-0.6,2.3-3.7-0.7-4.9-1.1c-1.6-0.5-3.2,0.3-4.4,1.4C96.1,367.6,97,368.5,97.6,368z"/>
		<path class="st4" d="M98,371.7c1.5-2,3.4-1.7,5.1-0.3c0.6,0.5,1.1,0.9,1.9,1c1.3,0.1,2.1-0.8,2.6-1.9c0.3-0.7-0.9-1.1-1.2-0.3
			c-0.7,1.7-2.3,0.2-3.3-0.5c-0.6-0.4-1.3-0.6-2-0.7c-1.7-0.2-3.1,0.7-4.2,2C96.5,371.7,97.5,372.3,98,371.7z"/>
		<path class="st4" d="M98.8,375.4c0.7-1,1.7-1.5,2.9-1.4c0.9,0.1,1.3,0.7,2.1,1c1,0.5,1.9,0.3,2.9-0.1c0.7-0.4,0.1-1.4-0.6-1.1
			c-1.5,0.8-2-0.3-3.2-0.8c-0.6-0.3-1.3-0.4-2-0.3c-1.3,0.1-2.4,0.9-3.1,2C97.3,375.4,98.4,376,98.8,375.4z"/>
		<path class="st4" d="M69.3,392.6c10.7,1.1,21.4,0.1,32.2,0.5c0.8,0,0.8-1.2,0-1.2c-10.7-0.5-21.5,0.6-32.2-0.5
			C68.5,391.3,68.5,392.5,69.3,392.6z"/>
		<path class="st4" d="M68.9,397.4c10.8,1.1,21.6-0.2,32.4,0.1c0.8,0,0.8-1.2,0-1.2c-10.9-0.3-21.6,1-32.4-0.1
			C68.2,396.1,68.2,397.3,68.9,397.4z"/>
		<path class="st4" d="M69.2,402.3c10.7,0.3,21.4,0.3,32.1-0.1c0.8,0,0.8-1.3,0-1.2c-10.7,0.4-21.4,0.4-32.1,0.1
			C68.4,401,68.4,402.2,69.2,402.3z"/>
		<path class="st1" d="M274.5,26.1c0,0-9.7,10.7-7.9,13c8.9-2.3,46.2-23.7,150.9,23.7c0,0,3.8-26,0.5-28.3
			C414.6,32.2,325.5,9,274.5,26.1z"/>
		<path class="st1" d="M409.8,29.7c15.6,25.8,49.3,40.8,76.7,29.3c31.1-13,39.9-45.5,76-19.4c0.6,0.4,0.1,1.4-0.6,1.1
			c-8.2-2.4-13.1-2-21.4,1.1c10.6,3.8,17.9,8.8,25.3,17.2c0.5,0.5-0.1,1.3-0.8,1c-36.3-16.4-39.6,7.2-73,19.3
			c-15.8,5.7-34,8.3-49.6,1c-17-8-30.6-24.2-42.3-42.5"/>
		<path class="st4" d="M438.9,19.4C419.8-1.9,371.2,1.6,330,4.2c1,24.3,63.9,54.2,76.2,88.4C435.1,75.8,438.9,19.4,438.9,19.4z"/>
	</g>
</g>
</svg>
