<?xml version="1.0" encoding="utf-8"?>
<!-- Generator: Adobe Illustrator 23.0.1, SVG Export Plug-In . SVG Version: 6.00 Build 0)  -->
<svg version="1.1" id="Layer_1" xmlns="http://www.w3.org/2000/svg" xmlns:xlink="http://www.w3.org/1999/xlink" x="0px" y="0px"
	 viewBox="0 0 1024.2 536.9" style="enable-background:new 0 0 1024.2 536.9;" xml:space="preserve">
<style type="text/css">
	.st0{fill:#FFFFFF;}
	.st1{fill:#A85A82;}
	.st2{fill:#AFCFEF;}
	.st3{fill:#FF9600;}
	.st4{fill:#443B43;}
	.st5{fill:#FFA977;}
	.st6{fill:#E5895A;}
	.st7{fill:#574E56;}
	.st8{opacity:0.5;}
	.st9{opacity:0.5;fill:#282328;enable-background:new    ;}
	.st10{fill:#91446E;}
	.st11{fill:#CFE5FF;}
	.st12{fill:#30222E;}
	.st13{fill:#E2FAFF;}
</style>
<g>
	<path class="st0" d="M87.1,356.1c-5.8-116.4-2.4-230-4.2-343.6c0-3.8,3.4-6.8,7.9-7c305.8-6,607.9-7,923.8,1.6
		c4.2,0.2,7.9,3.2,7.9,6.8c2.6,118.8,0.6,226.4,1.8,338.8"/>
	<path class="st1" d="M296.9,330.1H121c-10.3,0-18.5-8.3-18.5-18.5V69.8c0-10.3,8.3-18.5,18.5-18.5h175.7c10.3,0,18.5,8.3,18.5,18.5
		v241.7C315.4,321.8,307,330.1,296.9,330.1z"/>
	<path class="st2" d="M997.4,40H105.1c-2,0-3.6-1.6-3.6-3.6c0-2,1.6-3.6,3.6-3.6h892.2c2,0,3.6,1.6,3.6,3.6
		C1000.8,38.4,999.2,40,997.4,40z"/>
	<path class="st3" d="M719.2,322.8h-370c-10.3,0-18.5-8.3-18.5-18.5v-54.6c0-10.3,8.3-18.5,18.5-18.5h370c10.3,0,18.5,8.3,18.5,18.5
		v54.6C737.7,314.6,729.5,322.8,719.2,322.8z"/>
	<path class="st2" d="M980.3,330.1H775.8c-10.3,0-18.5-8.3-18.5-18.5V73.9c0-10.3,8.3-18.5,18.5-18.5h204.5
		c10.3,0,18.5,8.3,18.5,18.5v237.7C998.8,321.8,990.6,330.1,980.3,330.1z"/>
	<path class="st1" d="M593.8,204.2c0,0-170.7-6.2-230.9,0c-6.8,0.6-12.3-5.4-12.3-12.3V126c0-6.8,5.4-12.3,12.3-12.3
		c0,0,164.5,5.4,230.9,0c6.8-0.6,12.3,5.4,12.3,12.3v65.9C606.3,198.8,600.7,204.2,593.8,204.2z"/>
	<path class="st0" d="M938.2,374.4H323.1v135.8h615.2V374.4z"/>
	<path class="st4" d="M148.7,182.6L61.4,536.9h16.1l87.4-354.3H148.7z"/>
	<path class="st4" d="M272.5,182.6l-88,354.3h16.7l87.4-354.3H272.5z"/>
	<path class="st4" d="M273.8,221.2l-124.3-11.4l-1,11l124.3,11.4L273.8,221.2z"/>
	<path class="st4" d="M260.1,277.4L135.8,266l-1,11l124.3,11.4L260.1,277.4z"/>
	<path class="st4" d="M250,334.6l-124.3-11.4l-1,11L249,345.6L250,334.6z"/>
	<path class="st4" d="M229.5,394l-124.3-11.4l-1,11L228.5,405L229.5,394z"/>
	<path class="st4" d="M218.2,453.2L93.9,441.9l-1,11l124.3,11.4L218.2,453.2z"/>
	<path class="st4" d="M207.4,497.6L83.1,486.2l-1,11l124.3,11.4L207.4,497.6z"/>
	<path class="st5" d="M177.1,274.7c-21.3,37.3-27.4,72.9-52.3,79.2c-25,6.2-46.1-18.5-92.2-73.1c3.6-2.2,7.4-4,11.3-5.6
		c21.7,22.2,60,20.9,69.4,48.5c3.2-19.3,4.2-45.3,22.1-71.5c2.4-3.6,12.5-5,14.3-1.2L177.1,274.7z"/>
	<path class="st6" d="M118.9,289.6c4-14.5,5.8-32.4,13.5-47.1c2-3.8,12.1-6,14.1-2.2l29.6,21.4c-5.2,11.1-11.7,40.7-15.3,50.8
		C145.9,308.9,134.9,288.4,118.9,289.6z"/>
	<path class="st5" d="M253.2,120.8c0,0-14.7,21.8-9.7,35.9c0,0-39.7-1-32.4-9.1c7-8.1,29.6-42.1,29.6-42.1L253.2,120.8z"/>
	<path class="st6" d="M243.1,108.7l10.1,12.3c0,0-6.4,9.5-9.3,20.1C235.7,132.1,235.3,119.6,243.1,108.7z"/>
	<path class="st5" d="M155.8,440.1c-5,1.6-4.4,0.8-13.7-2.2l1.6-2.4c1.8-58.6-7.4-84.2,13.5-105.3c-0.6-25,2.8-40.5,13.5-64.1
		l35.6,13.3c4.8,1.8,7.2,7.3,5.2,12.1C176.5,373.8,156.2,440.1,155.8,440.1z"/>
	<path class="st6" d="M158.8,299.5c-1.4-2,0.2-10.9,1-14.1l49.5,6.8c0,2.2,0.2,4.8-5,16.3C190.6,300.1,165.9,297.7,158.8,299.5z"/>
	<path class="st5" d="M278.6,89c-51.5-23.8-51.5,18.9-35.8,36.7c8.1,9.1,23.8,9.9,30.8-7.9c0.8-1.8,2.8-1.8,3.4-4.2
		c-6.2-14.1,1.4-24.4,0.2-25.2"/>
	<path class="st2" d="M169.3,288.2c-20.7-4.8-53.5,3.6-63.8-11.7c26-54.2,43.9-111,114.1-160.5c6,26.6,32.2,37.1,32.2,37.1
		c-6.8,22-10.1,33.4-19.9,78c-9.5,43.7-10.5,51.6-13.9,76.7C198.5,296.2,193,293.8,169.3,288.2z"/>
	<path class="st2" d="M143.9,430.6c-6.8,8.1-6.8,9.9-4.8,15.1c11.3,4.4,50.7,8.1,51.7,4.4c1.4-5.2-15.3-8.5-31.8-18.3
		c0,0-5.2,3.2-9.1,2.6C145.1,433.4,143.9,430.6,143.9,430.6z"/>
	<path class="st2" d="M50.4,281c1.9-10.4,1-12-3.4-15.5c-12,1.8-48,18.4-47,22c1.4,5.2,18.8-0.9,38-0.6c0,0,1.6-4.8,5.2-6.2
		C48,279.1,50.4,281,50.4,281z"/>
	<path class="st5" d="M218.4,156.3c19.5,1.8,50.3,7.5,70.7,23.8c0.8,6,0.8,9.5-3.8,14.3c-32.4,4.4-84.1-4.8-88-14.7
		C187.4,154.4,210.3,155.4,218.4,156.3z"/>
	<path class="st5" d="M268.3,194.1c19.5,10.5,85.1-24.8,76.5-48.7c-20.9,20.3-68,15.1-78.9,31.6"/>
	<path class="st4" d="M225,103.3c-31.2-1-69.2,0.2-72.9,28c-59.4-1.8-34.4,89.4-15.3,109c71.9,73.7,85.1-24,90-40.1
		c11.9-40.9,7.2-56,14.1-81.6c-1.6-29.6,26.2-6.8,38.6-26.8C286.6,80.7,227,65.8,225,103.3z"/>
	<path class="st7" d="M268.2,109.2c0.2-1.2-0.3-2.3-1.1-2.4c-0.8-0.1-1.5,0.8-1.7,2c-0.2,1.2,0.3,2.3,1.1,2.4
		C267.2,111.3,268,110.4,268.2,109.2z"/>
	<g class="st8">
		<g class="st8">
			<path class="st9" d="M241.3,101.7c-7,7.7-10.9,18.1-14.5,27.8c-3.8,10.5-7.7,21.4-8.1,32.4c-0.6,17.5,0.4,34-5.6,51
				c-6.2,17.7-23.1,45.3-45.3,42.3c-1-0.2-1.4,1.4-0.4,1.4c14.1,2,26.2-8.9,34.4-19.3c10.1-12.9,15.7-28.8,17.7-44.9
				c2.2-16.3-0.8-32.2,3.8-48.3c4-13.9,9.1-30.6,18.9-41.5C243.1,102.1,241.9,100.9,241.3,101.7z"/>
		</g>
	</g>
	<g class="st8">
		<g class="st8">
			<path class="st9" d="M225.6,114c-12.1,13.7-19.3,34.2-20.9,52.4c-1.2,15.7,1,30.4-6.4,45.1c-8.5,16.3-25.6,26.2-43.9,23.2
				c-1-0.2-1.4,1.2-0.4,1.4c25.4,4,46.1-14.9,50.9-39.1c2.8-14.1,0-28.6,3.4-42.7c3.2-13.9,8.9-28.2,18.3-39.1
				C227.2,114.2,226.2,113.2,225.6,114z"/>
		</g>
	</g>
	<g class="st8">
		<g class="st8">
			<path class="st9" d="M205.7,127.5c-9.9,11.7-17.1,27.2-18.9,42.5c-1.4,11.7,1.2,23.2-6.2,33.4c-7,10.1-20.1,11.1-31.2,7.9
				c-1-0.2-1.4,1.2-0.4,1.4c14.9,4.4,30.2,0.6,36.4-14.7c4.4-10.9,1.4-23.2,4.2-34.4c3-12.7,8.7-25.2,17.3-35
				C207.5,127.7,206.3,126.6,205.7,127.5z"/>
		</g>
	</g>
	<path class="st4" d="M968.2,536.5l-78.5-318.7h-16.1l78.7,318.7H968.2z"/>
	<path class="st4" d="M844.4,536.5l-78.5-318.7h-16.1l78.5,318.7H844.4z"/>
	<path class="st4" d="M765,267.1l124.3-11.4l-1-11L764,256.1L765,267.1z"/>
	<path class="st4" d="M778.5,323.3L902.7,312l-1-11l-124.3,11.4L778.5,323.3z"/>
	<path class="st4" d="M788.5,380.4l124.3-11.4l-1-11l-124.3,11.4L788.5,380.4z"/>
	<path class="st4" d="M807.9,432.2l124.3-11.4l-1-11l-124.3,11.4L807.9,432.2z"/>
	<path class="st4" d="M817,477.1l124.3-11.4l-1-11L816,466.1L817,477.1z"/>
	<path class="st4" d="M830,530.3l124.3-11.4l-1-11L829,519.2L830,530.3z"/>
	<path class="st5" d="M806.8,18.1C776-1.5,783,19.3,775.6,33c-0.4,0.8-0.2,1.8,0.6,2c1.4,0.6,3.4,0,3.8,1.8c1.2,5,0.8,9.5,4,11.9
		c4,3,13.3,3,20.5-3.6c0,0,6.2-19.9,4.2-23.4"/>
	<path class="st5" d="M800.1,37.8l16.1,24l-17.1,10.5c0,0-2-21.4-9.5-27.6C790.9,41.8,800.1,37.8,800.1,37.8z"/>
	<path class="st10" d="M820.3,153.6l44.3,26.6c-15.5,18.1-41.9,45.7-41.5,55.6c9.7,20.1,14.5,38.3,47.3,35
		c1.4,2.8,12.1,15.3,13.3,18.1C833,314.2,700.7,247.3,820.3,153.6z"/>
	<path class="st1" d="M847,256c4,13.1,7.4,60.6,22.3,92.9c-4.4,4-11.1,2.8-15.9,5.4c-0.2,0-42.5-71.1-46.1-96.7
		c-3.8-27.4-6.2-87.2,21.9-111l40.7,18.3C862.1,207,852.5,230.6,847,256z"/>
	<path class="st11" d="M873.4,269.9c6-3.4,9.3-3.4,12.3-1.4c1,9.7,3.8,23.2,2.6,31.4c-0.4,2.8-3.4,2.4-6.8,2.6c-2.4,0-6-4.2-1.4-4.8
		c-0.2-1.6-0.2-3.4-0.6-5.6l-8.7,1.8l-4.4-24.8L873.4,269.9z"/>
	<path class="st11" d="M870.2,352c2.8,6.4,2.4,9.7,0,12.5c-12.5-0.2-26,3.4-37.4,0c-1.6-3.4-0.2-4.4,14.7-8.9l-0.8-8.9l25-1.6
		L870.2,352z"/>
	<path class="st11" d="M809.2,175c-3.8,0-7.2-1.4-11.1-1.2c6.8-37.9-4.2-77.3-6.4-106.2l20.7-17.3c41.1,24,72.7,92.3,55.2,127.1
		C850.5,171.2,825.5,175.2,809.2,175z"/>
	<path class="st12" d="M782.6,30.8c0.8-0.1,1.3-1,1.2-2.1c-0.1-1.1-0.8-2-1.6-1.9s-1.3,1-1.2,2.1C781.1,30,781.8,30.8,782.6,30.8z"
		/>
	<path class="st4" d="M804.8,45.5c9.1-12.1,13.7-23.2,9.7-30c-2.4-4.2-6.6-9.5-12.3-10.9c-8.5-2-19.1,0.2-25.8,5.8
		c-2.6,2.2-1.2,8.5,2.2,8.7c8.9,0.4,15.5,4.4,17.1,13.7c0.8,4.2,4.6-3.2,7-3.6C809,28.1,804.8,45.5,804.8,45.5z"/>
	<path class="st5" d="M746.8,66.8c6.2-8.5,4.8-7.7,12.7-14.3c19.3,5,64.2,6,68.8,22.4c1,3.6-3.2,11.5-6.4,13.5
		C808.4,97.4,761.3,84.3,746.8,66.8z"/>
	<path class="st5" d="M713.8,13.8c7.4,23.8,47.5,34,51.9,41.5c6,10.1-6.6,16.7-10.3,18.7c-27.2-10.5-43.5-33.4-51.7-53
		C707.1,17.9,711,18.3,713.8,13.8z"/>
	<path class="st5" d="M715.4,11.4c0,0-3.8-4.6-6.8-10.5c-4.6-1-10.7-1.8-15.1,0.8c-2,6.8,8.5,18.5,9.9,20.3c2.2,2.8,6.8,1.2,6.8,1.2
		s3-0.6,4.8-3.4c5.4-7.3,11.3-8.7,9.5-10.3C721.8,6.8,715.4,11.4,715.4,11.4z"/>
	<path class="st4" d="M347.8,255.8c2.7,0,4.8-2.2,4.8-4.8s-2.2-4.8-4.8-4.8s-4.8,2.2-4.8,4.8S345.2,255.8,347.8,255.8z"/>
	<path class="st2" d="M717.8,493H348.2c-10.3,0-18.5-8.3-18.5-18.5v-67.9c0-10.3,8.3-18.5,18.5-18.5h369.6
		c10.3,0,18.5,8.3,18.5,18.5v67.9C736.3,484.8,727.9,493,717.8,493z"/>
	<path class="st4" d="M717.6,255.8c2.7,0,4.8-2.2,4.8-4.8s-2.2-4.8-4.8-4.8c-2.7,0-4.8,2.2-4.8,4.8S714.9,255.8,717.6,255.8z"/>
	<path class="st4" d="M981.1,78.1c2.7,0,4.8-2.2,4.8-4.8c0-2.7-2.2-4.8-4.8-4.8c-2.7,0-4.8,2.2-4.8,4.8
		C976.3,75.9,978.4,78.1,981.1,78.1z"/>
	<path class="st4" d="M116.1,69c1.8,0,3.2-1.4,3.2-3.2s-1.4-3.2-3.2-3.2c-1.8,0-3.2,1.4-3.2,3.2S114.4,69,116.1,69z"/>
	<path class="st4" d="M300.3,69c1.8,0,3.2-1.4,3.2-3.2s-1.4-3.2-3.2-3.2c-1.8,0-3.2,1.4-3.2,3.2S298.5,69,300.3,69z"/>
	<path class="st13" d="M342.6,302.3c32.4-26.4,74.9-43.3,115.9-49.8c-0.6-1.4-1.2-2.8-1.8-4.2c-31,19.7-63.4,38.3-90.4,63.4
		c-0.8,0.8-0.8,1.8-0.4,2.8c3.4,7.3,12.7,3.4,18.3,1.4c12.1-4.2,24-9.5,35.4-14.9c25.4-12.3,49.7-27,75.1-39.3
		c6.6-3.2,13.3-6.2,20.1-9.3c3.6-1.6,7.2-3,10.9-4.4c1.6-0.6,3.2-1.2,4.8-1.8c3,2.6,3.4,5,1,7.1c-2.2,4.6-8.7,9.3-12.5,12.3
		c-5,4.2-10.5,8.1-15.9,11.9c-9.1,6.4-18.1,12.5-26.6,19.5c-4.4,3.8-17.3,13.1-16.7,19.7c0.2,1.2,1,2.2,2.2,2.2
		c4.6,0.4,11.1-6.2,14.9-8.7c7.2-4.6,14.7-9.1,22.3-13.3c14.5-8.1,29.2-15.5,44.1-22.8c14.7-7.1,29.6-13.7,44.5-20.3
		c5.8-2.6,11.7-5.2,17.7-7.7c3.6-1.4,8.9-4.2,12.7-4c-0.8-1-1.4-1.8-2.2-2.8c0,0.6-6.2,6.8-7.4,8.5c-4.6,6.2-8.9,12.7-13.3,19.1
		c-4.4,6.4-8.9,12.7-13.1,19.1c-3,4.4-6,9.3-2.4,14.1c0.6,1,2,1.6,3,0.8c12.9-9.3,25.8-18.3,38.4-27.6c2.6-1.8,5.6-5,8.7-6.2
		c0.4-0.2,1.6-1.6,2-1.4c2.4,0.4,4.4,11.3,4.6,13.5c1,13.9-6.2,27.4,1.6,40.5c0.6,1.2,2.6,1.6,3.6,0.4c7.2-8.3,15.1-15.5,24.2-22
		c1.4-1,3.8-3.2,5.4-3.8c4.2-1,6.2,2,8.3,4.4c3.6,4,6,10.5,8.7,15.1c1.4,2.6,5.4,0.2,3.8-2.2c-3.8-6.6-9.3-25.4-19.9-22.8
		c-5.6,1.4-11.5,7.3-15.9,10.7c-6.4,5.2-12.5,11.1-17.9,17.3c1.2,0.2,2.4,0.4,3.6,0.4c-10.3-17.3,9.1-41.5-9.7-55.8
		c-0.6-0.4-1.6-0.4-2.2,0c-16.5,11.9-33,23.6-49.5,35.5c1,0.2,2,0.6,3,0.8c-3.4-4.8,6.4-15.3,9.1-19.1c4.2-6,8.3-12.3,12.5-18.3
		c3.4-5,6.8-10.3,10.9-14.9c1-1.2,4.2-3.4,4.4-5.2c0.2-1.4-0.6-2.8-2.2-2.8c-6.2-0.4-14.7,4.2-20.3,6.6
		c-15.3,6.4-30.4,13.5-45.5,20.5c-15.5,7.3-31,14.7-46.1,23c-7.2,3.8-14.3,7.9-21.3,12.1c-4,2.4-7.9,4.8-11.7,7.3
		c-2.2,1.4-8.7,7.3-11.1,7.1c0.8,0.8,1.6,1.6,2.2,2.2c-0.4-4.8,13.1-14.7,16.5-17.5c6.6-5.4,13.9-10.5,20.9-15.5
		c11.5-8.1,24.8-16.3,33.2-27.8c3.8-5.2,5.8-14.5-3.4-14.7c-6.8-0.2-15.9,5.4-22.1,8.1c-7.9,3.4-15.7,7.1-23.4,11.1
		c-33.2,16.7-64.8,36.9-100,49.6c-2.4,0.8-12.3,5.8-14.1,2.2c-0.4-0.6,10.3-8.7,11.1-9.5c8.5-6.8,17.3-13.1,26.4-18.9
		c16.3-10.9,32.8-21.2,49.3-31.6c2.2-1.4,0.8-4.6-1.8-4.2c-41.9,6.6-84.9,24-118,51C337.2,301.1,340.4,304.1,342.6,302.3z"/>
	<path class="st5" d="M339.6,160.7c0,0,20.3,4.4,21.9,3c1.6-1.4,11.5-4.8,10.9-10.7c-0.4-5.2-20.7-4.4-20.7-4.4s1.4-11.1,1-12.7
		c-0.6-3.4-5.2,4.4-10.3,10.9c-2.8,3.6-6.6,5.6-7.2,7.3C333.9,158.5,339.6,160.7,339.6,160.7z"/>
	<path class="st4" d="M344.8,412.1c2.7,0,4.8-2.2,4.8-4.8c0-2.7-2.2-4.8-4.8-4.8c-2.7,0-4.8,2.2-4.8,4.8
		C340,409.9,342.1,412.1,344.8,412.1z"/>
	<path class="st4" d="M718.2,412.1c2.7,0,4.8-2.2,4.8-4.8c0-2.7-2.2-4.8-4.8-4.8c-2.7,0-4.8,2.2-4.8,4.8
		C713.4,409.9,715.5,412.1,718.2,412.1z"/>
	<path class="st13" d="M366.9,429.2c109.3-11.7,219.4-15.9,329.5-12.5c-0.2-1.4-0.4-3-0.6-4.4c-13.3,5.6-28,4.8-42.3,5.6
		c-12.9,0.6-25.8,1.6-38.9,2.8c-26.6,2.4-53.1,6-79.5,10.5c-54.6,9.1-108.3,21.1-162,33.2c-2.6,0.6-1.8,4.2,0.6,4.4
		c80.5,6.6,160.4-8.9,240.8-10.9c17.1-0.4,34,0.2,51.1,0.8c5.2,0.2,10.7,0.4,15.9,0.8c2.2,0.2,5.2,1.2,5,0c0.2,1.2-8.5,5.6-9.7,6.4
		c-3.6,2.2-16.3,8.9-6.6,13.7c4.8,2.4,14.7-1.6,19.3-2.4c11.7-2.2,22.9-3.4,33.6,2.4c2.6,1.4,4.8-2.4,2.2-3.8
		c-10.3-5.6-21.1-5.6-32.2-3.6c-3.2,0.6-6.4,1.2-9.9,1.8c-1.2,0.2-3.6,1.2-4.8,1c-0.6-0.4-1.2-0.8-1.8-1.2c-2.4-0.8-2.4-1.4-0.4-2
		c2.4-3.8,10.3-5,13.5-8.7c8.7-10.1-18.3-8.3-22.5-8.5c-61.8-2.4-122.2,4-183.6,8.9c-36.4,2.8-73.1,4.2-109.7,1.2
		c0.2,1.4,0.4,3,0.6,4.4c53.7-12.1,107.7-24.4,162-33.2c28-4.6,56-8.5,84.1-10.9c13.5-1.2,27.2-2,40.7-2.6
		c12.3-0.4,24.2-0.6,35.6-5.4c2.2-1,2.2-4.4-0.6-4.4c-109.9-3.4-220,0.6-329.5,12.5C364.1,425,363.9,429.6,366.9,429.2z"/>
</g>
</svg>
