<?xml version="1.0" encoding="utf-8"?>
<!-- Generator: Adobe Illustrator 23.0.1, SVG Export Plug-In . SVG Version: 6.00 Build 0)  -->
<svg version="1.1" id="Layer_1" xmlns="http://www.w3.org/2000/svg" xmlns:xlink="http://www.w3.org/1999/xlink" x="0px" y="0px"
	 viewBox="0 0 869.7 651.8" style="enable-background:new 0 0 869.7 651.8;" xml:space="preserve">
<style type="text/css">
	.st0{clip-path:url(#SVGID_2_);}
	.st1{fill:#2E232D;}
	.st2{fill:#FFFFFF;}
	.st3{fill:#E3F1FF;}
	.st4{fill:#9E5F81;}
	.st5{fill:#FDB43E;}
	.st6{fill:#574E56;}
	.st7{fill:url(#SVGID_3_);}
	.st8{fill:url(#SVGID_4_);}
	.st9{fill:url(#SVGID_5_);}
	.st10{fill:#EAFCFF;}
	.st11{fill:#6A2D57;}
	.st12{fill:#FBB23E;}
	.st13{fill:#D4E6FF;}
	.st14{fill:#DCECFF;}
</style>
<g>
	<defs>
		<rect id="SVGID_1_" x="0.1" width="869.6" height="651.8"/>
	</defs>
	<clipPath id="SVGID_2_">
		<use xlink:href="#SVGID_1_"  style="overflow:visible;"/>
	</clipPath>
	<g class="st0">
		<path class="st1" d="M775.3,609.4c0-78.1,0.4-156.2,0.7-234.3c0.3-79.7,0.6-159.3,0.3-239c-0.1-42.5-0.4-85-1-127.6
			c-0.4,0.5-0.7,1-1.1,1.4c6.4-2.3,12.8-4.7,19.2-7c-0.6-0.5-1.3-1-1.9-1.4c0.2,18.8,0.4,37.6,0.7,56.4c0.5,45.1,1.1,90.3,1.6,135.4
			c0.6,54.2,1.3,108.5,1.9,162.7c0.6,47.2,1.1,94.3,1.7,141.5c0.2,15.5,0.4,31.1,0.5,46.6c0.1,7.2-0.6,14.9,0.3,22
			c0,0.3,0,0.6,0,0.9c0,1.9,3,1.9,3,0c-0.2-18.8-0.4-37.6-0.7-56.4c-0.5-45.1-1.1-90.3-1.6-135.4c-0.6-54.2-1.3-108.5-1.9-162.7
			c-0.6-47.2-1.1-94.3-1.7-141.5c-0.2-15.5-0.4-31.1-0.5-46.6c-0.1-7.2,0.6-14.9-0.3-22c0-0.3,0-0.6,0-0.9c0-0.9-1-1.8-1.9-1.4
			c-6.4,2.3-12.8,4.7-19.2,7c-0.6,0.2-1.1,0.8-1.1,1.4c1,77.1,1.1,154.3,1.1,231.4c-0.1,79.9-0.5,159.9-0.8,239.8
			c-0.2,43.2-0.3,86.4-0.3,129.7C772.3,611.3,775.3,611.4,775.3,609.4z"/>
		<path class="st2" d="M147.3,629.8c0-125.6,4.6-324.9,1-458.9c61.8,0,684-2.4,713.1,0.9c0.5,43.6,5.9,335.8,4.6,458"/>
		<path class="st1" d="M150.3,629.8c0-57.5,0.8-114.9,1.3-172.4c0.6-63.4,1.2-126.7,1-190.1c-0.1-32.1-0.5-64.3-1.3-96.4
			c-1,1-2,2-3,3c30.7,0,61.5-0.1,92.2-0.2c56.1-0.2,112.1-0.3,168.2-0.4c64.4-0.1,128.8-0.2,193.1-0.2c55.6,0,111.3,0,166.9,0.3
			c29.8,0.2,59.9-0.5,89.6,1.2c1,0.1,2,0.1,3,0.2c-1-1-2-2-3-3c0.6,46.7,1.5,93.3,2.2,140c1.1,72.6,2,145.2,2.5,217.8
			c0.2,33.4,0.3,66.8,0,100.2c0,3.9,6,3.9,6,0c0.7-65.4-0.1-130.7-0.8-196.1c-0.8-67.3-1.8-134.7-2.9-202c-0.3-20-0.7-39.9-0.9-59.9
			c0-1.8-1.4-2.8-3-3c-8.1-0.9-16.4-0.7-24.5-0.8c-17.4-0.3-34.8-0.4-52.2-0.5c-53.4-0.3-106.8-0.4-160.3-0.4
			c-64.2,0-128.5,0.1-192.7,0.2c-58,0.1-115.9,0.2-173.9,0.4c-34.7,0.1-69.5,0.2-104.2,0.3c-1.8,0-3.5,0-5.3,0c-1.6,0-3,1.4-3,3
			c1.6,59.4,1.6,118.9,1.2,178.3c-0.3,62.8-1.1,125.6-1.7,188.5c-0.3,30.7-0.5,61.4-0.5,92.1C144.3,633.6,150.3,633.6,150.3,629.8z"
			/>
		<path class="st3" d="M363.9,596.9c0-119.8-0.5-363.9-2.5-379.1c-28.8,0.2-130.6,0-178.7,3.2l-5.8,376.6L363.9,596.9z"/>
		<path class="st2" d="M357.7,590.5c0-119.8-0.5-363.9-2.5-379.1c-28.8,0.2-130.6,0-178.7,3.2l-5.8,376.6L357.7,590.5z"/>
		<path class="st1" d="M359.2,590.5c0-58.6-0.1-117.2-0.3-175.7c-0.2-54.7-0.3-109.4-1.1-164c-0.2-12.9,0.5-26.4-1.1-39.3
			c-0.1-0.8-0.6-1.5-1.5-1.5c-46.7,0.4-93.4,0.2-140.1,1.5c-12.9,0.4-25.7,0.8-38.6,1.7c-0.8,0.1-1.5,0.6-1.5,1.5
			c-0.2,12.5-0.4,25.1-0.6,37.6c-0.5,29.9-0.9,59.8-1.4,89.7c-0.6,36.3-1.1,72.7-1.7,109c-0.5,31.3-1,62.5-1.4,93.8
			c-0.2,10.3-0.3,20.7-0.5,31c-0.1,4.7-0.9,10.1-0.2,14.8c0,0.2,0,0.5,0,0.7c0,0.8,0.7,1.5,1.5,1.5c21-0.1,42-0.1,63.1-0.2
			c33.6-0.1,67.1-0.2,100.7-0.4c7.8,0,15.5-0.1,23.3-0.1c1.9,0,1.9-3,0-3c-21,0.1-42,0.1-63.1,0.2c-33.6,0.1-67.1,0.2-100.7,0.4
			c-7.8,0-15.5,0.1-23.3,0.1c0.5,0.5,1,1,1.5,1.5c0.2-12.5,0.4-25.1,0.6-37.6c0.5-29.9,0.9-59.8,1.4-89.7c0.6-36.3,1.1-72.7,1.7-109
			c0.5-31.3,1-62.5,1.4-93.8c0.2-10.3,0.3-20.7,0.5-31c0-3.2,0.1-6.5,0.1-9.7c0-1.3,0.6-3.9,0.1-5.1c-0.1-0.2,0-0.5,0-0.7
			c-0.5,0.5-1,1-1.5,1.5c49.9-3.3,100.1-2.8,150-3c9.5,0,19.1-0.1,28.6-0.1c-0.5-0.5-1-1-1.5-1.5c1.4,10.7,0.9,21.9,1,32.7
			c0.4,22.8,0.6,45.6,0.7,68.4c0.4,61.6,0.6,123.3,0.7,184.9c0.1,31,0.1,62,0.1,93C356.2,592.4,359.2,592.4,359.2,590.5z"/>
		<path class="st3" d="M407.5,224.1c0,34.7,0.4,108.6,2,116.4c9.7,1.8,279.9-0.6,410.1-0.8c0-37.3,0-74.1,0-116.8
			C690.8,225.5,407.5,224.1,407.5,224.1z"/>
		<path class="st3" d="M817.2,375.8c1.3,41.4-0.5,107-1.5,111.8c-2.4,1.8-139.2,2.6-186.5,0.1c-1.6-8,1.2-80.6-2.3-111.8
			L817.2,375.8z"/>
		<path class="st2" d="M809.7,370c1.2,39.4-0.1,105-1.5,111.8c-2.4,1.8-139.2,2.6-186.5,0.1c-1.6-8,1.2-80.6-2.3-111.8L809.7,370z"
			/>
		<path class="st1" d="M808.2,370c0.8,26.8,0.6,53.6,0,80.4c-0.2,9-0.4,18.1-1,27.1c-0.1,1-0.4,2.3-0.3,3.2c0.1,0.5,1.3,0,0.2-0.2
			c-1.2-0.1-2.9,0.2-4.2,0.3c-38.4,2.1-77.1,1.3-115.5,1c-21.9-0.2-43.8-0.3-65.7-1.5c0.5,0.4,1,0.7,1.4,1.1
			c-1-5.4-0.5-11.3-0.5-16.8c0-10.2,0.1-20.5,0.1-30.7c0.1-21.3,0.4-42.8-1.9-64c-0.5,0.5-1,1-1.5,1.5c21.4,0,42.8,0,64.2,0
			c34.2,0,68.3,0,102.5,0c7.9,0,15.8,0,23.6,0c1.9,0,1.9-3,0-3c-21.4,0-42.8,0-64.2,0c-34.2,0-68.3,0-102.5,0c-7.9,0-15.8,0-23.6,0
			c-0.7,0-1.6,0.7-1.5,1.5c2.3,21.6,1.9,43.6,1.9,65.2c0,10.1-0.1,20.2-0.1,30.3c0,5.4-0.4,11.2,0.6,16.6c0.1,0.7,0.8,1.1,1.4,1.1
			c43.6,2.3,87.5,1.8,131.2,1.5c16.5-0.1,33-0.1,49.4-1c2.2-0.1,6.3,0.4,7.5-1.9c0.9-1.9,0.5-5.3,0.7-7.3c0.3-4.4,0.4-8.9,0.6-13.3
			c1-30.4,1.2-60.9,0.3-91.3C811.1,368.1,808.1,368.1,808.2,370z"/>
		<path class="st1" d="M482.2,64.4c52.3-7.6,104.7-14,157.2-20.1c26.2-3,52.4-6,78.6-9c13.3-1.5,26.6-3,39.9-4.6
			c6.5-0.8,13.1-1.5,19.6-2.3c3.3-0.4,6.6-0.8,9.8-1.2c1.2-0.1,2.7-0.5,3.9-0.5c2,0.1,1.1-0.1,2.5,1c2.9,2.3,5.4,5.6,8,8.3
			c3.5,3.6,7,7.2,10.5,10.8c7,7.1,14,14.1,21.5,20.6c0.4-0.9,0.7-1.7,1.1-2.6c-30.4-0.3-60.7-0.6-91.1-0.9
			c-59.2-0.6-118.5-1.1-177.7-1.8c-28.1-0.3-56.2-0.6-84.3-0.9c-1.9,0-1.9,3,0,3c54.5,0.6,109,1.2,163.4,1.7
			c52.5,0.5,105,1,157.5,1.5c10.7,0.1,21.4,0.2,32.2,0.3c1.2,0,2.1-1.7,1.1-2.6c-13.3-11.5-25.5-24.5-37.7-37.2c-1.4-1.5-3-4-5-4.6
			c-2.4-0.8-7.3,0.9-9.9,1.2c-3.9,0.5-7.9,0.9-11.8,1.4c-13.7,1.6-27.3,3.2-41,4.8C677.1,37,623.6,42.9,570.3,49.6
			c-29.7,3.7-59.3,7.6-88.9,11.9C479.5,61.8,480.3,64.7,482.2,64.4z"/>
		<path class="st1" d="M771.6,27.5c-8.8,12.2-16.9,24.8-25.7,36.9c-1.1,1.6,1.5,3.1,2.6,1.5c8.8-12.2,16.9-24.8,25.7-36.9
			C775.4,27.5,772.8,26,771.6,27.5z"/>
		<path class="st1" d="M750.9,29.5c-8.3,12-17.5,23.4-26.3,35c-1.2,1.5,1.4,3,2.6,1.5c8.8-11.6,17.9-23,26.3-35
			C754.6,29.4,752,27.9,750.9,29.5z"/>
		<path class="st1" d="M724.5,32.7c-7.8,10.7-17,20.4-25,30.9c-1.2,1.5,1.4,3,2.6,1.5c8.1-10.5,17.3-20.1,25-30.9
			C728.3,32.7,725.7,31.2,724.5,32.7z"/>
		<path class="st1" d="M694.4,36.1c-6.4,9-12.5,18.2-18.9,27.1c-1.1,1.6,1.5,3.1,2.6,1.5c6.4-9,12.5-18.2,18.9-27.1
			C698.2,36.1,695.6,34.6,694.4,36.1z"/>
		<path class="st1" d="M673.6,38c-6.9,8.1-14,16-20.5,24.5c-1.2,1.5,1.4,3,2.6,1.5c6.3-8.3,13.3-16,20-23.9
			C676.9,38.7,674.8,36.5,673.6,38z"/>
		<path class="st1" d="M652.3,40.4c-6.7,7.4-13.8,14.4-20.4,21.8c-1.3,1.4,0.8,3.6,2.1,2.1c6.6-7.4,13.7-14.4,20.4-21.8
			C655.7,41.1,653.6,39,652.3,40.4z"/>
		<path class="st1" d="M629.4,43.2c-6.3,6.5-12.7,13-19,19.5c-1.3,1.4,0.8,3.5,2.1,2.1c6.3-6.5,12.7-13,19-19.5
			C632.8,43.9,630.7,41.8,629.4,43.2z"/>
		<path class="st1" d="M602.5,46.5c-5.1,5.6-10.6,10.7-16,16c-1.4,1.3,0.7,3.5,2.1,2.1c5.4-5.3,10.9-10.4,16-16
			C605.9,47.2,603.8,45.1,602.5,46.5z"/>
		<path class="st1" d="M581.9,48.8c-5.4,4.4-10.5,9.1-16,13.4c-1.5,1.2,0.6,3.3,2.1,2.1c5.4-4.3,10.6-9,16-13.4
			C585.5,49.7,583.3,47.6,581.9,48.8z"/>
		<path class="st1" d="M560.1,51.6c-4,3.7-8.1,7.2-12.5,10.4c-1.5,1.1,0,3.7,1.5,2.6c4.6-3.4,8.9-7,13.1-10.9
			C563.6,52.4,561.5,50.3,560.1,51.6z"/>
		<path class="st1" d="M537.2,54c-2.9,2.5-6,4.6-8.6,7.4c-1.3,1.4,0.8,3.6,2.1,2.1c2.6-2.8,5.7-4.9,8.6-7.4
			C540.8,54.9,538.7,52.8,537.2,54z"/>
		<path class="st1" d="M793.8,47.8c6.1,5.9,11.9,12,17.7,18.2c1.3,1.4,3.4-0.7,2.1-2.1c-5.8-6.2-11.7-12.3-17.7-18.2
			C794.6,44.3,792.4,46.5,793.8,47.8z"/>
		<path class="st3" d="M162.2,375.7c0.6,1.3,6,35.6,6,35.6l67.1-1l4.8-33.3l9.3,0.8l5,249.4h-97.1l-2-241L162.2,375.7z"/>
		<path class="st3" d="M453.3,522.2c-9.8,0.8-13.1,7.7-15.7,16.3c-2.2,7-3.5,14.3-6.4,21c-7,16.1-17.5,30.5-25.9,45.9
			c-3.4,6.3-6.7,12.7-10.2,18.9v3.4h97.1L490,518.5C478.4,522.2,465.1,521.3,453.3,522.2z"/>
		<path class="st3" d="M753.4,540.3c-0.8,2.4-1.7,4.8-2.7,7.2c-1.4,3.1-5.9,0.4-4.5-2.6c4.1-9,5.2-18.3,5.4-27.7
			c-5.3-4.4-9.7-10.6-13.1-16.2c-9.1-14.7-11.4-32.2-16.5-48.4c-3.5-3.7-7.3-7.2-11.7-9.9c-8.1-5-15.6-3.8-24.4-2
			c-6,1.3-12,2.9-17.7,5.1L642.6,627h94.5c4.8-9.5,14.8-20,17.3-45.6c12.1-9.1,13.2-19.8,11.9-29.6
			C765.1,543.8,757.2,547.2,753.4,540.3z"/>
		<path class="st1" d="M1.6,626.9c1.7,11.7,7.4,17.4,11.5,23.3c25.3,0.4,834.4-0.4,854.3-1.1c1.5-7.3,1.3-12.6-0.2-20.5
			C576.3,627.4,1.6,626.9,1.6,626.9z"/>
		<path class="st1" d="M0.1,627.3c1.1,6.8,3.7,12.7,7.7,18.2c1.5,2.1,3,5.5,5.6,6.2c1.1,0.3,2.6,0,3.8,0c5.2,0,10.5,0,15.7,0
			c19.9,0,39.9,0,59.8,0c29.9,0,59.8,0,89.7,0c36.8,0,73.6,0,110.4-0.1c40.5,0,81.1-0.1,121.6-0.1c41.2,0,82.4-0.1,123.5-0.2
			c38.6-0.1,77.1-0.1,115.7-0.2c33.1-0.1,66.3-0.1,99.4-0.2c24.5-0.1,48.9-0.1,73.4-0.2c12.7,0,25.3,0,38-0.2c0.9,0,1.9,0,2.8-0.1
			c0.6,0,1.3-0.4,1.4-1.1c1.4-7.3,1.1-14.1-0.2-21.3c-0.1-0.6-0.8-1.1-1.4-1.1c-65.7-0.3-131.4-0.4-197-0.6
			c-74.1-0.2-148.2-0.3-222.4-0.4c-70.4-0.1-140.8-0.2-211.3-0.3c-53.7-0.1-107.4-0.1-161.2-0.2c-16.6,0-33.1,0-49.7-0.1
			c-7.5,0-15.5-0.8-23,0c-0.3,0-0.7,0-1,0c-1.9,0-1.9,3,0,3c19.9,0,39.8,0,59.7,0.1c50.7,0.1,101.4,0.1,152.1,0.2
			c69.1,0.1,138.1,0.2,207.2,0.3c74.5,0.1,149.1,0.3,223.6,0.4c67.1,0.2,134.1,0.3,201.2,0.6c7.2,0,14.5,0.1,21.7,0.1
			c-0.5-0.4-1-0.7-1.4-1.1c1.2,6.7,1.5,13,0.2,19.7c0.5-0.4,1-0.7,1.4-1.1c-9.2,0.3-18.5,0.2-27.7,0.2c-21.6,0.1-43.2,0.2-64.8,0.2
			c-31.1,0.1-62.2,0.1-93.2,0.2c-37.2,0.1-74.5,0.1-111.7,0.2c-40.7,0.1-81.3,0.1-122,0.2c-40.7,0-81.4,0.1-122.1,0.1
			c-38,0-76,0.1-114,0.1c-31.9,0-63.9,0-95.8,0c-23.1,0-46.1,0-69.2,0c-7.2,0-14.3,0-21.5,0c-3.5,0-8,0.7-11.4,0
			c-0.2,0-0.5,0.1-0.7,0c0.6,0.2-1-2-1.6-2.8c-4.4-6-7.5-12-8.7-19.4C2.7,624.6-0.2,625.4,0.1,627.3z"/>
		<path class="st1" d="M240.5,375.9c-15.4,65.1-32,129.8-46.8,195c-4.2,18.4-8.2,36.9-11.9,55.4c-0.8,3.8,5,5.4,5.8,1.6
			c13.4-66.1,29.8-131.6,45.8-197.1c4.3-17.8,8.7-35.5,12.9-53.3C247.2,373.7,241.4,372.1,240.5,375.9z"/>
		<path class="st1" d="M156.6,374.9c-23.4,65.5-47.9,130.6-73.4,195.3c-7.1,18-14.3,36-21.6,54c-1.4,3.6,4.4,5.1,5.8,1.6
			c25.7-63.5,50.5-127.4,74.1-191.7c7.1-19.2,14-38.4,20.9-57.6C163.6,372.9,157.8,371.3,156.6,374.9z"/>
		<path class="st1" d="M129.4,463.2c29.9,0,59.8-0.6,89.8,0.1c1.9,0,1.9-3,0-3c-29.9-0.7-59.8-0.1-89.8-0.1
			C127.4,460.2,127.4,463.2,129.4,463.2z"/>
		<path class="st1" d="M140.1,434c29.9,0,59.8-0.6,89.8,0.1c1.9,0,1.9-3,0-3c-29.9-0.7-59.8-0.1-89.8-0.1
			C138.2,431,138.2,434,140.1,434z"/>
		<path class="st1" d="M120,493c30.9,0,61.7,0.3,92.6,0c1.9,0,1.9-3,0-3c-30.9,0.3-61.7,0-92.6,0C118,490,118,493,120,493z"/>
		<path class="st1" d="M104.7,530.2c33.7-1.5,67.4-3.1,101.1-3.2c1.9,0,1.9-3,0-3c-33.7,0-67.4,1.7-101.1,3.2
			C102.8,527.3,102.8,530.3,104.7,530.2z"/>
		<path class="st1" d="M88.3,568.5c35.9-0.8,71.8-2.2,107.7-3.5c1.9-0.1,1.9-3.1,0-3c-35.9,1.4-71.8,2.7-107.7,3.5
			C86.4,565.5,86.3,568.5,88.3,568.5z"/>
		<path class="st1" d="M77.3,600.5c36.7-0.8,73.4-0.6,110.1-2c1.9-0.1,1.9-3.1,0-3c-36.7,1.4-73.4,1.2-110.1,2
			C75.4,597.5,75.3,600.5,77.3,600.5z"/>
		<path class="st2" d="M401.3,215.9c0,34.7,0.4,108.6,2,116.4c9.7,1.8,279.9-0.6,410.1-0.8c0-37.3,0-74.1,0-116.8
			C684.6,217.3,401.3,215.9,401.3,215.9z"/>
		<path class="st1" d="M399.8,215.9c0,23,0.1,46,0.4,68.9c0.1,10.5,0.3,21,0.6,31.6c0.2,5.4,0,11,1,16.3c0.1,0.5,0.6,1,1,1
			c3.3,0.6,6.7,0.4,10,0.5c7.5,0.1,15.1,0.2,22.6,0.2c24.6,0.1,49.2,0,73.8-0.1c67.5-0.2,135-0.7,202.4-1
			c33.9-0.2,67.7-0.3,101.6-0.4c0.8,0,1.5-0.7,1.5-1.5c0-38.9,0-77.9,0-116.8c0-0.8-0.7-1.5-1.5-1.5c-65.2,1.3-130.4,1.4-195.6,1.5
			c-60.1,0.1-120.3,0-180.4-0.2c-12,0-24.1-0.1-36.1-0.1c-1.9,0-1.9,3,0,3c34.5,0.2,69,0.3,103.6,0.3c68.8,0.1,137.6,0.1,206.4-0.3
			c34.1-0.2,68.1-0.5,102.2-1.2c-0.5-0.5-1-1-1.5-1.5c0,38.9,0,77.9,0,116.8c0.5-0.5,1-1,1.5-1.5c-38.8,0.1-77.6,0.3-116.3,0.5
			c-43.6,0.2-87.2,0.5-130.7,0.7c-36.7,0.2-73.4,0.4-110.1,0.3c-11.9,0-23.7,0-35.6-0.1c-3.7,0-7.4-0.1-11-0.2
			c-1.6,0-4.3-0.7-5.8-0.3c0.2,0,0.5,1.1,0.9,0.3c0.2-0.6-0.2-2.2-0.3-2.8c-0.2-2.8-0.3-5.7-0.4-8.5c-0.3-9-0.5-17.9-0.6-26.9
			c-0.3-21.3-0.5-42.7-0.5-64c0-4.4,0-8.7,0-13.1C402.8,213.9,399.8,213.9,399.8,215.9z"/>
		<path class="st4" d="M452.7,238.6c0,22.2,0.3,69.3,1.5,74.3c7.3,1.2,211.4-0.4,309.7-0.5c0-23.8,0-47.3,0-74.5
			C666.7,239.4,452.7,238.6,452.7,238.6z"/>
		<path class="st2" d="M478.6,310.3c-11.3,10.7-9.3,30.4,2.4,40.6c11.7,10.2,30.6,9.3,43.1,0c10.5-7.9,14.4-23.5,7.8-34.9
			C525.3,304.8,502,288.1,478.6,310.3z"/>
		<path class="st1" d="M477.5,309.3c-9.3,9.4-10.2,24.1-3.7,35.3c7.1,12.3,21.6,17,35.1,14.5c14-2.6,25.8-12.8,27.4-27.4
			c1.4-12.1-5.5-22.3-15.5-28.5C506.1,294,489.9,298,477.5,309.3c-1.4,1.3,0.7,3.4,2.1,2.1c12.8-11.7,29.7-14.2,43.6-2.9
			c11,9,13.8,24.1,5.2,35.9c-9.3,12.8-30.1,16.2-43.3,7.7c-13.5-8.7-17-29.1-5.5-40.8C481,310,478.9,307.9,477.5,309.3z"/>
		<path class="st2" d="M808.3,200.3c2.1-2,1.8-5.8-0.5-7.8c-2.2-2-5.8-1.8-8.2,0c-2,1.5-2.7,4.5-1.5,6.7
			C799.4,201.4,803.8,204.6,808.3,200.3z"/>
		<path class="st1" d="M809.3,201.4c2.7-2.9,2.4-7.5-0.7-10c-3.1-2.6-8.2-2.1-10.9,0.9c-2.5,2.8-2.2,7,0.5,9.5
			C801.7,204.8,806,204.3,809.3,201.4c1.5-1.3-0.7-3.4-2.1-2.1c-2,1.8-4.4,2.2-6.6,0.5c-1.7-1.3-2.2-3.7-0.7-5.4
			c1.4-1.7,4.4-2.2,6.3-1.1c2.1,1.2,2.7,4.2,1.1,6C805.9,200.7,808,202.8,809.3,201.4z"/>
		<path class="st2" d="M787,200.3c2.1-2,1.8-5.8-0.5-7.8c-2.2-2-5.8-1.8-8.2,0c-2,1.5-2.7,4.5-1.5,6.7
			C778.1,201.4,782.6,204.6,787,200.3z"/>
		<path class="st1" d="M788.1,201.4c2.7-2.9,2.4-7.5-0.7-10c-3.1-2.6-8.2-2.1-10.9,0.9c-2.5,2.8-2.2,7,0.5,9.5
			C780.5,204.8,784.8,204.3,788.1,201.4c1.5-1.3-0.7-3.4-2.1-2.1c-2,1.8-4.4,2.2-6.6,0.5c-1.7-1.3-2.2-3.7-0.7-5.4
			c1.4-1.7,4.4-2.2,6.3-1.1c2.1,1.2,2.7,4.2,1.1,6C784.7,200.7,786.8,202.8,788.1,201.4z"/>
		<path class="st2" d="M765.8,200.3c2.1-2,1.8-5.8-0.5-7.8c-2.2-2-5.8-1.8-8.2,0c-2,1.5-2.7,4.5-1.5,6.7
			C756.9,201.4,761.3,204.6,765.8,200.3z"/>
		<path class="st1" d="M766.9,201.4c2.7-2.9,2.4-7.5-0.7-10c-3.1-2.6-8.2-2.1-10.9,0.9c-2.5,2.8-2.2,7,0.5,9.5
			C759.2,204.8,763.6,204.3,766.9,201.4c1.5-1.3-0.7-3.4-2.1-2.1c-2,1.8-4.4,2.2-6.6,0.5c-1.7-1.3-2.2-3.7-0.7-5.4
			c1.4-1.7,4.4-2.2,6.3-1.1c2.1,1.2,2.7,4.2,1.1,6C763.4,200.7,765.5,202.8,766.9,201.4z"/>
		<path class="st1" d="M494.1,63.1c0,78.7,4.4,157.3,8.4,235.9c0.1,1.9,3.1,1.9,3,0c-4-78.6-8.4-157.2-8.4-235.9
			C497.1,61.2,494.1,61.2,494.1,63.1z"/>
		<path class="st3" d="M602.5,375.8c1.3,41.4-0.5,107-1.5,111.8c-2.4,1.8-139.2,2.6-186.5,0.1c-1.6-8,1.2-80.6-2.3-111.8
			L602.5,375.8z"/>
		<path class="st2" d="M594.9,370c1.2,39.4-0.1,105-1.5,111.8c-2.4,1.8-139.2,2.6-186.5,0.1c-1.6-8,1.2-80.6-2.3-111.8L594.9,370z"
			/>
		<path class="st1" d="M593.4,370c0.8,26.8,0.6,53.6,0,80.4c-0.2,9-0.4,18.1-1,27.1c-0.1,1-0.4,2.3-0.3,3.2c0.1,0.5,1.3,0,0.2-0.2
			c-1.2-0.1-2.9,0.2-4.2,0.3c-38.4,2.1-77.1,1.3-115.5,1c-21.9-0.2-43.8-0.3-65.7-1.5c0.5,0.4,1,0.7,1.4,1.1
			c-1-5.4-0.5-11.3-0.5-16.8c0-10.2,0.1-20.5,0.1-30.7c0.1-21.3,0.4-42.8-1.9-64c-0.5,0.5-1,1-1.5,1.5c21.4,0,42.8,0,64.2,0
			c34.2,0,68.3,0,102.5,0c7.9,0,15.8,0,23.6,0c1.9,0,1.9-3,0-3c-21.4,0-42.8,0-64.2,0c-34.2,0-68.3,0-102.5,0c-7.9,0-15.8,0-23.6,0
			c-0.7,0-1.6,0.7-1.5,1.5c2.3,21.6,1.9,43.6,1.9,65.2c0,10.1-0.1,20.2-0.1,30.3c0,5.4-0.4,11.2,0.6,16.6c0.1,0.7,0.8,1.1,1.4,1.1
			c43.6,2.3,87.5,1.8,131.2,1.5c16.5-0.1,33-0.1,49.4-1c2.2-0.1,6.3,0.4,7.5-1.9c0.9-1.9,0.5-5.3,0.7-7.3c0.3-4.4,0.4-8.9,0.6-13.3
			c1-30.4,1.2-60.9,0.3-91.3C596.4,368.1,593.4,368.1,593.4,370z"/>
		<path class="st1" d="M808.2,370c0.8,26.8,0.6,53.6,0,80.4c-0.2,9-0.4,18.1-1,27.1c-0.1,1-0.4,2.3-0.3,3.2c0.1,0.5,1.3,0,0.2-0.2
			c-1.2-0.1-2.9,0.2-4.2,0.3c-38.4,2.1-77.1,1.3-115.5,1c-21.9-0.2-43.8-0.3-65.7-1.5c0.5,0.4,1,0.7,1.4,1.1
			c-1-5.4-0.5-11.3-0.5-16.8c0-10.2,0.1-20.5,0.1-30.7c0.1-21.3,0.4-42.8-1.9-64c-0.5,0.5-1,1-1.5,1.5c21.4,0,42.8,0,64.2,0
			c34.2,0,68.3,0,102.5,0c7.9,0,15.8,0,23.6,0c1.9,0,1.9-3,0-3c-21.4,0-42.8,0-64.2,0c-34.2,0-68.3,0-102.5,0c-7.9,0-15.8,0-23.6,0
			c-0.7,0-1.6,0.7-1.5,1.5c2.3,21.6,1.9,43.6,1.9,65.2c0,10.1-0.1,20.2-0.1,30.3c0,5.4-0.4,11.2,0.6,16.6c0.1,0.7,0.8,1.1,1.4,1.1
			c43.6,2.3,87.5,1.8,131.2,1.5c16.5-0.1,33-0.1,49.4-1c2.2-0.1,6.3,0.4,7.5-1.9c0.9-1.9,0.5-5.3,0.7-7.3c0.3-4.4,0.4-8.9,0.6-13.3
			c1-30.4,1.2-60.9,0.3-91.3C811.1,368.1,808.1,368.1,808.2,370z"/>
		<path class="st5" d="M701.9,577.1c0,0-4.4,26.4-13.8,38c-12.6,15.6-40.7,18.8-45.7-0.4c3.1,0.8,9.1,1.5,9.1,1.5l43.1-46.9"/>
		<path class="st6" d="M708.4,430.3c0.4-6.6,21.8-4.4,26.7-8.9c1.1,9.3-5.4,14.4-8.2,23.5C726.8,445,708,438,708.4,430.3z"/>
		<path class="st5" d="M739.6,455.5c-7.2-8.5-9.4-17-15.5-20.3c-3.6-1.9-8.9-2.6-12.2-2.3c-0.5,0.1,2.5-1.5,2-1.5
			c-1.1-0.1-6.3,2.3-7.5,2.6s6.3-3.7,5.1-3.5c-2.5,0.3-7.8,3-9.4,4c-7,1.5-16.5,8.1-20.9,12.9c-6.6,7.1-4,24.1-4.3,20.5
			c0.9,13,7.1,21.6,13.7,39.7c5.9,16.1,16.8,32.8,18.1,46.1l24.3-58.3L739.6,455.5z"/>
		<path class="st6" d="M750,579.8c-1.6,6.9-1.4,18.7-13.1,27c-7.4,5.2-18.4,8.6-25.4,9.8c-1.5,8-6,9.7-9.6,9.7l5.7-13.4
			c0,0,17.3-4.7,23.7-10.2c7.1-6.1,4.3-16.5,5.6-25.4"/>
		
			<linearGradient id="SVGID_3_" gradientUnits="userSpaceOnUse" x1="483.5966" y1="41.9296" x2="469.2296" y2="39.5846" gradientTransform="matrix(1 0 0 -1 242.3622 642.7341)">
			<stop  offset="0" style="stop-color:#000000;stop-opacity:0"/>
			<stop  offset="1" style="stop-color:#000000"/>
		</linearGradient>
		<path class="st7" d="M750,579.8c-1.6,6.9-1.4,18.7-13.1,27c-7.4,5.2-18.4,8.6-25.4,9.8c-1.5,8-6,9.7-9.6,9.7l5.7-13.4
			c0,0,17.3-4.7,23.7-10.2c7.1-6.1,4.3-16.5,5.6-25.4"/>
		<path class="st6" d="M710.8,574.2c3.1,15.8,8.7,38.1,11.5,48.6c5.5-0.6,10.2,0.7,11.6,4.1l-15-0.2l-19.2-52"/>
		
			<linearGradient id="SVGID_4_" gradientUnits="userSpaceOnUse" x1="474.5239" y1="41.5782" x2="477.0919" y2="26.6393" gradientTransform="matrix(1 0 0 -1 242.3622 642.7341)">
			<stop  offset="0" style="stop-color:#000000;stop-opacity:0"/>
			<stop  offset="1" style="stop-color:#000000"/>
		</linearGradient>
		<path class="st8" d="M710.8,574.2c3.1,15.8,8.7,38.1,11.5,48.6c5.5-0.6,10.2,0.7,11.6,4.1l-15-0.2l-19.2-52"/>
		<path class="st5" d="M740.1,476.9c-3.1,38.7,50.8,64.3,14.1,101.1c-10.2,6.6-42.3,9.7-53.3,4.2c-18.3-18.8-11.3-33.1-12.9-53.7
			c-2-25.7-2-32.3-8.9-49.9"/>
		
			<linearGradient id="SVGID_5_" gradientUnits="userSpaceOnUse" x1="486.9503" y1="167.2673" x2="470.2153" y2="57.5571" gradientTransform="matrix(1 0 0 -1 242.3622 642.7341)">
			<stop  offset="0" style="stop-color:#FDB43E"/>
			<stop  offset="0.3082" style="stop-color:#FDAC3A"/>
			<stop  offset="0.774" style="stop-color:#FD9831"/>
			<stop  offset="1" style="stop-color:#FD8B2B"/>
		</linearGradient>
		<path class="st9" d="M740.1,476.9c-3.1,38.7,50.8,64.3,14.1,101.1c-10.2,6.6-42.3,9.7-53.3,4.2c-18.3-18.8-11.3-33.1-12.9-53.7
			c-2-25.7-2-32.3-8.9-49.9"/>
		<path class="st5" d="M719.4,447.9c4.2,6.9,22.2,1.6,37.6-2.9c4.3,16.7,1.1,24.4-6.5,32.1c-2.7,2.7-8.8,4.6-16,6"/>
		<path class="st6" d="M748.9,447.4c5.4,14.8,12.6,9.9,12.4-1C761.3,437.8,747.6,443.7,748.9,447.4z"/>
		<path class="st10" d="M700.8,447.7c-12.4,26.2,22.5,23.3,21.8,9.3C722,444.2,703.9,441.1,700.8,447.7z"/>
		<path class="st6" d="M739.6,482.9c0,3.6-8,4.5-10.4,4.9c-6.3,1.1-12.8,1.3-19.1,1.2c-3,0-30.4-0.4-29.7-5.8
			c0.1-0.9-1.3-1.4-1.4-0.4c-1.1,8,26.1,7.7,30.1,7.7c7.7,0.1,15.6-0.1,23.1-1.7c2.9-0.7,9-1.9,9-5.9
			C741.1,482,739.6,482,739.6,482.9z"/>
		<path class="st10" d="M724.3,493.1c5.8,3.1,8.8,3.5,14.3,2.4c-0.5-1.6-3.7-2.9-5.3-4c2.7-2.2,4.2-5.1,4.5-8.9
			c-5.1,1.8-6.6,3.9-11.9,4.4l-1.3,0.3c-6.8-2.3-19.3-3.9-26.4-1.7c2.3,0.9,4.9,3.3,5.2,3.5c0.4,0.5-0.9-0.2-6.3,3.4
			c5.6,0.3,7.8,0.9,8.3,1.5c-2.3,1.5-2.6,1.8-5.5,3c6.3,0.2,18-1.9,24.2-3.9"/>
		<path class="st6" d="M712.7,461.6c1-0.7,0.7-2.7-0.6-4.4c-1.3-1.7-3.1-2.4-4.1-1.7c-1,0.7-0.7,2.7,0.6,4.4
			C709.9,461.6,711.7,462.3,712.7,461.6z"/>
		<path class="st6" d="M731.9,450.8c0.6-0.5,0.5-1.7-0.3-2.8c-0.8-1.1-2-1.5-2.6-1.1c-0.6,0.5-0.5,1.7,0.3,2.8
			C730.1,450.8,731.3,451.3,731.9,450.8z"/>
		<path class="st6" d="M721.8,495.7c-0.4-4.8-0.7-6.6,0.2-9.2c1.8-0.7,4.5-0.6,4.8,0.6c0.5,2.1,0.6,5,0.1,8.5
			C725.1,496.9,721.8,495.7,721.8,495.7z"/>
		<path class="st6" d="M704.9,455.2c0.1-1.9,1.1-3.8,3.2-3.9c1,0,1-1.5,0-1.5c-2.9,0.1-4.6,2.6-4.7,5.4
			C703.4,456.2,704.9,456.2,704.9,455.2z"/>
		<path class="st6" d="M724.9,443.5c1.6-0.9,3.8-1.1,5,0.6c0.5,0.8,1.8,0,1.3-0.8c-1.7-2.4-4.6-2.5-7-1.2
			C723.3,442.7,724.1,444,724.9,443.5z"/>
		<path class="st5" d="M683.1,452.9c1,0.2,0.7,1.7-0.3,1.6C681.8,454.3,682.1,452.8,683.1,452.9z"/>
		<path class="st5" d="M679.8,455.9c1,0.2,0.7,1.7-0.3,1.6C678.5,457.3,678.8,455.8,679.8,455.9z"/>
		<path class="st6" d="M746.3,451.6c-1,0.2-0.7,1.7,0.3,1.6C747.6,453,747.3,451.5,746.3,451.6z"/>
		<path class="st6" d="M745.2,456.3c-2,0.3-1.5,3.4,0.5,3.1C747.7,459.1,747.2,456,745.2,456.3z"/>
		<path class="st6" d="M749.8,456.4c-1,0.2-0.7,1.7,0.3,1.6C751,457.8,750.8,456.2,749.8,456.4z"/>
		<path class="st10" d="M754.3,448.1c1-0.2,1.7-1.2,1.6-2.3c-0.2-1.1-1.2-1.8-2.2-1.7c-1,0.2-1.7,1.2-1.6,2.3
			C752.3,447.5,753.3,448.2,754.3,448.1z"/>
		<path class="st10" d="M760.2,533.7c6.7,18.7,3.7,35.6-5,38.7c-8.7,3.1-21.9,3.1-21.5-16.8c0.5-30.9-11.5-46.8-2.7-49.9
			C739.8,502.6,753.5,514.9,760.2,533.7z"/>
		<path class="st6" d="M661.4,443.2c5.5-9.9,24.4-12.8,40.5-15.4c1.8,9.4-19.8,26.4-21.4,40.7C667.8,464.5,661.4,443.2,661.4,443.2z
			"/>
		<path class="st6" d="M724.8,470.5c2.2,6.5,11.8,5,14.4-0.5c0.4-0.9-0.9-1.6-1.3-0.8c-2,4.2-9.9,6.2-11.7,0.8
			C725.9,469.2,724.5,469.6,724.8,470.5z"/>
		<path class="st6" d="M673.3,468.7c-0.1,2.5,1.4,5.5,3.8,6.5c0.1-0.5,0.1-0.9,0.2-1.4c-2.8,1-4.9-0.3-6.7-2.5
			c-0.6-0.8-1.6,0.3-1.1,1.1c2.1,2.6,4.8,4,8.1,2.9c0.5-0.2,0.8-1.1,0.2-1.4c-1.9-0.9-3.1-3.2-3-5.3
			C674.9,467.8,673.4,467.8,673.3,468.7z"/>
		<path class="st6" d="M745.2,502.8c5.9,1.8,13.1,4,17,9.1c4.2,5.6,1.1,11.8-2.5,16.8c-0.2,0.2-0.1,0.5,0,0.8c1.2,1.9,0.6,3.5-1.9,5
			c-0.9,0.2-0.5,1.7,0.4,1.4c1.5-0.4,2.9-0.9,3.5-2.5c0.6-1.6-0.4-2.5-0.3-3.9c0.3-2,2.3-4.1,3.2-6.1c0.8-1.9,1.4-4.1,1.3-6.2
			c-0.5-9.7-12.7-13.7-20.3-15.9C744.7,501,744.3,502.5,745.2,502.8z"/>
		<path class="st6" d="M763.4,537.1c2-3.2-0.7-5.8-2.4-8.4c-0.3-0.5-1.2-0.5-1.4,0.2c-0.4,1.9-2.5,2.7-4.2,3.1
			c-0.9,0.2-0.5,1.6,0.4,1.4c2.1-0.4,4.8-1.7,5.2-4.1c-0.5,0.1-0.9,0.1-1.4,0.2c1.3,2.1,3.9,4.4,2.4,6.9
			C761.6,537.2,762.9,537.9,763.4,537.1z"/>
		<path class="st2" d="M658.5,509.5c16.6,7.4,27.9,13.5,41.2,20.6c-13.4,38.8-22.6,59-34.9,96.9c-22,1-31.2-0.2-51.2,0
			C622.3,602.8,658.5,509.5,658.5,509.5z"/>
		<path class="st1" d="M657.9,510.4c8.3,3.7,16.5,7.7,24.6,11.8c3.2,1.7,6.4,3.3,9.6,5c1.1,0.6,5,1.9,5.6,2.9c1,1.7-1.1,5.1-1.6,6.8
			c-5.4,15.3-11.2,30.5-16.9,45.8c-2.7,7.3-5.5,14.6-8.1,22c-1.5,4.3-3,8.6-4.5,13c-0.6,1.7-0.9,3.6-1.7,5.2c-1.5,3-2.3,2.9-5.6,3
			c-15.2,0.5-30.4-0.4-45.6-0.2c0.4,0.5,0.7,0.9,1.1,1.4c12.8-35.4,26.7-70.4,40.3-105.4c1.5-4,3.1-8,4.7-12
			c0.5-1.4-1.7-1.9-2.2-0.6c-12,30.9-24,61.9-35.8,92.9c-3.1,8.2-6.2,16.3-9.2,24.5c-0.3,0.7,0.4,1.4,1.1,1.4
			c17.1-0.2,34.1,0.8,51.2,0c0.5,0,0.9-0.3,1.1-0.8c10.7-32.7,23.7-64.4,34.9-96.9c0.2-0.5-0.1-1-0.5-1.3
			c-13.6-7.2-27.1-14.3-41.2-20.6C657.7,507.9,656.6,509.8,657.9,510.4z"/>
		<path class="st6" d="M697.6,512.4c-4,4.1-11.7,5.2-17,4.3c-7.8-1.3-13.1-8.2-12.5-16c0.4-6.1,3.6-11.6,6.5-16.8
			c1.5-2.6,4-6.1,3.7-9.2c0-0.3-0.2-0.6-0.6-0.7c-2.9-0.8-6.1-2.3-5.3-6.5c0.2-0.9-1.3-1.3-1.4-0.4c-0.6,3.2,0.5,5.6,3.4,7.2
			c1.6,0.9,2.4,0.3,2.2,2.3c-0.1,1.6-1.6,3.5-2.3,4.9c-3.6,6.6-8.1,13.7-7.7,21.5c0.4,7.7,6.1,13.9,13.7,15.3
			c5.9,1,14.1-0.2,18.5-4.6C699.3,512.8,698.2,511.7,697.6,512.4z"/>
		<path class="st4" d="M573.2,400.3H429.5c-1.2,0-2.2-1-2.2-2.2v-3.2c0-1.2,1-2.2,2.2-2.2h143.7c1.2,0,2.2,1,2.2,2.2v3.2
			C575.4,399.3,574.4,400.3,573.2,400.3z"/>
		<path class="st4" d="M573.2,415.4H429.5c-1.2,0-2.2-1-2.2-2.2V410c0-1.2,1-2.2,2.2-2.2h143.7c1.2,0,2.2,1,2.2,2.2v3.2
			C575.4,414.4,574.4,415.4,573.2,415.4z"/>
		<path class="st4" d="M790.6,400.3H646.9c-1.2,0-2.2-1-2.2-2.2v-3.2c0-1.2,1-2.2,2.2-2.2h143.7c1.2,0,2.2,1,2.2,2.2v3.2
			C792.8,399.3,791.8,400.3,790.6,400.3z"/>
		<path class="st4" d="M790.6,415.4H646.9c-1.2,0-2.2-1-2.2-2.2V410c0-1.2,1-2.2,2.2-2.2h143.7c1.2,0,2.2,1,2.2,2.2v3.2
			C792.8,414.4,791.8,415.4,790.6,415.4z"/>
		<path class="st4" d="M573.2,430.5H429.5c-1.2,0-2.2-1-2.2-2.2V425c0-1.2,1-2.2,2.2-2.2h143.7c1.2,0,2.2,1,2.2,2.2v3.2
			C575.4,429.5,574.4,430.5,573.2,430.5z"/>
		<path class="st4" d="M573.2,445.6H429.5c-1.2,0-2.2-1-2.2-2.2v-3.2c0-1.2,1-2.2,2.2-2.2h143.7c1.2,0,2.2,1,2.2,2.2v3.2
			C575.4,444.6,574.4,445.6,573.2,445.6z"/>
		<path class="st11" d="M534.4,467.9h-63.1c-1.8,0-3.2-1.4-3.2-3.2v-7.8c0-1.8,1.4-3.2,3.2-3.2h63.1c1.8,0,3.2,1.4,3.2,3.2v7.8
			C537.6,466.4,536.1,467.9,534.4,467.9z"/>
		<path class="st2" d="M191.1,257.1c-5.6,5.2-4.6,14.8,1.2,19.7c5.8,4.9,15.2,4.5,21.4,0c5.2-3.8,7.1-11.4,3.9-17
			C214.3,254.4,202.7,246.2,191.1,257.1z"/>
		<path class="st1" d="M190,256c-6,6.3-5.2,16.5,1.5,22.1c7.2,6,19.7,4.6,25.7-2.6c5.4-6.7,4.1-15.7-2.4-21
			C206.8,248.1,197.4,249.7,190,256c-1.5,1.3,0.7,3.4,2.1,2.1c5.9-5.1,13.3-6.6,19.9-1.9c5.5,4,7.4,10.9,3.3,16.8
			c-4.2,5.9-13.7,7.7-20,4.2c-6.8-3.8-8.7-13.2-3.2-19C193.5,256.7,191.3,254.6,190,256z"/>
		<path class="st2" d="M192.6,314.1c-5.6,5.2-4.6,14.8,1.2,19.7c5.8,4.9,15.2,4.5,21.4,0c5.2-3.8,7.1-11.4,3.9-17
			C215.9,311.4,204.3,303.3,192.6,314.1z"/>
		<path class="st1" d="M191.6,313.1c-6,6.3-5.2,16.5,1.5,22.1c7.2,6,19.7,4.6,25.7-2.6c5.4-6.7,4.1-15.7-2.4-21
			C208.4,305.2,198.9,306.7,191.6,313.1c-1.5,1.3,0.7,3.4,2.1,2.1c5.9-5.1,13.3-6.6,19.9-1.9c5.5,4,7.4,10.9,3.3,16.8
			c-4.2,5.9-13.7,7.7-20,4.2c-6.8-3.8-8.7-13.2-3.2-19C195,313.8,192.9,311.7,191.6,313.1z"/>
		<path class="st2" d="M192.6,369c-5.6,5.2-4.6,14.8,1.2,19.7c5.8,5,15.2,4.5,21.4,0c5.2-3.8,7.1-11.4,3.9-17
			C215.9,366.3,204.3,358.2,192.6,369z"/>
		<path class="st1" d="M191.6,368c-6,6.3-5.2,16.5,1.5,22.1c7.2,6,19.7,4.6,25.7-2.6c5.4-6.7,4.1-15.7-2.4-21
			C208.4,360.1,198.9,361.6,191.6,368c-1.5,1.3,0.7,3.4,2.1,2.1c5.9-5.1,13.3-6.6,19.9-1.9c5.5,4,7.4,10.9,3.3,16.8
			c-4.2,5.9-13.7,7.7-20,4.2c-6.8-3.8-8.7-13.2-3.2-19C195,368.7,192.9,366.6,191.6,368z"/>
		<path class="st2" d="M421.2,625.8c10.3-34.6,18-64.3,29.3-106.8c13.2,0.5,24.5,0.4,38.5,0.4c-8.3,50.5-11.3,68.9-18.7,106.1
			C439.7,626.1,421.2,625.8,421.2,625.8z"/>
		<path class="st1" d="M422.3,626.1c6.5-21.9,12.5-44,18.4-66c1.5-5.8,3.1-11.6,4.6-17.3c1.7-6.4,2.8-13.5,5.2-19.7
			c1.5-3.7,3.6-2.8,7.3-2.7c3.6,0.1,7.1,0.1,10.7,0.2c6.8,0.1,13.6,0,20.4,0c-0.4-0.5-0.7-0.9-1.1-1.4c-4.7,28.3-9.2,56.7-14.6,84.9
			c-0.6,3.4-1.3,6.8-2,10.2c-0.3,1.3-0.5,2.7-0.8,4c-0.2,1.2-0.3,4.7-1.1,5.6c-1.3,1.4-5.1,0.7-6.9,0.8c-2.4,0-4.7,0.1-7.1,0.1
			c-3.7,0-7.3,0.1-11,0.1c-7.7,0.1-15.5,0.1-23.2,0c-1.4,0-1.4,2.2,0,2.3c16.3,0.3,32.7,0,49-0.3c0.5,0,1-0.3,1.1-0.8
			c7-35.2,12.9-70.6,18.7-106.1c0.1-0.7-0.3-1.4-1.1-1.4c-12.8,0-25.6,0-38.5-0.4c-0.5,0-1,0.4-1.1,0.8
			c-9.5,35.7-18.8,71.4-29.3,106.8C419.7,626.9,421.9,627.4,422.3,626.1z"/>
		<path class="st3" d="M458.6,520.1c-4.3,10.3-7.2,21.3-10.6,31.8c-4.1,12.6-8.2,25.2-12.2,37.7c-3.8,11.7-7.7,23.4-11.6,35.1H458
			l7.5-105C463.9,520,460.2,520.1,458.6,520.1z"/>
		<path class="st2" d="M397.4,626.5c5.4-39.3,19.9-86,28-125.8c13.2,0.5,27.5,0.4,41.5,0.4c-8.1,49-18.8,84.8-27.5,125
			C409,626.8,397.4,626.5,397.4,626.5z"/>
		<path class="st1" d="M398.5,626.8c3.9-27.4,10.9-54.2,17.6-81c3.3-13.3,6.6-26.5,9.4-39.9c0.3-1.6,0.2-3.2,1.7-4
			c1.1-0.6,4.3,0.1,5.5,0.2c3.7,0.1,7.5,0.1,11.3,0.2c7.6,0.1,15.3,0,22.9,0c-0.4-0.5-0.7-0.9-1.1-1.4c-5.7,34-14,67.3-21.9,100.8
			c-0.9,3.9-1.8,7.7-2.7,11.6c-0.6,2.7-1,9.7-3.1,11.4c-1.3,1-4.5,0.5-6.2,0.5c-2.2,0-4.5,0.1-6.7,0.1c-3.5,0-6.9,0.1-10.4,0.1
			c-5.8,0-11.6,0.1-17.4,0c-1.4,0-1.4,2.2,0,2.3c14,0.4,28,0,42-0.3c0.5,0,1-0.3,1.1-0.8c9-41.7,20.4-82.9,27.5-125
			c0.1-0.7-0.3-1.4-1.1-1.4c-13.8,0-27.6,0.1-41.5-0.4c-0.5,0-1,0.4-1.1,0.8c-8.6,42.1-22,83.2-28,125.8
			C396.2,627.7,398.3,628.3,398.5,626.8z"/>
		<path class="st3" d="M418.3,550.6c-4.4,3.7-5.6,0.7-7.4,6.2c-3.2,9.9-3.7,20.7-6.2,30.8c-3.2,12.8-7.4,25.3-11.6,37.8h30.1
			l11.7-78.9C430.2,549,422.4,547.1,418.3,550.6z"/>
		<path class="st2" d="M381.4,625.8c8-24.6,22-70.6,23.1-78.2c6.3-0.9,20.5-2,30.4-1.1c-8.5,33.6-13.8,52.1-21.2,79.3H381.4z"/>
		<path class="st1" d="M382.5,626.1c6.2-19.1,12.1-38.3,17.7-57.6c1.1-3.8,2.2-7.7,3.3-11.6c0.6-2.1,0.7-5.9,1.9-7.7
			c0.1-0.2,0-0.9,0.2-1c0.1-0.1,2.6,0,3.1,0c2.7-0.3,5.5-0.5,8.2-0.6c6-0.3,12-0.4,18,0c-0.4-0.5-0.7-0.9-1.1-1.4
			c-3.4,13.6-6.9,27.1-10.6,40.6c-1.6,5.8-3.2,11.6-4.8,17.4c-1.6,5.9-4.1,12.1-5,18.2c-0.3,2.4,0.6,1.8-0.7,2.3
			c-0.8,0.3-2.4,0-3.2,0c-3.8,0-7.7,0-11.5,0c-5.5,0-11.1,0-16.6,0c-1.4,0-1.5,2.3,0,2.3c10.8,0,21.5,0,32.3,0c0.5,0,1-0.3,1.1-0.8
			c7.3-26.4,14.5-52.8,21.2-79.3c0.2-0.8-0.4-1.4-1.1-1.4c-10.2-0.8-20.6-0.2-30.7,1.2c-0.3,0-0.7,0.4-0.8,0.8
			c-1.8,11-5.8,22-9,32.7c-4.5,15.2-9.2,30.4-14.1,45.5C379.9,626.9,382.1,627.5,382.5,626.1z"/>
		<path class="st12" d="M505.2,319.9c10.1,0,18.2-3.5,18.2-7.8c0-4.3-8.1-7.8-18.2-7.8c-10.1,0-18.2,3.5-18.2,7.8
			C487,316.4,495.2,319.9,505.2,319.9z"/>
		<path class="st11" d="M425.8,558.1l-16.9,60.8c-0.5,1.7-2.2,2.7-3.9,2.2h-8.4c-1.7-0.5-2.7-2.2-2.2-3.9l16.9-60.8
			c0.5-1.7,2.2-2.7,3.9-2.2h8.4C425.2,554.6,426.2,556.4,425.8,558.1z"/>
		<path class="st1" d="M663.1,527c-13.9,32.6-27.2,65.5-38,99.3c-0.4,1.4,1.7,2,2.2,0.6c10.7-33.6,24-66.3,37.8-98.7
			C665.6,526.8,663.7,525.6,663.1,527z"/>
		<path class="st1" d="M673.7,532.8c-13.6,30.7-24.6,62.5-36.9,93.8c-0.5,1.3,1.6,1.9,2.2,0.6c12.2-31.1,23.2-62.7,36.7-93.3
			C676.3,532.6,674.3,531.5,673.7,532.8z"/>
		<path class="st1" d="M684.9,539.7c-10.4,29.3-24.3,57.2-33.5,86.9c-0.4,1.4,1.7,2,2.2,0.6c9.2-29.7,23.1-57.7,33.5-86.9
			C687.6,538.9,685.4,538.3,684.9,539.7z"/>
		<path class="st1" d="M241.4,259.8c26.3-0.2,52.6-0.1,78.9-1c1.4-0.1,1.5-2.3,0-2.3c-26.3,0.9-52.6,0.8-78.9,1
			C239.9,257.5,239.9,259.8,241.4,259.8z"/>
		<path class="st1" d="M242.1,273.6c26.4,0,52.9-0.1,79.3-0.1c1.4,0,1.5-2.3,0-2.3c-26.4,0-52.9,0.1-79.3,0.1
			C240.6,271.3,240.6,273.6,242.1,273.6z"/>
		<path class="st1" d="M235.4,316.4c30.3-0.2,60.6-1.1,90.9-0.8c1.4,0,1.4-2.2,0-2.3c-30.3-0.3-60.6,0.6-90.9,0.8
			C234,314.1,234,316.4,235.4,316.4z"/>
		<path class="st1" d="M234.8,331c30.5-1.5,61-1,91.5-1c1.4,0,1.5-2.2,0-2.3c-30.5,0-61.1-0.5-91.5,1
			C233.3,328.8,233.3,331,234.8,331z"/>
		<path class="st1" d="M359.2,590.5c0-58.6-0.1-117.2-0.3-175.7c-0.2-54.7-0.3-109.4-1.1-164c-0.2-12.9,0.5-26.4-1.1-39.3
			c-0.1-0.8-0.6-1.5-1.5-1.5c-46.7,0.4-93.4,0.2-140.1,1.5c-12.9,0.4-25.7,0.8-38.6,1.7c-0.8,0.1-1.5,0.6-1.5,1.5
			c-0.2,12.5-0.4,25.1-0.6,37.6c-0.5,29.9-0.9,59.8-1.4,89.7c-0.6,36.3-1.1,72.7-1.7,109c-0.5,31.3-1,62.5-1.4,93.8
			c-0.2,10.3-0.3,20.7-0.5,31c-0.1,4.7-0.9,10.1-0.2,14.8c0,0.2,0,0.5,0,0.7c0,0.8,0.7,1.5,1.5,1.5c21-0.1,42-0.1,63.1-0.2
			c33.6-0.1,67.1-0.2,100.7-0.4c7.8,0,15.5-0.1,23.3-0.1c1.9,0,1.9-3,0-3c-21,0.1-42,0.1-63.1,0.2c-33.6,0.1-67.1,0.2-100.7,0.4
			c-7.8,0-15.5,0.1-23.3,0.1c0.5,0.5,1,1,1.5,1.5c0.2-12.5,0.4-25.1,0.6-37.6c0.5-29.9,0.9-59.8,1.4-89.7c0.6-36.3,1.1-72.7,1.7-109
			c0.5-31.3,1-62.5,1.4-93.8c0.2-10.3,0.3-20.7,0.5-31c0-3.2,0.1-6.5,0.1-9.7c0-1.3,0.6-3.9,0.1-5.1c-0.1-0.2,0-0.5,0-0.7
			c-0.5,0.5-1,1-1.5,1.5c49.9-3.3,100.1-2.8,150-3c9.5,0,19.1-0.1,28.6-0.1c-0.5-0.5-1-1-1.5-1.5c1.4,10.7,0.9,21.9,1,32.7
			c0.4,22.8,0.6,45.6,0.7,68.4c0.4,61.6,0.6,123.3,0.7,184.9c0.1,31,0.1,62,0.1,93C356.2,592.4,359.2,592.4,359.2,590.5z"/>
		<path class="st13" d="M60.4,234c11.2-20.6,31.2-42,43.6-55.5c20.2-22.1,55.9-39.8,85.8-16.3c-1.6-32.4,27.1-57.8,50.8-62.6
			c37.3-7.5,68.2,14.4,79.9,44.4c-6.4-70.5,79.3-93.8,109.4-29.6c22.3,47.6,6.3,102.2-43.5,110.8C288.7,230.5,165.5,232.9,60.4,234z
			"/>
		<path class="st14" d="M76.2,220.5c0,0,35.8-63.2,75.1-66.3c30.4-2.4,38.2,13.9,38.2,13.9s-18.8-4-36.5-0.2
			C119.2,175,76.2,220.5,76.2,220.5z"/>
		<path class="st14" d="M191.9,163.9c0,0,8-55.2,56.6-62.1c30.2-4.3,44.9,15.8,44.9,15.8s-25.6-5.9-43.3-2.1
			C216.4,122.6,191.9,163.9,191.9,163.9z"/>
		<path class="st14" d="M320.6,142.7c0,0,6.9-55.2,49.1-62.1c26.2-4.3,38.9,15.8,38.9,15.8s-22.2-0.9-37.5,2.9
			C341.9,106.4,320.6,142.7,320.6,142.7z"/>
		<path class="st1" d="M774.7,85.5c6.2,0,12.3,0,18.5,0c1.9,0,1.9-3,0-3c-0.2,0-0.4,0-0.6,0c-1.9,0-1.9,3,0,3c0.2,0,0.4,0,0.6,0
			c1.9,0,1.9-3,0-3c-6.2,0-12.3,0-18.5,0C772.8,82.5,772.8,85.5,774.7,85.5z"/>
		<path class="st1" d="M775.1,101.7c6.3,0,12.5,0,18.8,0c1.9,0,1.9-3,0-3c-6.3,0-12.5,0-18.8,0C773.2,98.7,773.2,101.7,775.1,101.7z
			"/>
		<path class="st1" d="M775.5,117.4c6,0,12.1,0,18.1,0c1.9,0,1.9-3,0-3c0,0,0,0-0.1,0c-1.9,0-1.9,3,0,3h0.1c1.9,0,1.9-3,0-3
			c0,0,0,0-0.1,0c-1.9,0-1.9,3,0,3c0,0,0,0,0.1,0c1.9,0,1.9-3,0-3h-0.1c-1.9,0-1.9,3,0,3c0,0,0,0,0.1,0c1.9,0,1.9-3,0-3
			c-6,0-12.1,0-18.1,0C773.6,114.4,773.6,117.4,775.5,117.4z"/>
		<path class="st1" d="M776,130.7c5.8,0,11.6,0,17.5,0c1.9,0,1.9-3,0-3c-5.8,0-11.6,0-17.5,0C774.1,127.7,774.1,130.7,776,130.7z"/>
		<path class="st1" d="M775.6,146.4c6.3,0,12.6,0,19,0c0-1,0-2,0-3c-0.3,0-0.7,0-1,0c-1.9,0-1.9,3,0,3c0.3,0,0.7,0,1,0
			c1.9,0,1.9-3,0-3c-6.3,0-12.6,0-19,0C773.6,143.4,773.6,146.4,775.6,146.4z"/>
		<path class="st1" d="M776.5,161.2c6.1,0,12.2,0,18.4,0c1.9,0,1.9-3,0-3c-6.1,0-12.2,0-18.4,0C774.5,158.2,774.5,161.2,776.5,161.2
			z"/>
	</g>
</g>
</svg>
