<?xml version="1.0" encoding="utf-8"?>
<!-- Generator: Adobe Illustrator 23.0.1, SVG Export Plug-In . SVG Version: 6.00 Build 0)  -->
<svg version="1.1" id="Layer_1" xmlns="http://www.w3.org/2000/svg" xmlns:xlink="http://www.w3.org/1999/xlink" x="0px" y="0px"
	 viewBox="0 0 1195 638.1" style="enable-background:new 0 0 1195 638.1;" xml:space="preserve">
<style type="text/css">
	.st0{fill:#574E56;}
	.st1{fill:#2E232D;}
	.st2{fill:#2BB2BC;}
	.st3{fill:#E3F1FF;}
	.st4{fill:#CBD5E5;}
	.st5{fill:#6A2D57;}
	.st6{fill:#5B244F;}
	.st7{fill:#9E5F81;}
	.st8{opacity:0.71;fill:#AFCFEF;enable-background:new    ;}
	.st9{fill:#1E9CAE;}
	.st10{fill:#FDB43E;}
	.st11{fill:url(#SVGID_1_);}
	.st12{fill:url(#SVGID_2_);}
	.st13{fill:url(#SVGID_3_);}
	.st14{fill:#EAFCFF;}
	.st15{fill:none;stroke:#574E56;stroke-width:3;stroke-linecap:round;stroke-linejoin:round;stroke-miterlimit:10;}
	.st16{fill:url(#SVGID_4_);}
	.st17{fill:#FFFFFF;}
	.st18{opacity:0.5;fill:#574E56;enable-background:new    ;}
	.st19{opacity:0.5;}
	.st20{opacity:0.5;fill:#666666;enable-background:new    ;}
	.st21{fill:#E8FAFF;}
</style>
<g>
	<path class="st0" d="M42.9,440.5c0,0,7.5-8.6,12.1-3.1c3.6,4.2-2,16.1-12.5,13.6c0,0,1.1-2.3,1.6-2.8c2.6-0.2,9-1.3,8.8-7
		c-0.1-1.7-1.6-2.2-3.6-1.3c-2.8,1.3-5.5,3.7-5.5,3.7L42.9,440.5z"/>
	<path class="st0" d="M43.6,457.2H26.7c0,0-4-18.1-2.6-24.5c6.7-0.8,18.4-1,22.1,0C47.7,439.3,43.6,457.2,43.6,457.2z"/>
	<path class="st1" d="M24.4,443.5c0.8,6.8,2.4,13.6,2.4,13.6h16.9c0,0,1.4-6,2.2-12.3C40.4,439.5,29.7,438.2,24.4,443.5z"/>
	<path class="st1" d="M49.3,446.8c-1.8,0.9-3.9,1.2-5.1,1.3c-0.5,0.5-1.6,2.8-1.6,2.8c3.3,0.8,6.2,0.1,8.4-1.3
		C50.5,448.7,50,447.8,49.3,446.8z"/>
	<path class="st2" d="M1147.4,561.2c0,0-4.2,21.6-3.4,29.9c3.2,6.2,14.9,19.6,14.9,19.6s8.5-24.1,6.1-31.8
		C1154.9,572.8,1147.4,561.2,1147.4,561.2z"/>
	<path class="st1" d="M889.5,101.9l3.7,5.2l-7.8,0.1L889.5,101.9z"/>
	<path class="st1" d="M342.5,109.7l4.3,5.8l-10.5,2.3L342.5,109.7z"/>
	<path class="st3" d="M230.2,130c3.4,176.2,1.5,266.7-2.1,431.3c-0.2,7.7,6,14,13.9,14.3c207.7,7.1,641.6,4.2,735.8,0.7
		c7.7-0.3,13.8-6.3,13.9-13.8c1.5-90.3-4.8-328.3-3.2-443.6c0.1-7.9-6.6-14.3-14.7-14.2c-173.6,3.5-641,9.7-729.4,10.9
		C236.4,115.8,230,122.2,230.2,130z"/>
	<path class="st0" d="M434.5,579.1c8.1-24.6,26.2-46,54.2-47c28.8-1,56.3,13.8,63.5,42.9c0.4,1.5,0.7,3.1,0.9,4.6l3.9,0
		c-2.3-13.7-8.1-26.6-19.2-35.9c-24.1-20.2-63.2-21-86.6,0.2c-10.5,9.5-17.2,21.8-21.1,35.1L434.5,579.1z"/>
	<path class="st0" d="M418.4,579c6.1-19.5,15.9-38.7,32.9-50.7c27.5-19.5,69.3-16.1,94,6.3c12.1,11,22.4,28,23.2,45l3.9,0
		c-0.7-13.6-7-27.4-15.2-37.9c-12.3-15.9-30-26.3-49.9-28.9c-31.6-4.2-60.8,6.7-78.5,33.7c-6.5,10-11.1,21.1-14.6,32.4L418.4,579z"
		/>
	<path class="st0" d="M388,578.9c5.2-26.9,21.6-53.5,43.6-69.2c42.5-30.4,108.1-24.9,142,15.6c12.7,15.2,22.2,34.8,24.8,54.5l3.9,0
		c-5.7-43.5-39.3-82.4-82.8-90.8c-26.9-5.2-56.9-1.8-80.9,11.6c-18,10.1-32.3,26-42,44.1c-5.6,10.6-10.2,22.3-12.5,34.3L388,578.9z"
		/>
	<path class="st0" d="M278.8,114.4c1.6,10.4,0.5,21.1-4.6,30.6c-8.7,16.2-26,24.8-43.7,24.2v3.9c18.3,0.5,36.2-8.1,46.1-24.5
		c6.4-10.5,7.8-22.5,6.1-34.3H278.8z"/>
	<path class="st0" d="M317.5,114.4c4.9,23.9,2.7,48.8-14.7,68.1c-16.4,18.2-41.7,28-65.9,29.2c-2.1,0.1-4.2,0.2-6.4,0.2v4.4
		c13.5,0.2,27.7-3.3,38.6-7.2c26.1-9.6,48-29.6,53.5-57.7c2.4-12.3,1.7-24.8-0.8-36.9H317.5z"/>
	<path class="st0" d="M290.7,114.4c0.9,5.3,0.9,10.8,0.5,15.8c-1.3,16.1-9.6,29.1-22.3,38.8c-11.8,9-25,12.3-38.4,11.3v3.9
		c14.6,0.9,29-2.8,41.8-13c12.7-10.1,20.9-23.2,22.7-39.5c0.6-5.6,0.5-11.6-0.3-17.4H290.7z"/>
	<path class="st0" d="M360.6,114.4c7.9,30.5,3.8,65.1-12.6,92c-18.1,29.5-52.1,42.7-85.3,45.8c-10.7,1-21.5,1-32.2-0.1v4
		c26.8,2.7,54.6-0.9,79-11.8c32.2-14.4,51.5-43.7,57.1-78c2.9-17.2,2.3-35-1.9-51.9H360.6z"/>
	<path class="st0" d="M382.2,114.4c7.2,36.5,1.7,74-21.2,104.9c-28.1,38-72.8,56.3-119.3,54.5c-3.7-0.1-7.4-0.4-11.2-0.7v4.5
		c22.4,2.3,45.8-0.5,65.9-6.9c47.6-15.2,85-57.6,91.9-107.4c2.3-16.3,1.3-32.8-1.9-48.8H382.2z"/>
	<path class="st0" d="M480.7,579.3c3.5-7.1,10.6-11.3,19.5-7.6c3.9,1.6,6.1,4.4,7.3,7.7l4,0c-1.7-6.1-6.1-10.9-13.3-12.5
		c-10.7-2.3-18.2,3.6-21.7,12.3L480.7,579.3z"/>
	<path class="st4" d="M336.3,139.3c-4.7,0-8.5-3.8-8.5-8.5v-16.2l17-0.2v16.5C344.8,135.5,341,139.3,336.3,139.3z"/>
	<path class="st4" d="M883.6,131.3c-4.7,0-8.5-3.8-8.5-8.5v-16.2l17-0.2v16.5C892.1,127.5,888.3,131.3,883.6,131.3z"/>
	<path class="st5" d="M182.9,457.2H0V597h182.9V457.2z"/>
	<path class="st6" d="M177.5,508.5H11.4v4.8h166.1V508.5z"/>
	<path class="st6" d="M177.5,555.1H11.4v4.8h166.1V555.1z"/>
	<path class="st6" d="M109.7,466.5H91.4v3.9h18.3V466.5z"/>
	<path class="st6" d="M109.7,520.3H91.4v3.9h18.3V520.3z"/>
	<path class="st6" d="M109.7,566.2H91.4v3.9h18.3V566.2z"/>
	<path class="st0" d="M93.5,392.5c-1.7,3.5-3.5,6.9-5.3,10.4c-0.8,1.6-2,3.4-2.2,5.3c-0.2,1.9,2.7,1.9,2.9,0
		c0.2-1.7,1.8-3.8,2.6-5.3c1.5-2.9,3.1-5.9,4.5-8.8C96.9,392.3,94.3,390.8,93.5,392.5z"/>
	<path class="st7" d="M163.2,378.8H91.4v78.4h71.8V378.8z"/>
	<path class="st5" d="M163.2,385.3H91.4v13.4h71.8V385.3z"/>
	<path class="st8" d="M1175.2,611.4c7,2.9,26,10.1,17.8,13.3c-9.4,3.6-53.5,11.8-63.5,12.8c-1.5,0.1-35.3-12.1-36.9-11.9
		c-80.7,7.4-258.5,12.5-480,12.5c-294.7,0-533.6-9.2-533.6-20.6s238.9-20.6,533.6-20.6S1164.7,607.1,1175.2,611.4z"/>
	<path class="st1" d="M1037.8,570.8c-27.1-0.2-87.3,29.7-112,42.6v5.8h211.6v-8.1C1113,597.4,1062.7,571,1037.8,570.8z"/>
	<path class="st0" d="M208.8,467.5c12.4,16.9,38.2,15.6,54.9,6.1c9.8-5.5,19.2-13.3,26-22.3c0.6-0.8,1.3-2.5,2.1-3
		c1.6-0.9-0.7-0.6,1,0.3c1.3,0.7,1.9,2.4,3.6,2.6c3.5,0.4,4.7-3.6,5.7-6.2c0.4-1.2-1.5-1.7-1.9-0.5c-1.8,4.8-4.8,4.3-7.5,0.9
		c-0.4-0.5-1.3-0.3-1.5,0.2c-7.1,13.4-23.1,25.5-37.2,30.4c-14.4,5-33.9,3.4-43.4-9.5C209.8,465.5,208.1,466.4,208.8,467.5z"/>
	<path class="st7" d="M676.2,241.9c-0.1,7.5,0.2,14.9,0.4,22.4c0.1,5.3-1.5,13.2,1.6,17.9c4.3,6.3,14.5,4.3,21.1,4.3
		c19,0,38.1,0,57.1,0c44.7-0.1,89.4-0.3,134.1-0.4c9.1,0,18.1-0.1,27.2-0.1c7.1,0,15.3,1,22.4-0.2c11.1-2,7.9-15.3,7.6-23.4
		c-0.2-7.2-0.2-14.4-0.4-21.6c-0.1-4.6-0.9-8.5-5.6-10.6c-4.2-1.8-9.6-0.8-14-0.6c-6.5,0.2-13,0.4-19.5,0.5
		c-12.8,0.3-25.7,0.6-38.5,0.8c-26.1,0.5-52.1,0.9-78.2,1.2c-24.3,0.3-48.6,0.5-72.8,0.7c-8.3,0.1-16.5,0.1-24.8,0.2
		c-7,0-16.3-0.8-17.7,8.4c-0.4,2.5,3.4,3.5,3.8,1c1-7.2,13.5-5.5,18.7-5.5c6.9,0,13.7-0.1,20.6-0.2c18.7-0.1,37.3-0.3,56-0.5
		c45.6-0.5,91.3-1.2,136.9-2.3c5.2-0.1,10.3-0.3,15.5-0.4c2.4-0.1,5.2-0.6,7.5-0.2c2.3,0.3,7,2.5,8.1,5c0.6,1.3,0,6,0,7.5
		c0.1,5.9,0.2,11.8,0.4,17.7c0.1,2.6,0.2,5.3,0.3,7.9c0,1,0.3,2.7,0.1,3.8c0.5,2.1-0.4,3.6-2.9,4.4c-0.9,1.9-2.3,2.8-4,2.6
		c-5.9,1.3-13.5,0-19.5,0c-8,0-16.1,0-24.1,0.1c-39.1,0.1-78.2,0.3-117.3,0.4c-20.6,0.1-41.1,0.1-61.7,0.1c-8.1,0-16.2,0-24.3,0
		c-0.7,0-1.5,0.1-2.2,0c-2.2-0.3-6.6-2.9-7.5-5.1c-1.2-2.7,0-8.9-0.1-12c-0.2-7.9-0.5-15.7-0.4-23.6
		C680.2,239.4,676.3,239.4,676.2,241.9z"/>
	<path class="st7" d="M676.2,305.2c-0.1,7.5,0.2,15,0.4,22.4c0.1,5.3-1.5,13.3,1.6,17.9c4.2,6.2,14,4.3,20.5,4.3
		c19.3,0,38.5,0,57.8,0c44.5-0.1,88.9-0.3,133.4-0.4c9.3,0,18.6-0.1,27.9-0.1c7.2,0,15.3,1,22.4-0.2c10.6-1.9,7.9-13.9,7.6-21.7
		c-0.2-6.4-0.4-12.8-0.4-19.2c0-4.7,0.4-9.1-3.9-12.1c-3.9-2.7-9.3-1.8-13.7-1.8c-6.6,0-13.2,0-19.8,0c-13.4,0-26.8,0.1-40.2,0.2
		c-26.3,0.2-52.6,0.4-78.9,0.7c-24.1,0.3-48.1,0.5-72.2,0.9c-8.3,0.1-16.5,0.2-24.8,0.3c-7,0.1-16.3-0.6-17.6,8.4
		c-0.4,2.5,3.4,3.5,3.8,1c1-7.2,13.4-5.5,18.6-5.6c6.9-0.1,13.7-0.2,20.6-0.3c18.7-0.3,37.5-0.5,56.2-0.7c45.8-0.5,91.6-0.9,137.4-1
		c5.3,0,10.6,0,15.9,0c2.5,0,5.3-0.3,7.7,0c8.4,1.2,6.9,7.8,7,13.5c0.1,5.6,0.2,11.1,0.4,16.7c0.2,6.5,2.8,15.6-6.6,17.1
		c-6.2,0.9-13.3,0-19.5,0c-8,0-16.1,0-24.1,0.1c-39.4,0.1-78.8,0.3-118.1,0.4c-20.3,0.1-40.5,0.1-60.8,0.1c-8.1,0-16.2,0-24.3,0
		c-0.7,0-1.5,0.1-2.2,0c-2.2-0.3-6.6-2.9-7.5-5.1c-1.2-2.8,0-9-0.1-12c-0.2-7.9-0.5-15.7-0.4-23.6
		C680.2,302.7,676.3,302.7,676.2,305.2z"/>
	<path class="st7" d="M676.2,371.4c-0.1,7.5,0.2,14.9,0.4,22.4c0.1,5.3-1.5,13.2,1.6,17.9c4.3,6.3,14.5,4.3,21.1,4.3
		c19,0,38.1,0,57.1,0c44.7-0.1,89.4-0.3,134.1-0.4c9.1,0,18.1-0.1,27.2-0.1c7.1,0,15.3,1,22.4-0.2c11.1-2,7.9-15.3,7.6-23.4
		c-0.2-7.2-0.2-14.4-0.4-21.6c-0.1-4.6-0.9-8.5-5.6-10.6c-4.2-1.8-9.6-0.8-14-0.6c-6.5,0.2-13,0.4-19.5,0.5
		c-12.8,0.3-25.7,0.6-38.5,0.8c-26.1,0.5-52.1,0.9-78.2,1.2c-24.3,0.3-48.6,0.5-72.8,0.7c-8.3,0.1-16.5,0.1-24.8,0.2
		c-7,0-16.3-0.8-17.7,8.4c-0.4,2.5,3.4,3.5,3.8,1c1-7.2,13.5-5.5,18.7-5.5c6.9,0,13.7-0.1,20.6-0.2c18.7-0.1,37.3-0.3,56-0.5
		c45.6-0.5,91.3-1.2,136.9-2.3c5.2-0.1,10.3-0.3,15.5-0.4c2.4-0.1,5.2-0.6,7.5-0.2c2.3,0.3,7,2.5,8.1,5c0.6,1.3,0,6,0,7.5
		c0.1,5.9,0.2,11.8,0.4,17.7c0.1,2.6,0.2,5.3,0.3,7.9c0,1,0.3,2.7,0.1,3.8c0.5,2.1-0.4,3.6-2.9,4.4c-0.9,1.9-2.3,2.8-4,2.6
		c-5.9,1.3-13.5,0-19.5,0c-8,0-16.1,0-24.1,0.1c-39.1,0.1-78.2,0.3-117.3,0.4c-20.6,0.1-41.1,0.1-61.7,0.1c-8.1,0-16.2,0-24.3,0
		c-0.7,0-1.5,0.1-2.2,0c-2.2-0.3-6.6-2.9-7.5-5.1c-1.2-2.7,0-8.9-0.1-12c-0.2-7.9-0.5-15.7-0.4-23.6
		C680.2,368.9,676.3,368.9,676.2,371.4z"/>
	<path class="st9" d="M678.7,459.7c0.1,16-0.3,29.9-0.3,45.5c0,7.5,6.1,13.6,13.6,13.6c58.2,0.3,184.8-0.7,239.5-0.8
		c7.5,0,13.6-6.1,13.6-13.6c0-13.2,0.1-27,0.3-45c0.1-7.7-6.2-14-13.9-13.8c-86.5,1.9-199.8,0.9-238.9,0.4
		C684.8,445.9,678.6,452,678.7,459.7z"/>
	<path class="st10" d="M159.6,542.5c0,0-33.1-11.2-46-25.8c-17.4-19.6-15.7-56.5,10.2-58.8c-1.7,3.8-3.8,11.4-3.8,11.4l51.3,65.5"/>
	<path class="st0" d="M236.8,357c3.6-7.9,28.6,5.2,36.6,2.1c-3.2,11.8-13.5,14.8-21.3,24.6C252.2,383.7,232.7,366,236.8,357z"/>
	<path class="st10" d="M262.5,402.6c-4.6-13.8-3.1-25.2-9-32.1c-3.4-4-9.5-7.4-13.7-8.6c-0.7-0.2,3.8-0.6,3.2-0.9
		c-1.2-0.6-8.8-0.3-10.4-0.5c-1.6-0.2,9.5-1.4,7.8-1.9c-3.2-0.8-11-0.2-13.3,0.3c-9.2-1.6-23.9,1.9-31.6,5.5
		c-11.4,5.4-16.4,27.3-15.1,22.9c-5.2,16.3-1.8,29.6-2.4,54.8c-0.6,22.4,4.6,47.9-0.3,64.7l57.6-59.1L262.5,402.6z"/>
	<path class="st0" d="M175.6,547.7c-5.8,19.2-16.2,46.7-19,62.2c8-2.5,14.5,0.1,15.1,5.4l-20.9-0.3l11.1-71.5"/>
	
		<linearGradient id="SVGID_1_" gradientUnits="userSpaceOnUse" x1="-85.4804" y1="-258.1912" x2="-73.2111" y2="-329.5667" gradientTransform="matrix(1 0 0 -1 242.3622 286.4034)">
		<stop  offset="0" style="stop-color:#000000;stop-opacity:0"/>
		<stop  offset="1" style="stop-color:#000000"/>
	</linearGradient>
	<path class="st11" d="M175.6,547.7c-5.8,19.2-16.2,46.7-19,62.2c8-2.5,14.5,0.1,15.1,5.4l-20.9-0.3l11.1-71.5"/>
	<path class="st0" d="M214.8,542.4c-5.8,19.2-16.2,46.7-19,62.2c8-2.5,14.5,0.1,15.1,5.4l-20.9-0.3l11.1-71.5"/>
	
		<linearGradient id="SVGID_2_" gradientUnits="userSpaceOnUse" x1="-46.2679" y1="-252.9637" x2="-33.9987" y2="-324.3392" gradientTransform="matrix(1 0 0 -1 242.3622 286.4034)">
		<stop  offset="0" style="stop-color:#000000;stop-opacity:0"/>
		<stop  offset="0.9085" style="stop-color:#000000;stop-opacity:0.9085"/>
		<stop  offset="1" style="stop-color:#000000"/>
	</linearGradient>
	<path class="st12" d="M214.8,542.4c-5.8,19.2-16.2,46.7-19,62.2c8-2.5,14.5,0.1,15.1,5.4l-20.9-0.3l11.1-71.5"/>
	<path class="st10" d="M252.9,428.8c-27,42.7,21.4,98.9-31.6,129.5c-15.5,3.2-56.1-8.6-66.7-20.6c-13.1-31.6,2.2-45.6,10.2-71.4
		c10-32.1,13.2-40.2,13.2-64.9"/>
	
		<linearGradient id="SVGID_3_" gradientUnits="userSpaceOnUse" x1="-3.6002" y1="-134.1245" x2="-76.7942" y2="-259.2211" gradientTransform="matrix(1 0 0 -1 242.3622 286.4034)">
		<stop  offset="0" style="stop-color:#FDB43E"/>
		<stop  offset="0.3082" style="stop-color:#FDAC3A"/>
		<stop  offset="0.774" style="stop-color:#FD9831"/>
		<stop  offset="1" style="stop-color:#FD8B2B"/>
	</linearGradient>
	<path class="st13" d="M252.9,428.8c-27,42.7,21.4,98.9-31.6,129.5c-15.5,3.2-56.1-8.6-66.7-20.6c-13.1-31.6,2.2-45.6,10.2-71.4
		c10-32.1,13.2-40.2,13.2-64.9"/>
	<path class="st10" d="M232.6,387.2c4.9,9.3,28.8,4,49.2-0.5c4.2,22.1-0.7,31.9-11.3,41.2c-3.8,3.3-11.8,5.2-21.4,6.4"/>
	<path class="st0" d="M271.2,389.1c5.7,19.7,15.5,13.9,16.3-0.2C288.1,377.7,269.8,384.2,271.2,389.1z"/>
	<path class="st14" d="M219.2,374.4c-27.7,25.9,16.1,39.1,22,21.8C246.7,380.3,226.1,367.9,219.2,374.4z"/>
	<path class="st0" d="M249.3,434.7c-1.8,4.4-12.5,1.6-15.6,1c-8-1.7-15.7-4.3-23.3-7.3c-3.5-1.4-36.6-14.5-33-20.8
		c0.6-1.1-1.1-2.1-1.7-1c-5.1,9,28.2,21.3,33,23.2c9.5,3.8,19.5,7.3,29.7,8.6c3.9,0.5,10.9,1.4,12.8-3.3
		C251.7,434.1,249.8,433.5,249.3,434.7z"/>
	<path class="st14" d="M225.9,439.6c5.6,6.5,9,8.6,16.2,9.8c0.2-2.2-3.1-5.3-4.5-7.4c4.4-1.3,7.6-4.1,9.7-8.7
		c-7-0.3-9.9,1.6-16.6-0.4l-1.7-0.2c-7.2-6-21.5-14-31.2-14.8c2.3,2.2,4.4,6.3,4.6,6.8c0.3,0.8-1-0.6-9.3,1.1c6.7,3.1,9,4.8,9.4,5.8
		c-3.5,0.7-4,0.9-8.2,0.9c7.6,3.3,22.8,6.4,31.3,7"/>
	<path class="st0" d="M233.3,389.5c1.4-0.8,1.4-3.3,0.1-5.7s-3.6-3.6-5-2.8c-1.4,0.8-1.4,3.3-0.1,5.7S231.9,390.3,233.3,389.5z"/>
	<path class="st0" d="M255.5,387.1c1-0.4,1.2-2,0.6-3.7c-0.7-1.6-2-2.7-2.9-2.3c-1,0.4-1.2,2-0.6,3.7
		C253.2,386.5,254.5,387.5,255.5,387.1z"/>
	<path class="st0" d="M221.7,441.5c1.8-6.1,2.3-8.3,4.7-11.1c2.6,0,5.8,1.4,5.5,3.1c-0.4,2.8-1.7,6.4-3.9,10.4
		C225.1,444.6,221.7,441.5,221.7,441.5z"/>
	<path class="st0" d="M222.6,383.9c-0.5-2.4,0.3-5.1,3-5.8c1.2-0.3,0.7-2.2-0.5-1.9c-3.7,1-5,4.8-4.3,8.2
		C221,385.6,222.8,385.1,222.6,383.9z"/>
	<path class="st0" d="M249.3,382.7c-0.3-2.6,0.8-5.2,3.6-5.7c1.2-0.2,0.7-2.1-0.5-1.9c-3.6,0.6-5.4,4.2-5,7.6
		C247.4,384,249.4,384,249.3,382.7z"/>
	<path class="st10" d="M195.3,372.2c1.1,0.7,0.1,2.5-1.1,1.8C193.1,373.3,194.1,371.6,195.3,372.2z"/>
	<path class="st10" d="M189.8,374.3c1.1,0.7,0.1,2.5-1.1,1.8C187.6,375.4,188.6,373.6,189.8,374.3z"/>
	<path class="st0" d="M267.4,394.4c-1.3,0.1-1.1,2.2,0.2,2.1C268.9,396.3,268.7,394.3,267.4,394.4z"/>
	<path class="st0" d="M265.5,400.5c-2.6,0.3-2.3,4.4,0.4,4.1C268.5,404.3,268.1,400.2,265.5,400.5z"/>
	<path class="st0" d="M271.5,400.9c-1.3,0.1-1.1,2.2,0.2,2.1C273,402.8,272.8,400.8,271.5,400.9z"/>
	<path class="st14" d="M278,390.5c1.4-0.1,2.4-1.4,2.2-2.8c-0.1-1.4-1.4-2.5-2.7-2.3c-1.4,0.1-2.4,1.4-2.2,2.8
		C275.4,389.6,276.7,390.6,278,390.5z"/>
	<path class="st14" d="M244.3,512c2.9,25.8-17.4,35.3-29.4,33.8s-22.2-13.6-12.4-37.7c14.4-35.3,16.7-52.4,28.7-50.9
		S241.6,488.5,244.3,512z"/>
	<path class="st0" d="M173.6,349.9c11.4-9.3,35.8-3.8,56.6,0.8c-2.4,12.3-36.7,22.6-45.6,39C171.1,378.9,173.6,349.9,173.6,349.9z"
		/>
	<path class="st0" d="M237.4,413.7c-0.5,9.1,12.2,11.6,17.8,6.2c0.9-0.9-0.5-2.3-1.4-1.4c-4.5,4.2-14.9,2.5-14.5-4.8
		C239.5,412.5,237.5,412.5,237.4,413.7z"/>
	<path class="st15" d="M623.7,149.6V544"/>
	<path class="st0" d="M209.9,572.8l-1.5-1c-1.4-0.9-1.7-2.8-0.8-4.2l151.3-222l6.5,4.4L214.1,572
		C213.1,573.4,211.3,573.7,209.9,572.8z"/>
	<path class="st0" d="M421.9,341.2L345.3,289l-4.4,6.4l76.6,52.2L421.9,341.2z"/>
	<path class="st0" d="M417.6,347.6L360,351l-19-55.6c0,0,5.4,3.7,7.6,5.1c-0.4,2.9,13.6,47.2,13.6,47.2l49.2-4.4L417.6,347.6z"/>
	<path class="st7" d="M421.6,341.5l-76.5-52.2c-4.8-3.3-6-9.8-2.8-14.6l3.6-5.3c3.3-4.8,9.8-6,14.6-2.8l76.5,52.2
		c4.8,3.3,6,9.8,2.8,14.6l-3.6,5.3C432.9,343.6,426.4,344.8,421.6,341.5z"/>
	<path class="st0" d="M212.7,457c5,6.9,11.3,12.9,20,14.5c11.9,2.2,24.2-3.7,34-9.8c9.9-6.1,19.1-14,26.3-23.3
		c1.1-1.5,2.1-3.3,3.3-4.6c0.3-0.5,0.6-1,0.9-1.5c0.3-0.8,0.5-0.6,0.5,0.4c0.6,0.2,1.6,1.5,2.2,1.9c3.8,2.5,7.1,1.6,10.8-0.8
		c1-0.7,0.1-2.4-1-1.7c-4.9,3.2-8.6,1.5-11.9-2.5c-0.4-0.5-1.3-0.3-1.5,0.2c-7.3,13.9-21.5,25.3-35,32.7c-8.8,4.8-19.4,9.2-29.6,6.7
		c-7.5-1.9-12.9-7.2-17.3-13.3C213.7,455,212,456,212.7,457z"/>
	<path class="st0" d="M310.8,428.4c-1.6,1.7-5.1,1.6-7.2,1.6c-2,0-4.3,0.1-6.2-0.6c-0.7-0.2-1.4,0.5-1.2,1.2
		c1.4,5.6,3.6,11,10.3,8.5c1.2-0.4,0.7-2.3-0.5-1.9c-2.5,0.9-4.6,1-6.1-1.5c-1-1.7-1.4-3.8-1.9-5.6c-0.4,0.4-0.8,0.8-1.2,1.2
		c2.5,0.8,5.5,0.7,8,0.6c2.4-0.1,5.6-0.3,7.3-2.2C313.1,428.8,311.7,427.5,310.8,428.4z"/>
	<path class="st7" d="M363.1,269.1l107.1-120.2l112.4-1.3L435,317.4L363.1,269.1z"/>
	
		<linearGradient id="SVGID_4_" gradientUnits="userSpaceOnUse" x1="212.7355" y1="52.1357" x2="90.4925" y2="-126.3343" gradientTransform="matrix(1 0 0 -1 242.3622 286.4034)">
		<stop  offset="0.1904" style="stop-color:#000000;stop-opacity:0"/>
		<stop  offset="1" style="stop-color:#000000"/>
	</linearGradient>
	<path class="st16" d="M363.1,269.1l107.1-120.2l112.4-1.3L435,317.4L363.1,269.1z"/>
	<path class="st1" d="M1105,64H240.9c-2.5,0-4.5-2-4.5-4.5v-2.8c0-2.5,2-4.5,4.5-4.5H1105V64z"/>
	<path class="st17" d="M715.1,478.1c64.4,0,128.9,3.1,193.3,0c2.5-0.1,2.5-4,0-3.9c-64.4,3.1-128.9,0-193.3,0
		C712.6,474.1,712.6,478.1,715.1,478.1z"/>
	<path class="st17" d="M726.9,492.4c57,2.4,114.3,1.2,171.3,1.4c2.5,0,2.5-3.9,0-3.9c-57-0.2-114.3,1-171.3-1.4
		C724.4,488.4,724.4,492.3,726.9,492.4z"/>
	<path class="st7" d="M694.3,267.8c8.9-5.6,18-10.8,27.3-15.5c2-1,7.6-4.8,9.2-0.4c0.9,2.5-4.3,5.7-5.9,7.3c-2.6,2.5-4,4.9-4.2,8.5
		c-0.1,1,0.9,2.1,2,2c8.6-0.9,16.4-4,24.3-7.1c4.7-1.8,9.9-4.2,15-4.4c5.9-0.2,16.3,7.7,7.1,12.2c0.7,1.1,1.3,2.3,2,3.4
		c6.4-3.5,50.6-27.4,49.3-8.7c-0.1,1.2,1.3,2.3,2.5,1.9c23.9-8.4,49.4-10.6,74.4-6.1c2.5,0.4,3.5-3.3,1-3.8
		c-25.7-4.6-51.8-2.6-76.4,6.1c0.8,0.6,1.7,1.3,2.5,1.9c0.7-10.7-10.9-12.2-18.9-10.5c-12.9,2.8-24.8,9.4-36.3,15.8
		c-2.2,1.2-0.3,4.5,2,3.4c8.9-4.4,5.1-15.8-3-18.6c-6.7-2.3-13.8,0.4-20,2.8c-8.3,3.2-16.4,6.9-25.4,7.8c0.7,0.7,1.3,1.3,2,2
		c0.4-6.9,10-8.6,10.1-15.8c0-3-1.6-5.6-4.5-6.3c-5-1.3-11.9,4-16,6.2c-7.5,4-14.8,8.2-22,12.7C690.2,265.8,692.1,269.2,694.3,267.8
		z"/>
	<path class="st7" d="M705.3,332c10.9-4.7,22-8.9,33.3-12.7c5-1.7,10.8-4.4,16.1-5.1c4.3-0.5,11,0.6,9.3,6.1
		c-1.1,3.5-4.8,5.8-7.6,7.7c-1.7,1.2-0.7,4.5,1.5,3.6c8.2-3.4,16.5-6.8,25.2-8.3c9-1.6,18.2-0.2,27.3-1.2c17-1.8,35-7.4,51.1,1.1
		c2.2,1.2,4.2-2.2,2-3.4c-15.8-8.4-33-4.2-49.8-2c-9.6,1.3-19.3,0-28.9,1.3c-9.7,1.3-18.8,5.1-27.8,8.7c0.5,1.2,1,2.4,1.5,3.6
		c4.7-3.2,10.2-7.3,9.9-13.7c-0.2-5.7-4.7-8.6-10.2-8.2c-9,0.7-18.9,5.4-27.3,8.4c-9.2,3.3-18.4,6.9-27.4,10.7
		C701,329.6,703,333,705.3,332z"/>
	<path class="st1" d="M337.9,61.4h-7.8v57.5h7.8V61.4z"/>
	<path class="st1" d="M336,137.1h-4c-3.6,0-6.5-2.9-6.5-6.5v-20.9h17v20.9C342.5,134.2,339.6,137.1,336,137.1z"/>
	<path class="st1" d="M885.2,61.4h-7.8v57.5h7.8V61.4z"/>
	<path class="st1" d="M883,129.3h-4c-3.6,0-6.5-2.9-6.5-6.5v-20.9h17v20.9C889.5,126.4,886.6,129.3,883,129.3z"/>
	<path class="st18" d="M1092,57.5H242.6c-0.6,0-1-0.4-1-1v-0.6c0-0.6,0.4-1,1-1H1092V57.5z"/>
	<g class="st19">
		<path class="st18" d="M329.2,122.4c-1.3-1-1.5-7.4-1.3-8.8c0.2-1.4,13.1-2.6,13.1,0c0,1.5-4.5,0.1-6.9,2.1
			C331.4,118,330.8,123.6,329.2,122.4z"/>
	</g>
	<g class="st19">
		<path class="st18" d="M876.5,113.3c-1.3-1-1.5-7.4-1.3-8.8s13.1-2.6,13.1,0c0,1.5-4.5,0.1-6.9,2.1
			C878.7,108.9,878.1,114.5,876.5,113.3z"/>
	</g>
	<path class="st1" d="M1041.7,587.8h-17V6.5c0-3.6,2.9-6.5,6.5-6.5h4c3.6,0,6.5,2.9,6.5,6.5V587.8z"/>
	<path class="st18" d="M1077.5,598.4c5.8-2.6,10.9-5.9,15-10.2l0.1-0.1c-12-5.5-24.2-10.5-34.9-13.7c-2.2,1.4-4.7,2.6-7.5,3.4
		C1059.3,584.8,1068.4,591.5,1077.5,598.4z"/>
	<path class="st18" d="M1038.6,579.4c-8.9,0.5-18.4-0.4-26.6-3.7c-13,4-27.7,9.9-41.7,16.1c6.6,7.7,60.8,20.3,97.7,10
		C1058.1,594.4,1048.2,587.1,1038.6,579.4z"/>
	<path class="st7" d="M168.7,394.5H86c-0.6,0-1.1-0.5-1.1-1.1v-9.5c0-0.6,0.5-1.1,1.1-1.1h82.6c0.6,0,1.1,0.5,1.1,1.1v9.5
		C169.8,394,169.3,394.5,168.7,394.5z"/>
	<path class="st0" d="M159.5,390.7c1.7,0,3.5,0,5.2,0c2.5,0,2.5-3.9,0-3.9c-1.7,0-3.5,0-5.2,0C157,386.8,157,390.7,159.5,390.7z"/>
	<path class="st3" d="M163.3,413.5l-39.9-0.7l-0.6,32h40.5V413.5z"/>
	<path class="st0" d="M86.8,409.5c8.2,4.6,16.6,8.9,25,13.2c3.5,1.7,6.2,4.3,9.7,2.3c6.2-3.6,11.8-9.3,17.3-13.8
		c8.2-6.6,16.3-13.3,24.2-20.3c1.4-1.2-0.7-3.3-2.1-2.1c-12.9,11.3-26.2,22.4-39.9,32.7c-0.5,0.4-1.3,1.2-1.9,1.4
		c-1.3,0.4,1.1,0.2,0.1,0c-2.6-0.5-5.5-2.7-7.8-3.9c-7.8-4-15.5-8-23.2-12.2C86.6,406,85.1,408.5,86.8,409.5z"/>
	<path class="st0" d="M96.2,408.9c-5.3,0.4-4.1,5.2-4.1,5.2l15.7,9.1c0,0,6.7,0,4.4-6.1C106.5,414.2,100.2,411,96.2,408.9z"/>
	<path class="st20" d="M95.8,409.2c1.7,0.9,10.8,6,15,8.4c-2.7,0.9-2.1,2.6-2.1,2.6s-11.8-6-15.2-8.9
		C93.8,409.5,95.8,409.2,95.8,409.2z"/>
	<path class="st4" d="M1011.7,432.2l120.7,200.3c0.6,1.1,1.9,1.6,3.1,1.4l53-10.1c2.1-0.4,4.4-5.9,3.6-7l-129.8-190.2
		c-0.6-0.9-1.6-1.4-2.6-1.3l-44.6-1.5C1012.3,424,1010.6,430.3,1011.7,432.2z"/>
	<path class="st21" d="M1013,428.1l120.7,200.3c0.6,1.1,1.9,1.6,3.1,1.4l53-10.1c2.1-0.4,3.1-2.8,1.9-4.5l-128.2-192.7
		c-0.6-0.9-1.6-1.4-2.6-1.3l-45.4,2.5C1013.2,423.7,1011.9,426.2,1013,428.1z"/>
	<path class="st18" d="M1029,272h-0.4c-0.4,0-0.7-0.3-0.7-0.7v-123c0-0.4,0.3-0.7,0.7-0.7h0.4c0.4,0,0.7,0.3,0.7,0.7v122.9
		C1029.7,271.6,1029.4,272,1029,272z"/>
	<path class="st18" d="M1029,393.3h-0.4c-0.4,0-0.7-0.3-0.7-0.7V312c0-0.4,0.3-0.7,0.7-0.7h0.4c0.4,0,0.7,0.3,0.7,0.7v80.6
		C1029.7,392.9,1029.4,393.3,1029,393.3z"/>
</g>
</svg>
