<svg width="757" height="464" viewBox="0 0 757 464" fill="none" xmlns="http://www.w3.org/2000/svg">
<rect opacity="0.5" x="1" y="1" width="755" height="436" rx="25" stroke="#D5D4D6" stroke-width="1.7" stroke-miterlimit="10" stroke-linecap="round"/>
<path d="M5.0625 457.129C7.14915 457.129 8.34943 455.361 8.34943 452.273C8.34943 449.207 7.13068 447.416 5.0625 447.416C2.99432 447.416 1.77557 449.207 1.77557 452.273C1.77557 455.361 2.97585 457.129 5.0625 457.129ZM5.0625 456.114C3.68679 456.114 2.88352 454.733 2.88352 452.273C2.88352 449.817 3.69602 448.413 5.0625 448.413C6.42898 448.413 7.24148 449.817 7.24148 452.273C7.24148 454.733 6.43821 456.114 5.0625 456.114ZM12.7875 457.129C14.8741 457.129 16.0744 455.361 16.0744 452.273C16.0744 449.207 14.8557 447.416 12.7875 447.416C10.7193 447.416 9.50057 449.207 9.50057 452.273C9.50057 455.361 10.7009 457.129 12.7875 457.129ZM12.7875 456.114C11.4118 456.114 10.6085 454.733 10.6085 452.273C10.6085 449.817 11.421 448.413 12.7875 448.413C14.154 448.413 14.9665 449.817 14.9665 452.273C14.9665 454.733 14.1632 456.114 12.7875 456.114ZM18.2412 457.074C18.6982 457.074 19.0722 456.7 19.0722 456.243C19.0722 455.786 18.6982 455.412 18.2412 455.412C17.7842 455.412 17.4102 455.786 17.4102 456.243C17.4102 456.7 17.7842 457.074 18.2412 457.074ZM18.2412 451.811C18.6982 451.811 19.0722 451.437 19.0722 450.98C19.0722 450.523 18.6982 450.149 18.2412 450.149C17.7842 450.149 17.4102 450.523 17.4102 450.98C17.4102 451.437 17.7842 451.811 18.2412 451.811ZM20.3872 455.061H24.8375V457H25.927V455.061H27.2196V454.045H25.927V447.545H24.542L20.3872 454.119V455.061ZM24.8375 454.045H21.6244V453.972L24.7636 449.004H24.8375V454.045ZM31.6334 457.129C33.72 457.129 34.9203 455.361 34.9203 452.273C34.9203 449.207 33.7016 447.416 31.6334 447.416C29.5652 447.416 28.3465 449.207 28.3465 452.273C28.3465 455.361 29.5468 457.129 31.6334 457.129ZM31.6334 456.114C30.2577 456.114 29.4544 454.733 29.4544 452.273C29.4544 449.817 30.2669 448.413 31.6334 448.413C32.9999 448.413 33.8124 449.817 33.8124 452.273C33.8124 454.733 33.0091 456.114 31.6334 456.114Z" fill="black"/>
<rect x="54" y="13" width="661" height="310" fill="white"/>
<g filter="url(#filter0_d)">
<path d="M433 219.5C433 236.5 427.909 244.055 419.526 253.5C409.725 264.542 395.425 273 379.5 273C363.575 273 349.801 266.042 340 255C331.617 245.555 326 233.122 326 219.5C326 203.575 332.958 190.301 344 180.5C353.445 172.117 365.878 166 379.5 166C395.179 166 405.974 171.5 417 184C428.474 195.5 433 206.827 433 219.5Z" fill="#F7F7F7"/>
<path d="M416.363 184.562L416.38 184.582L416.398 184.6C427.732 195.96 432.15 207.077 432.15 219.5C432.15 227.911 430.891 233.926 428.631 238.986C426.365 244.057 423.069 248.228 418.89 252.936C409.205 263.848 395.12 272.15 379.5 272.15C363.837 272.15 350.288 265.311 340.636 254.436C332.369 245.122 326.85 232.884 326.85 219.5C326.85 203.846 333.682 190.794 344.564 181.136C353.895 172.854 366.135 166.85 379.5 166.85C387.234 166.85 393.722 168.205 399.623 171.077C405.53 173.951 410.899 178.368 416.363 184.562Z" stroke="#60585F" stroke-width="1.7"/>
</g>
<g filter="url(#filter1_d)">
<path d="M388.5 205.5C388.5 205.5 367.5 191 366 192C364.501 193 364.5 204.991 364.5 217.485L364.5 217.5C364.5 230 364.5 242 366 243C367.5 244 375.5 239 387.5 233C399.5 227 409 221 408.8 219.547C408.6 218.094 388.5 205.5 388.5 205.5Z" fill="#F39800"/>
<path d="M388.5 205.5L388.017 206.199L388.033 206.21L388.049 206.22L388.5 205.5ZM388.5 205.5C388.049 206.22 388.049 206.22 388.049 206.22L388.05 206.221L388.052 206.222L388.063 206.229L388.106 206.256L388.273 206.361C388.42 206.454 388.636 206.589 388.91 206.763C389.459 207.109 390.244 207.606 391.187 208.207C393.072 209.409 395.587 211.026 398.107 212.688C400.629 214.351 403.148 216.054 405.045 217.428C405.996 218.116 406.776 218.712 407.32 219.174C407.553 219.372 407.73 219.535 407.854 219.662C407.833 219.688 407.81 219.718 407.783 219.75C407.568 220.006 407.213 220.344 406.705 220.761C405.694 221.589 404.184 222.641 402.271 223.85C398.451 226.262 393.102 229.249 387.12 232.24C383.501 234.049 380.203 235.79 377.359 237.291C375.511 238.267 373.854 239.141 372.427 239.867C370.585 240.804 369.108 241.502 368.011 241.905C367.461 242.107 367.044 242.221 366.747 242.261C366.611 242.28 366.527 242.279 366.481 242.276C366.479 242.274 366.478 242.271 366.476 242.268C366.432 242.19 366.376 242.062 366.314 241.871C366.192 241.487 366.077 240.941 365.974 240.23C365.77 238.814 365.63 236.864 365.537 234.528C365.35 229.862 365.35 223.756 365.35 217.5L365.35 217.486C365.35 211.232 365.35 205.13 365.537 200.466C365.631 198.131 365.77 196.184 365.974 194.768C366.077 194.058 366.192 193.512 366.315 193.129C366.353 193.01 366.389 192.916 366.421 192.843C366.579 192.886 366.793 192.961 367.069 193.077C367.742 193.359 368.652 193.825 369.734 194.429C371.89 195.635 374.637 197.342 377.352 199.09C380.064 200.835 382.731 202.613 384.72 203.955C385.714 204.625 386.539 205.187 387.115 205.581C387.403 205.777 387.629 205.932 387.782 206.038L387.957 206.158L388.002 206.189L388.013 206.197L388.016 206.199L388.017 206.199C388.017 206.199 388.017 206.199 388.5 205.5ZM408.015 219.847C408.022 219.858 408.02 219.857 408.014 219.846C408.014 219.847 408.015 219.847 408.015 219.847ZM407.968 219.486C407.969 219.482 407.97 219.48 407.97 219.48C407.97 219.48 407.969 219.482 407.968 219.486Z" stroke="#60585F" stroke-width="1.7"/>
</g>
<rect x="50" y="450" width="667" height="5" rx="2.5" fill="#F2F2F3"/>
<defs>
<filter id="filter0_d" x="320.464" y="166" width="118.073" height="118.073" filterUnits="userSpaceOnUse" color-interpolation-filters="sRGB">
<feFlood flood-opacity="0" result="BackgroundImageFix"/>
<feColorMatrix in="SourceAlpha" type="matrix" values="0 0 0 0 0 0 0 0 0 0 0 0 0 0 0 0 0 0 127 0"/>
<feOffset dy="5.53649"/>
<feGaussianBlur stdDeviation="2.76825"/>
<feColorMatrix type="matrix" values="0 0 0 0 0 0 0 0 0 0 0 0 0 0 0 0 0 0 0.1 0"/>
<feBlend mode="normal" in2="BackgroundImageFix" result="effect1_dropShadow"/>
<feBlend mode="normal" in="SourceGraphic" in2="effect1_dropShadow" result="shape"/>
</filter>
<filter id="filter1_d" x="358.963" y="191.95" width="55.3762" height="62.2505" filterUnits="userSpaceOnUse" color-interpolation-filters="sRGB">
<feFlood flood-opacity="0" result="BackgroundImageFix"/>
<feColorMatrix in="SourceAlpha" type="matrix" values="0 0 0 0 0 0 0 0 0 0 0 0 0 0 0 0 0 0 127 0"/>
<feOffset dy="5.53649"/>
<feGaussianBlur stdDeviation="2.76825"/>
<feColorMatrix type="matrix" values="0 0 0 0 0 0 0 0 0 0 0 0 0 0 0 0 0 0 0.1 0"/>
<feBlend mode="normal" in2="BackgroundImageFix" result="effect1_dropShadow"/>
<feBlend mode="normal" in="SourceGraphic" in2="effect1_dropShadow" result="shape"/>
</filter>
</defs>
</svg>
