<svg width="460" height="240" viewBox="0 0 460 240" fill="none" xmlns="http://www.w3.org/2000/svg">
<path d="M431.782 240H28.213C12.5732 240 0 231.063 0 219.946V20.0545C0 8.93733 12.5732 0 28.213 0H431.782C447.421 0 459.995 8.93733 459.995 20.0545V219.728C460.301 230.845 447.421 240 431.782 240Z" fill="#F3F5F7"/>
<path d="M346.313 172.931C345.337 133.259 344.286 93.5866 343.31 53.9142C343.235 50.5956 343.01 47.0507 341.058 44.3355C338.206 40.489 332.726 40.1118 327.997 39.961C296.32 39.1313 264.643 38.4525 232.965 38H223.207C191.53 38.4525 159.852 39.0559 128.175 39.961C123.446 40.1118 117.966 40.5644 115.114 44.3355C113.087 46.9753 112.937 50.5202 112.862 53.9142C111.886 93.5866 110.835 133.259 109.859 172.931L182.822 172.177C182.822 172.177 193.256 179.192 196.559 180.172C199.862 181.153 256.01 181.982 256.01 181.982L263.967 177.08L271.924 172.931H346.313Z" fill="#D5D4D6"/>
<path d="M127.858 158.32V58.4989C127.858 57.0697 128.985 55.9414 130.412 55.9414L329.487 54.136C330.914 54.136 332.04 55.2643 332.04 56.6936V156.515C332.04 157.944 330.914 159.073 329.487 159.073L130.412 160.878C128.985 160.953 127.858 159.75 127.858 158.32Z" fill="white"/>
<path d="M346.313 173.914C345.337 134.329 344.286 93.3892 343.31 53.8792C343.235 50.5679 343.01 47.0308 341.058 44.3216C338.206 40.4835 332.726 40.1072 327.997 39.9567C296.32 39.1289 264.643 38.4515 232.965 38H223.207C191.53 38.4515 159.852 39.0536 128.175 39.9567C123.446 40.1072 117.966 40.5587 115.114 44.3216C113.087 46.9556 112.937 50.4927 112.862 53.8792C111.886 93.4645 110.835 134.404 109.859 173.914" stroke="#574E56" stroke-width="1.7" stroke-miterlimit="10"/>
<path d="M130.34 151.96V60.3757C130.34 57.202 132.963 54.6328 136.112 54.5572L326.738 52.8948C329.961 52.8948 332.66 55.464 332.66 58.7132V150.298C332.66 153.471 330.036 156.04 326.888 156.116L136.262 157.778C132.963 157.778 130.34 155.209 130.34 151.96Z" stroke="#574E56" stroke-width="1.7" stroke-miterlimit="10"/>
<path d="M90.8263 186.757C92.4788 191.684 102.319 198.354 108.178 198.429L346.666 201.84C359.06 201.992 369.276 193.2 369.276 182.21V181.982L90 183.65L90.8263 186.757Z" fill="#D5D4D6"/>
<path d="M94.5962 174.62C92.9445 174.695 91.3678 175.596 90.6921 176.872C88.6649 180.852 91.2927 186.258 95.9476 188.886C101.504 191.965 108.636 192.115 115.318 192.115C153.459 192.19 189.647 193.016 227.262 192.115H236.872C274.412 191.139 308.723 192.19 346.863 192.115C353.546 192.115 360.678 191.965 366.234 188.886C366.459 188.736 366.684 188.586 366.91 188.511C373.892 184.006 370.063 174.845 361.204 174.319C343.86 173.343 304.143 171.466 281.469 172.292C277.94 172.442 274.186 172.593 271.033 174.019C268.18 175.296 266.153 177.548 263.225 178.75C260.147 180.026 256.543 179.876 253.089 179.726C245.731 179.425 216.225 179.425 208.792 179.726C205.339 179.876 201.735 180.026 198.656 178.75C195.803 177.623 193.701 175.371 190.848 174.019C187.77 172.517 184.016 172.442 180.412 172.292C154.51 171.241 105.408 173.944 94.5962 174.62Z" fill="#D5D4D6"/>
<path d="M94.5357 175.144C92.8828 175.296 91.3802 176.288 90.704 177.889C88.6755 182.693 91.2299 189.327 95.8129 192.454C101.222 196.19 108.209 196.419 114.821 196.419C152.236 196.495 187.698 197.41 224.587 196.419H233.978C270.717 195.275 304.376 196.495 341.716 196.419C348.327 196.419 355.314 196.19 360.724 192.454C360.949 192.301 361.174 192.149 361.4 191.996C368.237 186.506 364.48 175.296 355.84 174.763C338.861 173.619 299.868 171.255 277.704 172.322C274.248 172.475 270.567 172.704 267.487 174.534C264.707 176.135 262.753 178.804 259.898 180.253C256.893 181.778 253.287 181.625 249.981 181.473C242.693 181.168 213.768 181.168 206.556 181.473C203.175 181.702 199.644 181.778 196.638 180.253C193.783 178.804 191.83 176.135 189.05 174.534C186.045 172.78 182.363 172.551 178.832 172.322C153.288 171.179 105.129 174.381 94.5357 175.144Z" stroke="#574E56" stroke-width="1.7" stroke-miterlimit="10"/>
<path d="M115.445 181.982C112.135 181.982 112.135 186.947 115.445 186.947C118.755 186.867 118.755 181.982 115.445 181.982Z" fill="#574E56"/>
<path d="M125.376 181.982C122.066 181.982 122.066 186.947 125.376 186.947C128.686 186.867 128.686 181.982 125.376 181.982Z" fill="#574E56"/>
<path d="M135.306 181.982C131.996 181.982 131.996 186.947 135.306 186.947C138.616 186.867 138.616 181.982 135.306 181.982Z" fill="#574E56"/>
<ellipse cx="233.951" cy="90.2262" rx="23.7205" ry="22.3717" fill="white"/>
<path d="M228.106 95.8717L227.469 102.517L234.342 109.3C234.342 109.3 239.557 102.734 239.365 102.367C239.174 101.999 238.33 94.706 238.33 94.706L228.106 95.8717Z" fill="white"/>
<path d="M225.579 87.0678C225.579 87.0678 225.387 78.9539 225.384 78.83C225.384 78.83 225.935 76.3384 228.253 76.2848C230.569 76.1694 229.473 76.2566 230.285 77.0435C231.156 77.7671 233.706 79.8152 235.91 77.5333C238.116 75.3134 240.202 75.8229 240.903 77.0462C241.54 78.2089 241.694 79.5688 241.76 82.356C241.826 85.1432 241.868 89.4803 241.868 89.4803C241.868 89.4803 241.566 94.8169 237.331 96.3401C233.095 97.8633 229.105 96.84 227.263 93.7839C226.881 93.111 226.432 92.1918 226.162 91.0826C225.636 89.4834 225.541 88.0602 225.579 87.0678Z" fill="white"/>
<path d="M242.011 82.6597C243.415 82.6892 244.605 83.9632 244.76 85.385C244.986 87.177 243.691 89.19 241.86 89.1703" fill="white"/>
<path d="M225.179 83.0487C223.777 83.1431 222.649 84.4705 222.561 85.8979C222.42 87.6984 223.809 89.6494 225.637 89.5452" fill="white"/>
<path d="M242.176 77.9033C241.584 76.2855 236.632 73.0242 233.08 72.7686C229.585 72.5681 225.496 74.8771 224.071 78.3215C222.726 80.0404 223.88 84.3458 223.88 84.3458L225.928 84.2423C225.881 82.2742 225.829 80.0813 225.827 79.9688C225.827 79.9688 226.327 77.7068 228.431 77.6582C229.705 77.6288 229.539 77.6326 230.276 78.347C231.013 79.0614 233.382 80.8632 235.383 78.7916C237.385 76.7763 239.28 77.2389 239.915 78.3494C240.494 79.405 240.634 80.6395 240.694 83.1698C240.696 83.2823 240.7 83.451 240.703 83.5635L242.75 83.4599C243.252 81.2541 242.769 79.5775 242.176 77.9033Z" fill="#574E56"/>
<path d="M249.023 108.207C246.84 109.59 239.589 112.9 232.667 112.999C225.634 113.101 217.886 109.114 215.694 107.771C215.561 106.865 216.188 104.745 218.09 102.978C221.551 99.7641 225.489 99.7642 227.945 99.7641C228.73 100.17 229.469 100.941 230.833 102.424C231.857 103.552 232.205 103.968 232.667 104.745C233.036 103.948 233.858 103.594 234.661 102.424C235.733 100.884 236.689 99.923 237.452 99.4206C240.251 98.761 243.556 99.7381 244.231 100.147C245.636 101.023 247.362 101.65 247.934 102.424C248.078 103.814 248.881 106.877 249.023 108.207Z" fill="#1E9EB0"/>
<path d="M229.469 95.7505L229.114 99.4719L233.38 104.156L237.862 99.2699L237.332 95.5689" stroke="#4D434B" stroke-width="1.7" stroke-miterlimit="10" stroke-linecap="round"/>
<path d="M229.114 99.4717C229.114 99.4717 222.506 99.8632 220.922 100.8C219.337 101.737 216.884 103.788 216.961 107.05" stroke="#4D434B" stroke-width="1.7" stroke-miterlimit="10" stroke-linecap="round"/>
<path d="M238.139 99.2637C238.139 99.2637 240.964 99.2756 243.578 99.9291C246.192 100.583 247.766 101.048 249.024 103.632C249.678 106.682 249.561 107.473 249.561 107.473" stroke="#4D434B" stroke-width="1.7" stroke-miterlimit="10" stroke-linecap="round"/>
<path d="M223.605 84.3526C223.605 84.3526 222.449 79.9909 223.795 78.3283C225.14 76.6094 226.491 72.8649 232.861 72.8303C237.681 72.8315 241.364 76.2909 241.957 77.965C242.551 79.6392 242.978 81.3171 242.476 83.5229" stroke="#4D434B" stroke-width="1.7" stroke-miterlimit="10" stroke-linecap="round"/>
<path d="M225.73 87.5105C225.73 87.5105 225.556 80.1443 225.553 80.0319C225.553 80.0319 226.054 77.7699 228.158 77.7213C230.26 77.6164 229.265 77.6957 230.002 78.4101C230.793 79.0669 233.109 80.9263 235.109 78.8547C237.11 76.7831 239.006 77.3019 239.642 78.4125C240.22 79.4681 240.36 80.7026 240.42 83.2329C240.48 85.7633 240.518 89.7007 240.518 89.7007C240.518 89.7007 240.244 94.5454 236.399 95.9282C232.554 97.3111 228.931 96.382 227.259 93.6076C226.912 92.9967 226.504 92.1622 226.259 91.1552C225.782 89.7035 225.696 88.4114 225.73 87.5105Z" stroke="#4D434B" stroke-width="1.7" stroke-miterlimit="10" stroke-linecap="round"/>
<path d="M241.37 83.5651C242.644 83.592 243.724 84.7485 243.866 86.0392C244.07 87.6661 242.895 89.4936 241.232 89.4757" stroke="#4D434B" stroke-width="1.7" stroke-miterlimit="10" stroke-linecap="round"/>
<path d="M224.916 84.1944C223.644 84.28 222.62 85.4851 222.54 86.781C222.412 88.4155 223.673 90.1867 225.333 90.0921" stroke="#4D434B" stroke-width="1.7" stroke-miterlimit="10" stroke-linecap="round"/>
<path d="M247.845 109.006L247.845 109.006C240.751 112.534 232.754 113.429 225.867 111.8C218.987 110.172 213.262 106.044 210.565 99.5496C205.14 86.4857 213.581 70.6256 229.463 68.4629C236.167 67.5503 241.75 68.4882 244.418 69.9767L244.44 69.989L244.462 69.9999C254.179 74.6907 257.898 82.9949 257.755 90.864C257.612 98.8033 253.55 106.172 247.845 109.006Z" stroke="#574E56" stroke-width="1.7"/>
<ellipse cx="169.966" cy="92.9992" rx="25.2177" ry="23.8048" fill="white"/>
<path d="M155.885 103.446C155.35 102.237 154.693 99.1384 156.344 96.4178C158.407 93.0171 159.553 91.6569 159.095 88.0295C158.636 84.4021 159.095 80.7746 160.241 79.4144C161.387 78.0541 164.138 75.5603 165.743 75.1068C167.348 74.6534 169.182 73.7466 171.474 74.4267L171.474 74.4267C173.767 75.1069 176.059 75.787 176.976 77.3739C177.893 78.9609 179.498 79.6411 179.727 81.4548C179.957 83.2685 179.04 87.8027 179.727 89.163C180.415 90.5233 181.561 94.1507 182.708 95.9644C183.854 97.7781 184.312 100.045 184.312 101.405C184.312 102.494 183.854 103.673 183.625 104.126C182.555 103.748 179.911 102.992 177.893 102.992C175.372 102.992 173.767 102.312 173.538 100.499C173.354 99.0477 173.461 97.4758 173.538 96.8712C174.837 95.9644 177.389 93.1531 177.206 89.163C177.092 86.6882 177.09 85.7135 177.123 85.4382L172.391 79.8678C170.328 82.1349 165.33 87.0772 161.846 88.7096C161.769 90.3721 162.212 94.1507 164.597 95.9644C166.981 97.7781 166.354 97.3246 165.743 96.8712V100.499C165.743 101.028 165.514 102.131 164.597 102.312C163.68 102.494 158.407 103.144 155.885 103.446Z" fill="#F39800"/>
<path d="M176.418 115.066L185.725 108.806C185.725 105.831 183.433 103.345 180.407 102.99L174.905 102.324C174.125 102.235 173.575 101.614 173.575 100.859V97.0408H166.01V100.859C166.01 101.614 165.46 102.235 164.68 102.324L159.178 102.99C156.152 103.345 153.859 105.876 153.859 108.806V110.893L176.418 115.066Z" fill="white"/>
<path d="M163.042 102.152L159.236 102.596C156.21 102.951 153.917 105.481 153.917 108.412L153.78 112.291C155.11 113.046 156.806 113.889 158.869 114.511C160.336 114.955 161.712 115.266 162.858 115.443C162.904 110.648 163.042 106.946 163.042 102.152Z" fill="#009EB1"/>
<path d="M180.189 103.484L176.384 103.04V115.471C176.384 115.471 186.792 112.896 186.012 111.919C185.095 110.676 185.783 103.262 180.189 103.484Z" fill="#009EB1"/>
<path d="M175.731 102.591L169.816 112.491L163.901 102.591L162.984 102.679V116.309C165.093 116.709 168.303 117.064 172.017 116.354C173.805 115.998 175.364 115.51 176.602 114.977C176.602 111.026 176.602 107.119 176.602 103.168L175.731 102.591Z" fill="white"/>
<path d="M173.575 99.971V97.0408H166.01V99.971C168.302 101.436 171.283 101.436 173.575 99.971Z" fill="white"/>
<path d="M178.114 86.0304L177.793 91.1361C177.518 95.265 173.987 98.506 169.723 98.506C165.505 98.506 161.974 95.3538 161.653 91.2693L161.47 88.9606C161.47 88.9606 169.035 84.5653 172.841 79.4153C172.841 79.4153 175.088 83.855 178.114 86.0304Z" fill="white"/>
<path d="M164.313 87.1404C162.662 88.2947 161.47 88.9607 161.47 88.9607L161.653 91.2693C161.883 94.0663 163.625 96.5525 166.238 97.7513C164.725 94.4215 164.038 90.7809 164.313 87.1404Z" fill="white"/>
<path d="M153.208 110.317C153.208 110.317 153.081 107.785 154.364 106.142C154.364 106.142 155.327 103.701 157.757 103.257C160.187 102.813 164.452 102.813 165.048 102.102C165.689 101.436 165.965 98.5505 165.827 97.6626" stroke="#60585F" stroke-width="1.7" stroke-miterlimit="10" stroke-linecap="round"/>
<path d="M185.395 110.764C185.258 109.565 185.13 106.586 184.763 106.187C184.763 106.187 183.8 103.745 181.37 103.301C178.94 102.857 174.676 102.857 174.08 102.147C173.438 101.481 173.163 98.595 173.3 97.707" stroke="#60585F" stroke-width="1.7" stroke-miterlimit="10" stroke-linecap="round"/>
<path d="M155.969 103.346C155.969 103.346 153.63 99.6606 156.886 95.3985C160.141 91.1364 158.811 87.2294 158.857 85.3204C158.903 83.3669 158.995 80.3035 161.242 78.3057C163.488 76.3078 165.735 74.6651 168.073 74.3099C170.412 73.9547 173.667 74.2655 175.639 76.1746C177.61 78.0837 179.719 79.5932 179.811 82.5678C179.903 85.5424 179.811 86.3415 179.811 86.3415" stroke="#60585F" stroke-width="1.7" stroke-miterlimit="10" stroke-linecap="round"/>
<path d="M183.341 104.233C183.341 104.233 184.992 102.013 183.341 97.7513C182.012 94.3771 179.365 92.3844 179.823 86.6128" stroke="#60585F" stroke-width="1.7" stroke-miterlimit="10" stroke-linecap="round"/>
<path d="M174.983 83.1403C175.927 84.1997 176.443 85.3438 177.301 86.0642C176.786 89.751 177.73 97.7601 169.446 97.7601C161.162 97.7601 161.72 88.6492 161.72 88.6492C163.093 87.8017 164.553 86.8694 166.055 85.6828C168.716 83.6064 170.82 81.4876 172.408 79.623C173.052 80.6825 173.91 81.9114 174.983 83.1403Z" stroke="#60585F" stroke-width="1.7" stroke-miterlimit="10" stroke-linecap="round"/>
<path d="M163.626 102.724L169.587 112.447L175.41 102.591" stroke="#60585F" stroke-width="1.7" stroke-miterlimit="10" stroke-linecap="round"/>
<path d="M176.419 102.99V114.889" stroke="#60585F" stroke-width="1.7" stroke-miterlimit="10" stroke-linecap="round"/>
<path d="M162.8 102.857V114.34" stroke="#60585F" stroke-width="1.7" stroke-miterlimit="10" stroke-linecap="round"/>
<path d="M184.906 112.355L184.906 112.356C177.494 116.042 169.138 116.977 161.94 115.275C154.75 113.574 148.764 109.258 145.943 102.466C140.27 88.8069 149.097 72.2275 165.698 69.9668C172.699 69.0137 178.536 69.992 181.33 71.5513L181.352 71.5635L181.375 71.5745C191.531 76.4775 195.42 85.1596 195.271 93.3864C195.121 101.683 190.877 109.39 184.906 112.355Z" stroke="#574E56" stroke-width="1.7"/>
<path d="M294.381 66.6529C289.417 66.4377 284.554 68.1937 280.334 70.477C276.522 72.5349 272.869 75.1282 270.894 78.6123C268.762 82.2871 268.667 86.5493 269.108 90.6188C269.537 94.4874 270.467 98.2864 272.37 101.807C274.273 105.327 277.248 108.462 281.14 110.415C285.248 112.455 290.132 113.078 294.902 112.881C296.54 112.806 298.196 112.669 299.769 112.214C302.42 111.475 304.665 109.972 306.648 108.303C309.375 106.067 311.826 103.463 313.349 100.489C314.871 97.5155 315.097 94.0123 315.003 90.7899C314.875 86.339 314.522 85.3912 313.674 83.2619C312.508 80.4247 311.757 77.8257 309.934 75.2488C304.217 67.2904 294.381 66.6529 294.381 66.6529Z" fill="white"/>
<path d="M272.941 101.492C276.097 96.9905 279.365 96.0134 279.879 96.1448C280.48 96.3317 280.593 96.7891 282.32 100.199C283.331 102.238 284.373 104.78 284.373 104.78L285.024 105.771C285.787 106.856 286.097 107.1 287.204 108.307C288.697 109.975 290.131 111.364 291.483 112.435C291.226 112.369 289.093 112.978 288.644 112.863C286.7 112.431 282.194 111.443 278.245 108.223C276.87 107.113 274.675 105.002 272.941 101.492Z" fill="#D5D4D6"/>
<path d="M312.856 101.385C312.856 101.385 305.823 97.0137 304.715 96.7958C303.565 96.6006 299.386 104.994 299.386 104.994L292.486 112.659C292.486 112.659 303.856 113.227 312.856 101.385Z" fill="#D5D4D6"/>
<path d="M280.318 95.0699C281.492 97.0189 283.142 99.848 284.112 101.91C284.547 102.812 284.941 103.738 285.475 104.534C285.938 105.213 286.483 105.847 287.028 106.481C288.545 108.188 290.086 109.934 291.603 111.641C293.713 110.005 296.364 107.551 298.876 104.237C301.348 100.946 302.923 97.7879 303.911 95.37C302.825 95.1911 301.757 94.9508 300.672 94.7719C298.95 102.014 297.428 103.636 296.29 103.641C294.798 103.688 293.842 100.839 292 101.027C290.303 101.186 289.822 103.635 288.655 103.501C287.593 103.361 287.538 101.105 285.959 98.3927C284.926 96.6776 283.738 95.5162 282.872 94.8001C282.056 94.888 281.199 94.9984 280.318 95.0699Z" fill="white"/>
<path d="M294.381 66.653C289.417 66.4378 283.651 67.3755 279.431 69.6588C275.619 71.7167 272.869 75.1283 270.894 78.6124C268.762 82.2872 268.667 86.5494 269.108 90.619C269.537 94.4875 270.467 98.2865 272.37 101.807C274.273 105.327 277.248 108.463 281.14 110.415C285.248 112.455 290.132 113.078 294.902 112.881C296.54 112.806 298.196 112.669 299.769 112.214C302.42 111.475 304.665 109.972 306.648 108.303C309.375 106.067 311.826 103.463 313.349 100.489C314.871 97.5156 315.097 94.0124 315.003 90.7901C314.875 86.3391 314.522 85.3914 313.674 83.262C312.508 80.4249 311.757 77.8258 309.934 75.2489C304.217 67.2905 294.381 66.653 294.381 66.653Z" stroke="#574E57" stroke-width="1.7" stroke-miterlimit="10"/>
<path d="M284.116 86.5768C284.005 84.4809 283.93 82.3651 284.437 80.3401C284.981 78.2951 286.199 76.3355 288.112 75.3689C289.823 74.4675 291.889 74.4719 293.852 74.6248C295.424 74.7648 297.021 75.0281 298.23 75.9198C300.1 77.2719 300.732 79.6759 300.983 81.9241C301.356 85.2519 301.158 88.6665 300.449 91.9504C300.121 93.5552 299.607 95.1709 298.571 96.4784C296.931 98.5338 294.029 99.4511 291.416 99.0154C288.803 98.5796 286.478 96.7908 285.223 94.5478C283.968 92.3047 284.224 89.2253 284.116 86.5768Z" fill="white" stroke="#574E57" stroke-width="1.7" stroke-miterlimit="10"/>
<path d="M285.359 94.9526C285.784 96.3803 287.128 100.968 287.699 102.367C287.846 102.701 287.993 103.035 288.239 103.263C288.485 103.491 288.876 103.69 289.226 103.549C289.493 103.452 289.65 103.262 289.871 103.087C290.307 102.638 290.76 102.128 291.196 101.679C291.352 101.488 291.533 101.336 291.719 101.285C291.865 101.257 291.97 101.25 292.098 101.283C293.505 101.544 294.309 102.97 295.513 103.707C295.625 103.801 295.776 103.873 295.922 103.845C296.091 103.855 296.272 103.703 296.347 103.558C297.474 102.362 298.969 98.2043 298.969 95.5919" stroke="#574E57" stroke-width="1.7" stroke-miterlimit="10"/>
<path d="M284.491 93.9935C283.374 94.6638 280.466 95.7675 279.202 96.1034C278.497 96.2857 277.321 97.04 276.734 97.4172C276.408 97.5976 276.17 97.8334 275.931 98.0692C275.193 98.7376 273.28 100.16 272.542 100.829" stroke="#574E57" stroke-width="1.7" stroke-miterlimit="10"/>
<path d="M280.403 96.114C281.577 98.063 283.227 100.892 284.197 102.954C284.632 103.857 285.026 104.782 285.56 105.578C286.023 106.257 286.568 106.891 287.113 107.525C288.63 109.232 289.951 110.41 291.468 112.117C295.974 106.973 301.876 103.356 303.996 96.4142" stroke="#574E57" stroke-width="1.7" stroke-miterlimit="10"/>
<path d="M300.476 94.3132C301.176 94.3935 302.947 95.1236 303.479 95.5566C303.877 95.8562 304.193 96.2009 304.591 96.5005C306.229 97.7769 311.701 99.7378 312.856 101.385" stroke="#574E57" stroke-width="1.7" stroke-miterlimit="10"/>
<path d="M218.042 143.702L217.855 127.008C217.855 125.982 218.695 125.143 219.814 125.143L246.627 124.816C247.699 124.816 248.585 125.609 248.632 126.635L248.818 143.329C248.818 144.354 247.979 145.194 246.86 145.194L220.047 145.52C218.975 145.52 218.042 144.727 218.042 143.702Z" fill="white"/>
<path d="M221.401 145.986L221.214 129.293C221.214 128.267 222.054 127.427 223.079 127.427L249.006 127.101C250.079 127.101 250.918 127.894 250.918 128.92L251.104 145.613C251.104 146.639 250.265 147.479 249.239 147.479L223.313 147.805C222.287 147.805 221.447 147.012 221.401 145.986Z" fill="#009EB1"/>
<path d="M217.857 125.562C217.811 125.562 217.811 125.562 217.811 125.609L217.95 142.07C217.95 143.562 218.09 144.261 218.603 144.727C219.349 145.427 220.329 145.427 220.515 145.427C229.142 145.52 237.815 145.66 246.442 145.753C246.628 145.753 247.468 145.66 248.12 144.961C248.913 144.075 248.727 143.002 248.68 142.862V125.376C248.68 125.329 248.633 125.329 248.633 125.329L233.385 137.64C233.245 137.779 233.012 137.779 232.826 137.64L217.857 125.562Z" stroke="#5A4D56" stroke-width="1.7" stroke-miterlimit="10"/>
<path d="M248.633 125.235C243.783 124.956 238.56 124.816 233.105 124.862C227.742 124.909 222.659 125.189 217.856 125.562" stroke="#5A4D56" stroke-width="1.7" stroke-miterlimit="10"/>
<path d="M154.015 144.189L153.828 127.496C153.828 126.47 154.667 125.63 155.786 125.63L182.599 125.304C183.672 125.304 184.558 126.097 184.604 127.123L184.791 143.816C184.791 144.842 183.951 145.682 182.832 145.682L156.02 146.008C154.947 146.008 154.061 145.215 154.015 144.189Z" fill="white"/>
<path d="M156.206 146.474L156.019 129.78C156.019 128.754 156.812 127.915 157.791 127.915L182.459 127.589C183.438 127.589 184.277 128.381 184.277 129.407L184.464 146.101C184.464 147.127 183.671 147.966 182.692 147.966L158.024 148.293C157.045 148.293 156.252 147.453 156.206 146.474Z" fill="#D5D4D6"/>
<path d="M153.828 126.05C153.781 126.05 153.781 126.05 153.781 126.096L153.921 142.51C153.921 144.003 154.061 144.702 154.574 145.168C155.32 145.868 156.299 145.868 156.486 145.868C165.112 145.961 173.786 146.101 182.412 146.194C182.599 146.194 183.438 146.101 184.091 145.402C184.884 144.516 184.697 143.443 184.651 143.303V125.817C184.651 125.77 184.604 125.77 184.604 125.77L169.356 138.127C169.216 138.267 168.983 138.267 168.796 138.127L153.828 126.05Z" stroke="#5A4D56" stroke-width="1.7" stroke-miterlimit="10"/>
<path d="M184.604 125.677C179.755 125.397 174.532 125.257 169.076 125.304C163.714 125.351 158.631 125.63 153.828 126.003" stroke="#5A4D56" stroke-width="1.7" stroke-miterlimit="10"/>
<path d="M273.272 145.618L273.086 128.924C273.086 127.898 273.925 127.059 275.044 127.059L301.857 126.732C302.929 126.732 303.815 127.525 303.862 128.551L304.049 145.245C304.049 146.27 303.209 147.11 302.09 147.11L275.278 147.436C274.158 147.436 273.272 146.643 273.272 145.618Z" fill="white"/>
<path d="M275.464 147.903L275.277 131.209C275.277 130.183 276.07 129.344 277.049 129.344L301.717 129.017C302.696 129.017 303.535 129.81 303.535 130.836L303.722 147.529C303.722 148.555 302.929 149.395 301.95 149.395L277.282 149.721C276.303 149.721 275.464 148.928 275.464 147.903Z" fill="#FF9800"/>
<path d="M273.039 127.478C272.992 127.478 272.992 127.478 272.992 127.525L273.132 143.986C273.132 145.478 273.272 146.177 273.785 146.643C274.531 147.343 275.51 147.343 275.697 147.343C284.323 147.436 292.997 147.576 301.623 147.669C301.81 147.669 302.649 147.576 303.302 146.877C304.095 145.991 303.908 144.918 303.862 144.778V127.292C303.862 127.245 303.815 127.245 303.815 127.245L288.567 139.695C288.427 139.835 288.194 139.835 288.007 139.695L273.039 127.478Z" stroke="#5A4D56" stroke-width="1.7" stroke-miterlimit="10"/>
<path d="M303.814 127.151C298.965 126.871 293.742 126.731 288.286 126.778C282.924 126.824 277.841 127.104 273.038 127.477" stroke="#5A4D56" stroke-width="1.7" stroke-miterlimit="10"/>
<path d="M286.97 82.6153C288.342 80.8815 289.423 82.2562 291.935 77.9632L292.725 73.7126C292.737 73.6482 292.682 73.5901 292.617 73.5952C280.822 74.5287 279.84 84.8012 280.829 89.8393L285.615 88.2139C285.495 87.0701 285.597 84.3491 286.97 82.6153Z" fill="#C4C4C4" stroke="#574E57" stroke-width="1.7" stroke-miterlimit="10"/>
<path d="M298.039 82.6153C296.667 80.8815 295.585 82.2562 293.073 77.9632L292.283 73.7126C292.271 73.6482 292.327 73.5901 292.392 73.5952C304.187 74.5287 305.169 84.8012 304.179 89.8393L299.393 88.2139C299.514 87.0701 299.412 84.3491 298.039 82.6153Z" fill="#C4C4C4" stroke="#574E57" stroke-width="1.7" stroke-miterlimit="10"/>
</svg>
