<svg width="460" height="240" viewBox="0 0 460 240" fill="none" xmlns="http://www.w3.org/2000/svg">
<path d="M431.782 240H28.213C12.5732 240 0 231.063 0 219.946V20.0545C0 8.93733 12.5732 0 28.213 0H431.782C447.421 0 459.995 8.93733 459.995 20.0545V219.728C460.301 230.845 447.421 240 431.782 240Z" fill="#FFC476"/>
<path d="M204.616 197.71C189.107 197.368 176.715 184.864 176.719 169.363C176.728 132.978 177.765 85.8766 179.616 59.0242C179.922 54.5993 181.509 50.9116 184.075 48.2689C186.638 45.6291 190.227 43.9804 194.636 43.7146C211.344 42.7069 239.187 42.0894 260.647 43.0849C273.77 43.6937 283.329 54.44 283.52 67.6595C284.013 101.786 282.771 144.925 281.934 172.56C281.496 187.05 270.557 198.439 256.133 198.426C240.331 198.412 220.553 198.061 204.616 197.71Z" stroke="#574E56" stroke-width="1.7"/>
<path d="M204.598 198.559C188.633 198.208 175.865 185.332 175.869 169.363C175.878 132.971 176.915 85.8468 178.768 58.9657C179.402 49.7732 185.387 43.4208 194.584 42.8661C211.316 41.857 239.19 41.2386 260.687 42.2358C274.3 42.8673 284.173 54.0209 284.37 67.6472C284.864 101.796 283.62 144.954 282.784 172.586C282.333 187.499 271.052 199.289 256.132 199.276C240.321 199.262 220.536 198.91 204.598 198.559Z" fill="#EAFCFF"/>
<path d="M255.917 136.329L202.995 135.843C199.174 135.747 196.117 133.462 196.287 130.665L196.548 127.112C196.718 124.315 199.993 122.014 203.977 122.136L256.839 123.126C260.659 123.222 263.717 125.508 263.547 128.304L263.286 131.857C263.116 134.654 259.901 136.452 255.917 136.329Z" fill="white"/>
<path d="M258.756 136.269L199.828 135.851C196.171 135.781 193.277 133.522 193.416 130.977L193.635 126.39C193.805 123.593 196.887 121.518 200.707 121.614C205.508 121.867 244.233 122.655 249.555 122.734C252.722 122.726 255.888 122.718 258.728 122.657C259.218 122.736 261.537 122.849 263.377 124.17C264.594 125.134 265.29 126.272 265.139 127.531L264.95 131.866C264.781 134.663 262.413 136.339 258.756 136.269Z" stroke="#574E56" stroke-width="1.7" stroke-miterlimit="10"/>
<path d="M201.223 124.984L200.065 124.962L199.59 132.813L200.749 132.834L201.223 124.984Z" fill="#574E56"/>
<path d="M256.384 156.876L203.462 156.389C199.641 156.293 196.584 154.008 196.754 151.211L197.015 147.659C197.185 144.862 200.46 142.56 204.444 142.683L257.306 143.673C261.127 143.769 264.184 146.054 264.014 148.851L263.753 152.404C263.583 155.201 260.368 156.998 256.384 156.876Z" fill="white"/>
<path d="M259.223 156.815L200.294 156.397C196.637 156.327 193.743 154.068 193.883 151.523L194.101 146.937C194.271 144.14 197.353 142.064 201.174 142.161C205.975 142.413 244.7 143.202 250.021 143.281C253.188 143.272 256.355 143.264 259.194 143.204C259.685 143.282 262.003 143.396 263.844 144.716C265.061 145.681 265.757 146.819 265.605 148.078L265.417 152.413C265.247 155.209 262.88 156.886 259.223 156.815Z" stroke="#574E56" stroke-width="1.7" stroke-miterlimit="10"/>
<path d="M257.714 178.569L202.164 177.663C198.153 177.536 194.931 175.225 195.092 172.427L195.345 168.873C195.507 166.074 198.931 163.797 203.113 163.951L258.603 165.361C262.614 165.487 265.836 167.798 265.675 170.597L265.422 174.151C265.261 176.949 261.897 178.723 257.714 178.569Z" fill="#009EB0"/>
<path d="M259.223 178.296L200.294 177.878C196.637 177.808 193.743 175.549 193.883 173.004L194.101 168.418C194.271 165.621 197.353 163.545 201.174 163.641C205.975 163.894 244.7 164.682 250.021 164.761C253.188 164.753 256.355 164.745 259.194 164.685C259.685 164.763 262.003 164.876 263.844 166.197C265.061 167.161 265.757 168.299 265.605 169.559L265.417 173.893C265.247 176.69 262.88 178.366 259.223 178.296Z" stroke="#574E56" stroke-width="1.7" stroke-miterlimit="10"/>
<path d="M247.624 169.026C247.624 169.026 237.056 173.549 234.228 174.83C231.4 176.112 229.502 174.491 231.288 172.493C233.074 170.533 224.403 172.305 222.245 173.699C220.087 175.094 220.273 173.775 221.947 170.91C223.622 168.046 212.681 173.624 211.602 173.85C210.523 174.039 211.528 172.493 211.528 172.493" stroke="white" stroke-width="1.7" stroke-miterlimit="10" stroke-linecap="round"/>
<path d="M230.535 61.0271C238.465 68.9569 254.409 81.4882 254.751 81.8295V101.459L206.639 102.205V81.8295L230.535 61.0271Z" fill="#FBB23E"/>
<path d="M230.483 61.0271C236.318 66.8623 246.331 75.8939 251.469 80.258C253.188 81.7181 254.644 84.6534 254.577 86.9078L254.059 104.446L207.333 104.872V82.7897L230.483 61.0271Z" stroke="#574E56" stroke-width="1.7"/>
<path d="M221.891 71.3128C218.734 70.4593 212.112 70.9572 209.197 71.3128C209.197 72.4151 209.325 75.3666 209.837 78.3536C210.349 81.3406 210.05 93.3953 209.837 99.0493C223.74 98.4093 251.548 96.9158 251.548 96.0623V71.3128H243.974C241.52 71.3128 225.838 72.3796 221.891 71.3128Z" fill="white"/>
<path d="M222.268 71.3128C218.997 71.3129 212.489 70.9572 209.573 71.3128C209.573 72.4152 209.701 75.3666 210.213 78.3536C210.725 81.3406 210.427 93.3954 210.213 99.0494C224.117 98.4093 251.925 96.9158 251.925 96.0624V71.3128H244.351H222.268Z" stroke="#574E56" stroke-width="1.7"/>
<path d="M239.387 89.2974C236.229 90.8336 216.166 101.245 206.53 106.259C214.04 106.771 241.805 106.473 254.749 106.259V82.0432C250.944 83.8212 242.545 87.7612 239.387 89.2974Z" fill="#FBB23E"/>
<path d="M206.317 106.366L230.319 93.8848L218.371 87.9108L206.529 82.0435C206.529 82.0435 205.996 94.3116 206.21 97.0852C206.423 99.8589 206.317 106.366 206.317 106.366Z" fill="#FBB23E"/>
<path d="M240.297 89.1905C237.169 90.7123 215.349 101.85 207.265 107.432C207.187 107.485 207.214 107.6 207.308 107.605C215.2 108.06 242.865 106.363 255.659 106.152V85.0784C255.659 83.6148 254.141 82.6462 252.815 83.2674C248.622 85.2328 242.806 87.9701 240.297 89.1905Z" stroke="#574E56" stroke-width="1.7"/>
<path d="M207.038 106.404L230.747 93.9908L218.798 88.0168L208.34 82.8348C207.691 82.5129 206.927 82.9635 206.902 83.688C206.811 86.3839 206.638 92.1542 206.637 97.1912C206.637 104.035 207.038 106.404 207.038 106.404Z" stroke="#574E56" stroke-width="1.7"/>
<circle cx="280.863" cy="45.2123" r="14.2123" fill="#D4E6FF"/>
<path d="M286.085 40.6123C286.417 40.2803 286.417 39.7421 286.085 39.4102C285.753 39.0782 285.215 39.0782 284.883 39.4102L286.085 40.6123ZM275.606 48.6867C275.274 49.0187 275.274 49.5569 275.606 49.8888C275.938 50.2208 276.477 50.2208 276.808 49.8888L275.606 48.6867ZM284.883 39.4102L279.875 44.4186L281.077 45.6207L286.085 40.6123L284.883 39.4102ZM279.875 44.4186L275.606 48.6867L276.808 49.8888L281.077 45.6207L279.875 44.4186Z" fill="#574E56"/>
<path d="M284.611 50.1618C284.943 50.4938 285.481 50.4938 285.813 50.1618C286.145 49.8299 286.145 49.2917 285.813 48.9598L284.611 50.1618ZM276.537 39.6832C276.205 39.3512 275.667 39.3512 275.335 39.6832C275.003 40.0151 275.003 40.5533 275.335 40.8853L276.537 39.6832ZM285.813 48.9598L280.805 43.9513L279.603 45.1534L284.611 50.1618L285.813 48.9598ZM280.805 43.9513L276.537 39.6832L275.335 40.8853L279.603 45.1534L280.805 43.9513Z" fill="#574E56"/>
<path d="M324.894 108.915L346.36 130.382L324.894 151.849" stroke="white"/>
<path d="M135.467 151.849L114 130.382L135.467 108.915" stroke="white"/>
</svg>
