<svg width="460" height="240" viewBox="0 0 460 240" fill="none" xmlns="http://www.w3.org/2000/svg">
<path d="M431.782 240H28.213C12.5732 240 0 231.063 0 219.946V20.0545C0 8.93733 12.5732 0 28.213 0H431.782C447.421 0 459.995 8.93733 459.995 20.0545V219.728C460.301 230.845 447.421 240 431.782 240Z" fill="#D4E6FF"/>
<path d="M173.698 149.507C170.954 154.111 172.721 155.726 173.948 155.959C178.321 155.768 180.315 154.69 181.488 151.344C182.661 147.998 184.923 143.839 185.913 141.359C186.669 139.463 195.804 140.06 200.425 140.659C200.804 140.708 201.113 140.974 201.235 141.336C202.292 144.468 204.261 149.004 205.167 151.344C206.374 154.459 209.726 155.729 212.925 154.254C216.125 152.779 213.712 152.143 212.741 149.505C211.77 146.867 210.319 143.031 209.056 138.457C207.793 133.882 205.211 128.877 203.053 123.611C200.895 118.344 198.727 112.834 196.701 110.974C194.675 109.113 192.743 109.685 190.849 111.23C188.954 112.774 185.581 120.963 184.196 124.436C182.81 127.908 177.128 143.752 173.698 149.507Z" fill="white" stroke="#574E56" stroke-width="1.7" stroke-miterlimit="10"/>
<path d="M194.263 121.581C193.449 121.088 190.746 128.162 189.421 132.198C189.279 132.629 189.451 133.114 189.879 133.273C192.264 134.159 196.004 133.114 197.487 133.271C199.038 133.271 198.117 133.338 197.726 130.73C197.336 128.121 195.346 122.236 194.263 121.581Z" fill="#D4E6FF" stroke="#574E56" stroke-width="1.7" stroke-miterlimit="10"/>
<path d="M254.746 114.141V153.319C254.746 154.423 255.644 155.319 256.749 155.326C272.843 155.427 283.278 156.51 284.296 146.228C285.393 135.138 278.829 130.894 267.649 131.01C267.528 131.011 267.503 130.831 267.622 130.805C270.961 130.072 277.895 128.166 277.895 121.386C277.895 116.259 277.895 110.107 259.257 110.107C258.441 110.138 257.579 110.363 256.811 110.659C255.417 111.196 254.746 112.647 254.746 114.141Z" fill="white"/>
<path d="M256.811 110.659L256.505 109.866V109.866L256.811 110.659ZM259.257 110.107L259.257 109.257L259.241 109.257L259.225 109.257L259.257 110.107ZM267.622 130.805L267.804 131.635H267.804L267.622 130.805ZM267.649 131.01L267.658 131.86H267.658L267.649 131.01ZM284.296 146.228L285.141 146.312L284.296 146.228ZM256.749 155.326L256.754 154.476L256.749 155.326ZM255.596 153.319V114.141H253.896V153.319H255.596ZM257.117 111.452C257.829 111.177 258.596 110.983 259.29 110.956L259.225 109.257C258.286 109.293 257.328 109.548 256.505 109.866L257.117 111.452ZM259.257 110.957C268.545 110.957 272.909 112.503 274.984 114.444C277.01 116.339 277.045 118.775 277.045 121.386H278.745C278.745 118.869 278.78 115.666 276.146 113.203C273.562 110.786 268.607 109.257 259.257 109.257L259.257 110.957ZM277.045 121.386C277.045 124.421 275.519 126.353 273.543 127.653C271.531 128.977 269.095 129.612 267.44 129.975L267.804 131.635C269.488 131.266 272.188 130.58 274.478 129.073C276.804 127.542 278.745 125.13 278.745 121.386H277.045ZM267.658 131.86C273.172 131.802 277.36 132.829 280.03 135.068C282.65 137.265 283.981 140.78 283.45 146.145L285.141 146.312C285.708 140.587 284.305 136.435 281.122 133.765C277.99 131.139 273.306 130.101 267.641 130.16L267.658 131.86ZM283.45 146.145C283.21 148.564 282.43 150.221 281.231 151.394C280.018 152.581 278.29 153.356 276.001 153.839C271.37 154.816 264.88 154.527 256.754 154.476L256.744 156.176C264.712 156.226 271.487 156.529 276.352 155.502C278.81 154.983 280.888 154.108 282.42 152.609C283.967 151.096 284.872 149.033 285.141 146.312L283.45 146.145ZM267.44 129.975C266.858 130.102 266.65 130.642 266.703 131.032C266.755 131.415 267.084 131.865 267.658 131.86L267.641 130.16C268.093 130.155 268.349 130.516 268.388 130.804C268.407 130.949 268.386 131.125 268.284 131.291C268.174 131.472 267.996 131.593 267.804 131.635L267.44 129.975ZM255.596 114.141C255.596 112.859 256.164 111.819 257.117 111.452L256.505 109.866C254.67 110.573 253.896 112.435 253.896 114.141H255.596ZM253.896 153.319C253.896 154.896 255.177 156.166 256.744 156.176L256.754 154.476C256.112 154.472 255.596 153.951 255.596 153.319H253.896Z" fill="#574E56"/>
<path d="M264.583 149.034L264.283 136.305C264.282 136.241 264.339 136.186 264.401 136.193C268.375 136.615 275.296 138.281 275.762 142.169C276.62 149.314 267.907 149.125 264.67 149.121C264.62 149.121 264.584 149.084 264.583 149.034Z" fill="#D4E6FF" stroke="#574E56" stroke-width="1.7"/>
<path d="M264.29 124.927L264.29 115.925C264.29 115.863 264.35 115.81 264.412 115.817C268.77 116.259 271.195 116.934 271.195 120.082C271.195 124.615 267.235 124.281 264.408 125.013C264.346 125.029 264.29 124.988 264.29 124.927Z" fill="#D4E6FF" stroke="#574E56" stroke-width="1.7"/>
<path d="M218.704 163.617L238.58 115.757C244.965 99.3754 245.869 97.137 250.063 99.8808C251.367 102.33 227.379 163.11 223.682 165.811C220.724 167.972 219.028 164.947 218.704 163.617Z" fill="white" stroke="#574E56" stroke-width="1.7" stroke-miterlimit="10"/>
<path d="M310 84.6235C310 78.5484 314.925 73.6235 321 73.6235H395.117C401.192 73.6235 406.117 78.5484 406.117 84.6235V187.731C406.117 193.806 401.192 198.731 395.117 198.731H321C314.925 198.731 310 193.806 310 187.731V84.6235Z" fill="white"/>
<path d="M322.388 156.684C324.05 156.673 349.478 155.614 352.393 155.958" stroke="#D4E6FF" stroke-width="1.7" stroke-miterlimit="10" stroke-linecap="round"/>
<path d="M360.51 156.684C362.172 156.673 387.6 155.614 390.515 155.958" stroke="#D4E6FF" stroke-width="1.7" stroke-miterlimit="10" stroke-linecap="round"/>
<path d="M322.388 162.65C324.05 162.639 349.234 162.583 352.15 162.927" stroke="#D4E6FF" stroke-width="1.7" stroke-miterlimit="10" stroke-linecap="round"/>
<path d="M360.51 162.65C362.172 162.639 387.356 162.583 390.272 162.927" stroke="#D4E6FF" stroke-width="1.7" stroke-miterlimit="10" stroke-linecap="round"/>
<path d="M322.388 168.249C324.05 168.238 349.234 168.182 352.15 168.526" stroke="#D4E6FF" stroke-width="1.7" stroke-miterlimit="10" stroke-linecap="round"/>
<path d="M341.795 184.839C341.795 181.801 344.257 179.339 347.295 179.339H373.504C376.541 179.339 379.004 181.801 379.004 184.839C379.004 187.876 376.541 190.339 373.504 190.339H347.295C344.257 190.339 341.795 187.876 341.795 184.839Z" fill="#FF9800" stroke="#574E56" stroke-width="1.7"/>
<path d="M382.246 87.3529L379.011 85.0994C379.011 85.0994 340.186 85.0994 339.794 85.5893C339.402 86.0792 335.676 90.1943 335.676 90.1943L334.696 110.966L334.892 126.643C334.892 126.643 337.441 129.778 338.029 129.68C338.617 129.582 372.246 130.464 372.246 130.464L379.599 128.504C379.599 128.504 383.129 124.683 383.031 124.291C382.933 123.997 382.246 87.3529 382.246 87.3529Z" fill="white"/>
<path d="M325.968 132.404L350.476 113.288L380.427 134.495L332.564 134.389L325.968 132.404Z" fill="#D4E6FF"/>
<path d="M357.079 117.954L374.55 96.4285L392.592 116.108L378.661 123.467L357.079 117.954Z" fill="#D4E6FF"/>
<path d="M322.432 130.466C322.432 130.466 321.698 109.047 322.432 98.5494C323.166 88.9002 324.781 85.189 340.637 86.0373C356.641 86.8856 376.461 84.2347 388.5 85.4011C390.115 85.6132 391.583 86.3554 392.611 87.3097C393.639 88.264 394.079 89.4304 393.933 90.7028C393.933 97.383 393.933 128.769 393.933 128.769C393.933 128.769 395.988 134.495 379.251 134.495C358.843 134.177 321.991 136.404 322.432 130.466Z" stroke="#D4E6FF" stroke-width="1.7" stroke-miterlimit="10" stroke-linecap="round"/>
<path d="M325.221 132.692L350.033 112.652L368.092 125.694L379.103 134.389" stroke="#D4E6FF" stroke-width="1.93783" stroke-miterlimit="10" stroke-linecap="round"/>
<path d="M357.961 116.151L374.845 95.7925L391.73 114.03" stroke="#D4E6FF" stroke-width="1.93783" stroke-miterlimit="10" stroke-linecap="round"/>
<path d="M358.843 117.53L369.267 116.151L376.461 119.332L391.73 113.01L393.933 116.151L393.786 128.663L391.73 132.268L379.691 134.495L358.843 117.53Z" fill="#D4E6FF"/>
<path d="M322.392 146.731C324.642 147.373 328.191 146.792 332.417 147.138C335.719 147.401 337.803 147.287 341.745 147.26C344.884 147.252 354.893 146.887 360.399 147.138" stroke="#574E56" stroke-width="1.7" stroke-miterlimit="10" stroke-linecap="round"/>
<path d="M53 84.6235C53 78.5484 57.9249 73.6235 64 73.6235H138.117C144.192 73.6235 149.117 78.5484 149.117 84.6235V187.731C149.117 193.806 144.192 198.731 138.117 198.731H64C57.9249 198.731 53 193.806 53 187.731V84.6235Z" fill="white"/>
<rect x="79.3872" y="143.74" width="45" height="11" rx="5.5" fill="#FF7BAA" stroke="#574E56" stroke-width="1.7"/>
<path d="M75.2567 122.023C77.5072 122.665 81.0558 122.084 85.2815 122.43C88.5838 122.694 90.6683 122.579 94.6101 122.553C97.7484 122.545 117.948 122.179 123.454 122.43" stroke="#574E56" stroke-width="1.7" stroke-miterlimit="10" stroke-linecap="round"/>
<path d="M80.3519 128.459C82.6024 129.101 86.151 128.52 90.3767 128.866C93.679 129.129 95.7635 129.015 99.7053 128.988C102.844 128.98 112.853 128.615 118.359 128.866" stroke="#574E56" stroke-width="1.7" stroke-miterlimit="10" stroke-linecap="round"/>
<path d="M68.4948 113.916C71.0842 114.662 75.173 113.96 80.0382 114.348C83.8403 114.642 86.2413 114.497 90.7809 114.447C94.3952 114.422 127.287 114.237 133.627 114.507" stroke="#574E56" stroke-width="1.7" stroke-miterlimit="10" stroke-linecap="round"/>
<path d="M53 84.6233C53 78.5482 57.9249 73.6233 64 73.6233H138.117C144.192 73.6233 149.117 78.5482 149.117 84.6233V187.731C149.117 193.806 144.192 198.731 138.117 198.731H64C57.9249 198.731 53 193.806 53 187.731V84.6233Z" fill="white"/>
<path d="M117.628 85.3848C119.289 85.3738 136.223 85.0407 139.138 85.3849" stroke="#D4E6FF" stroke-width="1.7" stroke-miterlimit="10" stroke-linecap="round"/>
<rect x="79.3872" y="143.74" width="45" height="11" rx="5.5" fill="#2BB2BC" stroke="#574E56" stroke-width="1.7"/>
<path d="M75.2567 122.023C77.5072 122.665 81.0558 122.084 85.2815 122.43C88.5838 122.693 90.6683 122.579 94.6101 122.552C97.7484 122.544 117.948 122.179 123.454 122.43" stroke="#574E56" stroke-width="1.7" stroke-miterlimit="10" stroke-linecap="round"/>
<path d="M80.3519 128.459C82.6024 129.1 86.151 128.519 90.3767 128.866C93.679 129.129 95.7635 129.015 99.7053 128.988C102.844 128.98 112.853 128.615 118.359 128.866" stroke="#574E56" stroke-width="1.7" stroke-miterlimit="10" stroke-linecap="round"/>
<path d="M68.4948 113.916C71.0842 114.661 75.173 113.96 80.0382 114.348C83.8403 114.642 86.2413 114.497 90.7809 114.447C94.3952 114.422 127.287 114.237 133.627 114.506" stroke="#574E56" stroke-width="1.7" stroke-miterlimit="10" stroke-linecap="round"/>
<rect x="85.5312" y="82.9548" width="26.6145" height="4.13392" rx="2" fill="#D4E6FF" stroke="#D4E6FF" stroke-width="1.7" stroke-miterlimit="10" stroke-linecap="round"/>
<rect x="65.5649" y="82.9548" width="13.8223" height="4.13392" rx="2" stroke="#D4E6FF" stroke-width="1.7" stroke-miterlimit="10" stroke-linecap="round"/>
<path d="M421.854 54.1245H298C295.239 54.1245 293 51.8859 293 49.1245V48.4968C293 45.7354 295.239 43.4968 298 43.4968H421.854C424.615 43.4968 426.854 45.7354 426.854 48.4968V49.1245C426.854 51.8859 424.615 54.1245 421.854 54.1245Z" fill="white"/>
<path d="M402.985 54.1245H298C295.239 54.1245 293 51.8859 293 49.1245V48.4968C293 45.7354 295.239 43.4968 298 43.4968H402.985C405.747 43.4968 407.985 45.7354 407.985 48.4968V49.1245C407.985 51.8859 405.747 54.1245 402.985 54.1245Z" fill="#FF7BAA" stroke="black"/>
<path d="M359.94 31.1409C357.293 31.9253 357.558 28.3296 358.022 26.4336C360.026 23.3196 362.722 24.6277 363.372 26.4336C363.962 28.0712 363.249 30.1604 359.94 31.1409Z" stroke="black"/>
<path d="M356.583 33.8516C356.89 34.689 357.956 37.6458 359.905 36.866C361.161 36.3636 362.25 34.7727 363.171 29.1624" stroke="black"/>
<path d="M345.848 26.2477C345.724 26.4947 345.824 26.795 346.071 26.9185C346.318 27.042 346.619 26.9419 346.742 26.6949L345.848 26.2477ZM348.624 25.2342L348.249 25.565L348.624 25.2342ZM351.68 26.4713L351.403 26.0553L351.68 26.4713ZM350.037 36.5147C349.957 36.779 350.107 37.0581 350.371 37.1379C350.635 37.2177 350.914 37.0682 350.994 36.8038L350.037 36.5147ZM353.754 25.9361L354.233 26.0807L353.754 25.9361ZM346.742 26.6949C346.934 26.3117 347.257 25.8301 347.595 25.5661C347.761 25.4356 347.884 25.3956 347.961 25.3939C348.013 25.3927 348.108 25.4057 348.249 25.565L348.998 24.9034C348.702 24.5679 348.34 24.385 347.938 24.3941C347.561 24.4027 347.233 24.5792 346.978 24.7786C346.473 25.1743 346.068 25.8062 345.848 26.2477L346.742 26.6949ZM348.249 25.565C348.79 26.179 349.339 26.7423 349.928 27.0368C350.235 27.1901 350.567 27.279 350.925 27.2581C351.282 27.2372 351.625 27.1086 351.957 26.8873L351.403 26.0553C351.189 26.1979 351.014 26.2512 350.866 26.2598C350.719 26.2685 350.56 26.2346 350.375 26.1423C349.982 25.9456 349.548 25.5265 348.998 24.9034L348.249 25.565ZM351.957 26.8873C352.645 26.4286 353.348 26.3169 353.671 26.3131L353.66 25.3132C353.177 25.3188 352.278 25.4719 351.403 26.0553L351.957 26.8873ZM353.275 25.7915L350.037 36.5147L350.994 36.8038L354.233 26.0807L353.275 25.7915ZM353.671 26.3131C353.367 26.3166 353.205 26.0236 353.275 25.7915L354.233 26.0807C354.34 25.7259 354.092 25.3082 353.66 25.3132L353.671 26.3131Z" fill="black"/>
<path d="M349.133 31.4924H354.591" stroke="black"/>
<path d="M369.566 37.853L379.797 24.9075" stroke="black" stroke-linecap="round"/>
<circle cx="371.49" cy="27.2227" r="1.35523" stroke="black"/>
<circle cx="377.481" cy="35.3037" r="1.35523" stroke="black"/>
<path d="M165.799 54.1245H41.9453C39.1839 54.1245 36.9453 51.8859 36.9453 49.1245V48.4968C36.9453 45.7354 39.1839 43.4968 41.9453 43.4968H165.799C168.561 43.4968 170.799 45.7354 170.799 48.4968V49.1245C170.799 51.8859 168.561 54.1245 165.799 54.1245Z" fill="white"/>
<path d="M75.2138 54.1245H41.9453C39.1839 54.1245 36.9453 51.8859 36.9453 49.1245V48.4968C36.9453 45.7354 39.1839 43.4968 41.9453 43.4968H75.2138C77.9752 43.4968 80.2138 45.7354 80.2138 48.4968V49.1245C80.2138 51.8859 77.9752 54.1245 75.2138 54.1245Z" fill="#FF7BAA" stroke="black"/>
<path d="M113.28 37.8532L123.511 24.9077" stroke="black" stroke-linecap="round"/>
<circle cx="115.203" cy="27.2227" r="1.35523" stroke="black"/>
<circle cx="121.195" cy="35.304" r="1.35523" stroke="black"/>
<path d="M93.1049 29.5051C93.2925 29.7077 93.6089 29.7198 93.8115 29.5322C94.0141 29.3445 94.0262 29.0282 93.8386 28.8256L93.1049 29.5051ZM96.6732 25.7025L96.5067 26.174L96.6732 25.7025ZM99.5032 37.8357C99.7791 37.8259 99.9949 37.5943 99.9852 37.3184C99.9755 37.0424 99.7439 36.8266 99.4679 36.8363L99.5032 37.8357ZM93.8386 28.8256C93.5271 28.4893 93.4481 28.1553 93.4906 27.8468C93.5356 27.5201 93.7256 27.1707 94.0434 26.8586C94.6949 26.2188 95.7105 25.893 96.5067 26.174L96.8396 25.2311C95.591 24.7904 94.1891 25.314 93.3427 26.1451C92.9116 26.5685 92.5826 27.1099 92.4999 27.7105C92.4147 28.3295 92.5996 28.9595 93.1049 29.5051L93.8386 28.8256ZM96.5067 26.174C97.7549 26.6146 98.1909 27.0776 98.2976 27.4834C98.4106 27.9127 98.2303 28.5283 97.5884 29.459L98.4116 30.0267C99.066 29.0778 99.5003 28.1244 99.2647 27.229C99.023 26.31 98.1474 25.6927 96.8396 25.2311L96.5067 26.174ZM97.5884 29.459C96.9367 30.4039 95.7078 32.25 94.6425 33.8869C94.1098 34.7055 93.6161 35.4746 93.255 36.0543C93.0748 36.3436 92.9252 36.5894 92.8198 36.7721C92.7676 36.8626 92.7227 36.9435 92.6896 37.0091C92.6735 37.0412 92.6562 37.0772 92.6418 37.113C92.6347 37.1307 92.6254 37.1553 92.6173 37.1837C92.6113 37.2045 92.5953 37.2624 92.5953 37.336H93.5953C93.5953 37.4025 93.581 37.4508 93.5785 37.4596C93.5738 37.4758 93.5697 37.4858 93.5695 37.4865C93.5688 37.4881 93.572 37.4803 93.5826 37.4593C93.603 37.4188 93.6369 37.3568 93.6859 37.272C93.7828 37.104 93.9254 36.8694 94.1037 36.5831C94.4597 36.0116 94.9492 35.2489 95.4806 34.4324C96.5437 32.799 97.7672 30.9612 98.4116 30.0267L97.5884 29.459ZM92.5953 37.336C92.5953 37.6115 92.7965 37.7472 92.8421 37.7758C92.9089 37.8176 92.9733 37.8378 93.0054 37.8471C93.0772 37.8677 93.1566 37.8795 93.2238 37.8874C93.3662 37.9042 93.558 37.9151 93.7776 37.9224C94.2214 37.9371 94.8292 37.9384 95.4965 37.9318C96.8336 37.9186 98.4358 37.8734 99.5032 37.8357L99.4679 36.8363C98.4051 36.8738 96.8122 36.9188 95.4867 36.9319C94.8227 36.9384 94.2323 36.9369 93.8107 36.923C93.5977 36.9159 93.4401 36.906 93.3411 36.8943C93.2877 36.888 93.2735 36.8836 93.2818 36.886C93.2822 36.8861 93.3224 36.8967 93.373 36.9284C93.4023 36.9468 93.5953 37.0718 93.5953 37.336H92.5953Z" fill="black"/>
<path d="M102.576 28.1363C102.566 28.4122 102.781 28.6444 103.057 28.6549C103.333 28.6654 103.565 28.4503 103.575 28.1743L102.576 28.1363ZM104.958 25.4579L104.907 25.9553L104.958 25.4579ZM108.094 28.5273L107.607 28.4141L108.094 28.5273ZM106.232 30.9647L105.956 30.5478L105.141 31.0871L106.055 31.4325L106.232 30.9647ZM108.747 33.6997L109.246 33.7188L108.747 33.6997ZM103.196 36.4674L103.605 36.1787L103.196 36.4674ZM103.094 34.6732C103.114 34.3978 102.908 34.158 102.632 34.1376C102.357 34.1172 102.117 34.3239 102.097 34.5993L103.094 34.6732ZM103.575 28.1743C103.592 27.7376 103.7 27.1038 103.945 26.6164C104.188 26.1362 104.491 25.9121 104.907 25.9553L105.01 24.9606C104.007 24.8566 103.388 25.5009 103.052 26.1661C102.721 26.824 102.596 27.6125 102.576 28.1363L103.575 28.1743ZM104.907 25.9553C105.785 26.0464 106.587 26.2245 107.101 26.5953C107.346 26.7713 107.516 26.9846 107.608 27.2536C107.701 27.5267 107.726 27.8994 107.607 28.4141L108.581 28.6404C108.731 27.9925 108.722 27.4232 108.555 26.9315C108.386 26.4358 108.071 26.0615 107.686 25.7839C106.941 25.2473 105.905 25.0535 105.01 24.9606L104.907 25.9553ZM107.607 28.4141C107.413 29.2481 107.065 29.7252 106.76 30.0118C106.417 30.3336 106.197 30.388 105.956 30.5478L106.508 31.3817C106.537 31.3625 107.032 31.1282 107.444 30.7411C107.894 30.3188 108.342 29.6666 108.581 28.6404L107.607 28.4141ZM106.055 31.4325C106.425 31.5723 107.005 31.8071 107.482 32.1892C107.95 32.5642 108.272 33.0397 108.247 33.6805L109.246 33.7188C109.287 32.6545 108.726 31.9041 108.107 31.4088C107.498 30.9205 106.788 30.6404 106.408 30.497L106.055 31.4325ZM108.247 33.6805C108.218 34.4413 108.2 34.9995 108.064 35.4426C107.943 35.8374 107.732 36.1227 107.275 36.3296L107.688 37.2405C108.428 36.9055 108.822 36.3817 109.02 35.7361C109.203 35.1387 109.219 34.4252 109.246 33.7188L108.247 33.6805ZM107.275 36.3296C106.763 36.5618 105.938 36.7106 105.158 36.6833C104.772 36.6698 104.421 36.6139 104.141 36.518C103.856 36.4204 103.688 36.2967 103.605 36.1787L102.788 36.7562C103.038 37.1096 103.423 37.329 103.817 37.464C104.216 37.6008 104.671 37.6669 105.123 37.6827C106.02 37.714 107.004 37.5502 107.688 37.2405L107.275 36.3296ZM103.605 36.1787C103.143 35.5263 103.08 34.8625 103.094 34.6732L102.097 34.5993C102.067 35.0023 102.183 35.9002 102.788 36.7562L103.605 36.1787Z" fill="black"/>
</svg>
