<svg width="460" height="240" viewBox="0 0 460 240" fill="none" xmlns="http://www.w3.org/2000/svg">
<path d="M431.782 240H28.213C12.5732 240 0 231.063 0 219.946V20.0545C0 8.93733 12.5732 0 28.213 0H431.782C447.421 0 459.995 8.93733 459.995 20.0545V219.728C460.301 230.845 447.421 240 431.782 240Z" fill="#EAFCFF"/>
<path d="M228.686 121.657L262.464 56.252C275.301 60.1246 299.254 84.4364 301.406 121.657C303.742 162.07 268.56 187.063 251.922 192.872L228.686 121.657Z" fill="#FBB23E"/>
<path d="M232.645 121.657L266.423 56.252C279.26 60.1246 303.213 84.4364 305.365 121.657C307.701 162.07 272.519 187.063 255.881 192.872L232.645 121.657Z" stroke="black" stroke-width="1.7"/>
<path d="M221.279 117.758L254.187 52.3163C225.392 40.9107 200.525 43.5283 175.47 61.665C155.426 76.1744 147.984 105.542 147.236 117.758H221.279Z" fill="#7874F4"/>
<path d="M225.236 117.758L258.144 52.3163C229.349 40.9107 204.482 43.5283 179.427 61.665C159.383 76.1744 151.941 105.542 151.193 117.758H225.236Z" stroke="black" stroke-width="1.7"/>
<path d="M220.398 125.131H147.229C147.23 133.76 152.463 156.822 171.907 177.246C197.497 204.127 231.499 199.45 244.384 194.676L220.398 125.131Z" fill="#D4E6FF"/>
<path d="M224.356 125.131H151.188C151.188 133.76 156.421 156.822 175.865 177.246C201.455 204.127 235.457 199.45 248.342 194.676L224.356 125.131Z" stroke="black" stroke-width="1.7"/>
<path d="M380.903 105.078L375.497 102.037C376.539 99.9379 377.581 97.8392 378.627 95.7469C379.293 94.3012 378.764 92.613 377.507 91.8625C376.112 91.0265 374.159 91.5502 373.324 93.1178L370.173 99.507C368.371 98.4931 366.569 97.4791 364.767 96.4651C363.39 96.0231 361.884 96.6128 361.179 97.8522C360.447 99.1459 360.769 100.821 361.953 101.759L367.4 104.612L364.086 111.454C361.81 110.682 359.748 110.467 356.541 110.51C354.847 110.531 353.168 110.906 351.642 111.656C347.836 113.533 341.046 117.958 340.54 125.867C340.297 129.62 340.667 132.74 341.551 135.413L344.411 140.753C346.203 142.93 348.481 144.401 351.004 145.19C357.357 147.178 365.472 148.391 372.712 139.819C379.958 131.249 375.827 117.249 369.615 113.985L372.723 107.339C374.561 108.262 376.399 109.185 378.235 110.113C379.596 110.794 381.249 110.302 381.992 109.055C382.797 107.717 382.325 105.888 380.903 105.078ZM365.15 134.165C360.315 139.885 362.443 137.044 359.026 138.23C357.779 137.838 353.647 137.589 352.562 136.799C351.147 135.767 347.33 132.544 347.33 132.544C346.86 130.874 348.177 128.904 348.327 126.641C348.665 121.365 351.625 120.366 354.169 119.116C355.188 118.616 356.497 118.601 357.628 118.587C361.261 118.54 361.63 119.657 365.289 121.577C367.769 124.672 369.985 128.445 365.15 134.165Z" fill="#F39800"/>
<path d="M353.366 136.219C354.13 136.927 355.015 137.425 355.969 137.728C359.213 138.756 363.362 139.363 367.111 134.782C370.857 130.201 368.803 122.79 365.638 121.083C362.842 119.576 361.743 119.232 358.956 119.294C358.086 119.311 357.224 119.519 356.441 119.923C354.485 120.935 350.988 123.318 350.695 127.517C350.569 129.314 350.672 130.72 351.022 132.05" stroke="#574E56" stroke-width="1.7" stroke-miterlimit="10"/>
<path d="M358.421 125.738C358.806 122.648 359.179 122.911 357.921 120.248C357.921 120.248 353.081 123.327 352.939 122.829C353.379 124.398 353.285 123.778 353.075 125.489C352.655 128.879 351.394 131.091 349.67 132.714C348.044 134.25 347.679 135.358 345.71 135.999C345.184 136.168 344.657 136.321 344.138 136.459C339.656 137.642 334.406 135.843 330.555 129.382C327.795 124.75 330.055 119.801 331.554 117.37C332.153 116.393 332.99 115.578 333.974 114.95C337.127 112.939 338.639 112.537 342.962 112.17C344.968 111.999 347.471 112.975 349.657 114.695C351.125 113.734 353.631 112.559 355.383 111.782C351.69 107.998 346.859 105.704 343.153 106.016L341.305 94.0104C343.543 95.8074 347.027 98.3033 348.453 98.0749C350.026 97.8241 351.199 96.6006 351.128 95.1454C351.053 93.5853 339.074 82.6947 337.542 82.7402C335.84 82.7921 326.009 95.7895 326.113 97.2188C326.22 98.7038 328.376 100.06 329.961 100.207L334.945 93.861L336.83 106.88C334.392 107.461 332.457 108.401 329.676 110.175C328.202 111.118 326.949 112.346 326.049 113.806C323.799 117.45 320.415 124.865 324.554 131.806C330.322 141.488 338.194 144.18 344.911 142.409C346.088 142.098 347.296 141.739 348.496 141.296C350.513 140.555 351.489 138.553 353.275 137.196C356.513 134.731 357.688 131.662 358.421 125.738Z" fill="#D4E6FF"/>
<path d="M343.539 135.858C342.716 133.198 342.381 130.086 342.643 126.338C343.194 118.439 349.77 113.961 353.45 112.062C354.926 111.301 356.544 110.912 358.179 110.878C361.265 110.808 363.248 111.005 365.433 111.758L368.683 104.902L363.46 102.098C362.327 101.171 362.03 99.5017 362.747 98.2046C363.433 96.9556 364.889 96.3548 366.21 96.7899C367.937 97.7873 369.663 98.7846 371.39 99.782L374.475 93.3836C375.295 91.8126 377.178 91.2735 378.513 92.0962C379.715 92.8345 380.208 94.5202 379.558 95.9639C378.536 98.0671 377.514 100.17 376.494 102.268L381.674 105.26C383.042 106.052 383.478 107.879 382.698 109.222C381.974 110.474 380.376 110.983 379.071 110.309C377.309 109.403 375.546 108.497 373.789 107.586L370.741 114.245C376.698 117.453 380.559 131.387 373.513 140.007C366.468 148.622 358.663 147.478 352.566 145.546C350.142 144.779 347.959 143.329 346.253 141.172" stroke="#574E56" stroke-width="1.7" stroke-miterlimit="10"/>
<path d="M357.361 119.123C358.416 121.779 358.574 122.974 358.113 126.052C357.227 131.954 354.756 135.67 351.701 138.115C350.011 139.466 348.149 140.432 346.27 141.165C345.155 141.605 344.033 141.955 342.941 142.263C336.722 144.013 329.603 141.311 324.665 131.649C321.134 124.715 324.499 117.335 326.687 113.71C327.565 112.256 328.759 111.037 330.14 110.107C332.756 108.345 334.557 107.415 336.816 106.838L335.552 93.8571L330.759 100.169C329.318 100.015 327.386 98.6643 327.341 97.1822C327.299 95.761 336.486 83.1815 338.046 83.131C339.453 83.0852 350.329 93.6166 350.342 95.174C350.357 96.6222 349.237 97.8411 347.787 98.086C346.473 98.3062 343.365 95.8166 341.38 94.0152L342.638 105.983C346.156 105.669 350.673 108.124 353.952 112.118" stroke="#574E56" stroke-width="1.7" stroke-miterlimit="10"/>
<path d="M348.899 115.428C346.789 113.197 344.12 111.882 341.994 112.07C338.021 112.422 336.621 112.821 333.654 114.817C332.729 115.437 331.934 116.255 331.347 117.224C329.883 119.641 327.637 124.572 330.001 129.193C333.298 135.641 338.049 137.445 342.197 136.275C342.674 136.139 343.162 135.994 343.652 135.823C345.476 135.193 347.343 134.277 348.888 132.751C350.526 131.136 351.807 128.832 352.318 125.457C352.575 123.75 352.663 124.368 352.192 122.841" stroke="#574E56" stroke-width="1.7" stroke-miterlimit="10"/>
<path d="M113.659 68.8629C114.055 71.3298 112.092 74.1537 109.494 74.5708C107.521 74.8889 105.96 73.6922 105.585 73.3823C105.275 73.1291 104.029 72.1066 103.774 70.4287C103.391 67.9374 105.361 65.1181 107.939 64.7208C109.975 64.4096 111.572 65.7292 111.85 65.9594C112.188 66.2473 113.396 67.2423 113.659 68.8629Z" fill="white" stroke="#574E56" stroke-width="1.7" stroke-miterlimit="10"/>
<path d="M132.195 66.1059C132.225 66.2633 132.362 67.0196 132.085 67.9701C131.6 69.6588 130.016 71.3312 127.886 71.6518C125.06 72.0827 122.356 69.9814 122.079 67.7027C121.864 65.957 123.129 64.503 123.543 64.0289C124.013 63.4843 124.926 62.4386 126.387 62.1513C128.907 61.6681 131.733 63.7221 132.195 66.1059Z" fill="white" stroke="#574E56" stroke-width="1.7" stroke-miterlimit="10"/>
<path d="M90.8158 44.3977C99.5381 43.016 108.98 41.4587 117.702 40.077L120.442 57.3731L99.0065 60.7687" stroke="#574E56" stroke-width="1.7" stroke-miterlimit="10"/>
<path d="M89.1783 44.8196C97.9007 43.4379 107.343 41.8806 116.065 40.4989L118.805 57.7949L97.369 61.1905" fill="#AEAEFF"/>
<path d="M127.933 56.349L118.805 57.795L114.91 33.2104L131.061 30.652C131.692 30.5521 132.245 31.0688 132.189 31.7046L130.131 54.014C130.021 55.2011 129.117 56.1615 127.933 56.349Z" fill="#7874F4"/>
<path d="M129.571 55.9272L120.443 57.3731L116.548 32.7886L132.699 30.2301C133.33 30.1303 133.884 30.6469 133.827 31.2827L131.769 53.5921C131.659 54.7792 130.755 55.7396 129.571 55.9272Z" stroke="#574E56" stroke-width="1.7" stroke-miterlimit="10"/>
<path d="M91.5416 44.2212L133.783 37.5298" stroke="#574E56" stroke-width="1.7" stroke-miterlimit="10"/>
<path d="M73 29.3838L82.4734 27.8831C83.1642 27.7737 83.839 28.1313 84.13 28.7624C87.408 35.8321 89.6269 41.2899 91.0757 45.0787C91.6145 46.4933 93.2002 49.4433 94.5028 52.2032C96.4709 56.3967 97.6519 58.7785 99.0593 60.9229C109.048 59.3405 119.042 57.7574 129.031 56.1751C130.659 55.9171 131.903 54.5784 132.031 52.9407L133.931 30.8801C133.987 30.2388 133.417 29.7247 132.783 29.8364C116.443 32.1281 103.585 36.1686 88.6037 37.6687" stroke="#574E56" stroke-width="1.7" stroke-miterlimit="10" stroke-linecap="round"/>
<path d="M87.32 185.15C90.7636 199.06 109.761 209.545 116.979 213.897C124.104 202.087 130.322 183.446 128.236 175.021C125.653 164.588 116.06 157.255 103.713 160.311C91.3674 163.368 83.5234 169.814 87.32 185.15Z" fill="#D4E6FF"/>
<path d="M90.2843 184.416C93.7278 198.326 112.722 208.812 119.939 213.164C127.062 201.354 133.277 182.714 131.191 174.289C128.608 163.857 119.016 156.523 106.673 159.579C94.3296 162.634 86.4877 169.081 90.2843 184.416Z" stroke="#574E56" stroke-width="1.7" stroke-miterlimit="10" stroke-linecap="round"/>
<circle cx="110.377" cy="177.895" r="10.8051" transform="rotate(-13.9048 110.377 177.895)" fill="#EAFCFF" stroke="#574E56" stroke-width="1.7" stroke-miterlimit="10" stroke-linecap="round"/>
</svg>
