<svg width="472" height="250" viewBox="0 0 472 250" fill="none" xmlns="http://www.w3.org/2000/svg">
<path d="M4.21558 77.6021C1.91834 77.6021 1.4595 79.4347 1.45947 81.2673V85.8489C1.45947 88.048 4.21544 88.2924 5.59342 88.1396H87.8172C90.1139 88.1396 89.6546 84.9325 89.6546 81.2673C89.6546 78.3351 88.4296 77.6021 87.8172 77.6021H4.21558Z" fill="#2BB2BC" stroke="#574E56" stroke-width="1.7"/>
<path d="M16.6184 116.086C10.7387 109.122 9.57503 94.5529 9.72814 88.1387H83.6833C83.3771 92.2621 82.5808 101.608 81.8459 106.007C80.9272 111.505 75.8743 120.21 70.3621 124.791C64.8499 129.373 56.1223 137.161 53.8255 138.994C51.5288 140.827 48.3133 147.241 49.6913 152.28C51.0694 157.32 57.5003 164.193 62.5532 167.4C67.606 170.607 75.8743 177.937 79.5491 184.351C83.2239 190.766 84.1426 204.51 84.1426 207.717C84.1426 210.924 84.1426 216.422 82.3052 217.797C80.4678 219.171 54.2849 218.713 44.6385 218.713C34.9921 218.713 15.6995 217.797 12.4841 216.88C9.91169 216.147 9.57484 215.353 9.72795 215.048C9.72795 213.215 9.91169 208.084 10.6467 202.219C11.5654 194.889 14.3215 185.268 17.0776 181.144C19.8337 177.021 29.48 168.316 33.6142 166.483C37.7483 164.651 41.8825 157.778 43.2605 156.404C44.6386 155.029 45.5573 151.822 45.0979 147.699C44.6386 143.576 42.8012 141.285 39.1264 136.703C35.4516 132.122 23.968 124.791 16.6184 116.086Z" fill="white" stroke="#574E56" stroke-width="1.7"/>
<path d="M1.98942 215.975C1.2361 214.511 6.69764 212.315 9.52258 211.401C31.1802 207.741 71.6714 210.486 76.3796 211.401C81.0878 212.315 91.9168 213.688 90.9751 217.347C90.0335 221.006 81.0878 221.463 47.1886 221.463C13.2894 221.463 2.93106 217.804 1.98942 215.975Z" stroke="#574E56" stroke-width="1.7"/>
<path d="M1 228.793C1 228.06 1.61247 219.63 1.9187 215.507L91.0327 216.423L91.9514 229.252C89.7465 233.65 80.3145 234.139 75.8741 233.833C60.5624 233.986 27.7342 234.2 18.9147 233.833C7.89026 233.375 1 229.71 1 228.793Z" fill="#2BB2BC" stroke="#574E56" stroke-width="1.7"/>
<path d="M17.8911 190.215L18.672 190.55L17.8911 190.215ZM46.0179 157.937C46.0845 157.472 45.7617 157.042 45.297 156.975C44.8323 156.908 44.4017 157.231 44.3351 157.696L46.0179 157.937ZM15.2739 208.852C15.426 206.805 15.7387 203.469 16.2862 200.013C16.8364 196.54 17.6134 193.014 18.672 190.55L17.1101 189.879C15.9639 192.547 15.1616 196.247 14.6072 199.747C14.05 203.265 13.7328 206.65 13.5786 208.727L15.2739 208.852ZM18.672 190.55C21.3781 184.253 24.3481 180.441 28.3901 176.857L27.2623 175.585C23.0359 179.332 19.9163 183.348 17.1101 189.879L18.672 190.55ZM28.3901 176.857C32.4778 173.233 38.051 168.598 40.3696 166.285L39.169 165.082C36.894 167.351 31.4429 171.879 27.2623 175.585L28.3901 176.857ZM40.3696 166.285C41.4919 165.166 42.7817 163.951 43.8298 162.619C44.8874 161.276 45.7591 159.744 46.0179 157.937L44.3351 157.696C44.1346 159.096 43.451 160.352 42.494 161.568C41.5275 162.796 40.3434 163.91 39.169 165.082L40.3696 166.285Z" fill="#D5D4D6"/>
<path d="M37.381 118.075C32.9712 119.541 30.1233 120.794 28.2859 121.099L23.5217 123.259L32.6169 131.034C41.6254 137.255 44.5994 144.57 45.1768 147.449C45.6099 154.361 49.5078 158.249 49.5078 146.153C49.5078 144.426 51.2403 141.402 52.9727 139.242C54.3586 137.514 65.9657 129.306 72.8954 122.395C65.5326 116.779 59.4451 115.051 52.5396 115.051C46.9092 115.051 42.8932 116.242 37.381 118.075Z" fill="#FBB23E" stroke="#574E56" stroke-width="1.7"/>
<path d="M15.6997 91.3467C15.6997 97.4554 14.8596 105.979 25.2542 118.074" stroke="#D5D4D6" stroke-width="1.7"/>
<path d="M78.526 93.021C78.526 99.9326 78.9592 100.365 76.7934 106.412C75.5486 109.888 74.6275 110.732 72.8949 113.756" stroke="#D5D4D6" stroke-width="1.7" stroke-linecap="round"/>
<path d="M413.491 200.467C412.105 141.82 410.612 83.1727 409.226 24.5257C409.119 19.6199 408.799 14.3795 406.027 10.3657C401.975 4.67937 394.191 4.12189 387.473 3.8989C342.474 2.67244 297.475 1.66898 252.477 1H238.615C193.616 1.66898 148.617 2.56095 103.618 3.8989C96.9004 4.12189 89.1162 4.79087 85.0642 10.3657C82.1852 14.268 81.9719 19.5084 81.8653 24.5257C80.479 83.1727 78.9862 141.82 77.6 200.467L181.246 199.352C181.246 199.352 196.068 209.721 200.76 211.17C205.452 212.62 285.213 213.846 285.213 213.846L296.516 206.599L307.819 200.467H413.491Z" fill="#D5D4D6"/>
<path d="M96.8004 181.604V29.4276C96.8004 27.2488 98.4234 25.5286 100.479 25.5286L387.309 22.7764C389.365 22.7764 390.988 24.4965 390.988 26.6754V178.852C390.988 181.031 389.365 182.751 387.309 182.751L100.479 185.503C98.4234 185.618 96.8004 183.783 96.8004 181.604Z" fill="white"/>
<path d="M413.491 201.754C412.105 143.284 410.612 82.8134 409.226 24.4547C409.119 19.5636 408.799 14.3391 406.027 10.3374C401.975 4.66826 394.191 4.11247 387.473 3.89015C342.474 2.66739 297.475 1.66696 252.477 1H238.614C193.616 1.66696 148.617 2.55623 103.618 3.89015C96.9004 4.11247 89.1162 4.77942 85.0642 10.3374C82.1852 14.228 81.9719 19.4525 81.8653 24.4547C80.479 82.9246 78.9862 143.395 77.6 201.754" stroke="#574E56" stroke-width="1.7" stroke-miterlimit="10"/>
<path d="M100.032 172.127V32.6611C100.032 27.8281 103.826 23.9157 108.379 23.8006L384.04 21.269C388.701 21.269 392.604 25.1814 392.604 30.1295V169.595C392.604 174.428 388.81 178.341 384.257 178.456L108.596 180.987C103.826 180.987 100.032 177.075 100.032 172.127Z" stroke="#574E56" stroke-width="1.7" stroke-miterlimit="10"/>
<path d="M51.0481 221.243C53.394 228.873 67.3628 239.204 75.6801 239.322L414.237 244.604C431.831 244.839 446.333 231.221 446.333 214.199V213.847L49.8751 216.429L51.0481 221.243Z" fill="#D5D4D6"/>
<path d="M55.6435 205.757C53.2976 205.874 51.0583 207.283 50.0987 209.279C47.2196 215.501 50.9517 223.953 57.5629 228.062C65.4537 232.876 75.5837 233.11 85.074 233.11C139.243 233.228 190.64 234.519 244.062 233.11H257.711C311.027 231.584 359.758 233.228 413.927 233.11C423.418 233.11 433.548 232.876 441.439 228.062C441.758 227.828 442.078 227.593 442.398 227.475C452.315 220.432 446.877 206.109 434.294 205.288C409.662 203.761 353.254 200.826 321.051 202.118C316.039 202.353 310.708 202.587 306.229 204.818C302.177 206.814 299.298 210.336 295.139 212.214C290.767 214.21 285.649 213.975 280.744 213.74C270.294 213.27 228.388 213.27 217.831 213.74C212.926 213.975 207.808 214.21 203.436 212.214C199.384 210.453 196.398 206.931 192.346 204.818C187.974 202.47 182.642 202.353 177.524 202.118C140.736 200.474 70.9985 204.701 55.6435 205.757Z" fill="#D5D4D6"/>
<path d="M55.7403 203.281C53.3944 203.516 51.2618 205.042 50.3021 207.507C47.423 214.903 51.0485 225.117 57.5531 229.93C65.2306 235.682 75.1474 236.035 84.531 236.035C137.634 236.152 187.964 237.561 240.321 236.035H253.65C305.793 234.274 353.564 236.152 406.56 236.035C415.944 236.035 425.86 235.682 433.538 229.93C433.858 229.695 434.178 229.46 434.498 229.226C444.201 220.773 438.87 203.516 426.607 202.694C402.508 200.933 347.166 197.294 315.709 198.937C310.804 199.172 305.579 199.524 301.207 202.342C297.262 204.807 294.49 208.916 290.438 211.147C286.172 213.495 281.054 213.26 276.362 213.025C266.019 212.555 224.965 212.555 214.729 213.025C209.93 213.377 204.919 213.495 200.653 211.147C196.601 208.916 193.829 204.807 189.884 202.342C185.618 199.642 180.393 199.29 175.382 198.937C139.127 197.176 70.7754 202.107 55.7403 203.281Z" stroke="#574E56" stroke-width="1.7" stroke-miterlimit="10"/>
<path d="M85.4905 214.082C80.7981 214.082 80.7981 221.36 85.4905 221.36C90.183 221.243 90.183 214.082 85.4905 214.082Z" fill="#574E56"/>
<path d="M99.5664 214.082C94.8739 214.082 94.8739 221.36 99.5664 221.36C104.259 221.243 104.259 214.082 99.5664 214.082Z" fill="#574E56"/>
<path d="M113.642 214.082C108.95 214.082 108.95 221.36 113.642 221.36C118.335 221.243 118.335 214.082 113.642 214.082Z" fill="#574E56"/>
<path d="M447.854 221.285C449.476 221.908 458.836 225.276 464.951 221.035C468.945 218.291 469.444 213.178 470.318 203.075C471.316 191.351 471.815 185.489 467.447 181.872C462.455 177.631 454.468 178.754 451.348 179.377L451.473 184.491C453.595 183.992 459.086 183.119 462.455 186.362C465.451 189.23 465.076 193.721 464.327 202.701C463.703 210.558 463.454 214.425 460.708 216.545C456.465 219.788 450.1 217.169 448.977 216.67L447.854 221.285Z" fill="white"/>
<path d="M369.606 156.922C368.982 157.421 368.358 157.919 368.358 158.668C369.107 168.022 372.726 218.037 373.974 235.124C374.224 238.741 376.595 241.734 380.089 242.857C392.07 246.723 421.646 252.591 443.237 241.989C446.107 240.617 447.854 237.624 447.979 234.381C451.349 208.688 449.352 184.491 452.597 158.923C452.721 158.05 452.222 157.301 451.473 157.052C441.24 153.809 425.765 149.943 407.544 149.818C389.324 149.943 379.216 150.436 369.606 156.922Z" fill="white"/>
<path d="M375.222 164.036C374.598 164.411 374.099 164.91 374.224 165.658C374.848 174.264 378.093 220.412 379.216 236.127C379.465 239.37 381.587 242.239 384.582 243.236C395.19 246.853 425.516 252.217 444.61 242.488C447.106 241.241 448.728 238.497 448.853 235.503C451.848 211.806 450.101 189.48 452.847 165.907C452.972 165.159 452.472 164.411 451.848 164.161C442.738 161.168 429.135 157.551 413.036 157.551C396.812 157.551 383.708 158.05 375.222 164.036Z" fill="#D4E6FF"/>
<path d="M368.652 156.95C368.251 156.95 373.224 216.92 374.597 235.255C374.846 238.872 376.538 243.057 380.032 244.179C392.013 248.046 409.04 250.622 432.932 247.818C439.134 247.09 446.795 242.724 447.729 236.003L452.721 158.424C452.721 158.424 452.721 158.424 452.596 158.424C450.599 163.164 428.01 163.663 410.164 164.162C392.817 164.661 371.023 160.941 368.652 156.95Z" stroke="#574E56" stroke-width="1.7" stroke-miterlimit="10" stroke-linecap="round"/>
<path d="M368.731 156.429C368.731 156.429 369.854 150.442 411.662 150.442C444.858 150.442 452.596 157.552 452.596 157.552" stroke="#574E56" stroke-width="1.7" stroke-miterlimit="10" stroke-linecap="round"/>
<path d="M451.348 179.502C454.468 178.879 462.58 177.631 467.447 182.121C471.815 185.863 471.316 191.975 470.318 204.073C469.444 214.55 468.945 219.788 464.951 222.532C458.836 226.897 450.6 223.904 448.977 223.28" stroke="#574E56" stroke-width="1.7" stroke-miterlimit="10" stroke-linecap="round"/>
<path d="M451.348 184.616C453.345 184.117 458.587 183.244 461.831 186.611C464.577 189.605 464.327 194.219 463.703 203.574C463.204 211.681 462.83 215.672 460.209 217.917C456.215 221.285 450.1 218.541 449.102 218.166" stroke="#574E56" stroke-width="1.7" stroke-miterlimit="10" stroke-linecap="round"/>
<path d="M447.23 160.419C447.23 161.916 427.886 165.658 411.413 164.785C382.959 163.413 375.97 162.29 375.97 159.297C375.97 157.8 395.189 156.553 411.413 156.802C428.011 157.177 447.355 158.923 447.23 160.419Z" fill="#574E56"/>
<path d="M396.633 191.478C393.073 196.449 404.077 207.818 411.049 213.778C411.442 214.114 412.02 214.093 412.397 213.74C417.6 208.867 432.186 197.633 426.298 189.803C420.141 181.616 414.358 189.804 411.745 193.153C407.827 187.571 402.23 183.663 396.633 191.478Z" fill="#FB5C19"/>
<path d="M397.061 191.478C393.502 196.449 404.505 207.818 411.477 213.778C411.87 214.114 412.448 214.093 412.826 213.74C418.028 208.867 432.615 197.633 426.727 189.803C420.57 181.616 414.786 189.804 412.174 193.153C408.256 187.571 402.658 183.663 397.061 191.478Z" stroke="#574E56" stroke-width="1.7" stroke-miterlimit="10" stroke-linecap="round"/>
<path d="M131.843 133.386C131.843 133.386 131.587 124.486 131.843 120.163C132.099 116.179 132.611 114.653 137.735 114.992C142.859 115.331 149.349 114.229 153.192 114.738C153.705 114.822 154.217 115.077 154.473 115.5C154.815 115.924 154.9 116.433 154.9 116.857C154.9 119.654 154.9 132.623 154.9 132.623C154.9 132.623 155.583 134.997 150.118 134.997C143.542 134.912 131.672 135.844 131.843 133.386Z" fill="#D4E6FF"/>
<path d="M127.931 133.398C127.931 133.398 127.629 123.576 127.931 118.76C128.232 114.321 128.734 112.621 134.36 112.999C139.985 113.377 147.017 112.149 151.236 112.715C151.839 112.81 152.341 113.093 152.643 113.565C152.944 114.038 153.145 114.51 153.145 115.076C153.145 118.193 153.145 132.548 153.145 132.548C153.145 132.548 153.848 135.192 147.921 135.192C140.688 135.098 127.73 136.136 127.931 133.398Z" stroke="#574E56" stroke-width="2" stroke-miterlimit="10" stroke-linecap="round"/>
<path d="M136.87 119.42L145.51 123.481C145.71 123.575 145.811 123.67 145.911 123.859C146.012 124.048 146.012 124.142 146.012 124.331C146.012 124.52 146.012 124.709 145.911 124.803C145.811 124.992 145.71 125.086 145.51 125.181L136.87 129.431C136.77 129.525 136.569 129.525 136.368 129.525C136.167 129.525 136.067 129.431 135.866 129.431C135.765 129.336 135.564 129.242 135.564 129.147C135.464 129.053 135.464 128.864 135.464 128.675V120.27C135.464 120.081 135.464 119.987 135.564 119.798C135.665 119.703 135.765 119.515 135.866 119.42C135.966 119.326 136.167 119.326 136.368 119.326C136.569 119.326 136.77 119.42 136.87 119.42Z" fill="#574E56"/>
<path d="M131.843 92.6873C131.843 92.6873 131.587 83.7869 131.843 79.4638C132.099 75.4798 132.611 73.954 137.735 74.2931C142.859 74.6321 149.349 73.5302 153.192 74.0388C153.705 74.1235 154.217 74.3778 154.473 74.8017C154.815 75.2255 154.9 75.7341 154.9 76.1579C154.9 78.9552 154.9 91.9244 154.9 91.9244C154.9 91.9244 155.583 94.2978 150.118 94.2978C143.542 94.2131 131.672 95.1455 131.843 92.6873Z" fill="#D4E6FF"/>
<path d="M127.938 93.7621C127.938 93.7621 127.62 83.6247 127.938 78.6535C128.255 74.0723 128.784 72.3177 134.71 72.7076C140.636 73.0975 148.043 71.8304 152.488 72.4152C153.122 72.5127 153.652 72.8051 153.969 73.2925C154.286 73.7798 154.498 74.2672 154.498 74.8521C154.498 78.0687 154.498 92.8848 154.498 92.8848C154.498 92.8848 155.239 95.6141 148.996 95.6141C141.377 95.5166 127.726 96.5888 127.938 93.7621Z" stroke="#574E56" stroke-width="2" stroke-miterlimit="10" stroke-linecap="round"/>
<path d="M129.947 93.7615L138.2 85.2812L144.867 91.5196L148.676 95.1261" stroke="#574E56" stroke-width="2" stroke-miterlimit="10" stroke-linecap="round"/>
<path d="M141.163 86.9385L147.407 77.2886L153.65 85.9638" stroke="#574E56" stroke-width="2" stroke-miterlimit="10" stroke-linecap="round"/>
<path d="M141.38 87.6209L145.296 86.9386L148.047 88.4982L152.597 85.9639L154.502 86.9386V92.8845L153.655 94.6391H149.528L141.38 87.6209Z" fill="#574E56"/>
<path d="M125.256 163.42C125.256 163.42 124.879 157.503 125.256 154.654C125.538 152.024 126.292 151.038 133.543 151.257C140.795 151.476 149.835 150.819 155.203 151.038C155.957 151.148 156.616 151.257 156.993 151.586C157.369 151.915 157.652 152.134 157.558 152.463C157.558 154.325 157.558 162.872 157.558 162.872C157.558 162.872 158.499 164.407 150.871 164.407C141.736 164.407 125.067 164.954 125.256 163.42Z" fill="#D4E6FF"/>
<path d="M125.231 163.576C125.231 163.576 124.909 156.607 125.231 153.222C125.552 150.136 126.303 148.942 133.806 149.141C141.202 149.44 150.527 148.544 156.1 148.942C156.851 149.041 157.494 149.24 158.03 149.539C158.458 149.838 158.673 150.236 158.673 150.634C158.673 152.824 158.673 162.978 158.673 162.978C158.673 162.978 159.637 164.87 151.813 164.87C142.273 164.77 125.017 165.467 125.231 163.576Z" stroke="#574E56" stroke-width="2" stroke-miterlimit="10" stroke-linecap="round"/>
<path d="M133.376 157.204C133.376 157.204 138.949 153.222 138.521 154.914C138.199 156.606 139.7 158.398 141.415 157.204C143.13 156.009 151.168 152.226 151.276 153.919" stroke="#574E56" stroke-width="2.5938" stroke-miterlimit="10" stroke-linecap="round"/>
<path d="M131.843 56.6638C131.843 56.6638 131.587 47.7634 131.843 43.4404C132.099 39.4564 132.611 37.9306 137.735 38.2696C142.859 38.6087 149.349 37.5068 153.192 38.0153C153.705 38.1001 154.217 38.3544 154.473 38.7782C154.815 39.2021 154.9 39.7107 154.9 40.1345C154.9 42.9318 154.9 55.9009 154.9 55.9009C154.9 55.9009 155.583 58.2744 150.118 58.2744C143.542 58.1896 131.672 59.122 131.843 56.6638Z" fill="#D4E6FF"/>
<path d="M127.938 56.3217C127.938 56.3217 127.62 46.354 127.938 41.466C128.257 36.9613 128.788 35.2362 134.733 35.6195C140.679 36.0029 148.111 34.7569 152.571 35.332C153.208 35.4278 153.739 35.7154 154.057 36.1946C154.376 36.6738 154.588 37.153 154.588 37.7281C154.588 40.8909 154.588 55.3632 154.588 55.3632C154.588 55.3632 155.331 58.0469 149.067 58.0469C141.422 58.0469 127.832 59.1011 127.938 56.3217Z" stroke="#574E56" stroke-width="2" stroke-miterlimit="10" stroke-linecap="round"/>
<path d="M134.841 43.5747H147.37" stroke="#574E56" stroke-width="2.4258" stroke-miterlimit="10" stroke-linecap="round"/>
<path d="M134.841 49.7085H141.85" stroke="#574E56" stroke-width="2.4258" stroke-miterlimit="10" stroke-linecap="round"/>
<path d="M171.963 166.161V31.5415" stroke="#D5D4D6" stroke-width="1.7" stroke-miterlimit="10"/>
<path d="M219.321 46.2682C217.661 49.9839 217.661 80.9484 217.661 80.9484L216.415 126.363L334.738 127.602C334.738 127.602 337.644 48.3324 334.738 45.0296C331.832 41.7267 220.982 42.5524 219.321 46.2682Z" stroke="#574E56" stroke-width="1.7" stroke-miterlimit="10"/>
<path d="M339.976 77.6739C340.517 75.6539 281.294 116.906 279.311 116.906C277.329 116.906 215.572 76.6623 215.475 77.6739C215.379 78.6854 214.686 151.616 215.475 152.571C216.265 153.526 338.39 151.779 339.976 150.194C341.562 148.609 339.434 79.6939 339.976 77.6739Z" fill="#FBB23E" stroke="#574E56" stroke-width="1.7"/>
<path d="M247.127 63.6585C249.803 61.797 252.485 60.8492 255.607 59.5542C256.142 59.3923 256.588 59.797 256.32 60.2017L255.061 62.1207C254.615 62.6872 254.525 63.4157 254.793 63.9822C255.596 65.6009 257.373 64.1441 259.967 63.6585C262.819 62.7682 268.551 61.6709 272.646 60.6872C274.667 60.2017 273.085 64.9534 274.245 64.1441C276.653 62.6872 278.794 61.8204 281.47 60.2017C281.827 59.9589 282.362 60.2826 282.273 60.6873V62.6872C282.095 63.2538 282.63 63.8203 283.343 63.7394C284.682 63.6585 284.957 63.011 286.912 62.0398C288.866 61.0686 290.583 59.8377 292.278 59.2712C294.062 58.7047 295.297 59.4499 295.118 61.0686C295.029 61.6351 294.583 62.3635 295.118 62.7682C295.475 63.011 296.01 62.9301 296.456 62.8491C301.541 61.716 303.466 62.2016 308.55 61.0686" stroke="#BBCAD2" stroke-width="1.7" stroke-miterlimit="10" stroke-linecap="round"/>
</svg>
