<svg width="979" height="650" viewBox="0 0 979 650" fill="none" xmlns="http://www.w3.org/2000/svg">
<path d="M845.991 139.479C887.965 116.309 790.524 81.5589 703.076 61.582C583.648 27.1292 547.67 -9.32793 387.267 2.15918C331.355 6.16326 275.334 30.119 170.397 76.0603C65.4606 122.002 4.38428e-05 118.009 0 161.453C-3.96703e-05 200.763 5.49669 198.905 66.46 249.341C98.4405 275.799 174.395 279.8 121.927 321.249C78.0183 355.936 39.4762 352.709 16.4901 400.148C-6.49609 447.588 66.46 556.447 127.923 576.92C195.892 599.561 260.343 557.445 293.323 556.447C326.303 555.448 330.14 572.148 299.32 599.394C273.335 622.364 299.32 646.334 342.294 646.334C369.777 646.334 554.666 676.292 759.543 564.936C964.419 453.579 978.91 294.282 978.91 294.282C981.909 259.326 908.953 241.848 856.484 221.375C804.016 200.901 793.522 168.442 845.991 139.479Z" fill="#EAFCFF"/>
</svg>
