<svg width="370" height="379" viewBox="0 0 370 379" fill="none" xmlns="http://www.w3.org/2000/svg">
<path d="M0.552612 183.136C5.72852 184.011 12.0192 184.488 33.0414 178.601C88.4635 163.167 108.849 177.169 114.343 183.692C123.58 154.018 158.06 34.4473 133.374 0C101.125 8.98971 33.8377 4.61419 18.4692 24.9007C38.2173 71.2813 5.25075 146.938 0.552612 183.136Z" fill="#9ACEED"/>
<path d="M27.1484 27.2875C27.1484 27.2875 36.7039 54.3362 35.1113 71.0428L134.648 63.8828C134.648 63.8828 141.815 23.3098 129.074 8.19434C113.148 10.581 32.7224 17.7409 27.1484 27.2875Z" fill="white"/>
<path d="M87.4281 82.6574C102.398 82.7369 117.369 82.4982 132.259 82.0209C133.772 81.9414 133.772 79.5547 132.259 79.6343C117.289 80.1912 102.319 80.4298 87.4281 80.2707C85.9152 80.2707 85.9152 82.6574 87.4281 82.6574Z" fill="white"/>
<path d="M85.9949 88.3064C100.567 87.829 115.139 87.9881 129.791 88.8632C131.304 88.9428 131.304 86.5562 129.791 86.4766C115.219 85.681 100.647 85.4424 85.9949 85.9197C84.482 85.9993 84.482 88.3859 85.9949 88.3064Z" fill="white"/>
<path d="M84.1635 94.3524C98.656 93.875 113.228 94.2728 127.641 95.4661C129.154 95.6252 129.154 93.2386 127.641 93.0795C113.149 91.8861 98.656 91.5679 84.1635 91.9657C82.5709 91.9657 82.5709 94.3524 84.1635 94.3524Z" fill="white"/>
<path d="M77.0763 99.7618C78.3504 92.9201 79.3856 84.5668 79.943 74.3042C79.943 74.3042 46.2598 78.2024 35.9079 77.4068C35.5894 84.0895 34.2357 93.2383 32.6431 102.148C47.3746 100.16 62.1856 99.6822 77.0763 99.7618Z" fill="white"/>
<path d="M31.8466 106.285C29.4577 119.094 26.9096 130.231 26.9096 130.231L68.2373 128.322C69.8298 124.185 73.4132 117.264 76.2798 103.899C61.3891 103.74 46.5781 104.217 31.8466 106.285Z" fill="white"/>
<path d="M82.969 108.672C98.019 109.149 113.069 109.388 128.119 109.388C129.632 109.388 129.632 107.001 128.119 107.001C113.069 107.001 98.019 106.762 82.969 106.285C81.3765 106.206 81.3765 108.592 82.969 108.672Z" fill="white"/>
<path d="M81.0578 116.071C94.993 115.752 108.848 115.991 122.784 116.866C124.297 116.946 124.297 114.559 122.784 114.479C108.928 113.604 94.993 113.366 81.0578 113.684C79.5449 113.763 79.5449 116.15 81.0578 116.071Z" fill="white"/>
<path d="M78.4301 122.355C93.0023 122.355 107.574 122.276 122.067 122.912C123.58 122.992 123.58 120.605 122.067 120.526C107.574 119.969 92.9227 119.969 78.4301 119.969C76.9172 119.969 76.9172 122.355 78.4301 122.355Z" fill="white"/>
<path d="M326.476 226.891C329.422 226.254 332.289 225.379 335.235 224.504C334.757 224.265 334.28 223.947 333.802 223.709C339.933 239.938 344.074 256.883 347.578 273.828C351.957 294.831 355.381 316.231 355.939 337.711C356.257 348.053 355.939 358.554 353.629 368.658C354.028 368.34 354.426 368.101 354.744 367.783C348.374 367.385 342.004 367.385 335.633 366.987C334.12 366.908 334.12 369.294 335.633 369.374C342.004 369.771 348.374 369.771 354.744 370.169C355.222 370.169 355.78 369.772 355.859 369.294C360 350.519 358.487 330.551 356.178 311.696C353.63 290.535 349.489 269.612 343.994 249.007C341.685 240.256 339.137 231.584 335.952 223.072C335.713 222.436 335.155 222.038 334.518 222.277C331.572 223.152 328.706 224.027 325.759 224.663C324.326 224.981 324.963 227.289 326.476 226.891Z" fill="#574E56"/>
<path d="M100.328 242.802C105.106 240.813 110.202 239.858 114.821 237.631C117.767 236.199 119.837 234.21 123.022 233.971C127.083 233.653 131.065 232.937 135.126 232.3C150.415 229.834 165.544 226.811 180.754 223.868C222.002 215.832 263.17 207.4 304.418 199.444C321.698 196.103 338.977 192.762 356.416 190.216C355.938 189.977 355.461 189.659 354.983 189.42C357.929 197.296 359.362 205.649 360.716 213.923C362.707 226.095 363.981 238.347 364.936 250.518C367.086 276.851 367.962 303.423 366.688 329.835C366.131 341.132 365.414 352.667 362.866 363.725C363.264 363.407 363.662 363.168 363.981 362.85C362.149 362.85 360.238 362.85 358.407 362.85C356.894 362.85 356.894 365.237 358.407 365.237C360.238 365.237 362.149 365.237 363.981 365.237C364.459 365.237 365.016 364.839 365.096 364.362C370.033 342.325 369.714 318.856 369.396 296.422C368.998 270.248 367.405 243.995 363.662 218.06C362.229 208.195 360.636 198.012 357.133 188.625C356.894 187.988 356.337 187.67 355.699 187.829C320.264 193 285.068 200.637 249.952 207.638C213.083 214.957 176.294 222.754 139.267 229.118C134.17 229.993 128.995 230.948 123.819 231.425C121.828 231.584 120.633 231.505 118.882 232.539C112.75 236.278 106.3 237.631 99.7706 240.335C98.2576 241.131 98.8946 243.438 100.328 242.802Z" fill="#574E56"/>
<path d="M119.917 117.184C125.73 117.423 130.507 123.469 128.357 129.197C127.8 130.629 130.109 131.266 130.667 129.834C133.374 122.674 127.163 115.116 119.917 114.798C118.324 114.718 118.324 117.105 119.917 117.184Z" fill="#574E56"/>
<path d="M321.777 213.764C318.274 218.299 312.461 222.993 308.001 227.209C298.446 236.199 288.731 245.109 279.096 254.019C257.676 273.749 236.176 293.399 214.517 312.969C208.863 318.14 203.209 323.391 197.396 328.403C197.874 328.323 198.352 328.244 198.83 328.244C187.443 321.959 176.454 314.958 165.385 308.276C164.032 307.48 162.837 309.549 164.191 310.344C175.339 317.027 186.328 324.107 197.635 330.312C198.113 330.551 198.67 330.471 199.068 330.153C213.88 317.424 228.054 303.98 242.546 290.774C264.205 270.964 285.944 251.235 307.364 231.107C312.859 226.016 319.229 221.004 323.848 215.037C324.803 213.764 322.653 212.571 321.777 213.764Z" fill="#574E56"/>
<path d="M62.1064 291.33C66.4064 275.181 66.486 258.792 67.6008 242.245C67.123 242.643 66.5656 243.04 66.0879 243.359C107.336 250.28 150.495 245.984 191.663 240.574C228.532 235.721 265.082 228.88 301.313 220.685C308.639 219.015 315.885 217.344 323.132 215.514C322.654 215.276 322.176 214.957 321.698 214.719C327.432 233.892 329.582 254.019 331.095 273.908C332.767 295.785 333.324 317.663 333.483 339.62C333.563 350.678 333.563 361.736 333.563 372.715C333.961 372.317 334.359 371.919 334.757 371.522C272.885 377.409 210.297 375.977 148.425 371.681C146.912 371.601 146.912 373.988 148.425 374.067C210.376 378.363 272.885 379.875 334.757 373.908C335.395 373.829 335.952 373.431 335.952 372.715C335.952 330.312 336.35 287.432 330.457 245.347C328.945 234.846 327.033 224.265 324.008 214.082C323.848 213.446 323.211 213.048 322.574 213.287C302.348 218.458 281.884 222.754 261.339 226.811C219.454 235.005 177.012 241.608 134.33 243.677C111.875 244.791 89.0211 244.87 66.8045 241.131C66.0082 240.972 65.3712 241.449 65.2916 242.245C64.2564 258.554 64.1768 274.783 59.8768 290.694C59.399 292.205 61.7083 292.842 62.1064 291.33Z" fill="#574E56"/>
<path d="M163.713 143.756C159.493 150.837 154.317 157.36 149.061 163.724C146.115 167.225 143.089 170.646 139.904 173.907C137.674 176.055 135.126 178.84 132.259 180.033C128.756 181.465 126.685 175.658 125.969 172.953C124.615 168.02 125.013 162.77 125.73 157.837C126.924 149.564 129.95 141.449 130.746 133.096C130.985 130.232 131.145 125.777 128.437 123.947C125.57 122.038 122.146 124.186 119.12 124.345C117.608 124.424 117.608 126.811 119.12 126.731C123.261 126.493 127.72 123.31 128.278 129.516C128.596 133.096 127.88 136.437 127.083 139.937C124.933 149.405 121.908 159.269 122.863 169.134C123.261 173.43 125.889 184.409 132.18 182.659C134.807 181.943 137.117 179.715 139.107 177.965C142.452 175.021 145.478 171.68 148.424 168.259C154.715 160.94 160.846 153.303 165.863 145.029C166.58 143.677 164.509 142.483 163.713 143.756Z" fill="#574E56"/>
<path d="M193.972 263.963C193.972 263.963 233.946 266.986 254.092 257.44C281.246 244.632 297.649 203.342 271.451 189.261C271.611 194.035 270.416 202.945 270.416 202.945L185.213 250.519" fill="#FDB43E"/>
<path d="M174.622 32.2991C170.8 23.1503 141.735 37.0724 132.578 33.2538C135.763 46.9372 147.469 50.7559 155.989 62.2913C155.989 62.2913 179.002 42.8004 174.622 32.2991Z" fill="#574E56"/>
<path d="M143.965 87.7496C146.911 71.3613 143.407 58.6325 148.902 49.8814C152.167 44.7103 158.457 39.8575 163.076 37.7891C163.793 37.4708 158.696 37.7891 159.333 37.3117C160.607 36.4366 169.207 35.482 171.039 35.0046C172.87 34.5273 160.05 34.9251 161.881 34.2091C165.385 32.7771 174.304 32.2202 177.011 32.3793C187.204 29.1176 204.483 30.5496 213.72 33.4135C227.496 37.7095 236.892 61.6556 234.583 56.8823C243.103 74.4639 241.431 90.2158 246.368 118.537C250.748 143.836 246.846 172.396 242.626 192.285L170.243 132.857L143.965 87.7496Z" fill="#FDB43E"/>
<path d="M136.878 203.661C124.297 197.137 105.743 184.011 93.8784 190.932C84.3229 196.501 97.3025 232.46 97.2229 239.858C90.6136 238.347 83.2877 235.085 80.7396 244.154L106.619 245.029C106.619 245.029 98.0191 208.036 102.638 206.047C108.212 203.661 133.693 231.505 133.693 231.505" fill="#574E56"/>
<path d="M136.878 203.661C124.297 197.137 105.743 184.011 93.8784 190.932C84.3229 196.501 97.3025 232.46 97.2229 239.858C90.6136 238.347 83.2877 235.085 80.7396 244.154L106.619 245.029C106.619 245.029 98.0191 208.036 102.638 206.047C108.212 203.661 133.693 231.505 133.693 231.505" fill="url(#paint0_linear)"/>
<path d="M181.948 257.122C175.737 268.578 170.004 283.056 171.119 296.581C172.234 310.105 179.082 324.505 183.621 330.789C170.322 338.825 171.915 344.393 175.1 348.371L190.946 333.972C190.946 333.972 180.754 317.424 181.709 296.979C182.267 284.488 190.787 270.805 195.963 259.27" fill="#574E56"/>
<path d="M181.948 257.122C175.737 268.578 170.004 283.056 171.119 296.581C172.234 310.105 179.082 324.505 183.621 330.789C170.322 338.825 171.915 344.393 175.1 348.371L190.946 333.972C190.946 333.972 180.754 317.424 181.709 296.979C182.267 284.488 190.787 270.805 195.963 259.27" fill="url(#paint1_linear)"/>
<path d="M163.713 109.945C181.71 169.93 99.771 152.427 130.986 228.8C146.354 247.098 179.799 263.964 193.495 263.725C275.115 209.15 245.413 126.572 242.069 86.0786" fill="#FDB43E"/>
<path d="M163.713 109.945C181.71 169.93 99.771 152.427 130.986 228.8C146.354 247.098 179.799 263.964 193.495 263.725C275.115 209.15 245.413 126.572 242.069 86.0786" fill="url(#paint2_linear)"/>
<path d="M165.226 64.2803C162.757 76.0544 134.648 77.6455 110.759 79.0775C113.069 104.774 121.43 114.002 136.081 121.003C141.257 123.469 155.83 123.947 166.739 122.276" fill="#FDB43E"/>
<path d="M123.261 78.521C123.102 101.99 110.441 98.728 105.186 83.3739C101.045 71.202 123.261 72.7135 123.261 78.521Z" fill="#574E56"/>
<path d="M193.096 46.3808C226.7 80.1121 171.118 94.7502 164.429 72.793C158.298 52.5861 184.655 37.9479 193.096 46.3808Z" fill="#EAFCFF"/>
<path d="M242.069 92.8403C243.661 96.7385 238.963 100.398 236.256 102.466C231 106.444 224.948 109.388 218.897 112.013C205.519 117.9 190.867 122.833 176.295 124.503C174.543 124.662 165.386 126.015 165.386 122.673C165.386 121.162 162.997 121.162 162.997 122.673C162.917 132.14 187.682 124.981 191.663 123.946C207.35 119.889 224.55 114.32 237.61 104.455C241.113 101.83 246.289 97.2954 244.298 92.2834C243.821 90.8514 241.511 91.4083 242.069 92.8403Z" fill="#574E56"/>
<path d="M194.768 116.548C184.257 114.957 183.541 119.014 173.428 120.287C174.941 122.276 179.081 121.719 182.028 122.515C179.241 126.97 179.32 130.47 178.763 135.721C186.726 131.186 188.557 129.118 195.804 125.776L197.476 124.663C208.226 124.424 226.62 120.446 235.539 113.764C231.876 113.684 226.939 111.616 226.461 111.377C225.585 110.979 227.735 111.138 233.628 103.422C222.479 107.24 222.241 106.047 221.126 105.57C222.798 101.99 223.992 101.353 226.461 98.1709C217.463 101.114 203.05 110.343 195.246 116.23" fill="#EAFCFF"/>
<path d="M185.153 69.0555C185.891 65.8891 184.961 62.9667 183.077 62.5282C181.192 62.0898 179.066 64.3013 178.328 67.4678C177.59 70.6342 178.519 73.5566 180.404 73.9951C182.288 74.4335 184.414 72.222 185.153 69.0555Z" fill="#574E56"/>
<path d="M154.284 69.2861C154.583 67.154 153.977 65.3072 152.932 65.1611C151.887 65.0149 150.798 66.6248 150.499 68.7568C150.2 70.8888 150.805 72.7357 151.851 72.8818C152.896 73.028 153.985 71.4181 154.284 69.2861Z" fill="#574E56"/>
<path d="M198.591 112.411C201.617 119.014 202.971 121.322 202.971 125.538C200.741 127.527 196.919 128.641 195.884 127.049C194.132 124.345 192.539 120.287 191.424 115.116C193.336 112.332 198.591 112.411 198.591 112.411Z" fill="#574E56"/>
<path d="M190.309 56.8023C186.726 55.2112 183.063 54.2565 179.161 53.9383C177.648 53.7792 177.648 56.1658 179.161 56.3249C182.585 56.6431 185.93 57.4387 189.115 58.8707C190.548 59.4276 191.743 57.4387 190.309 56.8023Z" fill="#574E56"/>
<path d="M155.511 56.7227C152.645 57.5182 150.017 58.7911 147.548 60.4617C146.274 61.3368 147.469 63.4053 148.743 62.5302C151.052 60.9391 153.441 59.7457 156.069 59.0298C157.582 58.632 156.945 56.3249 155.511 56.7227Z" fill="#574E56"/>
<path d="M130.109 81.6232C131.622 81.3846 132.02 83.6917 130.507 83.9303C128.994 84.2486 128.596 81.9415 130.109 81.6232Z" fill="#FDB43E"/>
<path d="M126.924 87.5105C128.437 87.2718 128.835 89.5789 127.322 89.8175C125.809 90.1358 125.411 87.8287 126.924 87.5105Z" fill="#FDB43E"/>
<path d="M129.074 83.1345C130.587 82.8958 130.985 85.2029 129.472 85.4416C127.959 85.7598 127.561 83.4527 129.074 83.1345Z" fill="#574E56"/>
<path d="M133.056 89.1811C136.082 88.6242 136.878 93.3179 133.932 93.8748C130.906 94.4317 130.11 89.7379 133.056 89.1811Z" fill="#574E56"/>
<path d="M126.606 91.5676C128.119 91.3289 128.517 93.636 127.004 93.8747C125.491 94.1929 125.093 91.8858 126.606 91.5676Z" fill="#574E56"/>
<path d="M116.078 82.2176C117.678 81.9263 118.733 80.3586 118.434 78.716C118.134 77.0735 116.594 75.9781 114.993 76.2694C113.392 76.5607 112.337 78.1284 112.637 79.771C112.936 81.4135 114.477 82.5089 116.078 82.2176Z" fill="#EAFCFF"/>
<path d="M142.929 168.418C121.27 184.011 123.898 210.98 133.772 220.686C146.831 233.494 167.216 232.062 176.931 207.241C190.946 171.441 194.131 146.779 180.674 143.279C165.305 139.38 164.429 152.984 142.929 168.418Z" fill="#EAFCFF"/>
<path d="M169.924 93.5565C170.004 97.2956 168.252 101.751 164.111 102.626C160.687 103.342 156.785 102.467 153.998 100.398C152.804 99.4436 151.609 101.512 152.804 102.467C156.228 105.092 162.2 106.365 166.341 104.456C170.481 102.546 172.392 97.932 172.313 93.5565C172.233 92.045 169.844 92.045 169.924 93.5565Z" fill="#574E56"/>
<path d="M250.19 26.3328C237.529 15.1951 209.341 20.6048 185.372 24.9008C187.602 39.0616 226.541 52.2677 236.096 71.4405C251.783 59.5868 250.19 26.3328 250.19 26.3328Z" fill="#574E56"/>
<path d="M34.3953 290.535C51.7545 293.16 69.5119 293.717 87.11 294.195C109.167 294.751 131.384 294.751 153.362 293.001C152.964 292.683 152.565 292.444 152.247 292.126C153.68 296.979 153.68 302.23 153.68 307.242C153.68 314.481 153.282 321.721 152.725 328.96C151.689 342.803 150.256 356.725 147.628 370.329C147.31 372.159 146.673 373.988 146.434 375.818C146.354 376.136 146.195 376.375 146.195 376.693C146.036 377.489 146.673 376.614 146.673 376.614C145.956 376.693 145.239 376.614 144.523 376.614C139.506 376.614 134.569 376.614 129.552 376.534C113.228 376.375 96.9044 376.136 80.5804 375.579C61.0712 374.943 41.4823 374.147 22.0528 371.84C22.4509 372.318 22.8491 372.875 23.1676 373.352C27.8657 345.587 32.1657 317.743 35.9083 289.819C36.1472 288.308 33.8379 287.671 33.599 289.183C29.8565 317.106 25.5565 344.951 20.8583 372.715C20.6991 373.511 21.1769 374.147 21.9731 374.227C58.2045 378.523 94.9933 378.682 131.384 378.921C136.56 378.921 141.815 379 146.991 379C147.389 379 147.867 378.762 148.026 378.443C149.938 373.988 150.415 368.738 151.132 364.044C152.486 355.532 153.521 346.94 154.317 338.348C155.193 329.119 155.91 319.811 156.069 310.503C156.149 304.298 156.388 297.615 154.556 291.569C154.397 291.092 153.919 290.615 153.441 290.694C131.782 292.444 110.043 292.524 88.3841 291.967C70.7063 291.49 52.7101 291.012 35.112 288.387C33.5194 288.069 32.8027 290.376 34.3953 290.535Z" fill="#574E56"/>
<path d="M329.501 238.347C332.049 234.369 333.881 230.232 335.155 225.618C335.553 224.106 333.244 223.47 332.846 224.981C331.651 229.357 329.899 233.255 327.431 237.074C326.634 238.426 328.705 239.62 329.501 238.347Z" fill="#574E56"/>
<path d="M326.635 224.584C332.607 220.447 337.305 214.321 341.923 208.753C346.781 202.865 351.479 196.819 355.859 190.614C356.734 189.341 354.664 188.148 353.788 189.421C349.488 195.467 344.949 201.354 340.251 207.082C335.792 212.412 331.173 218.538 325.44 222.516C324.166 223.391 325.36 225.459 326.635 224.584Z" fill="#574E56"/>
<path d="M62.5039 326.892C69.0335 332.461 75.7223 337.791 82.4112 343.041C83.526 343.917 85.4371 346.065 86.8705 346.224C87.826 346.383 88.7816 345.587 89.5779 345.11C103.274 337.075 116.413 327.846 128.835 317.902C137.993 310.583 146.831 302.627 154.157 293.479C155.113 292.285 153.441 290.615 152.485 291.808C140.541 306.844 124.774 318.857 109.087 329.676C103.354 333.654 97.5408 337.473 91.6482 341.132C90.2945 341.928 88.3834 342.723 87.2686 343.757C86.4723 344.473 87.1093 343.598 87.5871 343.917C86.7112 343.28 85.9149 342.723 85.1186 342.087C78.0316 336.677 71.0242 331.029 64.2557 325.142C63.0613 324.187 61.3094 325.858 62.5039 326.892Z" fill="#574E56"/>
<path d="M216.667 139.858C216.507 152.666 220.967 164.202 234.265 167.702C249.474 171.759 266.833 167.622 281.883 164.918C283.396 164.679 282.759 162.372 281.246 162.611C267.152 165.156 251.465 168.736 237.131 165.952C231.955 164.918 226.859 162.69 223.594 158.315C219.692 153.064 218.976 146.222 219.135 139.858C219.055 138.346 216.667 138.346 216.667 139.858Z" fill="#574E56"/>
<path d="M218.578 237.71C228.293 261.895 217.384 272.874 198.193 294.99C199.467 296.502 200.741 297.934 202.015 299.286C205.837 303.343 209.66 307.321 213.482 311.378C223.515 321.959 234.424 331.665 246.209 340.177C254.252 345.985 262.613 350.997 271.372 355.054C317.239 323.312 293.032 248.053 304.976 185.284C315.646 129.516 361.274 110.104 356.018 53.1428C343.278 50.6766 330.617 47.7331 317.956 44.3918C299.322 39.3798 280.928 33.6519 262.534 28.083C275.672 99.0461 180.674 143.358 218.578 237.71Z" fill="#9ACEED"/>
<path d="M336.27 107.718C339.614 112.332 337.703 117.026 335.155 121.481C335.792 121.401 336.429 121.322 337.066 121.242C333.722 117.901 328.864 116.23 324.246 117.185C322.733 117.503 323.37 119.81 324.883 119.492C328.705 118.696 332.686 120.208 335.394 122.913C335.951 123.47 336.907 123.311 337.305 122.674C340.251 117.503 342.242 111.696 338.42 106.445C337.464 105.252 335.394 106.445 336.27 107.718Z" fill="#574E56"/>
<path d="M310.55 165.395C314.133 164.202 317.478 161.258 320.265 158.792C325.361 154.257 329.9 148.768 332.926 142.563C336.429 135.482 336.987 128.243 337.066 120.446C337.066 114.719 333.563 110.025 327.591 109.707C326.078 109.627 326.078 112.014 327.591 112.093C335.633 112.411 334.678 121.401 334.518 127.209C334.359 133.812 331.97 140.097 328.466 145.586C325.6 150.041 322.016 154.098 318.035 157.599C315.726 159.588 312.939 162.133 309.913 163.088C308.479 163.565 309.116 165.872 310.55 165.395Z" fill="#574E56"/>
<path d="M31.8464 134.448C29.0594 135.72 26.6705 137.63 24.7594 140.016C23.8038 141.21 25.476 142.88 26.4316 141.687C28.1834 139.459 30.4131 137.709 33.0408 136.436C34.4742 135.8 33.2797 133.732 31.8464 134.448Z" fill="white"/>
<path d="M36.5453 135.88C34.7139 136.994 32.8824 138.187 31.0509 139.301C29.7768 140.097 30.9713 142.165 32.2454 141.369C34.0768 140.256 35.9083 139.062 37.7398 137.949C39.0935 137.153 37.899 135.085 36.5453 135.88Z" fill="white"/>
<path d="M41.8004 141.29C61.1503 140.574 80.5799 140.176 99.9299 140.255C101.443 140.255 101.443 137.869 99.9299 137.869C80.5799 137.789 61.1503 138.107 41.8004 138.903C40.2874 138.983 40.2078 141.369 41.8004 141.29Z" fill="white"/>
<path d="M48.3304 146.699C63.0618 146.222 77.7137 145.983 92.4451 146.142C93.958 146.142 93.958 143.756 92.4451 143.756C77.7137 143.597 63.0618 143.835 48.3304 144.313C46.8174 144.392 46.8174 146.779 48.3304 146.699Z" fill="white"/>
<path d="M111.237 173.43C87.1891 153.939 26.3522 176.93 7.40045 176.93C8.75415 172.078 8.99304 167.861 11.4615 161.656C32.643 163.247 87.3484 144.87 114.98 158.553C114.343 165.554 113.626 164.679 111.237 173.43Z" fill="#9ACEED"/>
<path d="M289.209 56.6434C291.519 50.995 288.572 44.3919 282.52 42.5622C278.061 41.2097 273.124 43.0395 270.656 47.0172C269.382 49.0857 268.904 51.3132 269.063 53.4612L271.691 70.5655C271.85 71.6793 273.124 72.1566 274 71.4406L286.741 60.3029C287.696 59.2687 288.572 58.0754 289.209 56.6434ZM276.867 58.9505C273.363 57.5185 271.691 53.5408 273.124 50.0403C274.558 46.5399 278.539 44.8693 282.043 46.3013C285.546 47.7332 287.219 51.711 285.785 55.2114C284.352 58.7118 280.37 60.3825 276.867 58.9505Z" fill="white"/>
<path d="M296.854 49.4039C293.43 58.871 288.254 66.906 280.53 73.4295C279.813 74.066 280.291 75.1797 281.087 75.4184C299.959 81.0668 318.911 86.4765 337.544 92.7614C337.943 92.9205 338.42 92.7614 338.739 92.4432C346.781 85.3628 347.737 72.0771 348.135 62.1327C348.135 61.6554 347.737 61.0985 347.259 61.0189C330.856 57.5185 314.611 52.9043 298.367 48.5288C296.854 48.131 296.217 50.4381 297.73 50.8359C313.974 55.2114 330.219 59.8256 346.622 63.326C346.304 62.9283 346.065 62.5305 345.746 62.2123C345.507 69.054 344.791 76.1344 342.322 82.6579C341.526 84.8059 340.411 87.0334 338.978 88.8632C338.341 89.6587 337.943 90.2156 337.146 90.2952C335.713 90.3747 332.607 88.7041 331.174 88.2268C314.77 82.8966 298.208 78.1233 281.724 73.1909C281.883 73.8273 282.043 74.5433 282.282 75.1797C290.324 68.338 295.659 59.9847 299.243 50.0404C299.72 48.6084 297.411 47.9719 296.854 49.4039Z" fill="white"/>
<path d="M249.314 134.766C243.9 144.153 238.246 153.461 233.707 163.326C233.388 164.042 233.627 164.838 234.424 165.076C250.827 170.009 267.151 174.782 283.316 180.271C283.794 180.431 284.431 180.192 284.67 179.715C290.005 170.725 293.668 160.542 298.048 151.075C298.366 150.438 298.127 149.484 297.331 149.325C281.405 145.904 265.877 139.778 250.588 134.209C249.155 133.652 248.518 135.959 249.951 136.516C265.24 142.085 280.768 148.211 296.694 151.632C296.455 151.075 296.216 150.438 295.977 149.881C291.598 159.348 287.935 169.532 282.599 178.521C283.077 178.362 283.475 178.123 283.953 177.964C267.788 172.475 251.385 167.702 235.061 162.769C235.3 163.326 235.538 163.963 235.777 164.52C240.316 154.655 245.89 145.347 251.385 135.959C252.101 134.686 250.031 133.493 249.314 134.766Z" fill="white"/>
<path d="M311.426 88.3055C309.276 93.0788 306.648 97.4543 303.383 101.512C302.427 102.705 304.1 104.376 305.055 103.182C308.4 98.9658 311.187 94.3516 313.416 89.4192C314.133 88.1463 312.063 86.8735 311.426 88.3055Z" fill="white"/>
<path d="M299.799 101.353C299.64 104.137 298.525 106.842 298.287 109.627C298.207 110.661 299.64 111.218 300.357 110.502C302.268 108.354 304.577 106.365 307.444 105.649C308.559 105.41 308.638 103.58 307.444 103.342C305.374 102.944 303.462 101.989 301.949 100.478C300.835 99.364 299.162 101.114 300.277 102.148C302.029 103.899 304.418 105.171 306.807 105.649C306.807 104.853 306.807 104.137 306.807 103.342C303.542 104.058 300.835 106.365 298.685 108.751C299.401 109.07 300.038 109.308 300.755 109.627C300.994 106.842 302.188 104.137 302.268 101.353C302.268 99.8413 299.879 99.8413 299.799 101.353Z" fill="white"/>
<path d="M274.796 214.241C273.602 220.924 273.363 227.766 272.965 234.448C272.885 235.96 275.274 235.96 275.354 234.448C275.752 227.925 275.911 221.322 277.106 214.798C277.344 213.366 275.115 212.73 274.796 214.241Z" fill="white"/>
<path d="M270.814 231.983C271.929 234.449 272.168 237.233 273.203 239.779C273.601 240.813 275.194 241.052 275.512 239.779C276.229 236.995 277.264 234.131 279.494 232.221C280.45 231.426 279.414 229.914 278.3 230.233C276.309 230.789 274.159 230.869 272.088 230.233C270.575 229.755 270.018 232.062 271.451 232.54C273.84 233.256 276.548 233.256 278.937 232.54C278.538 231.903 278.14 231.187 277.742 230.551C275.194 232.699 273.92 235.961 273.124 239.143C273.92 239.143 274.637 239.143 275.433 239.143C274.318 236.438 274.079 233.494 272.805 230.789C272.168 229.358 270.098 230.551 270.814 231.983Z" fill="white"/>
<path d="M258.074 275.021C258.074 281.624 257.357 288.148 256.322 294.671C256.083 296.183 258.392 296.819 258.631 295.308C259.746 288.625 260.463 281.863 260.463 275.101C260.463 273.51 258.074 273.51 258.074 275.021Z" fill="white"/>
<path d="M254.49 288.705C255.605 291.171 255.844 293.956 256.879 296.501C257.277 297.536 258.87 297.774 259.189 296.501C259.905 293.717 260.94 290.853 263.17 288.944C264.126 288.148 263.09 286.637 261.976 286.955C259.985 287.512 257.835 287.591 255.764 286.955C254.251 286.477 253.694 288.785 255.127 289.262C257.516 289.978 260.224 289.978 262.613 289.262C262.214 288.625 261.816 287.909 261.418 287.273C258.87 289.421 257.596 292.683 256.8 295.865C257.596 295.865 258.313 295.865 259.109 295.865C257.994 293.16 257.755 290.217 256.481 287.512C255.924 286.159 253.853 287.353 254.49 288.705Z" fill="white"/>
<path d="M227.735 202.308C225.665 206.127 225.665 211.139 225.744 215.355C225.904 220.367 226.62 225.538 228.77 230.073C229.407 231.425 231.478 230.232 230.841 228.88C228.85 224.743 228.292 219.89 228.133 215.355C227.974 211.537 227.894 206.922 229.805 203.502C230.522 202.149 228.531 200.956 227.735 202.308Z" fill="white"/>
<path d="M225.028 228.403C227.018 230.391 228.292 233.017 230.203 235.085C230.841 235.801 232.353 235.324 232.274 234.21C231.955 231.346 231.955 228.323 233.309 225.777C233.866 224.823 232.672 223.391 231.637 224.107C229.965 225.379 227.974 226.175 225.824 226.334C224.311 226.414 224.311 228.8 225.824 228.721C228.292 228.562 230.841 227.687 232.831 226.175C232.274 225.618 231.716 225.061 231.159 224.504C229.566 227.448 229.407 230.869 229.805 234.21C230.522 233.892 231.159 233.653 231.876 233.335C229.965 231.267 228.77 228.641 226.7 226.652C225.665 225.698 223.992 227.368 225.028 228.403Z" fill="white"/>
<path d="M224.789 154.336C225.426 157.041 225.107 159.985 225.665 162.69C225.824 163.644 227.416 163.883 227.815 163.008C229.009 160.383 230.681 157.837 233.229 156.405C234.185 155.848 233.866 154.098 232.592 154.177C230.522 154.336 228.372 154.018 226.54 153.063C225.187 152.347 223.992 154.416 225.346 155.132C227.576 156.325 230.124 156.803 232.672 156.643C232.433 155.927 232.274 155.132 232.035 154.416C229.168 156.087 227.178 158.951 225.824 161.894C226.54 161.974 227.257 162.053 227.974 162.212C227.416 159.428 227.735 156.564 227.098 153.859C226.779 152.268 224.47 152.904 224.789 154.336Z" fill="white"/>
<path d="M300.198 176.214C298.048 178.123 296.694 180.589 294.703 182.578C295.34 182.976 296.057 183.374 296.694 183.772C297.251 180.43 297.331 176.85 295.818 173.748C295.181 174.225 294.544 174.702 293.907 175.18C295.898 176.85 298.366 177.964 300.994 178.282C302.507 178.441 302.507 176.055 300.994 175.896C301.472 175.975 300.675 175.816 300.596 175.816C300.198 175.737 299.799 175.657 299.401 175.498C298.048 175.1 296.774 174.464 295.659 173.509C294.624 172.634 293.19 173.748 293.748 174.941C294.942 177.487 294.783 180.43 294.385 183.135C294.225 184.249 295.499 185.204 296.375 184.329C298.366 182.34 299.799 179.794 301.87 177.964C303.064 176.93 301.392 175.259 300.198 176.214Z" fill="white"/>
<path d="M272.089 109.309C282.919 114.48 293.27 118.617 304.896 121.64C304.737 121.003 304.578 120.287 304.339 119.651C300.756 123.947 297.252 128.322 293.828 132.777C292.872 134.05 291.837 135.323 290.802 136.516C290.404 136.994 289.767 138.108 289.13 138.346C288.333 138.664 286.98 138.108 286.024 137.869C275.832 135.323 267.152 131.345 257.995 126.015C258.074 126.652 258.154 127.288 258.234 127.925C264.126 122.435 268.824 115.434 273.602 108.99C274.478 107.718 272.408 106.524 271.532 107.797C266.913 114.082 262.295 120.924 256.561 126.254C256.004 126.811 256.163 127.765 256.8 128.163C262.533 131.505 268.346 134.846 274.558 137.153C279.256 138.903 284.113 139.937 288.97 141.21C289.369 141.29 289.846 141.21 290.165 140.892C295.898 134.925 300.676 127.925 306.011 121.56C306.569 120.924 306.409 119.81 305.454 119.571C294.067 116.628 283.795 112.57 273.204 107.479C271.93 106.604 270.656 108.672 272.089 109.309Z" fill="white"/>
<path d="M278.698 111.377C279.892 109.786 281.166 108.115 282.361 106.524C281.803 106.683 281.246 106.843 280.688 106.922C291.518 112.093 301.87 116.23 313.496 119.253C313.336 118.617 313.177 117.901 312.938 117.264C309.355 121.56 305.851 125.936 302.427 130.391C301.472 131.664 300.437 132.937 299.401 134.13C299.003 134.607 298.287 135.721 297.729 135.96C296.614 136.357 294.305 135.323 293.111 135.085C291.598 134.687 290.961 136.994 292.474 137.392C294.146 137.789 295.898 138.267 297.57 138.744C297.968 138.824 298.446 138.744 298.764 138.426C304.498 132.459 309.275 125.458 314.611 119.094C315.168 118.458 315.009 117.344 314.053 117.105C302.666 114.162 292.394 110.104 281.803 105.013C281.166 104.695 280.609 104.854 280.131 105.411C278.937 107.081 277.742 108.672 276.468 110.263C275.751 111.377 277.822 112.57 278.698 111.377Z" fill="white"/>
<path d="M261.976 113.684C258.074 112.252 254.093 110.979 250.35 109.229C249.713 108.911 249.156 109.07 248.678 109.627C244.696 115.037 241.511 121.083 238.485 127.049C234.185 135.482 230.443 144.313 227.895 153.462C227.496 154.973 229.806 155.61 230.204 154.098C232.752 144.711 236.654 135.8 241.033 127.209C243.9 121.64 246.926 115.832 250.669 110.82C250.111 110.979 249.554 111.138 248.996 111.218C252.898 113.127 257.119 114.48 261.18 115.912C262.852 116.469 263.489 114.161 261.976 113.684Z" fill="white"/>
<path d="M308.559 131.266C312.063 132.3 315.407 133.97 318.831 135.164C318.672 134.527 318.513 133.811 318.274 133.175C313.178 139.301 309.355 146.699 305.772 153.78C302.507 160.303 298.526 167.463 297.252 174.703C297.013 176.214 299.322 176.851 299.561 175.339C300.755 168.259 304.578 161.337 307.842 154.973C311.346 148.052 315.009 140.812 320.026 134.846C320.583 134.13 320.424 133.175 319.468 132.857C315.965 131.584 312.7 129.993 309.196 128.958C307.683 128.561 307.046 130.788 308.559 131.266Z" fill="white"/>
<path d="M274.796 121.481C275.353 123.708 276.309 126.811 278.937 127.447C280.529 127.845 282.679 127.209 284.192 126.97C290.801 125.936 297.411 124.663 303.861 122.833C305.374 122.435 304.736 120.128 303.224 120.526C298.525 121.799 293.668 122.833 288.89 123.708C286.661 124.106 284.431 124.583 282.122 124.822C281.564 124.902 280.37 125.22 279.812 125.061C277.981 124.504 277.583 122.435 277.105 120.765C276.707 119.333 274.398 119.969 274.796 121.481Z" fill="white"/>
<path d="M219.613 168.02C225.426 170.805 231.398 173.192 237.768 174.703C243.661 176.056 249.633 177.01 255.526 178.522C255.287 177.965 255.048 177.328 254.809 176.772C251.624 181.147 248.916 185.761 247.403 190.932C246.368 194.433 246.05 198.092 245.333 201.672C245.811 201.434 246.289 201.115 246.766 200.877C235.857 198.013 225.187 194.751 214.596 190.932C214.915 191.33 215.153 191.728 215.472 192.046C214.596 183.772 217.542 174.942 221.205 167.543C221.922 166.191 219.852 164.997 219.135 166.35C215.313 174.067 212.128 183.295 213.083 192.046C213.163 192.603 213.402 193.001 213.959 193.16C224.55 196.899 235.22 200.161 246.129 203.104C246.687 203.263 247.483 202.945 247.563 202.309C248.2 198.967 248.518 195.626 249.394 192.364C250.827 187.034 253.614 182.34 256.8 177.885C257.277 177.249 256.8 176.294 256.083 176.135C250.509 174.703 244.855 173.828 239.202 172.555C232.752 171.123 226.7 168.736 220.728 165.952C219.453 165.316 218.259 167.384 219.613 168.02Z" fill="white"/>
<path d="M225.585 179.476C226.142 181.783 227.098 186.158 229.726 187.113C231.159 187.67 232.991 186.715 234.344 186.238C241.033 183.931 247.563 181.067 254.331 179.078C255.765 178.68 255.207 176.373 253.694 176.771C248.518 178.283 243.422 180.351 238.405 182.26C236.335 183.056 234.265 183.851 232.194 184.488C230.841 184.886 230.681 185.045 229.646 183.772C228.611 182.419 228.292 180.431 227.894 178.839C227.496 177.328 225.187 177.964 225.585 179.476Z" fill="white"/>
<path d="M262.454 179.635C274.637 185.363 286.98 188.466 299.88 191.728C299.72 191.091 299.561 190.375 299.322 189.739C295.898 193.955 292.633 198.41 290.722 203.581C289.528 207.002 289.209 210.503 288.493 214.083C288.97 213.844 289.448 213.526 289.926 213.287C278.619 210.264 267.391 207.4 256.322 203.502C256.641 203.9 256.88 204.297 257.198 204.616C256.243 196.024 259.906 186.716 263.967 179.237C264.683 177.885 262.613 176.692 261.896 178.044C257.676 185.92 253.854 195.626 254.809 204.616C254.889 205.172 255.128 205.57 255.685 205.729C266.754 209.627 277.982 212.491 289.289 215.515C289.846 215.674 290.643 215.355 290.722 214.719C291.28 211.696 291.519 208.673 292.395 205.729C293.987 200.399 297.332 195.785 300.835 191.489C301.393 190.852 301.233 189.739 300.278 189.5C287.537 186.318 275.354 183.295 263.409 177.646C262.295 176.93 261.021 178.999 262.454 179.635Z" fill="white"/>
<path d="M269.859 193.239C270.417 195.546 271.372 199.922 274 200.876C275.433 201.433 277.265 200.479 278.618 200.001C285.307 197.694 291.837 194.83 298.605 192.841C300.039 192.444 299.481 190.136 297.968 190.534C292.792 192.046 287.696 194.114 282.679 196.023C280.609 196.819 278.539 197.615 276.468 198.251C275.115 198.649 274.955 198.808 273.92 197.535C272.885 196.183 272.567 194.194 272.168 192.603C271.85 191.091 269.541 191.728 269.859 193.239Z" fill="white"/>
<path d="M222.878 238.426C226.78 248.928 225.267 261.338 222.241 271.919C222.002 272.874 222.878 273.59 223.674 273.351C235.141 271.124 247.165 271.521 258.791 272.078C270.655 272.635 282.52 273.828 294.305 275.419C294.783 275.499 295.341 275.022 295.42 274.544C297.172 263.964 297.013 253.383 296.455 242.722C296.455 242.006 295.739 241.37 294.942 241.609C288.97 243.438 282.441 243.359 276.309 243.2C268.505 242.961 260.781 242.245 253.057 241.37C243.422 240.256 233.787 238.824 224.231 236.994C222.719 236.676 222.081 238.983 223.594 239.301C233.389 241.131 243.183 242.563 253.057 243.757C260.941 244.711 268.824 245.427 276.787 245.586C282.998 245.745 289.607 245.745 295.579 243.916C295.102 243.518 294.544 243.12 294.066 242.802C294.544 253.224 294.863 263.645 293.111 273.987C293.509 273.669 293.907 273.431 294.226 273.112C282.042 271.442 269.779 270.328 257.517 269.771C246.05 269.214 234.265 268.976 222.957 271.123C223.435 271.601 223.913 272.078 224.391 272.555C227.496 261.577 229.089 248.689 225.028 237.79C224.63 236.358 222.32 236.994 222.878 238.426Z" fill="white"/>
<path d="M216.905 282.261C212.526 287.193 209.579 292.046 203.767 295.308C203.13 295.706 202.97 296.66 203.528 297.217C224.072 315.674 245.413 333.892 269.381 347.814C269.859 348.132 270.416 347.973 270.815 347.655C281.644 338.188 287.855 324.107 291.04 310.264C291.2 309.469 290.642 308.832 289.926 308.753C283.396 308.196 276.866 305.889 270.655 303.82C262.772 301.115 255.048 298.092 247.324 294.91C237.609 290.853 227.894 286.636 218.418 282.181C217.065 281.545 215.791 283.613 217.224 284.25C226.939 288.864 236.813 293.16 246.687 297.217C254.65 300.479 262.692 303.661 270.815 306.446C276.946 308.514 283.396 310.662 289.926 311.219C289.527 310.742 289.129 310.185 288.811 309.707C285.705 323.152 279.813 336.836 269.222 345.984C269.7 345.905 270.177 345.825 270.655 345.825C246.846 332.062 225.665 313.924 205.28 295.626C205.2 296.263 205.12 296.899 205.041 297.535C211.172 294.115 214.118 289.262 218.737 284.091C219.613 282.818 217.941 281.147 216.905 282.261Z" fill="white"/>
<path d="M245.652 252.985C247.244 257.042 251.783 261.736 255.685 263.804C257.835 264.998 259.666 263.486 261.816 262.452C272.726 257.122 283.316 251.076 294.544 246.302C295.977 245.666 294.703 243.677 293.35 244.234C283.635 248.371 274.318 253.383 264.922 258.156C262.772 259.27 259.189 261.975 256.8 262.054C257.835 262.054 257.039 261.895 256.481 261.418C255.685 260.622 254.65 259.986 253.774 259.19C251.624 257.281 248.996 255.053 247.961 252.349C247.403 250.917 245.094 251.553 245.652 252.985Z" fill="white"/>
<defs>
<linearGradient id="paint0_linear" x1="110.26" y1="219.567" x2="107.766" y2="234.754" gradientUnits="userSpaceOnUse">
<stop stop-opacity="0"/>
<stop offset="1"/>
</linearGradient>
<linearGradient id="paint1_linear" x1="184.611" y1="303.145" x2="187.293" y2="337.622" gradientUnits="userSpaceOnUse">
<stop stop-opacity="0"/>
<stop offset="1"/>
</linearGradient>
<linearGradient id="paint2_linear" x1="200.026" y1="80.6569" x2="176.693" y2="261.766" gradientUnits="userSpaceOnUse">
<stop stop-color="#FDB43E"/>
<stop offset="0.4132" stop-color="#FDB23D"/>
<stop offset="0.6349" stop-color="#FDAA3A"/>
<stop offset="0.8111" stop-color="#FD9C34"/>
<stop offset="0.9626" stop-color="#FD892C"/>
<stop offset="1" stop-color="#FD8329"/>
</linearGradient>
</defs>
</svg>
