<svg width="78" height="134" viewBox="0 0 78 134" fill="none" xmlns="http://www.w3.org/2000/svg">
<path d="M7.31992 2.13293C10.7783 0.441627 22.265 0.562434 26.0939 0.562434C36.469 0.683242 46.7206 0.683242 57.0957 0.804049C60.06 0.804049 63.0243 0.924856 65.7416 1.89131C74.1405 5.1531 74.1405 15.7841 74.264 24.603C75.0051 59.6371 78.834 86.0938 74.3875 120.886C74.1405 122.819 73.8935 124.752 72.7818 126.323C70.6821 129.464 66.2356 129.947 62.5303 130.188C48.2027 130.913 26.2174 131.517 12.0134 129.584C9.66666 129.222 7.07289 128.86 5.34371 127.289C3.3675 125.477 2.74993 122.698 2.37939 120.161C1.5148 114.484 0.897238 95.0336 1.14426 89.3556C2.74993 55.1672 -1.44951 46.4691 1.5148 9.13974C1.5148 9.13974 2.37939 4.54907 7.31992 2.13293Z" fill="white"/>
<path d="M67.1893 21.1687L76.5763 20.6854C76.8233 20.6854 77.0704 20.4438 76.9468 20.2022C76.6998 13.1954 75.2177 6.18858 68.6715 3.65163C65.9542 2.56437 62.9899 2.56437 60.0256 2.56437C49.6505 2.44356 39.3989 2.44356 29.0238 2.32275C25.1949 2.32275 17.1665 2.68518 13.3376 3.0476C5.18575 3.89325 4.32116 10.9001 4.32116 10.9001C4.07413 14.5243 3.8271 17.9069 3.58008 21.0478C3.58008 21.2895 3.70359 21.5311 4.07413 21.5311C8.64411 21.5311 49.8975 21.7727 67.1893 21.1687Z" fill="#1E9CAE"/>
<path d="M2.69873 20.8065C24.0665 21.8938 47.459 19.1153 65.4919 20.8067C65.4919 20.8067 73.4145 21.8939 76.5023 20.8067" stroke="#574E56" stroke-width="1.7" stroke-miterlimit="10"/>
<path d="M2.69873 107.75L3.42828 117.239C3.42828 124.669 5.34356 128.518 8.9005 130.13C12.4574 131.741 21.3042 132.278 25.1347 132.457C28.9653 132.636 64.7171 131.831 67.818 131.293C70.919 130.756 72.8342 129.682 74.7495 125.743C76.2817 122.592 75.996 113.808 75.6616 109.809C68.0005 106.318 47.1148 106.497 37.9033 106.318C30.534 106.175 11.363 107.213 2.69873 107.75Z" fill="#1E9CAE"/>
<path d="M26.9565 12.2291C33.5027 11.3835 46.8421 12.2291 53.3883 12.2291" stroke="#574E56" stroke-width="1.7" stroke-miterlimit="10"/>
<path d="M62.8981 14.1619C64.0577 14.1619 64.9978 13.2424 64.9978 12.1082C64.9978 10.9739 64.0577 10.0544 62.8981 10.0544C61.7384 10.0544 60.7983 10.9739 60.7983 12.1082C60.7983 13.2424 61.7384 14.1619 62.8981 14.1619Z" fill="black"/>
<path d="M17.0394 52.1523C17.0394 59.7213 17.1496 66.8316 17.1496 74.4006C17.1496 75.4327 17.1496 76.5795 18.0311 77.3823C19.1331 78.4144 24.202 78.4144 25.8549 78.2998C33.1278 77.9557 44.6982 78.1851 51.8609 79.1025C54.2852 79.4466 57.3706 79.5613 58.3624 77.6117C58.6929 76.9236 58.6929 76.2355 58.6929 75.5474C58.4726 67.0609 58.142 58.5745 57.9216 50.088C57.9216 49.3999 57.8114 48.7118 57.2604 48.3678C56.8196 48.0237 56.1585 48.0237 55.4973 48.1384C50.208 48.3678 44.8084 48.5971 39.5191 48.7118C34.1195 48.8265 23.3205 48.9412 17.1496 49.0559V52.1523H17.0394Z" fill="#FFC476"/>
<path d="M15.4414 51.6247C15.4414 59.1937 15.5516 66.304 15.5516 73.873C15.5516 74.9051 15.5516 76.0519 16.4332 76.8547C17.5351 77.8868 22.6041 77.8868 24.257 77.7722C31.5298 77.4281 43.1003 77.6575 50.2629 78.5749C52.6872 78.919 55.7726 79.0337 56.7644 77.0841C57.095 76.396 57.095 75.7079 57.095 75.0198C56.8746 66.5333 56.544 58.0469 56.3236 49.5604C56.3236 48.8723 56.2134 48.1842 55.6625 47.8402C55.2217 47.4961 54.5605 47.4961 53.8993 47.6108C48.61 47.8402 43.2105 48.0696 37.9211 48.1842C32.5216 48.2989 21.7225 48.4136 15.5516 48.5283V51.6247H15.4414Z" stroke="#574E56" stroke-width="1.7" stroke-miterlimit="10"/>
<path d="M15.746 48.8726C19.8232 52.1984 31.6141 59.8821 35.6913 63.3225C36.3524 63.8959 37.234 64.4693 38.1155 64.1253C38.5563 63.8959 39.8787 62.7491 40.3194 62.4051C45.2782 58.2765 53.3224 52.3131 55.9671 48.0698" stroke="#574E56" stroke-width="1.7" stroke-miterlimit="10"/>
<path d="M66.9018 45.8908C66.9018 51.0515 62.8246 55.18 57.8658 55.18C52.9071 55.18 48.2789 50.9368 48.9401 45.8908C49.4911 40.9595 53.0173 36.6016 57.976 36.6016C62.9348 36.6016 66.9018 39.698 66.9018 45.8908Z" fill="#D4E6FF" stroke="#574E56" stroke-width="1.7" stroke-miterlimit="10"/>
<path d="M54.3708 44.0554C54.3708 44.0554 55.6931 45.8903 56.4645 46.9225C57.2359 47.9546 57.6766 48.7574 58.448 48.6427C59.1092 48.528 59.3295 47.7252 59.7703 46.5784C60.8723 43.9407 59.8805 46.1197 61.0927 43.5967" stroke="#574E56" stroke-width="1.7" stroke-miterlimit="10" stroke-linecap="round"/>
<path d="M8.55281 3.41039C12.0112 1.71909 23.4979 1.8399 27.3268 1.8399C37.7019 1.96071 47.9535 1.96071 58.3286 2.08151C61.2929 2.08151 66.5723 2.20232 69.2896 3.16878C77.6885 6.43057 76.3794 15.9462 76.5029 24.7651C76.5029 61.4853 77.7309 86.8802 75.6204 122.164C75.3734 124.097 75.1263 126.03 74.0147 127.6C71.915 130.741 67.4685 131.224 63.7631 131.466C49.4356 132.191 27.4503 132.795 13.2463 130.862C10.8996 130.499 8.30578 130.137 6.5766 128.567C4.60039 126.754 3.98282 123.976 3.61228 121.439C2.74769 115.761 2.13013 96.311 2.37715 90.6331C2.37686 55.6127 2.37734 50.855 2.74769 10.4172C2.74769 10.4172 3.61228 5.82653 8.55281 3.41039Z" stroke="#574E56" stroke-width="1.7" stroke-miterlimit="10"/>
<path d="M2.37744 107.425C6.82391 106.821 17.5695 106.942 22.1395 106.821C25.7214 106.7 29.1798 106.58 32.7617 106.459C36.5906 106.338 40.296 106.217 44.1249 106.338C53.0178 106.821 68.3334 107.546 76.9793 109.721" stroke="#574E56" stroke-width="1.7" stroke-miterlimit="10"/>
<path d="M38.8135 126.48C42.8195 126.48 46.067 123.303 46.067 119.385C46.067 115.467 42.8195 112.291 38.8135 112.291C34.8075 112.291 31.5601 115.467 31.5601 119.385C31.5601 123.303 34.8075 126.48 38.8135 126.48Z" fill="#D4E6FF" stroke="#574E56" stroke-width="1.7" stroke-miterlimit="10"/>
</svg>
