<svg width="151" height="76" viewBox="0 0 151 76" fill="none" xmlns="http://www.w3.org/2000/svg">
<path d="M45.1709 62.2922C55.1467 62.719 65.1225 63.0637 75.0984 63.4248C75.0984 63.2606 87.0256 63.1293 92.9893 62.8995C101.966 62.5384 110.958 62.0788 119.904 61.2745C124.775 60.8477 129.677 60.0106 134.391 58.681C142.431 56.4158 147.786 51.0483 149.207 42.1352C150.3 35.2904 150.268 28.3963 149.082 21.5515C147.817 14.2963 143.899 9.32269 137.155 7.12316C133.892 6.05622 130.551 5.20266 127.179 4.61174C112.878 2.11674 98.4221 1.65714 83.9658 1.41092C69.7124 1.16471 55.4433 1.11546 41.2368 2.59276C33.3841 3.41349 25.5315 4.25062 17.7413 5.5802C8.28065 7.18881 3.14442 12.8518 1.55204 22.8154C0.552896 28.9872 0.755847 35.2083 1.53643 41.3801C2.69169 50.4738 7.51568 56.383 15.9147 58.7795C19.6771 59.8628 23.58 60.4045 27.4517 61.0611C28.5133 61.2417 28.685 61.5864 28.6538 62.6369C28.5758 65.969 28.5757 69.3176 28.7006 72.6497C28.7163 73.4048 29.2158 74.5702 29.7466 74.7672C30.4179 75.0134 31.4327 74.603 32.182 74.2091C32.8221 73.8808 33.3217 73.2078 33.8213 72.6333C36.3503 69.7608 38.9419 66.9375 41.3304 63.9336C42.4232 62.5548 43.5629 62.2265 45.1709 62.2922Z" fill="white" stroke="#574E56" stroke-width="1.7"/>
<path d="M87.6628 47.12C87.4409 47.3901 87.219 47.6602 86.9812 47.9302C86.0618 48.9092 84.8412 49.2805 83.7949 48.6898C82.9706 48.2172 82.3682 47.1538 81.9244 46.2086C81.6232 45.601 81.7025 44.7401 81.6866 43.9975C81.6708 37.3979 81.6549 30.7984 81.6549 24.1819C81.6549 23.338 81.7183 22.4603 81.9085 21.6332C82.2731 20.131 83.1767 19.2365 84.7143 19.2027C86.2361 19.1689 87.219 19.9622 87.647 21.4644C87.8689 22.2746 87.9481 23.1523 87.9798 23.9962C88.0274 25.1609 87.9957 26.3255 87.9957 27.6927C89.9296 26.393 91.8953 25.8698 94.0036 26.2917C96.8094 26.8487 98.8226 28.621 100.265 31.1697C102.643 35.3894 102.231 41.3813 99.425 45.2803C97.1264 48.5041 92.1648 50.8671 87.6628 47.12ZM95.8107 37.5667C95.779 34.4104 94.1938 32.1149 91.8953 31.9799C89.4858 31.828 87.964 33.5158 87.5201 36.8578C87.5043 37.0097 87.4567 37.1785 87.4567 37.3304C87.2031 40.7737 89.2322 43.3899 91.9745 43.2211C94.2255 43.0692 95.8266 40.6893 95.8107 37.5667Z" fill="#D18BA7" stroke="#574E56" stroke-width="1.7"/>
<path d="M55.446 37.7353C56.5398 34.5452 57.5068 31.6927 58.4738 28.8402C59.2981 26.4266 60.1065 23.996 60.9625 21.5824C61.4539 20.1814 62.3258 19.2194 63.8634 19.2025C65.8449 19.1856 67.1131 20.5359 66.9863 22.6457C66.9546 23.3378 66.8119 24.0467 66.5741 24.6712C63.9268 31.8109 61.2637 38.9337 58.6006 46.0565C58.0933 47.3899 57.4434 48.5883 55.9216 48.7908C54.1779 49.0271 53.1316 48.3688 52.339 46.3265C50.738 42.225 49.2004 38.0897 47.631 33.9545C46.4421 30.815 45.2374 27.6925 44.0643 24.553C43.2876 22.4432 43.7473 20.6878 45.2215 19.7257C46.9652 18.5949 48.8358 19.1856 49.6918 21.3292C50.7539 23.996 51.6257 26.7473 52.561 29.4647C53.4962 32.0978 54.4157 34.7478 55.446 37.7353Z" fill="#D18BA7" stroke="#574E56" stroke-width="1.7"/>
<path d="M111.608 39.5077C112.607 42.4108 115.447 43.2789 117.731 43.2789C118.954 43.1512 119.11 43.1513 120.236 42.6618C121.686 42.0312 122.817 42.4848 123.562 43.6832C124.291 44.8647 123.625 46.9465 121.759 47.8964C119.334 49.1306 117.838 49.4154 114.256 48.8584C109.04 48.0483 105.569 43.6598 105.458 37.8873C105.347 32.081 108.597 27.4732 113.638 26.3254C120.01 24.8738 125.923 30.3257 125.495 37.229C125.4 38.7312 124.75 39.4401 123.085 39.4739C119.598 39.5245 116.126 39.4908 112.639 39.4908C112.354 39.5077 112.052 39.5077 111.608 39.5077ZM111.529 35.3724C114.24 35.3724 116.951 35.3724 119.693 35.3724C119.297 32.8406 117.822 31.4565 115.698 31.4396C113.416 31.4396 111.862 32.925 111.529 35.3724Z" fill="#D18BA7" stroke="#574E56" stroke-width="1.7"/>
<path d="M30.9193 49.9799C30.7133 49.9292 30.206 49.8448 29.7463 49.6423C20.0449 45.4564 13.181 38.2154 9.28137 27.8519C8.15588 24.8475 10.2959 21.0835 13.3395 20.746C14.0053 20.6785 14.9564 20.9654 15.3685 21.4718C16.7477 23.1596 18.0158 24.9656 19.2047 26.8223C20.0449 28.1388 19.6803 29.3203 18.4914 30.3162C16.6842 31.8353 16.5416 32.5104 17.5561 34.6709C18.9352 37.6247 21.1545 39.667 23.9603 41.0004C25.1334 41.5574 26.0369 41.3548 26.8612 40.2071C28.3196 38.1817 29.2232 38.0129 31.2205 39.3969C32.6947 40.4096 34.1373 41.5236 35.4688 42.7389C35.9761 43.1946 36.3724 44.0892 36.3724 44.7812C36.3566 46.8067 33.1228 49.9461 30.9193 49.9799Z" fill="#D18BA7" stroke="#574E56" stroke-width="1.7"/>
<path d="M133.615 27.9291C135.216 27.3553 136.532 26.6801 137.911 26.4438C139.29 26.2075 140.654 27.4397 140.971 28.79C141.351 30.3259 140.717 31.4399 139.48 32.1319C138.45 32.7058 137.372 33.1615 136.294 33.6004C134.709 34.2249 134.027 35.4064 134.059 37.1955C134.107 39.6598 134.107 42.141 134.059 44.6053C134.043 45.4492 133.901 46.3269 133.599 47.1033C133.14 48.3017 132.189 48.8587 130.952 48.8418C129.716 48.825 128.749 48.3017 128.352 47.0527C128.067 46.1075 127.909 45.061 127.893 44.0652C127.845 39.8286 127.861 35.5752 127.845 31.3218C127.845 31.0517 127.829 30.7816 127.845 30.5116C127.956 28.9081 128.194 27.3384 129.842 26.6801C131.539 26.0218 132.807 26.8151 133.615 27.9291Z" fill="#D18BA7" stroke="#574E56" stroke-width="1.7"/>
<path d="M76.5626 46.1744C76.6894 45.5499 76.5626 39.1191 76.5626 38.4777C76.5626 35.8109 76.7053 33.1103 76.515 30.4603C76.3882 28.6712 75.1042 27.7091 73.6458 27.8104C72.1557 27.8948 70.9985 28.975 70.9668 30.7473C70.8717 35.8277 70.8717 40.9251 70.9668 46.0056C70.9985 47.8285 72.1399 48.7906 73.6934 48.8243C75.342 48.8412 76.198 48.0817 76.5626 46.1744Z" fill="#D18BA7" stroke="#574E56" stroke-width="1.7"/>
<path d="M73.947 19.2023C75.7541 19.2023 77.1491 20.7214 77.1491 22.6793C77.1491 24.6541 75.77 26.1394 73.947 26.1563C72.0765 26.1732 70.6022 24.5866 70.6339 22.5949C70.6656 20.7045 72.124 19.2023 73.947 19.2023Z" fill="#D18BA7" stroke="#574E56" stroke-width="1.7"/>
<path d="M26.6495 27.6176C27.9915 27.5944 30.7932 28.5214 31.2645 32.4148" stroke="#574E56" stroke-width="1.7" stroke-linecap="round"/>
<path d="M25.6672 23.6464C28.4473 23.5984 34.2517 25.5188 35.2281 33.5849" stroke="#574E56" stroke-width="1.7" stroke-linecap="round"/>
<path d="M24.7066 19.4975C28.9224 19.4247 37.724 22.3369 39.2045 34.568" stroke="#574E56" stroke-width="1.7" stroke-linecap="round"/>
</svg>
