<svg width="115" height="102" viewBox="0 0 115 102" fill="none" xmlns="http://www.w3.org/2000/svg">
<path d="M50.6572 94.9918C50.6572 94.9918 -8.58486 49.6542 2.71915 21.5937C11.3752 -0.226576 33.6367 -2.04711 43.5045 12.0614C50.9439 22.7753 51.9497 24.346 51.9497 24.346C51.9497 24.346 68.4202 -3.88883 92.0163 5.61151C109.948 12.6286 109.932 24.2624 103.158 41.3392C96.3834 58.4159 50.6572 94.9918 50.6572 94.9918Z" fill="white"/>
<path d="M96.5637 8.55781C74.0688 -0.578523 57.871 23.6356 55.4184 27.5961L55.4183 99.7904C59.2575 96.5854 101.252 62.8222 107.895 45.8836C115.055 28.1253 115.053 15.9572 96.5637 8.55781Z" fill="#AEAEFF"/>
<path d="M56.6118 26.0437C56.6118 26.0437 55.47 24.4776 47.8767 13.2341C37.719 -1.39953 14.6417 0.448524 5.60928 23.2175C-5.9261 52.4893 55.151 99.7707 55.151 99.7707C55.151 99.7707 55.2825 99.6326 55.4139 99.4944L56.8657 25.5003C56.7387 25.772 56.6118 26.0437 56.6118 26.0437Z" fill="white"/>
<path d="M54.3913 96.7383C54.3913 96.7383 -4.85072 51.4007 6.45329 23.3402C15.1093 1.5199 37.5023 -0.438784 47.2342 13.6744C54.6735 24.3882 55.6793 25.9589 55.6793 25.9589C55.6793 25.9589 72.1498 -2.27591 95.746 7.22443C113.682 14.3751 113.666 26.0089 106.892 43.0857C100.118 60.1624 54.3913 96.7383 54.3913 96.7383Z" stroke="#574E56" stroke-width="1.7" stroke-miterlimit="10" stroke-linecap="round"/>
<path d="M37.0517 34.6103C37.2335 31.9299 36.7085 28.471 32.4847 28.346C31.2566 28.2537 30.0374 28.4285 29.1082 29.1284C27.2453 30.3947 25.9578 32.5776 25.631 34.9955C25.3042 37.4134 26.0651 39.7947 27.4878 41.6187C28.3396 42.6597 29.5947 43.5534 30.9544 43.5075C31.4982 43.4892 32.0375 43.3373 32.4364 43.0564C34.8477 41.9054 36.2622 39.4508 36.7114 36.6276C37.1697 34.0715 37.0751 31.2666 36.9805 28.4618C37.374 32.0589 37.0697 35.1446 36.2531 39.1836C36.0173 40.2613 37.141 41.2932 37.5849 42.3479C38.1648 43.3981 39.0076 44.172 40.0998 44.2688C41.3279 44.3611 42.529 43.652 43.4492 42.685C45.8155 40.1983 46.777 36.4218 46.5239 32.9537C46.2708 29.4856 44.6627 26.197 42.5286 23.4609C41.3959 22.1619 40.1272 20.8675 38.6091 20.2502C35.0201 18.7666 29.8401 18.5402 26.3501 19.995C20.8478 22.3201 18.0459 28.0307 16.4909 30.3563C15.1989 32.4056 14.7406 34.9617 14.9577 37.3612C15.1747 39.7608 16.0716 42.1375 17.3628 44.0997C19.9587 48.4248 24.1502 51.6263 28.9358 52.2672" stroke="#574E56" stroke-width="1.7" stroke-miterlimit="10" stroke-linecap="round"/>
<path d="M90.4351 27.3273C91.0564 25.568 89.4887 23.4815 87.5717 23.145C85.6593 22.942 83.7919 24.0747 82.6223 25.7188C81.4527 27.3628 81.1079 29.2465 80.6271 31.1347C79.1074 38.5404 78.5484 46.1811 78.8051 53.7942" stroke="#574E56" stroke-width="1.7" stroke-miterlimit="10" stroke-linecap="round"/>
<path d="M70.8306 43.3655C74.1801 41.7817 77.5296 40.1978 81.187 39.6733C82.5421 39.4939 83.9062 39.5816 85.2658 39.5358C86.6254 39.4899 87.9895 39.5776 89.3491 39.5318" stroke="#574E56" stroke-width="1.7" stroke-miterlimit="10" stroke-linecap="round"/>
<path d="M74.9992 71.2605C75.0475 71.1595 75.0881 71.0801 75.1204 71.0205L75.2407 70.9603L75.3522 70.6417L75.3576 70.628C75.3647 70.6106 75.3784 70.5782 75.4 70.5316C75.4433 70.4386 75.5187 70.2887 75.6378 70.0882C75.8758 69.6873 76.2894 69.082 76.972 68.3223C78.337 66.803 80.7834 64.6595 85.0629 62.2985C89.143 60.0473 93.7297 60.2108 97.914 61.6457C102.107 63.0836 105.801 65.77 108 68.3995C112.365 73.6185 113.848 82.74 109.304 91.1502L109.302 91.1538C104.84 99.5094 95.2981 102.073 86.3328 100.124C81.8896 99.1577 79.2609 97.4174 77.4461 95.3118C75.7205 93.3096 74.6911 90.9417 73.5716 88.3662C73.4928 88.185 73.4136 88.0028 73.3337 87.8197C71.993 84.6245 72.3414 80.4476 73.1435 76.9307C73.5401 75.1917 74.0374 73.6576 74.4578 72.5514C74.6682 71.9976 74.8563 71.559 74.9992 71.2605Z" fill="#FF7BAA" stroke="#574E56" stroke-width="1.7"/>
<path d="M91.0486 74.8593C91.5728 74.2302 92.202 73.7059 92.5165 72.972C92.7262 72.238 92.6214 71.3992 92.6214 70.6652C92.6214 69.9313 92.8311 69.0925 93.4602 68.5682C94.1941 68.0439 95.1378 68.2536 95.7669 68.7779C96.396 69.3022 96.7106 70.141 96.8154 70.9798C97.0251 72.972 96.1863 74.8593 95.1378 76.6418C97.0251 76.0127 99.227 75.9078 101.219 76.3272C101.743 76.4321 102.373 76.6418 102.792 76.9563C103.211 77.2709 103.631 77.7952 103.631 78.3194C103.631 78.7388 103.421 79.2631 103.107 79.5776C103.002 79.6825 102.792 79.7873 102.687 79.997C102.582 80.3116 102.897 80.6262 103.107 80.8359C103.736 81.5698 103.526 82.828 102.897 83.6669C102.792 83.7717 102.687 83.9814 102.582 84.0863C102.477 84.5057 102.792 84.8202 102.897 85.2396C103.002 85.659 103.002 86.1833 102.687 86.4978C102.477 86.8124 102.058 87.0221 101.848 87.3367C101.534 87.9658 102.268 88.8046 101.848 89.4337C101.639 89.7483 101.324 89.8531 101.009 89.8531C98.0736 90.5871 95.033 90.1677 91.9922 89.7483C91.0486 89.6434 90.0001 89.4337 89.0564 89.3288C88.8467 89.3288 88.637 89.224 88.4273 89.1191C88.2176 88.9094 88.2176 88.6997 88.2176 88.49C88.1127 86.2881 88.0079 84.0863 87.903 81.8844C87.903 80.8359 87.7982 79.7873 88.3224 78.8437C88.5321 78.2146 88.8467 77.4806 89.371 76.6418C90.0001 76.0127 90.5243 75.3836 91.0486 74.8593Z" fill="white"/>
<path d="M86.5307 78.0541C85.1307 78.0541 83.7308 78.0541 82.3308 78.0541C82.1308 78.0541 81.9308 78.0541 81.8308 78.1541C81.4308 78.3541 81.3308 78.7541 81.2308 79.1541C80.6308 81.9541 80.9307 84.9541 81.1307 87.8541C81.1307 88.3541 81.2307 88.8541 81.4307 89.2541C82.0307 90.1541 83.2308 90.2541 84.3308 90.2541C84.5308 90.2541 84.7307 90.2541 85.0307 90.1541C85.5307 89.9541 85.7307 89.4541 85.9307 89.0541C86.7307 86.6541 85.9308 83.9541 86.3308 81.4541C86.5308 80.1541 86.8307 79.0541 86.5307 78.0541Z" fill="white"/>
</svg>
