<svg width="269" height="412" viewBox="0 0 269 412" fill="none" xmlns="http://www.w3.org/2000/svg">
<path d="M0 25C0 11.1929 11.1929 0 25 0H244C257.807 0 269 11.1929 269 25V387C269 400.807 257.807 412 244 412H25C11.1929 412 0 400.807 0 387V25Z" fill="#F3F5F7"/>
<path d="M269 387C269 400.807 257.807 412 244 412L25 412C11.1929 412 9.78513e-07 400.807 2.18557e-06 387L1.18895e-05 276L269 276L269 387Z" fill="#E8EAEC"/>
<path d="M52.9889 292.364V304H55.1139L60.1764 296.676H60.2617V304H62.7219V292.364H60.5628L55.5401 299.682H55.4378V292.364H52.9889ZM66.6159 295.273H64.3034V304H66.6159V300.574H69.5989V304H71.8943V295.273H69.5989V298.67H66.6159V295.273ZM72.5114 297.176H75.3011V304H77.608V297.176H80.4205V295.273H72.5114V297.176ZM85.1526 304.17C87.3117 304.17 88.7662 303.119 89.1071 301.5L86.8685 301.352C86.6242 302.017 85.9992 302.364 85.1923 302.364C83.9821 302.364 83.2151 301.562 83.2151 300.261V300.256H89.1582V299.591C89.1582 296.625 87.3628 295.159 85.056 295.159C82.4878 295.159 80.823 296.983 80.823 299.676C80.823 302.443 82.4651 304.17 85.1526 304.17ZM83.2151 298.756C83.2662 297.761 84.0219 296.966 85.0957 296.966C86.1469 296.966 86.8742 297.716 86.8798 298.756H83.2151ZM96.3151 295.273H90.3378V304H92.6901V297.176H96.3151V295.273ZM97.3909 307.273H99.8114V302.602H99.8852C100.22 303.33 100.953 304.142 102.363 304.142C104.351 304.142 105.902 302.568 105.902 299.648C105.902 296.648 104.283 295.159 102.368 295.159C100.908 295.159 100.209 296.028 99.8852 296.739H99.7773V295.273H97.3909V307.273ZM99.7602 299.636C99.7602 298.08 100.419 297.085 101.595 297.085C102.794 297.085 103.431 298.125 103.431 299.636C103.431 301.159 102.783 302.216 101.595 302.216C100.431 302.216 99.7602 301.193 99.7602 299.636ZM109.605 304.165C110.894 304.165 111.73 303.602 112.156 302.79H112.224V304H114.519V298.114C114.519 296.034 112.758 295.159 110.815 295.159C108.724 295.159 107.349 296.159 107.014 297.75L109.252 297.932C109.417 297.352 109.934 296.926 110.803 296.926C111.627 296.926 112.099 297.341 112.099 298.057V298.091C112.099 298.653 111.502 298.727 109.985 298.875C108.258 299.034 106.707 299.614 106.707 301.562C106.707 303.29 107.94 304.165 109.605 304.165ZM110.298 302.494C109.553 302.494 109.019 302.148 109.019 301.483C109.019 300.801 109.582 300.466 110.434 300.347C110.963 300.273 111.826 300.148 112.116 299.955V300.881C112.116 301.795 111.36 302.494 110.298 302.494ZM123.628 295.273H121.344V302.097H118.31V295.273H115.997V304H123.628V306.807H125.98V302.33H123.628V295.273ZM129.332 300.807V295.273H127.019V304H129.422L132.553 298.449V304H134.86V295.273H132.474L129.332 300.807ZM141.514 304H143.77V295.273H139.878C137.616 295.273 136.207 296.432 136.218 298.136C136.213 299.199 136.809 300.028 137.849 300.483L135.968 304H138.287L139.963 300.852H141.514V304ZM141.514 299.216H139.855C138.974 299.216 138.514 298.773 138.525 298.205C138.514 297.648 138.986 297.17 139.878 297.17H141.514V299.216ZM152.497 304.17C154.82 304.17 156.281 302.807 156.394 300.801H154.11C153.968 301.733 153.355 302.256 152.525 302.256C151.394 302.256 150.661 301.307 150.661 299.636C150.661 297.989 151.4 297.045 152.525 297.045C153.411 297.045 153.98 297.631 154.11 298.5H156.394C156.292 296.483 154.764 295.159 152.485 295.159C149.837 295.159 148.201 296.994 148.201 299.67C148.201 302.324 149.809 304.17 152.497 304.17ZM168.609 296.125H171.109C170.79 293.824 168.762 292.205 166.131 292.205C163.057 292.205 160.688 294.42 160.688 298.193C160.688 301.875 162.904 304.159 166.182 304.159C169.12 304.159 171.216 302.301 171.216 299.239V297.773H166.347V299.625H168.847C168.813 301.068 167.83 301.983 166.194 301.983C164.347 301.983 163.182 300.602 163.182 298.17C163.182 295.75 164.393 294.381 166.171 294.381C167.438 294.381 168.296 295.034 168.609 296.125ZM176.562 304.17C179.21 304.17 180.858 302.358 180.858 299.67C180.858 296.966 179.21 295.159 176.562 295.159C173.915 295.159 172.267 296.966 172.267 299.67C172.267 302.358 173.915 304.17 176.562 304.17ZM176.574 302.295C175.352 302.295 174.727 301.176 174.727 299.653C174.727 298.131 175.352 297.006 176.574 297.006C177.772 297.006 178.397 298.131 178.397 299.653C178.397 301.176 177.772 302.295 176.574 302.295ZM185.975 304.17C188.622 304.17 190.27 302.358 190.27 299.67C190.27 296.966 188.622 295.159 185.975 295.159C183.327 295.159 181.679 296.966 181.679 299.67C181.679 302.358 183.327 304.17 185.975 304.17ZM185.986 302.295C184.764 302.295 184.139 301.176 184.139 299.653C184.139 298.131 184.764 297.006 185.986 297.006C187.185 297.006 187.81 298.131 187.81 299.653C187.81 301.176 187.185 302.295 185.986 302.295ZM195.376 307.398C197.87 307.398 199.643 306.261 199.643 304.085V295.273H197.239V296.739H197.149C196.825 296.028 196.114 295.159 194.654 295.159C192.739 295.159 191.12 296.648 191.12 299.619C191.12 302.523 192.694 303.875 194.66 303.875C196.052 303.875 196.83 303.176 197.149 302.455H197.251V304.051C197.251 305.193 196.484 305.659 195.433 305.659C194.364 305.659 193.825 305.193 193.626 304.722L191.387 305.023C191.677 306.341 193.024 307.398 195.376 307.398ZM195.427 302.057C194.239 302.057 193.592 301.114 193.592 299.608C193.592 298.125 194.228 297.085 195.427 297.085C196.603 297.085 197.262 298.08 197.262 299.608C197.262 301.148 196.592 302.057 195.427 302.057ZM203.589 292.364H201.169V304H203.589V292.364ZM209.106 304.17C211.265 304.17 212.719 303.119 213.06 301.5L210.822 301.352C210.577 302.017 209.952 302.364 209.145 302.364C207.935 302.364 207.168 301.562 207.168 300.261V300.256H213.111V299.591C213.111 296.625 211.316 295.159 209.009 295.159C206.441 295.159 204.776 296.983 204.776 299.676C204.776 302.443 206.418 304.17 209.106 304.17ZM207.168 298.756C207.219 297.761 207.975 296.966 209.049 296.966C210.1 296.966 210.827 297.716 210.833 298.756H207.168ZM24.7483 328L25.6119 325.347H29.8108L30.6744 328H33.3108L29.2994 316.364H26.129L22.1119 328H24.7483ZM26.2369 323.426L27.6687 319.023H27.7597L29.1915 323.426H26.2369ZM36.6864 322.955C36.692 321.83 37.3625 321.17 38.3398 321.17C39.3114 321.17 39.8966 321.807 39.8909 322.875V328H42.3114V322.443C42.3114 320.409 41.1182 319.159 39.3 319.159C38.0045 319.159 37.067 319.795 36.675 320.812H36.5727V319.273H34.2659V328H36.6864V322.955ZM46.3077 328.165C47.5974 328.165 48.4327 327.602 48.8588 326.79H48.927V328H51.2224V322.114C51.2224 320.034 49.4611 319.159 47.5179 319.159C45.427 319.159 44.052 320.159 43.7168 321.75L45.9554 321.932C46.1202 321.352 46.6372 320.926 47.5065 320.926C48.3304 320.926 48.802 321.341 48.802 322.057V322.091C48.802 322.653 48.2054 322.727 46.6884 322.875C44.9611 323.034 43.4099 323.614 43.4099 325.562C43.4099 327.29 44.6429 328.165 46.3077 328.165ZM47.0009 326.494C46.2565 326.494 45.7224 326.148 45.7224 325.483C45.7224 324.801 46.2849 324.466 47.1372 324.347C47.6656 324.273 48.5293 324.148 48.819 323.955V324.881C48.819 325.795 48.0634 326.494 47.0009 326.494ZM55.1207 316.364H52.7003V328H55.1207V316.364ZM58.154 331.256C59.9551 331.256 60.9153 330.341 61.404 328.943L64.796 319.284L62.2335 319.273L60.4097 325.682H60.3187L58.5119 319.273H55.9665L59.0972 328.25L58.9551 328.619C58.6142 329.409 58.029 329.466 57.1767 329.199L56.6312 331.011C56.9778 331.153 57.5403 331.256 58.154 331.256ZM70.2767 319.273H68.6347V317.182H66.2142V319.273H65.021V321.091H66.2142V325.636C66.2028 327.347 67.3676 328.193 69.1233 328.119C69.7483 328.097 70.1915 327.972 70.4358 327.892L70.0551 326.091C69.9358 326.114 69.6801 326.17 69.4528 326.17C68.9699 326.17 68.6347 325.989 68.6347 325.318V321.091H70.2767V319.273ZM71.4534 328H73.8739V319.273H71.4534V328ZM72.6693 318.148C73.3909 318.148 73.9818 317.597 73.9818 316.92C73.9818 316.25 73.3909 315.699 72.6693 315.699C71.9534 315.699 71.3625 316.25 71.3625 316.92C71.3625 317.597 71.9534 318.148 72.6693 318.148ZM79.356 328.17C81.6798 328.17 83.1401 326.807 83.2537 324.801H80.9696C80.8276 325.733 80.2139 326.256 79.3844 326.256C78.2537 326.256 77.5207 325.307 77.5207 323.636C77.5207 321.989 78.2594 321.045 79.3844 321.045C80.2707 321.045 80.8389 321.631 80.9696 322.5H83.2537C83.1514 320.483 81.623 319.159 79.3446 319.159C76.6969 319.159 75.0605 320.994 75.0605 323.67C75.0605 326.324 76.6685 328.17 79.356 328.17ZM91.6648 321.761C91.4489 320.153 90.1534 319.159 87.9489 319.159C85.7159 319.159 84.2443 320.193 84.25 321.875C84.2443 323.182 85.0682 324.028 86.7727 324.369L88.2841 324.67C89.0455 324.824 89.392 325.102 89.4034 325.54C89.392 326.057 88.8295 326.426 87.983 326.426C87.1193 326.426 86.5455 326.057 86.3977 325.347L84.017 325.472C84.2443 327.142 85.6648 328.17 87.9773 328.17C90.2386 328.17 91.858 327.017 91.8636 325.295C91.858 324.034 91.0341 323.278 89.3409 322.932L87.7614 322.614C86.9489 322.438 86.6477 322.159 86.6534 321.739C86.6477 321.216 87.2386 320.875 87.9886 320.875C88.8295 320.875 89.3295 321.335 89.4489 321.898L91.6648 321.761ZM98.6034 324.807V319.273H96.2909V328H98.6943L101.825 322.449V328H104.132V319.273H101.745L98.6034 324.807ZM117.498 328V316.364H112.907C110.265 316.364 108.737 317.852 108.737 320.165C108.737 321.756 109.47 322.909 110.793 323.477L108.322 328H111.038L113.242 323.875H115.038V328H117.498ZM115.038 321.898H113.367C111.958 321.898 111.271 321.318 111.271 320.165C111.271 319.006 111.958 318.375 113.379 318.375H115.038V321.898ZM121.388 319.273H119.075V328H121.388V324.574H124.371V328H126.666V319.273H124.371V322.67H121.388V319.273ZM127.462 330.557H129.826V328H135.161V330.557H137.468V326.08H136.116V319.273H129.422L129.195 322.125C129.059 323.841 128.894 325.597 128.133 326.08H127.462V330.557ZM130.542 326.08C131.059 325.267 131.258 323.989 131.388 322.125L131.479 321.136H133.832V326.08H130.542ZM142.456 328.17C144.615 328.17 146.069 327.119 146.41 325.5L144.172 325.352C143.927 326.017 143.302 326.364 142.495 326.364C141.285 326.364 140.518 325.562 140.518 324.261V324.256H146.461V323.591C146.461 320.625 144.666 319.159 142.359 319.159C139.791 319.159 138.126 320.983 138.126 323.676C138.126 326.443 139.768 328.17 142.456 328.17ZM140.518 322.756C140.569 321.761 141.325 320.966 142.399 320.966C143.45 320.966 144.177 321.716 144.183 322.756H140.518ZM147.641 328H150.061V324.903H150.965L153.118 328H155.993L152.874 323.602L155.959 319.273H153.118L150.743 322.659H150.061V319.273H147.641V328ZM160.2 328.17C162.524 328.17 163.984 326.807 164.097 324.801H161.813C161.671 325.733 161.058 326.256 160.228 326.256C159.097 326.256 158.364 325.307 158.364 323.636C158.364 321.989 159.103 321.045 160.228 321.045C161.114 321.045 161.683 321.631 161.813 322.5H164.097C163.995 320.483 162.467 319.159 160.188 319.159C157.541 319.159 155.904 320.994 155.904 323.67C155.904 326.324 157.512 328.17 160.2 328.17ZM166.662 328.148C167.389 328.148 168.02 327.54 168.026 326.784C168.02 326.04 167.389 325.432 166.662 325.432C165.912 325.432 165.293 326.04 165.298 326.784C165.293 327.54 165.912 328.148 166.662 328.148ZM169.658 316.364V328H172.045V320.398H172.141L175.153 327.943H176.778L179.789 320.426H179.886V328H182.272V316.364H179.238L176.033 324.182H175.897L172.692 316.364H169.658ZM187.831 328.17C189.99 328.17 191.444 327.119 191.785 325.5L189.547 325.352C189.302 326.017 188.677 326.364 187.87 326.364C186.66 326.364 185.893 325.562 185.893 324.261V324.256H191.836V323.591C191.836 320.625 190.041 319.159 187.734 319.159C185.166 319.159 183.501 320.983 183.501 323.676C183.501 326.443 185.143 328.17 187.831 328.17ZM185.893 322.756C185.944 321.761 186.7 320.966 187.774 320.966C188.825 320.966 189.552 321.716 189.558 322.756H185.893ZM192.343 321.176H195.132V328H197.439V321.176H200.252V319.273H192.343V321.176ZM201.319 331.273H203.739V326.602H203.813C204.149 327.33 204.882 328.142 206.291 328.142C208.279 328.142 209.83 326.568 209.83 323.648C209.83 320.648 208.211 319.159 206.296 319.159C204.836 319.159 204.137 320.028 203.813 320.739H203.705V319.273H201.319V331.273ZM203.688 323.636C203.688 322.08 204.347 321.085 205.524 321.085C206.722 321.085 207.359 322.125 207.359 323.636C207.359 325.159 206.711 326.216 205.524 326.216C204.359 326.216 203.688 325.193 203.688 323.636ZM213.357 324.807V319.273H211.044V328H213.447L216.578 322.449V328H218.885V319.273H216.499L213.357 324.807ZM220.425 328H222.846V324.903H223.749L225.903 328H228.778L225.658 323.602L228.743 319.273H225.903L223.528 322.659H222.846V319.273H220.425V328ZM232.984 328.17C235.632 328.17 237.28 326.358 237.28 323.67C237.28 320.966 235.632 319.159 232.984 319.159C230.336 319.159 228.689 320.966 228.689 323.67C228.689 326.358 230.336 328.17 232.984 328.17ZM232.995 326.295C231.774 326.295 231.149 325.176 231.149 323.653C231.149 322.131 231.774 321.006 232.995 321.006C234.194 321.006 234.819 322.131 234.819 323.653C234.819 325.176 234.194 326.295 232.995 326.295ZM240.766 324.807V319.273H238.453V328H240.857L243.988 322.449V328H246.294V319.273H243.908L240.766 324.807ZM243.493 316.227C243.493 316.761 243.175 317.244 242.368 317.244C241.539 317.244 241.232 316.75 241.238 316.227H239.561C239.561 317.602 240.647 318.523 242.368 318.523C244.09 318.523 245.175 317.602 245.181 316.227H243.493Z" fill="black"/>
<path d="M29.8561 344.909C29.8561 341.688 27.9669 339.679 25.3618 339.679C22.7567 339.679 20.8675 341.688 20.8675 344.909C20.8675 348.131 22.7567 350.139 25.3618 350.139C27.9669 350.139 29.8561 348.131 29.8561 344.909ZM28.6629 344.909C28.6629 347.554 27.2112 348.986 25.3618 348.986C23.5123 348.986 22.0606 347.554 22.0606 344.909C22.0606 342.264 23.5123 340.832 25.3618 340.832C27.2112 340.832 28.6629 342.264 28.6629 344.909ZM31.1327 343.457H33.6582V350H34.8315V343.457H37.3372V342.364H31.1327V343.457ZM41.5545 350.159C43.2448 350.159 44.3584 349.125 44.5573 347.773H43.384C43.1653 348.608 42.4692 349.105 41.5545 349.105C40.1624 349.105 39.2675 347.952 39.2675 346.182C39.2675 344.452 40.1823 343.318 41.5545 343.318C42.5885 343.318 43.205 343.955 43.384 344.651H44.5573C44.3584 343.219 43.1454 342.264 41.5346 342.264C39.4664 342.264 38.0942 343.895 38.0942 346.222C38.0942 348.509 39.4067 350.159 41.5545 350.159ZM45.3964 350H45.7941C47.4844 350 47.9716 348.688 48.081 346.182L48.2003 343.457H51.0043V350H52.1776V342.364H47.0867L46.9475 345.744C46.8481 348.31 46.5895 348.906 45.6748 348.906H45.3964V350ZM57.332 350.159C58.8832 350.159 60.0167 349.384 60.3746 348.23L59.2411 347.912C58.9428 348.707 58.2518 349.105 57.332 349.105C55.9549 349.105 55.0053 348.215 54.9506 346.58H60.4939V346.082C60.4939 343.239 58.8036 342.264 57.2127 342.264C55.1445 342.264 53.7724 343.895 53.7724 346.241C53.7724 348.588 55.1246 350.159 57.332 350.159ZM54.9506 345.565C55.0302 344.377 55.8704 343.318 57.2127 343.318C58.4854 343.318 59.3008 344.273 59.3008 345.565H54.9506ZM61.3964 350H62.8083L65.4134 346.719H66.01V350H67.1833V346.719H67.7799L70.3651 350H71.7771L68.6947 346.122L71.7373 342.364H70.3453L67.7998 345.625H67.1833V342.364H66.01V345.625H65.3737L62.8282 342.364H61.4362L64.4987 346.122L61.3964 350ZM74.427 348.27V342.364H73.2537V350H74.6259L78.285 344.094V350H79.4583V342.364H78.106L74.427 348.27ZM81.4073 350H85.0067C86.5578 350 87.4925 349.125 87.4925 347.952C87.4925 346.754 86.5827 346.107 85.7425 345.983C86.6026 345.804 87.2141 345.322 87.2141 344.392C87.2141 343.174 86.17 342.364 84.5294 342.364H81.4073V350ZM82.5209 348.926V346.58H85.0067C85.8121 346.58 86.2993 347.062 86.2993 347.852C86.2993 348.518 85.8121 348.926 85.0067 348.926H82.5209ZM82.5209 345.565V343.438H84.5294C85.4691 343.438 86.0408 343.83 86.0408 344.472C86.0408 345.153 85.4691 345.565 84.5294 345.565H82.5209ZM91.3158 350.179C92.6481 350.179 93.3442 349.463 93.5828 348.966H93.6425V350H94.8158V344.969C94.8158 342.543 92.9663 342.264 91.9919 342.264C90.8385 342.264 89.526 342.662 88.9294 344.054L90.043 344.452C90.3015 343.895 90.9131 343.298 92.0317 343.298C93.1105 343.298 93.6425 343.87 93.6425 344.849V344.889C93.6425 345.456 93.0658 345.406 91.6737 345.585C90.2568 345.769 88.7106 346.082 88.7106 347.832C88.7106 349.324 89.864 350.179 91.3158 350.179ZM91.4947 349.125C90.5601 349.125 89.8839 348.707 89.8839 347.892C89.8839 346.997 90.6993 346.719 91.614 346.599C92.1112 346.54 93.4436 346.401 93.6425 346.162V347.236C93.6425 348.19 92.8868 349.125 91.4947 349.125ZM97.9306 348.27V342.364H96.7573V350H98.1294L101.789 344.094V350H102.962V342.364H101.61L97.9306 348.27ZM100.834 339.818C100.834 340.335 100.556 340.793 99.8595 340.793C99.1635 340.793 98.905 340.335 98.905 339.818H97.8112C97.8112 340.892 98.6067 341.648 99.8595 341.648C101.132 341.648 101.928 340.892 101.928 339.818H100.834ZM103.872 343.457H106.397V350H107.571V343.457H110.076V342.364H103.872V343.457ZM114.393 350.159C115.944 350.159 117.078 349.384 117.436 348.23L116.302 347.912C116.004 348.707 115.313 349.105 114.393 349.105C113.016 349.105 112.066 348.215 112.012 346.58H117.555V346.082C117.555 343.239 115.865 342.264 114.274 342.264C112.205 342.264 110.833 343.895 110.833 346.241C110.833 348.588 112.186 350.159 114.393 350.159ZM112.012 345.565C112.091 344.377 112.931 343.318 114.274 343.318C115.546 343.318 116.362 344.273 116.362 345.565H112.012ZM122.877 350H124.05V343.457H127.71V350H128.883V342.364H122.877V350ZM130.826 352.864H131.999V348.827H132.098C132.357 349.244 132.854 350.159 134.326 350.159C136.235 350.159 137.567 348.628 137.567 346.202C137.567 343.795 136.235 342.264 134.306 342.264C132.814 342.264 132.357 343.179 132.098 343.577H131.959V342.364H130.826V352.864ZM131.979 346.182C131.979 344.472 132.735 343.318 134.167 343.318C135.658 343.318 136.394 344.571 136.394 346.182C136.394 347.812 135.638 349.105 134.167 349.105C132.755 349.105 131.979 347.912 131.979 346.182ZM142.259 350.159C144.327 350.159 145.719 348.588 145.719 346.222C145.719 343.835 144.327 342.264 142.259 342.264C140.191 342.264 138.799 343.835 138.799 346.222C138.799 348.588 140.191 350.159 142.259 350.159ZM142.259 349.105C140.688 349.105 139.972 347.753 139.972 346.222C139.972 344.69 140.688 343.318 142.259 343.318C143.83 343.318 144.546 344.69 144.546 346.222C144.546 347.753 143.83 349.105 142.259 349.105ZM146.495 352.188H147.668V350H153.316V352.188H154.489V348.906H153.316V342.364H148.464L148.205 345.386C148.021 347.524 147.748 348.26 147.131 348.906H146.495V352.188ZM148.464 348.906C149.001 348.2 149.195 346.982 149.359 345.386L149.558 343.457H152.143V348.906H148.464ZM158.094 350.179C159.426 350.179 160.122 349.463 160.361 348.966H160.421V350H161.594V344.969C161.594 342.543 159.744 342.264 158.77 342.264C157.617 342.264 156.304 342.662 155.708 344.054L156.821 344.452C157.08 343.895 157.691 343.298 158.81 343.298C159.889 343.298 160.421 343.87 160.421 344.849V344.889C160.421 345.456 159.844 345.406 158.452 345.585C157.035 345.769 155.489 346.082 155.489 347.832C155.489 349.324 156.642 350.179 158.094 350.179ZM158.273 349.125C157.338 349.125 156.662 348.707 156.662 347.892C156.662 346.997 157.477 346.719 158.392 346.599C158.889 346.54 160.222 346.401 160.421 346.162V347.236C160.421 348.19 159.665 349.125 158.273 349.125ZM163.058 350H164.47L167.075 346.719H167.672V350H168.845V346.719H169.442L172.027 350H173.439L170.356 346.122L173.399 342.364H172.007L169.462 345.625H168.845V342.364H167.672V345.625H167.035L164.49 342.364H163.098L166.16 346.122L163.058 350ZM176.089 348.27V342.364H174.915V350H176.288L179.947 344.094V350H181.12V342.364H179.768L176.089 348.27ZM187.98 348.27V342.364H186.806V350H188.179L191.838 344.094V350H193.011V342.364H191.659L187.98 348.27ZM194.483 348.051C194.523 349.304 195.721 350.159 197.346 350.159C199.017 350.159 200.23 349.264 200.23 347.872C200.23 346.918 199.658 346.142 198.798 346.082V346.003C199.524 345.779 200.071 345.252 200.071 344.392C200.071 343.184 199.037 342.264 197.426 342.264C195.835 342.264 194.701 343.139 194.662 344.372H195.895C195.929 343.741 196.591 343.298 197.486 343.298C198.375 343.298 198.878 343.751 198.878 344.432C198.878 345.068 198.44 345.545 197.505 345.545H196.193V346.599H197.505C198.44 346.599 199.037 347.112 199.037 347.872C199.037 348.742 198.266 349.105 197.326 349.105C196.407 349.105 195.79 348.742 195.736 348.051H194.483ZM205.415 350H206.589V343.457H210.248V350H211.421V342.364H205.415V350ZM214.537 348.27V342.364H213.364V350H214.736L218.395 344.094V350H219.568V342.364H218.216L214.537 348.27ZM224.62 350.159C226.31 350.159 227.424 349.125 227.623 347.773H226.449C226.23 348.608 225.534 349.105 224.62 349.105C223.228 349.105 222.333 347.952 222.333 346.182C222.333 344.452 223.248 343.318 224.62 343.318C225.654 343.318 226.27 343.955 226.449 344.651H227.623C227.424 343.219 226.211 342.264 224.6 342.264C222.532 342.264 221.159 343.895 221.159 346.222C221.159 348.509 222.472 350.159 224.62 350.159ZM232.339 350.159C233.891 350.159 235.024 349.384 235.382 348.23L234.249 347.912C233.95 348.707 233.259 349.105 232.339 349.105C230.962 349.105 230.013 348.215 229.958 346.58H235.501V346.082C235.501 343.239 233.811 342.264 232.22 342.264C230.152 342.264 228.78 343.895 228.78 346.241C228.78 348.588 230.132 350.159 232.339 350.159ZM229.958 345.565C230.038 344.377 230.878 343.318 232.22 343.318C233.493 343.318 234.308 344.273 234.308 345.565H229.958ZM241.262 348.409L238.637 342.364H237.086V350H238.259V344.049L240.785 350H241.74L244.265 344.158V350H245.438V342.364H243.927L241.262 348.409ZM248.241 350.08C248.733 350.08 249.136 349.677 249.136 349.185C249.136 348.692 248.733 348.29 248.241 348.29C247.749 348.29 247.346 348.692 247.346 349.185C247.346 349.677 247.749 350.08 248.241 350.08ZM49.0274 364.909C49.0274 361.688 47.1382 359.679 44.5331 359.679C41.9279 359.679 40.0387 361.688 40.0387 364.909C40.0387 368.131 41.9279 370.139 44.5331 370.139C47.1382 370.139 49.0274 368.131 49.0274 364.909ZM47.8342 364.909C47.8342 367.554 46.3825 368.986 44.5331 368.986C42.6836 368.986 41.2319 367.554 41.2319 364.909C41.2319 362.264 42.6836 360.832 44.5331 360.832C46.3825 360.832 47.8342 362.264 47.8342 364.909ZM49.9261 372.188H51.0994V370H56.7471V372.188H57.9204V368.906H56.7471V362.364H51.8948L51.6363 365.386C51.4524 367.524 51.1789 368.26 50.5625 368.906H49.9261V372.188ZM51.8948 368.906C52.4318 368.2 52.6257 366.982 52.7897 365.386L52.9886 363.457H55.5738V368.906H51.8948ZM60.4511 368.27V362.364H59.2778V370H60.6499L64.309 364.094V370H65.4823V362.364H64.13L60.4511 368.27ZM68.6046 362.364H67.4313V370H68.6046V366.739H72.2637V370H73.437V362.364H72.2637V365.645H68.6046V362.364ZM79.1172 370H80.2905V366.778H81.3445L83.8502 370H85.3615L82.2394 366.043L85.3218 362.364H83.8104L81.0661 365.685H80.2905V362.364H79.1172V370ZM85.7606 370H86.1583C87.8487 370 88.3359 368.688 88.4453 366.182L88.5646 363.457H91.3686V370H92.5419V362.364H87.451L87.3117 365.744C87.2123 368.31 86.9538 368.906 86.039 368.906H85.7606V370ZM95.6679 368.27V362.364H94.4946V370H95.8667L99.5258 364.094V370H100.699V362.364H99.3468L95.6679 368.27ZM102.648 370H103.821V366.778H104.875L107.381 370H108.892L105.77 366.043L108.853 362.364H107.341L104.597 365.685H103.821V362.364H102.648V370ZM126.631 365.088H112.631V366.182H126.631V365.088ZM132.416 368.27V362.364H131.243V370H132.615L136.274 364.094V370H137.447V362.364H136.095L132.416 368.27ZM143.134 370H146.733C148.284 370 149.219 369.125 149.219 367.952C149.219 366.754 148.309 366.107 147.469 365.983C148.329 365.804 148.94 365.322 148.94 364.392C148.94 363.174 147.896 362.364 146.256 362.364H143.134V370ZM144.247 368.926V366.58H146.733C147.538 366.58 148.026 367.062 148.026 367.852C148.026 368.518 147.538 368.926 146.733 368.926H144.247ZM144.247 365.565V363.438H146.256C147.195 363.438 147.767 363.83 147.767 364.472C147.767 365.153 147.195 365.565 146.256 365.565H144.247ZM153.897 370.159C155.588 370.159 156.701 369.125 156.9 367.773H155.727C155.508 368.608 154.812 369.105 153.897 369.105C152.505 369.105 151.61 367.952 151.61 366.182C151.61 364.452 152.525 363.318 153.897 363.318C154.931 363.318 155.548 363.955 155.727 364.651H156.9C156.701 363.219 155.488 362.264 153.877 362.264C151.809 362.264 150.437 363.895 150.437 366.222C150.437 368.509 151.75 370.159 153.897 370.159ZM161.617 370.159C163.168 370.159 164.302 369.384 164.66 368.23L163.526 367.912C163.228 368.707 162.537 369.105 161.617 369.105C160.24 369.105 159.29 368.215 159.236 366.58H164.779V366.082C164.779 363.239 163.089 362.264 161.498 362.264C159.429 362.264 158.057 363.895 158.057 366.241C158.057 368.588 159.41 370.159 161.617 370.159ZM159.236 365.565C159.315 364.377 160.155 363.318 161.498 363.318C162.77 363.318 163.586 364.273 163.586 365.565H159.236ZM169.286 372.188H170.459V370H176.107V372.188H177.28V368.906H176.107V362.364H171.255L170.996 365.386C170.812 367.524 170.539 368.26 169.922 368.906H169.286V372.188ZM171.255 368.906C171.792 368.2 171.985 366.982 172.15 365.386L172.348 363.457H174.934V368.906H171.255ZM180.885 370.179C182.217 370.179 182.913 369.463 183.152 368.966H183.211V370H184.385V364.969C184.385 362.543 182.535 362.264 181.561 362.264C180.407 362.264 179.095 362.662 178.498 364.054L179.612 364.452C179.87 363.895 180.482 363.298 181.601 363.298C182.679 363.298 183.211 363.87 183.211 364.849V364.889C183.211 365.456 182.635 365.406 181.243 365.585C179.826 365.769 178.28 366.082 178.28 367.832C178.28 369.324 179.433 370.179 180.885 370.179ZM181.064 369.125C180.129 369.125 179.453 368.707 179.453 367.892C179.453 366.997 180.268 366.719 181.183 366.599C181.68 366.54 183.013 366.401 183.211 366.162V367.236C183.211 368.19 182.456 369.125 181.064 369.125ZM187.5 362.364H186.326V370H187.5V366.739H191.159V370H192.332V362.364H191.159V365.645H187.5V362.364ZM195.448 362.364H194.275V370H195.448V366.739H199.107V370H200.28V362.364H199.107V365.645H195.448V362.364ZM203.396 365.128V362.364H202.223V370H205.425C207.215 370 208.189 368.906 208.189 367.534C208.189 366.142 207.215 365.128 205.425 365.128H203.396ZM209.402 370H210.575V362.364H209.402V370ZM203.396 366.222H205.425C206.354 366.222 207.016 366.788 207.016 367.594C207.016 368.364 206.354 368.906 205.425 368.906H203.396V366.222ZM215.725 370.159C217.276 370.159 218.409 369.384 218.767 368.23L217.634 367.912C217.336 368.707 216.645 369.105 215.725 369.105C214.348 369.105 213.398 368.215 213.343 366.58H218.887V366.082C218.887 363.239 217.196 362.264 215.605 362.264C213.537 362.264 212.165 363.895 212.165 366.241C212.165 368.588 213.517 370.159 215.725 370.159ZM213.343 365.565C213.423 364.377 214.263 363.318 215.605 363.318C216.878 363.318 217.694 364.273 217.694 365.565H213.343ZM224.209 370H227.808C229.36 370 230.294 369.125 230.294 367.952C230.294 366.754 229.384 366.107 228.544 365.983C229.404 365.804 230.016 365.322 230.016 364.392C230.016 363.174 228.972 362.364 227.331 362.364H224.209V370ZM225.323 368.926V366.58H227.808C228.614 366.58 229.101 367.062 229.101 367.852C229.101 368.518 228.614 368.926 227.808 368.926H225.323ZM225.323 365.565V363.438H227.331C228.271 363.438 228.843 363.83 228.843 364.472C228.843 365.153 228.271 365.565 227.331 365.565H225.323ZM45.993 390H49.5924C51.1436 390 52.0782 389.125 52.0782 387.952C52.0782 386.754 51.1684 386.107 50.3282 385.983C51.1883 385.804 51.7998 385.322 51.7998 384.392C51.7998 383.174 50.7558 382.364 49.1152 382.364H45.993V390ZM47.1066 388.926V386.58H49.5924C50.3978 386.58 50.8851 387.062 50.8851 387.852C50.8851 388.518 50.3978 388.926 49.5924 388.926H47.1066ZM47.1066 385.565V383.438H49.1152C50.0548 383.438 50.6265 383.83 50.6265 384.472C50.6265 385.153 50.0548 385.565 49.1152 385.565H47.1066ZM55.9015 390.179C57.2339 390.179 57.9299 389.463 58.1685 388.966H58.2282V390H59.4015V384.969C59.4015 382.543 57.5521 382.264 56.5776 382.264C55.4242 382.264 54.1117 382.662 53.5151 384.054L54.6288 384.452C54.8873 383.895 55.4988 383.298 56.6174 383.298C57.6962 383.298 58.2282 383.87 58.2282 384.849V384.889C58.2282 385.456 57.6515 385.406 56.2594 385.585C54.8425 385.769 53.2964 386.082 53.2964 387.832C53.2964 389.324 54.4498 390.179 55.9015 390.179ZM56.0805 389.125C55.1458 389.125 54.4697 388.707 54.4697 387.892C54.4697 386.997 55.285 386.719 56.1998 386.599C56.6969 386.54 58.0293 386.401 58.2282 386.162V387.236C58.2282 388.19 57.4725 389.125 56.0805 389.125ZM61.343 382.364V390H70.6299V382.364H69.4566V388.906H66.5731V382.364H65.3998V388.906H62.5163V382.364H61.343ZM75.7744 390.159C77.3255 390.159 78.4591 389.384 78.817 388.23L77.6835 387.912C77.3852 388.707 76.6941 389.105 75.7744 389.105C74.3973 389.105 73.4477 388.215 73.393 386.58H78.9363V386.082C78.9363 383.239 77.246 382.264 75.6551 382.264C73.5869 382.264 72.2147 383.895 72.2147 386.241C72.2147 388.588 73.567 390.159 75.7744 390.159ZM73.393 385.565C73.4726 384.377 74.3128 383.318 75.6551 383.318C76.9278 383.318 77.7432 384.273 77.7432 385.565H73.393ZM81.6944 388.27V382.364H80.5211V390H81.8933L85.5524 384.094V390H86.7257V382.364H85.3734L81.6944 388.27ZM84.5978 379.818C84.5978 380.335 84.3194 380.793 83.6234 380.793C82.9274 380.793 82.6689 380.335 82.6689 379.818H81.5751C81.5751 380.892 82.3706 381.648 83.6234 381.648C84.8961 381.648 85.6916 380.892 85.6916 379.818H84.5978ZM95.5144 390.159C97.2048 390.159 98.3184 389.125 98.5173 387.773H97.344C97.1252 388.608 96.4292 389.105 95.5144 389.105C94.1224 389.105 93.2275 387.952 93.2275 386.182C93.2275 384.452 94.1423 383.318 95.5144 383.318C96.5485 383.318 97.165 383.955 97.344 384.651H98.5173C98.3184 383.219 97.1053 382.264 95.4945 382.264C93.4264 382.264 92.0542 383.895 92.0542 386.222C92.0542 388.509 93.3667 390.159 95.5144 390.159ZM101.206 388.27V382.364H100.032V390H101.405L105.064 384.094V390H106.237V382.364H104.885L101.206 388.27ZM111.288 390.159C112.979 390.159 114.092 389.125 114.291 387.773H113.118C112.899 388.608 112.203 389.105 111.288 389.105C109.896 389.105 109.001 387.952 109.001 386.182C109.001 384.452 109.916 383.318 111.288 383.318C112.322 383.318 112.939 383.955 113.118 384.651H114.291C114.092 383.219 112.879 382.264 111.268 382.264C109.2 382.264 107.828 383.895 107.828 386.222C107.828 388.509 109.141 390.159 111.288 390.159ZM115.205 383.457H117.73V390H118.904V383.457H121.409V382.364H115.205V383.457ZM125.726 390.159C127.277 390.159 128.411 389.384 128.769 388.23L127.635 387.912C127.337 388.707 126.646 389.105 125.726 389.105C124.349 389.105 123.399 388.215 123.345 386.58H128.888V386.082C128.888 383.239 127.198 382.264 125.607 382.264C123.538 382.264 122.166 383.895 122.166 386.241C122.166 388.588 123.519 390.159 125.726 390.159ZM123.345 385.565C123.424 384.377 124.264 383.318 125.607 383.318C126.879 383.318 127.695 384.273 127.695 385.565H123.345ZM134.649 388.409L132.024 382.364H130.473V390H131.646V384.049L134.172 390H135.126L137.652 384.158V390H138.825V382.364H137.314L134.649 388.409ZM143.974 390.159C145.526 390.159 146.659 389.384 147.017 388.23L145.883 387.912C145.585 388.707 144.894 389.105 143.974 389.105C142.597 389.105 141.648 388.215 141.593 386.58H147.136V386.082C147.136 383.239 145.446 382.264 143.855 382.264C141.787 382.264 140.415 383.895 140.415 386.241C140.415 388.588 141.767 390.159 143.974 390.159ZM141.593 385.565C141.673 384.377 142.513 383.318 143.855 383.318C145.128 383.318 145.943 384.273 145.943 385.565H141.593ZM154.706 390.179C156.038 390.179 156.734 389.463 156.973 388.966H157.032V390H158.206V384.969C158.206 382.543 156.356 382.264 155.382 382.264C154.229 382.264 152.916 382.662 152.319 384.054L153.433 384.452C153.692 383.895 154.303 383.298 155.422 383.298C156.501 383.298 157.032 383.87 157.032 384.849V384.889C157.032 385.456 156.456 385.406 155.064 385.585C153.647 385.769 152.101 386.082 152.101 387.832C152.101 389.324 153.254 390.179 154.706 390.179ZM154.885 389.125C153.95 389.125 153.274 388.707 153.274 387.892C153.274 386.997 154.089 386.719 155.004 386.599C155.501 386.54 156.834 386.401 157.032 386.162V387.236C157.032 388.19 156.277 389.125 154.885 389.125ZM161.321 382.364H160.147V390H161.321V386.739H164.98V390H166.153V382.364H164.98V385.645H161.321V382.364ZM170.343 390.179C171.675 390.179 172.371 389.463 172.61 388.966H172.67V390H173.843V384.969C173.843 382.543 171.993 382.264 171.019 382.264C169.866 382.264 168.553 382.662 167.957 384.054L169.07 384.452C169.329 383.895 169.94 383.298 171.059 383.298C172.138 383.298 172.67 383.87 172.67 384.849V384.889C172.67 385.456 172.093 385.406 170.701 385.585C169.284 385.769 167.738 386.082 167.738 387.832C167.738 389.324 168.891 390.179 170.343 390.179ZM170.522 389.125C169.587 389.125 168.911 388.707 168.911 387.892C168.911 386.997 169.726 386.719 170.641 386.599C171.138 386.54 172.471 386.401 172.67 386.162V387.236C172.67 388.19 171.914 389.125 170.522 389.125ZM175.108 390H175.506C177.196 390 177.684 388.688 177.793 386.182L177.912 383.457H180.716V390H181.89V382.364H176.799L176.659 385.744C176.56 388.31 176.301 388.906 175.387 388.906H175.108V390ZM185.016 388.27V382.364H183.842V390H185.214L188.873 384.094V390H190.047V382.364H188.694L185.016 388.27ZM190.957 383.457H193.482V390H194.656V383.457H197.161V382.364H190.957V383.457ZM199.846 388.27V382.364H198.673V390H200.045L203.704 384.094V390H204.877V382.364H203.525L199.846 388.27ZM206.826 390H208V386.778H209.053L211.559 390H213.071L209.948 386.043L213.031 382.364H211.519L208.775 385.685H208V382.364H206.826V390ZM215.319 388.27V382.364H214.146V390H215.518L219.177 384.094V390H220.35V382.364H218.998L215.319 388.27ZM223.154 390.08C223.647 390.08 224.049 389.677 224.049 389.185C224.049 388.692 223.647 388.29 223.154 388.29C222.662 388.29 222.259 388.692 222.259 389.185C222.259 389.677 222.662 390.08 223.154 390.08Z" fill="black"/>
<path d="M83.2074 36.1108C82.9091 34.2443 81.4474 33.1534 79.6023 33.1534C77.3438 33.1534 75.6776 34.8452 75.6776 37.6364C75.6776 40.4276 77.3352 42.1193 79.6023 42.1193C81.5199 42.1193 82.9219 40.9176 83.2074 39.1918L81.8778 39.1875C81.652 40.304 80.7145 40.9176 79.6108 40.9176C78.1151 40.9176 76.9858 39.7713 76.9858 37.6364C76.9858 35.5185 78.1108 34.3551 79.6151 34.3551C80.7273 34.3551 81.6605 34.9815 81.8778 36.1108H83.2074ZM87.1495 42.1321C88.9946 42.1321 90.2006 40.7812 90.2006 38.7571C90.2006 36.7202 88.9946 35.3693 87.1495 35.3693C85.3043 35.3693 84.0983 36.7202 84.0983 38.7571C84.0983 40.7812 85.3043 42.1321 87.1495 42.1321ZM87.1537 41.0625C85.9478 41.0625 85.3853 40.0099 85.3853 38.7528C85.3853 37.5 85.9478 36.4347 87.1537 36.4347C88.3512 36.4347 88.9137 37.5 88.9137 38.7528C88.9137 40.0099 88.3512 41.0625 87.1537 41.0625ZM96.3841 33.017C96.0645 33.2727 95.5787 33.2727 94.9012 33.2685C94.7009 33.2685 94.4836 33.2685 94.2449 33.2727C92.1228 33.3153 91.0489 34.8239 91.0489 37.8153V38.4631C91.0489 40.8665 92.2421 42.1321 94.0702 42.1321C95.8984 42.1321 97.083 40.8622 97.083 38.8253C97.083 36.8139 95.9197 35.7017 94.343 35.7017C93.3927 35.7017 92.6001 36.1065 92.1739 36.9162H92.093C92.2378 35.2585 92.86 34.4361 94.2748 34.3935C95.5319 34.3551 96.3287 34.3594 96.9126 33.8224L96.3841 33.017ZM94.0745 41.0625C92.9921 41.0625 92.3316 40.1974 92.3316 38.8466C92.3486 37.5213 93.0006 36.7628 94.0617 36.7628C95.1398 36.7628 95.7961 37.5213 95.7961 38.8466C95.7961 40.2017 95.1398 41.0625 94.0745 41.0625ZM98.2179 44.4545H99.4921V40.9815H99.5688C99.7989 41.3991 100.268 42.1278 101.461 42.1278C103.046 42.1278 104.197 40.858 104.197 38.7401C104.197 36.6179 103.029 35.3693 101.448 35.3693C100.234 35.3693 99.7946 36.1108 99.5688 36.5156H99.4622V35.4545H98.2179V44.4545ZM99.4665 38.7273C99.4665 37.3594 100.063 36.4517 101.175 36.4517C102.33 36.4517 102.91 37.4276 102.91 38.7273C102.91 40.0398 102.313 41.0412 101.175 41.0412C100.08 41.0412 99.4665 40.1037 99.4665 38.7273ZM107.241 42.1449C108.323 42.1449 108.932 41.5952 109.175 41.1051H109.226V42H110.471V37.6534C110.471 35.7486 108.971 35.3693 107.931 35.3693C106.746 35.3693 105.655 35.8466 105.229 37.0398L106.427 37.3125C106.614 36.848 107.091 36.4006 107.948 36.4006C108.77 36.4006 109.192 36.831 109.192 37.5724V37.6023C109.192 38.0668 108.715 38.0582 107.539 38.1946C106.299 38.3395 105.029 38.6634 105.029 40.1506C105.029 41.4375 105.996 42.1449 107.241 42.1449ZM107.518 41.1222C106.797 41.1222 106.278 40.7983 106.278 40.1676C106.278 39.4858 106.883 39.2429 107.62 39.1449C108.033 39.0895 109.013 38.9787 109.197 38.7955V39.6392C109.197 40.4148 108.579 41.1222 107.518 41.1222ZM111.068 36.554H113.211V42H114.455V36.554H116.59V35.4545H111.068V36.554ZM118.898 37.7045V35.4545H117.65V42H120.509C122.111 42 123.006 41.071 123.006 39.8395C123.006 38.5824 122.111 37.7045 120.509 37.7045H118.898ZM118.898 38.804H120.509C121.242 38.804 121.766 39.2472 121.766 39.8778C121.766 40.4744 121.242 40.9006 120.509 40.9006H118.898V38.804ZM129.791 42.1321C131.338 42.1321 132.339 41.2031 132.48 39.929H131.24C131.078 40.6364 130.528 41.054 129.799 41.054C128.721 41.054 128.027 40.1548 128.027 38.7273C128.027 37.3253 128.734 36.4432 129.799 36.4432C130.609 36.4432 131.103 36.9545 131.24 37.5682H132.48C132.343 36.2472 131.265 35.3693 129.778 35.3693C127.933 35.3693 126.74 36.7585 126.74 38.7571C126.74 40.7301 127.89 42.1321 129.791 42.1321ZM133.059 36.554H135.202V42H136.446V36.554H138.581V35.4545H133.059V36.554ZM141.241 42.1449C142.323 42.1449 142.932 41.5952 143.175 41.1051H143.226V42H144.471V37.6534C144.471 35.7486 142.971 35.3693 141.931 35.3693C140.746 35.3693 139.655 35.8466 139.229 37.0398L140.427 37.3125C140.614 36.848 141.092 36.4006 141.948 36.4006C142.771 36.4006 143.192 36.831 143.192 37.5724V37.6023C143.192 38.0668 142.715 38.0582 141.539 38.1946C140.299 38.3395 139.029 38.6634 139.029 40.1506C139.029 41.4375 139.996 42.1449 141.241 42.1449ZM141.518 41.1222C140.798 41.1222 140.278 40.7983 140.278 40.1676C140.278 39.4858 140.883 39.2429 141.62 39.1449C142.033 39.0895 143.013 38.9787 143.197 38.7955V39.6392C143.197 40.4148 142.579 41.1222 141.518 41.1222ZM145.068 36.554H147.211V42H148.455V36.554H150.59V35.4545H145.068V36.554ZM152.898 40.2145V35.4545H151.65V42H153.035L155.907 37.2358V42H157.155V35.4545H155.783L152.898 40.2145ZM161.337 42.1321C162.884 42.1321 163.885 41.2031 164.026 39.929H162.786C162.624 40.6364 162.074 41.054 161.346 41.054C160.268 41.054 159.573 40.1548 159.573 38.7273C159.573 37.3253 160.28 36.4432 161.346 36.4432C162.155 36.4432 162.65 36.9545 162.786 37.5682H164.026C163.89 36.2472 162.812 35.3693 161.324 35.3693C159.479 35.3693 158.286 36.7585 158.286 38.7571C158.286 40.7301 159.437 42.1321 161.337 42.1321ZM164.605 36.554H166.748V42H167.993V36.554H170.128V35.4545H164.605V36.554ZM172.435 40.2145V35.4545H171.187V42H172.572L175.444 37.2358V42H176.693V35.4545H175.32L172.435 40.2145ZM178.117 42H179.391V39.3835H180.218L182.191 42H183.772L181.207 38.6378L183.742 35.4545H182.166L180.005 38.1989H179.391V35.4545H178.117V42ZM185.314 44.4375C186.366 44.4375 187.035 43.8878 187.41 42.8736L190.116 35.4673L188.74 35.4545L187.082 40.5341H187.014L185.357 35.4545H183.993L186.388 42.0852L186.23 42.5199C185.906 43.3679 185.45 43.4446 184.751 43.2528L184.445 44.2969C184.598 44.3693 184.93 44.4375 185.314 44.4375Z" fill="black"/>
<path opacity="0.5" d="M68.5398 72.6364C68.5398 69.8452 66.8693 68.1534 64.6108 68.1534C62.3438 68.1534 60.6776 69.8452 60.6776 72.6364C60.6776 75.4233 62.3438 77.1193 64.6108 77.1193C66.8693 77.1193 68.5398 75.4276 68.5398 72.6364ZM67.2358 72.6364C67.2358 74.7628 66.1108 75.9176 64.6108 75.9176C63.1065 75.9176 61.9858 74.7628 61.9858 72.6364C61.9858 70.5099 63.1065 69.3551 64.6108 69.3551C66.1108 69.3551 67.2358 70.5099 67.2358 72.6364ZM69.4243 71.554H71.5678V77H72.8121V71.554H74.947V70.4545H69.4243V71.554ZM76.0063 77H77.2805V74.3835H78.1072L80.0802 77H81.6611L79.0958 73.6378L81.6313 70.4545H80.0546L77.8941 73.1989H77.2805V70.4545H76.0063V77ZM82.3624 79.4545H83.6366V75.9815H83.7133C83.9434 76.3991 84.4122 77.1278 85.6053 77.1278C87.1906 77.1278 88.3411 75.858 88.3411 73.7401C88.3411 71.6179 87.1735 70.3693 85.5926 70.3693C84.3781 70.3693 83.9391 71.1108 83.7133 71.5156H83.6068V70.4545H82.3624V79.4545ZM83.611 73.7273C83.611 72.3594 84.2076 71.4517 85.3198 71.4517C86.4747 71.4517 87.0542 72.4276 87.0542 73.7273C87.0542 75.0398 86.4576 76.0412 85.3198 76.0412C84.2247 76.0412 83.611 75.1037 83.611 73.7273ZM90.7289 72.7045V70.4545H89.4803V77H92.3397C93.9419 77 94.8368 76.071 94.8368 74.8395C94.8368 73.5824 93.9419 72.7045 92.3397 72.7045H90.7289ZM95.7658 77H97.04V70.4545H95.7658V77ZM90.7289 73.804H92.3397C93.0726 73.804 93.5968 74.2472 93.5968 74.8778C93.5968 75.4744 93.0726 75.9006 92.3397 75.9006H90.7289V73.804ZM98.095 71.554H100.238V77H101.483V71.554H103.618V70.4545H98.095V71.554ZM105.926 72.7045V70.4545H104.677V77H107.536C109.139 77 110.033 76.071 110.033 74.8395C110.033 73.5824 109.139 72.7045 107.536 72.7045H105.926ZM110.962 77H112.237V70.4545H110.962V77ZM105.926 73.804H107.536C108.269 73.804 108.793 74.2472 108.793 74.8778C108.793 75.4744 108.269 75.9006 107.536 75.9006H105.926V73.804ZM116.479 77.1321C117.907 77.1321 118.917 76.429 119.206 75.3636L118 75.1463C117.77 75.7642 117.216 76.0795 116.492 76.0795C115.401 76.0795 114.668 75.3722 114.634 74.1108H119.287V73.6591C119.287 71.294 117.873 70.3693 116.39 70.3693C114.566 70.3693 113.364 71.7585 113.364 73.7699C113.364 75.8026 114.549 77.1321 116.479 77.1321ZM114.638 73.1562C114.689 72.2273 115.363 71.4219 116.398 71.4219C117.387 71.4219 118.034 72.1548 118.039 73.1562H114.638ZM123.3 77H124.54V71.554H127.391V77H128.64V70.4545H123.3V77ZM131.303 75.2145V70.4545H130.055V77H131.44L134.312 72.2358V77H135.56V70.4545H134.188L131.303 75.2145ZM139.742 77.1321C141.289 77.1321 142.29 76.2031 142.431 74.929H141.191C141.029 75.6364 140.479 76.054 139.751 76.054C138.672 76.054 137.978 75.1548 137.978 73.7273C137.978 72.3253 138.685 71.4432 139.751 71.4432C140.56 71.4432 141.055 71.9545 141.191 72.5682H142.431C142.295 71.2472 141.217 70.3693 139.729 70.3693C137.884 70.3693 136.691 71.7585 136.691 73.7571C136.691 75.7301 137.842 77.1321 139.742 77.1321ZM144.754 72.7045V70.4545H143.505V77H146.365C147.967 77 148.862 76.071 148.862 74.8395C148.862 73.5824 147.967 72.7045 146.365 72.7045H144.754ZM144.754 73.804H146.365C147.097 73.804 147.622 74.2472 147.622 74.8778C147.622 75.4744 147.097 75.9006 146.365 75.9006H144.754V73.804ZM153.675 75.4233L151.604 70.4545H150.002V77H151.251V72.2401L153.202 77H154.148L156.134 72.2571V77H157.374V70.4545H155.789L153.675 75.4233ZM160.689 77.1449C161.771 77.1449 162.38 76.5952 162.623 76.1051H162.674V77H163.919V72.6534C163.919 70.7486 162.419 70.3693 161.379 70.3693C160.194 70.3693 159.103 70.8466 158.677 72.0398L159.875 72.3125C160.062 71.848 160.54 71.4006 161.396 71.4006C162.219 71.4006 162.64 71.831 162.64 72.5724V72.6023C162.64 73.0668 162.163 73.0582 160.987 73.1946C159.747 73.3395 158.477 73.6634 158.477 75.1506C158.477 76.4375 159.444 77.1449 160.689 77.1449ZM160.966 76.1222C160.245 76.1222 159.726 75.7983 159.726 75.1676C159.726 74.4858 160.331 74.2429 161.068 74.1449C161.481 74.0895 162.461 73.9787 162.645 73.7955V74.6392C162.645 75.4148 162.027 76.1222 160.966 76.1222Z" fill="#7A7B7C"/>
<rect x="39" y="66" width="12" height="13" rx="2" fill="#AA5382"/>
<path d="M41.3391 71.4018C41.1362 71.2145 40.8199 71.2272 40.6326 71.4301C40.4453 71.633 40.4579 71.9493 40.6609 72.1366L41.3391 71.4018ZM44.5 75L44.1609 75.3674L44.5329 75.7108L44.8716 75.3345L44.5 75ZM49.3716 70.3345C49.5564 70.1292 49.5397 69.8131 49.3345 69.6284C49.1292 69.4436 48.8131 69.4603 48.6284 69.6655L49.3716 70.3345ZM40.6609 72.1366L44.1609 75.3674L44.8391 74.6326L41.3391 71.4018L40.6609 72.1366ZM44.8716 75.3345L49.3716 70.3345L48.6284 69.6655L44.1284 74.6655L44.8716 75.3345Z" fill="white"/>
<path opacity="0.5" d="M67.7812 93.2727H61.0483V102H62.3608V94.3977H66.4688V102H67.7812V93.2727ZM72.2251 102.132C73.6527 102.132 74.6626 101.429 74.9524 100.364L73.7464 100.146C73.5163 100.764 72.9623 101.08 72.2379 101.08C71.147 101.08 70.414 100.372 70.3799 99.1108H75.0333V98.6591C75.0333 96.294 73.6186 95.3693 72.1356 95.3693C70.3117 95.3693 69.11 96.7585 69.11 98.7699C69.11 100.803 70.2947 102.132 72.2251 102.132ZM70.3842 98.1562C70.4353 97.2273 71.1086 96.4219 72.1441 96.4219C73.1328 96.4219 73.7805 97.1548 73.7848 98.1562H70.3842ZM76.1586 104.455H77.4328V100.982H77.5095C77.7396 101.399 78.2084 102.128 79.4015 102.128C80.9868 102.128 82.1373 100.858 82.1373 98.7401C82.1373 96.6179 80.9697 95.3693 79.3888 95.3693C78.1743 95.3693 77.7354 96.1108 77.5095 96.5156H77.403V95.4545H76.1586V104.455ZM77.4072 98.7273C77.4072 97.3594 78.0038 96.4517 79.116 96.4517C80.2709 96.4517 80.8504 97.4276 80.8504 98.7273C80.8504 100.04 80.2538 101.041 79.116 101.041C78.0209 101.041 77.4072 100.104 77.4072 98.7273ZM86.0975 102.132C87.5251 102.132 88.535 101.429 88.8248 100.364L87.6188 100.146C87.3887 100.764 86.8347 101.08 86.1103 101.08C85.0194 101.08 84.2864 100.372 84.2524 99.1108H88.9058V98.6591C88.9058 96.294 87.491 95.3693 86.008 95.3693C84.1842 95.3693 82.9825 96.7585 82.9825 98.7699C82.9825 100.803 84.1671 102.132 86.0975 102.132ZM84.2566 98.1562C84.3078 97.2273 84.981 96.4219 86.0166 96.4219C87.0052 96.4219 87.6529 97.1548 87.6572 98.1562H84.2566ZM90.8844 95.4545H89.4867L91.4981 98.7273L89.4611 102H90.8588L92.329 99.554L93.8034 102H95.1969L93.1387 98.7273L95.1799 95.4545H93.7864L92.329 98.0028L90.8844 95.4545ZM98.6873 102.132C100.532 102.132 101.738 100.781 101.738 98.7571C101.738 96.7202 100.532 95.3693 98.6873 95.3693C96.8421 95.3693 95.6361 96.7202 95.6361 98.7571C95.6361 100.781 96.8421 102.132 98.6873 102.132ZM98.6915 101.062C97.4856 101.062 96.9231 100.01 96.9231 98.7528C96.9231 97.5 97.4856 96.4347 98.6915 96.4347C99.889 96.4347 100.451 97.5 100.451 98.7528C100.451 100.01 99.889 101.062 98.6915 101.062ZM102.233 103.888H103.494V102H108.058V103.888H109.303V100.896H108.297V95.4545H103.848L103.644 97.8963C103.507 99.5455 103.307 100.406 102.766 100.896H102.233V103.888ZM104.129 100.896C104.564 100.287 104.726 99.2727 104.854 97.8963L104.99 96.5455H107.053V100.896H104.129ZM111.508 97.7045V95.4545H110.26V102H113.119C114.721 102 115.616 101.071 115.616 99.8395C115.616 98.5824 114.721 97.7045 113.119 97.7045H111.508ZM116.545 102H117.819V95.4545H116.545V102ZM111.508 98.804H113.119C113.852 98.804 114.376 99.2472 114.376 99.8778C114.376 100.474 113.852 100.901 113.119 100.901H111.508V98.804ZM122.128 102H123.368V96.554H126.219V102H127.468V95.4545H122.128V102ZM131.64 102.132C133.485 102.132 134.691 100.781 134.691 98.7571C134.691 96.7202 133.485 95.3693 131.64 95.3693C129.795 95.3693 128.589 96.7202 128.589 98.7571C128.589 100.781 129.795 102.132 131.64 102.132ZM131.644 101.062C130.438 101.062 129.876 100.01 129.876 98.7528C129.876 97.5 130.438 96.4347 131.644 96.4347C132.842 96.4347 133.404 97.5 133.404 98.7528C133.404 100.01 132.842 101.062 131.644 101.062ZM141.469 102.132C143.016 102.132 144.018 101.203 144.158 99.929H142.918C142.756 100.636 142.207 101.054 141.478 101.054C140.4 101.054 139.705 100.155 139.705 98.7273C139.705 97.3253 140.412 96.4432 141.478 96.4432C142.287 96.4432 142.782 96.9545 142.918 97.5682H144.158C144.022 96.2472 142.944 95.3693 141.457 95.3693C139.611 95.3693 138.418 96.7585 138.418 98.7571C138.418 100.73 139.569 102.132 141.469 102.132ZM147.989 102.132C149.536 102.132 150.538 101.203 150.678 99.929H149.438C149.276 100.636 148.727 101.054 147.998 101.054C146.92 101.054 146.225 100.155 146.225 98.7273C146.225 97.3253 146.933 96.4432 147.998 96.4432C148.808 96.4432 149.302 96.9545 149.438 97.5682H150.678C150.542 96.2472 149.464 95.3693 147.977 95.3693C146.132 95.3693 144.938 96.7585 144.938 98.7571C144.938 100.73 146.089 102.132 147.989 102.132ZM153.001 97.7045V95.4545H151.753V102H154.612C156.214 102 157.109 101.071 157.109 99.8395C157.109 98.5824 156.214 97.7045 154.612 97.7045H153.001ZM158.038 102H159.312V95.4545H158.038V102ZM153.001 98.804H154.612C155.345 98.804 155.869 99.2472 155.869 99.8778C155.869 100.474 155.345 100.901 154.612 100.901H153.001V98.804ZM160.218 102H160.627C162.055 102 162.579 100.943 162.681 98.7784L162.783 96.554H164.923V102H166.171V95.4545H161.603L161.488 98.3523C161.407 100.372 161.177 100.896 160.448 100.896H160.214L160.218 102ZM167.582 102H168.856V99.3835H169.683L171.656 102H173.237L170.672 98.6378L173.207 95.4545H171.63L169.47 98.1989H168.856V95.4545H167.582V102ZM175.843 102.145C176.925 102.145 177.535 101.595 177.778 101.105H177.829V102H179.073V97.6534C179.073 95.7486 177.573 95.3693 176.533 95.3693C175.349 95.3693 174.258 95.8466 173.832 97.0398L175.029 97.3125C175.217 96.848 175.694 96.4006 176.55 96.4006C177.373 96.4006 177.795 96.831 177.795 97.5724V97.6023C177.795 98.0668 177.317 98.0582 176.141 98.1946C174.901 98.3395 173.631 98.6634 173.631 100.151C173.631 101.438 174.599 102.145 175.843 102.145ZM176.12 101.122C175.4 101.122 174.88 100.798 174.88 100.168C174.88 99.4858 175.485 99.2429 176.222 99.1449C176.636 99.0895 177.616 98.9787 177.799 98.7955V99.6392C177.799 100.415 177.181 101.122 176.12 101.122ZM184.155 100.423L182.084 95.4545H180.482V102H181.73V97.2401L183.682 102H184.628L186.614 97.2571V102H187.854V95.4545H186.269L184.155 100.423Z" fill="#7A7B7C"/>
<rect x="39" y="91" width="12" height="13" rx="2" fill="#AA5382"/>
<path d="M41.3391 96.4018C41.1362 96.2145 40.8199 96.2272 40.6326 96.4301C40.4453 96.633 40.4579 96.9493 40.6609 97.1366L41.3391 96.4018ZM44.5 100L44.1609 100.367L44.5329 100.711L44.8716 100.334L44.5 100ZM49.3716 95.3345C49.5564 95.1292 49.5397 94.8131 49.3345 94.6284C49.1292 94.4436 48.8131 94.4603 48.6284 94.6655L49.3716 95.3345ZM40.6609 97.1366L44.1609 100.367L44.8391 99.6326L41.3391 96.4018L40.6609 97.1366ZM44.8716 100.334L49.3716 95.3345L48.6284 94.6655L44.1284 99.6655L44.8716 100.334Z" fill="white"/>
<path opacity="0.5" d="M60.9588 117.273V126H62.169L66.6051 119.599H66.6861V126H68.0028V117.273H66.7841L62.3438 123.682H62.2628V117.273H60.9588ZM70.7816 119.455H69.533V126H70.7816V123.281H73.6154V126H74.8597V119.455H73.6154V122.178H70.7816V119.455ZM75.464 120.554H77.6075V126H78.8518V120.554H80.9868V119.455H75.464V120.554ZM84.5624 126.132C85.9899 126.132 86.9999 125.429 87.2896 124.364L86.0837 124.146C85.8536 124.764 85.2996 125.08 84.5752 125.08C83.4842 125.08 82.7513 124.372 82.7172 123.111H87.3706V122.659C87.3706 120.294 85.9558 119.369 84.4729 119.369C82.649 119.369 81.4473 120.759 81.4473 122.77C81.4473 124.803 82.632 126.132 84.5624 126.132ZM82.7215 122.156C82.7726 121.227 83.4459 120.422 84.4814 120.422C85.47 120.422 86.1178 121.155 86.122 122.156H82.7215ZM92.6806 119.455H88.4959V126H89.753V120.554H92.6806V119.455ZM93.7388 128.455H95.0129V124.982H95.0896C95.3197 125.399 95.7885 126.128 96.9817 126.128C98.5669 126.128 99.7175 124.858 99.7175 122.74C99.7175 120.618 98.5499 119.369 96.9689 119.369C95.7544 119.369 95.3155 120.111 95.0896 120.516H94.9831V119.455H93.7388V128.455ZM94.9874 122.727C94.9874 121.359 95.5839 120.452 96.6962 120.452C97.851 120.452 98.4305 121.428 98.4305 122.727C98.4305 124.04 97.8339 125.041 96.6962 125.041C95.601 125.041 94.9874 124.104 94.9874 122.727ZM102.761 126.145C103.844 126.145 104.453 125.595 104.696 125.105H104.747V126H105.992V121.653C105.992 119.749 104.492 119.369 103.452 119.369C102.267 119.369 101.176 119.847 100.75 121.04L101.948 121.312C102.135 120.848 102.612 120.401 103.469 120.401C104.291 120.401 104.713 120.831 104.713 121.572V121.602C104.713 122.067 104.236 122.058 103.06 122.195C101.82 122.339 100.55 122.663 100.55 124.151C100.55 125.438 101.517 126.145 102.761 126.145ZM103.038 125.122C102.318 125.122 101.798 124.798 101.798 124.168C101.798 123.486 102.404 123.243 103.141 123.145C103.554 123.089 104.534 122.979 104.717 122.795V123.639C104.717 124.415 104.1 125.122 103.038 125.122ZM112.735 119.455H111.495V124.901H108.645V119.455H107.396V126H112.735V128.109H113.997V124.956H112.735V119.455ZM116.294 124.214V119.455H115.045V126H116.43L119.303 121.236V126H120.551V119.455H119.179L116.294 124.214ZM125.879 126H127.077V119.455H124.311C122.803 119.455 121.882 120.234 121.882 121.466C121.882 122.327 122.334 122.962 123.114 123.256L121.584 126H122.888L124.315 123.439H125.879V126ZM125.879 122.408H124.226C123.531 122.408 123.126 122.041 123.131 121.483C123.126 120.92 123.565 120.541 124.311 120.541H125.879V122.408ZM131.372 126H134.5C135.931 126 136.771 125.276 136.771 124.236C136.771 123.264 136.025 122.668 135.152 122.565C135.957 122.412 136.49 121.969 136.49 121.202C136.49 120.128 135.561 119.455 134.086 119.455H131.372V126ZM132.569 124.935V123.115H134.5C135.13 123.115 135.509 123.486 135.509 124.095C135.509 124.615 135.13 124.935 134.5 124.935H132.569ZM132.569 122.182V120.533H134.086C134.811 120.533 135.25 120.835 135.25 121.338C135.25 121.862 134.815 122.182 134.099 122.182H132.569ZM146.776 120.03H148.127C147.833 118.33 146.38 117.153 144.496 117.153C142.238 117.153 140.589 118.854 140.589 121.641C140.589 124.402 142.191 126.119 144.556 126.119C146.674 126.119 148.187 124.73 148.187 122.527V121.534H144.756V122.621H146.912C146.883 124.027 145.954 124.918 144.556 124.918C143.018 124.918 141.897 123.754 141.897 121.632C141.897 119.518 143.026 118.355 144.505 118.355C145.664 118.355 146.448 118.994 146.776 120.03ZM152.225 126.132C154.07 126.132 155.276 124.781 155.276 122.757C155.276 120.72 154.07 119.369 152.225 119.369C150.379 119.369 149.173 120.72 149.173 122.757C149.173 124.781 150.379 126.132 152.225 126.132ZM152.229 125.062C151.023 125.062 150.46 124.01 150.46 122.753C150.46 121.5 151.023 120.435 152.229 120.435C153.426 120.435 153.989 121.5 153.989 122.753C153.989 124.01 153.426 125.062 152.229 125.062ZM159.167 126.132C161.012 126.132 162.218 124.781 162.218 122.757C162.218 120.72 161.012 119.369 159.167 119.369C157.321 119.369 156.115 120.72 156.115 122.757C156.115 124.781 157.321 126.132 159.167 126.132ZM159.171 125.062C157.965 125.062 157.402 124.01 157.402 122.753C157.402 121.5 157.965 120.435 159.171 120.435C160.368 120.435 160.931 121.5 160.931 122.753C160.931 124.01 160.368 125.062 159.171 125.062ZM166.096 128.578C167.762 128.578 169.049 127.815 169.049 126.145V119.455H167.8V120.516H167.707C167.481 120.111 167.029 119.369 165.81 119.369C164.229 119.369 163.066 120.618 163.066 122.702C163.066 124.79 164.255 125.902 165.802 125.902C167.004 125.902 167.468 125.224 167.698 124.807H167.779V126.094C167.779 127.104 167.076 127.551 166.109 127.551C165.048 127.551 164.634 127.018 164.408 126.656L163.313 127.108C163.658 127.896 164.532 128.578 166.096 128.578ZM166.083 124.845C164.945 124.845 164.353 123.972 164.353 122.685C164.353 121.428 164.933 120.452 166.083 120.452C167.195 120.452 167.792 121.359 167.792 122.685C167.792 124.036 167.183 124.845 166.083 124.845ZM171.744 117.273H170.469V126H171.744V117.273ZM175.99 126.132C177.418 126.132 178.428 125.429 178.718 124.364L177.512 124.146C177.282 124.764 176.728 125.08 176.003 125.08C174.912 125.08 174.179 124.372 174.145 123.111H178.799V122.659C178.799 120.294 177.384 119.369 175.901 119.369C174.077 119.369 172.875 120.759 172.875 122.77C172.875 124.803 174.06 126.132 175.99 126.132ZM174.149 122.156C174.201 121.227 174.874 120.422 175.909 120.422C176.898 120.422 177.546 121.155 177.55 122.156H174.149ZM183.651 126L184.452 123.69H187.861L188.658 126H190.056L186.915 117.273H185.394L182.253 126H183.651ZM184.835 122.582L186.122 118.858H186.191L187.477 122.582H184.835ZM192.199 122.114C192.199 121.07 192.839 120.473 193.725 120.473C194.59 120.473 195.114 121.04 195.114 121.99V126H196.388V121.837C196.388 120.217 195.498 119.369 194.16 119.369C193.175 119.369 192.532 119.825 192.229 120.52H192.148V119.455H190.925V126H192.199V122.114ZM199.714 126.145C200.796 126.145 201.405 125.595 201.648 125.105H201.699V126H202.944V121.653C202.944 119.749 201.444 119.369 200.404 119.369C199.219 119.369 198.128 119.847 197.702 121.04L198.9 121.312C199.087 120.848 199.564 120.401 200.421 120.401C201.243 120.401 201.665 120.831 201.665 121.572V121.602C201.665 122.067 201.188 122.058 200.012 122.195C198.772 122.339 197.502 122.663 197.502 124.151C197.502 125.438 198.469 126.145 199.714 126.145ZM199.991 125.122C199.27 125.122 198.75 124.798 198.75 124.168C198.75 123.486 199.356 123.243 200.093 123.145C200.506 123.089 201.486 122.979 201.67 122.795V123.639C201.67 124.415 201.052 125.122 199.991 125.122ZM205.626 117.273H204.352V126H205.626V117.273ZM207.858 128.438C208.91 128.438 209.579 127.888 209.954 126.874L212.66 119.467L211.284 119.455L209.626 124.534H209.558L207.9 119.455H206.537L208.931 126.085L208.774 126.52C208.45 127.368 207.994 127.445 207.295 127.253L206.988 128.297C207.142 128.369 207.474 128.438 207.858 128.438ZM216.628 119.455H215.285V117.886H214.011V119.455H213.053V120.477H214.011V124.342C214.007 125.531 214.915 126.107 215.92 126.085C216.325 126.081 216.598 126.004 216.747 125.949L216.517 124.896C216.432 124.913 216.274 124.952 216.07 124.952C215.656 124.952 215.285 124.815 215.285 124.078V120.477H216.628V119.455ZM217.749 126H219.023V119.455H217.749V126ZM218.392 118.445C218.831 118.445 219.198 118.104 219.198 117.686C219.198 117.268 218.831 116.923 218.392 116.923C217.949 116.923 217.587 117.268 217.587 117.686C217.587 118.104 217.949 118.445 218.392 118.445ZM223.206 126.132C224.753 126.132 225.754 125.203 225.895 123.929H224.655C224.493 124.636 223.943 125.054 223.214 125.054C222.136 125.054 221.442 124.155 221.442 122.727C221.442 121.325 222.149 120.443 223.214 120.443C224.024 120.443 224.518 120.955 224.655 121.568H225.895C225.758 120.247 224.68 119.369 223.193 119.369C221.348 119.369 220.155 120.759 220.155 122.757C220.155 124.73 221.305 126.132 223.206 126.132ZM231.874 121.053C231.61 120.034 230.813 119.369 229.398 119.369C227.919 119.369 226.871 120.149 226.871 121.308C226.871 122.237 227.433 122.855 228.661 123.128L229.769 123.371C230.399 123.511 230.693 123.793 230.693 124.202C230.693 124.709 230.152 125.105 229.317 125.105C228.554 125.105 228.064 124.777 227.911 124.134L226.679 124.321C226.892 125.48 227.855 126.132 229.325 126.132C230.906 126.132 232.002 125.293 232.002 124.108C232.002 123.183 231.414 122.612 230.212 122.335L229.172 122.097C228.452 121.926 228.141 121.683 228.145 121.24C228.141 120.737 228.686 120.379 229.411 120.379C230.203 120.379 230.57 120.818 230.719 121.257L231.874 121.053ZM236.438 116.864H235.3L232.488 127.312H233.626L236.438 116.864ZM66.7798 142V133.273H63.669C61.6449 133.273 60.6477 134.402 60.6477 136.009C60.6477 137.18 61.1804 138.071 62.25 138.467L60.3153 142H61.8153L63.5881 138.697C63.6179 138.697 63.6435 138.697 63.6733 138.697H65.4631V142H66.7798ZM65.4631 137.564H63.7926C62.5099 137.564 61.973 136.993 61.973 136.009C61.973 135.02 62.5099 134.402 63.8097 134.402H65.4631V137.564ZM69.5511 135.455H68.3025V142H69.5511V139.281H72.3849V142H73.6292V135.455H72.3849V138.178H69.5511V135.455ZM74.4062 143.888H75.6675V142H80.2314V143.888H81.4758V140.896H80.4701V135.455H76.0212L75.8167 137.896C75.6803 139.545 75.48 140.406 74.9388 140.896H74.4062V143.888ZM76.3025 140.896C76.7371 140.287 76.8991 139.273 77.0269 137.896L77.1633 136.545H79.2258V140.896H76.3025ZM85.2538 142.132C86.6813 142.132 87.6913 141.429 87.981 140.364L86.7751 140.146C86.545 140.764 85.991 141.08 85.2666 141.08C84.1757 141.08 83.4427 140.372 83.4086 139.111H88.062V138.659C88.062 136.294 86.6472 135.369 85.1643 135.369C83.3404 135.369 82.1387 136.759 82.1387 138.77C82.1387 140.803 83.3234 142.132 85.2538 142.132ZM83.4129 138.156C83.464 137.227 84.1373 136.422 85.1728 136.422C86.1614 136.422 86.8092 137.155 86.8134 138.156H83.4129ZM89.1873 142H90.4615V139.384H91.2882L93.2612 142H94.8422L92.2768 138.638L94.8123 135.455H93.2356L91.0751 138.199H90.4615V135.455H89.1873V142ZM98.031 142.132C99.5779 142.132 100.579 141.203 100.72 139.929H99.4799C99.318 140.636 98.7682 141.054 98.0396 141.054C96.9614 141.054 96.2668 140.155 96.2668 138.727C96.2668 137.325 96.9742 136.443 98.0396 136.443C98.8492 136.443 99.3435 136.955 99.4799 137.568H100.72C100.584 136.247 99.5055 135.369 98.0182 135.369C96.1731 135.369 94.9799 136.759 94.9799 138.757C94.9799 140.73 96.1305 142.132 98.031 142.132ZM104.784 133.273V142H106.037V135.68H106.118L108.691 141.987H109.731L112.305 135.685H112.386V142H113.639V133.273H112.041L109.262 140.057H109.16L106.382 133.273H104.784ZM117.984 142.132C119.411 142.132 120.421 141.429 120.711 140.364L119.505 140.146C119.275 140.764 118.721 141.08 117.996 141.08C116.906 141.08 116.173 140.372 116.139 139.111H120.792V138.659C120.792 136.294 119.377 135.369 117.894 135.369C116.07 135.369 114.869 136.759 114.869 138.77C114.869 140.803 116.053 142.132 117.984 142.132ZM116.143 138.156C116.194 137.227 116.867 136.422 117.903 136.422C118.891 136.422 119.539 137.155 119.543 138.156H116.143ZM121.34 136.554H123.483V142H124.728V136.554H126.863V135.455H121.34V136.554ZM127.922 144.455H129.196V140.982H129.273C129.503 141.399 129.972 142.128 131.165 142.128C132.75 142.128 133.9 140.858 133.9 138.74C133.9 136.618 132.733 135.369 131.152 135.369C129.937 135.369 129.499 136.111 129.273 136.516H129.166V135.455H127.922V144.455ZM129.17 138.727C129.17 137.359 129.767 136.452 130.879 136.452C132.034 136.452 132.614 137.428 132.614 138.727C132.614 140.04 132.017 141.041 130.879 141.041C129.784 141.041 129.17 140.104 129.17 138.727ZM136.288 140.214V135.455H135.04V142H136.425L139.297 137.236V142H140.545V135.455H139.173L136.288 140.214ZM141.97 142H143.244V139.384H144.071L146.044 142H147.625L145.059 138.638L147.595 135.455H146.018L143.858 138.199H143.244V135.455H141.97V142ZM150.814 142.132C152.659 142.132 153.865 140.781 153.865 138.757C153.865 136.72 152.659 135.369 150.814 135.369C148.969 135.369 147.763 136.72 147.763 138.757C147.763 140.781 148.969 142.132 150.814 142.132ZM150.818 141.062C149.612 141.062 149.05 140.01 149.05 138.753C149.05 137.5 149.612 136.435 150.818 136.435C152.015 136.435 152.578 137.5 152.578 138.753C152.578 140.01 152.015 141.062 150.818 141.062ZM156.247 140.214V135.455H154.999V142H156.384L159.256 137.236V142H160.504V135.455H159.132L156.247 140.214ZM158.587 133.239C158.587 133.669 158.348 134.048 157.752 134.048C157.146 134.048 156.921 133.665 156.921 133.239H155.877C155.877 134.197 156.605 134.858 157.752 134.858C158.906 134.858 159.635 134.197 159.635 133.239H158.587Z" fill="#7A7B7C"/>
<rect x="39" y="115" width="12" height="13" rx="2" fill="#AA5382"/>
<path d="M41.3391 120.402C41.1362 120.215 40.8199 120.227 40.6326 120.43C40.4453 120.633 40.4579 120.949 40.6609 121.137L41.3391 120.402ZM44.5 124L44.1609 124.367L44.5329 124.711L44.8716 124.334L44.5 124ZM49.3716 119.334C49.5564 119.129 49.5397 118.813 49.3345 118.628C49.1292 118.444 48.8131 118.46 48.6284 118.666L49.3716 119.334ZM40.6609 121.137L44.1609 124.367L44.8391 123.633L41.3391 120.402L40.6609 121.137ZM44.8716 124.334L49.3716 119.334L48.6284 118.666L44.1284 123.666L44.8716 124.334Z" fill="white"/>
<rect x="40" y="170" width="189" height="22" rx="5" fill="white" stroke="#D5D4D6" stroke-width="1.7" stroke-miterlimit="10" stroke-linecap="round"/>
<path opacity="0.2" d="M56.1278 185H57.7344L54.1335 180.219L57.7557 176.273H56.1236L52.7273 179.959H52.2756V176.273H50.9588V185H52.2756V181.088H53.179L56.1278 185ZM60.5823 185.145C61.6647 185.145 62.2741 184.595 62.517 184.105H62.5681V185H63.8125V180.653C63.8125 178.749 62.3125 178.369 61.2727 178.369C60.088 178.369 58.9971 178.847 58.571 180.04L59.7684 180.312C59.9559 179.848 60.4332 179.401 61.2897 179.401C62.1122 179.401 62.534 179.831 62.534 180.572V180.602C62.534 181.067 62.0568 181.058 60.8806 181.195C59.6406 181.339 58.3707 181.663 58.3707 183.151C58.3707 184.438 59.338 185.145 60.5823 185.145ZM60.8593 184.122C60.1392 184.122 59.6193 183.798 59.6193 183.168C59.6193 182.486 60.2244 182.243 60.9616 182.145C61.375 182.089 62.3551 181.979 62.5383 181.795V182.639C62.5383 183.415 61.9204 184.122 60.8593 184.122ZM66.4697 178.455H65.2211V185H66.4697V182.281H69.3035V185H70.5479V178.455H69.3035V181.178H66.4697V178.455ZM73.8688 185.145C74.9512 185.145 75.5606 184.595 75.8035 184.105H75.8546V185H77.0989V180.653C77.0989 178.749 75.5989 178.369 74.5592 178.369C73.3745 178.369 72.2836 178.847 71.8575 180.04L73.0549 180.312C73.2424 179.848 73.7197 179.401 74.5762 179.401C75.3987 179.401 75.8205 179.831 75.8205 180.572V180.602C75.8205 181.067 75.3433 181.058 74.1671 181.195C72.9271 181.339 71.6572 181.663 71.6572 183.151C71.6572 184.438 72.6245 185.145 73.8688 185.145ZM74.1458 184.122C73.4257 184.122 72.9058 183.798 72.9058 183.168C72.9058 182.486 73.5109 182.243 74.2481 182.145C74.6614 182.089 75.6416 181.979 75.8248 181.795V182.639C75.8248 183.415 75.2069 184.122 74.1458 184.122ZM77.992 185H78.4011C79.8287 185 80.3528 183.943 80.4551 181.778L80.5574 179.554H82.6966V185H83.9451V178.455H79.377L79.2619 181.352C79.1809 183.372 78.9508 183.896 78.2221 183.896H77.9878L77.992 185Z" fill="#7A7B7C"/>
<rect x="40" y="202" width="189" height="22" rx="5" fill="white" stroke="#D5D4D6" stroke-width="1.7" stroke-miterlimit="10" stroke-linecap="round"/>
<path opacity="0.2" d="M50.9588 208.273V217H52.169L56.6051 210.599H56.6861V217H58.0028V208.273H56.7841L52.3438 214.682H52.2628V208.273H50.9588ZM62.2901 217.132C63.837 217.132 64.8384 216.203 64.979 214.929H63.7389C63.577 215.636 63.0273 216.054 62.2986 216.054C61.2205 216.054 60.5259 215.155 60.5259 213.727C60.5259 212.325 61.2333 211.443 62.2986 211.443C63.1083 211.443 63.6026 211.955 63.7389 212.568H64.979C64.8426 211.247 63.7645 210.369 62.2773 210.369C60.4321 210.369 59.2389 211.759 59.2389 213.757C59.2389 215.73 60.3895 217.132 62.2901 217.132ZM65.5578 211.554H67.7013V217H68.9456V211.554H71.0805V210.455H65.5578V211.554ZM74.5922 217.132C76.4374 217.132 77.6433 215.781 77.6433 213.757C77.6433 211.72 76.4374 210.369 74.5922 210.369C72.747 210.369 71.5411 211.72 71.5411 213.757C71.5411 215.781 72.747 217.132 74.5922 217.132ZM74.5965 216.062C73.3905 216.062 72.828 215.01 72.828 213.753C72.828 212.5 73.3905 211.435 74.5965 211.435C75.7939 211.435 76.3564 212.5 76.3564 213.753C76.3564 215.01 75.7939 216.062 74.5965 216.062ZM84.0314 210.455H82.7871V213.714C82.3567 213.83 81.9221 213.898 81.4235 213.898C80.5542 213.898 80.0172 213.506 80.0172 212.581V210.442H78.7772V212.581C78.7772 214.217 79.8042 214.997 81.4235 214.997C81.9178 214.997 82.3695 214.929 82.7871 214.822V217H84.0314V210.455ZM86.6866 210.455H85.438V217H86.6866V214.281H89.5204V217H90.7647V210.455H89.5204V213.178H86.6866V210.455ZM93.4294 215.214V210.455H92.1808V217H93.5658L96.438 212.236V217H97.6865V210.455H96.3144L93.4294 215.214ZM99.1112 217H100.385V214.384H101.212L103.185 217H104.766L102.201 213.638L104.736 210.455H103.159L100.999 213.199H100.385V210.455H99.1112V217Z" fill="#7A7B7C"/>
<rect x="40" y="234" width="189" height="22" rx="5" fill="white" stroke="#D5D4D6" stroke-width="1.7" stroke-miterlimit="10" stroke-linecap="round"/>
<path opacity="0.2" d="M56.1278 249H57.7344L54.1335 244.219L57.7557 240.273H56.1236L52.7273 243.959H52.2756V240.273H50.9588V249H52.2756V245.088H53.179L56.1278 249ZM60.5823 249.145C61.6647 249.145 62.2741 248.595 62.517 248.105H62.5681V249H63.8125V244.653C63.8125 242.749 62.3125 242.369 61.2727 242.369C60.088 242.369 58.9971 242.847 58.571 244.04L59.7684 244.312C59.9559 243.848 60.4332 243.401 61.2897 243.401C62.1122 243.401 62.534 243.831 62.534 244.572V244.602C62.534 245.067 62.0568 245.058 60.8806 245.195C59.6406 245.339 58.3707 245.663 58.3707 247.151C58.3707 248.438 59.338 249.145 60.5823 249.145ZM60.8593 248.122C60.1392 248.122 59.6193 247.798 59.6193 247.168C59.6193 246.486 60.2244 246.243 60.9616 246.145C61.375 246.089 62.3551 245.979 62.5383 245.795V246.639C62.5383 247.415 61.9204 248.122 60.8593 248.122ZM68.8944 247.423L66.8234 242.455H65.2211V249H66.4697V244.24L68.4214 249H69.3675L71.3533 244.257V249H72.5933V242.455H71.0081L68.8944 247.423ZM74.0031 249H75.2431V243.554H78.094V249H79.3426V242.455H74.0031V249ZM82.6625 249.145C83.7449 249.145 84.3542 248.595 84.5971 248.105H84.6483V249H85.8926V244.653C85.8926 242.749 84.3926 242.369 83.3528 242.369C82.1682 242.369 81.0772 242.847 80.6511 244.04L81.8485 244.312C82.036 243.848 82.5133 243.401 83.3699 243.401C84.1923 243.401 84.6142 243.831 84.6142 244.572V244.602C84.6142 245.067 84.1369 245.058 82.9608 245.195C81.7207 245.339 80.4508 245.663 80.4508 247.151C80.4508 248.438 81.4182 249.145 82.6625 249.145ZM82.9395 248.122C82.2193 248.122 81.6994 247.798 81.6994 247.168C81.6994 246.486 82.3045 246.243 83.0417 246.145C83.4551 246.089 84.4352 245.979 84.6184 245.795V246.639C84.6184 247.415 84.0005 248.122 82.9395 248.122ZM88.5499 242.455H87.3013V249H88.5499V246.281H91.3837V249H92.628V242.455H91.3837V245.178H88.5499V242.455ZM95.2927 247.214V242.455H94.0441V249H95.4291L98.3012 244.236V249H99.5498V242.455H98.1777L95.2927 247.214ZM104.878 249H106.075V242.455H103.31C101.801 242.455 100.881 243.234 100.881 244.466C100.881 245.327 101.332 245.962 102.112 246.256L100.582 249H101.886L103.314 246.439H104.878V249ZM104.878 245.408H103.224C102.53 245.408 102.125 245.041 102.129 244.483C102.125 243.92 102.564 243.541 103.31 243.541H104.878V245.408Z" fill="#7A7B7C"/>
</svg>
