<svg width="640" height="361" viewBox="0 0 640 361" fill="none" xmlns="http://www.w3.org/2000/svg">
<rect opacity="0.5" x="1" y="1" width="638" height="359" rx="25" fill="#F3F5F7" stroke="#D5D4D6" stroke-width="1.7" stroke-miterlimit="10" stroke-linecap="round"/>
<rect x="96" y="2" width="448" height="357" fill="white"/>
<path d="M250.108 45.2898C249.75 42.7045 247.761 41.2045 245.182 41.2045C242.142 41.2045 239.852 43.4205 239.852 47.1818C239.852 50.9375 242.114 53.1591 245.182 53.1591C247.949 53.1591 249.784 51.3693 250.108 49.1477L247.983 49.1364C247.716 50.5 246.602 51.267 245.21 51.267C243.324 51.267 241.972 49.8523 241.972 47.1818C241.972 44.5568 243.312 43.0966 245.216 43.0966C246.631 43.0966 247.739 43.8977 247.983 45.2898H250.108ZM255.754 53.1705C258.311 53.1705 259.936 51.3693 259.936 48.6705C259.936 45.9659 258.311 44.1591 255.754 44.1591C253.197 44.1591 251.572 45.9659 251.572 48.6705C251.572 51.3693 253.197 53.1705 255.754 53.1705ZM255.766 51.5227C254.351 51.5227 253.658 50.2614 253.658 48.6648C253.658 47.0682 254.351 45.7898 255.766 45.7898C257.158 45.7898 257.851 47.0682 257.851 48.6648C257.851 50.2614 257.158 51.5227 255.766 51.5227ZM268.676 41.0455C268.256 41.3636 267.591 41.358 266.688 41.358C266.432 41.358 266.165 41.358 265.875 41.3636C262.869 41.4034 261.324 43.4034 261.324 47.5057V48.2898C261.324 51.483 262.938 53.1705 265.477 53.1705C268.017 53.1705 269.619 51.4773 269.619 48.7841C269.619 46.1705 268.097 44.6648 265.932 44.6648C264.602 44.6648 263.597 45.2386 263.051 46.3068H262.955C263.159 44.1307 263.977 43.1477 265.932 43.1023C267.665 43.0625 268.636 43.0341 269.392 42.375L268.676 41.0455ZM265.489 51.5227C264.199 51.5227 263.409 50.4886 263.409 48.8409C263.426 47.2159 264.205 46.2841 265.477 46.2841C266.75 46.2841 267.534 47.2159 267.534 48.8409C267.534 50.4943 266.756 51.5227 265.489 51.5227ZM271.369 56.2727H273.426V51.625H273.511C273.835 52.2614 274.511 53.1534 276.011 53.1534C278.068 53.1534 279.608 51.5227 279.608 48.6477C279.608 45.7386 278.023 44.1591 276.006 44.1591C274.466 44.1591 273.824 45.0852 273.511 45.7159H273.392V44.2727H271.369V56.2727ZM273.386 48.6364C273.386 46.9432 274.114 45.8466 275.438 45.8466C276.807 45.8466 277.511 47.0114 277.511 48.6364C277.511 50.2727 276.795 51.4659 275.438 51.4659C274.125 51.4659 273.386 50.3295 273.386 48.6364ZM283.881 53.1761C285.25 53.1761 286.068 52.5341 286.443 51.8011H286.511V53H288.489V47.1591C288.489 44.8523 286.608 44.1591 284.943 44.1591C283.108 44.1591 281.699 44.9773 281.244 46.5682L283.165 46.8409C283.369 46.2443 283.949 45.733 284.955 45.733C285.909 45.733 286.432 46.2216 286.432 47.0795V47.1136C286.432 47.7045 285.812 47.733 284.273 47.8977C282.58 48.0795 280.96 48.5852 280.96 50.5511C280.96 52.267 282.216 53.1761 283.881 53.1761ZM284.415 51.6648C283.557 51.6648 282.943 51.2727 282.943 50.517C282.943 49.7273 283.631 49.3977 284.551 49.267C285.091 49.1932 286.17 49.0568 286.438 48.8409V49.8693C286.438 50.8409 285.653 51.6648 284.415 51.6648ZM289.58 45.9602H292.403V53H294.392V45.9602H297.216V44.2727H289.58V45.9602ZM300.837 47.1136V44.2727H298.854V53H302.82C305.041 53 306.32 51.7727 306.325 50.0568C306.32 48.2955 305.041 47.1136 302.82 47.1136H300.837ZM300.837 48.8011H302.82C303.712 48.8011 304.354 49.3295 304.354 50.0852C304.354 50.8068 303.712 51.3125 302.82 51.3125H300.837V48.8011ZM315.864 53.1705C318.057 53.1705 319.455 51.8693 319.602 50.017H317.636C317.46 50.9545 316.784 51.4943 315.881 51.4943C314.597 51.4943 313.767 50.4205 313.767 48.6364C313.767 46.875 314.614 45.8182 315.881 45.8182C316.869 45.8182 317.477 46.4545 317.636 47.2955H319.602C319.46 45.4034 317.983 44.1591 315.852 44.1591C313.295 44.1591 311.682 46.0057 311.682 48.6705C311.682 51.3125 313.256 53.1705 315.864 53.1705ZM320.673 45.9602H323.497V53H325.486V45.9602H328.31V44.2727H320.673V45.9602ZM332.099 53.1761C333.469 53.1761 334.287 52.5341 334.662 51.8011H334.73V53H336.707V47.1591C336.707 44.8523 334.827 44.1591 333.162 44.1591C331.327 44.1591 329.918 44.9773 329.463 46.5682L331.384 46.8409C331.588 46.2443 332.168 45.733 333.173 45.733C334.128 45.733 334.651 46.2216 334.651 47.0795V47.1136C334.651 47.7045 334.031 47.733 332.491 47.8977C330.798 48.0795 329.179 48.5852 329.179 50.5511C329.179 52.267 330.435 53.1761 332.099 53.1761ZM332.634 51.6648C331.776 51.6648 331.162 51.2727 331.162 50.517C331.162 49.7273 331.849 49.3977 332.77 49.267C333.31 49.1932 334.389 49.0568 334.656 48.8409V49.8693C334.656 50.8409 333.872 51.6648 332.634 51.6648ZM337.798 45.9602H340.622V53H342.611V45.9602H345.435V44.2727H337.798V45.9602ZM349.055 50.2159V44.2727H347.072V53H349.192L352.675 47.0511V53H354.663V44.2727H352.55L349.055 50.2159ZM360.582 53.1705C362.776 53.1705 364.173 51.8693 364.321 50.017H362.355C362.179 50.9545 361.503 51.4943 360.599 51.4943C359.315 51.4943 358.486 50.4205 358.486 48.6364C358.486 46.875 359.332 45.8182 360.599 45.8182C361.588 45.8182 362.196 46.4545 362.355 47.2955H364.321C364.179 45.4034 362.702 44.1591 360.571 44.1591C358.014 44.1591 356.401 46.0057 356.401 48.6705C356.401 51.3125 357.974 53.1705 360.582 53.1705ZM365.392 45.9602H368.216V53H370.205V45.9602H373.028V44.2727H365.392V45.9602ZM376.649 50.2159V44.2727H374.666V53H376.786L380.268 47.0511V53H382.257V44.2727H380.143L376.649 50.2159ZM384.369 53H386.426V49.7102H387.432L389.824 53H392.312L389.045 48.5568L392.278 44.2727H389.801L387.176 47.7955H386.426V44.2727H384.369V53ZM394.851 56.2557C396.453 56.2557 397.379 55.4261 397.874 54.0568L401.379 44.2841L399.18 44.2727L397.163 50.8636H397.072L395.061 44.2727H392.879L396.044 53.1818L395.868 53.6534C395.476 54.6193 394.885 54.6932 393.987 54.4375L393.51 56.0341C393.788 56.1534 394.288 56.2557 394.851 56.2557Z" fill="black"/>
<rect x="151" y="190" width="326" height="22" rx="5" fill="white" stroke="#D5D4D6" stroke-width="1.7" stroke-miterlimit="10" stroke-linecap="round"/>
<path opacity="0.5" d="M157.128 185H158.734L155.134 180.219L158.756 176.273H157.124L153.727 179.959H153.276V176.273H151.959V185H153.276V181.088H154.179L157.128 185ZM161.582 185.145C162.665 185.145 163.274 184.595 163.517 184.105H163.568V185H164.812V180.653C164.812 178.749 163.312 178.369 162.273 178.369C161.088 178.369 159.997 178.847 159.571 180.04L160.768 180.312C160.956 179.848 161.433 179.401 162.29 179.401C163.112 179.401 163.534 179.831 163.534 180.572V180.602C163.534 181.067 163.057 181.058 161.881 181.195C160.641 181.339 159.371 181.663 159.371 183.151C159.371 184.438 160.338 185.145 161.582 185.145ZM161.859 184.122C161.139 184.122 160.619 183.798 160.619 183.168C160.619 182.486 161.224 182.243 161.962 182.145C162.375 182.089 163.355 181.979 163.538 181.795V182.639C163.538 183.415 162.92 184.122 161.859 184.122ZM167.47 178.455H166.221V185H167.47V182.281H170.304V185H171.548V178.455H170.304V181.178H167.47V178.455ZM174.869 185.145C175.951 185.145 176.561 184.595 176.803 184.105H176.855V185H178.099V180.653C178.099 178.749 176.599 178.369 175.559 178.369C174.375 178.369 173.284 178.847 172.857 180.04L174.055 180.312C174.242 179.848 174.72 179.401 175.576 179.401C176.399 179.401 176.821 179.831 176.821 180.572V180.602C176.821 181.067 176.343 181.058 175.167 181.195C173.927 181.339 172.657 181.663 172.657 183.151C172.657 184.438 173.625 185.145 174.869 185.145ZM175.146 184.122C174.426 184.122 173.906 183.798 173.906 183.168C173.906 182.486 174.511 182.243 175.248 182.145C175.661 182.089 176.642 181.979 176.825 181.795V182.639C176.825 183.415 176.207 184.122 175.146 184.122ZM178.992 185H179.401C180.829 185 181.353 183.943 181.455 181.778L181.557 179.554H183.697V185H184.945V178.455H180.377L180.262 181.352C180.181 183.372 179.951 183.896 179.222 183.896H178.988L178.992 185Z" fill="#7A7B7C"/>
<rect x="151" y="245" width="326" height="22" rx="5" fill="white" stroke="#D5D4D6" stroke-width="1.7" stroke-miterlimit="10" stroke-linecap="round"/>
<path opacity="0.5" d="M157.128 240H158.734L155.134 235.219L158.756 231.273H157.124L153.727 234.959H153.276V231.273H151.959V240H153.276V236.088H154.179L157.128 240ZM161.582 240.145C162.665 240.145 163.274 239.595 163.517 239.105H163.568V240H164.812V235.653C164.812 233.749 163.312 233.369 162.273 233.369C161.088 233.369 159.997 233.847 159.571 235.04L160.768 235.312C160.956 234.848 161.433 234.401 162.29 234.401C163.112 234.401 163.534 234.831 163.534 235.572V235.602C163.534 236.067 163.057 236.058 161.881 236.195C160.641 236.339 159.371 236.663 159.371 238.151C159.371 239.438 160.338 240.145 161.582 240.145ZM161.859 239.122C161.139 239.122 160.619 238.798 160.619 238.168C160.619 237.486 161.224 237.243 161.962 237.145C162.375 237.089 163.355 236.979 163.538 236.795V237.639C163.538 238.415 162.92 239.122 161.859 239.122ZM167.47 233.455H166.221V240H167.47V237.281H170.304V240H171.548V233.455H170.304V236.178H167.47V233.455ZM174.869 240.145C175.951 240.145 176.561 239.595 176.803 239.105H176.855V240H178.099V235.653C178.099 233.749 176.599 233.369 175.559 233.369C174.375 233.369 173.284 233.847 172.857 235.04L174.055 235.312C174.242 234.848 174.72 234.401 175.576 234.401C176.399 234.401 176.821 234.831 176.821 235.572V235.602C176.821 236.067 176.343 236.058 175.167 236.195C173.927 236.339 172.657 236.663 172.657 238.151C172.657 239.438 173.625 240.145 174.869 240.145ZM175.146 239.122C174.426 239.122 173.906 238.798 173.906 238.168C173.906 237.486 174.511 237.243 175.248 237.145C175.661 237.089 176.642 236.979 176.825 236.795V237.639C176.825 238.415 176.207 239.122 175.146 239.122ZM178.992 240H179.401C180.829 240 181.353 238.943 181.455 236.778L181.557 234.554H183.697V240H184.945V233.455H180.377L180.262 236.352C180.181 238.372 179.951 238.896 179.222 238.896H178.988L178.992 240Z" fill="#7A7B7C"/>
<rect x="151" y="300" width="326" height="22" rx="5" fill="white" stroke="#D5D4D6" stroke-width="1.7" stroke-miterlimit="10" stroke-linecap="round"/>
<path opacity="0.5" d="M157.128 295H158.734L155.134 290.219L158.756 286.273H157.124L153.727 289.959H153.276V286.273H151.959V295H153.276V291.088H154.179L157.128 295ZM161.582 295.145C162.665 295.145 163.274 294.595 163.517 294.105H163.568V295H164.812V290.653C164.812 288.749 163.312 288.369 162.273 288.369C161.088 288.369 159.997 288.847 159.571 290.04L160.768 290.312C160.956 289.848 161.433 289.401 162.29 289.401C163.112 289.401 163.534 289.831 163.534 290.572V290.602C163.534 291.067 163.057 291.058 161.881 291.195C160.641 291.339 159.371 291.663 159.371 293.151C159.371 294.438 160.338 295.145 161.582 295.145ZM161.859 294.122C161.139 294.122 160.619 293.798 160.619 293.168C160.619 292.486 161.224 292.243 161.962 292.145C162.375 292.089 163.355 291.979 163.538 291.795V292.639C163.538 293.415 162.92 294.122 161.859 294.122ZM167.47 288.455H166.221V295H167.47V292.281H170.304V295H171.548V288.455H170.304V291.178H167.47V288.455ZM174.869 295.145C175.951 295.145 176.561 294.595 176.803 294.105H176.855V295H178.099V290.653C178.099 288.749 176.599 288.369 175.559 288.369C174.375 288.369 173.284 288.847 172.857 290.04L174.055 290.312C174.242 289.848 174.72 289.401 175.576 289.401C176.399 289.401 176.821 289.831 176.821 290.572V290.602C176.821 291.067 176.343 291.058 175.167 291.195C173.927 291.339 172.657 291.663 172.657 293.151C172.657 294.438 173.625 295.145 174.869 295.145ZM175.146 294.122C174.426 294.122 173.906 293.798 173.906 293.168C173.906 292.486 174.511 292.243 175.248 292.145C175.661 292.089 176.642 291.979 176.825 291.795V292.639C176.825 293.415 176.207 294.122 175.146 294.122ZM178.992 295H179.401C180.829 295 181.353 293.943 181.455 291.778L181.557 289.554H183.697V295H184.945V288.455H180.377L180.262 291.352C180.181 293.372 179.951 293.896 179.222 293.896H178.988L178.992 295Z" fill="#7A7B7C"/>
<path d="M180.54 88.6364C180.54 85.8452 178.869 84.1534 176.611 84.1534C174.344 84.1534 172.678 85.8452 172.678 88.6364C172.678 91.4233 174.344 93.1193 176.611 93.1193C178.869 93.1193 180.54 91.4276 180.54 88.6364ZM179.236 88.6364C179.236 90.7628 178.111 91.9176 176.611 91.9176C175.107 91.9176 173.986 90.7628 173.986 88.6364C173.986 86.5099 175.107 85.3551 176.611 85.3551C178.111 85.3551 179.236 86.5099 179.236 88.6364ZM181.424 87.554H183.568V93H184.812V87.554H186.947V86.4545H181.424V87.554ZM188.006 93H189.28V90.3835H190.107L192.08 93H193.661L191.096 89.6378L193.631 86.4545H192.055L189.894 89.1989H189.28V86.4545H188.006V93ZM194.362 95.4545H195.637V91.9815H195.713C195.943 92.3991 196.412 93.1278 197.605 93.1278C199.191 93.1278 200.341 91.858 200.341 89.7401C200.341 87.6179 199.174 86.3693 197.593 86.3693C196.378 86.3693 195.939 87.1108 195.713 87.5156H195.607V86.4545H194.362V95.4545ZM195.611 89.7273C195.611 88.3594 196.208 87.4517 197.32 87.4517C198.475 87.4517 199.054 88.4276 199.054 89.7273C199.054 91.0398 198.458 92.0412 197.32 92.0412C196.225 92.0412 195.611 91.1037 195.611 89.7273ZM202.729 88.7045V86.4545H201.48V93H204.34C205.942 93 206.837 92.071 206.837 90.8395C206.837 89.5824 205.942 88.7045 204.34 88.7045H202.729ZM207.766 93H209.04V86.4545H207.766V93ZM202.729 89.804H204.34C205.073 89.804 205.597 90.2472 205.597 90.8778C205.597 91.4744 205.073 91.9006 204.34 91.9006H202.729V89.804ZM210.095 87.554H212.238V93H213.483V87.554H215.618V86.4545H210.095V87.554ZM217.926 88.7045V86.4545H216.677V93H219.536C221.139 93 222.033 92.071 222.033 90.8395C222.033 89.5824 221.139 88.7045 219.536 88.7045H217.926ZM222.962 93H224.237V86.4545H222.962V93ZM217.926 89.804H219.536C220.269 89.804 220.793 90.2472 220.793 90.8778C220.793 91.4744 220.269 91.9006 219.536 91.9006H217.926V89.804ZM228.479 93.1321C229.907 93.1321 230.917 92.429 231.206 91.3636L230 91.1463C229.77 91.7642 229.216 92.0795 228.492 92.0795C227.401 92.0795 226.668 91.3722 226.634 90.1108H231.287V89.6591C231.287 87.294 229.873 86.3693 228.39 86.3693C226.566 86.3693 225.364 87.7585 225.364 89.7699C225.364 91.8026 226.549 93.1321 228.479 93.1321ZM226.638 89.1562C226.689 88.2273 227.363 87.4219 228.398 87.4219C229.387 87.4219 230.034 88.1548 230.039 89.1562H226.638ZM235.3 93H236.54V87.554H239.391V93H240.64V86.4545H235.3V93ZM243.303 91.2145V86.4545H242.055V93H243.44L246.312 88.2358V93H247.56V86.4545H246.188L243.303 91.2145ZM251.742 93.1321C253.289 93.1321 254.29 92.2031 254.431 90.929H253.191C253.029 91.6364 252.479 92.054 251.751 92.054C250.672 92.054 249.978 91.1548 249.978 89.7273C249.978 88.3253 250.685 87.4432 251.751 87.4432C252.56 87.4432 253.055 87.9545 253.191 88.5682H254.431C254.295 87.2472 253.217 86.3693 251.729 86.3693C249.884 86.3693 248.691 87.7585 248.691 89.7571C248.691 91.7301 249.842 93.1321 251.742 93.1321ZM256.754 88.7045V86.4545H255.505V93H258.365C259.967 93 260.862 92.071 260.862 90.8395C260.862 89.5824 259.967 88.7045 258.365 88.7045H256.754ZM256.754 89.804H258.365C259.097 89.804 259.622 90.2472 259.622 90.8778C259.622 91.4744 259.097 91.9006 258.365 91.9006H256.754V89.804ZM265.675 91.4233L263.604 86.4545H262.002V93H263.251V88.2401L265.202 93H266.148L268.134 88.2571V93H269.374V86.4545H267.789L265.675 91.4233ZM272.689 93.1449C273.771 93.1449 274.38 92.5952 274.623 92.1051H274.674V93H275.919V88.6534C275.919 86.7486 274.419 86.3693 273.379 86.3693C272.194 86.3693 271.103 86.8466 270.677 88.0398L271.875 88.3125C272.062 87.848 272.54 87.4006 273.396 87.4006C274.219 87.4006 274.64 87.831 274.64 88.5724V88.6023C274.64 89.0668 274.163 89.0582 272.987 89.1946C271.747 89.3395 270.477 89.6634 270.477 91.1506C270.477 92.4375 271.444 93.1449 272.689 93.1449ZM272.966 92.1222C272.245 92.1222 271.726 91.7983 271.726 91.1676C271.726 90.4858 272.331 90.2429 273.068 90.1449C273.481 90.0895 274.461 89.9787 274.645 89.7955V90.6392C274.645 91.4148 274.027 92.1222 272.966 92.1222Z" fill="#686D6E"/>
<rect x="151" y="82" width="12" height="13" rx="2" fill="#AA5382"/>
<path d="M153.339 87.4018C153.136 87.2145 152.82 87.2272 152.633 87.4301C152.445 87.633 152.458 87.9493 152.661 88.1366L153.339 87.4018ZM156.5 91L156.161 91.3674L156.533 91.7108L156.872 91.3345L156.5 91ZM161.372 86.3345C161.556 86.1292 161.54 85.8131 161.334 85.6284C161.129 85.4436 160.813 85.4603 160.628 85.6655L161.372 86.3345ZM152.661 88.1366L156.161 91.3674L156.839 90.6326L153.339 87.4018L152.661 88.1366ZM156.872 91.3345L161.372 86.3345L160.628 85.6655L156.128 90.6655L156.872 91.3345Z" fill="white"/>
<path d="M179.781 109.273H173.048V118H174.361V110.398H178.469V118H179.781V109.273ZM184.225 118.132C185.653 118.132 186.663 117.429 186.952 116.364L185.746 116.146C185.516 116.764 184.962 117.08 184.238 117.08C183.147 117.08 182.414 116.372 182.38 115.111H187.033V114.659C187.033 112.294 185.619 111.369 184.136 111.369C182.312 111.369 181.11 112.759 181.11 114.77C181.11 116.803 182.295 118.132 184.225 118.132ZM182.384 114.156C182.435 113.227 183.109 112.422 184.144 112.422C185.133 112.422 185.78 113.155 185.785 114.156H182.384ZM188.159 120.455H189.433V116.982H189.51C189.74 117.399 190.208 118.128 191.402 118.128C192.987 118.128 194.137 116.858 194.137 114.74C194.137 112.618 192.97 111.369 191.389 111.369C190.174 111.369 189.735 112.111 189.51 112.516H189.403V111.455H188.159V120.455ZM189.407 114.727C189.407 113.359 190.004 112.452 191.116 112.452C192.271 112.452 192.85 113.428 192.85 114.727C192.85 116.04 192.254 117.041 191.116 117.041C190.021 117.041 189.407 116.104 189.407 114.727ZM198.098 118.132C199.525 118.132 200.535 117.429 200.825 116.364L199.619 116.146C199.389 116.764 198.835 117.08 198.11 117.08C197.019 117.08 196.286 116.372 196.252 115.111H200.906V114.659C200.906 112.294 199.491 111.369 198.008 111.369C196.184 111.369 194.982 112.759 194.982 114.77C194.982 116.803 196.167 118.132 198.098 118.132ZM196.257 114.156C196.308 113.227 196.981 112.422 198.017 112.422C199.005 112.422 199.653 113.155 199.657 114.156H196.257ZM202.884 111.455H201.487L203.498 114.727L201.461 118H202.859L204.329 115.554L205.803 118H207.197L205.139 114.727L207.18 111.455H205.786L204.329 114.003L202.884 111.455ZM210.687 118.132C212.532 118.132 213.738 116.781 213.738 114.757C213.738 112.72 212.532 111.369 210.687 111.369C208.842 111.369 207.636 112.72 207.636 114.757C207.636 116.781 208.842 118.132 210.687 118.132ZM210.692 117.062C209.486 117.062 208.923 116.01 208.923 114.753C208.923 113.5 209.486 112.435 210.692 112.435C211.889 112.435 212.451 113.5 212.451 114.753C212.451 116.01 211.889 117.062 210.692 117.062ZM214.233 119.888H215.494V118H220.058V119.888H221.303V116.896H220.297V111.455H215.848L215.644 113.896C215.507 115.545 215.307 116.406 214.766 116.896H214.233V119.888ZM216.129 116.896C216.564 116.287 216.726 115.273 216.854 113.896L216.99 112.545H219.053V116.896H216.129ZM223.508 113.705V111.455H222.26V118H225.119C226.721 118 227.616 117.071 227.616 115.839C227.616 114.582 226.721 113.705 225.119 113.705H223.508ZM228.545 118H229.819V111.455H228.545V118ZM223.508 114.804H225.119C225.852 114.804 226.376 115.247 226.376 115.878C226.376 116.474 225.852 116.901 225.119 116.901H223.508V114.804ZM234.128 118H235.368V112.554H238.219V118H239.468V111.455H234.128V118ZM243.64 118.132C245.485 118.132 246.691 116.781 246.691 114.757C246.691 112.72 245.485 111.369 243.64 111.369C241.795 111.369 240.589 112.72 240.589 114.757C240.589 116.781 241.795 118.132 243.64 118.132ZM243.644 117.062C242.438 117.062 241.876 116.01 241.876 114.753C241.876 113.5 242.438 112.435 243.644 112.435C244.842 112.435 245.404 113.5 245.404 114.753C245.404 116.01 244.842 117.062 243.644 117.062ZM253.469 118.132C255.016 118.132 256.018 117.203 256.158 115.929H254.918C254.756 116.636 254.207 117.054 253.478 117.054C252.4 117.054 251.705 116.155 251.705 114.727C251.705 113.325 252.412 112.443 253.478 112.443C254.287 112.443 254.782 112.955 254.918 113.568H256.158C256.022 112.247 254.944 111.369 253.457 111.369C251.611 111.369 250.418 112.759 250.418 114.757C250.418 116.73 251.569 118.132 253.469 118.132ZM259.989 118.132C261.536 118.132 262.538 117.203 262.678 115.929H261.438C261.276 116.636 260.727 117.054 259.998 117.054C258.92 117.054 258.225 116.155 258.225 114.727C258.225 113.325 258.933 112.443 259.998 112.443C260.808 112.443 261.302 112.955 261.438 113.568H262.678C262.542 112.247 261.464 111.369 259.977 111.369C258.132 111.369 256.938 112.759 256.938 114.757C256.938 116.73 258.089 118.132 259.989 118.132ZM265.001 113.705V111.455H263.753V118H266.612C268.214 118 269.109 117.071 269.109 115.839C269.109 114.582 268.214 113.705 266.612 113.705H265.001ZM270.038 118H271.312V111.455H270.038V118ZM265.001 114.804H266.612C267.345 114.804 267.869 115.247 267.869 115.878C267.869 116.474 267.345 116.901 266.612 116.901H265.001V114.804ZM272.218 118H272.627C274.055 118 274.579 116.943 274.681 114.778L274.783 112.554H276.923V118H278.171V111.455H273.603L273.488 114.352C273.407 116.372 273.177 116.896 272.448 116.896H272.214L272.218 118ZM279.582 118H280.856V115.384H281.683L283.656 118H285.237L282.672 114.638L285.207 111.455H283.63L281.47 114.199H280.856V111.455H279.582V118ZM287.843 118.145C288.925 118.145 289.535 117.595 289.778 117.105H289.829V118H291.073V113.653C291.073 111.749 289.573 111.369 288.533 111.369C287.349 111.369 286.258 111.847 285.832 113.04L287.029 113.312C287.217 112.848 287.694 112.401 288.55 112.401C289.373 112.401 289.795 112.831 289.795 113.572V113.602C289.795 114.067 289.317 114.058 288.141 114.195C286.901 114.339 285.631 114.663 285.631 116.151C285.631 117.438 286.599 118.145 287.843 118.145ZM288.12 117.122C287.4 117.122 286.88 116.798 286.88 116.168C286.88 115.486 287.485 115.243 288.222 115.145C288.636 115.089 289.616 114.979 289.799 114.795V115.639C289.799 116.415 289.181 117.122 288.12 117.122ZM296.155 116.423L294.084 111.455H292.482V118H293.73V113.24L295.682 118H296.628L298.614 113.257V118H299.854V111.455H298.269L296.155 116.423Z" fill="#686D6E"/>
<rect x="151" y="107" width="12" height="13" rx="2" fill="#AA5382"/>
<path d="M153.339 112.402C153.136 112.215 152.82 112.227 152.633 112.43C152.445 112.633 152.458 112.949 152.661 113.137L153.339 112.402ZM156.5 116L156.161 116.367L156.533 116.711L156.872 116.334L156.5 116ZM161.372 111.334C161.556 111.129 161.54 110.813 161.334 110.628C161.129 110.444 160.813 110.46 160.628 110.666L161.372 111.334ZM152.661 113.137L156.161 116.367L156.839 115.633L153.339 112.402L152.661 113.137ZM156.872 116.334L161.372 111.334L160.628 110.666L156.128 115.666L156.872 116.334Z" fill="white"/>
<path d="M172.959 134.273V143H174.169L178.605 136.599H178.686V143H180.003V134.273H178.784L174.344 140.682H174.263V134.273H172.959ZM182.782 136.455H181.533V143H182.782V140.281H185.615V143H186.86V136.455H185.615V139.178H182.782V136.455ZM187.464 137.554H189.608V143H190.852V137.554H192.987V136.455H187.464V137.554ZM196.562 143.132C197.99 143.132 199 142.429 199.29 141.364L198.084 141.146C197.854 141.764 197.3 142.08 196.575 142.08C195.484 142.08 194.751 141.372 194.717 140.111H199.371V139.659C199.371 137.294 197.956 136.369 196.473 136.369C194.649 136.369 193.447 137.759 193.447 139.77C193.447 141.803 194.632 143.132 196.562 143.132ZM194.721 139.156C194.773 138.227 195.446 137.422 196.481 137.422C197.47 137.422 198.118 138.155 198.122 139.156H194.721ZM204.681 136.455H200.496V143H201.753V137.554H204.681V136.455ZM205.739 145.455H207.013V141.982H207.09C207.32 142.399 207.788 143.128 208.982 143.128C210.567 143.128 211.717 141.858 211.717 139.74C211.717 137.618 210.55 136.369 208.969 136.369C207.754 136.369 207.315 137.111 207.09 137.516H206.983V136.455H205.739V145.455ZM206.987 139.727C206.987 138.359 207.584 137.452 208.696 137.452C209.851 137.452 210.431 138.428 210.431 139.727C210.431 141.04 209.834 142.041 208.696 142.041C207.601 142.041 206.987 141.104 206.987 139.727ZM214.761 143.145C215.844 143.145 216.453 142.595 216.696 142.105H216.747V143H217.992V138.653C217.992 136.749 216.492 136.369 215.452 136.369C214.267 136.369 213.176 136.847 212.75 138.04L213.948 138.312C214.135 137.848 214.612 137.401 215.469 137.401C216.291 137.401 216.713 137.831 216.713 138.572V138.602C216.713 139.067 216.236 139.058 215.06 139.195C213.82 139.339 212.55 139.663 212.55 141.151C212.55 142.438 213.517 143.145 214.761 143.145ZM215.038 142.122C214.318 142.122 213.798 141.798 213.798 141.168C213.798 140.486 214.404 140.243 215.141 140.145C215.554 140.089 216.534 139.979 216.717 139.795V140.639C216.717 141.415 216.1 142.122 215.038 142.122ZM224.735 136.455H223.495V141.901H220.645V136.455H219.396V143H224.735V145.109H225.997V141.956H224.735V136.455ZM228.294 141.214V136.455H227.045V143H228.43L231.303 138.236V143H232.551V136.455H231.179L228.294 141.214ZM237.879 143H239.077V136.455H236.311C234.803 136.455 233.882 137.234 233.882 138.466C233.882 139.327 234.334 139.962 235.114 140.256L233.584 143H234.888L236.315 140.439H237.879V143ZM237.879 139.408H236.226C235.531 139.408 235.126 139.041 235.131 138.483C235.126 137.92 235.565 137.541 236.311 137.541H237.879V139.408ZM243.372 143H246.5C247.931 143 248.771 142.276 248.771 141.236C248.771 140.264 248.025 139.668 247.152 139.565C247.957 139.412 248.49 138.969 248.49 138.202C248.49 137.128 247.561 136.455 246.086 136.455H243.372V143ZM244.569 141.935V140.115H246.5C247.13 140.115 247.509 140.486 247.509 141.095C247.509 141.615 247.13 141.935 246.5 141.935H244.569ZM244.569 139.182V137.533H246.086C246.811 137.533 247.25 137.835 247.25 138.338C247.25 138.862 246.815 139.182 246.099 139.182H244.569ZM258.776 137.03H260.127C259.833 135.33 258.38 134.153 256.496 134.153C254.238 134.153 252.589 135.854 252.589 138.641C252.589 141.402 254.191 143.119 256.556 143.119C258.674 143.119 260.187 141.73 260.187 139.527V138.534H256.756V139.621H258.912C258.883 141.027 257.954 141.918 256.556 141.918C255.018 141.918 253.897 140.754 253.897 138.632C253.897 136.518 255.026 135.355 256.505 135.355C257.664 135.355 258.448 135.994 258.776 137.03ZM264.225 143.132C266.07 143.132 267.276 141.781 267.276 139.757C267.276 137.72 266.07 136.369 264.225 136.369C262.379 136.369 261.173 137.72 261.173 139.757C261.173 141.781 262.379 143.132 264.225 143.132ZM264.229 142.062C263.023 142.062 262.46 141.01 262.46 139.753C262.46 138.5 263.023 137.435 264.229 137.435C265.426 137.435 265.989 138.5 265.989 139.753C265.989 141.01 265.426 142.062 264.229 142.062ZM271.167 143.132C273.012 143.132 274.218 141.781 274.218 139.757C274.218 137.72 273.012 136.369 271.167 136.369C269.321 136.369 268.115 137.72 268.115 139.757C268.115 141.781 269.321 143.132 271.167 143.132ZM271.171 142.062C269.965 142.062 269.402 141.01 269.402 139.753C269.402 138.5 269.965 137.435 271.171 137.435C272.368 137.435 272.931 138.5 272.931 139.753C272.931 141.01 272.368 142.062 271.171 142.062ZM278.096 145.578C279.762 145.578 281.049 144.815 281.049 143.145V136.455H279.8V137.516H279.707C279.481 137.111 279.029 136.369 277.81 136.369C276.229 136.369 275.066 137.618 275.066 139.702C275.066 141.79 276.255 142.902 277.802 142.902C279.004 142.902 279.468 142.224 279.698 141.807H279.779V143.094C279.779 144.104 279.076 144.551 278.109 144.551C277.048 144.551 276.634 144.018 276.408 143.656L275.313 144.108C275.658 144.896 276.532 145.578 278.096 145.578ZM278.083 141.845C276.945 141.845 276.353 140.972 276.353 139.685C276.353 138.428 276.933 137.452 278.083 137.452C279.195 137.452 279.792 138.359 279.792 139.685C279.792 141.036 279.183 141.845 278.083 141.845ZM283.744 134.273H282.469V143H283.744V134.273ZM287.99 143.132C289.418 143.132 290.428 142.429 290.718 141.364L289.512 141.146C289.282 141.764 288.728 142.08 288.003 142.08C286.912 142.08 286.179 141.372 286.145 140.111H290.799V139.659C290.799 137.294 289.384 136.369 287.901 136.369C286.077 136.369 284.875 137.759 284.875 139.77C284.875 141.803 286.06 143.132 287.99 143.132ZM286.149 139.156C286.201 138.227 286.874 137.422 287.909 137.422C288.898 137.422 289.546 138.155 289.55 139.156H286.149ZM295.651 143L296.452 140.69H299.861L300.658 143H302.056L298.915 134.273H297.394L294.253 143H295.651ZM296.835 139.582L298.122 135.858H298.191L299.477 139.582H296.835ZM304.199 139.114C304.199 138.07 304.839 137.473 305.725 137.473C306.59 137.473 307.114 138.04 307.114 138.99V143H308.388V138.837C308.388 137.217 307.498 136.369 306.16 136.369C305.175 136.369 304.532 136.825 304.229 137.52H304.148V136.455H302.925V143H304.199V139.114ZM311.714 143.145C312.796 143.145 313.405 142.595 313.648 142.105H313.699V143H314.944V138.653C314.944 136.749 313.444 136.369 312.404 136.369C311.219 136.369 310.128 136.847 309.702 138.04L310.9 138.312C311.087 137.848 311.564 137.401 312.421 137.401C313.243 137.401 313.665 137.831 313.665 138.572V138.602C313.665 139.067 313.188 139.058 312.012 139.195C310.772 139.339 309.502 139.663 309.502 141.151C309.502 142.438 310.469 143.145 311.714 143.145ZM311.991 142.122C311.27 142.122 310.75 141.798 310.75 141.168C310.75 140.486 311.356 140.243 312.093 140.145C312.506 140.089 313.486 139.979 313.67 139.795V140.639C313.67 141.415 313.052 142.122 311.991 142.122ZM317.626 134.273H316.352V143H317.626V134.273ZM319.858 145.438C320.91 145.438 321.579 144.888 321.954 143.874L324.66 136.467L323.284 136.455L321.626 141.534H321.558L319.9 136.455H318.537L320.931 143.085L320.774 143.52C320.45 144.368 319.994 144.445 319.295 144.253L318.988 145.297C319.142 145.369 319.474 145.438 319.858 145.438ZM328.628 136.455H327.285V134.886H326.011V136.455H325.053V137.477H326.011V141.342C326.007 142.531 326.915 143.107 327.92 143.085C328.325 143.081 328.598 143.004 328.747 142.949L328.517 141.896C328.432 141.913 328.274 141.952 328.07 141.952C327.656 141.952 327.285 141.815 327.285 141.078V137.477H328.628V136.455ZM329.749 143H331.023V136.455H329.749V143ZM330.392 135.445C330.831 135.445 331.198 135.104 331.198 134.686C331.198 134.268 330.831 133.923 330.392 133.923C329.949 133.923 329.587 134.268 329.587 134.686C329.587 135.104 329.949 135.445 330.392 135.445ZM335.206 143.132C336.753 143.132 337.754 142.203 337.895 140.929H336.655C336.493 141.636 335.943 142.054 335.214 142.054C334.136 142.054 333.442 141.155 333.442 139.727C333.442 138.325 334.149 137.443 335.214 137.443C336.024 137.443 336.518 137.955 336.655 138.568H337.895C337.758 137.247 336.68 136.369 335.193 136.369C333.348 136.369 332.155 137.759 332.155 139.757C332.155 141.73 333.305 143.132 335.206 143.132ZM343.874 138.053C343.61 137.034 342.813 136.369 341.398 136.369C339.919 136.369 338.871 137.149 338.871 138.308C338.871 139.237 339.433 139.855 340.661 140.128L341.769 140.371C342.399 140.511 342.693 140.793 342.693 141.202C342.693 141.709 342.152 142.105 341.317 142.105C340.554 142.105 340.064 141.777 339.911 141.134L338.679 141.321C338.892 142.48 339.855 143.132 341.325 143.132C342.906 143.132 344.002 142.293 344.002 141.108C344.002 140.183 343.414 139.612 342.212 139.335L341.172 139.097C340.452 138.926 340.141 138.683 340.145 138.24C340.141 137.737 340.686 137.379 341.411 137.379C342.203 137.379 342.57 137.818 342.719 138.257L343.874 138.053ZM351.325 133.864H350.188L347.375 144.312H348.513L351.325 133.864ZM360.93 143V134.273H357.819C355.795 134.273 354.798 135.402 354.798 137.009C354.798 138.18 355.331 139.071 356.4 139.467L354.466 143H355.966L357.738 139.697C357.768 139.697 357.794 139.697 357.824 139.697H359.613V143H360.93ZM359.613 138.564H357.943C356.66 138.564 356.123 137.993 356.123 137.009C356.123 136.02 356.66 135.402 357.96 135.402H359.613V138.564ZM363.701 136.455H362.453V143H363.701V140.281H366.535V143H367.779V136.455H366.535V139.178H363.701V136.455ZM368.556 144.888H369.818V143H374.382V144.888H375.626V141.896H374.62V136.455H370.171L369.967 138.896C369.831 140.545 369.63 141.406 369.089 141.896H368.556V144.888ZM370.453 141.896C370.887 141.287 371.049 140.273 371.177 138.896L371.314 137.545H373.376V141.896H370.453ZM379.404 143.132C380.832 143.132 381.842 142.429 382.131 141.364L380.925 141.146C380.695 141.764 380.141 142.08 379.417 142.08C378.326 142.08 377.593 141.372 377.559 140.111H382.212V139.659C382.212 137.294 380.797 136.369 379.315 136.369C377.491 136.369 376.289 137.759 376.289 139.77C376.289 141.803 377.474 143.132 379.404 143.132ZM377.563 139.156C377.614 138.227 378.288 137.422 379.323 137.422C380.312 137.422 380.959 138.155 380.964 139.156H377.563ZM383.338 143H384.612V140.384H385.438L387.411 143H388.992L386.427 139.638L388.963 136.455H387.386L385.225 139.199H384.612V136.455H383.338V143ZM392.181 143.132C393.728 143.132 394.73 142.203 394.87 140.929H393.63C393.468 141.636 392.919 142.054 392.19 142.054C391.112 142.054 390.417 141.155 390.417 139.727C390.417 138.325 391.124 137.443 392.19 137.443C392.999 137.443 393.494 137.955 393.63 138.568H394.87C394.734 137.247 393.656 136.369 392.169 136.369C390.323 136.369 389.13 137.759 389.13 139.757C389.13 141.73 390.281 143.132 392.181 143.132ZM398.934 134.273V143H400.187V136.68H400.268L402.842 142.987H403.881L406.455 136.685H406.536V143H407.789V134.273H406.191L403.413 141.057H403.31L400.532 134.273H398.934ZM412.134 143.132C413.561 143.132 414.571 142.429 414.861 141.364L413.655 141.146C413.425 141.764 412.871 142.08 412.147 142.08C411.056 142.08 410.323 141.372 410.289 140.111H414.942V139.659C414.942 137.294 413.527 136.369 412.044 136.369C410.221 136.369 409.019 137.759 409.019 139.77C409.019 141.803 410.204 143.132 412.134 143.132ZM410.293 139.156C410.344 138.227 411.017 137.422 412.053 137.422C413.042 137.422 413.689 138.155 413.694 139.156H410.293ZM415.49 137.554H417.634V143H418.878V137.554H421.013V136.455H415.49V137.554ZM422.072 145.455H423.346V141.982H423.423C423.653 142.399 424.122 143.128 425.315 143.128C426.9 143.128 428.051 141.858 428.051 139.74C428.051 137.618 426.883 136.369 425.302 136.369C424.088 136.369 423.649 137.111 423.423 137.516H423.316V136.455H422.072V145.455ZM423.321 139.727C423.321 138.359 423.917 137.452 425.029 137.452C426.184 137.452 426.764 138.428 426.764 139.727C426.764 141.04 426.167 142.041 425.029 142.041C423.934 142.041 423.321 141.104 423.321 139.727ZM430.438 141.214V136.455H429.19V143H430.575L433.447 138.236V143H434.696V136.455H433.323L430.438 141.214ZM436.12 143H437.394V140.384H438.221L440.194 143H441.775L439.21 139.638L441.745 136.455H440.169L438.008 139.199H437.394V136.455H436.12V143ZM444.964 143.132C446.809 143.132 448.015 141.781 448.015 139.757C448.015 137.72 446.809 136.369 444.964 136.369C443.119 136.369 441.913 137.72 441.913 139.757C441.913 141.781 443.119 143.132 444.964 143.132ZM444.968 142.062C443.762 142.062 443.2 141.01 443.2 139.753C443.2 138.5 443.762 137.435 444.968 137.435C446.166 137.435 446.728 138.5 446.728 139.753C446.728 141.01 446.166 142.062 444.968 142.062ZM450.398 141.214V136.455H449.149V143H450.534L453.406 138.236V143H454.655V136.455H453.282L450.398 141.214ZM452.737 134.239C452.737 134.669 452.498 135.048 451.902 135.048C451.297 135.048 451.071 134.665 451.071 134.239H450.027C450.027 135.197 450.755 135.858 451.902 135.858C453.057 135.858 453.785 135.197 453.785 134.239H452.737Z" fill="#686D6E"/>
<rect x="151" y="131" width="12" height="13" rx="2" fill="#AA5382"/>
<path d="M153.339 136.402C153.136 136.215 152.82 136.227 152.633 136.43C152.445 136.633 152.458 136.949 152.661 137.137L153.339 136.402ZM156.5 140L156.161 140.367L156.533 140.711L156.872 140.334L156.5 140ZM161.372 135.334C161.556 135.129 161.54 134.813 161.334 134.628C161.129 134.444 160.813 134.46 160.628 134.666L161.372 135.334ZM152.661 137.137L156.161 140.367L156.839 139.633L153.339 136.402L152.661 137.137ZM156.872 140.334L161.372 135.334L160.628 134.666L156.128 139.666L156.872 140.334Z" fill="white"/>
<path d="M369 190V211.5" stroke="#D5D4D6" stroke-width="1.7" stroke-miterlimit="10" stroke-linecap="round"/>
<path d="M369 245V266.5" stroke="#D5D4D6" stroke-width="1.7" stroke-miterlimit="10" stroke-linecap="round"/>
<path d="M369 301V322.5" stroke="#D5D4D6" stroke-width="1.7" stroke-miterlimit="10" stroke-linecap="round"/>
<path d="M391.63 201.844C391.468 201.957 391.309 202.065 391.153 202.167C391.37 203.033 392.044 203.664 393.356 203.664C395.529 203.664 400.437 202.972 404.61 201.936C404.598 201.905 404.586 201.875 404.575 201.844C403.281 198.203 410.185 195.472 411.479 198.202C412.122 199.558 408.724 200.914 404.61 201.936C406.011 205.453 414.18 203.592 418.384 202.754C419.348 202.562 420.251 202.248 421.031 201.872C418.458 200.549 418.548 198.203 421.404 198.202C425.149 198.202 423.947 200.469 421.031 201.872C422.042 202.392 423.462 202.754 425.288 202.754C428.425 202.754 431.157 201.898 432.992 200.809C432.785 198.797 434.367 196.103 435.212 197.292C435.879 198.23 434.942 199.652 432.992 200.809C431.157 201.898 428.425 202.754 425.288 202.754C423.462 202.754 422.042 202.392 421.031 201.872C420.251 202.248 419.348 202.562 418.384 202.754C414.18 203.592 406.011 205.453 404.61 201.936C400.437 202.972 395.529 203.664 393.356 203.664C392.044 203.664 391.37 203.033 391.153 202.167C390.655 200.186 392.549 196.975 394.651 197.292C397.671 197.747 399.397 196.382 391.63 201.844Z" fill="white"/>
<path d="M383 199.113C383.288 201.844 385.416 206.213 391.63 201.844C399.397 196.382 397.671 197.747 394.651 197.292C391.63 196.837 389.041 203.664 393.356 203.664C397.671 203.664 412.774 200.933 411.479 198.202C410.185 195.472 403.281 198.203 404.575 201.844C405.87 205.485 414.144 203.599 418.384 202.754C422.95 201.844 426.151 198.202 421.404 198.202C417.426 198.203 418.815 202.754 425.288 202.754C431.76 202.754 436.507 199.113 435.212 197.292C433.918 195.472 430.897 202.754 435.212 202.754C438.664 202.754 442.836 200.933 446 200.478" stroke="#D5D4D6" stroke-width="1.7" stroke-miterlimit="10" stroke-linecap="round"/>
<path d="M391.63 256.844C391.468 256.957 391.309 257.065 391.153 257.167C391.37 258.033 392.044 258.664 393.356 258.664C395.529 258.664 400.437 257.972 404.61 256.936C404.598 256.905 404.586 256.875 404.575 256.844C403.281 253.203 410.185 250.472 411.479 253.202C412.122 254.558 408.724 255.914 404.61 256.936C406.011 260.453 414.18 258.592 418.384 257.754C419.348 257.562 420.251 257.248 421.031 256.872C418.458 255.549 418.548 253.203 421.404 253.202C425.149 253.202 423.947 255.469 421.031 256.872C422.042 257.392 423.462 257.754 425.288 257.754C428.425 257.754 431.157 256.898 432.992 255.809C432.785 253.797 434.367 251.103 435.212 252.292C435.879 253.23 434.942 254.652 432.992 255.809C431.157 256.898 428.425 257.754 425.288 257.754C423.462 257.754 422.042 257.392 421.031 256.872C420.251 257.248 419.348 257.562 418.384 257.754C414.18 258.592 406.011 260.453 404.61 256.936C400.437 257.972 395.529 258.664 393.356 258.664C392.044 258.664 391.37 258.033 391.153 257.167C390.655 255.186 392.549 251.975 394.651 252.292C397.671 252.747 399.397 251.382 391.63 256.844Z" fill="white"/>
<path d="M383 254.113C383.288 256.844 385.416 261.213 391.63 256.844C399.397 251.382 397.671 252.747 394.651 252.292C391.63 251.837 389.041 258.664 393.356 258.664C397.671 258.664 412.774 255.933 411.479 253.202C410.185 250.472 403.281 253.203 404.575 256.844C405.87 260.485 414.144 258.599 418.384 257.754C422.95 256.844 426.151 253.202 421.404 253.202C417.426 253.203 418.815 257.754 425.288 257.754C431.76 257.754 436.507 254.113 435.212 252.292C433.918 250.472 430.897 257.754 435.212 257.754C438.664 257.754 442.836 255.933 446 255.478" stroke="#D5D4D6" stroke-width="1.7" stroke-miterlimit="10" stroke-linecap="round"/>
<path d="M391.63 310.844C391.468 310.957 391.309 311.065 391.153 311.167C391.37 312.033 392.044 312.664 393.356 312.664C395.529 312.664 400.437 311.972 404.61 310.936C404.598 310.905 404.586 310.875 404.575 310.844C403.281 307.203 410.185 304.472 411.479 307.202C412.122 308.558 408.724 309.914 404.61 310.936C406.011 314.453 414.18 312.592 418.384 311.754C419.348 311.562 420.251 311.248 421.031 310.872C418.458 309.549 418.548 307.203 421.404 307.202C425.149 307.202 423.947 309.469 421.031 310.872C422.042 311.392 423.462 311.754 425.288 311.754C428.425 311.754 431.157 310.898 432.992 309.809C432.785 307.797 434.367 305.103 435.212 306.292C435.879 307.23 434.942 308.652 432.992 309.809C431.157 310.898 428.425 311.754 425.288 311.754C423.462 311.754 422.042 311.392 421.031 310.872C420.251 311.248 419.348 311.562 418.384 311.754C414.18 312.592 406.011 314.453 404.61 310.936C400.437 311.972 395.529 312.664 393.356 312.664C392.044 312.664 391.37 312.033 391.153 311.167C390.655 309.186 392.549 305.975 394.651 306.292C397.671 306.747 399.397 305.382 391.63 310.844Z" fill="white"/>
<path d="M383 308.113C383.288 310.844 385.416 315.213 391.63 310.844C399.397 305.382 397.671 306.747 394.651 306.292C391.63 305.837 389.041 312.664 393.356 312.664C397.671 312.664 412.774 309.933 411.479 307.202C410.185 304.472 403.281 307.203 404.575 310.844C405.87 314.485 414.144 312.599 418.384 311.754C422.95 310.844 426.151 307.202 421.404 307.202C417.426 307.203 418.815 311.754 425.288 311.754C431.76 311.754 436.507 308.113 435.212 306.292C433.918 304.472 430.897 311.754 435.212 311.754C438.664 311.754 442.836 309.933 446 309.478" stroke="#D5D4D6" stroke-width="1.7" stroke-miterlimit="10" stroke-linecap="round"/>
<path d="M461.546 204L457 198H466L461.546 204Z" fill="#A09FAB" stroke="#A09FAB"/>
<path d="M461.546 259L457 253H466L461.546 259Z" fill="#A09FAB" stroke="#A09FAB"/>
<path d="M461.546 313L457 307H466L461.546 313Z" fill="#A09FAB" stroke="#A09FAB"/>
</svg>
