<svg width="104" height="135" viewBox="0 0 104 135" fill="none" xmlns="http://www.w3.org/2000/svg">
<path d="M6.39849 23.8715C2.31913 23.8715 1.82227 28.996 2.08376 31.5582L2.08389 128.058C2.08389 130.598 4.96037 131.568 6.39862 131.735C26.9921 132.292 69.356 133.406 74.0631 133.406C79.947 133.406 99.7561 133.071 101.129 131.735C102.227 130.665 102.371 98.3141 102.306 82.2722C102.502 69.4053 102.776 34.8538 102.306 31.3781C101.717 27.0334 100.933 26.8661 98.7754 25.5289C96.618 24.1917 75.8283 24.6334 60.5302 24.6334C45.2321 24.6334 11.4977 23.8715 6.39849 23.8715Z" fill="#EBEBEB"/>
<rect x="47.3154" y="109.493" width="45.4104" height="11.9128" rx="2" fill="#507299" stroke="#574E56" stroke-width="1.7"/>
<path d="M96.9922 52.5392H6.81787C4.05645 52.5392 1.81787 54.7778 1.81787 57.5393V98.7242C1.81787 101.486 4.05645 103.724 6.81787 103.724H96.9922C99.7536 103.724 101.992 101.486 101.992 98.7242V57.5392C101.992 54.7778 99.7536 52.5392 96.9922 52.5392Z" fill="white"/>
<path d="M49.226 67.2523C54.6945 65.7898 60.6584 64.1871 66.1264 62.7087L49.226 67.2523Z" fill="#1E9EB0"/>
<path d="M49.226 67.2523C54.6945 65.7898 60.6584 64.1871 66.1264 62.7087" stroke="#574E56" stroke-width="2" stroke-miterlimit="10"/>
<path d="M48.934 79.7456C53.8967 80.376 62.7831 84.2767 67.8752 84.6373L48.934 79.7456Z" fill="#1E9EB0"/>
<path d="M48.934 79.7456C53.8967 80.376 62.7831 84.2767 67.8752 84.6373" stroke="#574E56" stroke-width="2" stroke-miterlimit="10"/>
<path d="M37.7354 71.2134C37.4787 70.9641 36.4177 71.1184 36.2262 71.4108C36.0347 71.7031 36.0123 72.0872 36.0222 72.4384C36.0339 72.8536 36.0461 73.2847 36.0578 73.6998C36.0673 74.0351 36.0777 74.4023 36.2688 74.6851C36.4599 74.968 37.4148 75.1838 37.6917 74.9692" stroke="#574E56" stroke-width="2" stroke-miterlimit="10"/>
<path d="M38.0298 68.7141C37.3252 72.055 37.4909 75.5659 38.4992 78.8482C38.6273 79.2604 38.7897 79.7037 39.179 79.9337C39.4331 80.0871 39.75 80.1112 40.0499 80.1197C42.5167 80.2339 44.9966 80.22 47.4557 80.0628C48.1035 80.0147 48.8494 79.9002 49.1672 79.365C49.3578 79.0407 49.3298 78.642 49.3024 78.2592C49.0445 75.0222 49.0855 71.7617 49.4435 68.5253C49.4835 68.1728 49.5222 67.7724 49.2816 67.5068C49.0235 67.2097 48.5564 67.1734 48.1567 67.1674C45.2588 67.1118 42.3446 67.0726 39.4467 67.0171C39.0803 67.0102 38.5844 67.1345 38.41 67.4424C38.41 67.4424 38.1169 68.2645 38.0298 68.7141Z" stroke="#574E56" stroke-width="2" stroke-miterlimit="10"/>
<path d="M68.8752 61.5379C68.1922 60.9318 66.987 61.2814 66.4583 62.0136C65.9297 62.7458 65.76 63.4162 65.2943 65.1963C64.6275 67.7447 64.9374 70.5692 65.0066 73.0056C65.1718 78.8531 65.6931 79.3278 66.8198 83.2008C66.8837 84.2857 67.5476 85.2498 68.6796 85.2536C69.2789 85.2546 69.8152 84.7939 70.0498 84.2607C70.2844 83.7276 70.2839 83.1205 70.2843 82.5453C70.2967 80.0365 70.4072 78.6437 70.3363 76.137C69.9213 60.8567 68.8752 61.5379 68.8752 61.5379Z" stroke="#574E56" stroke-width="2" stroke-miterlimit="10"/>
<path d="M42.8424 80.449L44.9025 94.0558C45.0704 95.1647 46.0387 95.9769 47.1594 95.9489V95.9489C48.5655 95.9138 49.5825 94.5975 49.2678 93.2257C48.8617 91.4553 48.3025 88.9803 47.7395 86.3684C46.66 81.3606 47.5692 80.3309 47.5692 80.3309" stroke="#574E56" stroke-width="2"/>
<rect width="5.7409" height="5.21231" rx="2.60615" transform="matrix(0.999696 0.0246467 -0.0287695 0.999586 10.1732 39.9212)" fill="white" stroke="#574E56" stroke-width="1.7" stroke-miterlimit="10" stroke-linecap="round"/>
<path d="M19.5165 41.5691H33.879" stroke="#574E56" stroke-width="1.7" stroke-linecap="round"/>
<path d="M19.5165 45.273H28.9613" stroke="#574E56" stroke-width="1.7" stroke-linecap="round"/>
<path d="M6.39794 5.80817C2.31858 5.80817 1.82172 7.1883 2.08321 7.87837V31.8833C2.08321 32.5674 4.9597 32.226 6.39794 32.271C26.9915 32.421 69.3554 32.7211 74.0625 32.7211C79.9464 32.7211 102.305 33.5565 102.305 32.271C102.305 30.8541 102.371 23.2701 102.305 18.9497C102.501 15.4843 102.776 12.6831 102.305 11.747C101.717 10.5769 99.6036 7.71682 97.4461 7.35669C95.2887 6.99656 75.8277 5.80817 60.5295 5.80817H6.39794Z" fill="#507299"/>
<path d="M13.7579 26.377C13.7579 24.8257 13.7579 23.2357 13.7579 21.6844C12.5887 21.762 11.4613 22.0334 10.3756 22.46C9.83276 21.9171 9.91627 20.1719 10.1668 19.7841C10.5426 19.1248 13.3403 18.8921 13.5491 18.7757C14.092 18.4655 13.9249 18.3104 13.9249 17.7286C13.8414 15.1302 14.1337 12.2604 16.0545 10.3601C16.5139 9.89468 17.0985 9.46808 17.7666 9.31296C19.5621 8.80879 21.5665 10.2437 21.817 11.9501C21.9005 12.4543 21.8588 12.9972 21.5247 13.3851C21.1906 13.7729 20.5225 13.928 20.105 13.579C19.6874 13.2687 19.7291 12.6482 19.3533 12.2992C18.8523 11.8726 17.9754 12.144 17.6413 12.687C17.3072 13.2299 17.2237 14.0443 17.2655 14.7036C17.3072 16.061 17.3072 16.953 17.2655 18.0389C18.1841 17.7286 19.6456 17.4572 20.606 17.1469C21.5247 18.1165 20.8148 19.8229 20.439 19.978C19.9379 20.2107 17.8501 20.4046 17.516 20.8312C17.349 21.0639 17.349 21.3741 17.349 21.6456C17.3908 22.4212 17.4325 23.3132 17.516 24.0889C17.5995 24.8645 17.8083 26.1831 17.1402 26.4158C16.5556 26.6097 16.0128 26.726 15.3864 26.8812C14.9271 26.9975 14.5513 27.1914 14.1337 27.0751C13.6744 26.9587 13.7579 26.377 13.7579 26.377Z" fill="white"/>
<rect width="64.8593" height="19.3588" rx="6" transform="matrix(1.00398 0.0104682 -0.0121147 0.99528 31.5259 9.96936)" fill="white"/>
<path d="M90.4322 23.3256L87.0105 20.6848C87.5089 19.8911 87.7513 18.9394 87.6355 17.9445C87.3538 15.5249 85.0705 13.768 82.5535 14.0187C80.0364 14.2694 78.2099 16.4357 78.4915 18.8553C78.7732 21.2749 81.0565 23.0318 83.5736 22.7811C84.6126 22.6776 85.5317 22.2471 86.2351 21.6089L89.6625 24.254C89.7962 24.3572 89.9602 24.3988 90.1164 24.3833C90.2726 24.3677 90.4233 24.2947 90.5302 24.1676C90.7458 23.9112 90.7018 23.5337 90.4322 23.3256C90.4322 23.3256 90.4322 23.3256 90.4322 23.3256ZM83.4354 21.5941C81.5894 21.778 79.9276 20.4903 79.723 18.7326C79.5184 16.975 80.8457 15.3895 82.6917 15.2056C84.5377 15.0218 86.1995 16.3095 86.4041 18.0671C86.6087 19.8248 85.2814 21.4103 83.4354 21.5941Z" fill="#574E56" stroke="#574E56" stroke-width="0.3"/>
<path d="M5.99067 5.66742C1.90286 5.66742 1.40497 11.6435 1.667 14.6316L1.66714 127.17C1.66714 130.132 4.54958 131.262 5.9908 131.457C26.627 132.107 69.0786 133.406 73.7954 133.406C79.6915 133.406 99.5416 133.016 100.917 131.457C102.018 130.21 102.162 92.482 102.097 73.774C102.293 58.7687 102.568 18.4749 102.097 14.4215C101.507 9.35478 100.721 9.15968 98.5589 7.60027C96.397 6.04087 75.5643 6.55596 60.2345 6.55596C44.9047 6.55596 11.1004 5.66742 5.99067 5.66742Z" stroke="#574E56" stroke-width="1.7" stroke-miterlimit="10"/>
</svg>
