<svg width="145" height="115" viewBox="0 0 145 115" fill="none" xmlns="http://www.w3.org/2000/svg">
<path d="M74.4932 52.0065L74.4875 52.0065C74.2895 52.0039 74.1787 51.9752 74.1235 51.9532C74.0786 51.9353 74.0679 51.9213 74.0647 51.9172L74.0644 51.9167C74.0441 51.8907 73.9775 51.7685 73.98 51.3864C73.9824 51.0305 74.0397 50.6056 74.1116 50.0716L74.1196 50.0119C74.1908 49.4831 74.2705 48.872 74.2804 48.2527C74.7923 41.4689 75.14 34.2313 75.1951 26.6029C75.2873 19.3952 75.1201 12.5396 74.8205 6.07073C74.8269 5.79902 74.9032 4.67488 75.7628 3.76727C76.3538 3.18137 77.1215 2.82684 77.9644 2.83763L78.0019 2.83811L78.0393 2.83529C85.2995 2.28667 92.8939 1.90297 100.907 1.81318L100.908 1.81316C112.15 1.66836 127.376 2.15219 137.157 2.91839L137.229 2.92407L137.301 2.91737C138.84 2.77493 140.255 3.44164 141.029 4.64564C141.833 5.89681 141.673 7.28334 141.62 7.73496L141.617 7.76255L141.613 7.79624L141.612 7.83012C141.375 14.7048 141.128 21.5714 140.881 28.4387L140.881 28.448C140.633 35.3121 140.386 42.1769 140.15 49.05L140.149 49.0592L140.149 49.0684C140.138 49.9528 139.645 51.0135 138.846 51.8716C138.042 52.7358 137.09 53.2244 136.316 53.2156C136.315 53.2156 136.314 53.2156 136.313 53.2156L74.4932 52.0065Z" fill="#D4E6FF" stroke="#574E56" stroke-width="1.7"/>
<path d="M76.7505 53.2614L56.8604 52.5271C55.8765 52.5145 53.6814 51.0508 53.7101 48.8088C53.9665 42.1481 54.1857 35.0448 54.2815 27.5608C54.3721 20.4874 54.3298 13.7597 54.2399 7.41042C54.2435 7.12622 54.0263 6.28672 54.5546 5.12492C54.8634 4.40246 56.6087 3.23233 57.1221 3.2389C60.3388 2.64841 62.805 2.66212 66.4015 2.48707C71.4106 2.26694 67.6068 2.17696 71.7938 2.17679C72.6091 1.99772 77.3085 2.00733 77.3023 2.48711C77.7535 4.00887 77.7033 9.92811 77.6552 10.3381C77.3539 23.8517 77.4685 34.9559 77.1672 48.4695C77.1381 50.7431 77.7345 53.274 76.7505 53.2614Z" fill="#574E56"/>
<path d="M71.6999 18.4741C71.6999 18.4741 69.068 18.4405 62.0746 18.3509C56.5851 18.2807 63.118 18.3643 58.155 18.3008" stroke="white" stroke-width="1.7" stroke-miterlimit="10" stroke-linecap="round" stroke-linejoin="round"/>
<path d="M71.6999 13.8745C71.6999 13.8745 69.068 13.8408 62.0746 13.7513C56.5851 13.6811 63.118 13.7647 58.155 13.7012" stroke="white" stroke-width="1.7" stroke-miterlimit="10" stroke-linecap="round" stroke-linejoin="round"/>
<path d="M103.358 10.9177L103.367 10.9244L103.377 10.9308C103.762 11.1899 103.923 11.4145 103.99 11.5743C104.052 11.7236 104.064 11.8897 104.004 12.1073C103.866 12.6048 103.396 13.2172 102.684 13.9059L102.684 13.9058L102.674 13.915C102.376 14.2122 101.863 14.379 101.111 14.4279C100.611 14.4604 100.143 14.4392 99.67 14.4179C99.4112 14.4062 99.151 14.3944 98.8835 14.3914C94.0501 14.3367 90.8759 14.4311 87.7713 14.5234C86.9447 14.548 86.1231 14.5724 85.2764 14.5939C84.6359 14.6101 84.1085 14.0894 84.1179 13.4404L84.1545 10.9131C84.1638 10.2706 84.7 9.75695 85.3451 9.77563C91.227 9.94592 93.3131 9.96952 97.3969 10.0157C98.6348 10.0297 99.8454 10.0443 100.919 10.1738C102.009 10.3052 102.832 10.5428 103.358 10.9177Z" fill="#009EB0" stroke="#574E56" stroke-width="1.7"/>
<path d="M84.4312 26.3738L84.5293 19.6045C93.5249 20.5863 100.26 20.3917 104.918 20.1058C110.071 19.7579 115.312 20.2233 120.37 19.6712C122.352 19.4905 124.634 19.1778 126.304 20.0768C128.663 21.3222 129.311 24.3762 127.51 25.7099C126.208 26.7107 123.735 26.5474 122.252 26.3952C114.439 25.8329 106.604 26.7599 98.7852 26.5361C95.4204 26.4303 90.4717 26.3067 84.4312 26.3738Z" fill="#FF9800"/>
<path d="M85.4632 25.6319C84.9031 25.6351 84.4492 25.1792 84.4573 24.6192L84.515 20.6367C84.5235 20.0506 85.0335 19.5962 85.6172 19.6491C94.2337 20.429 100.735 20.2662 105.286 20.0252C110.531 19.7189 115.867 20.1448 121.014 19.6546C123.032 19.4946 125.354 19.2162 127.056 20.0276C129.458 21.1516 130.124 23.9011 128.292 25.0991C126.969 25.9981 124.452 25.8478 122.942 25.7089C114.987 25.1924 107.013 26.0162 99.0541 25.8044C95.8203 25.7103 91.1494 25.5999 85.4632 25.6319Z" stroke="#574E56" stroke-width="1.7" stroke-miterlimit="10" stroke-linecap="round"/>
<path d="M110.16 37.2507C111.16 31.1996 118.696 30.8855 121.984 32.1909C123.817 33.1618 125.539 34.5699 126.073 36.9807C127.599 43.8695 123.428 47.1323 118.335 47.0671C113.033 46.9992 109.262 42.6873 110.16 37.2507Z" fill="white"/>
<path d="M121.411 32.1835L117.853 39.9547C118.959 39.9689 123.336 37.8931 125.503 36.7364C125.503 36.7364 125.743 36.0289 124.381 34.3533C123.019 32.6778 121.411 32.1835 121.411 32.1835Z" fill="#009EB0"/>
<path d="M125.767 37.214L117.713 40.1217C117.696 41.4498 117.34 43.9754 116.837 47.2851C116.837 47.2851 125.244 45.7448 125.685 43.6084C126.127 41.4721 125.767 37.214 125.767 37.214Z" fill="#FF9800"/>
<path d="M121.642 32.1869L118.084 39.9581C119.19 39.9723 123.567 37.8965 125.734 36.7398C125.734 36.7398 125.974 36.0323 124.612 34.3568C123.25 32.6812 121.642 32.1869 121.642 32.1869Z" stroke="#574E56" stroke-width="1.7" stroke-miterlimit="10"/>
<path d="M110.048 37.2498C111.048 31.1987 118.584 30.8846 121.872 32.19C123.705 33.1609 125.428 34.569 125.962 36.9798C127.488 43.8685 123.316 47.1314 118.223 47.0662C112.921 46.9983 109.15 42.6863 110.048 37.2498Z" stroke="#574E56" stroke-width="1.7" stroke-miterlimit="10"/>
<path d="M118.72 40.4988C118.792 40.035 118.474 39.6004 118.01 39.5283C117.546 39.4561 117.112 39.7736 117.04 40.2375L118.72 40.4988ZM117.04 40.2375L116 46.9174L117.68 47.1788L118.72 40.4988L117.04 40.2375Z" fill="#574E56"/>
<path d="M84.4719 35.0731L101.314 35.0717" stroke="white" stroke-width="1.7" stroke-miterlimit="10" stroke-linecap="round"/>
<path d="M84.4719 39.7884L95.6635 39.7986" stroke="white" stroke-width="1.7" stroke-miterlimit="10" stroke-linecap="round"/>
<path d="M84.4719 44.5043L95.6635 44.5144" stroke="white" stroke-width="1.7" stroke-miterlimit="10" stroke-linecap="round"/>
<path d="M137.755 113.611L61.6662 111.584C58.8257 111.508 56.5619 109.702 56.6206 107.499C57.3228 101.055 57.0308 93.5215 57.1861 86.2671C57.3687 79.4115 57.5443 72.8217 57.6894 67.3752C57.6967 67.0997 57.7713 65.7235 59.2785 64.6305C60.2441 63.9518 61.5062 63.526 62.9454 63.5643C72.3923 63.2034 82.3275 63.0087 92.7478 63.1025C107.374 63.2165 123.975 63.7313 136.723 64.6834C139.861 64.9507 142.12 65.5315 142.914 67.0228C143.599 68.3274 143.556 69.9495 143.471 70.3147C142.705 83.4026 143.777 96.7119 143.011 109.8C142.915 112.002 140.596 113.686 137.755 113.611Z" fill="#FFC476" stroke="#574E56" stroke-width="1.7" stroke-miterlimit="10"/>
<rect width="12.1384" height="7.01572" rx="3.50786" transform="matrix(0.999433 -0.0336544 0.0163703 0.999866 62.9382 82.132)" fill="white" stroke="#574E56" stroke-width="1.7" stroke-miterlimit="10" stroke-linecap="round"/>
<path d="M75.6597 86.0644L80.7945 86.0392" stroke="white" stroke-width="1.7" stroke-miterlimit="10"/>
<path d="M119.338 100.443C119.338 100.443 107.895 101.386 107.929 100.139C107.962 98.8918 107.913 76.7327 107.913 76.7327C107.624 75.742 108.253 73.793 113.086 73.9217C117.92 74.0505 118.259 74.0595 117.825 74.0479" stroke="white" stroke-width="1.7" stroke-miterlimit="10"/>
<rect x="116.917" y="97.0523" width="12.1321" height="7.01833" rx="3.50916" transform="rotate(1.52588 116.917 97.0523)" fill="white" stroke="#574E56" stroke-width="1.7" stroke-miterlimit="10" stroke-linecap="round"/>
<rect x="117.624" y="70.5323" width="12.1321" height="7.01833" rx="3.50916" transform="rotate(1.52588 117.624 70.5323)" fill="white" stroke="#574E56" stroke-width="1.7" stroke-miterlimit="10" stroke-linecap="round"/>
<path d="M107.615 87.5377L117.348 87.4898M102.512 77.411L107.656 77.3858M102.442 94.4663L107.585 94.441" stroke="white" stroke-width="1.7" stroke-miterlimit="10"/>
<path d="M89.654 77.5869L80.9341 77.6295L80.8621 94.9878L89.582 94.9449" stroke="white" stroke-width="1.7" stroke-miterlimit="10"/>
<rect x="90.1011" y="74.2355" width="12.1321" height="7.01833" rx="3.50916" transform="rotate(1.52588 90.1011 74.2355)" fill="white" stroke="#574E56" stroke-width="1.7" stroke-miterlimit="10" stroke-linecap="round"/>
<rect x="90.033" y="90.65" width="12.1321" height="7.01833" rx="3.50916" transform="rotate(1.52588 90.033 90.65)" fill="white" stroke="#574E56" stroke-width="1.7" stroke-miterlimit="10" stroke-linecap="round"/>
<rect x="117.265" y="83.9771" width="12.1321" height="7.01833" rx="3.50916" transform="rotate(1.52588 117.265 83.9771)" fill="white" stroke="#574E56" stroke-width="1.7" stroke-miterlimit="10" stroke-linecap="round"/>
<path d="M72.542 96.3359L5.38869 94.5288C2.88172 94.4613 0.904917 92.0478 0.983476 89.0684C1.68167 80.3499 1.51523 70.1702 1.7404 60.3623C1.98481 51.0932 2.21973 42.1834 2.41391 34.8194C2.42373 34.447 2.50626 32.5858 3.85025 31.0898C4.711 30.1606 5.83044 29.5696 7.10063 29.6037C15.4456 29.0001 24.2196 28.6151 33.4184 28.6142C46.3307 28.589 60.9813 29.0814 72.2242 30.2121C74.992 30.5351 76.979 31.2925 77.662 33.2985C78.2513 35.0536 78.1935 37.2467 78.1135 37.7414C77.2788 55.4421 78.0634 73.4196 77.2288 91.1203C77.1168 94.0987 75.049 96.4034 72.542 96.3359Z" fill="white" stroke="#574E56" stroke-width="1.7" stroke-miterlimit="10"/>
<path d="M18.4293 77.7418C19.1954 77.8009 19.8183 77.4547 20.416 77.0493C22.4701 75.6728 24.5241 74.3046 26.5781 72.9281C26.7549 72.8098 26.9317 72.7 27.1169 72.5987C27.26 72.5311 27.4283 72.4974 27.5378 72.6409C27.6472 72.7845 27.5799 72.9365 27.462 73.0632C27.1842 73.3588 26.9064 73.6628 26.6118 73.9415C25.2312 75.2674 23.8422 76.5764 22.4701 77.9023C21.7208 78.637 21.7545 79.1268 22.6047 79.7096C24.2547 80.8497 25.9131 81.9813 27.5883 83.0876C28.8594 83.9237 29.6844 83.5775 30.0043 82.0911C30.24 81.0101 30.4084 79.9122 30.602 78.8144C31.0397 76.3737 31.4101 73.9162 31.7469 71.4586C31.831 70.8674 31.9742 70.2678 31.89 69.6598C31.8058 69.0686 31.4691 68.7984 30.8714 68.8744C30.5094 68.9166 30.1558 69.0264 29.8191 69.1531C27.9419 69.8371 26.0814 70.5887 24.2463 71.3741C21.4851 72.5649 18.7324 73.7641 15.9797 74.9802C15.5251 75.1829 15.0368 75.2843 14.6327 75.6052C14.1445 75.9937 14.1445 76.4413 14.7085 76.6862C15.9039 77.2013 17.1329 77.5729 18.4293 77.7418Z" fill="#D4E6FF" stroke="#574E56" stroke-width="1.7"/>
<path d="M58.7069 80.352C59.0382 80.1001 59.452 79.9047 59.7006 79.5846C60.8079 78.1622 61.7211 77.9675 63.2176 78.972C64.1012 79.5588 64.974 80.1807 65.8238 80.8147C66.8391 81.585 67.0061 82.3272 66.4264 83.4469C65.847 84.5782 64.9351 85.3671 63.7607 85.8355C63.1044 86.0945 62.464 86.0152 61.8431 85.7607C55.0725 83.0531 50.0953 78.4303 47.1739 71.6769C46.2076 69.4139 47.0371 67.4964 49.3051 66.5847C50.0881 66.2764 50.7751 66.3663 51.3916 66.9472C52.4937 67.9719 53.4017 69.1524 54.1155 70.477C54.6963 71.5597 54.5469 72.169 53.5648 72.9361C52.5714 73.7152 52.3538 74.3958 52.947 75.5132C53.3588 76.2967 53.8513 77.0551 54.4233 77.7301C55.3293 78.8174 56.5293 79.5371 57.8301 80.0798C58.0761 80.1793 58.3438 80.2085 58.6123 80.2725C58.6357 80.2837 58.6713 80.3179 58.7069 80.352Z" fill="#D18BA7" stroke="#574E56" stroke-width="1.7"/>
<path d="M66.4039 74.8361C66.4082 75.0341 66.4122 75.2205 66.4165 75.4185C66.4248 75.8028 66.339 76.131 65.8749 76.1527C65.4109 76.1745 65.2878 75.8509 65.2333 75.4792C65.1397 74.9102 65.1037 74.3167 64.9755 73.7601C64.0406 69.7253 61.7087 67.6785 57.5067 67.2222C57.2972 67.2035 57.0876 67.1731 56.8781 67.1543C56.5289 67.1153 56.2703 66.9695 56.3082 66.5724C56.3468 66.2104 56.5638 66.0425 56.935 66.0228C58.2569 65.9357 59.5165 66.188 60.7239 66.7094C63.994 68.1065 66.2474 71.3553 66.4039 74.8361Z" fill="#574E56"/>
<path d="M63.9496 74.0973C63.9541 74.3069 64.029 74.55 63.9516 74.7265C63.8632 74.9382 63.6376 75.2461 63.4749 75.238C63.2657 75.2309 62.9473 75.0047 62.8734 74.8082C62.6993 74.276 62.6524 73.7177 62.5129 73.173C62.0792 71.3762 60.9296 70.3059 59.1551 69.8667C58.688 69.7487 58.2101 69.6659 57.7435 69.5712C57.3704 69.4977 57.0423 69.365 57.0792 68.9214C57.1161 68.4778 57.4146 68.3198 57.8561 68.3335C60.656 68.3891 63.2682 70.5113 63.8848 73.248C63.9488 73.5263 63.9438 73.8294 63.973 74.1084C63.9728 74.0968 63.9612 74.097 63.9496 74.0973Z" fill="#574E56"/>
<path d="M58.7551 70.7375C60.1603 70.7419 61.7522 72.397 61.7017 73.8197C61.6865 74.193 61.5896 74.5447 61.1611 74.6006C60.7208 74.6451 60.5626 74.3106 60.5081 73.9389C60.3328 72.8124 59.7371 72.1145 58.5721 71.9418C58.2343 71.8909 57.85 71.841 57.8626 71.3513C57.8654 70.9434 58.1745 70.7385 58.7551 70.7375Z" fill="#574E56"/>
<path d="M17.8436 47.5454C17.7906 47.9172 17.3143 48.0234 17.1026 47.7048C16.3617 46.6426 15.6207 45.1555 14.8798 44.0403C13.0804 41.2786 12.1806 40.9068 9.95783 41.1193C8.89934 41.2255 8.47595 42.0752 9.00519 43.0312C10.54 45.9522 11.9689 48.9794 13.7155 51.7941C15.0915 54.0247 17.3672 55.4055 19.8017 55.618C21.2307 55.7242 22.6067 55.8835 22.5538 53.5998C22.5538 53.175 22.5538 52.3252 22.5538 51.6879C23.0301 52.1128 24.0886 52.9094 24.4062 53.175C26.3114 54.9807 27.9521 55.9366 30.2808 55.5649C30.8629 55.4586 31.7097 55.1931 31.8156 54.7151C31.9743 54.2371 31.6568 53.3343 31.3393 52.8032C30.6512 51.8472 29.8574 50.9444 29.0635 50.0947C28.3226 49.298 28.2696 48.6076 28.9047 47.7048C29.6457 46.6957 30.3866 45.6866 30.9688 44.5713C31.2863 43.8809 31.498 43.1374 31.6568 42.3939C31.7627 41.969 31.498 41.491 31.0746 41.4379C30.4925 41.3317 28.9047 41.1193 28.693 41.0662C27.1053 40.8537 26.4173 41.5972 25.5705 43.2967C24.9354 44.5182 23.8769 46.1646 23.0831 46.9081C22.8184 47.1206 22.448 46.9612 22.448 46.5895C22.448 45.3149 22.5009 43.9871 22.395 42.7125C22.3421 42.0752 22.2363 41.2255 21.8658 40.8006C20.8602 39.7384 18.8491 39.7384 17.8965 40.9599C17.7377 42.0752 18.2669 45.0493 17.8436 47.5454Z" fill="#AEAEFF" stroke="#574E56" stroke-width="1.7" stroke-linejoin="round"/>
<path d="M53.5335 57.0728C53.5335 55.2073 53.5335 53.2951 53.5335 51.4296C52.2322 51.5229 50.9773 51.8494 49.7689 52.3624C49.1648 51.7094 49.2577 49.6107 49.5366 49.1443C49.9549 48.3515 53.0688 48.0717 53.3011 47.9318C53.9053 47.5587 53.7194 47.3721 53.7194 46.6725C53.6265 43.5478 53.9518 40.0966 56.0897 37.8113C56.6009 37.2516 57.2516 36.7386 57.9952 36.5521C59.9937 35.9458 62.2245 37.6714 62.5034 39.7235C62.5964 40.3298 62.5499 40.9827 62.1781 41.4491C61.8063 41.9154 61.0626 42.102 60.5979 41.6823C60.1331 41.3092 60.1796 40.5629 59.7613 40.1432C59.2036 39.6302 58.2276 39.9566 57.8558 40.6096C57.484 41.2625 57.391 42.2419 57.4375 43.0348C57.484 44.6671 57.484 45.7398 57.4375 47.0456C58.46 46.6725 60.0866 46.3461 61.1556 45.973C62.1781 47.1389 61.388 49.191 60.9697 49.3775C60.412 49.6574 58.0882 49.8906 57.7164 50.4036C57.5305 50.6834 57.5305 51.0565 57.5305 51.383C57.5769 52.3157 57.6234 53.3884 57.7164 54.3212C57.8093 55.2539 58.0417 56.8396 57.2981 57.1195C56.6474 57.3526 56.0432 57.4926 55.3461 57.6791C54.8348 57.819 54.4166 58.0522 53.9518 57.9123C53.4406 57.7724 53.5335 57.0728 53.5335 57.0728Z" fill="#6AD3D3" stroke="#574E56" stroke-width="1.7" stroke-linejoin="round"/>
</svg>
