<svg width="149" height="100" viewBox="0 0 149 100" fill="none" xmlns="http://www.w3.org/2000/svg">
<path d="M31.8464 40.1814C31.8464 40.1814 29.5421 14.2831 31.8464 9.25804C34.1507 4.23299 97.7555 6.36546 97.7555 6.36546" stroke="#574E56" stroke-width="1.7" stroke-miterlimit="10"/>
<path d="M43.792 55.9307C43.792 55.9307 40.7202 28.2639 43.792 25.6109C46.8639 22.958 86.7019 23.9192 86.7019 23.9192" stroke="#574E56" stroke-width="1.7" stroke-miterlimit="10"/>
<path d="M51.5449 49.2993H146.871" stroke="#574E56" stroke-width="1.7" stroke-miterlimit="10"/>
<path d="M43.6283 46.8121C43.6283 46.8121 40.782 75.453 43.6283 77.4384C46.4745 79.4238 89.2055 77.4384 89.2055 77.4384" stroke="#574E56" stroke-width="1.7" stroke-miterlimit="10"/>
<path d="M30.8223 60.0743C30.8223 60.0743 31.6918 90.0297 31.6918 92.3617C31.6918 94.6936 96.9957 93.5959 96.9957 93.5959" stroke="#574E56" stroke-width="1.7" stroke-miterlimit="10"/>
<path d="M54.0857 66.6668C53.8882 55.7295 53.6755 44.7923 53.478 33.8551C53.4628 32.9402 53.4172 31.963 53.0222 31.2144C52.4449 30.1539 51.3357 30.05 50.3785 30.0084C43.9669 29.7797 37.5553 29.5925 31.1437 29.4678H29.1685C22.7569 29.5925 16.3453 29.7589 9.93364 30.0084C8.97645 30.05 7.86733 30.1747 7.28998 31.2144C6.87976 31.9422 6.84937 32.9194 6.83418 33.8551C6.63666 44.7923 6.42396 55.7295 6.22644 66.6668L20.9945 66.4588C20.9945 66.4588 23.1063 68.3926 23.7749 68.6629C24.4434 68.9332 35.8081 69.1619 35.8081 69.1619L37.4186 67.8104L39.0291 66.6668H54.0857Z" fill="#D5D4D6"/>
<path d="M9.2229 61.1935V35.029C9.2229 34.6544 9.45037 34.3586 9.7385 34.3586L49.9399 33.8854C50.2281 33.8854 50.4555 34.1812 50.4555 34.5558V60.7203C50.4555 61.0949 50.2281 61.3906 49.9399 61.3906L9.7385 61.8638C9.45037 61.8836 9.2229 61.5681 9.2229 61.1935Z" fill="white"/>
<path d="M54.0857 66.2826C53.8882 55.5602 53.6755 44.4709 53.478 33.769C53.4628 32.872 53.4172 31.9139 53.0222 31.1801C52.4449 30.1405 51.3357 30.0385 50.3785 29.9978C43.9669 29.7735 37.5553 29.5901 31.1437 29.4678H29.1685C22.7569 29.5901 16.3453 29.7532 9.93364 29.9978C8.97645 30.0385 7.86733 30.1609 7.28998 31.1801C6.87976 31.8936 6.84937 32.8516 6.83418 33.769C6.63666 44.4913 6.42396 55.5806 6.22644 66.2826" stroke="#574E56" stroke-width="1.7" stroke-miterlimit="10"/>
<path d="M9.2229 59.6171V35.8286C9.2229 35.0042 9.76714 34.3369 10.4202 34.3172L49.9634 33.8854C50.632 33.8854 51.1918 34.5528 51.1918 35.3968V59.1853C51.1918 60.0097 50.6476 60.677 49.9945 60.6966L10.4513 61.1284C9.76714 61.1284 9.2229 60.4611 9.2229 59.6171Z" stroke="#574E56" stroke-width="1.7" stroke-miterlimit="10"/>
<path d="M2.71133 69.1712C3.04245 70.6324 5.01409 72.6107 6.18805 72.6332L53.9741 73.6448C56.4575 73.6897 58.5044 71.082 58.5044 67.8224V67.755L2.54578 68.2495L2.71133 69.1712Z" fill="#D5D4D6"/>
<path d="M2.75057 66.9287C2.4124 66.9476 2.0896 67.1743 1.95126 67.4955C1.53624 68.497 2.07423 69.8576 3.02725 70.5189C4.16473 71.2937 5.625 71.3315 6.99304 71.3315C14.8016 71.3504 22.2106 71.5582 29.9116 71.3315H31.8791C39.5648 71.0858 46.5894 71.3504 54.398 71.3315C55.7661 71.3315 57.2263 71.2937 58.3638 70.5189C58.4099 70.4811 58.4561 70.4433 58.5022 70.4245C59.9317 69.2907 59.1478 66.9854 57.334 66.8531C53.7832 66.6074 45.6518 66.135 41.0097 66.3429C40.2872 66.3807 39.5186 66.4185 38.8731 66.7775C38.2889 67.0987 37.8739 67.6656 37.2744 67.968C36.6442 68.2892 35.9064 68.2514 35.1993 68.2136C33.6929 68.138 27.652 68.138 26.1303 68.2136C25.4232 68.2514 24.6854 68.2892 24.0551 67.968C23.471 67.6845 23.0406 67.1176 22.4565 66.7775C21.8263 66.3996 21.0578 66.3807 20.3199 66.3429C15.0168 66.0783 4.96403 66.7586 2.75057 66.9287Z" fill="#D5D4D6"/>
<path d="M2.73275 67.1078C2.39633 67.1485 2.09049 67.4131 1.95287 67.8406C1.53999 69.1229 2.05991 70.8939 2.99271 71.7284C4.09372 72.7258 5.51586 72.7869 6.86154 72.7869C14.4769 72.8073 21.6946 73.0515 29.2029 72.7869H31.1144C38.5921 72.4816 45.4428 72.8073 53.0428 72.7869C54.3885 72.7869 55.8107 72.7258 56.9117 71.7284C56.9576 71.6877 57.0034 71.647 57.0493 71.6063C58.4409 70.1407 57.6763 67.1485 55.9177 67.006C52.4618 66.7007 44.5253 66.0696 40.0142 66.3546C39.3108 66.3953 38.5615 66.4564 37.9345 66.9449C37.3687 67.3724 36.9711 68.0848 36.3901 68.4716C35.7784 68.8787 35.0444 68.838 34.3715 68.7973C32.8882 68.7158 27.0009 68.7158 25.5329 68.7973C24.8447 68.8583 24.126 68.8787 23.5143 68.4716C22.9332 68.0848 22.5357 67.3724 21.9699 66.9449C21.3582 66.4768 20.6089 66.4157 19.8902 66.3546C14.691 66.0493 4.8889 66.9042 2.73275 67.1078Z" stroke="#574E56" stroke-width="1.7" stroke-miterlimit="10"/>
<path d="M86.1934 30.4367L86.1934 20.1403C94.0391 20.1403 96.8106 20.552 101.277 20.5521C106.005 20.5522 107.641 20.1403 112.475 20.1403C113.939 20.1404 116.069 18.8017 117.314 20.1403C119.071 21.9936 119.363 26.627 118.045 28.6863C117.093 30.2308 115.263 30.0249 114.164 29.8189C108.38 29.0982 102.595 30.6427 96.8106 30.4367C94.321 30.3338 90.6599 30.2308 86.1934 30.4367Z" fill="#FF9800"/>
<path d="M87.2358 29.2807C86.6675 29.2994 86.1935 28.8457 86.1935 28.2771L86.1935 21.0527C86.1935 20.5004 86.6438 20.0527 87.1961 20.0527C93.982 20.0527 97.5778 20.0527 101.24 20.0527C105.755 20.0527 108.096 20.0527 112.475 20.0527C114.785 20.0528 118.045 19.2967 118.045 20.7947C118.045 23.2854 118.045 26.0926 118.045 28.3199C118.045 28.8722 117.597 29.3195 117.045 29.3195C114.872 29.3195 113.44 29.3195 109.767 29.3195C103.487 29.3195 102.589 29.5048 96.8044 29.3195C94.5113 29.2341 91.2297 29.1488 87.2358 29.2807Z" stroke="#574E56" stroke-width="1.7" stroke-miterlimit="10" stroke-linecap="round"/>
<path d="M65.5635 99.7106L65.5635 89.4142C73.4093 89.4142 76.1807 89.8259 80.6472 89.826C85.3756 89.8261 87.0112 89.4142 91.845 89.4142C93.3094 89.4144 95.4393 88.0757 96.6841 89.4142C98.4414 91.2676 98.7331 95.901 97.4151 97.9602C96.4632 99.5047 94.6327 99.2988 93.5343 99.0929C87.7498 98.3721 81.9652 99.9166 76.1807 99.7106C73.6911 99.6077 70.03 99.5047 65.5635 99.7106Z" fill="#D5D4D6"/>
<path d="M66.6059 98.5546C66.0377 98.5734 65.5637 98.1196 65.5637 97.5511L65.5637 90.3266C65.5637 89.7743 66.0139 89.3266 66.5662 89.3266C73.3521 89.3266 76.9479 89.3266 80.6106 89.3266C85.1253 89.3266 87.4665 89.3266 91.845 89.3266C94.1549 89.3267 97.4153 88.5707 97.4153 90.0686C97.4153 92.5593 97.4151 95.3665 97.4152 97.5938C97.4152 98.1461 96.9674 98.5934 96.415 98.5934C94.2424 98.5934 92.8105 98.5934 89.1371 98.5934C82.8575 98.5934 81.959 98.7788 76.1745 98.5934C73.8814 98.5081 70.5999 98.4227 66.6059 98.5546Z" stroke="#574E56" stroke-width="1.7" stroke-miterlimit="10" stroke-linecap="round"/>
<path d="M66.6344 12.1016L66.1514 2.06392C74.5682 2.06392 77.5413 2.50565 82.3328 2.50575C87.4053 2.50586 89.1599 2.06398 94.3455 2.06398C95.9165 2.06412 98.2014 0.62799 99.5367 2.06394C101.422 4.05218 101.735 9.02275 100.321 11.2319C99.2998 12.8888 97.336 12.6678 96.1578 12.4469C89.9523 11.6737 83.9339 12.6678 77.7284 12.4469C75.0576 12.3365 71.426 11.8806 66.6344 12.1016Z" fill="#D5D4D6"/>
<path d="M67.1936 11.8721C66.6254 11.8912 66.1514 11.4374 66.1514 10.8689L66.1514 2.97004C66.1514 2.41775 66.6016 1.97004 67.1539 1.97004C74.4808 1.97004 78.351 1.97002 82.2933 1.97002C87.1365 1.97002 89.6482 1.97002 94.3453 1.97002C96.8233 1.97012 100.321 1.15908 100.321 2.76607C100.321 5.46508 100.321 8.51047 100.321 10.9112C100.321 11.4636 99.8726 11.9112 99.3202 11.9112C96.9485 11.9112 95.4216 11.9112 91.4403 11.9112C84.7037 11.9112 83.7399 12.11 77.5344 11.9112C75.06 11.8191 71.5125 11.727 67.1936 11.8721Z" stroke="#574E56" stroke-width="1.7" stroke-miterlimit="10" stroke-linecap="round"/>
<path d="M86.0929 81.3755L85.6099 71.3378C94.0267 71.3378 96.9998 71.7796 101.791 71.7797C106.864 71.7798 108.618 71.3379 113.804 71.3379C115.375 71.338 117.66 69.9019 118.995 71.3379C120.88 73.3261 121.193 78.2967 119.779 80.5058C118.758 82.1627 116.795 81.9418 115.616 81.7209C109.411 80.9477 103.392 81.9418 97.1869 81.7209C94.5161 81.6104 90.8845 81.1546 86.0929 81.3755Z" fill="#A05F83"/>
<path d="M86.6521 81.146C86.0839 81.1651 85.6099 80.7113 85.6099 80.1428L85.6099 72.244C85.6099 71.6917 86.0601 71.244 86.6124 71.244C93.9393 71.244 97.8095 71.2439 101.752 71.2439C106.595 71.2439 109.107 71.2439 113.804 71.2439C116.282 71.244 119.779 70.433 119.779 72.04C119.779 74.739 119.779 77.7844 119.779 80.1852C119.779 80.7375 119.331 81.1851 118.779 81.1851C116.407 81.1851 114.88 81.1851 110.899 81.1851C104.162 81.1851 103.198 81.384 96.9929 81.1851C94.5185 81.093 90.971 81.0009 86.6521 81.146Z" stroke="#574E56" stroke-width="1.7" stroke-miterlimit="10" stroke-linecap="round"/>
<path d="M63.5753 57.6295L63.5753 42.8821C73.1196 42.8822 75.3937 42.8821 79.4106 42.8821C85.7016 42.8822 85.3998 42.8821 92.3857 42.8821C92.3857 43.6919 97.6451 40.7766 99.0307 42.8822C100.987 45.7976 100.498 53.0862 99.0307 56.3256C97.9711 58.7551 95.3322 58.8741 94.1096 58.5501C87.6706 57.4164 81.8328 59.403 75.3937 59.079C72.6225 58.9171 68.5472 57.3056 63.5753 57.6295Z" fill="#D5D4D6"/>
<path d="M63.2015 43.0933L63.2015 56.6705C63.2015 59.258 99.0895 58.7035 99.0895 57.3996C99.0896 53.6655 100.078 42.0933 98.1122 42.0933L64.1967 42.0933C63.6444 42.0933 63.2015 42.541 63.2015 43.0933Z" stroke="#574E56" stroke-width="1.7" stroke-miterlimit="10" stroke-linecap="round"/>
<path d="M113.632 57.6295L113.632 42.8821C122.685 42.8822 124.842 42.8821 128.652 42.8821C134.619 42.8822 134.333 42.8821 140.959 42.8821C140.959 43.6919 145.948 40.7766 147.262 42.8822C149.118 45.7976 148.654 53.0862 147.262 56.3256C146.257 58.7551 143.754 58.8741 142.594 58.5501C136.487 57.4164 131.148 57.9535 125.04 57.6295C122.411 57.4676 118.348 57.3056 113.632 57.6295Z" fill="#D5D4D6"/>
<path d="M113.277 43.0933L113.277 56.6705C113.277 57.7561 147.318 58.411 147.318 57.3996C147.318 54.2226 148.256 42.0933 146.391 42.0933L114.272 42.0933C113.72 42.0933 113.277 42.541 113.277 43.0933Z" stroke="#574E56" stroke-width="1.7" stroke-miterlimit="10" stroke-linecap="round"/>
<path d="M141.383 49.4633L129.119 48.4868C129.119 48.4868 127.355 48.4868 122.669 48.4868C118.991 48.4868 123.368 48.4868 120.043 48.4868" stroke="#574E56" stroke-width="1.7" stroke-miterlimit="10" stroke-linecap="round" stroke-linejoin="round"/>
<path d="M131.885 51.9497H129.119C129.119 51.9497 127.355 51.9497 122.669 51.9497C118.991 51.9497 123.368 51.9497 120.043 51.9497" stroke="#574E56" stroke-width="1.7" stroke-miterlimit="10" stroke-linecap="round" stroke-linejoin="round"/>
<path d="M26.7994 37.937C27.0359 38.0666 27.2724 38.1444 27.4853 38.2999C27.9109 38.6368 28.3366 38.9997 28.7387 39.3366C28.786 39.3625 28.8569 39.3884 28.9042 39.4144C29.3299 39.4403 29.7792 39.4144 30.2049 39.4403C30.5833 39.4662 30.8671 39.3366 31.1509 39.0774C31.4346 38.7923 31.7894 38.5591 32.0732 38.2999C32.3097 38.0925 32.5934 37.9888 32.8772 38.0407C34.036 38.2221 34.982 38.7664 35.7624 39.6476C36.0699 40.0105 36.0226 40.4252 35.9516 40.8658C35.8807 41.2805 35.8097 41.6952 35.7624 42.084C35.7388 42.1876 35.7624 42.2913 35.8097 42.3691C36.0699 42.8615 36.3536 43.328 36.6611 43.7946C36.7084 43.8723 36.8266 43.9501 36.9212 43.976C37.4179 44.1574 37.9145 44.3389 38.4348 44.5203C38.7422 44.624 38.9314 44.8313 39.0496 45.1164C39.4753 46.205 39.499 47.2936 39.0969 48.3821C38.9787 48.6932 38.7658 48.9264 38.4348 49.0301C37.9381 49.1856 37.4652 49.3929 36.9922 49.6003C36.9212 49.6262 36.8266 49.704 36.7793 49.7558C36.4955 50.2483 36.2354 50.7148 35.9989 51.2072C35.9516 51.3109 35.9516 51.4664 35.9753 51.5701C36.0699 52.0885 36.1881 52.6068 36.2827 53.1252C36.3536 53.4621 36.2354 53.7472 36.0226 54.0064C35.2894 54.8877 34.3671 55.4838 33.2083 55.6652C32.9245 55.717 32.6644 55.6393 32.4279 55.4579C32.0022 55.1209 31.5765 54.8099 31.1509 54.473C31.0799 54.4211 30.9617 54.3693 30.8434 54.3693C30.1576 54.3693 29.4718 54.3693 28.7623 54.3693C28.6441 54.3693 28.5022 54.4211 28.4076 54.4989C28.0292 54.784 27.6272 55.0691 27.2724 55.3801C26.9413 55.6911 26.5393 55.743 26.1373 55.6393C25.1204 55.3801 24.269 54.8617 23.6068 54.0583C23.3467 53.7472 23.2521 53.3844 23.3703 52.9697C23.4886 52.5032 23.5595 52.0366 23.6305 51.596C23.6541 51.4405 23.6305 51.285 23.5595 51.1554C23.4886 50.9481 23.394 50.7666 23.2994 50.5852C23.0156 50.015 22.6845 49.5225 22.0223 49.367C21.6912 49.2893 21.4075 49.1338 21.1 49.0042C20.7926 48.8746 20.6034 48.6413 20.4851 48.3303C20.225 47.6305 20.2014 46.8789 20.296 46.1531C20.3432 45.7644 20.4615 45.4015 20.6034 45.0387C20.698 44.7795 20.9345 44.598 21.2183 44.4944C21.7149 44.3389 22.2115 44.1574 22.7082 43.9501C22.8027 43.9242 22.8973 43.8464 22.9446 43.7687C23.2284 43.3021 23.4886 42.8615 23.7724 42.395C23.8197 42.3172 23.8433 42.1876 23.8197 42.084C23.7487 41.5915 23.7014 41.0991 23.5832 40.6066C23.4886 40.1919 23.6068 39.8291 23.8906 39.544C24.6474 38.7405 25.546 38.2221 26.6575 38.0407C26.7048 38.0407 26.7521 38.0407 26.7994 38.0407C26.7758 37.9888 26.7994 37.9629 26.7994 37.937ZM29.7083 43.0689C27.5799 43.0689 25.8298 44.7795 25.8298 46.8789C25.8298 49.0301 27.5326 50.7925 29.6373 50.8185C31.7657 50.8444 33.5158 49.1597 33.5631 47.0085C33.5867 44.7017 31.6711 43.0429 29.7083 43.0689Z" fill="#574E56"/>
<path d="M26.9106 37.9591C27.1518 38.0663 27.393 38.1734 27.6074 38.3074C28.0362 38.6288 28.4382 39.0038 28.867 39.3253C28.9206 39.3521 28.9742 39.3789 29.0278 39.3789C29.4567 39.3789 29.8855 39.3789 30.3143 39.4057C30.6895 39.4324 30.9843 39.2985 31.2523 39.0574C31.5471 38.7895 31.8687 38.5485 32.1903 38.2806C32.4315 38.0663 32.6995 37.9859 32.9944 38.0127C34.1468 38.1734 35.1116 38.736 35.862 39.62C36.1836 39.9682 36.13 40.3968 36.0496 40.8254C35.9692 41.2272 35.9156 41.629 35.862 42.0576C35.862 42.138 35.862 42.2719 35.8888 42.3523C36.1568 42.8345 36.4249 43.3166 36.7197 43.772C36.7733 43.8524 36.8805 43.9327 36.9877 43.9595C37.4969 44.147 37.9793 44.3078 38.4885 44.4953C38.7833 44.6024 38.9709 44.8167 39.1049 45.0846C39.5337 46.1561 39.5337 47.2544 39.1585 48.3527C39.0513 48.6741 38.8369 48.8884 38.4885 48.9956C38.0061 49.1563 37.5237 49.3706 37.0681 49.5581C36.9877 49.5849 36.9073 49.6653 36.8537 49.7188C36.5857 50.201 36.3176 50.6832 36.0764 51.1654C36.0228 51.2725 36.0228 51.4064 36.0496 51.5404C36.13 52.0493 36.264 52.5583 36.3445 53.0673C36.3981 53.3887 36.2908 53.6834 36.0764 53.9245C35.326 54.8084 34.4148 55.3978 33.2624 55.5853C32.9676 55.6389 32.7264 55.5585 32.4851 55.371C32.0831 55.0495 31.6543 54.7281 31.2255 54.4066C31.1451 54.3531 31.0379 54.2995 30.9307 54.2995C30.2339 54.2995 29.5639 54.2995 28.867 54.2995C28.7598 54.2995 28.6258 54.3531 28.5186 54.4066C28.1434 54.6745 27.7414 54.9692 27.393 55.2906C27.0446 55.5853 26.6694 55.6389 26.2674 55.5585C25.2489 55.2906 24.4181 54.7817 23.7481 53.978C23.4801 53.6566 23.3997 53.3084 23.5069 52.9065C23.6141 52.4512 23.6945 51.9958 23.7749 51.5404C23.8017 51.4064 23.7749 51.2457 23.7213 51.085C23.6409 50.8975 23.5337 50.71 23.4533 50.5225C23.1853 49.9599 22.8369 49.4777 22.1669 49.317C21.8452 49.2367 21.5504 49.0759 21.2288 48.9688C20.9072 48.8348 20.7464 48.5938 20.6124 48.2991C20.3444 47.6026 20.3176 46.8526 20.4248 46.1293C20.4516 45.7275 20.5856 45.3525 20.7196 45.0042C20.8268 44.7364 21.0412 44.5489 21.336 44.4685C21.8452 44.3078 22.3277 44.1203 22.8101 43.9327C22.8905 43.906 22.9977 43.8256 23.0245 43.7452C23.2925 43.2898 23.5873 42.8345 23.8285 42.3791C23.8821 42.2987 23.8821 42.1648 23.8821 42.0576C23.8285 41.5754 23.7481 41.0665 23.6409 40.5843C23.5605 40.1557 23.6677 39.8075 23.9357 39.5128C24.6861 38.7092 25.5974 38.2002 26.6962 38.0127C26.7498 38.0127 26.7766 38.0127 26.8302 38.0127C26.8838 38.0127 26.8838 37.9859 26.9106 37.9591ZM29.8051 43.0755C27.6878 43.0755 25.9458 44.7899 25.919 46.8794C25.919 49.0224 27.6074 50.7635 29.7247 50.7903C31.8687 50.8171 33.6108 49.1563 33.6376 46.9865C33.6912 44.6828 31.7615 43.022 29.8051 43.0755Z" stroke="#574E56" stroke-width="1.7" stroke-miterlimit="10"/>
</svg>
