<svg width="269" height="412" viewBox="0 0 269 412" fill="none" xmlns="http://www.w3.org/2000/svg">
<path d="M0 40C0 26.1929 11.1929 15 25 15H244C257.807 15 269 26.1929 269 40V387C269 400.807 257.807 412 244 412H25C11.1929 412 0 400.807 0 387V40Z" fill="#F3F5F7"/>
<path d="M269 387C269 400.807 257.807 412 244 412L25 412C11.1929 412 9.78513e-07 400.807 2.18557e-06 387L1.18895e-05 276L269 276L269 387Z" fill="#E8EAEC"/>
<path d="M0 25C0 11.1929 11.1929 0 25 0H244C257.807 0 269 11.1929 269 25V154H0V25Z" fill="#F3F5F7"/>
<g opacity="0.5">
<path opacity="0.5" d="M77 54H246" stroke="black" stroke-width="0.5" stroke-miterlimit="10" stroke-linecap="round"/>
<path opacity="0.5" d="M77 69H246" stroke="black" stroke-width="0.5" stroke-miterlimit="10" stroke-linecap="round"/>
<path opacity="0.5" d="M77 85H246" stroke="black" stroke-width="0.5" stroke-miterlimit="10" stroke-linecap="round"/>
<path opacity="0.5" d="M77 101H246" stroke="black" stroke-width="0.5" stroke-miterlimit="10" stroke-linecap="round"/>
<path opacity="0.5" d="M77 116H246" stroke="black" stroke-width="0.5" stroke-miterlimit="10" stroke-linecap="round"/>
<path opacity="0.5" d="M77 131H246" stroke="black" stroke-width="0.5" stroke-miterlimit="10" stroke-linecap="round"/>
</g>
<g opacity="0.5">
<path opacity="0.5" d="M77 156H246" stroke="black" stroke-width="0.5" stroke-miterlimit="10" stroke-linecap="round"/>
<path opacity="0.5" d="M77 171H246" stroke="black" stroke-width="0.5" stroke-miterlimit="10" stroke-linecap="round"/>
<path opacity="0.5" d="M77 187H246" stroke="black" stroke-width="0.5" stroke-miterlimit="10" stroke-linecap="round"/>
<path opacity="0.5" d="M77 203H246" stroke="black" stroke-width="0.5" stroke-miterlimit="10" stroke-linecap="round"/>
<path opacity="0.5" d="M77 218H246" stroke="black" stroke-width="0.5" stroke-miterlimit="10" stroke-linecap="round"/>
<path opacity="0.5" d="M77 233H246" stroke="black" stroke-width="0.5" stroke-miterlimit="10" stroke-linecap="round"/>
<path opacity="0.5" d="M77 248H246" stroke="black" stroke-width="0.5" stroke-miterlimit="10" stroke-linecap="round"/>
</g>
<path d="M66.3893 321.438C66.0655 318.75 64.0314 317.205 61.3382 317.205C58.2643 317.205 55.9178 319.375 55.9178 323.182C55.9178 326.977 58.2246 329.159 61.3382 329.159C64.3212 329.159 66.1223 327.176 66.3893 325.034L63.9007 325.023C63.6678 326.267 62.6905 326.983 61.378 326.983C59.6109 326.983 58.4121 325.67 58.4121 323.182C58.4121 320.761 59.5939 319.381 61.395 319.381C62.7416 319.381 63.7132 320.159 63.9007 321.438H66.3893ZM67.7081 329H72.0036C74.1854 329 75.4013 328.108 75.4013 326.619C75.4013 325.472 74.4922 324.562 72.924 324.449C74.174 324.233 74.9183 323.574 74.9183 322.631C74.9183 321.119 73.5831 320.273 71.4297 320.273H67.7081V329ZM69.9638 327.188V325.284H72.0036C72.674 325.284 73.0831 325.665 73.0831 326.284C73.0831 326.847 72.674 327.188 72.0036 327.188H69.9638ZM69.9638 323.864V322.125H71.4297C72.1797 322.125 72.6399 322.449 72.6399 322.983C72.6399 323.534 72.2024 323.864 71.4808 323.864H69.9638ZM80.47 329.17C83.1178 329.17 84.7655 327.358 84.7655 324.67C84.7655 321.966 83.1178 320.159 80.47 320.159C77.8223 320.159 76.1746 321.966 76.1746 324.67C76.1746 327.358 77.8223 329.17 80.47 329.17ZM80.4814 327.295C79.2598 327.295 78.6348 326.176 78.6348 324.653C78.6348 323.131 79.2598 322.006 80.4814 322.006C81.6803 322.006 82.3053 323.131 82.3053 324.653C82.3053 326.176 81.6803 327.295 80.4814 327.295ZM85.2575 331.557H87.6212V329H92.9564V331.557H95.2632V327.08H93.9109V320.273H87.2178L86.9905 323.125C86.8541 324.841 86.6893 326.597 85.928 327.08H85.2575V331.557ZM88.3371 327.08C88.8541 326.267 89.053 324.989 89.1837 323.125L89.2746 322.136H91.6268V327.08H88.3371ZM98.5862 320.273H96.2737V329H98.5862V325.574H101.569V329H103.865V320.273H101.569V323.67H98.5862V320.273ZM107.831 329.165C109.121 329.165 109.956 328.602 110.382 327.79H110.45V329H112.746V323.114C112.746 321.034 110.985 320.159 109.041 320.159C106.95 320.159 105.575 321.159 105.24 322.75L107.479 322.932C107.644 322.352 108.161 321.926 109.03 321.926C109.854 321.926 110.325 322.341 110.325 323.057V323.091C110.325 323.653 109.729 323.727 108.212 323.875C106.485 324.034 104.933 324.614 104.933 326.562C104.933 328.29 106.166 329.165 107.831 329.165ZM108.524 327.494C107.78 327.494 107.246 327.148 107.246 326.483C107.246 325.801 107.808 325.466 108.661 325.347C109.189 325.273 110.053 325.148 110.342 324.955V325.881C110.342 326.795 109.587 327.494 108.524 327.494ZM119.337 329H121.593V320.273H117.701C115.44 320.273 114.031 321.432 114.042 323.136C114.036 324.199 114.633 325.028 115.673 325.483L113.792 329H116.11L117.786 325.852H119.337V329ZM119.337 324.216H117.678C116.798 324.216 116.337 323.773 116.349 323.205C116.337 322.648 116.809 322.17 117.701 322.17H119.337V324.216ZM130.32 329.17C132.644 329.17 134.104 327.807 134.218 325.801H131.934C131.792 326.733 131.178 327.256 130.348 327.256C129.218 327.256 128.485 326.307 128.485 324.636C128.485 322.989 129.223 322.045 130.348 322.045C131.235 322.045 131.803 322.631 131.934 323.5H134.218C134.115 321.483 132.587 320.159 130.309 320.159C127.661 320.159 126.025 321.994 126.025 324.67C126.025 327.324 127.633 329.17 130.32 329.17ZM134.788 322.176H137.578V329H139.885V322.176H142.697V320.273H134.788V322.176ZM145.94 329.165C147.23 329.165 148.065 328.602 148.492 327.79H148.56V329H150.855V323.114C150.855 321.034 149.094 320.159 147.151 320.159C145.06 320.159 143.685 321.159 143.35 322.75L145.588 322.932C145.753 322.352 146.27 321.926 147.139 321.926C147.963 321.926 148.435 322.341 148.435 323.057V323.091C148.435 323.653 147.838 323.727 146.321 323.875C144.594 324.034 143.043 324.614 143.043 326.562C143.043 328.29 144.276 329.165 145.94 329.165ZM146.634 327.494C145.889 327.494 145.355 327.148 145.355 326.483C145.355 325.801 145.918 325.466 146.77 325.347C147.298 325.273 148.162 325.148 148.452 324.955V325.881C148.452 326.795 147.696 327.494 146.634 327.494ZM151.472 322.176H154.262V329H156.569V322.176H159.381V320.273H151.472V322.176ZM162.761 325.807V320.273H160.449V329H162.852L165.983 323.449V329H168.29V320.273H165.903L162.761 325.807ZM173.773 329.17C176.097 329.17 177.557 327.807 177.671 325.801H175.387C175.245 326.733 174.631 327.256 173.802 327.256C172.671 327.256 171.938 326.307 171.938 324.636C171.938 322.989 172.677 322.045 173.802 322.045C174.688 322.045 175.256 322.631 175.387 323.5H177.671C177.569 321.483 176.04 320.159 173.762 320.159C171.114 320.159 169.478 321.994 169.478 324.67C169.478 327.324 171.086 329.17 173.773 329.17ZM178.241 322.176H181.031V329H183.338V322.176H186.15V320.273H178.241V322.176ZM189.53 325.807V320.273H187.217V329H189.621L192.752 323.449V329H195.058V320.273H192.672L189.53 325.807ZM196.599 329H199.019V325.903H199.923L202.076 329H204.951L201.832 324.602L204.917 320.273H202.076L199.701 323.659H199.019V320.273H196.599V329ZM208.062 329.165C209.352 329.165 210.187 328.602 210.614 327.79H210.682V329H212.977V323.114C212.977 321.034 211.216 320.159 209.273 320.159C207.182 320.159 205.807 321.159 205.471 322.75L207.71 322.932C207.875 322.352 208.392 321.926 209.261 321.926C210.085 321.926 210.557 322.341 210.557 323.057V323.091C210.557 323.653 209.96 323.727 208.443 323.875C206.716 324.034 205.165 324.614 205.165 326.562C205.165 328.29 206.398 329.165 208.062 329.165ZM208.756 327.494C208.011 327.494 207.477 327.148 207.477 326.483C207.477 325.801 208.04 325.466 208.892 325.347C209.42 325.273 210.284 325.148 210.574 324.955V325.881C210.574 326.795 209.818 327.494 208.756 327.494Z" fill="black"/>
<path d="M55.0673 343C54.6895 340.912 53.0191 339.679 50.9708 339.679C48.3656 339.679 46.4764 341.688 46.4764 344.909C46.4764 348.131 48.3656 350.139 50.9708 350.139C53.0191 350.139 54.6895 348.906 55.0673 346.818H53.8344C53.5361 348.23 52.323 348.986 50.9708 348.986C49.1213 348.986 47.6696 347.554 47.6696 344.909C47.6696 342.264 49.1213 340.832 50.9708 340.832C52.323 340.832 53.5361 341.588 53.8344 343H55.0673ZM56.7006 352.864H57.8739V348.827H57.9733C58.2319 349.244 58.729 350.159 60.2006 350.159C62.1097 350.159 63.4421 348.628 63.4421 346.202C63.4421 343.795 62.1097 342.264 60.1807 342.264C58.6893 342.264 58.2319 343.179 57.9733 343.577H57.8341V342.364H56.7006V352.864ZM57.854 346.182C57.854 344.472 58.6097 343.318 60.0415 343.318C61.533 343.318 62.2688 344.571 62.2688 346.182C62.2688 347.812 61.5131 349.105 60.0415 349.105C58.6296 349.105 57.854 347.912 57.854 346.182ZM67.279 350.179C68.6114 350.179 69.3074 349.463 69.5461 348.966H69.6057V350H70.779V344.969C70.779 342.543 68.9296 342.264 67.9552 342.264C66.8018 342.264 65.4893 342.662 64.8927 344.054L66.0063 344.452C66.2648 343.895 66.8763 343.298 67.9949 343.298C69.0738 343.298 69.6057 343.87 69.6057 344.849V344.889C69.6057 345.456 69.029 345.406 67.637 345.585C66.2201 345.769 64.6739 346.082 64.6739 347.832C64.6739 349.324 65.8273 350.179 67.279 350.179ZM67.458 349.125C66.5233 349.125 65.8472 348.707 65.8472 347.892C65.8472 346.997 66.6626 346.719 67.5773 346.599C68.0745 346.54 69.4069 346.401 69.6057 346.162V347.236C69.6057 348.19 68.8501 349.125 67.458 349.125ZM72.7205 350H76.32C77.8711 350 78.8058 349.125 78.8058 347.952C78.8058 346.754 77.896 346.107 77.0558 345.983C77.9159 345.804 78.5274 345.322 78.5274 344.392C78.5274 343.174 77.4833 342.364 75.8427 342.364H72.7205V350ZM73.8342 348.926V346.58H76.32C77.1254 346.58 77.6126 347.062 77.6126 347.852C77.6126 348.518 77.1254 348.926 76.32 348.926H73.8342ZM73.8342 345.565V343.438H75.8427C76.7823 343.438 77.3541 343.83 77.3541 344.472C77.3541 345.153 76.7823 345.565 75.8427 345.565H73.8342ZM81.5552 342.364H80.3819V350H81.5552V346.739H85.2143V350H86.3876V342.364H85.2143V345.645H81.5552V342.364ZM89.5036 348.27V342.364H88.3303V350H89.7025L93.3616 344.094V350H94.5349V342.364H93.1826L89.5036 348.27ZM95.4448 343.457H97.9703V350H99.1436V343.457H101.649V342.364H95.4448V343.457ZM105.966 350.159C107.517 350.159 108.651 349.384 109.009 348.23L107.875 347.912C107.577 348.707 106.886 349.105 105.966 349.105C104.589 349.105 103.639 348.215 103.585 346.58H109.128V346.082C109.128 343.239 107.438 342.264 105.847 342.264C103.778 342.264 102.406 343.895 102.406 346.241C102.406 348.588 103.759 350.159 105.966 350.159ZM103.585 345.565C103.664 344.377 104.504 343.318 105.847 343.318C107.119 343.318 107.935 344.273 107.935 345.565H103.585ZM112.463 348.608H111.19L111.13 349.165C110.986 350.512 110.703 351.854 110.574 352.486H111.468C111.707 351.81 112.214 350.278 112.383 349.145L112.463 348.608ZM118.174 350H119.347V346.778H120.401L122.907 350H124.418L121.296 346.043L124.379 342.364H122.867L120.123 345.685H119.347V342.364H118.174V350ZM127.741 350.179C129.073 350.179 129.769 349.463 130.008 348.966H130.067V350H131.241V344.969C131.241 342.543 129.391 342.264 128.417 342.264C127.263 342.264 125.951 342.662 125.354 344.054L126.468 344.452C126.727 343.895 127.338 343.298 128.457 343.298C129.535 343.298 130.067 343.87 130.067 344.849V344.889C130.067 345.456 129.491 345.406 128.099 345.585C126.682 345.769 125.136 346.082 125.136 347.832C125.136 349.324 126.289 350.179 127.741 350.179ZM127.92 349.125C126.985 349.125 126.309 348.707 126.309 347.892C126.309 346.997 127.124 346.719 128.039 346.599C128.536 346.54 129.869 346.401 130.067 346.162V347.236C130.067 348.19 129.312 349.125 127.92 349.125ZM133.182 350H134.356V346.778H135.41L137.915 350H139.427L136.304 346.043L139.387 342.364H137.875L135.131 345.685H134.356V342.364H133.182V350ZM141.675 348.27V342.364H140.502V350H141.874L145.533 344.094V350H146.706V342.364H145.354L141.675 348.27ZM151.857 350.159C153.408 350.159 154.542 349.384 154.9 348.23L153.766 347.912C153.468 348.707 152.777 349.105 151.857 349.105C150.48 349.105 149.53 348.215 149.476 346.58H155.019V346.082C155.019 343.239 153.329 342.264 151.738 342.264C149.67 342.264 148.297 343.895 148.297 346.241C148.297 348.588 149.65 350.159 151.857 350.159ZM149.476 345.565C149.555 344.377 150.395 343.318 151.738 343.318C153.01 343.318 153.826 344.273 153.826 345.565H149.476ZM160.341 352.864H161.515V348.827H161.614C161.873 349.244 162.37 350.159 163.841 350.159C165.75 350.159 167.083 348.628 167.083 346.202C167.083 343.795 165.75 342.264 163.821 342.264C162.33 342.264 161.873 343.179 161.614 343.577H161.475V342.364H160.341V352.864ZM161.495 346.182C161.495 344.472 162.25 343.318 163.682 343.318C165.174 343.318 165.909 344.571 165.909 346.182C165.909 347.812 165.154 349.105 163.682 349.105C162.27 349.105 161.495 347.912 161.495 346.182ZM170.92 350.179C172.252 350.179 172.948 349.463 173.187 348.966H173.246V350H174.42V344.969C174.42 342.543 172.57 342.264 171.596 342.264C170.442 342.264 169.13 342.662 168.533 344.054L169.647 344.452C169.905 343.895 170.517 343.298 171.636 343.298C172.714 343.298 173.246 343.87 173.246 344.849V344.889C173.246 345.456 172.67 345.406 171.278 345.585C169.861 345.769 168.315 346.082 168.315 347.832C168.315 349.324 169.468 350.179 170.92 350.179ZM171.099 349.125C170.164 349.125 169.488 348.707 169.488 347.892C169.488 346.997 170.303 346.719 171.218 346.599C171.715 346.54 173.047 346.401 173.246 346.162V347.236C173.246 348.19 172.491 349.125 171.099 349.125ZM179.463 350.159C181.154 350.159 182.267 349.125 182.466 347.773H181.293C181.074 348.608 180.378 349.105 179.463 349.105C178.071 349.105 177.176 347.952 177.176 346.182C177.176 344.452 178.091 343.318 179.463 343.318C180.498 343.318 181.114 343.955 181.293 344.651H182.466C182.267 343.219 181.054 342.264 179.444 342.264C177.375 342.264 176.003 343.895 176.003 346.222C176.003 348.509 177.316 350.159 179.463 350.159ZM187.084 350.159C188.774 350.159 189.888 349.125 190.087 347.773H188.913C188.695 348.608 187.999 349.105 187.084 349.105C185.692 349.105 184.797 347.952 184.797 346.182C184.797 344.452 185.712 343.318 187.084 343.318C188.118 343.318 188.734 343.955 188.913 344.651H190.087C189.888 343.219 188.675 342.264 187.064 342.264C184.996 342.264 183.624 343.895 183.624 346.222C183.624 348.509 184.936 350.159 187.084 350.159ZM192.775 345.128V342.364H191.602V350H194.803C196.593 350 197.568 348.906 197.568 347.534C197.568 346.142 196.593 345.128 194.803 345.128H192.775ZM198.781 350H199.954V342.364H198.781V350ZM192.775 346.222H194.803C195.733 346.222 196.394 346.788 196.394 347.594C196.394 348.364 195.733 348.906 194.803 348.906H192.775V346.222ZM201.226 350H201.623C203.314 350 203.801 348.688 203.91 346.182L204.03 343.457H206.834V350H208.007V342.364H202.916L202.777 345.744C202.677 348.31 202.419 348.906 201.504 348.906H201.226V350ZM209.96 350H211.133V346.778H212.187L214.693 350H216.204L213.082 346.043L216.164 342.364H214.653L211.908 345.685H211.133V342.364H209.96V350ZM218.452 348.27V342.364H217.279V350H218.651L222.31 344.094V350H223.484V342.364H222.131L218.452 348.27ZM41.0412 370H42.2145V363.457H45.8736V370H47.0469V362.364H41.0412V370ZM48.9897 372.864H50.163V368.827H50.2624C50.5209 369.244 51.0181 370.159 52.4897 370.159C54.3988 370.159 55.7312 368.628 55.7312 366.202C55.7312 363.795 54.3988 362.264 52.4698 362.264C50.9783 362.264 50.5209 363.179 50.2624 363.577H50.1232V362.364H48.9897V372.864ZM50.1431 366.182C50.1431 364.472 50.8988 363.318 52.3306 363.318C53.8221 363.318 54.5579 364.571 54.5579 366.182C54.5579 367.812 53.8022 369.105 52.3306 369.105C50.9187 369.105 50.1431 367.912 50.1431 366.182ZM60.4232 370.159C62.4914 370.159 63.8834 368.588 63.8834 366.222C63.8834 363.835 62.4914 362.264 60.4232 362.264C58.355 362.264 56.963 363.835 56.963 366.222C56.963 368.588 58.355 370.159 60.4232 370.159ZM60.4232 369.105C58.8522 369.105 58.1363 367.753 58.1363 366.222C58.1363 364.69 58.8522 363.318 60.4232 363.318C61.9942 363.318 62.7101 364.69 62.7101 366.222C62.7101 367.753 61.9942 369.105 60.4232 369.105ZM65.4745 362.364V370H74.7614V362.364H73.5881V368.906H70.7046V362.364H69.5313V368.906H66.6477V362.364H65.4745ZM76.028 370H76.4257C78.1161 370 78.6033 368.688 78.7127 366.182L78.832 363.457H81.636V370H82.8093V362.364H77.7183L77.5791 365.744C77.4797 368.31 77.2212 368.906 76.3064 368.906H76.028V370ZM85.9352 368.27V362.364H84.762V370H86.1341L89.7932 364.094V370H90.9665V362.364H89.6142L85.9352 368.27ZM97.4086 372.844C98.4676 372.844 99.2183 372.282 99.6558 371.114L102.907 362.384L101.625 362.364L99.5166 368.449H99.4371L97.3291 362.364H96.0564L98.8802 370.04L98.6615 370.636C98.2439 371.78 97.7069 371.889 96.8518 371.67L96.5535 372.705C96.6729 372.764 97.0109 372.844 97.4086 372.844ZM107.088 370.159C108.779 370.159 109.892 369.125 110.091 367.773H108.918C108.699 368.608 108.003 369.105 107.088 369.105C105.696 369.105 104.802 367.952 104.802 366.182C104.802 364.452 105.716 363.318 107.088 363.318C108.123 363.318 108.739 363.955 108.918 364.651H110.091C109.892 363.219 108.679 362.264 107.069 362.264C105 362.264 103.628 363.895 103.628 366.222C103.628 368.509 104.941 370.159 107.088 370.159ZM111.606 370H112.78V363.457H116.439V370H117.612V362.364H111.606V370ZM122.757 370.159C124.308 370.159 125.441 369.384 125.799 368.23L124.666 367.912C124.367 368.707 123.676 369.105 122.757 369.105C121.379 369.105 120.43 368.215 120.375 366.58H125.919V366.082C125.919 363.239 124.228 362.264 122.637 362.264C120.569 362.264 119.197 363.895 119.197 366.241C119.197 368.588 120.549 370.159 122.757 370.159ZM120.375 365.565C120.455 364.377 121.295 363.318 122.637 363.318C123.91 363.318 124.725 364.273 124.725 365.565H120.375ZM127.503 362.364V370H136.79V362.364H135.617V368.906H132.733V362.364H131.56V368.906H128.677V362.364H127.503ZM139.906 362.364H138.733V370H139.906V366.739H143.565V370H144.739V362.364H143.565V365.645H139.906V362.364ZM149.883 370.159C151.434 370.159 152.568 369.384 152.926 368.23L151.792 367.912C151.494 368.707 150.803 369.105 149.883 369.105C148.506 369.105 147.556 368.215 147.502 366.58H153.045V366.082C153.045 363.239 151.355 362.264 149.764 362.264C147.696 362.264 146.324 363.895 146.324 366.241C146.324 368.588 147.676 370.159 149.883 370.159ZM147.502 365.565C147.581 364.377 148.422 363.318 149.764 363.318C151.037 363.318 151.852 364.273 151.852 365.565H147.502ZM157.832 370.159C159.383 370.159 160.516 369.384 160.874 368.23L159.741 367.912C159.442 368.707 158.751 369.105 157.832 369.105C156.454 369.105 155.505 368.215 155.45 366.58H160.994V366.082C160.994 363.239 159.303 362.264 157.712 362.264C155.644 362.264 154.272 363.895 154.272 366.241C154.272 368.588 155.624 370.159 157.832 370.159ZM155.45 365.565C155.53 364.377 156.37 363.318 157.712 363.318C158.985 363.318 159.8 364.273 159.8 365.565H155.45ZM167.489 368.27V362.364H166.316V370H167.688L171.347 364.094V370H172.52V362.364H171.168L167.489 368.27ZM178.207 370H179.38V363.457H183.039V370H184.213V362.364H178.207V370ZM189.258 370.159C191.326 370.159 192.718 368.588 192.718 366.222C192.718 363.835 191.326 362.264 189.258 362.264C187.189 362.264 185.797 363.835 185.797 366.222C185.797 368.588 187.189 370.159 189.258 370.159ZM189.258 369.105C187.687 369.105 186.971 367.753 186.971 366.222C186.971 364.69 187.687 363.318 189.258 363.318C190.829 363.318 191.545 364.69 191.545 366.222C191.545 367.753 190.829 369.105 189.258 369.105ZM200.195 362.364H199.022V366.237C198.455 366.401 197.873 366.5 197.172 366.5C196.218 366.5 195.482 365.963 195.482 364.79V362.344H194.309V364.79C194.309 366.659 195.442 367.594 197.172 367.594C197.893 367.594 198.47 367.499 199.022 367.335V370H200.195V362.364ZM205.35 370.159C206.901 370.159 208.034 369.384 208.392 368.23L207.259 367.912C206.96 368.707 206.269 369.105 205.35 369.105C203.972 369.105 203.023 368.215 202.968 366.58H208.512V366.082C208.512 363.239 206.821 362.264 205.23 362.264C203.162 362.264 201.79 363.895 201.79 366.241C201.79 368.588 203.142 370.159 205.35 370.159ZM202.968 365.565C203.048 364.377 203.888 363.318 205.23 363.318C206.503 363.318 207.318 364.273 207.318 365.565H202.968ZM214.272 368.409L211.647 362.364H210.096V370H211.27V364.049L213.795 370H214.75L217.275 364.158V370H218.449V362.364H216.937L214.272 368.409ZM220.879 372.844C221.938 372.844 222.688 372.282 223.126 371.114L226.377 362.384L225.094 362.364L222.987 368.449H222.907L220.799 362.364H219.526L222.35 370.04L222.131 370.636C221.714 371.78 221.177 371.889 220.322 371.67L220.023 372.705C220.143 372.764 220.481 372.844 220.879 372.844ZM228.106 370.08C228.598 370.08 229.001 369.677 229.001 369.185C229.001 368.692 228.598 368.29 228.106 368.29C227.614 368.29 227.211 368.692 227.211 369.185C227.211 369.677 227.614 370.08 228.106 370.08Z" fill="black"/>
<path opacity="0.5" d="M24.4588 149.727H23.3899L21.5753 150.913V151.964L23.3153 150.828H23.358V157H24.4588V149.727ZM28.5951 157.099C30.1079 157.099 31.1768 156.24 31.1839 155.061C31.1768 154.145 30.534 153.374 29.7208 153.229V153.186C30.4275 153.016 30.9069 152.352 30.914 151.567C30.9069 150.455 29.9268 149.628 28.5951 149.628C27.2492 149.628 26.2691 150.455 26.2762 151.567C26.2691 152.348 26.7485 153.016 27.4694 153.186V153.229C26.642 153.374 25.9992 154.145 26.0063 155.061C25.9992 156.24 27.0681 157.099 28.5951 157.099ZM28.5951 156.201C27.686 156.201 27.1108 155.718 27.1179 154.99C27.1108 154.234 27.7358 153.694 28.5951 153.694C29.4403 153.694 30.0653 154.234 30.0724 154.99C30.0653 155.718 29.4936 156.201 28.5951 156.201ZM28.5951 152.817C27.86 152.817 27.338 152.352 27.3451 151.659C27.338 150.977 27.8423 150.526 28.5951 150.526C29.3338 150.526 29.838 150.977 29.8451 151.659C29.838 152.352 29.3196 152.817 28.5951 152.817ZM35.9639 155.636C35.9674 156.457 36.4823 157.149 37.4447 157.149C38.3964 157.149 38.9184 156.457 38.9184 155.636V155.253C38.9184 154.429 38.4106 153.74 37.4447 153.74C36.4965 153.74 35.9674 154.433 35.9639 155.253V155.636ZM32.3062 151.474C32.3062 152.295 32.8247 152.987 33.787 152.987C34.7352 152.987 35.2607 152.298 35.2572 151.474V151.091C35.2607 150.267 34.7494 149.578 33.787 149.578C32.8424 149.578 32.3062 150.267 32.3062 151.091V151.474ZM32.6045 157H33.4532L38.4532 149.727H37.6045L32.6045 157ZM36.7913 155.253C36.7948 154.844 36.9724 154.45 37.4447 154.45C37.9348 154.45 38.0874 154.844 38.0874 155.253V155.636C38.0874 156.045 37.9205 156.439 37.4447 156.439C36.9617 156.439 36.7948 156.041 36.7913 155.636V155.253ZM33.1372 151.091C33.1372 150.686 33.3147 150.288 33.787 150.288C34.2771 150.288 34.4298 150.683 34.4298 151.091V151.474C34.4298 151.883 34.2629 152.277 33.787 152.277C33.3041 152.277 33.1372 151.883 33.1372 151.474V151.091ZM24.4588 164.727H23.3899L21.5753 165.913V166.964L23.3153 165.828H23.358V172H24.4588V164.727ZM28.5383 172.099C30.0014 172.099 31.0454 171.066 31.0419 169.649C31.0454 168.243 30.0653 167.22 28.7407 167.22C28.201 167.22 27.7002 167.426 27.4162 167.703H27.3735L27.6044 165.668H30.6903V164.727H26.6917L26.2833 168.392L27.2883 168.541C27.5617 168.296 28.0518 168.129 28.4921 168.129C29.3551 168.136 29.9801 168.783 29.9801 169.67C29.9801 170.544 29.3728 171.176 28.5383 171.176C27.8352 171.176 27.2777 170.729 27.2208 170.104H26.1555C26.1981 171.261 27.2031 172.099 28.5383 172.099ZM35.8467 170.636C35.8502 171.457 36.3651 172.149 37.3275 172.149C38.2792 172.149 38.8012 171.457 38.8012 170.636V170.253C38.8012 169.429 38.2934 168.74 37.3275 168.74C36.3794 168.74 35.8502 169.433 35.8467 170.253V170.636ZM32.189 166.474C32.189 167.295 32.7075 167.987 33.6698 167.987C34.618 167.987 35.1436 167.298 35.14 166.474V166.091C35.1436 165.267 34.6322 164.578 33.6698 164.578C32.7252 164.578 32.189 165.267 32.189 166.091V166.474ZM32.4873 172H33.336L38.336 164.727H37.4873L32.4873 172ZM36.6741 170.253C36.6776 169.844 36.8552 169.45 37.3275 169.45C37.8176 169.45 37.9703 169.844 37.9703 170.253V170.636C37.9703 171.045 37.8034 171.439 37.3275 171.439C36.8446 171.439 36.6776 171.041 36.6741 170.636V170.253ZM33.02 166.091C33.02 165.686 33.1975 165.288 33.6698 165.288C34.1599 165.288 34.3126 165.683 34.3126 166.091V166.474C34.3126 166.883 34.1457 167.277 33.6698 167.277C33.1869 167.277 33.02 166.883 33.02 166.474V166.091ZM24.4588 180.727H23.3899L21.5753 181.913V182.964L23.3153 181.828H23.358V188H24.4588V180.727ZM26.1377 188H30.9247V187.059H27.6505V187.006L29.0958 185.493C30.4275 184.147 30.8075 183.504 30.8075 182.691C30.8075 181.523 29.8558 180.628 28.485 180.628C27.125 180.628 26.1306 181.509 26.1306 182.837H27.1782C27.1747 182.055 27.6789 181.544 28.4637 181.544C29.2024 181.544 29.7635 181.999 29.7635 182.723C29.7635 183.366 29.3799 183.827 28.5987 184.655L26.1377 187.205V188ZM35.7783 186.636C35.7819 187.457 36.2968 188.149 37.2591 188.149C38.2109 188.149 38.7329 187.457 38.7329 186.636V186.253C38.7329 185.429 38.2251 184.74 37.2591 184.74C36.311 184.74 35.7819 185.433 35.7783 186.253V186.636ZM32.1207 182.474C32.1207 183.295 32.6391 183.987 33.6015 183.987C34.5496 183.987 35.0752 183.298 35.0716 182.474V182.091C35.0752 181.267 34.5638 180.578 33.6015 180.578C32.6569 180.578 32.1207 181.267 32.1207 182.091V182.474ZM32.4189 188H33.2677L38.2677 180.727H37.4189L32.4189 188ZM36.6057 186.253C36.6093 185.844 36.7868 185.45 37.2591 185.45C37.7492 185.45 37.9019 185.844 37.9019 186.253V186.636C37.9019 187.045 37.735 187.439 37.2591 187.439C36.7762 187.439 36.6093 187.041 36.6057 186.636V186.253ZM32.9516 182.091C32.9516 181.686 33.1292 181.288 33.6015 181.288C34.0915 181.288 34.2442 181.683 34.2442 182.091V182.474C34.2442 182.883 34.0773 183.277 33.6015 183.277C33.1185 183.277 32.9516 182.883 32.9516 182.474V182.091ZM24.1179 196.61C22.5909 196.599 21.593 197.693 21.593 199.085C21.593 200.477 22.6016 201.479 23.8622 201.479C24.6328 201.479 25.2933 201.102 25.6662 200.491H25.723C25.7195 202.164 25.0909 203.141 24.0256 203.141C23.3295 203.141 22.8821 202.714 22.7401 202.093H21.657C21.8168 203.268 22.7259 204.099 24.0256 204.099C25.7159 204.099 26.7706 202.647 26.7741 200.101C26.7706 197.427 25.4141 196.621 24.1179 196.61ZM24.1214 197.533C24.9631 197.533 25.5845 198.247 25.5845 199.06C25.5845 199.874 24.9311 200.584 24.1001 200.584C23.2656 200.584 22.6584 199.916 22.6584 199.071C22.6584 198.212 23.2869 197.533 24.1214 197.533ZM31.5648 202.636C31.5683 203.457 32.0832 204.149 33.0456 204.149C33.9973 204.149 34.5193 203.457 34.5193 202.636V202.253C34.5193 201.429 34.0115 200.74 33.0456 200.74C32.0974 200.74 31.5683 201.433 31.5648 202.253V202.636ZM27.9071 198.474C27.9071 199.295 28.4256 199.987 29.3879 199.987C30.3361 199.987 30.8616 199.298 30.8581 198.474V198.091C30.8616 197.267 30.3503 196.578 29.3879 196.578C28.4433 196.578 27.9071 197.267 27.9071 198.091V198.474ZM28.2054 204H29.0541L34.0541 196.727H33.2054L28.2054 204ZM32.3922 202.253C32.3957 201.844 32.5733 201.45 33.0456 201.45C33.5356 201.45 33.6883 201.844 33.6883 202.253V202.636C33.6883 203.045 33.5214 203.439 33.0456 203.439C32.5626 203.439 32.3957 203.041 32.3922 202.636V202.253ZM28.7381 198.091C28.7381 197.686 28.9156 197.288 29.3879 197.288C29.878 197.288 30.0307 197.683 30.0307 198.091V198.474C30.0307 198.883 29.8638 199.277 29.3879 199.277C28.905 199.277 28.7381 198.883 28.7381 198.474V198.091ZM24.2386 220.099C25.7585 220.114 26.767 219.02 26.7635 217.624C26.767 216.232 25.755 215.234 24.4943 215.234C23.7273 215.234 23.0632 215.604 22.6903 216.218H22.6371C22.6406 214.549 23.2656 213.572 24.331 213.572C25.0305 213.572 25.4709 213.995 25.62 214.616H26.7031C26.5362 213.448 25.6307 212.61 24.331 212.61C22.6406 212.61 21.5859 214.062 21.5859 216.609C21.5859 219.286 22.946 220.089 24.2386 220.099ZM24.2351 219.176C23.3899 219.176 22.772 218.466 22.772 217.649C22.7756 216.836 23.4219 216.126 24.2599 216.126C25.0909 216.126 25.7017 216.797 25.6982 217.638C25.7017 218.498 25.0661 219.176 24.2351 219.176ZM31.5648 218.636C31.5683 219.457 32.0832 220.149 33.0456 220.149C33.9973 220.149 34.5193 219.457 34.5193 218.636V218.253C34.5193 217.429 34.0115 216.74 33.0456 216.74C32.0974 216.74 31.5683 217.433 31.5648 218.253V218.636ZM27.9071 214.474C27.9071 215.295 28.4256 215.987 29.3879 215.987C30.3361 215.987 30.8616 215.298 30.8581 214.474V214.091C30.8616 213.267 30.3503 212.578 29.3879 212.578C28.4433 212.578 27.9071 213.267 27.9071 214.091V214.474ZM28.2054 220H29.0541L34.0541 212.727H33.2054L28.2054 220ZM32.3922 218.253C32.3957 217.844 32.5733 217.45 33.0456 217.45C33.5356 217.45 33.6883 217.844 33.6883 218.253V218.636C33.6883 219.045 33.5214 219.439 33.0456 219.439C32.5626 219.439 32.3957 219.041 32.3922 218.636V218.253ZM28.7381 214.091C28.7381 213.686 28.9156 213.288 29.3879 213.288C29.878 213.288 30.0307 213.683 30.0307 214.091V214.474C30.0307 214.883 29.8638 215.277 29.3879 215.277C28.905 215.277 28.7381 214.883 28.7381 214.474V214.091ZM24.2315 236.099C25.7159 236.099 26.8061 235.212 26.8026 234.004C26.8061 233.085 26.2486 232.424 25.2827 232.275V232.218C26.0426 232.023 26.5362 231.426 26.5327 230.609C26.5362 229.54 25.6591 228.628 24.2599 228.628C22.9247 228.628 21.8523 229.434 21.8168 230.616H22.8786C22.9034 229.949 23.532 229.544 24.2457 229.544C24.9879 229.544 25.4744 229.995 25.4709 230.666C25.4744 231.369 24.9098 231.831 24.1037 231.831H23.4893V232.726H24.1037C25.1122 232.726 25.6946 233.237 25.6946 233.969C25.6946 234.675 25.0803 235.155 24.2244 235.155C23.4361 235.155 22.8217 234.75 22.7791 234.104H21.6641C21.7102 235.29 22.7614 236.099 24.2315 236.099ZM31.6527 234.636C31.6562 235.457 32.1711 236.149 33.1335 236.149C34.0852 236.149 34.6072 235.457 34.6072 234.636V234.253C34.6072 233.429 34.0994 232.74 33.1335 232.74C32.1853 232.74 31.6562 233.433 31.6527 234.253V234.636ZM27.995 230.474C27.995 231.295 28.5135 231.987 29.4758 231.987C30.424 231.987 30.9495 231.298 30.946 230.474V230.091C30.9495 229.267 30.4382 228.578 29.4758 228.578C28.5312 228.578 27.995 229.267 27.995 230.091V230.474ZM28.2933 236H29.142L34.142 228.727H33.2933L28.2933 236ZM32.4801 234.253C32.4836 233.844 32.6612 233.45 33.1335 233.45C33.6235 233.45 33.7762 233.844 33.7762 234.253V234.636C33.7762 235.045 33.6093 235.439 33.1335 235.439C32.6505 235.439 32.4836 235.041 32.4801 234.636V234.253ZM28.826 230.091C28.826 229.686 29.0035 229.288 29.4758 229.288C29.9659 229.288 30.1186 229.683 30.1186 230.091V230.474C30.1186 230.883 29.9517 231.277 29.4758 231.277C28.9929 231.277 28.826 230.883 28.826 230.474V230.091ZM24.2315 251.121C25.9112 251.121 26.8949 249.75 26.8949 247.367C26.8949 245.002 25.897 243.628 24.2315 243.628C22.5625 243.628 21.5682 244.999 21.5646 247.367C21.5646 249.746 22.5483 251.117 24.2315 251.121ZM24.2315 250.173C23.2479 250.173 22.6548 249.185 22.6548 247.367C22.6584 245.556 23.2514 244.558 24.2315 244.558C25.2081 244.558 25.8047 245.556 25.8047 247.367C25.8047 249.185 25.2116 250.173 24.2315 250.173ZM31.6624 249.636C31.666 250.457 32.1809 251.149 33.1432 251.149C34.095 251.149 34.617 250.457 34.617 249.636V249.253C34.617 248.429 34.1092 247.74 33.1432 247.74C32.1951 247.74 31.666 248.433 31.6624 249.253V249.636ZM28.0048 245.474C28.0048 246.295 28.5232 246.987 29.4856 246.987C30.4337 246.987 30.9593 246.298 30.9557 245.474V245.091C30.9593 244.267 30.4479 243.578 29.4856 243.578C28.541 243.578 28.0048 244.267 28.0048 245.091V245.474ZM28.303 251H29.1518L34.1518 243.727H33.303L28.303 251ZM32.4898 249.253C32.4934 248.844 32.6709 248.45 33.1432 248.45C33.6333 248.45 33.786 248.844 33.786 249.253V249.636C33.786 250.045 33.6191 250.439 33.1432 250.439C32.6603 250.439 32.4934 250.041 32.4898 249.636V249.253ZM28.8357 245.091C28.8357 244.686 29.0133 244.288 29.4856 244.288C29.9756 244.288 30.1283 244.683 30.1283 245.091V245.474C30.1283 245.883 29.9614 246.277 29.4856 246.277C29.0026 246.277 28.8357 245.883 28.8357 245.474V245.091Z" fill="#7A7B7C"/>
<path opacity="0.5" d="M96.4844 256.727H90.8736V264H91.9673V257.665H95.3906V264H96.4844V256.727ZM98.8291 262.512V258.545H97.7887V264H98.9428L101.336 260.03V264H102.377V258.545H101.233L98.8291 262.512ZM105.813 264.11C107.103 264.11 107.937 263.336 108.054 262.274H107.021C106.886 262.864 106.428 263.212 105.821 263.212C104.922 263.212 104.343 262.462 104.343 261.273C104.343 260.104 104.933 259.369 105.821 259.369C106.495 259.369 106.907 259.795 107.021 260.307H108.054C107.941 259.206 107.042 258.474 105.803 258.474C104.265 258.474 103.271 259.632 103.271 261.298C103.271 262.942 104.23 264.11 105.813 264.11ZM109.942 260.42V258.545H108.901V264H111.284C112.619 264 113.365 263.226 113.365 262.2C113.365 261.152 112.619 260.42 111.284 260.42H109.942ZM109.942 261.337H111.284C111.895 261.337 112.332 261.706 112.332 262.232C112.332 262.729 111.895 263.084 111.284 263.084H109.942V261.337ZM117.328 262.686L115.602 258.545H114.267V264H115.308V260.033L116.934 264H117.722L119.377 260.048V264H120.411V258.545H119.09L117.328 262.686ZM123.835 264.11C125.373 264.11 126.378 262.984 126.378 261.298C126.378 259.6 125.373 258.474 123.835 258.474C122.297 258.474 121.292 259.6 121.292 261.298C121.292 262.984 122.297 264.11 123.835 264.11ZM123.839 263.219C122.834 263.219 122.365 262.342 122.365 261.294C122.365 260.25 122.834 259.362 123.839 259.362C124.836 259.362 125.305 260.25 125.305 261.294C125.305 262.342 124.836 263.219 123.839 263.219ZM132.378 256.727H131.309L129.494 257.913V258.964L131.234 257.828H131.277V264H132.378V256.727Z" fill="#7A7B7C"/>
<path opacity="0.5" d="M187.484 256.727H181.874V264H182.967V257.665H186.391V264H187.484V256.727ZM189.829 262.512V258.545H188.789V264H189.943L192.336 260.03V264H193.377V258.545H192.233L189.829 262.512ZM196.813 264.11C198.103 264.11 198.937 263.336 199.054 262.274H198.021C197.886 262.864 197.428 263.212 196.821 263.212C195.922 263.212 195.343 262.462 195.343 261.273C195.343 260.104 195.933 259.369 196.821 259.369C197.495 259.369 197.907 259.795 198.021 260.307H199.054C198.941 259.206 198.042 258.474 196.803 258.474C195.265 258.474 194.271 259.632 194.271 261.298C194.271 262.942 195.23 264.11 196.813 264.11ZM200.942 260.42V258.545H199.901V264H202.284C203.619 264 204.365 263.226 204.365 262.2C204.365 261.152 203.619 260.42 202.284 260.42H200.942ZM200.942 261.337H202.284C202.895 261.337 203.332 261.706 203.332 262.232C203.332 262.729 202.895 263.084 202.284 263.084H200.942V261.337ZM208.328 262.686L206.602 258.545H205.267V264H206.308V260.033L207.934 264H208.722L210.377 260.048V264H211.411V258.545H210.09L208.328 262.686ZM214.835 264.11C216.373 264.11 217.378 262.984 217.378 261.298C217.378 259.6 216.373 258.474 214.835 258.474C213.297 258.474 212.292 259.6 212.292 261.298C212.292 262.984 213.297 264.11 214.835 264.11ZM214.839 263.219C213.834 263.219 213.365 262.342 213.365 261.294C213.365 260.25 213.834 259.362 214.839 259.362C215.836 259.362 216.305 260.25 216.305 261.294C216.305 262.342 215.836 263.219 214.839 263.219ZM220.618 264H225.405V263.059H222.131V263.006L223.576 261.493C224.908 260.147 225.288 259.504 225.288 258.691C225.288 257.523 224.336 256.628 222.966 256.628C221.606 256.628 220.611 257.509 220.611 258.837H221.659C221.655 258.055 222.159 257.544 222.944 257.544C223.683 257.544 224.244 257.999 224.244 258.723C224.244 259.366 223.86 259.827 223.079 260.655L220.618 263.205V264Z" fill="#7A7B7C"/>
<path d="M40.4844 25.7273H34.8736V33H35.9673V26.6648H39.3906V33H40.4844V25.7273ZM44.1395 33.1101C45.3291 33.1101 46.1708 32.5241 46.4122 31.6364L45.4073 31.4553C45.2155 31.9702 44.7539 32.233 44.1502 32.233C43.2411 32.233 42.6303 31.6435 42.6019 30.5923H46.4797V30.2159C46.4797 28.245 45.3007 27.4744 44.0649 27.4744C42.5451 27.4744 41.5436 28.6321 41.5436 30.3082C41.5436 32.0021 42.5309 33.1101 44.1395 33.1101ZM42.6054 29.7969C42.648 29.0227 43.2091 28.3516 44.072 28.3516C44.8959 28.3516 45.4357 28.9624 45.4392 29.7969H42.6054ZM47.3694 35.0455H48.4312V32.1513H48.4951C48.6869 32.4993 49.0775 33.1065 50.0718 33.1065C51.3928 33.1065 52.3517 32.0483 52.3517 30.2834C52.3517 28.5149 51.3786 27.4744 50.0612 27.4744C49.0491 27.4744 48.6833 28.0923 48.4951 28.4297H48.4063V27.5455H47.3694V35.0455ZM48.4099 30.2727C48.4099 29.1328 48.9071 28.3764 49.8339 28.3764C50.7963 28.3764 51.2792 29.1896 51.2792 30.2727C51.2792 31.3665 50.7821 32.201 49.8339 32.201C48.9213 32.201 48.4099 31.4197 48.4099 30.2727ZM55.6037 33.1101C56.7934 33.1101 57.635 32.5241 57.8765 31.6364L56.8715 31.4553C56.6797 31.9702 56.2181 32.233 55.6144 32.233C54.7053 32.233 54.0945 31.6435 54.0661 30.5923H57.9439V30.2159C57.9439 28.245 56.765 27.4744 55.5292 27.4744C54.0093 27.4744 53.0079 28.6321 53.0079 30.3082C53.0079 32.0021 53.9951 33.1101 55.6037 33.1101ZM54.0697 29.7969C54.1123 29.0227 54.6733 28.3516 55.5363 28.3516C56.3601 28.3516 56.8999 28.9624 56.9035 29.7969H54.0697ZM59.5447 27.5455H58.38L60.0561 30.2727L58.3587 33H59.5234L60.7486 30.9616L61.9773 33H63.1385L61.4233 30.2727L63.1243 27.5455H61.9631L60.7486 29.669L59.5447 27.5455ZM65.9991 33.1101C67.5367 33.1101 68.5417 31.9844 68.5417 30.2976C68.5417 28.6001 67.5367 27.4744 65.9991 27.4744C64.4614 27.4744 63.4565 28.6001 63.4565 30.2976C63.4565 31.9844 64.4614 33.1101 65.9991 33.1101ZM66.0026 32.2188C64.9977 32.2188 64.5289 31.3416 64.5289 30.294C64.5289 29.25 64.9977 28.3622 66.0026 28.3622C67.0005 28.3622 67.4692 29.25 67.4692 30.294C67.4692 31.3416 67.0005 32.2188 66.0026 32.2188ZM68.9058 34.5732H69.9569V33H73.7602V34.5732H74.7971V32.0803H73.9591V27.5455H70.2517L70.0812 29.5803C69.9676 30.9545 69.8007 31.6719 69.3497 32.0803H68.9058V34.5732ZM70.4861 32.0803C70.8483 31.5724 70.9832 30.7273 71.0898 29.5803L71.2034 28.4545H72.9221V32.0803H70.4861ZM76.5871 29.4205V27.5455H75.5466V33H77.9294C79.2646 33 80.0104 32.2259 80.0104 31.1996C80.0104 30.152 79.2646 29.4205 77.9294 29.4205H76.5871ZM80.7845 33H81.8463V27.5455H80.7845V33ZM76.5871 30.3366H77.9294C78.5402 30.3366 78.977 30.706 78.977 31.2315C78.977 31.7287 78.5402 32.0838 77.9294 32.0838H76.5871V30.3366Z" fill="black"/>
<circle cx="26" cy="29" r="5" fill="#FBB23E"/>
<path d="M122.116 29.3636C122.116 27.0376 120.724 25.6278 118.842 25.6278C116.953 25.6278 115.565 27.0376 115.565 29.3636C115.565 31.6861 116.953 33.0994 118.842 33.0994C120.724 33.0994 122.116 31.6896 122.116 29.3636ZM121.03 29.3636C121.03 31.1357 120.092 32.098 118.842 32.098C117.589 32.098 116.655 31.1357 116.655 29.3636C116.655 27.5916 117.589 26.6293 118.842 26.6293C120.092 26.6293 121.03 27.5916 121.03 29.3636ZM122.806 28.4616H124.592V33H125.629V28.4616H127.408V27.5455H122.806V28.4616ZM128.242 33H129.304V30.8196H129.993L131.637 33H132.955L130.817 30.1982L132.93 27.5455H131.616L129.816 29.8324H129.304V27.5455H128.242V33ZM133.491 35.0455H134.553V32.1513H134.617C134.809 32.4993 135.199 33.1065 136.194 33.1065C137.515 33.1065 138.473 32.0483 138.473 30.2834C138.473 28.5149 137.5 27.4744 136.183 27.4744C135.171 27.4744 134.805 28.0923 134.617 28.4297H134.528V27.5455H133.491V35.0455ZM134.532 30.2727C134.532 29.1328 135.029 28.3764 135.956 28.3764C136.918 28.3764 137.401 29.1896 137.401 30.2727C137.401 31.3665 136.904 32.201 135.956 32.201C135.043 32.201 134.532 31.4197 134.532 30.2727ZM140.415 29.4205V27.5455H139.375V33H141.757C143.093 33 143.838 32.2259 143.838 31.1996C143.838 30.152 143.093 29.4205 141.757 29.4205H140.415ZM144.613 33H145.674V27.5455H144.613V33ZM140.415 30.3366H141.757C142.368 30.3366 142.805 30.706 142.805 31.2315C142.805 31.7287 142.368 32.0838 141.757 32.0838H140.415V30.3366ZM146.505 28.4616H148.292V33H149.329V28.4616H151.108V27.5455H146.505V28.4616ZM153.986 33.1101C155.524 33.1101 156.529 31.9844 156.529 30.2976C156.529 28.6001 155.524 27.4744 153.986 27.4744C152.448 27.4744 151.443 28.6001 151.443 30.2976C151.443 31.9844 152.448 33.1101 153.986 33.1101ZM153.99 32.2188C152.985 32.2188 152.516 31.3416 152.516 30.294C152.516 29.25 152.985 28.3622 153.99 28.3622C154.987 28.3622 155.456 29.25 155.456 30.294C155.456 31.3416 154.987 32.2188 153.99 32.2188Z" fill="black"/>
<circle cx="107" cy="29" r="5" fill="#FFC476"/>
<path d="M197.116 29.3636C197.116 27.0376 195.724 25.6278 193.842 25.6278C191.953 25.6278 190.565 27.0376 190.565 29.3636C190.565 31.6861 191.953 33.0994 193.842 33.0994C195.724 33.0994 197.116 31.6896 197.116 29.3636ZM196.03 29.3636C196.03 31.1357 195.092 32.098 193.842 32.098C192.589 32.098 191.655 31.1357 191.655 29.3636C191.655 27.5916 192.589 26.6293 193.842 26.6293C195.092 26.6293 196.03 27.5916 196.03 29.3636ZM197.806 28.4616H199.592V33H200.629V28.4616H202.408V27.5455H197.806V28.4616ZM203.242 33H204.276V28.4616H206.652V33H207.692V27.5455H203.242V33ZM208.823 35.0455H209.885V32.1513H209.949C210.141 32.4993 210.531 33.1065 211.526 33.1065C212.847 33.1065 213.805 32.0483 213.805 30.2834C213.805 28.5149 212.832 27.4744 211.515 27.4744C210.503 27.4744 210.137 28.0923 209.949 28.4297H209.86V27.5455H208.823V35.0455ZM209.864 30.2727C209.864 29.1328 210.361 28.3764 211.288 28.3764C212.25 28.3764 212.733 29.1896 212.733 30.2727C212.733 31.3665 212.236 32.201 211.288 32.201C210.375 32.201 209.864 31.4197 209.864 30.2727ZM216.294 33.1207C217.196 33.1207 217.704 32.6626 217.906 32.2543H217.949V33H218.986V29.3778C218.986 27.7905 217.736 27.4744 216.869 27.4744C215.882 27.4744 214.973 27.8722 214.618 28.8665L215.616 29.0938C215.772 28.7067 216.17 28.3338 216.884 28.3338C217.569 28.3338 217.92 28.6925 217.92 29.3104V29.3352C217.92 29.7223 217.523 29.7152 216.543 29.8288C215.509 29.9496 214.451 30.2195 214.451 31.4588C214.451 32.5312 215.257 33.1207 216.294 33.1207ZM216.525 32.2685C215.925 32.2685 215.491 31.9986 215.491 31.473C215.491 30.9048 215.996 30.7024 216.61 30.6207C216.955 30.5746 217.771 30.4822 217.924 30.3295V31.0327C217.924 31.679 217.409 32.2685 216.525 32.2685ZM220.112 33H222.718C223.911 33 224.611 32.3963 224.611 31.5298C224.611 30.7202 223.989 30.223 223.262 30.1378C223.933 30.0099 224.377 29.6406 224.377 29.0014C224.377 28.1065 223.602 27.5455 222.374 27.5455H220.112V33ZM221.11 32.1122V30.5959H222.718C223.244 30.5959 223.56 30.9048 223.56 31.4126C223.56 31.8459 223.244 32.1122 222.718 32.1122H221.11ZM221.11 29.8182V28.4439H222.374C222.977 28.4439 223.343 28.696 223.343 29.1151C223.343 29.5518 222.981 29.8182 222.384 29.8182H221.11ZM225.058 33H225.399C226.588 33 227.025 32.1193 227.11 30.3153L227.195 28.4616H228.978V33H230.019V27.5455H226.212L226.116 29.9602C226.048 31.6435 225.857 32.0803 225.249 32.0803H225.054L225.058 33ZM233.497 33.1101C234.687 33.1101 235.528 32.5241 235.77 31.6364L234.765 31.4553C234.573 31.9702 234.111 32.233 233.508 32.233C232.599 32.233 231.988 31.6435 231.959 30.5923H235.837V30.2159C235.837 28.245 234.658 27.4744 233.422 27.4744C231.903 27.4744 230.901 28.6321 230.901 30.3082C230.901 32.0021 231.888 33.1101 233.497 33.1101ZM231.963 29.7969C232.006 29.0227 232.567 28.3516 233.43 28.3516C234.253 28.3516 234.793 28.9624 234.797 29.7969H231.963ZM237.767 27.5455H236.727V33H237.767V30.7344H240.129V33H241.166V27.5455H240.129V29.8146H237.767V27.5455ZM244.595 33.1101C246.133 33.1101 247.138 31.9844 247.138 30.2976C247.138 28.6001 246.133 27.4744 244.595 27.4744C243.058 27.4744 242.053 28.6001 242.053 30.2976C242.053 31.9844 243.058 33.1101 244.595 33.1101ZM244.599 32.2188C243.594 32.2188 243.125 31.3416 243.125 30.294C243.125 29.25 243.594 28.3622 244.599 28.3622C245.597 28.3622 246.066 29.25 246.066 30.294C246.066 31.3416 245.597 32.2188 244.599 32.2188Z" fill="black"/>
<path d="M175 29H187" stroke="black"/>
<circle cx="181" cy="29" r="3" fill="white" stroke="black"/>
<path opacity="0.5" d="M24.4588 47.7273H23.3899L21.5753 48.9134V49.9645L23.3153 48.8281H23.358V55H24.4588V47.7273ZM28.5951 55.0994C30.1079 55.0994 31.1768 54.2401 31.1839 53.0611C31.1768 52.1449 30.534 51.3743 29.7208 51.2287V51.1861C30.4275 51.0156 30.9069 50.3516 30.914 49.5668C30.9069 48.4553 29.9268 47.6278 28.5951 47.6278C27.2492 47.6278 26.2691 48.4553 26.2762 49.5668C26.2691 50.348 26.7485 51.0156 27.4694 51.1861V51.2287C26.642 51.3743 25.9992 52.1449 26.0063 53.0611C25.9992 54.2401 27.0681 55.0994 28.5951 55.0994ZM28.5951 54.201C27.686 54.201 27.1108 53.718 27.1179 52.9901C27.1108 52.2337 27.7358 51.6939 28.5951 51.6939C29.4403 51.6939 30.0653 52.2337 30.0724 52.9901C30.0653 53.718 29.4936 54.201 28.5951 54.201ZM28.5951 50.8168C27.86 50.8168 27.338 50.3516 27.3451 49.6591C27.338 48.9773 27.8423 48.5263 28.5951 48.5263C29.3338 48.5263 29.838 48.9773 29.8451 49.6591C29.838 50.3516 29.3196 50.8168 28.5951 50.8168ZM34.6997 55.1207C36.3794 55.1207 37.363 53.75 37.363 51.3672C37.363 49.0021 36.3651 47.6278 34.6997 47.6278C33.0306 47.6278 32.0363 48.9986 32.0328 51.3672C32.0328 53.7464 33.0164 55.1172 34.6997 55.1207ZM34.6997 54.1726C33.716 54.1726 33.123 53.1854 33.123 51.3672C33.1265 49.5561 33.7196 48.5582 34.6997 48.5582C35.6762 48.5582 36.2728 49.5561 36.2728 51.3672C36.2728 53.1854 35.6798 54.1726 34.6997 54.1726ZM43.2244 55.1207C44.9041 55.1207 45.8878 53.75 45.8878 51.3672C45.8878 49.0021 44.8899 47.6278 43.2244 47.6278C41.5554 47.6278 40.5611 48.9986 40.5575 51.3672C40.5575 53.7464 41.5412 55.1172 43.2244 55.1207ZM43.2244 54.1726C42.2408 54.1726 41.6477 53.1854 41.6477 51.3672C41.6513 49.5561 42.2443 48.5582 43.2244 48.5582C44.201 48.5582 44.7976 49.5561 44.7976 51.3672C44.7976 53.1854 44.2046 54.1726 43.2244 54.1726ZM49.3911 55.1207C51.0708 55.1207 52.0545 53.75 52.0545 51.3672C52.0545 49.0021 51.0566 47.6278 49.3911 47.6278C47.7221 47.6278 46.7278 48.9986 46.7242 51.3672C46.7242 53.7464 47.7079 55.1172 49.3911 55.1207ZM49.3911 54.1726C48.4075 54.1726 47.8144 53.1854 47.8144 51.3672C47.818 49.5561 48.411 48.5582 49.3911 48.5582C50.3677 48.5582 50.9643 49.5561 50.9643 51.3672C50.9643 53.1854 50.3712 54.1726 49.3911 54.1726ZM55.5578 55.1207C57.2375 55.1207 58.2212 53.75 58.2212 51.3672C58.2212 49.0021 57.2233 47.6278 55.5578 47.6278C53.8888 47.6278 52.8944 48.9986 52.8909 51.3672C52.8909 53.7464 53.8746 55.1172 55.5578 55.1207ZM55.5578 54.1726C54.5741 54.1726 53.9811 53.1854 53.9811 51.3672C53.9846 49.5561 54.5777 48.5582 55.5578 48.5582C56.5344 48.5582 57.131 49.5561 57.131 51.3672C57.131 53.1854 56.5379 54.1726 55.5578 54.1726ZM24.4588 62.7273H23.3899L21.5753 63.9134V64.9645L23.3153 63.8281H23.358V70H24.4588V62.7273ZM28.5383 70.0994C30.0014 70.0994 31.0454 69.0661 31.0419 67.6491C31.0454 66.2429 30.0653 65.2202 28.7407 65.2202C28.201 65.2202 27.7002 65.4261 27.4162 65.7031H27.3735L27.6044 63.6683H30.6903V62.7273H26.6917L26.2833 66.392L27.2883 66.5412C27.5617 66.2962 28.0518 66.1293 28.4921 66.1293C29.3551 66.1364 29.9801 66.7827 29.9801 67.6705C29.9801 68.544 29.3728 69.1761 28.5383 69.1761C27.8352 69.1761 27.2777 68.7287 27.2208 68.1037H26.1555C26.1981 69.2614 27.2031 70.0994 28.5383 70.0994ZM34.5825 70.1207C36.2622 70.1207 37.2458 68.75 37.2458 66.3672C37.2458 64.0021 36.248 62.6278 34.5825 62.6278C32.9134 62.6278 31.9191 63.9986 31.9156 66.3672C31.9156 68.7464 32.8992 70.1172 34.5825 70.1207ZM34.5825 69.1726C33.5988 69.1726 33.0058 68.1854 33.0058 66.3672C33.0093 64.5561 33.6024 63.5582 34.5825 63.5582C35.559 63.5582 36.1556 64.5561 36.1556 66.3672C36.1556 68.1854 35.5626 69.1726 34.5825 69.1726ZM43.1072 70.1207C44.7869 70.1207 45.7706 68.75 45.7706 66.3672C45.7706 64.0021 44.7727 62.6278 43.1072 62.6278C41.4382 62.6278 40.4439 63.9986 40.4403 66.3672C40.4403 68.7464 41.424 70.1172 43.1072 70.1207ZM43.1072 69.1726C42.1236 69.1726 41.5305 68.1854 41.5305 66.3672C41.5341 64.5561 42.1271 63.5582 43.1072 63.5582C44.0838 63.5582 44.6804 64.5561 44.6804 66.3672C44.6804 68.1854 44.0874 69.1726 43.1072 69.1726ZM49.2739 70.1207C50.9536 70.1207 51.9373 68.75 51.9373 66.3672C51.9373 64.0021 50.9394 62.6278 49.2739 62.6278C47.6049 62.6278 46.6106 63.9986 46.607 66.3672C46.607 68.7464 47.5907 70.1172 49.2739 70.1207ZM49.2739 69.1726C48.2903 69.1726 47.6972 68.1854 47.6972 66.3672C47.7008 64.5561 48.2938 63.5582 49.2739 63.5582C50.2505 63.5582 50.8471 64.5561 50.8471 66.3672C50.8471 68.1854 50.254 69.1726 49.2739 69.1726ZM55.4406 70.1207C57.1203 70.1207 58.104 68.75 58.104 66.3672C58.104 64.0021 57.1061 62.6278 55.4406 62.6278C53.7716 62.6278 52.7773 63.9986 52.7737 66.3672C52.7737 68.7464 53.7574 70.1172 55.4406 70.1207ZM55.4406 69.1726C54.4569 69.1726 53.8639 68.1854 53.8639 66.3672C53.8675 64.5561 54.4605 63.5582 55.4406 63.5582C56.4172 63.5582 57.0138 64.5561 57.0138 66.3672C57.0138 68.1854 56.4207 69.1726 55.4406 69.1726ZM24.4588 78.7273H23.3899L21.5753 79.9134V80.9645L23.3153 79.8281H23.358V86H24.4588V78.7273ZM26.1377 86H30.9247V85.0589H27.6505V85.0057L29.0958 83.4929C30.4275 82.147 30.8075 81.5043 30.8075 80.6911C30.8075 79.5227 29.8558 78.6278 28.485 78.6278C27.125 78.6278 26.1306 79.5085 26.1306 80.8366H27.1782C27.1747 80.0554 27.6789 79.544 28.4637 79.544C29.2024 79.544 29.7635 79.9986 29.7635 80.723C29.7635 81.3658 29.3799 81.8274 28.5987 82.6548L26.1377 85.2045V86ZM34.5141 86.1207C36.1938 86.1207 37.1775 84.75 37.1775 82.3672C37.1775 80.0021 36.1796 78.6278 34.5141 78.6278C32.8451 78.6278 31.8508 79.9986 31.8472 82.3672C31.8472 84.7464 32.8309 86.1172 34.5141 86.1207ZM34.5141 85.1726C33.5305 85.1726 32.9374 84.1854 32.9374 82.3672C32.941 80.5561 33.534 79.5582 34.5141 79.5582C35.4907 79.5582 36.0873 80.5561 36.0873 82.3672C36.0873 84.1854 35.4942 85.1726 34.5141 85.1726ZM43.0389 86.1207C44.7186 86.1207 45.7022 84.75 45.7022 82.3672C45.7022 80.0021 44.7044 78.6278 43.0389 78.6278C41.3699 78.6278 40.3755 79.9986 40.372 82.3672C40.372 84.7464 41.3557 86.1172 43.0389 86.1207ZM43.0389 85.1726C42.0552 85.1726 41.4622 84.1854 41.4622 82.3672C41.4657 80.5561 42.0588 79.5582 43.0389 79.5582C44.0155 79.5582 44.612 80.5561 44.612 82.3672C44.612 84.1854 44.019 85.1726 43.0389 85.1726ZM49.2056 86.1207C50.8853 86.1207 51.8689 84.75 51.8689 82.3672C51.8689 80.0021 50.8711 78.6278 49.2056 78.6278C47.5365 78.6278 46.5422 79.9986 46.5387 82.3672C46.5387 84.7464 47.5223 86.1172 49.2056 86.1207ZM49.2056 85.1726C48.2219 85.1726 47.6289 84.1854 47.6289 82.3672C47.6324 80.5561 48.2255 79.5582 49.2056 79.5582C50.1821 79.5582 50.7787 80.5561 50.7787 82.3672C50.7787 84.1854 50.1857 85.1726 49.2056 85.1726ZM55.3723 86.1207C57.0519 86.1207 58.0356 84.75 58.0356 82.3672C58.0356 80.0021 57.0377 78.6278 55.3723 78.6278C53.7032 78.6278 52.7089 79.9986 52.7054 82.3672C52.7054 84.7464 53.689 86.1172 55.3723 86.1207ZM55.3723 85.1726C54.3886 85.1726 53.7955 84.1854 53.7955 82.3672C53.7991 80.5561 54.3921 79.5582 55.3723 79.5582C56.3488 79.5582 56.9454 80.5561 56.9454 82.3672C56.9454 84.1854 56.3524 85.1726 55.3723 85.1726ZM24.1179 94.6101C22.5909 94.5994 21.593 95.6932 21.593 97.0852C21.593 98.4773 22.6016 99.4787 23.8622 99.4787C24.6328 99.4787 25.2933 99.1023 25.6662 98.4915H25.723C25.7195 100.164 25.0909 101.141 24.0256 101.141C23.3295 101.141 22.8821 100.714 22.7401 100.093H21.657C21.8168 101.268 22.7259 102.099 24.0256 102.099C25.7159 102.099 26.7706 100.647 26.7741 98.1009C26.7706 95.4268 25.4141 94.6207 24.1179 94.6101ZM24.1214 95.5334C24.9631 95.5334 25.5845 96.2472 25.5845 97.0604C25.5845 97.8736 24.9311 98.5838 24.1001 98.5838C23.2656 98.5838 22.6584 97.9162 22.6584 97.071C22.6584 96.2116 23.2869 95.5334 24.1214 95.5334ZM30.3006 102.121C31.9802 102.121 32.9639 100.75 32.9639 98.3672C32.9639 96.0021 31.966 94.6278 30.3006 94.6278C28.6315 94.6278 27.6372 95.9986 27.6337 98.3672C27.6337 100.746 28.6173 102.117 30.3006 102.121ZM30.3006 101.173C29.3169 101.173 28.7239 100.185 28.7239 98.3672C28.7274 96.5561 29.3204 95.5582 30.3006 95.5582C31.2771 95.5582 31.8737 96.5561 31.8737 98.3672C31.8737 100.185 31.2807 101.173 30.3006 101.173ZM38.8253 102.121C40.505 102.121 41.4887 100.75 41.4887 98.3672C41.4887 96.0021 40.4908 94.6278 38.8253 94.6278C37.1563 94.6278 36.162 95.9986 36.1584 98.3672C36.1584 100.746 37.1421 102.117 38.8253 102.121ZM38.8253 101.173C37.8417 101.173 37.2486 100.185 37.2486 98.3672C37.2522 96.5561 37.8452 95.5582 38.8253 95.5582C39.8019 95.5582 40.3985 96.5561 40.3985 98.3672C40.3985 100.185 39.8054 101.173 38.8253 101.173ZM44.992 102.121C46.6717 102.121 47.6554 100.75 47.6554 98.3672C47.6554 96.0021 46.6575 94.6278 44.992 94.6278C43.323 94.6278 42.3287 95.9986 42.3251 98.3672C42.3251 100.746 43.3088 102.117 44.992 102.121ZM44.992 101.173C44.0084 101.173 43.4153 100.185 43.4153 98.3672C43.4189 96.5561 44.0119 95.5582 44.992 95.5582C45.9686 95.5582 46.5652 96.5561 46.5652 98.3672C46.5652 100.185 45.9721 101.173 44.992 101.173ZM51.1587 102.121C52.8384 102.121 53.8221 100.75 53.8221 98.3672C53.8221 96.0021 52.8242 94.6278 51.1587 94.6278C49.4897 94.6278 48.4953 95.9986 48.4918 98.3672C48.4918 100.746 49.4755 102.117 51.1587 102.121ZM51.1587 101.173C50.175 101.173 49.582 100.185 49.582 98.3672C49.5855 96.5561 50.1786 95.5582 51.1587 95.5582C52.1353 95.5582 52.7319 96.5561 52.7319 98.3672C52.7319 100.185 52.1388 101.173 51.1587 101.173ZM24.2386 118.099C25.7585 118.114 26.767 117.02 26.7635 115.624C26.767 114.232 25.755 113.234 24.4943 113.234C23.7273 113.234 23.0632 113.604 22.6903 114.218H22.6371C22.6406 112.549 23.2656 111.572 24.331 111.572C25.0305 111.572 25.4709 111.995 25.62 112.616H26.7031C26.5362 111.448 25.6307 110.61 24.331 110.61C22.6406 110.61 21.5859 112.062 21.5859 114.609C21.5859 117.286 22.946 118.089 24.2386 118.099ZM24.2351 117.176C23.3899 117.176 22.772 116.466 22.772 115.649C22.7756 114.836 23.4219 114.126 24.2599 114.126C25.0909 114.126 25.7017 114.797 25.6982 115.638C25.7017 116.498 25.0661 117.176 24.2351 117.176ZM30.3006 118.121C31.9802 118.121 32.9639 116.75 32.9639 114.367C32.9639 112.002 31.966 110.628 30.3006 110.628C28.6315 110.628 27.6372 111.999 27.6337 114.367C27.6337 116.746 28.6173 118.117 30.3006 118.121ZM30.3006 117.173C29.3169 117.173 28.7239 116.185 28.7239 114.367C28.7274 112.556 29.3204 111.558 30.3006 111.558C31.2771 111.558 31.8737 112.556 31.8737 114.367C31.8737 116.185 31.2807 117.173 30.3006 117.173ZM38.8253 118.121C40.505 118.121 41.4887 116.75 41.4887 114.367C41.4887 112.002 40.4908 110.628 38.8253 110.628C37.1563 110.628 36.162 111.999 36.1584 114.367C36.1584 116.746 37.1421 118.117 38.8253 118.121ZM38.8253 117.173C37.8417 117.173 37.2486 116.185 37.2486 114.367C37.2522 112.556 37.8452 111.558 38.8253 111.558C39.8019 111.558 40.3985 112.556 40.3985 114.367C40.3985 116.185 39.8054 117.173 38.8253 117.173ZM44.992 118.121C46.6717 118.121 47.6554 116.75 47.6554 114.367C47.6554 112.002 46.6575 110.628 44.992 110.628C43.323 110.628 42.3287 111.999 42.3251 114.367C42.3251 116.746 43.3088 118.117 44.992 118.121ZM44.992 117.173C44.0084 117.173 43.4153 116.185 43.4153 114.367C43.4189 112.556 44.0119 111.558 44.992 111.558C45.9686 111.558 46.5652 112.556 46.5652 114.367C46.5652 116.185 45.9721 117.173 44.992 117.173ZM51.1587 118.121C52.8384 118.121 53.8221 116.75 53.8221 114.367C53.8221 112.002 52.8242 110.628 51.1587 110.628C49.4897 110.628 48.4953 111.999 48.4918 114.367C48.4918 116.746 49.4755 118.117 51.1587 118.121ZM51.1587 117.173C50.175 117.173 49.582 116.185 49.582 114.367C49.5855 112.556 50.1786 111.558 51.1587 111.558C52.1353 111.558 52.7319 112.556 52.7319 114.367C52.7319 116.185 52.1388 117.173 51.1587 117.173ZM24.2315 134.099C25.7159 134.099 26.8061 133.212 26.8026 132.004C26.8061 131.085 26.2486 130.424 25.2827 130.275V130.218C26.0426 130.023 26.5362 129.426 26.5327 128.609C26.5362 127.54 25.6591 126.628 24.2599 126.628C22.9247 126.628 21.8523 127.434 21.8168 128.616H22.8786C22.9034 127.949 23.532 127.544 24.2457 127.544C24.9879 127.544 25.4744 127.995 25.4709 128.666C25.4744 129.369 24.9098 129.831 24.1037 129.831H23.4893V130.726H24.1037C25.1122 130.726 25.6946 131.237 25.6946 131.969C25.6946 132.675 25.0803 133.155 24.2244 133.155C23.4361 133.155 22.8217 132.75 22.7791 132.104H21.6641C21.7102 133.29 22.7614 134.099 24.2315 134.099ZM30.3885 134.121C32.0681 134.121 33.0518 132.75 33.0518 130.367C33.0518 128.002 32.0539 126.628 30.3885 126.628C28.7194 126.628 27.7251 127.999 27.7215 130.367C27.7215 132.746 28.7052 134.117 30.3885 134.121ZM30.3885 133.173C29.4048 133.173 28.8117 132.185 28.8117 130.367C28.8153 128.556 29.4083 127.558 30.3885 127.558C31.365 127.558 31.9616 128.556 31.9616 130.367C31.9616 132.185 31.3686 133.173 30.3885 133.173ZM38.9132 134.121C40.5929 134.121 41.5766 132.75 41.5766 130.367C41.5766 128.002 40.5787 126.628 38.9132 126.628C37.2442 126.628 36.2499 127.999 36.2463 130.367C36.2463 132.746 37.23 134.117 38.9132 134.121ZM38.9132 133.173C37.9296 133.173 37.3365 132.185 37.3365 130.367C37.3401 128.556 37.9331 127.558 38.9132 127.558C39.8898 127.558 40.4864 128.556 40.4864 130.367C40.4864 132.185 39.8933 133.173 38.9132 133.173ZM45.0799 134.121C46.7596 134.121 47.7433 132.75 47.7433 130.367C47.7433 128.002 46.7454 126.628 45.0799 126.628C43.4109 126.628 42.4166 127.999 42.413 130.367C42.413 132.746 43.3967 134.117 45.0799 134.121ZM45.0799 133.173C44.0962 133.173 43.5032 132.185 43.5032 130.367C43.5068 128.556 44.0998 127.558 45.0799 127.558C46.0565 127.558 46.6531 128.556 46.6531 130.367C46.6531 132.185 46.06 133.173 45.0799 133.173ZM51.2466 134.121C52.9263 134.121 53.9099 132.75 53.9099 130.367C53.9099 128.002 52.9121 126.628 51.2466 126.628C49.5776 126.628 48.5832 127.999 48.5797 130.367C48.5797 132.746 49.5634 134.117 51.2466 134.121ZM51.2466 133.173C50.2629 133.173 49.6699 132.185 49.6699 130.367C49.6734 128.556 50.2665 127.558 51.2466 127.558C52.2232 127.558 52.8197 128.556 52.8197 130.367C52.8197 132.185 52.2267 133.173 51.2466 133.173Z" fill="#7A7B7C"/>
<path d="M119 209.5L119 248L114 248L114 209.5C114 208.119 115.119 207 116.5 207C117.881 207 119 208.119 119 209.5Z" fill="#FBB23E"/>
<path d="M107 169L107 248L101 248L101 169C101 167.343 102.343 166 104 166C105.657 166 107 167.343 107 169Z" fill="#FFC476"/>
<path d="M211 233.5L211 248L206 248L206 233.5C206 232.119 207.119 231 208.5 231C209.881 231 211 232.119 211 233.5Z" fill="#FBB23E"/>
<path d="M199 173L199 248L193 248L193 173C193 171.343 194.343 170 196 170C197.657 170 199 171.343 199 173Z" fill="#FFC476"/>
<path d="M109 111.581C137.5 102.5 182.907 86.6197 198 80" stroke="black"/>
<circle cx="199.5" cy="79.5" r="3.5" fill="white" stroke="black"/>
<circle cx="108.5" cy="111.081" r="3.5" fill="white" stroke="black"/>
</svg>
