<svg width="640" height="361" viewBox="0 0 640 361" fill="none" xmlns="http://www.w3.org/2000/svg">
<path d="M1 27C1 13.1929 12.1929 2 26 2H614C627.807 2 639 13.1929 639 27V166H1V27Z" fill="#F9FAFB"/>
<path opacity="0.5" d="M98.5 306H598" stroke="#D5D4D6" stroke-width="0.5" stroke-miterlimit="10" stroke-linecap="round"/>
<path opacity="0.5" d="M98.5 286H598" stroke="#D5D4D6" stroke-width="0.5" stroke-miterlimit="10" stroke-linecap="round"/>
<path opacity="0.5" d="M98.5 266H598" stroke="#D5D4D6" stroke-width="0.5" stroke-miterlimit="10" stroke-linecap="round"/>
<path opacity="0.5" d="M98.5 246H598" stroke="#D5D4D6" stroke-width="0.5" stroke-miterlimit="10" stroke-linecap="round"/>
<path opacity="0.5" d="M98.5 226H598" stroke="#D5D4D6" stroke-width="0.5" stroke-miterlimit="10" stroke-linecap="round"/>
<path opacity="0.5" d="M98.5 206H598" stroke="#D5D4D6" stroke-width="0.5" stroke-miterlimit="10" stroke-linecap="round"/>
<path opacity="0.5" d="M98.5 186H598" stroke="#D5D4D6" stroke-width="0.5" stroke-miterlimit="10" stroke-linecap="round"/>
<path opacity="0.5" d="M98.5 146H598" stroke="#D5D4D6" stroke-width="0.5" stroke-miterlimit="10" stroke-linecap="round"/>
<path opacity="0.5" d="M98.5 126H598" stroke="#D5D4D6" stroke-width="0.5" stroke-miterlimit="10" stroke-linecap="round"/>
<path opacity="0.5" d="M98.5 106H598" stroke="#D5D4D6" stroke-width="0.5" stroke-miterlimit="10" stroke-linecap="round"/>
<path opacity="0.5" d="M98.5 86H598" stroke="#D5D4D6" stroke-width="0.5" stroke-miterlimit="10" stroke-linecap="round"/>
<path opacity="0.5" d="M98.5 66H598" stroke="#D5D4D6" stroke-width="0.5" stroke-miterlimit="10" stroke-linecap="round"/>
<rect opacity="0.5" x="1" y="1" width="638" height="359" rx="25" stroke="#D5D4D6" stroke-width="1.7" stroke-miterlimit="10" stroke-linecap="round"/>
<path d="M207 248.5L207 305L202 305L202 248.5C202 247.119 203.119 246 204.5 246C205.881 246 207 247.119 207 248.5Z" fill="#FBB23E"/>
<path d="M195 190L195 305L189 305L189 190C189 188.343 190.343 187 192 187C193.657 187 195 188.343 195 190Z" fill="#FFC476"/>
<path d="M375 283.5L375 305L370 305L370 283.5C370 282.119 371.119 281 372.5 281C373.881 281 375 282.119 375 283.5Z" fill="#FBB23E"/>
<path d="M363 196L363 305L357 305L357 196C357 194.343 358.343 193 360 193C361.657 193 363 194.343 363 196Z" fill="#FFC476"/>
<path d="M541 300.5L541 305L536 305L536 300.5C536 299.119 537.119 298 538.5 298C539.881 298 541 299.119 541 300.5Z" fill="#FBB23E"/>
<path d="M529 232L529 305L523 305L523 232C523 230.343 524.343 229 526 229C527.657 229 529 230.343 529 232Z" fill="#FFC476"/>
<path d="M192 148.581C220.5 139.5 242.457 133.275 258.5 129.5C284 123.5 318 113.5 358.5 113.5C409 113.5 514.495 133.761 529 139.212" stroke="black"/>
<circle cx="358.5" cy="113.5" r="3.5" fill="white" stroke="black"/>
<circle cx="525.5" cy="139.081" r="3.5" fill="white" stroke="black"/>
<circle cx="191.5" cy="148.081" r="3.5" fill="white" stroke="black"/>
<path opacity="0.5" d="M172.954 322.273H166.221V331H167.534V323.398H171.642V331H172.954V322.273ZM175.826 329.214V324.455H174.577V331H175.962L178.834 326.236V331H180.083V324.455H178.71L175.826 329.214ZM184.264 331.132C185.811 331.132 186.813 330.203 186.953 328.929H185.713C185.551 329.636 185.002 330.054 184.273 330.054C183.195 330.054 182.5 329.155 182.5 327.727C182.5 326.325 183.208 325.443 184.273 325.443C185.083 325.443 185.577 325.955 185.713 326.568H186.953C186.817 325.247 185.739 324.369 184.252 324.369C182.406 324.369 181.213 325.759 181.213 327.757C181.213 329.73 182.364 331.132 184.264 331.132ZM189.276 326.705V324.455H188.027V331H190.887C192.489 331 193.384 330.071 193.384 328.839C193.384 327.582 192.489 326.705 190.887 326.705H189.276ZM189.276 327.804H190.887C191.62 327.804 192.144 328.247 192.144 328.878C192.144 329.474 191.62 329.901 190.887 329.901H189.276V327.804ZM198.198 329.423L196.127 324.455H194.524V331H195.773V326.24L197.725 331H198.671L200.656 326.257V331H201.896V324.455H200.311L198.198 329.423ZM206.063 331.132C207.908 331.132 209.114 329.781 209.114 327.757C209.114 325.72 207.908 324.369 206.063 324.369C204.218 324.369 203.012 325.72 203.012 327.757C203.012 329.781 204.218 331.132 206.063 331.132ZM206.068 330.062C204.862 330.062 204.299 329.01 204.299 327.753C204.299 326.5 204.862 325.435 206.068 325.435C207.265 325.435 207.827 326.5 207.827 327.753C207.827 329.01 207.265 330.062 206.068 330.062ZM216.43 322.273H215.147L212.969 323.696V324.957L215.057 323.594H215.109V331H216.43V322.273Z" fill="#7A7B7C"/>
<path opacity="0.5" d="M339.002 322.273H332.269V331H333.581V323.398H337.689V331H339.002V322.273ZM341.873 329.214V324.455H340.625V331H342.01L344.882 326.236V331H346.13V324.455H344.758L341.873 329.214ZM350.312 331.132C351.859 331.132 352.861 330.203 353.001 328.929H351.761C351.599 329.636 351.049 330.054 350.321 330.054C349.243 330.054 348.548 329.155 348.548 327.727C348.548 326.325 349.255 325.443 350.321 325.443C351.13 325.443 351.625 325.955 351.761 326.568H353.001C352.865 325.247 351.787 324.369 350.299 324.369C348.454 324.369 347.261 325.759 347.261 327.757C347.261 329.73 348.412 331.132 350.312 331.132ZM355.324 326.705V324.455H354.075V331H356.935C358.537 331 359.432 330.071 359.432 328.839C359.432 327.582 358.537 326.705 356.935 326.705H355.324ZM355.324 327.804H356.935C357.668 327.804 358.192 328.247 358.192 328.878C358.192 329.474 357.668 329.901 356.935 329.901H355.324V327.804ZM364.245 329.423L362.174 324.455H360.572V331H361.821V326.24L363.772 331H364.718L366.704 326.257V331H367.944V324.455H366.359L364.245 329.423ZM372.111 331.132C373.956 331.132 375.162 329.781 375.162 327.757C375.162 325.72 373.956 324.369 372.111 324.369C370.266 324.369 369.06 325.72 369.06 327.757C369.06 329.781 370.266 331.132 372.111 331.132ZM372.115 330.062C370.909 330.062 370.347 329.01 370.347 327.753C370.347 326.5 370.909 325.435 372.115 325.435C373.313 325.435 373.875 326.5 373.875 327.753C373.875 329.01 373.313 330.062 372.115 330.062ZM379.166 331H384.911V329.871H380.982V329.807L382.716 327.991C384.314 326.376 384.77 325.605 384.77 324.629C384.77 323.227 383.628 322.153 381.983 322.153C380.351 322.153 379.158 323.21 379.158 324.804H380.415C380.411 323.866 381.016 323.253 381.958 323.253C382.844 323.253 383.517 323.798 383.517 324.668C383.517 325.439 383.057 325.993 382.12 326.986L379.166 330.045V331Z" fill="#7A7B7C"/>
<path opacity="0.5" d="M509.684 322.273H502.951V331H504.263V323.398H508.371V331H509.684V322.273ZM512.555 329.214V324.455H511.306V331H512.691L515.564 326.236V331H516.812V324.455H515.44L512.555 329.214ZM520.994 331.132C522.541 331.132 523.542 330.203 523.683 328.929H522.443C522.281 329.636 521.731 330.054 521.002 330.054C519.924 330.054 519.23 329.155 519.23 327.727C519.23 326.325 519.937 325.443 521.002 325.443C521.812 325.443 522.306 325.955 522.443 326.568H523.683C523.546 325.247 522.468 324.369 520.981 324.369C519.136 324.369 517.943 325.759 517.943 327.757C517.943 329.73 519.093 331.132 520.994 331.132ZM526.006 326.705V324.455H524.757V331H527.616C529.219 331 530.114 330.071 530.114 328.839C530.114 327.582 529.219 326.705 527.616 326.705H526.006ZM526.006 327.804H527.616C528.349 327.804 528.873 328.247 528.873 328.878C528.873 329.474 528.349 329.901 527.616 329.901H526.006V327.804ZM534.927 329.423L532.856 324.455H531.254V331H532.502V326.24L534.454 331H535.4L537.386 326.257V331H538.626V324.455H537.041L534.927 329.423ZM542.793 331.132C544.638 331.132 545.844 329.781 545.844 327.757C545.844 325.72 544.638 324.369 542.793 324.369C540.948 324.369 539.742 325.72 539.742 327.757C539.742 329.781 540.948 331.132 542.793 331.132ZM542.797 330.062C541.591 330.062 541.029 329.01 541.029 327.753C541.029 326.5 541.591 325.435 542.797 325.435C543.994 325.435 544.557 326.5 544.557 327.753C544.557 329.01 543.994 330.062 542.797 330.062ZM552.886 331.119C554.668 331.119 555.976 330.054 555.972 328.605C555.976 327.501 555.307 326.709 554.148 326.53V326.462C555.06 326.227 555.652 325.511 555.648 324.531C555.652 323.249 554.599 322.153 552.921 322.153C551.318 322.153 550.031 323.121 549.989 324.54H551.263C551.293 323.739 552.047 323.253 552.903 323.253C553.794 323.253 554.378 323.794 554.374 324.599C554.378 325.443 553.7 325.997 552.733 325.997H551.996V327.071H552.733C553.943 327.071 554.642 327.685 554.642 328.562C554.642 329.411 553.905 329.986 552.878 329.986C551.932 329.986 551.195 329.5 551.144 328.724H549.805C549.861 330.148 551.122 331.119 552.886 331.119Z" fill="#7A7B7C"/>
<path opacity="0.5" d="M72.4826 309.145C74.4983 309.145 75.6787 307.5 75.6787 304.641C75.6787 301.803 74.4812 300.153 72.4826 300.153C70.4798 300.153 69.2866 301.798 69.2824 304.641C69.2824 307.496 70.4628 309.141 72.4826 309.145ZM72.4826 308.007C71.3022 308.007 70.5906 306.822 70.5906 304.641C70.5949 302.467 71.3065 301.27 72.4826 301.27C73.6545 301.27 74.3704 302.467 74.3704 304.641C74.3704 306.822 73.6588 308.007 72.4826 308.007ZM81.4574 307.364C81.4616 308.348 82.0795 309.179 83.2344 309.179C84.3764 309.179 85.0028 308.348 85.0028 307.364V306.903C85.0028 305.915 84.3935 305.088 83.2344 305.088C82.0966 305.088 81.4616 305.919 81.4574 306.903V307.364ZM77.0682 302.369C77.0682 303.354 77.6903 304.185 78.8452 304.185C79.983 304.185 80.6136 303.358 80.6094 302.369V301.909C80.6136 300.92 80 300.094 78.8452 300.094C77.7116 300.094 77.0682 300.92 77.0682 301.909V302.369ZM77.4261 309H78.4446L84.4446 300.273H83.4261L77.4261 309ZM82.4503 306.903C82.4545 306.413 82.6676 305.94 83.2344 305.94C83.8224 305.94 84.0057 306.413 84.0057 306.903V307.364C84.0057 307.854 83.8054 308.327 83.2344 308.327C82.6548 308.327 82.4545 307.849 82.4503 307.364V306.903ZM78.0653 301.909C78.0653 301.423 78.2784 300.946 78.8452 300.946C79.4332 300.946 79.6165 301.419 79.6165 301.909V302.369C79.6165 302.859 79.4162 303.332 78.8452 303.332C78.2656 303.332 78.0653 302.859 78.0653 302.369V301.909Z" fill="#7A7B7C"/>
<path opacity="0.5" d="M72.4944 289.119C74.2756 289.119 75.5838 288.054 75.5796 286.605C75.5838 285.501 74.9148 284.709 73.7557 284.53V284.462C74.6677 284.227 75.26 283.511 75.2557 282.531C75.26 281.249 74.2074 280.153 72.5285 280.153C70.9262 280.153 69.6392 281.121 69.5966 282.54H70.8708C70.9006 281.739 71.6549 281.253 72.5114 281.253C73.402 281.253 73.9858 281.794 73.9816 282.599C73.9858 283.443 73.3083 283.997 72.341 283.997H71.6037V285.071H72.341C73.5512 285.071 74.25 285.685 74.25 286.562C74.25 287.411 73.5128 287.986 72.4858 287.986C71.5398 287.986 70.8026 287.5 70.7515 286.724H69.4134C69.4688 288.148 70.7302 289.119 72.4944 289.119ZM81.4574 287.364C81.4616 288.348 82.0795 289.179 83.2344 289.179C84.3764 289.179 85.0028 288.348 85.0028 287.364V286.903C85.0028 285.915 84.3935 285.088 83.2344 285.088C82.0966 285.088 81.4616 285.919 81.4574 286.903V287.364ZM77.0682 282.369C77.0682 283.354 77.6903 284.185 78.8452 284.185C79.983 284.185 80.6136 283.358 80.6094 282.369V281.909C80.6136 280.92 80 280.094 78.8452 280.094C77.7116 280.094 77.0682 280.92 77.0682 281.909V282.369ZM77.4261 289H78.4446L84.4446 280.273H83.4261L77.4261 289ZM82.4503 286.903C82.4545 286.413 82.6676 285.94 83.2344 285.94C83.8224 285.94 84.0057 286.413 84.0057 286.903V287.364C84.0057 287.854 83.8054 288.327 83.2344 288.327C82.6548 288.327 82.4545 287.849 82.4503 287.364V286.903ZM78.0653 281.909C78.0653 281.423 78.2784 280.946 78.8452 280.946C79.4332 280.946 79.6165 281.419 79.6165 281.909V282.369C79.6165 282.859 79.4162 283.332 78.8452 283.332C78.2656 283.332 78.0653 282.859 78.0653 282.369V281.909Z" fill="#7A7B7C"/>
<path opacity="0.5" d="M72.6084 269.119C74.4322 269.136 75.6424 267.824 75.6382 266.149C75.6424 264.479 74.428 263.281 72.9152 263.281C71.9947 263.281 71.1978 263.724 70.7504 264.462H70.6865C70.6907 262.459 71.4407 261.287 72.7191 261.287C73.5586 261.287 74.087 261.794 74.266 262.54H75.5657C75.3655 261.138 74.2788 260.132 72.7191 260.132C70.6907 260.132 69.4251 261.875 69.4251 264.93C69.4251 268.143 71.0572 269.107 72.6084 269.119ZM72.6041 268.011C71.5899 268.011 70.8484 267.159 70.8484 266.179C70.8527 265.203 71.6282 264.351 72.6339 264.351C73.6311 264.351 74.364 265.156 74.3598 266.166C74.364 267.197 73.6013 268.011 72.6041 268.011ZM81.4574 267.364C81.4616 268.348 82.0795 269.179 83.2344 269.179C84.3764 269.179 85.0028 268.348 85.0028 267.364V266.903C85.0028 265.915 84.3935 265.088 83.2344 265.088C82.0966 265.088 81.4616 265.919 81.4574 266.903V267.364ZM77.0682 262.369C77.0682 263.354 77.6903 264.185 78.8452 264.185C79.983 264.185 80.6136 263.358 80.6094 262.369V261.909C80.6136 260.92 80 260.094 78.8452 260.094C77.7116 260.094 77.0682 260.92 77.0682 261.909V262.369ZM77.4261 269H78.4446L84.4446 260.273H83.4261L77.4261 269ZM82.4503 266.903C82.4545 266.413 82.6676 265.94 83.2344 265.94C83.8224 265.94 84.0057 266.413 84.0057 266.903V267.364C84.0057 267.854 83.8054 268.327 83.2344 268.327C82.6548 268.327 82.4545 267.849 82.4503 267.364V266.903ZM78.0653 261.909C78.0653 261.423 78.2784 260.946 78.8452 260.946C79.4332 260.946 79.6165 261.419 79.6165 261.909V262.369C79.6165 262.859 79.4162 263.332 78.8452 263.332C78.2656 263.332 78.0653 262.859 78.0653 262.369V261.909Z" fill="#7A7B7C"/>
<path opacity="0.5" d="M72.4635 240.132C70.6311 240.119 69.4336 241.432 69.4336 243.102C69.4336 244.773 70.6439 245.974 72.1566 245.974C73.0814 245.974 73.874 245.523 74.3214 244.79H74.3896C74.3853 246.797 73.6311 247.969 72.3527 247.969C71.5174 247.969 70.9805 247.457 70.8101 246.712H69.5103C69.7021 248.122 70.793 249.119 72.3527 249.119C74.3811 249.119 75.6467 247.376 75.651 244.321C75.6467 241.112 74.0189 240.145 72.4635 240.132ZM72.4677 241.24C73.4777 241.24 74.2234 242.097 74.2234 243.072C74.2234 244.048 73.4393 244.901 72.4422 244.901C71.4407 244.901 70.712 244.099 70.712 243.085C70.712 242.054 71.4663 241.24 72.4677 241.24ZM81.4574 247.364C81.4616 248.348 82.0795 249.179 83.2344 249.179C84.3764 249.179 85.0028 248.348 85.0028 247.364V246.903C85.0028 245.915 84.3935 245.088 83.2344 245.088C82.0966 245.088 81.4616 245.919 81.4574 246.903V247.364ZM77.0682 242.369C77.0682 243.354 77.6903 244.185 78.8452 244.185C79.983 244.185 80.6136 243.358 80.6094 242.369V241.909C80.6136 240.92 80 240.094 78.8452 240.094C77.7116 240.094 77.0682 240.92 77.0682 241.909V242.369ZM77.4261 249H78.4446L84.4446 240.273H83.4261L77.4261 249ZM82.4503 246.903C82.4545 246.413 82.6676 245.94 83.2344 245.94C83.8224 245.94 84.0057 246.413 84.0057 246.903V247.364C84.0057 247.854 83.8054 248.327 83.2344 248.327C82.6548 248.327 82.4545 247.849 82.4503 247.364V246.903ZM78.0653 241.909C78.0653 241.423 78.2784 240.946 78.8452 240.946C79.4332 240.946 79.6165 241.419 79.6165 241.909V242.369C79.6165 242.859 79.4162 243.332 78.8452 243.332C78.2656 243.332 78.0653 242.859 78.0653 242.369V241.909Z" fill="#7A7B7C"/>
<path opacity="0.5" d="M67.7586 220.273H66.4759L64.2984 221.696V222.957L66.3865 221.594H66.4376V229H67.7586V220.273ZM69.831 229H75.5753V227.871H71.6464V227.807L73.3807 225.991C74.9787 224.376 75.4347 223.605 75.4347 222.629C75.4347 221.227 74.2927 220.153 72.6478 220.153C71.0157 220.153 69.8225 221.21 69.8225 222.804H71.0796C71.0753 221.866 71.6804 221.253 72.6222 221.253C73.5086 221.253 74.1819 221.798 74.1819 222.668C74.1819 223.439 73.7216 223.993 72.7841 224.986L69.831 228.045V229ZM81.4574 227.364C81.4616 228.348 82.0795 229.179 83.2344 229.179C84.3764 229.179 85.0028 228.348 85.0028 227.364V226.903C85.0028 225.915 84.3935 225.088 83.2344 225.088C82.0966 225.088 81.4616 225.919 81.4574 226.903V227.364ZM77.0682 222.369C77.0682 223.354 77.6903 224.185 78.8452 224.185C79.983 224.185 80.6136 223.358 80.6094 222.369V221.909C80.6136 220.92 80 220.094 78.8452 220.094C77.7116 220.094 77.0682 220.92 77.0682 221.909V222.369ZM77.4261 229H78.4446L84.4446 220.273H83.4261L77.4261 229ZM82.4503 226.903C82.4545 226.413 82.6676 225.94 83.2344 225.94C83.8224 225.94 84.0057 226.413 84.0057 226.903V227.364C84.0057 227.854 83.8054 228.327 83.2344 228.327C82.6548 228.327 82.4545 227.849 82.4503 227.364V226.903ZM78.0653 221.909C78.0653 221.423 78.2784 220.946 78.8452 220.946C79.4332 220.946 79.6165 221.419 79.6165 221.909V222.369C79.6165 222.859 79.4162 223.332 78.8452 223.332C78.2656 223.332 78.0653 222.859 78.0653 222.369V221.909Z" fill="#7A7B7C"/>
<path opacity="0.5" d="M67.6766 200.273H66.3939L64.2164 201.696V202.957L66.3044 201.594H66.3556V209H67.6766V200.273ZM72.6297 209.119C74.3853 209.119 75.6382 207.879 75.6339 206.179C75.6382 204.491 74.462 203.264 72.8726 203.264C72.2248 203.264 71.624 203.511 71.2831 203.844H71.2319L71.5089 201.402H75.212V200.273H70.4138L69.9237 204.67L71.1297 204.849C71.4578 204.555 72.0459 204.355 72.5743 204.355C73.6098 204.364 74.3598 205.139 74.3598 206.205C74.3598 207.253 73.6311 208.011 72.6297 208.011C71.7859 208.011 71.1169 207.474 71.0487 206.724H69.7703C69.8214 208.114 71.0274 209.119 72.6297 209.119ZM81.4574 207.364C81.4616 208.348 82.0795 209.179 83.2344 209.179C84.3764 209.179 85.0028 208.348 85.0028 207.364V206.903C85.0028 205.915 84.3935 205.088 83.2344 205.088C82.0966 205.088 81.4616 205.919 81.4574 206.903V207.364ZM77.0682 202.369C77.0682 203.354 77.6903 204.185 78.8452 204.185C79.983 204.185 80.6136 203.358 80.6094 202.369V201.909C80.6136 200.92 80 200.094 78.8452 200.094C77.7116 200.094 77.0682 200.92 77.0682 201.909V202.369ZM77.4261 209H78.4446L84.4446 200.273H83.4261L77.4261 209ZM82.4503 206.903C82.4545 206.413 82.6676 205.94 83.2344 205.94C83.8224 205.94 84.0057 206.413 84.0057 206.903V207.364C84.0057 207.854 83.8054 208.327 83.2344 208.327C82.6548 208.327 82.4545 207.849 82.4503 207.364V206.903ZM78.0653 201.909C78.0653 201.423 78.2784 200.946 78.8452 200.946C79.4332 200.946 79.6165 201.419 79.6165 201.909V202.369C79.6165 202.859 79.4162 203.332 78.8452 203.332C78.2656 203.332 78.0653 202.859 78.0653 202.369V201.909Z" fill="#7A7B7C"/>
<path opacity="0.5" d="M67.536 180.273H66.2533L64.0757 181.696V182.957L66.1638 181.594H66.2149V189H67.536V180.273ZM72.5572 189.119C74.3726 189.119 75.6552 188.088 75.6638 186.673C75.6552 185.574 74.8839 184.649 73.9081 184.474V184.423C74.7561 184.219 75.3314 183.422 75.3399 182.48C75.3314 181.146 74.1552 180.153 72.5572 180.153C70.9422 180.153 69.766 181.146 69.7745 182.48C69.766 183.418 70.3413 184.219 71.2064 184.423V184.474C70.2135 184.649 69.4422 185.574 69.4507 186.673C69.4422 188.088 70.7248 189.119 72.5572 189.119ZM72.5572 188.041C71.4663 188.041 70.776 187.462 70.7845 186.588C70.776 185.68 71.526 185.033 72.5572 185.033C73.5714 185.033 74.3214 185.68 74.3299 186.588C74.3214 187.462 73.6353 188.041 72.5572 188.041ZM72.5572 183.98C71.6751 183.98 71.0487 183.422 71.0572 182.591C71.0487 181.773 71.6538 181.232 72.5572 181.232C73.4436 181.232 74.0487 181.773 74.0572 182.591C74.0487 183.422 73.4265 183.98 72.5572 183.98ZM81.4574 187.364C81.4616 188.348 82.0795 189.179 83.2344 189.179C84.3764 189.179 85.0028 188.348 85.0028 187.364V186.903C85.0028 185.915 84.3935 185.088 83.2344 185.088C82.0966 185.088 81.4616 185.919 81.4574 186.903V187.364ZM77.0682 182.369C77.0682 183.354 77.6903 184.185 78.8452 184.185C79.983 184.185 80.6136 183.358 80.6094 182.369V181.909C80.6136 180.92 80 180.094 78.8452 180.094C77.7116 180.094 77.0682 180.92 77.0682 181.909V182.369ZM77.4261 189H78.4446L84.4446 180.273H83.4261L77.4261 189ZM82.4503 186.903C82.4545 186.413 82.6676 185.94 83.2344 185.94C83.8224 185.94 84.0057 186.413 84.0057 186.903V187.364C84.0057 187.854 83.8054 188.327 83.2344 188.327C82.6548 188.327 82.4545 187.849 82.4503 187.364V186.903ZM78.0653 181.909C78.0653 181.423 78.2784 180.946 78.8452 180.946C79.4332 180.946 79.6165 181.419 79.6165 181.909V182.369C79.6165 182.859 79.4162 183.332 78.8452 183.332C78.2656 183.332 78.0653 182.859 78.0653 182.369V181.909Z" fill="#7A7B7C"/>
<path opacity="0.5" d="M49.4253 149.119C51.2065 149.119 52.5148 148.054 52.5105 146.605C52.5148 145.501 51.8457 144.709 50.6867 144.53V144.462C51.5986 144.227 52.1909 143.511 52.1867 142.531C52.1909 141.249 51.1384 140.153 49.4594 140.153C47.8571 140.153 46.5702 141.121 46.5276 142.54H47.8017C47.8315 141.739 48.5858 141.253 49.4423 141.253C50.333 141.253 50.9168 141.794 50.9125 142.599C50.9168 143.443 50.2392 143.997 49.2719 143.997H48.5347V145.071H49.2719C50.4821 145.071 51.181 145.685 51.181 146.562C51.181 147.411 50.4438 147.986 49.4168 147.986C48.4707 147.986 47.7335 147.5 47.6824 146.724H46.3443C46.3997 148.148 47.6611 149.119 49.4253 149.119ZM56.8713 149.145C58.8869 149.145 60.0673 147.5 60.0673 144.641C60.0673 141.803 58.8698 140.153 56.8713 140.153C54.8684 140.153 53.6752 141.798 53.671 144.641C53.671 147.496 54.8514 149.141 56.8713 149.145ZM56.8713 148.007C55.6909 148.007 54.9792 146.822 54.9792 144.641C54.9835 142.467 55.6951 141.27 56.8713 141.27C58.0431 141.27 58.7591 142.467 58.7591 144.641C58.7591 146.822 58.0474 148.007 56.8713 148.007ZM67.2164 149.145C69.232 149.145 70.4124 147.5 70.4124 144.641C70.4124 141.803 69.2149 140.153 67.2164 140.153C65.2135 140.153 64.0203 141.798 64.0161 144.641C64.0161 147.496 65.1965 149.141 67.2164 149.145ZM67.2164 148.007C66.036 148.007 65.3243 146.822 65.3243 144.641C65.3286 142.467 66.0402 141.27 67.2164 141.27C68.3882 141.27 69.1041 142.467 69.1041 144.641C69.1041 146.822 68.3925 148.007 67.2164 148.007ZM74.6741 149.145C76.6897 149.145 77.8701 147.5 77.8701 144.641C77.8701 141.803 76.6726 140.153 74.6741 140.153C72.6712 140.153 71.478 141.798 71.4738 144.641C71.4738 147.496 72.6542 149.141 74.6741 149.145ZM74.6741 148.007C73.4937 148.007 72.782 146.822 72.782 144.641C72.7863 142.467 73.4979 141.27 74.6741 141.27C75.8459 141.27 76.5618 142.467 76.5618 144.641C76.5618 146.822 75.8502 148.007 74.6741 148.007ZM82.1317 149.145C84.1474 149.145 85.3278 147.5 85.3278 144.641C85.3278 141.803 84.1303 140.153 82.1317 140.153C80.1289 140.153 78.9357 141.798 78.9315 144.641C78.9315 147.496 80.1119 149.141 82.1317 149.145ZM82.1317 148.007C80.9513 148.007 80.2397 146.822 80.2397 144.641C80.244 142.467 80.9556 141.27 82.1317 141.27C83.3036 141.27 84.0195 142.467 84.0195 144.641C84.0195 146.822 83.3079 148.007 82.1317 148.007Z" fill="#7A7B7C"/>
<path opacity="0.5" d="M49.5393 129.119C51.3631 129.136 52.5734 127.824 52.5691 126.149C52.5734 124.479 51.3589 123.281 49.8461 123.281C48.9256 123.281 48.1288 123.724 47.6813 124.462H47.6174C47.6217 122.459 48.3717 121.287 49.6501 121.287C50.4896 121.287 51.018 121.794 51.197 122.54H52.4967C52.2964 121.138 51.2097 120.132 49.6501 120.132C47.6217 120.132 46.356 121.875 46.356 124.93C46.356 128.143 47.9881 129.107 49.5393 129.119ZM49.535 128.011C48.5208 128.011 47.7793 127.159 47.7793 126.179C47.7836 125.203 48.5592 124.351 49.5648 124.351C50.562 124.351 51.295 125.156 51.2907 126.166C51.295 127.197 50.5322 128.011 49.535 128.011ZM56.8713 129.145C58.8869 129.145 60.0673 127.5 60.0673 124.641C60.0673 121.803 58.8698 120.153 56.8713 120.153C54.8684 120.153 53.6752 121.798 53.671 124.641C53.671 127.496 54.8514 129.141 56.8713 129.145ZM56.8713 128.007C55.6909 128.007 54.9792 126.822 54.9792 124.641C54.9835 122.467 55.6951 121.27 56.8713 121.27C58.0431 121.27 58.7591 122.467 58.7591 124.641C58.7591 126.822 58.0474 128.007 56.8713 128.007ZM67.2164 129.145C69.232 129.145 70.4124 127.5 70.4124 124.641C70.4124 121.803 69.2149 120.153 67.2164 120.153C65.2135 120.153 64.0203 121.798 64.0161 124.641C64.0161 127.496 65.1965 129.141 67.2164 129.145ZM67.2164 128.007C66.036 128.007 65.3243 126.822 65.3243 124.641C65.3286 122.467 66.0402 121.27 67.2164 121.27C68.3882 121.27 69.1041 122.467 69.1041 124.641C69.1041 126.822 68.3925 128.007 67.2164 128.007ZM74.6741 129.145C76.6897 129.145 77.8701 127.5 77.8701 124.641C77.8701 121.803 76.6726 120.153 74.6741 120.153C72.6712 120.153 71.478 121.798 71.4738 124.641C71.4738 127.496 72.6542 129.141 74.6741 129.145ZM74.6741 128.007C73.4937 128.007 72.782 126.822 72.782 124.641C72.7863 122.467 73.4979 121.27 74.6741 121.27C75.8459 121.27 76.5618 122.467 76.5618 124.641C76.5618 126.822 75.8502 128.007 74.6741 128.007ZM82.1317 129.145C84.1474 129.145 85.3278 127.5 85.3278 124.641C85.3278 121.803 84.1303 120.153 82.1317 120.153C80.1289 120.153 78.9357 121.798 78.9315 124.641C78.9315 127.496 80.1119 129.141 82.1317 129.145ZM82.1317 128.007C80.9513 128.007 80.2397 126.822 80.2397 124.641C80.244 122.467 80.9556 121.27 82.1317 121.27C83.3036 121.27 84.0195 122.467 84.0195 124.641C84.0195 126.822 83.3079 128.007 82.1317 128.007Z" fill="#7A7B7C"/>
<path opacity="0.5" d="M49.3944 100.132C47.562 100.119 46.3646 101.432 46.3646 103.102C46.3646 104.773 47.5748 105.974 49.0876 105.974C50.0123 105.974 50.8049 105.523 51.2523 104.79H51.3205C51.3163 106.797 50.562 107.969 49.2836 107.969C48.4484 107.969 47.9114 107.457 47.741 106.712H46.4413C46.633 108.122 47.7239 109.119 49.2836 109.119C51.312 109.119 52.5776 107.376 52.5819 104.321C52.5776 101.112 50.9498 100.145 49.3944 100.132ZM49.3987 101.24C50.4086 101.24 51.1543 102.097 51.1543 103.072C51.1543 104.048 50.3702 104.901 49.3731 104.901C48.3717 104.901 47.643 104.099 47.643 103.085C47.643 102.054 48.3972 101.24 49.3987 101.24ZM56.8713 109.145C58.8869 109.145 60.0673 107.5 60.0673 104.641C60.0673 101.803 58.8698 100.153 56.8713 100.153C54.8684 100.153 53.6752 101.798 53.671 104.641C53.671 107.496 54.8514 109.141 56.8713 109.145ZM56.8713 108.007C55.6909 108.007 54.9792 106.822 54.9792 104.641C54.9835 102.467 55.6951 101.27 56.8713 101.27C58.0431 101.27 58.7591 102.467 58.7591 104.641C58.7591 106.822 58.0474 108.007 56.8713 108.007ZM67.2164 109.145C69.232 109.145 70.4124 107.5 70.4124 104.641C70.4124 101.803 69.2149 100.153 67.2164 100.153C65.2135 100.153 64.0203 101.798 64.0161 104.641C64.0161 107.496 65.1965 109.141 67.2164 109.145ZM67.2164 108.007C66.036 108.007 65.3243 106.822 65.3243 104.641C65.3286 102.467 66.0402 101.27 67.2164 101.27C68.3882 101.27 69.1041 102.467 69.1041 104.641C69.1041 106.822 68.3925 108.007 67.2164 108.007ZM74.6741 109.145C76.6897 109.145 77.8701 107.5 77.8701 104.641C77.8701 101.803 76.6726 100.153 74.6741 100.153C72.6712 100.153 71.478 101.798 71.4738 104.641C71.4738 107.496 72.6542 109.141 74.6741 109.145ZM74.6741 108.007C73.4937 108.007 72.782 106.822 72.782 104.641C72.7863 102.467 73.4979 101.27 74.6741 101.27C75.8459 101.27 76.5618 102.467 76.5618 104.641C76.5618 106.822 75.8502 108.007 74.6741 108.007ZM82.1317 109.145C84.1474 109.145 85.3278 107.5 85.3278 104.641C85.3278 101.803 84.1303 100.153 82.1317 100.153C80.1289 100.153 78.9357 101.798 78.9315 104.641C78.9315 107.496 80.1119 109.141 82.1317 109.145ZM82.1317 108.007C80.9513 108.007 80.2397 106.822 80.2397 104.641C80.244 102.467 80.9556 101.27 82.1317 101.27C83.3036 101.27 84.0195 102.467 84.0195 104.641C84.0195 106.822 83.3079 108.007 82.1317 108.007Z" fill="#7A7B7C"/>
<path opacity="0.5" d="M44.6895 80.2727H43.4069L41.2293 81.696V82.9574L43.3174 81.5938H43.3685V89H44.6895V80.2727ZM46.7619 89H52.5063V87.8707H48.5773V87.8068L50.3117 85.9915C51.9097 84.3764 52.3656 83.6051 52.3656 82.6293C52.3656 81.2273 51.2236 80.1534 49.5787 80.1534C47.9466 80.1534 46.7534 81.2102 46.7534 82.804H48.0105C48.0063 81.8665 48.6114 81.2528 49.5531 81.2528C50.4395 81.2528 51.1128 81.7983 51.1128 82.6676C51.1128 83.4389 50.6526 83.9929 49.7151 84.9858L46.7619 88.0455V89ZM56.8713 89.1449C58.8869 89.1449 60.0673 87.5 60.0673 84.6406C60.0673 81.8026 58.8698 80.1534 56.8713 80.1534C54.8684 80.1534 53.6752 81.7983 53.671 84.6406C53.671 87.4957 54.8514 89.1406 56.8713 89.1449ZM56.8713 88.0071C55.6909 88.0071 54.9792 86.8224 54.9792 84.6406C54.9835 82.4673 55.6951 81.2699 56.8713 81.2699C58.0431 81.2699 58.7591 82.4673 58.7591 84.6406C58.7591 86.8224 58.0474 88.0071 56.8713 88.0071ZM67.2164 89.1449C69.232 89.1449 70.4124 87.5 70.4124 84.6406C70.4124 81.8026 69.2149 80.1534 67.2164 80.1534C65.2135 80.1534 64.0203 81.7983 64.0161 84.6406C64.0161 87.4957 65.1965 89.1406 67.2164 89.1449ZM67.2164 88.0071C66.036 88.0071 65.3243 86.8224 65.3243 84.6406C65.3286 82.4673 66.0402 81.2699 67.2164 81.2699C68.3882 81.2699 69.1041 82.4673 69.1041 84.6406C69.1041 86.8224 68.3925 88.0071 67.2164 88.0071ZM74.6741 89.1449C76.6897 89.1449 77.8701 87.5 77.8701 84.6406C77.8701 81.8026 76.6726 80.1534 74.6741 80.1534C72.6712 80.1534 71.478 81.7983 71.4738 84.6406C71.4738 87.4957 72.6542 89.1406 74.6741 89.1449ZM74.6741 88.0071C73.4937 88.0071 72.782 86.8224 72.782 84.6406C72.7863 82.4673 73.4979 81.2699 74.6741 81.2699C75.8459 81.2699 76.5618 82.4673 76.5618 84.6406C76.5618 86.8224 75.8502 88.0071 74.6741 88.0071ZM82.1317 89.1449C84.1474 89.1449 85.3278 87.5 85.3278 84.6406C85.3278 81.8026 84.1303 80.1534 82.1317 80.1534C80.1289 80.1534 78.9357 81.7983 78.9315 84.6406C78.9315 87.4957 80.1119 89.1406 82.1317 89.1449ZM82.1317 88.0071C80.9513 88.0071 80.2397 86.8224 80.2397 84.6406C80.244 82.4673 80.9556 81.2699 82.1317 81.2699C83.3036 81.2699 84.0195 82.4673 84.0195 84.6406C84.0195 86.8224 83.3079 88.0071 82.1317 88.0071Z" fill="#7A7B7C"/>
<path opacity="0.5" d="M44.6075 60.2727H43.3248L41.1473 61.696V62.9574L43.2353 61.5938H43.2865V69H44.6075V60.2727ZM49.5606 69.1193C51.3163 69.1193 52.5691 67.8793 52.5648 66.179C52.5691 64.4915 51.393 63.2642 49.8035 63.2642C49.1558 63.2642 48.5549 63.5114 48.214 63.8438H48.1629L48.4398 61.402H52.143V60.2727H47.3447L46.8546 64.6705L48.0606 64.8494C48.3887 64.5554 48.9768 64.3551 49.5052 64.3551C50.5407 64.3636 51.2907 65.1392 51.2907 66.2045C51.2907 67.2528 50.562 68.0114 49.5606 68.0114C48.7168 68.0114 48.0478 67.4744 47.9796 66.7244H46.7012C46.7523 68.1136 47.9583 69.1193 49.5606 69.1193ZM56.8713 69.1449C58.8869 69.1449 60.0673 67.5 60.0673 64.6406C60.0673 61.8026 58.8698 60.1534 56.8713 60.1534C54.8684 60.1534 53.6752 61.7983 53.671 64.6406C53.671 67.4957 54.8514 69.1406 56.8713 69.1449ZM56.8713 68.0071C55.6909 68.0071 54.9792 66.8224 54.9792 64.6406C54.9835 62.4673 55.6951 61.2699 56.8713 61.2699C58.0431 61.2699 58.7591 62.4673 58.7591 64.6406C58.7591 66.8224 58.0474 68.0071 56.8713 68.0071ZM67.2164 69.1449C69.232 69.1449 70.4124 67.5 70.4124 64.6406C70.4124 61.8026 69.2149 60.1534 67.2164 60.1534C65.2135 60.1534 64.0203 61.7983 64.0161 64.6406C64.0161 67.4957 65.1965 69.1406 67.2164 69.1449ZM67.2164 68.0071C66.036 68.0071 65.3243 66.8224 65.3243 64.6406C65.3286 62.4673 66.0402 61.2699 67.2164 61.2699C68.3882 61.2699 69.1041 62.4673 69.1041 64.6406C69.1041 66.8224 68.3925 68.0071 67.2164 68.0071ZM74.6741 69.1449C76.6897 69.1449 77.8701 67.5 77.8701 64.6406C77.8701 61.8026 76.6726 60.1534 74.6741 60.1534C72.6712 60.1534 71.478 61.7983 71.4738 64.6406C71.4738 67.4957 72.6542 69.1406 74.6741 69.1449ZM74.6741 68.0071C73.4937 68.0071 72.782 66.8224 72.782 64.6406C72.7863 62.4673 73.4979 61.2699 74.6741 61.2699C75.8459 61.2699 76.5618 62.4673 76.5618 64.6406C76.5618 66.8224 75.8502 68.0071 74.6741 68.0071ZM82.1317 69.1449C84.1474 69.1449 85.3278 67.5 85.3278 64.6406C85.3278 61.8026 84.1303 60.1534 82.1317 60.1534C80.1289 60.1534 78.9357 61.7983 78.9315 64.6406C78.9315 67.4957 80.1119 69.1406 82.1317 69.1449ZM82.1317 68.0071C80.9513 68.0071 80.2397 66.8224 80.2397 64.6406C80.244 62.4673 80.9556 61.2699 82.1317 61.2699C83.3036 61.2699 84.0195 62.4673 84.0195 64.6406C84.0195 66.8224 83.3079 68.0071 82.1317 68.0071Z" fill="#7A7B7C"/>
<path opacity="0.5" d="M44.4669 40.2727H43.1842L41.0067 41.696V42.9574L43.0947 41.5938H43.1459V49H44.4669V40.2727ZM49.4881 49.1193C51.3035 49.1193 52.5862 48.0881 52.5947 46.6733C52.5862 45.5739 51.8148 44.6491 50.839 44.4744V44.4233C51.687 44.2188 52.2623 43.4219 52.2708 42.4801C52.2623 41.1463 51.0862 40.1534 49.4881 40.1534C47.8731 40.1534 46.697 41.1463 46.7055 42.4801C46.697 43.4176 47.2722 44.2188 48.1373 44.4233V44.4744C47.1444 44.6491 46.3731 45.5739 46.3816 46.6733C46.3731 48.0881 47.6558 49.1193 49.4881 49.1193ZM49.4881 48.0412C48.3972 48.0412 47.7069 47.4616 47.7154 46.5881C47.7069 45.6804 48.4569 45.0327 49.4881 45.0327C50.5023 45.0327 51.2523 45.6804 51.2609 46.5881C51.2523 47.4616 50.5663 48.0412 49.4881 48.0412ZM49.4881 43.9801C48.606 43.9801 47.9796 43.4219 47.9881 42.5909C47.9796 41.7727 48.5847 41.2315 49.4881 41.2315C50.3745 41.2315 50.9796 41.7727 50.9881 42.5909C50.9796 43.4219 50.3575 43.9801 49.4881 43.9801ZM56.8713 49.1449C58.8869 49.1449 60.0673 47.5 60.0673 44.6406C60.0673 41.8026 58.8698 40.1534 56.8713 40.1534C54.8684 40.1534 53.6752 41.7983 53.671 44.6406C53.671 47.4957 54.8514 49.1406 56.8713 49.1449ZM56.8713 48.0071C55.6909 48.0071 54.9792 46.8224 54.9792 44.6406C54.9835 42.4673 55.6951 41.2699 56.8713 41.2699C58.0431 41.2699 58.7591 42.4673 58.7591 44.6406C58.7591 46.8224 58.0474 48.0071 56.8713 48.0071ZM67.2164 49.1449C69.232 49.1449 70.4124 47.5 70.4124 44.6406C70.4124 41.8026 69.2149 40.1534 67.2164 40.1534C65.2135 40.1534 64.0203 41.7983 64.0161 44.6406C64.0161 47.4957 65.1965 49.1406 67.2164 49.1449ZM67.2164 48.0071C66.036 48.0071 65.3243 46.8224 65.3243 44.6406C65.3286 42.4673 66.0402 41.2699 67.2164 41.2699C68.3882 41.2699 69.1041 42.4673 69.1041 44.6406C69.1041 46.8224 68.3925 48.0071 67.2164 48.0071ZM74.6741 49.1449C76.6897 49.1449 77.8701 47.5 77.8701 44.6406C77.8701 41.8026 76.6726 40.1534 74.6741 40.1534C72.6712 40.1534 71.478 41.7983 71.4738 44.6406C71.4738 47.4957 72.6542 49.1406 74.6741 49.1449ZM74.6741 48.0071C73.4937 48.0071 72.782 46.8224 72.782 44.6406C72.7863 42.4673 73.4979 41.2699 74.6741 41.2699C75.8459 41.2699 76.5618 42.4673 76.5618 44.6406C76.5618 46.8224 75.8502 48.0071 74.6741 48.0071ZM82.1317 49.1449C84.1474 49.1449 85.3278 47.5 85.3278 44.6406C85.3278 41.8026 84.1303 40.1534 82.1317 40.1534C80.1289 40.1534 78.9357 41.7983 78.9315 44.6406C78.9315 47.4957 80.1119 49.1406 82.1317 49.1449ZM82.1317 48.0071C80.9513 48.0071 80.2397 46.8224 80.2397 44.6406C80.244 42.4673 80.9556 41.2699 82.1317 41.2699C83.3036 41.2699 84.0195 42.4673 84.0195 44.6406C84.0195 46.8224 83.3079 48.0071 82.1317 48.0071Z" fill="#7A7B7C"/>
<path d="M209.781 38.2727H203.048V47H204.361V39.3977H208.469V47H209.781V38.2727ZM214.225 47.1321C215.653 47.1321 216.663 46.429 216.952 45.3636L215.746 45.1463C215.516 45.7642 214.962 46.0795 214.238 46.0795C213.147 46.0795 212.414 45.3722 212.38 44.1108H217.033V43.6591C217.033 41.294 215.619 40.3693 214.136 40.3693C212.312 40.3693 211.11 41.7585 211.11 43.7699C211.11 45.8026 212.295 47.1321 214.225 47.1321ZM212.384 43.1562C212.435 42.2273 213.109 41.4219 214.144 41.4219C215.133 41.4219 215.78 42.1548 215.785 43.1562H212.384ZM218.159 49.4545H219.433V45.9815H219.51C219.74 46.3991 220.208 47.1278 221.402 47.1278C222.987 47.1278 224.137 45.858 224.137 43.7401C224.137 41.6179 222.97 40.3693 221.389 40.3693C220.174 40.3693 219.735 41.1108 219.51 41.5156H219.403V40.4545H218.159V49.4545ZM219.407 43.7273C219.407 42.3594 220.004 41.4517 221.116 41.4517C222.271 41.4517 222.85 42.4276 222.85 43.7273C222.85 45.0398 222.254 46.0412 221.116 46.0412C220.021 46.0412 219.407 45.1037 219.407 43.7273ZM228.098 47.1321C229.525 47.1321 230.535 46.429 230.825 45.3636L229.619 45.1463C229.389 45.7642 228.835 46.0795 228.11 46.0795C227.019 46.0795 226.286 45.3722 226.252 44.1108H230.906V43.6591C230.906 41.294 229.491 40.3693 228.008 40.3693C226.184 40.3693 224.982 41.7585 224.982 43.7699C224.982 45.8026 226.167 47.1321 228.098 47.1321ZM226.257 43.1562C226.308 42.2273 226.981 41.4219 228.017 41.4219C229.005 41.4219 229.653 42.1548 229.657 43.1562H226.257ZM232.884 40.4545H231.487L233.498 43.7273L231.461 47H232.859L234.329 44.554L235.803 47H237.197L235.139 43.7273L237.18 40.4545H235.786L234.329 43.0028L232.884 40.4545ZM240.687 47.1321C242.532 47.1321 243.738 45.7812 243.738 43.7571C243.738 41.7202 242.532 40.3693 240.687 40.3693C238.842 40.3693 237.636 41.7202 237.636 43.7571C237.636 45.7812 238.842 47.1321 240.687 47.1321ZM240.692 46.0625C239.486 46.0625 238.923 45.0099 238.923 43.7528C238.923 42.5 239.486 41.4347 240.692 41.4347C241.889 41.4347 242.451 42.5 242.451 43.7528C242.451 45.0099 241.889 46.0625 240.692 46.0625ZM244.233 48.8878H245.494V47H250.058V48.8878H251.303V45.8963H250.297V40.4545H245.848L245.644 42.8963C245.507 44.5455 245.307 45.4062 244.766 45.8963H244.233V48.8878ZM246.129 45.8963C246.564 45.2869 246.726 44.2727 246.854 42.8963L246.99 41.5455H249.053V45.8963H246.129ZM253.508 42.7045V40.4545H252.26V47H255.119C256.721 47 257.616 46.071 257.616 44.8395C257.616 43.5824 256.721 42.7045 255.119 42.7045H253.508ZM258.545 47H259.819V40.4545H258.545V47ZM253.508 43.804H255.119C255.852 43.804 256.376 44.2472 256.376 44.8778C256.376 45.4744 255.852 45.9006 255.119 45.9006H253.508V43.804Z" fill="black"/>
<circle cx="187" cy="43" r="7" fill="#FBB23E"/>
<path d="M360.54 42.6364C360.54 39.8452 358.869 38.1534 356.611 38.1534C354.344 38.1534 352.678 39.8452 352.678 42.6364C352.678 45.4233 354.344 47.1193 356.611 47.1193C358.869 47.1193 360.54 45.4276 360.54 42.6364ZM359.236 42.6364C359.236 44.7628 358.111 45.9176 356.611 45.9176C355.107 45.9176 353.986 44.7628 353.986 42.6364C353.986 40.5099 355.107 39.3551 356.611 39.3551C358.111 39.3551 359.236 40.5099 359.236 42.6364ZM361.424 41.554H363.568V47H364.812V41.554H366.947V40.4545H361.424V41.554ZM368.006 47H369.28V44.3835H370.107L372.08 47H373.661L371.096 43.6378L373.631 40.4545H372.055L369.894 43.1989H369.28V40.4545H368.006V47ZM374.362 49.4545H375.637V45.9815H375.713C375.943 46.3991 376.412 47.1278 377.605 47.1278C379.191 47.1278 380.341 45.858 380.341 43.7401C380.341 41.6179 379.174 40.3693 377.593 40.3693C376.378 40.3693 375.939 41.1108 375.713 41.5156H375.607V40.4545H374.362V49.4545ZM375.611 43.7273C375.611 42.3594 376.208 41.4517 377.32 41.4517C378.475 41.4517 379.054 42.4276 379.054 43.7273C379.054 45.0398 378.458 46.0412 377.32 46.0412C376.225 46.0412 375.611 45.1037 375.611 43.7273ZM382.729 42.7045V40.4545H381.48V47H384.34C385.942 47 386.837 46.071 386.837 44.8395C386.837 43.5824 385.942 42.7045 384.34 42.7045H382.729ZM387.766 47H389.04V40.4545H387.766V47ZM382.729 43.804H384.34C385.073 43.804 385.597 44.2472 385.597 44.8778C385.597 45.4744 385.073 45.9006 384.34 45.9006H382.729V43.804ZM390.095 41.554H392.238V47H393.483V41.554H395.618V40.4545H390.095V41.554ZM399.129 47.1321C400.975 47.1321 402.18 45.7812 402.18 43.7571C402.18 41.7202 400.975 40.3693 399.129 40.3693C397.284 40.3693 396.078 41.7202 396.078 43.7571C396.078 45.7812 397.284 47.1321 399.129 47.1321ZM399.134 46.0625C397.928 46.0625 397.365 45.0099 397.365 43.7528C397.365 42.5 397.928 41.4347 399.134 41.4347C400.331 41.4347 400.894 42.5 400.894 43.7528C400.894 45.0099 400.331 46.0625 399.134 46.0625Z" fill="black"/>
<circle cx="337" cy="43" r="7" fill="#FFC476"/>
<path d="M504.04 42.6364C504.04 39.8452 502.369 38.1534 500.111 38.1534C497.844 38.1534 496.178 39.8452 496.178 42.6364C496.178 45.4233 497.844 47.1193 500.111 47.1193C502.369 47.1193 504.04 45.4276 504.04 42.6364ZM502.736 42.6364C502.736 44.7628 501.611 45.9176 500.111 45.9176C498.607 45.9176 497.486 44.7628 497.486 42.6364C497.486 40.5099 498.607 39.3551 500.111 39.3551C501.611 39.3551 502.736 40.5099 502.736 42.6364ZM504.924 41.554H507.068V47H508.312V41.554H510.447V40.4545H504.924V41.554ZM511.506 47H512.746V41.554H515.597V47H516.846V40.4545H511.506V47ZM518.261 49.4545H519.535V45.9815H519.612C519.842 46.3991 520.311 47.1278 521.504 47.1278C523.089 47.1278 524.24 45.858 524.24 43.7401C524.24 41.6179 523.072 40.3693 521.491 40.3693C520.277 40.3693 519.838 41.1108 519.612 41.5156H519.505V40.4545H518.261V49.4545ZM519.509 43.7273C519.509 42.3594 520.106 41.4517 521.218 41.4517C522.373 41.4517 522.953 42.4276 522.953 43.7273C522.953 45.0398 522.356 46.0412 521.218 46.0412C520.123 46.0412 519.509 45.1037 519.509 43.7273ZM527.284 47.1449C528.366 47.1449 528.975 46.5952 529.218 46.1051H529.269V47H530.514V42.6534C530.514 40.7486 529.014 40.3693 527.974 40.3693C526.789 40.3693 525.698 40.8466 525.272 42.0398L526.47 42.3125C526.657 41.848 527.134 41.4006 527.991 41.4006C528.813 41.4006 529.235 41.831 529.235 42.5724V42.6023C529.235 43.0668 528.758 43.0582 527.582 43.1946C526.342 43.3395 525.072 43.6634 525.072 45.1506C525.072 46.4375 526.039 47.1449 527.284 47.1449ZM527.561 46.1222C526.84 46.1222 526.32 45.7983 526.32 45.1676C526.32 44.4858 526.926 44.2429 527.663 44.1449C528.076 44.0895 529.056 43.9787 529.24 43.7955V44.6392C529.24 45.4148 528.622 46.1222 527.561 46.1222ZM531.922 47H535.05C536.482 47 537.322 46.2756 537.322 45.2358C537.322 44.2642 536.576 43.6676 535.702 43.5653C536.508 43.4119 537.04 42.9688 537.04 42.2017C537.04 41.1278 536.111 40.4545 534.637 40.4545H531.922V47ZM533.12 45.9347V44.1151H535.05C535.681 44.1151 536.06 44.4858 536.06 45.0952C536.06 45.6151 535.681 45.9347 535.05 45.9347H533.12ZM533.12 43.1818V41.5327H534.637C535.361 41.5327 535.8 41.8352 535.8 42.3381C535.8 42.8622 535.366 43.1818 534.65 43.1818H533.12ZM537.915 47H538.324C539.752 47 540.276 45.9432 540.378 43.7784L540.481 41.554H542.62V47H543.868V40.4545H539.3L539.185 43.3523C539.104 45.3722 538.874 45.8963 538.145 45.8963H537.911L537.915 47ZM548.1 47.1321C549.528 47.1321 550.538 46.429 550.827 45.3636L549.622 45.1463C549.391 45.7642 548.837 46.0795 548.113 46.0795C547.022 46.0795 546.289 45.3722 546.255 44.1108H550.908V43.6591C550.908 41.294 549.494 40.3693 548.011 40.3693C546.187 40.3693 544.985 41.7585 544.985 43.7699C544.985 45.8026 546.17 47.1321 548.1 47.1321ZM546.259 43.1562C546.31 42.2273 546.984 41.4219 548.019 41.4219C549.008 41.4219 549.656 42.1548 549.66 43.1562H546.259ZM553.282 40.4545H552.034V47H553.282V44.2812H556.116V47H557.36V40.4545H556.116V43.1776H553.282V40.4545ZM561.534 47.1321C563.379 47.1321 564.585 45.7812 564.585 43.7571C564.585 41.7202 563.379 40.3693 561.534 40.3693C559.689 40.3693 558.483 41.7202 558.483 43.7571C558.483 45.7812 559.689 47.1321 561.534 47.1321ZM561.538 46.0625C560.332 46.0625 559.769 45.0099 559.769 43.7528C559.769 42.5 560.332 41.4347 561.538 41.4347C562.735 41.4347 563.298 42.5 563.298 43.7528C563.298 45.0099 562.735 46.0625 561.538 46.0625Z" fill="black"/>
<path d="M473 43H488" stroke="black" stroke-linecap="round"/>
<circle cx="480.5" cy="43" r="4" fill="white" stroke="black"/>
</svg>
