<svg width="640" height="361" viewBox="0 0 640 361" fill="none" xmlns="http://www.w3.org/2000/svg">
<rect opacity="0.5" x="1" y="1" width="638" height="359" rx="25" stroke="#D5D4D6" stroke-width="1.7" stroke-miterlimit="10" stroke-linecap="round"/>
<path d="M1 25C1 11.1929 12.1929 0 26 0H614C627.807 0 639 11.1929 639 25V110H1V25Z" fill="#F3F5F7"/>
<path d="M80.5265 25.1396C99.0503 25.1396 114.148 38.2783 114.148 56.9021C114.148 78.077 99.0503 90.7054 80.5265 90.7054C55.7859 90.7054 46.9046 75.5258 46.9046 56.9021C47.0315 34.5791 62.0028 25.1396 80.5265 25.1396ZM80.5265 80.6282C93.4678 80.6282 103.872 71.8266 103.872 57.1572C103.872 44.1461 93.4678 35.0893 80.5265 35.0893C67.5853 35.0893 57.1815 41.5949 57.1815 57.1572C57.3084 70.1683 63.3984 80.6282 80.5265 80.6282Z" fill="#D5D4D6"/>
<path d="M78.1137 25.1396L77.4794 35.2169C65.1725 35.5996 55.2762 42.1051 55.2762 57.1572C55.2762 70.1683 61.4931 80.6282 78.6213 80.6282C91.5625 80.6282 101.966 71.8266 101.966 57.1572C101.966 57.0296 101.966 57.0296 101.966 57.0296H112.243C112.243 78.077 97.145 90.7054 78.6213 90.7054C53.8806 90.7054 44.9993 75.5258 44.9993 56.9021C44.9993 34.7066 59.8437 25.3948 78.1137 25.1396Z" fill="white"/>
<path d="M79.0522 25.1396L78.4179 35.2169C66.111 35.5996 56.2147 42.1051 56.2147 57.1572C56.2147 70.1683 62.4316 80.6282 79.5597 80.6282C92.501 80.6282 102.905 71.8266 102.905 57.1572C102.905 46.3574 92.2766 34.2971 83.886 35.2169C83.886 32.2077 83.302 26.908 84.8183 26.4236C91.4686 24.299 109.421 30.5714 113.182 57.0296C113.182 78.077 98.0835 90.7054 79.5597 90.7054C54.8191 90.7054 45.9378 75.5258 45.9378 56.9021C45.9378 34.7066 60.6553 25.3948 79.0522 25.1396Z" fill="#D18BA7"/>
<path d="M128.388 52.8915H129.65V50.7821H135.509V52.8787H136.77V49.6656H135.782V42.0548H130.4L130.195 45.7409C130.063 48.1699 129.547 49.1713 128.963 49.6656H128.388V52.8915ZM130.515 49.6656C131.013 48.8688 131.35 47.5861 131.456 45.7409L131.593 43.1884H134.52V49.6656H130.515ZM140.579 50.9142C142.424 50.9142 143.63 49.5634 143.63 47.5392C143.63 45.5023 142.424 44.1514 140.579 44.1514C138.734 44.1514 137.528 45.5023 137.528 47.5392C137.528 49.5634 138.734 50.9142 140.579 50.9142ZM140.583 49.8446C139.377 49.8446 138.815 48.792 138.815 47.5349C138.815 46.2821 139.377 45.2168 140.583 45.2168C141.781 45.2168 142.343 46.2821 142.343 47.5349C142.343 48.792 141.781 49.8446 140.583 49.8446ZM147.521 50.9142C149.068 50.9142 150.07 49.9852 150.21 48.7111H148.97C148.808 49.4185 148.258 49.8361 147.53 49.8361C146.452 49.8361 145.757 48.9369 145.757 47.5094C145.757 46.1074 146.464 45.2253 147.53 45.2253C148.339 45.2253 148.834 45.7366 148.97 46.3503H150.21C150.074 45.0293 148.996 44.1514 147.508 44.1514C145.663 44.1514 144.47 45.5406 144.47 47.5392C144.47 49.5122 145.621 50.9142 147.521 50.9142ZM150.789 45.3361H152.932V50.7821H154.177V45.3361H156.312V44.2366H150.789V45.3361ZM158.971 50.927C160.053 50.927 160.663 50.3773 160.906 49.8872H160.957V50.7821H162.201V46.4355C162.201 44.5307 160.701 44.1514 159.661 44.1514C158.477 44.1514 157.386 44.6287 156.96 45.8219L158.157 46.0946C158.345 45.6301 158.822 45.1827 159.678 45.1827C160.501 45.1827 160.923 45.6131 160.923 46.3545V46.3844C160.923 46.8489 160.445 46.8403 159.269 46.9767C158.029 47.1216 156.759 47.4455 156.759 48.9327C156.759 50.2196 157.727 50.927 158.971 50.927ZM159.248 49.9043C158.528 49.9043 158.008 49.5804 158.008 48.9497C158.008 48.2679 158.613 48.025 159.35 47.927C159.764 47.8716 160.744 47.7608 160.927 47.5776V48.4213C160.927 49.1969 160.309 49.9043 159.248 49.9043ZM163.61 50.7821H166.738C168.17 50.7821 169.009 50.0577 169.009 49.0179C169.009 48.0463 168.263 47.4497 167.39 47.3474C168.195 47.194 168.728 46.7509 168.728 45.9838C168.728 44.9099 167.799 44.2366 166.324 44.2366H163.61V50.7821ZM164.807 49.7168V47.8972H166.738C167.368 47.8972 167.748 48.2679 167.748 48.8773C167.748 49.3972 167.368 49.7168 166.738 49.7168H164.807ZM164.807 46.9639V45.3148H166.324C167.049 45.3148 167.488 45.6173 167.488 46.1202C167.488 46.6443 167.053 46.9639 166.337 46.9639H164.807ZM169.603 50.7821H170.012C171.439 50.7821 171.964 49.7253 172.066 47.5605L172.168 45.3361H174.307V50.7821H175.556V44.2366H170.988L170.873 47.1344C170.792 49.1543 170.562 49.6784 169.833 49.6784H169.598L169.603 50.7821ZM179.788 50.9142C181.215 50.9142 182.225 50.2111 182.515 49.1457L181.309 48.9284C181.079 49.5463 180.525 49.8616 179.8 49.8616C178.71 49.8616 177.977 49.1543 177.943 47.8929H182.596V47.4412C182.596 45.0761 181.181 44.1514 179.698 44.1514C177.874 44.1514 176.673 45.5406 176.673 47.552C176.673 49.5847 177.857 50.9142 179.788 50.9142ZM177.947 46.9384C177.998 46.0094 178.671 45.204 179.707 45.204C180.695 45.204 181.343 45.9369 181.347 46.9384H177.947ZM184.97 44.2366H183.721V50.7821H184.97V48.0634H187.804V50.7821H189.048V44.2366H187.804V46.9597H184.97V44.2366ZM193.221 50.9142C195.066 50.9142 196.272 49.5634 196.272 47.5392C196.272 45.5023 195.066 44.1514 193.221 44.1514C191.376 44.1514 190.17 45.5023 190.17 47.5392C190.17 49.5634 191.376 50.9142 193.221 50.9142ZM193.225 49.8446C192.019 49.8446 191.457 48.792 191.457 47.5349C191.457 46.2821 192.019 45.2168 193.225 45.2168C194.423 45.2168 194.985 46.2821 194.985 47.5349C194.985 48.792 194.423 49.8446 193.225 49.8446Z" fill="black"/>
<path opacity="0.5" d="M129.223 69.2273H130.6L134.397 61.6676V60.5H128.627V61.6293H133.033V61.6932L129.223 69.2273ZM138.45 69.3466C140.273 69.3637 141.484 68.0512 141.479 66.3764C141.484 64.706 140.269 63.5085 138.756 63.5085C137.836 63.5085 137.039 63.9517 136.592 64.6889H136.528C136.532 62.6861 137.282 61.5142 138.56 61.5142C139.4 61.5142 139.928 62.0213 140.107 62.7671H141.407C141.207 61.3651 140.12 60.3594 138.56 60.3594C136.532 60.3594 135.266 62.1023 135.266 65.1577C135.266 68.3708 136.898 69.3338 138.45 69.3466ZM138.445 68.2387C137.431 68.2387 136.69 67.3864 136.69 66.4063C136.694 65.4304 137.469 64.5781 138.475 64.5781C139.472 64.5781 140.205 65.3835 140.201 66.3935C140.205 67.4247 139.442 68.2387 138.445 68.2387ZM145.692 69.3466C147.507 69.3466 148.79 68.3154 148.799 66.9006C148.79 65.8012 148.019 64.8764 147.043 64.7017V64.6506C147.891 64.446 148.466 63.6492 148.475 62.7074C148.466 61.3736 147.29 60.3807 145.692 60.3807C144.077 60.3807 142.901 61.3736 142.909 62.7074C142.901 63.6449 143.476 64.446 144.341 64.6506V64.7017C143.348 64.8764 142.577 65.8012 142.585 66.9006C142.577 68.3154 143.86 69.3466 145.692 69.3466ZM145.692 68.2685C144.601 68.2685 143.911 67.6889 143.919 66.8154C143.911 65.9077 144.661 65.26 145.692 65.26C146.706 65.26 147.456 65.9077 147.465 66.8154C147.456 67.6889 146.77 68.2685 145.692 68.2685ZM145.692 64.2074C144.81 64.2074 144.184 63.6492 144.192 62.8182C144.184 62 144.789 61.4588 145.692 61.4588C146.578 61.4588 147.184 62 147.192 62.8182C147.184 63.6492 146.561 64.2074 145.692 64.2074ZM153.075 69.3722C155.091 69.3722 156.271 67.7273 156.271 64.8679C156.271 62.0299 155.074 60.3807 153.075 60.3807C151.072 60.3807 149.879 62.0256 149.875 64.8679C149.875 67.723 151.055 69.3679 153.075 69.3722ZM153.075 68.2344C151.895 68.2344 151.183 67.0497 151.183 64.8679C151.187 62.6946 151.899 61.4972 153.075 61.4972C154.247 61.4972 154.963 62.6946 154.963 64.8679C154.963 67.0497 154.251 68.2344 153.075 68.2344Z" fill="#7A7B7C"/>
<path opacity="0.5" d="M168.637 69.2273H169.877V63.7813H172.728V69.2273H173.976V62.6818H168.637V69.2273ZM176.64 67.4418V62.6818H175.391V69.2273H176.776L179.648 64.4631V69.2273H180.897V62.6818H179.525L176.64 67.4418ZM185.079 69.3594C186.626 69.3594 187.627 68.4304 187.768 67.1563H186.528C186.366 67.8637 185.816 68.2813 185.087 68.2813C184.009 68.2813 183.315 67.3821 183.315 65.9546C183.315 64.5526 184.022 63.6705 185.087 63.6705C185.897 63.6705 186.391 64.1818 186.528 64.7955H187.768C187.631 63.4745 186.553 62.5966 185.066 62.5966C183.221 62.5966 182.028 63.9858 182.028 65.9844C182.028 67.9574 183.178 69.3594 185.079 69.3594ZM191.663 69.3594C193.091 69.3594 194.1 68.6563 194.39 67.5909L193.184 67.3736C192.954 67.9915 192.4 68.3068 191.676 68.3068C190.585 68.3068 189.852 67.5995 189.818 66.3381H194.471V65.8864C194.471 63.5213 193.056 62.5966 191.573 62.5966C189.75 62.5966 188.548 63.9858 188.548 65.9972C188.548 68.0299 189.733 69.3594 191.663 69.3594ZM189.822 65.3835C189.873 64.4546 190.546 63.6492 191.582 63.6492C192.571 63.6492 193.218 64.3821 193.223 65.3835H189.822ZM199.27 67.6506L197.199 62.6818H195.597V69.2273H196.845V64.4674L198.797 69.2273H199.743L201.729 64.4844V69.2273H202.969V62.6818H201.383L199.27 67.6506Z" fill="#7A7B7C"/>
<path d="M70.6564 51.2349C68.3936 49.791 66.0779 52.6387 66.9311 54.9505C68.3956 58.9185 75.3573 54.5138 70.6564 51.2349Z" stroke="#574E56" stroke-width="1.7"/>
<path d="M67.5398 58.7128C67.2221 58.3673 66.6843 58.3447 66.3388 58.6624C65.9932 58.9801 65.9706 59.5179 66.2883 59.8634L67.5398 58.7128ZM71.4031 60.1195L70.762 59.5614L71.4031 60.1195ZM66.2883 59.8634C66.8032 60.4235 67.6494 61.1922 68.6462 61.5604C69.1578 61.7494 69.7459 61.8462 70.359 61.7182C70.982 61.5882 71.5528 61.2421 72.0442 60.6776L70.762 59.5614C70.4805 59.8847 70.2245 60.0097 70.0116 60.0541C69.7889 60.1006 69.5321 60.0753 69.2352 59.9657C68.615 59.7366 67.9895 59.2019 67.5398 58.7128L66.2883 59.8634ZM72.0442 60.6776C72.6188 60.0175 72.957 58.9807 73.1243 57.8257C73.2962 56.6388 73.3051 55.2031 73.1211 53.6305L71.4326 53.828C71.603 55.2841 71.5886 56.5685 71.4418 57.582C71.2904 58.6275 71.0145 59.2714 70.762 59.5614L72.0442 60.6776Z" fill="#574E56"/>
<path d="M79.4904 51.2349C77.2275 49.791 74.9119 52.6387 75.7651 54.9505C77.2296 58.9185 84.1913 54.5138 79.4904 51.2349Z" stroke="#574E56" stroke-width="1.7"/>
<path d="M76.3738 58.7128C76.0561 58.3673 75.5183 58.3447 75.1728 58.6624C74.8272 58.9801 74.8046 59.5179 75.1223 59.8634L76.3738 58.7128ZM80.2371 60.1195L79.596 59.5614L80.2371 60.1195ZM75.1223 59.8634C75.6372 60.4235 76.4834 61.1922 77.4802 61.5604C77.9918 61.7494 78.5798 61.8462 79.193 61.7182C79.816 61.5882 80.3868 61.2421 80.8782 60.6776L79.596 59.5614C79.3145 59.8847 79.0585 60.0097 78.8456 60.0541C78.6228 60.1006 78.3661 60.0753 78.0692 59.9657C77.449 59.7366 76.8235 59.2019 76.3738 58.7128L75.1223 59.8634ZM80.8782 60.6776C81.4528 60.0175 81.791 58.9807 81.9583 57.8257C82.1302 56.6388 82.1391 55.2031 81.9551 53.6305L80.2666 53.828C80.437 55.2841 80.4226 56.5685 80.2758 57.582C80.1244 58.6275 79.8485 59.2714 79.596 59.5614L80.8782 60.6776Z" fill="#574E56"/>
<path d="M87.3682 60.6951C88.0398 60.2224 91.8018 55.2429 93.9288 52.0071" stroke="#574E56" stroke-width="1.7" stroke-linecap="round"/>
<ellipse cx="88.228" cy="52.9896" rx="1.27288" ry="1.27999" fill="#574E56"/>
<path d="M95.0194 59.4149C95.0194 60.1218 94.4495 60.6949 93.7465 60.6949C93.0435 60.6949 92.4736 60.1218 92.4736 59.4149C92.4736 58.708 93.0435 58.1349 93.7465 58.1349C94.4495 58.1349 95.0194 58.708 95.0194 59.4149Z" fill="#574E56"/>
<path d="M281.705 91.1283C299.675 91.1283 314.321 78.3824 314.321 60.3155C314.321 39.7736 299.675 27.5227 281.705 27.5227C257.704 27.5227 249.088 42.2485 249.088 60.3155C249.211 81.9711 263.735 91.1283 281.705 91.1283ZM281.705 37.2987C294.259 37.2987 304.352 45.8372 304.352 60.068C304.352 72.6901 294.259 81.4761 281.705 81.4761C269.15 81.4761 259.057 75.165 259.057 60.068C259.181 47.4459 265.088 37.2987 281.705 37.2987Z" fill="white"/>
<path d="M336.034 42.0548H329.301V50.7821H330.614V43.1798H334.722V50.7821H336.034V42.0548ZM337.657 53.2367H338.931V49.7636H339.008C339.238 50.1813 339.707 50.9099 340.9 50.9099C342.485 50.9099 343.636 49.6401 343.636 47.5222C343.636 45.4 342.468 44.1514 340.887 44.1514C339.673 44.1514 339.234 44.8929 339.008 45.2977H338.901V44.2366H337.657V53.2367ZM338.906 47.5094C338.906 46.1415 339.502 45.2338 340.614 45.2338C341.769 45.2338 342.349 46.2097 342.349 47.5094C342.349 48.8219 341.752 49.8233 340.614 49.8233C339.519 49.8233 338.906 48.8858 338.906 47.5094ZM347.532 50.9142C349.377 50.9142 350.583 49.5634 350.583 47.5392C350.583 45.5023 349.377 44.1514 347.532 44.1514C345.687 44.1514 344.481 45.5023 344.481 47.5392C344.481 49.5634 345.687 50.9142 347.532 50.9142ZM347.536 49.8446C346.33 49.8446 345.768 48.792 345.768 47.5349C345.768 46.2821 346.33 45.2168 347.536 45.2168C348.734 45.2168 349.296 46.2821 349.296 47.5349C349.296 48.792 348.734 49.8446 347.536 49.8446ZM356.971 44.2366H355.727V47.4966C355.296 47.6116 354.862 47.6798 354.363 47.6798C353.494 47.6798 352.957 47.2878 352.957 46.3631V44.2239H351.717V46.3631C351.717 47.9994 352.744 48.7793 354.363 48.7793C354.858 48.7793 355.309 48.7111 355.727 48.6045V50.7821H356.971V44.2366ZM359.626 48.9966V44.2366H358.378V50.7821H359.763L362.635 46.0179V50.7821H363.883V44.2366H362.511L359.626 48.9966ZM364.496 45.3361H366.64V50.7821H367.884V45.3361H370.019V44.2366H364.496V45.3361ZM372.678 50.927C373.761 50.927 374.37 50.3773 374.613 49.8872H374.664V50.7821H375.909V46.4355C375.909 44.5307 374.409 44.1514 373.369 44.1514C372.184 44.1514 371.093 44.6287 370.667 45.8219L371.865 46.0946C372.052 45.6301 372.529 45.1827 373.386 45.1827C374.208 45.1827 374.63 45.6131 374.63 46.3545V46.3844C374.63 46.8489 374.153 46.8403 372.977 46.9767C371.737 47.1216 370.467 47.4455 370.467 48.9327C370.467 50.2196 371.434 50.927 372.678 50.927ZM372.955 49.9043C372.235 49.9043 371.715 49.5804 371.715 48.9497C371.715 48.2679 372.32 48.025 373.058 47.927C373.471 47.8716 374.451 47.7608 374.634 47.5776V48.4213C374.634 49.1969 374.017 49.9043 372.955 49.9043ZM378.566 44.2366H377.317V50.7821H378.566V48.0634H381.4V50.7821H382.644V44.2366H381.4V46.9597H378.566V44.2366ZM386.817 50.9142C388.662 50.9142 389.868 49.5634 389.868 47.5392C389.868 45.5023 388.662 44.1514 386.817 44.1514C384.972 44.1514 383.766 45.5023 383.766 47.5392C383.766 49.5634 384.972 50.9142 386.817 50.9142ZM386.821 49.8446C385.616 49.8446 385.053 48.792 385.053 47.5349C385.053 46.2821 385.616 45.2168 386.821 45.2168C388.019 45.2168 388.581 46.2821 388.581 47.5349C388.581 48.792 388.019 49.8446 386.821 49.8446Z" fill="black"/>
<path opacity="0.5" d="M332.403 60.5H331.121L328.943 61.9233V63.1847L331.031 61.821H331.082V69.2273H332.403V60.5ZM337.357 69.3466C339.112 69.3466 340.365 68.1066 340.361 66.4063C340.365 64.7188 339.189 63.4915 337.599 63.4915C336.952 63.4915 336.351 63.7387 336.01 64.071H335.959L336.236 61.6293H339.939V60.5H335.141L334.651 64.8977L335.857 65.0767C336.185 64.7827 336.773 64.5824 337.301 64.5824C338.337 64.5909 339.087 65.3665 339.087 66.4318C339.087 67.4801 338.358 68.2387 337.357 68.2387C336.513 68.2387 335.844 67.7017 335.776 66.9517H334.497C334.548 68.3409 335.754 69.3466 337.357 69.3466ZM341.629 69.2273H347.373V68.098H343.444V68.0341L345.179 66.2188C346.777 64.6037 347.233 63.8324 347.233 62.8566C347.233 61.4546 346.091 60.3807 344.446 60.3807C342.814 60.3807 341.62 61.4375 341.62 63.0313H342.877C342.873 62.0938 343.478 61.4801 344.42 61.4801C345.306 61.4801 345.98 62.0256 345.98 62.8949C345.98 63.6662 345.52 64.2202 344.582 65.2131L341.629 68.2727V69.2273ZM348.7 69.2273H354.444V68.098H350.515V68.0341L352.25 66.2188C353.848 64.6037 354.304 63.8324 354.304 62.8566C354.304 61.4546 353.162 60.3807 351.517 60.3807C349.885 60.3807 348.691 61.4375 348.691 63.0313H349.948C349.944 62.0938 350.549 61.4801 351.491 61.4801C352.377 61.4801 353.051 62.0256 353.051 62.8949C353.051 63.6662 352.591 64.2202 351.653 65.2131L348.7 68.2727V69.2273Z" fill="#7A7B7C"/>
<path d="M282.069 36.7646C294.01 37.2087 303.562 45.6454 303.562 59.5215C303.562 59.6325 303.562 59.6325 303.562 59.7435H313.455C313.455 39.9839 299.923 27.8839 282.979 26.9958C282.865 30.4371 282.411 33.8784 282.069 36.7646Z" fill="#FFC476"/>
<path d="M286.014 61.3715C286.685 60.8988 290.447 55.9193 292.574 52.6835" stroke="#574E56" stroke-width="1.7" stroke-linecap="round"/>
<ellipse cx="286.873" cy="53.6657" rx="1.27288" ry="1.27999" fill="#574E56"/>
<path d="M293.663 60.0913C293.663 60.7982 293.093 61.3713 292.39 61.3713C291.687 61.3713 291.117 60.7982 291.117 60.0913C291.117 59.3843 291.687 58.8113 292.39 58.8113C293.093 58.8113 293.663 59.3843 293.663 60.0913Z" fill="#574E56"/>
<path d="M265.785 56.6529C265.785 56.6529 270.504 51.2049 270.679 52.2595C270.853 53.3141 270.242 62.8038 270.242 62.8038" stroke="#574E56" stroke-width="1.7" stroke-linecap="round"/>
<path d="M274.092 54.2049C274.384 52.1405 276.123 50.6298 278.046 51.5052C280.633 52.6821 280.419 54.6962 278.546 57.1232C277.048 59.0649 274.217 61.4441 274.092 62.2702C273.968 63.0963 281.085 62.2702 281.085 62.2702" stroke="#574E56" stroke-width="1.7" stroke-linecap="round"/>
<path d="M529.721 42.055H522.988V50.7822H524.3V43.18H528.408V50.7822H529.721V42.055ZM534.165 50.9143C535.592 50.9143 536.602 50.2112 536.892 49.1459L535.686 48.9285C535.456 49.5464 534.902 49.8618 534.177 49.8618C533.086 49.8618 532.353 49.1544 532.319 47.893H536.973V47.4413C536.973 45.0763 535.558 44.1515 534.075 44.1515C532.251 44.1515 531.049 45.5407 531.049 47.5521C531.049 49.5848 532.234 50.9143 534.165 50.9143ZM532.324 46.9385C532.375 46.0095 533.048 45.2041 534.084 45.2041C535.072 45.2041 535.72 45.9371 535.724 46.9385H532.324ZM538.098 53.2368H539.372V49.7638H539.449C539.679 50.1814 540.148 50.9101 541.341 50.9101C542.926 50.9101 544.077 49.6402 544.077 47.5223C544.077 45.4001 542.909 44.1515 541.328 44.1515C540.114 44.1515 539.675 44.893 539.449 45.2979H539.342V44.2368H538.098V53.2368ZM539.347 47.5095C539.347 46.1416 539.943 45.2339 541.055 45.2339C542.21 45.2339 542.79 46.2098 542.79 47.5095C542.79 48.822 542.193 49.8234 541.055 49.8234C539.96 49.8234 539.347 48.8859 539.347 47.5095ZM548.037 50.9143C549.465 50.9143 550.474 50.2112 550.764 49.1459L549.558 48.9285C549.328 49.5464 548.774 49.8618 548.05 49.8618C546.959 49.8618 546.226 49.1544 546.192 47.893H550.845V47.4413C550.845 45.0763 549.43 44.1515 547.947 44.1515C546.124 44.1515 544.922 45.5407 544.922 47.5521C544.922 49.5848 546.107 50.9143 548.037 50.9143ZM546.196 46.9385C546.247 46.0095 546.921 45.2041 547.956 45.2041C548.945 45.2041 549.592 45.9371 549.597 46.9385H546.196ZM552.824 44.2368H551.426L553.438 47.5095L551.401 50.7822H552.798L554.268 48.3362L555.743 50.7822H557.136L555.078 47.5095L557.119 44.2368H555.726L554.268 46.7851L552.824 44.2368ZM560.627 50.9143C562.472 50.9143 563.678 49.5635 563.678 47.5393C563.678 45.5024 562.472 44.1515 560.627 44.1515C558.782 44.1515 557.576 45.5024 557.576 47.5393C557.576 49.5635 558.782 50.9143 560.627 50.9143ZM560.631 49.8447C559.425 49.8447 558.863 48.7922 558.863 47.5351C558.863 46.2822 559.425 45.2169 560.631 45.2169C561.828 45.2169 562.391 46.2822 562.391 47.5351C562.391 48.7922 561.828 49.8447 560.631 49.8447ZM564.173 52.67H565.434V50.7822H569.998V52.67H571.242V49.6785H570.236V44.2368H565.788L565.583 46.6785C565.447 48.3277 565.246 49.1885 564.705 49.6785H564.173V52.67ZM566.069 49.6785C566.503 49.0692 566.665 48.055 566.793 46.6785L566.93 45.3277H568.992V49.6785H566.069ZM574.956 50.9143C576.801 50.9143 578.007 49.5635 578.007 47.5393C578.007 45.5024 576.801 44.1515 574.956 44.1515C573.111 44.1515 571.905 45.5024 571.905 47.5393C571.905 49.5635 573.111 50.9143 574.956 50.9143ZM574.96 49.8447C573.754 49.8447 573.192 48.7922 573.192 47.5351C573.192 46.2822 573.754 45.2169 574.96 45.2169C576.158 45.2169 576.72 46.2822 576.72 47.5351C576.72 48.7922 576.158 49.8447 574.96 49.8447ZM579.141 50.7822H582.269C583.701 50.7822 584.54 50.0578 584.54 49.018C584.54 48.0464 583.795 47.4498 582.921 47.3476C583.726 47.1942 584.259 46.751 584.259 45.9839C584.259 44.9101 583.33 44.2368 581.856 44.2368H579.141V50.7822ZM580.339 49.7169V47.8973H582.269C582.9 47.8973 583.279 48.268 583.279 48.8774C583.279 49.3973 582.9 49.7169 582.269 49.7169H580.339ZM580.339 46.964V45.3149H581.856C582.58 45.3149 583.019 45.6175 583.019 46.1203C583.019 46.6444 582.584 46.964 581.868 46.964H580.339Z" fill="black"/>
<path opacity="0.5" d="M526.09 60.5001H524.807L522.63 61.9234V63.1848L524.718 61.8212H524.769V69.2274H526.09V60.5001ZM531.043 69.3467C532.799 69.3467 534.052 68.1067 534.047 66.4064C534.052 64.7189 532.875 63.4916 531.286 63.4916C530.638 63.4916 530.037 63.7388 529.697 64.0712H529.645L529.922 61.6294H533.625V60.5001H528.827L528.337 64.8979L529.543 65.0768C529.871 64.7828 530.459 64.5825 530.988 64.5825C532.023 64.5911 532.773 65.3666 532.773 66.432C532.773 67.4803 532.045 68.2388 531.043 68.2388C530.199 68.2388 529.53 67.7018 529.462 66.9518H528.184C528.235 68.3411 529.441 69.3467 531.043 69.3467ZM538.354 69.3467C540.135 69.3467 541.443 68.2814 541.439 66.8325C541.443 65.7288 540.774 64.9362 539.615 64.7572V64.6891C540.527 64.4547 541.119 63.7388 541.115 62.7587C541.119 61.476 540.067 60.3808 538.388 60.3808C536.786 60.3808 535.499 61.3482 535.456 62.7672H536.73C536.76 61.9661 537.514 61.4803 538.371 61.4803C539.261 61.4803 539.845 62.0215 539.841 62.8268C539.845 63.6706 539.168 64.2246 538.2 64.2246H537.463V65.2984H538.2C539.411 65.2984 540.109 65.9121 540.109 66.7899C540.109 67.6379 539.372 68.2132 538.345 68.2132C537.399 68.2132 536.662 67.7274 536.611 66.9518H535.273C535.328 68.3751 536.59 69.3467 538.354 69.3467Z" fill="#7A7B7C"/>
<path d="M474.772 90.6016C492.742 90.6016 507.389 77.8557 507.389 59.7887C507.389 39.2469 492.742 26.996 474.772 26.996C450.771 26.996 442.155 41.7218 442.155 59.7887C442.278 81.4443 456.802 90.6016 474.772 90.6016ZM474.772 36.7719C487.326 36.7719 497.419 45.3104 497.419 59.5412C497.419 72.1634 487.326 80.9494 474.772 80.9494C462.218 80.9494 452.125 74.6383 452.125 59.5412C452.248 46.9191 458.156 36.7719 474.772 36.7719Z" fill="white"/>
<path d="M474.033 36.7215V27.1164C476.135 26.6841 479.191 26.9362 480.007 27.1163C479.629 30.4381 478.264 36.7884 477.791 36.7215C476.951 36.6029 475.028 36.6014 474.033 36.7215Z" fill="#7874F4"/>
<path d="M479.701 61.3717C480.373 60.899 484.135 55.9196 486.262 52.6837" stroke="#574E56" stroke-width="1.7" stroke-linecap="round"/>
<ellipse cx="480.561" cy="53.666" rx="1.27288" ry="1.27999" fill="#574E56"/>
<path d="M487.35 60.0915C487.35 60.7984 486.781 61.3715 486.078 61.3715C485.375 61.3715 484.805 60.7984 484.805 60.0915C484.805 59.3846 485.375 58.8115 486.078 58.8115C486.781 58.8115 487.35 59.3846 487.35 60.0915Z" fill="#574E56"/>
<path d="M459.472 56.6531C459.472 56.6531 464.191 51.2052 464.365 52.2598C464.54 53.3144 463.928 62.8041 463.928 62.8041" stroke="#574E56" stroke-width="1.7" stroke-linecap="round"/>
<path d="M467.779 54.205C468.07 52.1406 469.809 50.6299 471.733 51.5053C474.319 52.6822 474.105 54.6963 472.232 57.1234C470.734 59.065 467.904 61.4442 467.779 62.2703C467.654 63.0965 474.771 62.2703 474.771 62.2703" stroke="#574E56" stroke-width="1.7" stroke-linecap="round"/>
<path opacity="0.5" d="M53.9588 153.765H57.304C59.3324 153.765 60.2486 152.755 60.2486 151.417C60.2486 150.066 59.3026 149.303 58.4375 149.257V149.171C59.2386 148.967 59.9077 148.421 59.9077 147.33C59.9077 146.039 59.0128 145.038 57.1548 145.038H53.9588V153.765ZM55.2756 152.636V149.84H57.223C58.2798 149.84 58.9403 150.522 58.9403 151.353C58.9403 152.086 58.4418 152.636 57.1761 152.636H55.2756ZM55.2756 148.813V146.159H57.0739C58.1179 146.159 58.6165 146.708 58.6165 147.433C58.6165 148.277 57.9261 148.813 57.0398 148.813H55.2756ZM64.1768 153.897C65.7237 153.897 66.7251 152.968 66.8657 151.694H65.6257C65.4637 152.402 64.914 152.819 64.1853 152.819C63.1072 152.819 62.4126 151.92 62.4126 150.492C62.4126 149.09 63.12 148.208 64.1853 148.208C64.995 148.208 65.4893 148.72 65.6257 149.333H66.8657C66.7294 148.012 65.6512 147.134 64.164 147.134C62.3188 147.134 61.1257 148.524 61.1257 150.522C61.1257 152.495 62.2762 153.897 64.1768 153.897ZM70.7609 153.897C72.1885 153.897 73.1984 153.194 73.4882 152.129L72.2822 151.911C72.0521 152.529 71.4981 152.845 70.7737 152.845C69.6828 152.845 68.9498 152.137 68.9158 150.876H73.5692V150.424C73.5692 148.059 72.1544 147.134 70.6714 147.134C68.8476 147.134 67.6459 148.524 67.6459 150.535C67.6459 152.568 68.8305 153.897 70.7609 153.897ZM68.92 149.921C68.9711 148.992 69.6444 148.187 70.68 148.187C71.6686 148.187 72.3163 148.92 72.3206 149.921H68.92ZM78.8791 147.22H74.6945V153.765H75.9516V148.319H78.8791V147.22ZM82.3897 153.897C84.2349 153.897 85.4409 152.546 85.4409 150.522C85.4409 148.485 84.2349 147.134 82.3897 147.134C80.5446 147.134 79.3386 148.485 79.3386 150.522C79.3386 152.546 80.5446 153.897 82.3897 153.897ZM82.394 152.828C81.188 152.828 80.6255 151.775 80.6255 150.518C80.6255 149.265 81.188 148.2 82.394 148.2C83.5914 148.2 84.1539 149.265 84.1539 150.518C84.1539 151.775 83.5914 152.828 82.394 152.828ZM61.5398 176.402C61.5398 173.61 59.8693 171.919 57.6108 171.919C55.3438 171.919 53.6776 173.61 53.6776 176.402C53.6776 179.188 55.3438 180.884 57.6108 180.884C59.8693 180.884 61.5398 179.193 61.5398 176.402ZM60.2358 176.402C60.2358 178.528 59.1108 179.683 57.6108 179.683C56.1065 179.683 54.9858 178.528 54.9858 176.402C54.9858 174.275 56.1065 173.12 57.6108 173.12C59.1108 173.12 60.2358 174.275 60.2358 176.402ZM62.4243 175.319H64.5678V180.765H65.8121V175.319H67.947V174.22H62.4243V175.319ZM69.0063 180.765H70.2464V175.319H73.0972V180.765H74.3458V174.22H69.0063V180.765ZM75.7609 183.22H77.035V179.747H77.1117C77.3418 180.164 77.8106 180.893 79.0038 180.893C80.589 180.893 81.7396 179.623 81.7396 177.505C81.7396 175.383 80.572 174.134 78.991 174.134C77.7765 174.134 77.3376 174.876 77.1117 175.281H77.0052V174.22H75.7609V183.22ZM77.0095 177.492C77.0095 176.125 77.606 175.217 78.7183 175.217C79.8731 175.217 80.4526 176.193 80.4526 177.492C80.4526 178.805 79.856 179.806 78.7183 179.806C77.6231 179.806 77.0095 178.869 77.0095 177.492ZM84.7836 180.91C85.8659 180.91 86.4753 180.36 86.7182 179.87H86.7694V180.765H88.0137V176.419C88.0137 174.514 86.5137 174.134 85.4739 174.134C84.2892 174.134 83.1983 174.612 82.7722 175.805L83.9696 176.078C84.1571 175.613 84.6344 175.166 85.4909 175.166C86.3134 175.166 86.7353 175.596 86.7353 176.338V176.367C86.7353 176.832 86.258 176.823 85.0819 176.96C83.8418 177.105 82.5719 177.428 82.5719 178.916C82.5719 180.203 83.5392 180.91 84.7836 180.91ZM85.0606 179.887C84.3404 179.887 83.8205 179.563 83.8205 178.933C83.8205 178.251 84.4256 178.008 85.1628 177.91C85.5762 177.855 86.5563 177.744 86.7395 177.561V178.404C86.7395 179.18 86.1216 179.887 85.0606 179.887ZM89.4224 180.765H92.5502C93.982 180.765 94.8215 180.041 94.8215 179.001C94.8215 178.029 94.0758 177.433 93.2022 177.33C94.0076 177.177 94.5403 176.734 94.5403 175.967C94.5403 174.893 93.6113 174.22 92.1369 174.22H89.4224V180.765ZM90.6198 179.7V177.88H92.5502C93.1809 177.88 93.5602 178.251 93.5602 178.86C93.5602 179.38 93.1809 179.7 92.5502 179.7H90.6198ZM90.6198 176.947V175.298H92.1369C92.8613 175.298 93.3002 175.6 93.3002 176.103C93.3002 176.627 92.8655 176.947 92.1496 176.947H90.6198ZM95.4152 180.765H95.8243C97.2519 180.765 97.776 179.708 97.8783 177.544L97.9806 175.319H100.12V180.765H101.368V174.22H96.8002L96.6851 177.117C96.6041 179.137 96.374 179.661 95.6453 179.661H95.411L95.4152 180.765ZM105.6 180.897C107.028 180.897 108.038 180.194 108.327 179.129L107.122 178.911C106.891 179.529 106.337 179.845 105.613 179.845C104.522 179.845 103.789 179.137 103.755 177.876H108.408V177.424C108.408 175.059 106.994 174.134 105.511 174.134C103.687 174.134 102.485 175.524 102.485 177.535C102.485 179.568 103.67 180.897 105.6 180.897ZM103.759 176.921C103.81 175.992 104.484 175.187 105.519 175.187C106.508 175.187 107.156 175.92 107.16 176.921H103.759ZM110.782 174.22H109.534V180.765H110.782V178.046H113.616V180.765H114.86V174.22H113.616V176.943H110.782V174.22ZM119.034 180.897C120.879 180.897 122.085 179.546 122.085 177.522C122.085 175.485 120.879 174.134 119.034 174.134C117.189 174.134 115.983 175.485 115.983 177.522C115.983 179.546 117.189 180.897 119.034 180.897ZM119.038 179.828C117.832 179.828 117.269 178.775 117.269 177.518C117.269 176.265 117.832 175.2 119.038 175.2C120.235 175.2 120.798 176.265 120.798 177.518C120.798 178.775 120.235 179.828 119.038 179.828ZM53.2983 209.875H54.5597V207.765H60.419V209.862H61.6804V206.649H60.6918V199.038H55.3097L55.1051 202.724C54.973 205.153 54.4574 206.154 53.8736 206.649H53.2983V209.875ZM55.4247 206.649C55.9233 205.852 56.2599 204.569 56.3665 202.724L56.5028 200.171H59.4304V206.649H55.4247ZM65.4893 207.897C67.3345 207.897 68.5404 206.546 68.5404 204.522C68.5404 202.485 67.3345 201.134 65.4893 201.134C63.6441 201.134 62.4382 202.485 62.4382 204.522C62.4382 206.546 63.6441 207.897 65.4893 207.897ZM65.4936 206.828C64.2876 206.828 63.7251 205.775 63.7251 204.518C63.7251 203.265 64.2876 202.2 65.4936 202.2C66.691 202.2 67.2535 203.265 67.2535 204.518C67.2535 205.775 66.691 206.828 65.4936 206.828ZM72.4314 207.897C73.9783 207.897 74.9797 206.968 75.1203 205.694H73.8802C73.7183 206.402 73.1686 206.819 72.4399 206.819C71.3618 206.819 70.6672 205.92 70.6672 204.492C70.6672 203.09 71.3746 202.208 72.4399 202.208C73.2496 202.208 73.7439 202.72 73.8802 203.333H75.1203C74.9839 202.012 73.9058 201.134 72.4186 201.134C70.5734 201.134 69.3802 202.524 69.3802 204.522C69.3802 206.495 70.5308 207.897 72.4314 207.897ZM75.6991 202.319H77.8426V207.765H79.0869V202.319H81.2218V201.22H75.6991V202.319ZM83.8812 207.91C84.9636 207.91 85.573 207.36 85.8159 206.87H85.867V207.765H87.1113V203.419C87.1113 201.514 85.6113 201.134 84.5716 201.134C83.3869 201.134 82.296 201.612 81.8699 202.805L83.0673 203.078C83.2548 202.613 83.7321 202.166 84.5886 202.166C85.411 202.166 85.8329 202.596 85.8329 203.338V203.367C85.8329 203.832 85.3557 203.823 84.1795 203.96C82.9395 204.105 81.6696 204.428 81.6696 205.916C81.6696 207.203 82.6369 207.91 83.8812 207.91ZM84.1582 206.887C83.438 206.887 82.9182 206.563 82.9182 205.933C82.9182 205.251 83.5233 205.008 84.2605 204.91C84.6738 204.855 85.6539 204.744 85.8372 204.561V205.404C85.8372 206.18 85.2193 206.887 84.1582 206.887ZM88.52 207.765H91.6479C93.0797 207.765 93.9192 207.041 93.9192 206.001C93.9192 205.029 93.1734 204.433 92.2999 204.33C93.1053 204.177 93.6379 203.734 93.6379 202.967C93.6379 201.893 92.7089 201.22 91.2345 201.22H88.52V207.765ZM89.7175 206.7V204.88H91.6479C92.2785 204.88 92.6578 205.251 92.6578 205.86C92.6578 206.38 92.2785 206.7 91.6479 206.7H89.7175ZM89.7175 203.947V202.298H91.2345C91.9589 202.298 92.3979 202.6 92.3979 203.103C92.3979 203.627 91.9632 203.947 91.2473 203.947H89.7175ZM94.5129 207.765H94.922C96.3495 207.765 96.8737 206.708 96.9759 204.544L97.0782 202.319H99.2174V207.765H100.466V201.22H95.8978L95.7828 204.117C95.7018 206.137 95.4717 206.661 94.743 206.661H94.5086L94.5129 207.765ZM104.698 207.897C106.125 207.897 107.135 207.194 107.425 206.129L106.219 205.911C105.989 206.529 105.435 206.845 104.711 206.845C103.62 206.845 102.887 206.137 102.853 204.876H107.506V204.424C107.506 202.059 106.091 201.134 104.608 201.134C102.784 201.134 101.583 202.524 101.583 204.535C101.583 206.568 102.767 207.897 104.698 207.897ZM102.857 203.921C102.908 202.992 103.581 202.187 104.617 202.187C105.606 202.187 106.253 202.92 106.258 203.921H102.857ZM109.88 201.22H108.631V207.765H109.88V205.046H112.714V207.765H113.958V201.22H112.714V203.943H109.88V201.22ZM118.131 207.897C119.977 207.897 121.182 206.546 121.182 204.522C121.182 202.485 119.977 201.134 118.131 201.134C116.286 201.134 115.08 202.485 115.08 204.522C115.08 206.546 116.286 207.897 118.131 207.897ZM118.136 206.828C116.93 206.828 116.367 205.775 116.367 204.518C116.367 203.265 116.93 202.2 118.136 202.2C119.333 202.2 119.896 203.265 119.896 204.518C119.896 205.775 119.333 206.828 118.136 206.828ZM60.7812 226.038H54.0483V234.765H55.3608V227.163H59.4688V234.765H60.7812V226.038ZM62.4041 237.22H63.6782V233.747H63.7549C63.985 234.164 64.4538 234.893 65.647 234.893C67.2322 234.893 68.3828 233.623 68.3828 231.505C68.3828 229.383 67.2152 228.134 65.6342 228.134C64.4197 228.134 63.9808 228.876 63.7549 229.281H63.6484V228.22H62.4041V237.22ZM63.6527 231.492C63.6527 230.125 64.2492 229.217 65.3615 229.217C66.5163 229.217 67.0958 230.193 67.0958 231.492C67.0958 232.805 66.4992 233.806 65.3615 233.806C64.2663 233.806 63.6527 232.869 63.6527 231.492ZM72.279 234.897C74.1242 234.897 75.3302 233.546 75.3302 231.522C75.3302 229.485 74.1242 228.134 72.279 228.134C70.4339 228.134 69.2279 229.485 69.2279 231.522C69.2279 233.546 70.4339 234.897 72.279 234.897ZM72.2833 233.828C71.0773 233.828 70.5148 232.775 70.5148 231.518C70.5148 230.265 71.0773 229.2 72.2833 229.2C73.4807 229.2 74.0432 230.265 74.0432 231.518C74.0432 232.775 73.4807 233.828 72.2833 233.828ZM81.7183 228.22H80.4739V231.48C80.0435 231.595 79.6089 231.663 79.1103 231.663C78.241 231.663 77.7041 231.271 77.7041 230.346V228.207H76.464V230.346C76.464 231.982 77.491 232.762 79.1103 232.762C79.6046 232.762 80.0563 232.694 80.4739 232.588V234.765H81.7183V228.22ZM84.3734 232.98V228.22H83.1248V234.765H84.5098L87.3819 230.001V234.765H88.6305V228.22H87.2584L84.3734 232.98ZM89.2434 229.319H91.3869V234.765H92.6312V229.319H94.7661V228.22H89.2434V229.319ZM97.4255 234.91C98.5079 234.91 99.1173 234.36 99.3602 233.87H99.4113V234.765H100.656V230.419C100.656 228.514 99.1556 228.134 98.1159 228.134C96.9312 228.134 95.8403 228.612 95.4142 229.805L96.6116 230.078C96.7991 229.613 97.2764 229.166 98.1329 229.166C98.9554 229.166 99.3772 229.596 99.3772 230.338V230.367C99.3772 230.832 98.9 230.823 97.7238 230.96C96.4838 231.105 95.2139 231.428 95.2139 232.916C95.2139 234.203 96.1812 234.91 97.4255 234.91ZM97.7025 233.887C96.9823 233.887 96.4625 233.563 96.4625 232.933C96.4625 232.251 97.0676 232.008 97.8048 231.91C98.2181 231.855 99.1982 231.744 99.3815 231.561V232.404C99.3815 233.18 98.7636 233.887 97.7025 233.887ZM103.313 228.22H102.064V234.765H103.313V232.046H106.147V234.765H107.391V228.22H106.147V230.943H103.313V228.22ZM111.564 234.897C113.409 234.897 114.615 233.546 114.615 231.522C114.615 229.485 113.409 228.134 111.564 228.134C109.719 228.134 108.513 229.485 108.513 231.522C108.513 233.546 109.719 234.897 111.564 234.897ZM111.569 233.828C110.363 233.828 109.8 232.775 109.8 231.518C109.8 230.265 110.363 229.2 111.569 229.2C112.766 229.2 113.328 230.265 113.328 231.518C113.328 232.775 112.766 233.828 111.569 233.828ZM60.7812 253.038H54.0483V261.765H55.3608V254.163H59.4688V261.765H60.7812V253.038ZM65.2251 261.897C66.6527 261.897 67.6626 261.194 67.9524 260.129L66.7464 259.911C66.5163 260.529 65.9623 260.845 65.2379 260.845C64.147 260.845 63.414 260.137 63.3799 258.876H68.0333V258.424C68.0333 256.059 66.6186 255.134 65.1356 255.134C63.3117 255.134 62.11 256.524 62.11 258.535C62.11 260.568 63.2947 261.897 65.2251 261.897ZM63.3842 257.921C63.4353 256.992 64.1086 256.187 65.1441 256.187C66.1328 256.187 66.7805 256.92 66.7848 257.921H63.3842ZM69.1586 264.22H70.4328V260.747H70.5095C70.7396 261.164 71.2084 261.893 72.4015 261.893C73.9868 261.893 75.1373 260.623 75.1373 258.505C75.1373 256.383 73.9697 255.134 72.3888 255.134C71.1743 255.134 70.7354 255.876 70.5095 256.281H70.403V255.22H69.1586V264.22ZM70.4072 258.492C70.4072 257.125 71.0038 256.217 72.116 256.217C73.2709 256.217 73.8504 257.193 73.8504 258.492C73.8504 259.805 73.2538 260.806 72.116 260.806C71.0209 260.806 70.4072 259.869 70.4072 258.492ZM79.0975 261.897C80.5251 261.897 81.535 261.194 81.8248 260.129L80.6188 259.911C80.3887 260.529 79.8347 260.845 79.1103 260.845C78.0194 260.845 77.2864 260.137 77.2524 258.876H81.9058V258.424C81.9058 256.059 80.491 255.134 79.008 255.134C77.1842 255.134 75.9825 256.524 75.9825 258.535C75.9825 260.568 77.1671 261.897 79.0975 261.897ZM77.2566 257.921C77.3078 256.992 77.981 256.187 79.0166 256.187C80.0052 256.187 80.6529 256.92 80.6572 257.921H77.2566ZM83.8844 255.22H82.4867L84.4981 258.492L82.4611 261.765H83.8588L85.329 259.319L86.8034 261.765H88.1969L86.1387 258.492L88.1799 255.22H86.7864L85.329 257.768L83.8844 255.22ZM91.6873 261.897C93.5325 261.897 94.7384 260.546 94.7384 258.522C94.7384 256.485 93.5325 255.134 91.6873 255.134C89.8421 255.134 88.6361 256.485 88.6361 258.522C88.6361 260.546 89.8421 261.897 91.6873 261.897ZM91.6915 260.828C90.4856 260.828 89.9231 259.775 89.9231 258.518C89.9231 257.265 90.4856 256.2 91.6915 256.2C92.889 256.2 93.4515 257.265 93.4515 258.518C93.4515 259.775 92.889 260.828 91.6915 260.828ZM95.233 263.653H96.4944V261.765H101.058V263.653H102.303V260.661H101.297V255.22H96.8481L96.6436 257.661C96.5072 259.311 96.3069 260.171 95.7657 260.661H95.233V263.653ZM97.1294 260.661C97.564 260.052 97.7259 259.038 97.8538 257.661L97.9902 256.311H100.053V260.661H97.1294ZM106.017 261.897C107.862 261.897 109.068 260.546 109.068 258.522C109.068 256.485 107.862 255.134 106.017 255.134C104.172 255.134 102.966 256.485 102.966 258.522C102.966 260.546 104.172 261.897 106.017 261.897ZM106.021 260.828C104.815 260.828 104.253 259.775 104.253 258.518C104.253 257.265 104.815 256.2 106.021 256.2C107.218 256.2 107.781 257.265 107.781 258.518C107.781 259.775 107.218 260.828 106.021 260.828ZM110.202 261.765H113.33C114.761 261.765 115.601 261.041 115.601 260.001C115.601 259.029 114.855 258.433 113.982 258.33C114.787 258.177 115.32 257.734 115.32 256.967C115.32 255.893 114.391 255.22 112.916 255.22H110.202V261.765ZM111.399 260.7V258.88H113.33C113.96 258.88 114.339 259.251 114.339 259.86C114.339 260.38 113.96 260.7 113.33 260.7H111.399ZM111.399 257.947V256.298H112.916C113.641 256.298 114.08 256.6 114.08 257.103C114.08 257.627 113.645 257.947 112.929 257.947H111.399ZM61.5398 284.402C61.5398 281.61 59.8693 279.919 57.6108 279.919C55.3438 279.919 53.6776 281.61 53.6776 284.402C53.6776 287.188 55.3438 288.884 57.6108 288.884C59.8693 288.884 61.5398 287.193 61.5398 284.402ZM60.2358 284.402C60.2358 286.528 59.1108 287.683 57.6108 287.683C56.1065 287.683 54.9858 286.528 54.9858 284.402C54.9858 282.275 56.1065 281.12 57.6108 281.12C59.1108 281.12 60.2358 282.275 60.2358 284.402ZM62.4243 283.319H64.5678V288.765H65.8121V283.319H67.947V282.22H62.4243V283.319ZM69.0063 288.765H70.2464V283.319H73.0972V288.765H74.3458V282.22H69.0063V288.765ZM77.0095 286.98V282.22H75.7609V288.765H77.1458L80.018 284.001V288.765H81.2666V282.22H79.8944L77.0095 286.98ZM85.4483 288.897C86.9952 288.897 87.9966 287.968 88.1373 286.694H86.8972C86.7353 287.402 86.1856 287.819 85.4569 287.819C84.3787 287.819 83.6841 286.92 83.6841 285.492C83.6841 284.09 84.3915 283.208 85.4569 283.208C86.2665 283.208 86.7608 283.72 86.8972 284.333H88.1373C88.0009 283.012 86.9228 282.134 85.4356 282.134C83.5904 282.134 82.3972 283.524 82.3972 285.522C82.3972 287.495 83.5478 288.897 85.4483 288.897ZM91.9685 288.897C93.8137 288.897 95.0197 287.546 95.0197 285.522C95.0197 283.485 93.8137 282.134 91.9685 282.134C90.1234 282.134 88.9174 283.485 88.9174 285.522C88.9174 287.546 90.1234 288.897 91.9685 288.897ZM91.9728 287.828C90.7668 287.828 90.2043 286.775 90.2043 285.518C90.2043 284.265 90.7668 283.2 91.9728 283.2C93.1702 283.2 93.7327 284.265 93.7327 285.518C93.7327 286.775 93.1702 287.828 91.9728 287.828ZM96.1535 288.765H97.4277V286.149H98.2544L100.227 288.765H101.808L99.243 285.403L101.779 282.22H100.202L98.0413 284.964H97.4277V282.22H96.1535V288.765ZM59.6179 307.038H58.3139V310.813H57.304L55.1392 307.038H53.5284L56.1278 311.197L53.3324 315.765H54.8537L57.0781 312.041H58.3139V315.765H59.6179V312.041H60.8665L63.0611 315.765H64.5994L61.821 311.205L64.4119 307.038H62.8054L60.6577 310.813H59.6179V307.038ZM67.4027 315.91C68.485 315.91 69.0944 315.36 69.3373 314.87H69.3885V315.765H70.6328V311.419C70.6328 309.514 69.1328 309.134 68.093 309.134C66.9083 309.134 65.8174 309.612 65.3913 310.805L66.5887 311.078C66.7762 310.613 67.2535 310.166 68.11 310.166C68.9325 310.166 69.3544 310.596 69.3544 311.338V311.367C69.3544 311.832 68.8771 311.823 67.701 311.96C66.4609 312.105 65.191 312.428 65.191 313.916C65.191 315.203 66.1583 315.91 67.4027 315.91ZM67.6796 314.887C66.9595 314.887 66.4396 314.563 66.4396 313.933C66.4396 313.251 67.0447 313.008 67.7819 312.91C68.1953 312.855 69.1754 312.744 69.3586 312.561V313.404C69.3586 314.18 68.7407 314.887 67.6796 314.887ZM71.5258 315.765H71.9349C73.3625 315.765 73.8866 314.708 73.9889 312.544L74.0912 310.319H76.2304V315.765H77.479V309.22H72.9108L72.7957 312.117C72.7148 314.137 72.4846 314.661 71.7559 314.661H71.5216L71.5258 315.765ZM81.6469 315.897C83.4921 315.897 84.698 314.546 84.698 312.522C84.698 310.485 83.4921 309.134 81.6469 309.134C79.8017 309.134 78.5958 310.485 78.5958 312.522C78.5958 314.546 79.8017 315.897 81.6469 315.897ZM81.6511 314.828C80.4452 314.828 79.8827 313.775 79.8827 312.518C79.8827 311.265 80.4452 310.2 81.6511 310.2C82.8486 310.2 83.4111 311.265 83.4111 312.518C83.4111 313.775 82.8486 314.828 81.6511 314.828ZM90.8816 306.782C90.562 307.038 90.0762 307.038 89.3986 307.034C89.1983 307.034 88.981 307.034 88.7424 307.038C86.6202 307.08 85.5463 308.589 85.5463 311.58V312.228C85.5463 314.632 86.7395 315.897 88.5677 315.897C90.3958 315.897 91.5804 314.627 91.5804 312.59C91.5804 310.579 90.4171 309.467 88.8404 309.467C87.8901 309.467 87.0975 309.872 86.6713 310.681H86.5904C86.7353 309.024 87.3574 308.201 88.7722 308.159C90.0293 308.12 90.8262 308.125 91.41 307.588L90.8816 306.782ZM88.5719 314.828C87.4895 314.828 86.829 313.963 86.829 312.612C86.8461 311.286 87.4981 310.528 88.5591 310.528C89.6373 310.528 90.2935 311.286 90.2935 312.612C90.2935 313.967 89.6373 314.828 88.5719 314.828ZM96.8513 309.22H95.6027V315.765H96.8513V313.046H99.6851V315.765H100.929V309.22H99.6851V311.943H96.8513V309.22ZM104.25 315.91C105.333 315.91 105.942 315.36 106.185 314.87H106.236V315.765H107.481V311.419C107.481 309.514 105.981 309.134 104.941 309.134C103.756 309.134 102.665 309.612 102.239 310.805L103.436 311.078C103.624 310.613 104.101 310.166 104.958 310.166C105.78 310.166 106.202 310.596 106.202 311.338V311.367C106.202 311.832 105.725 311.823 104.549 311.96C103.309 312.105 102.039 312.428 102.039 313.916C102.039 315.203 103.006 315.91 104.25 315.91ZM104.527 314.887C103.807 314.887 103.287 314.563 103.287 313.933C103.287 313.251 103.892 313.008 104.63 312.91C105.043 312.855 106.023 312.744 106.206 312.561V313.404C106.206 314.18 105.588 314.887 104.527 314.887ZM114.534 315.897C116.081 315.897 117.082 314.968 117.223 313.694H115.983C115.821 314.402 115.271 314.819 114.542 314.819C113.464 314.819 112.769 313.92 112.769 312.492C112.769 311.09 113.477 310.208 114.542 310.208C115.352 310.208 115.846 310.72 115.983 311.333H117.223C117.086 310.012 116.008 309.134 114.521 309.134C112.676 309.134 111.483 310.524 111.483 312.522C111.483 314.495 112.633 315.897 114.534 315.897ZM118.297 315.765H119.537V310.319H122.388V315.765H123.636V309.22H118.297V315.765ZM126.956 315.91C128.039 315.91 128.648 315.36 128.891 314.87H128.942V315.765H130.186V311.419C130.186 309.514 128.686 309.134 127.647 309.134C126.462 309.134 125.371 309.612 124.945 310.805L126.142 311.078C126.33 310.613 126.807 310.166 127.664 310.166C128.486 310.166 128.908 310.596 128.908 311.338V311.367C128.908 311.832 128.431 311.823 127.254 311.96C126.014 312.105 124.745 312.428 124.745 313.916C124.745 315.203 125.712 315.91 126.956 315.91ZM127.233 314.887C126.513 314.887 125.993 314.563 125.993 313.933C125.993 313.251 126.598 313.008 127.335 312.91C127.749 312.855 128.729 312.744 128.912 312.561V313.404C128.912 314.18 128.294 314.887 127.233 314.887ZM135.268 314.188L133.197 309.22H131.595V315.765H132.844V311.005L134.795 315.765H135.741L137.727 311.022V315.765H138.967V309.22H137.382L135.268 314.188Z" fill="#7A7B7C"/>
<path d="M506 179H289C286.239 179 284 176.761 284 174V173C284 170.239 286.239 168 289 168H506C508.761 168 511 170.239 511 173V174C511 176.761 508.761 179 506 179Z" fill="white"/>
<path d="M506 204H289C286.239 204 284 201.761 284 199V198C284 195.239 286.239 193 289 193H506C508.761 193 511 195.239 511 198V199C511 201.761 508.761 204 506 204Z" fill="white"/>
<path d="M506 227H289C286.239 227 284 224.761 284 222V221C284 218.239 286.239 216 289 216H506C508.761 216 511 218.239 511 221V222C511 224.761 508.761 227 506 227Z" fill="white"/>
<path d="M506 251H289C286.239 251 284 248.761 284 246V245C284 242.239 286.239 240 289 240H506C508.761 240 511 242.239 511 245V246C511 248.761 508.761 251 506 251Z" fill="white"/>
<path d="M506 276H289C286.239 276 284 273.761 284 271V270C284 267.239 286.239 265 289 265H506C508.761 265 511 267.239 511 270V271C511 273.761 508.761 276 506 276Z" fill="white"/>
<path d="M506 300H289C286.239 300 284 297.761 284 295C284 292.239 286.239 290 289 290H506C508.761 290 511 292.239 511 295C511 297.761 508.761 300 506 300Z" fill="white"/>
<path d="M200.134 153.765H201.51L205.307 146.205V145.038H199.537V146.167H203.943V146.231L200.134 153.765ZM209.36 153.884C211.184 153.902 212.394 152.589 212.39 150.914C212.394 149.244 211.179 148.046 209.667 148.046C208.746 148.046 207.949 148.49 207.502 149.227H207.438C207.442 147.224 208.192 146.052 209.47 146.052C210.31 146.052 210.838 146.559 211.017 147.305H212.317C212.117 145.903 211.03 144.897 209.47 144.897C207.442 144.897 206.176 146.64 206.176 149.696C206.176 152.909 207.809 153.872 209.36 153.884ZM209.355 152.777C208.341 152.777 207.6 151.924 207.6 150.944C207.604 149.968 208.38 149.116 209.385 149.116C210.382 149.116 211.115 149.921 211.111 150.931C211.115 151.963 210.353 152.777 209.355 152.777ZM216.602 153.884C218.418 153.884 219.7 152.853 219.709 151.438C219.7 150.339 218.929 149.414 217.953 149.24V149.188C218.801 148.984 219.376 148.187 219.385 147.245C219.376 145.911 218.2 144.919 216.602 144.919C214.987 144.919 213.811 145.911 213.82 147.245C213.811 148.183 214.386 148.984 215.251 149.188V149.24C214.258 149.414 213.487 150.339 213.496 151.438C213.487 152.853 214.77 153.884 216.602 153.884ZM216.602 152.806C215.511 152.806 214.821 152.227 214.829 151.353C214.821 150.446 215.571 149.798 216.602 149.798C217.616 149.798 218.366 150.446 218.375 151.353C218.366 152.227 217.68 152.806 216.602 152.806ZM216.602 148.745C215.72 148.745 215.094 148.187 215.102 147.356C215.094 146.538 215.699 145.997 216.602 145.997C217.489 145.997 218.094 146.538 218.102 147.356C218.094 148.187 217.472 148.745 216.602 148.745ZM223.985 153.91C226.001 153.91 227.181 152.265 227.181 149.406C227.181 146.568 225.984 144.919 223.985 144.919C221.982 144.919 220.789 146.563 220.785 149.406C220.785 152.261 221.965 153.906 223.985 153.91ZM223.985 152.772C222.805 152.772 222.093 151.588 222.093 149.406C222.098 147.232 222.809 146.035 223.985 146.035C225.157 146.035 225.873 147.232 225.873 149.406C225.873 151.588 225.161 152.772 223.985 152.772ZM200.134 180.765H201.51L205.307 173.205V172.038H199.537V173.167H203.943V173.231L200.134 180.765ZM209.36 180.884C211.184 180.902 212.394 179.589 212.39 177.914C212.394 176.244 211.179 175.046 209.667 175.046C208.746 175.046 207.949 175.49 207.502 176.227H207.438C207.442 174.224 208.192 173.052 209.47 173.052C210.31 173.052 210.838 173.559 211.017 174.305H212.317C212.117 172.903 211.03 171.897 209.47 171.897C207.442 171.897 206.176 173.64 206.176 176.696C206.176 179.909 207.809 180.872 209.36 180.884ZM209.355 179.777C208.341 179.777 207.6 178.924 207.6 177.944C207.604 176.968 208.38 176.116 209.385 176.116C210.382 176.116 211.115 176.921 211.111 177.931C211.115 178.963 210.353 179.777 209.355 179.777ZM213.47 179.061H217.608V180.765H218.865V179.061H220.02V177.944H218.865V172.038H217.241L213.47 177.995V179.061ZM217.616 177.944H214.851V177.876L217.548 173.606H217.616V177.944ZM224.255 180.91C226.27 180.91 227.451 179.265 227.451 176.406C227.451 173.568 226.253 171.919 224.255 171.919C222.252 171.919 221.059 173.563 221.055 176.406C221.055 179.261 222.235 180.906 224.255 180.91ZM224.255 179.772C223.074 179.772 222.363 178.588 222.363 176.406C222.367 174.232 223.079 173.035 224.255 173.035C225.427 173.035 226.143 174.232 226.143 176.406C226.143 178.588 225.431 179.772 224.255 179.772ZM200.134 207.765H201.51L205.307 200.205V199.038H199.537V200.167H203.943V200.231L200.134 207.765ZM209.339 207.884C211.121 207.884 212.429 206.819 212.425 205.37C212.429 204.267 211.76 203.474 210.601 203.295V203.227C211.513 202.992 212.105 202.277 212.101 201.296C212.105 200.014 211.053 198.919 209.374 198.919C207.771 198.919 206.484 199.886 206.442 201.305H207.716C207.746 200.504 208.5 200.018 209.356 200.018C210.247 200.018 210.831 200.559 210.827 201.365C210.831 202.208 210.153 202.762 209.186 202.762H208.449V203.836H209.186C210.396 203.836 211.095 204.45 211.095 205.328C211.095 206.176 210.358 206.751 209.331 206.751C208.385 206.751 207.648 206.265 207.597 205.49H206.258C206.314 206.913 207.575 207.884 209.339 207.884ZM216.785 207.884C218.567 207.884 219.875 206.819 219.871 205.37C219.875 204.267 219.206 203.474 218.047 203.295V203.227C218.959 202.992 219.551 202.277 219.547 201.296C219.551 200.014 218.498 198.919 216.82 198.919C215.217 198.919 213.93 199.886 213.888 201.305H215.162C215.192 200.504 215.946 200.018 216.802 200.018C217.693 200.018 218.277 200.559 218.273 201.365C218.277 202.208 217.599 202.762 216.632 202.762H215.895V203.836H216.632C217.842 203.836 218.541 204.45 218.541 205.328C218.541 206.176 217.804 206.751 216.777 206.751C215.831 206.751 215.094 206.265 215.043 205.49H213.704C213.76 206.913 215.021 207.884 216.785 207.884ZM224.231 207.91C226.247 207.91 227.427 206.265 227.427 203.406C227.427 200.568 226.23 198.919 224.231 198.919C222.229 198.919 221.035 200.563 221.031 203.406C221.031 206.261 222.212 207.906 224.231 207.91ZM224.231 206.772C223.051 206.772 222.339 205.588 222.339 203.406C222.344 201.232 223.055 200.035 224.231 200.035C225.403 200.035 226.119 201.232 226.119 203.406C226.119 205.588 225.408 206.772 224.231 206.772ZM202.741 225.897C200.909 225.884 199.712 227.197 199.712 228.867C199.712 230.538 200.922 231.74 202.435 231.74C203.359 231.74 204.152 231.288 204.599 230.555H204.668C204.663 232.562 203.909 233.734 202.631 233.734C201.795 233.734 201.259 233.223 201.088 232.477H199.788C199.98 233.887 201.071 234.884 202.631 234.884C204.659 234.884 205.925 233.142 205.929 230.086C205.925 226.877 204.297 225.91 202.741 225.897ZM202.746 227.005C203.756 227.005 204.501 227.862 204.501 228.838C204.501 229.813 203.717 230.666 202.72 230.666C201.719 230.666 200.99 229.865 200.99 228.85C200.99 227.819 201.744 227.005 202.746 227.005ZM210.227 234.884C212.051 234.902 213.261 233.589 213.257 231.914C213.261 230.244 212.046 229.046 210.534 229.046C209.613 229.046 208.816 229.49 208.369 230.227H208.305C208.309 228.224 209.059 227.052 210.338 227.052C211.177 227.052 211.706 227.559 211.885 228.305H213.184C212.984 226.903 211.897 225.897 210.338 225.897C208.309 225.897 207.044 227.64 207.044 230.696C207.044 233.909 208.676 234.872 210.227 234.884ZM210.223 233.777C209.208 233.777 208.467 232.924 208.467 231.944C208.471 230.968 209.247 230.116 210.252 230.116C211.25 230.116 211.983 230.921 211.978 231.931C211.983 232.963 211.22 233.777 210.223 233.777ZM217.401 234.884C219.157 234.884 220.41 233.644 220.405 231.944C220.41 230.257 219.234 229.029 217.644 229.029C216.996 229.029 216.396 229.277 216.055 229.609H216.003L216.28 227.167H219.984V226.038H215.185L214.695 230.436L215.901 230.615C216.229 230.321 216.817 230.12 217.346 230.12C218.381 230.129 219.131 230.904 219.131 231.97C219.131 233.018 218.403 233.777 217.401 233.777C216.557 233.777 215.888 233.24 215.82 232.49H214.542C214.593 233.879 215.799 234.884 217.401 234.884ZM203.151 253.038H201.868L199.69 254.461V255.723L201.778 254.359H201.83V261.765H203.151V253.038ZM205.04 260.061H209.178V261.765H210.435V260.061H211.589V258.944H210.435V253.038H208.811L205.04 258.995V260.061ZM209.186 258.944H206.42V258.876L209.118 254.606H209.186V258.944ZM215.667 261.884C217.422 261.884 218.675 260.644 218.671 258.944C218.675 257.257 217.499 256.029 215.91 256.029C215.262 256.029 214.661 256.277 214.32 256.609H214.269L214.546 254.167H218.249V253.038H213.451L212.961 257.436L214.167 257.615C214.495 257.321 215.083 257.12 215.611 257.12C216.647 257.129 217.397 257.904 217.397 258.97C217.397 260.018 216.668 260.777 215.667 260.777C214.823 260.777 214.154 260.24 214.086 259.49H212.807C212.859 260.879 214.065 261.884 215.667 261.884ZM202.878 288.884C204.659 288.884 205.967 287.819 205.963 286.37C205.967 285.267 205.298 284.474 204.139 284.295V284.227C205.051 283.992 205.643 283.277 205.639 282.296C205.643 281.014 204.591 279.919 202.912 279.919C201.31 279.919 200.023 280.886 199.98 282.305H201.254C201.284 281.504 202.038 281.018 202.895 281.018C203.786 281.018 204.369 281.559 204.365 282.365C204.369 283.208 203.692 283.762 202.724 283.762H201.987V284.836H202.724C203.935 284.836 204.634 285.45 204.634 286.328C204.634 287.176 203.896 287.751 202.869 287.751C201.923 287.751 201.186 287.265 201.135 286.49H199.797C199.852 287.913 201.114 288.884 202.878 288.884ZM210.324 288.91C212.339 288.91 213.52 287.265 213.52 284.406C213.52 281.568 212.322 279.919 210.324 279.919C208.321 279.919 207.128 281.563 207.124 284.406C207.124 287.261 208.304 288.906 210.324 288.91ZM210.324 287.772C209.143 287.772 208.432 286.588 208.432 284.406C208.436 282.232 209.148 281.035 210.324 281.035C211.496 281.035 212.212 282.232 212.212 284.406C212.212 286.588 211.5 287.772 210.324 287.772ZM202.886 315.884C204.71 315.902 205.92 314.589 205.916 312.914C205.92 311.244 204.706 310.046 203.193 310.046C202.273 310.046 201.476 310.49 201.028 311.227H200.964C200.969 309.224 201.719 308.052 202.997 308.052C203.837 308.052 204.365 308.559 204.544 309.305H205.844C205.643 307.903 204.557 306.897 202.997 306.897C200.969 306.897 199.703 308.64 199.703 311.696C199.703 314.909 201.335 315.872 202.886 315.884ZM202.882 314.777C201.868 314.777 201.126 313.924 201.126 312.944C201.131 311.968 201.906 311.116 202.912 311.116C203.909 311.116 204.642 311.921 204.638 312.931C204.642 313.963 203.879 314.777 202.882 314.777Z" fill="black"/>
<path d="M574 154H253C250.239 154 248 151.761 248 149V148C248 145.239 250.239 143 253 143H574C576.761 143 579 145.239 579 148V149C579 151.761 576.761 154 574 154Z" fill="#FFC476"/>
<path d="M562 181H253C250.239 181 248 178.761 248 176V175C248 172.239 250.239 170 253 170H562C564.761 170 567 172.239 567 175V176C567 178.761 564.761 181 562 181Z" fill="#FFC476"/>
<path d="M438 208H253C250.239 208 248 205.761 248 203V202C248 199.239 250.239 197 253 197H438C440.761 197 443 199.239 443 202V203C443 205.761 440.761 208 438 208Z" fill="#FFC476"/>
<path d="M314 235H253C250.239 235 248 232.761 248 230V229C248 226.239 250.239 224 253 224H314C316.761 224 319 226.239 319 229V230C319 232.761 316.761 235 314 235Z" fill="#FFC476"/>
<path d="M297 262H253C250.239 262 248 259.761 248 257V256C248 253.239 250.239 251 253 251H297C299.761 251 302 253.239 302 256V257C302 259.761 299.761 262 297 262Z" fill="#FFC476"/>
<path d="M297 289H253C250.239 289 248 286.761 248 284V283C248 280.239 250.239 278 253 278H297C299.761 278 302 280.239 302 283V284C302 286.761 299.761 289 297 289Z" fill="#FFC476"/>
<path d="M268 316H253C250.239 316 248 313.761 248 311V310C248 307.239 250.239 305 253 305H268C270.761 305 273 307.239 273 310V311C273 313.761 270.761 316 268 316Z" fill="#FFC476"/>
</svg>
