<svg width="269" height="412" viewBox="0 0 269 412" fill="none" xmlns="http://www.w3.org/2000/svg">
<path d="M0 25C0 11.1929 11.1929 0 25 0H244C257.807 0 269 11.1929 269 25V387C269 400.807 257.807 412 244 412H25C11.1929 412 0 400.807 0 387V25Z" fill="#F3F5F7"/>
<path d="M269 387C269 400.807 257.807 412 244 412L25 412C11.1929 412 9.78513e-07 400.807 2.18557e-06 387L1.18895e-05 276L269 276L269 387Z" fill="#E8EAEC"/>
<path d="M55.677 329H60.0293C62.7906 329 64.5065 327.483 64.5065 325.284C64.5065 323.08 62.7906 321.665 60.0293 321.665H58.1372V319.392H63.3986V317.364H55.677V329ZM58.1372 327.023V323.608H60.0293C61.3474 323.608 62.069 324.335 62.069 325.261C62.069 326.216 61.3474 327.023 60.0293 327.023H58.1372ZM68.142 329.165C69.4318 329.165 70.267 328.602 70.6932 327.79H70.7614V329H73.0568V323.114C73.0568 321.034 71.2955 320.159 69.3523 320.159C67.2614 320.159 65.8864 321.159 65.5511 322.75L67.7898 322.932C67.9545 322.352 68.4716 321.926 69.3409 321.926C70.1648 321.926 70.6364 322.341 70.6364 323.057V323.091C70.6364 323.653 70.0398 323.727 68.5227 323.875C66.7955 324.034 65.2443 324.614 65.2443 326.562C65.2443 328.29 66.4773 329.165 68.142 329.165ZM68.8352 327.494C68.0909 327.494 67.5568 327.148 67.5568 326.483C67.5568 325.801 68.1193 325.466 68.9716 325.347C69.5 325.273 70.3636 325.148 70.6534 324.955V325.881C70.6534 326.795 69.8977 327.494 68.8352 327.494ZM74.0858 326.528C74.1483 328.233 75.6881 329.17 77.7847 329.17C79.9324 329.17 81.4722 328.205 81.4722 326.58C81.4722 325.364 80.6028 324.602 79.5347 324.534V324.443C80.6199 324.182 81.2619 323.545 81.2619 322.619C81.2619 321.097 79.9438 320.159 77.8074 320.159C75.8528 320.159 74.3358 321.148 74.3188 322.716H76.654C76.671 322.205 77.1938 321.847 77.9153 321.847C78.6313 321.847 79.0801 322.244 79.0801 322.83C79.0801 323.358 78.6597 323.744 77.9097 323.744H76.654V325.33H77.9097C78.6653 325.33 79.171 325.761 79.171 326.392C79.171 327.085 78.5631 327.46 77.7733 327.46C76.9949 327.46 76.4551 327.108 76.4324 326.528H74.0858ZM86.4997 329.17C89.1474 329.17 90.7952 327.358 90.7952 324.67C90.7952 321.966 89.1474 320.159 86.4997 320.159C83.852 320.159 82.2043 321.966 82.2043 324.67C82.2043 327.358 83.852 329.17 86.4997 329.17ZM86.5111 327.295C85.2895 327.295 84.6645 326.176 84.6645 324.653C84.6645 323.131 85.2895 322.006 86.5111 322.006C87.7099 322.006 88.3349 323.131 88.3349 324.653C88.3349 326.176 87.7099 327.295 86.5111 327.295ZM91.969 329H96.2645C98.4463 329 99.6622 328.108 99.6622 326.619C99.6622 325.472 98.7531 324.562 97.1849 324.449C98.4349 324.233 99.1793 323.574 99.1793 322.631C99.1793 321.119 97.844 320.273 95.6906 320.273H91.969V329ZM94.2247 327.188V325.284H96.2645C96.9349 325.284 97.344 325.665 97.344 326.284C97.344 326.847 96.9349 327.188 96.2645 327.188H94.2247ZM94.2247 323.864V322.125H95.6906C96.4406 322.125 96.9009 322.449 96.9009 322.983C96.9009 323.534 96.4634 323.864 95.7418 323.864H94.2247ZM103.1 322.955V320.273H100.788V329H104.913C107.225 329 108.583 327.79 108.589 325.989C108.583 324.153 107.225 322.955 104.913 322.955H103.1ZM109.526 329H111.947V320.273H109.526V329ZM103.1 324.858H104.913C105.725 324.858 106.299 325.335 106.311 326.006C106.299 326.642 105.725 327.097 104.913 327.097H103.1V324.858ZM117.459 329.17C119.618 329.17 121.072 328.119 121.413 326.5L119.175 326.352C118.93 327.017 118.305 327.364 117.499 327.364C116.288 327.364 115.521 326.562 115.521 325.261V325.256H121.464V324.591C121.464 321.625 119.669 320.159 117.362 320.159C114.794 320.159 113.129 321.983 113.129 324.676C113.129 327.443 114.771 329.17 117.459 329.17ZM115.521 323.756C115.572 322.761 116.328 321.966 117.402 321.966C118.453 321.966 119.18 322.716 119.186 323.756H115.521ZM125.947 329H128.231V322.176H131.265V329H133.578V320.273H125.947V329ZM139.053 329.17C141.701 329.17 143.348 327.358 143.348 324.67C143.348 321.966 141.701 320.159 139.053 320.159C136.405 320.159 134.757 321.966 134.757 324.67C134.757 327.358 136.405 329.17 139.053 329.17ZM139.064 327.295C137.843 327.295 137.218 326.176 137.218 324.653C137.218 323.131 137.843 322.006 139.064 322.006C140.263 322.006 140.888 323.131 140.888 324.653C140.888 326.176 140.263 327.295 139.064 327.295ZM144.522 329H146.943V325.903H147.846L149.999 329H152.874L149.755 324.602L152.84 320.273H149.999L147.624 323.659H146.943V320.273H144.522V329ZM155.986 329.165C157.276 329.165 158.111 328.602 158.537 327.79H158.605V329H160.901V323.114C160.901 321.034 159.139 320.159 157.196 320.159C155.105 320.159 153.73 321.159 153.395 322.75L155.634 322.932C155.798 322.352 156.315 321.926 157.185 321.926C158.009 321.926 158.48 322.341 158.48 323.057V323.091C158.48 323.653 157.884 323.727 156.366 323.875C154.639 324.034 153.088 324.614 153.088 326.562C153.088 328.29 154.321 329.165 155.986 329.165ZM156.679 327.494C155.935 327.494 155.401 327.148 155.401 326.483C155.401 325.801 155.963 325.466 156.815 325.347C157.344 325.273 158.207 325.148 158.497 324.955V325.881C158.497 326.795 157.741 327.494 156.679 327.494ZM161.93 326.528C161.992 328.233 163.532 329.17 165.628 329.17C167.776 329.17 169.316 328.205 169.316 326.58C169.316 325.364 168.447 324.602 167.378 324.534V324.443C168.464 324.182 169.106 323.545 169.106 322.619C169.106 321.097 167.788 320.159 165.651 320.159C163.697 320.159 162.18 321.148 162.163 322.716H164.498C164.515 322.205 165.038 321.847 165.759 321.847C166.475 321.847 166.924 322.244 166.924 322.83C166.924 323.358 166.503 323.744 165.753 323.744H164.498V325.33H165.753C166.509 325.33 167.015 325.761 167.015 326.392C167.015 327.085 166.407 327.46 165.617 327.46C164.839 327.46 164.299 327.108 164.276 326.528H161.93ZM172.889 329.165C174.179 329.165 175.014 328.602 175.44 327.79H175.508V329H177.804V323.114C177.804 321.034 176.042 320.159 174.099 320.159C172.008 320.159 170.633 321.159 170.298 322.75L172.537 322.932C172.701 322.352 173.218 321.926 174.088 321.926C174.912 321.926 175.383 322.341 175.383 323.057V323.091C175.383 323.653 174.787 323.727 173.27 323.875C171.542 324.034 169.991 324.614 169.991 326.562C169.991 328.29 171.224 329.165 172.889 329.165ZM173.582 327.494C172.838 327.494 172.304 327.148 172.304 326.483C172.304 325.801 172.866 325.466 173.718 325.347C174.247 325.273 175.111 325.148 175.4 324.955V325.881C175.4 326.795 174.645 327.494 173.582 327.494ZM178.421 322.176H181.211V329H183.517V322.176H186.33V320.273H178.421V322.176ZM191.062 329.17C193.221 329.17 194.676 328.119 195.016 326.5L192.778 326.352C192.534 327.017 191.909 327.364 191.102 327.364C189.891 327.364 189.124 326.562 189.124 325.261V325.256H195.068V324.591C195.068 321.625 193.272 320.159 190.965 320.159C188.397 320.159 186.732 321.983 186.732 324.676C186.732 327.443 188.374 329.17 191.062 329.17ZM189.124 323.756C189.176 322.761 189.931 321.966 191.005 321.966C192.056 321.966 192.784 322.716 192.789 323.756H189.124ZM195.736 329H196.463C198.315 329 199.298 327.773 199.446 324.841L199.582 322.176H201.736V329H204.043V320.273H197.406L197.264 324.136C197.179 326.347 196.838 327.08 196.014 327.08H195.724L195.736 329ZM207.832 325.807V320.273H205.519V329H207.922L211.053 323.449V329H213.36V320.273H210.974L207.832 325.807Z" fill="black"/>
<path d="M41.5259 352.466H42.6992V350H49.8782V352.446H51.0515V348.906H49.8782V339.818H43.8327L43.614 344.114C43.4748 347.037 42.8583 348.29 42.1822 348.906H41.5259V352.466ZM43.6538 348.906C44.2702 347.932 44.668 346.341 44.7873 344.114L44.9464 340.912H48.7049V348.906H43.6538ZM55.6578 350.159C57.726 350.159 59.118 348.588 59.118 346.222C59.118 343.835 57.726 342.264 55.6578 342.264C53.5896 342.264 52.1975 343.835 52.1975 346.222C52.1975 348.588 53.5896 350.159 55.6578 350.159ZM55.6578 349.105C54.0868 349.105 53.3708 347.753 53.3708 346.222C53.3708 344.69 54.0868 343.318 55.6578 343.318C57.2288 343.318 57.9447 344.69 57.9447 346.222C57.9447 347.753 57.2288 349.105 55.6578 349.105ZM63.8113 350.159C65.5016 350.159 66.6153 349.125 66.8141 347.773H65.6408C65.4221 348.608 64.7261 349.105 63.8113 349.105C62.4192 349.105 61.5244 347.952 61.5244 346.182C61.5244 344.452 62.4391 343.318 63.8113 343.318C64.8454 343.318 65.4619 343.955 65.6408 344.651H66.8141C66.6153 343.219 65.4022 342.264 63.7914 342.264C61.7232 342.264 60.3511 343.895 60.3511 346.222C60.3511 348.509 61.6636 350.159 63.8113 350.159ZM67.7278 343.457H70.2533V350H71.4266V343.457H73.9323V342.364H67.7278V343.457ZM77.2945 350.179C78.6268 350.179 79.3229 349.463 79.5615 348.966H79.6212V350H80.7945V344.969C80.7945 342.543 78.945 342.264 77.9706 342.264C76.8172 342.264 75.5047 342.662 74.9081 344.054L76.0217 344.452C76.2803 343.895 76.8918 343.298 78.0104 343.298C79.0892 343.298 79.6212 343.87 79.6212 344.849V344.889C79.6212 345.456 79.0445 345.406 77.6524 345.585C76.2355 345.769 74.6893 346.082 74.6893 347.832C74.6893 349.324 75.8428 350.179 77.2945 350.179ZM77.4734 349.125C76.5388 349.125 75.8626 348.707 75.8626 347.892C75.8626 346.997 76.678 346.719 77.5928 346.599C78.0899 346.54 79.4223 346.401 79.6212 346.162V347.236C79.6212 348.19 78.8655 349.125 77.4734 349.125ZM82.736 350H86.3354C87.8865 350 88.8212 349.125 88.8212 347.952C88.8212 346.754 87.9114 346.107 87.0712 345.983C87.9313 345.804 88.5428 345.322 88.5428 344.392C88.5428 343.174 87.4988 342.364 85.8581 342.364H82.736V350ZM83.8496 348.926V346.58H86.3354C87.1408 346.58 87.628 347.062 87.628 347.852C87.628 348.518 87.1408 348.926 86.3354 348.926H83.8496ZM83.8496 345.565V343.438H85.8581C86.7978 343.438 87.3695 343.83 87.3695 344.472C87.3695 345.153 86.7978 345.565 85.8581 345.565H83.8496ZM89.7212 350H90.1189C91.8092 350 92.2965 348.688 92.4058 346.182L92.5251 343.457H95.3291V350H96.5024V342.364H91.4115L91.2723 345.744C91.1729 348.31 90.9143 348.906 89.9996 348.906H89.7212V350ZM103.049 350H104.162V342.364H101.02C99.3749 342.364 98.3756 343.224 98.3756 344.631C98.3756 345.68 98.9026 346.425 99.8223 346.739L97.958 350H99.2307L101.001 346.898H103.049V350ZM103.049 345.804H100.881C100.051 345.804 99.5489 345.362 99.5489 344.631C99.5489 343.89 100.106 343.438 101.02 343.438H103.049V345.804ZM109.318 350.159C110.869 350.159 112.003 349.384 112.361 348.23L111.227 347.912C110.929 348.707 110.238 349.105 109.318 349.105C107.941 349.105 106.991 348.215 106.937 346.58H112.48V346.082C112.48 343.239 110.79 342.264 109.199 342.264C107.131 342.264 105.758 343.895 105.758 346.241C105.758 348.588 107.111 350.159 109.318 350.159ZM106.937 345.565C107.016 344.377 107.857 343.318 109.199 343.318C110.472 343.318 111.287 344.273 111.287 345.565H106.937ZM118.241 348.409L115.616 342.364H114.065V350H115.238V344.049L117.764 350H118.718L121.244 344.158V350H122.417V342.364H120.906L118.241 348.409ZM127.467 350.159C129.535 350.159 130.927 348.588 130.927 346.222C130.927 343.835 129.535 342.264 127.467 342.264C125.399 342.264 124.007 343.835 124.007 346.222C124.007 348.588 125.399 350.159 127.467 350.159ZM127.467 349.105C125.896 349.105 125.18 347.753 125.18 346.222C125.18 344.69 125.896 343.318 127.467 343.318C129.038 343.318 129.754 344.69 129.754 346.222C129.754 347.753 129.038 349.105 127.467 349.105ZM135.621 350.159C137.311 350.159 138.425 349.125 138.624 347.773H137.45C137.231 348.608 136.535 349.105 135.621 349.105C134.229 349.105 133.334 347.952 133.334 346.182C133.334 344.452 134.249 343.318 135.621 343.318C136.655 343.318 137.271 343.955 137.45 344.651H138.624C138.425 343.219 137.212 342.264 135.601 342.264C133.533 342.264 132.16 343.895 132.16 346.222C132.16 348.509 133.473 350.159 135.621 350.159ZM139.537 343.457H142.063V350H143.236V343.457H145.742V342.364H139.537V343.457ZM148.426 345.128V342.364H147.253V350H150.455C152.245 350 153.219 348.906 153.219 347.534C153.219 346.142 152.245 345.128 150.455 345.128H148.426ZM148.426 346.222H150.455C151.385 346.222 152.046 346.788 152.046 347.594C152.046 348.364 151.385 348.906 150.455 348.906H148.426V346.222ZM156.555 348.608H155.282L155.223 349.165C155.079 350.512 154.795 351.854 154.666 352.486H155.561C155.799 351.81 156.307 350.278 156.476 349.145L156.555 348.608ZM165.369 350.159C167.437 350.159 168.829 348.588 168.829 346.222C168.829 343.835 167.437 342.264 165.369 342.264C163.301 342.264 161.908 343.835 161.908 346.222C161.908 348.588 163.301 350.159 165.369 350.159ZM165.369 349.105C163.798 349.105 163.082 347.753 163.082 346.222C163.082 344.69 163.798 343.318 165.369 343.318C166.94 343.318 167.656 344.69 167.656 346.222C167.656 347.753 166.94 349.105 165.369 349.105ZM169.422 343.457H171.947V350H173.121V343.457H175.626V342.364H169.422V343.457ZM177.138 350H178.311V346.778H179.365L181.871 350H183.382L180.26 346.043L183.342 342.364H181.831L179.087 345.685H178.311V342.364H177.138V350ZM184.457 352.864H185.631V348.827H185.73C185.989 349.244 186.486 350.159 187.957 350.159C189.867 350.159 191.199 348.628 191.199 346.202C191.199 343.795 189.867 342.264 187.938 342.264C186.446 342.264 185.989 343.179 185.73 343.577H185.591V342.364H184.457V352.864ZM185.611 346.182C185.611 344.472 186.367 343.318 187.798 343.318C189.29 343.318 190.026 344.571 190.026 346.182C190.026 347.812 189.27 349.105 187.798 349.105C186.386 349.105 185.611 347.912 185.611 346.182ZM193.962 345.128V342.364H192.789V350H195.99C197.78 350 198.755 348.906 198.755 347.534C198.755 346.142 197.78 345.128 195.99 345.128H193.962ZM199.968 350H201.141V342.364H199.968V350ZM193.962 346.222H195.99C196.92 346.222 197.581 346.788 197.581 347.594C197.581 348.364 196.92 348.906 195.99 348.906H193.962V346.222ZM202.651 343.457H205.177V350H206.35V343.457H208.856V342.364H202.651V343.457ZM211.541 348.27V342.364H210.367V350H211.739L215.398 344.094V350H216.572V342.364H215.22L211.541 348.27ZM223.114 350H224.228V342.364H221.086C219.44 342.364 218.441 343.224 218.441 344.631C218.441 345.68 218.968 346.425 219.888 346.739L218.024 350H219.296L221.066 346.898H223.114V350ZM223.114 345.804H220.947C220.117 345.804 219.614 345.362 219.614 344.631C219.614 343.89 220.171 343.438 221.086 343.438H223.114V345.804ZM227.932 348.608H226.659L226.6 349.165C226.456 350.512 226.172 351.854 226.043 352.486H226.938C227.176 351.81 227.683 350.278 227.853 349.145L227.932 348.608ZM41.6565 370H42.8298V363.457H46.4889V370H47.6622V362.364H41.6565V370ZM52.8066 370.159C54.3578 370.159 55.4913 369.384 55.8492 368.23L54.7157 367.912C54.4174 368.707 53.7264 369.105 52.8066 369.105C51.4295 369.105 50.4799 368.215 50.4252 366.58H55.9686V366.082C55.9686 363.239 54.2782 362.264 52.6873 362.264C50.6191 362.264 49.247 363.895 49.247 366.241C49.247 368.588 50.5992 370.159 52.8066 370.159ZM50.4252 365.565C50.5048 364.377 51.345 363.318 52.6873 363.318C53.96 363.318 54.7754 364.273 54.7754 365.565H50.4252ZM57.5534 372.864H58.7267V368.827H58.8261C59.0846 369.244 59.5818 370.159 61.0534 370.159C62.9624 370.159 64.2948 368.628 64.2948 366.202C64.2948 363.795 62.9624 362.264 61.0335 362.264C59.542 362.264 59.0846 363.179 58.8261 363.577H58.6869V362.364H57.5534V372.864ZM58.7068 366.182C58.7068 364.472 59.4624 363.318 60.8943 363.318C62.3857 363.318 63.1215 364.571 63.1215 366.182C63.1215 367.812 62.3659 369.105 60.8943 369.105C59.4823 369.105 58.7068 367.912 58.7068 366.182ZM69.0863 370.159C70.6374 370.159 71.771 369.384 72.1289 368.23L70.9954 367.912C70.6971 368.707 70.0061 369.105 69.0863 369.105C67.7092 369.105 66.7596 368.215 66.7049 366.58H72.2482V366.082C72.2482 363.239 70.5579 362.264 68.967 362.264C66.8988 362.264 65.5267 363.895 65.5267 366.241C65.5267 368.588 66.8789 370.159 69.0863 370.159ZM66.7049 365.565C66.7845 364.377 67.6247 363.318 68.967 363.318C70.2397 363.318 71.0551 364.273 71.0551 365.565H66.7049ZM74.503 362.364H73.1507L75.5768 366.182L73.1507 370H74.503L76.3325 367.037L78.1621 370H79.5143L77.0484 366.182L79.5143 362.364H78.1621L76.3325 365.486L74.503 362.364ZM83.7763 370.159C85.8445 370.159 87.2366 368.588 87.2366 366.222C87.2366 363.835 85.8445 362.264 83.7763 362.264C81.7082 362.264 80.3161 363.835 80.3161 366.222C80.3161 368.588 81.7082 370.159 83.7763 370.159ZM83.7763 369.105C82.2053 369.105 81.4894 367.753 81.4894 366.222C81.4894 364.69 82.2053 363.318 83.7763 363.318C85.3474 363.318 86.0633 364.69 86.0633 366.222C86.0633 367.753 85.3474 369.105 83.7763 369.105ZM88.0122 372.188H89.1855V370H94.8333V372.188H96.0065V368.906H94.8333V362.364H89.981L89.7225 365.386C89.5385 367.524 89.2651 368.26 88.6486 368.906H88.0122V372.188ZM89.981 368.906C90.5179 368.2 90.7118 366.982 90.8759 365.386L91.0747 363.457H93.66V368.906H89.981ZM98.5372 365.128V362.364H97.3639V370H100.566C102.355 370 103.33 368.906 103.33 367.534C103.33 366.142 102.355 365.128 100.566 365.128H98.5372ZM104.543 370H105.716V362.364H104.543V370ZM98.5372 366.222H100.566C101.495 366.222 102.157 366.788 102.157 367.594C102.157 368.364 101.495 368.906 100.566 368.906H98.5372V366.222ZM109.414 368.608H108.141L108.082 369.165C107.937 370.512 107.654 371.854 107.525 372.486H108.42C108.658 371.81 109.165 370.278 109.334 369.145L109.414 368.608ZM118.228 370.159C120.296 370.159 121.688 368.588 121.688 366.222C121.688 363.835 120.296 362.264 118.228 362.264C116.159 362.264 114.767 363.835 114.767 366.222C114.767 368.588 116.159 370.159 118.228 370.159ZM118.228 369.105C116.656 369.105 115.941 367.753 115.941 366.222C115.941 364.69 116.656 363.318 118.228 363.318C119.799 363.318 120.514 364.69 120.514 366.222C120.514 367.753 119.799 369.105 118.228 369.105ZM122.281 363.457H124.806V370H125.98V363.457H128.485V362.364H122.281V363.457ZM129.997 370H131.17V363.457H134.829V370H136.002V362.364H129.997V370ZM139.118 368.27V362.364H137.945V370H139.317L142.976 364.094V370H144.15V362.364H142.797L139.118 368.27ZM149.201 370.159C150.891 370.159 152.005 369.125 152.204 367.773H151.03C150.812 368.608 150.116 369.105 149.201 369.105C147.809 369.105 146.914 367.952 146.914 366.182C146.914 364.452 147.829 363.318 149.201 363.318C150.235 363.318 150.852 363.955 151.03 364.651H152.204C152.005 363.219 150.792 362.264 149.181 362.264C147.113 362.264 145.741 363.895 145.741 366.222C145.741 368.509 147.053 370.159 149.201 370.159ZM153.719 370H154.892V366.778H155.946L158.452 370H159.963L156.841 366.043L159.924 362.364H158.412L155.668 365.685H154.892V362.364H153.719V370ZM162.212 368.27V362.364H161.039V370H162.411L166.07 364.094V370H167.243V362.364H165.891L162.212 368.27ZM170.942 368.608H169.669L169.61 369.165C169.465 370.512 169.182 371.854 169.053 372.486H169.948C170.186 371.81 170.693 370.278 170.862 369.145L170.942 368.608ZM176.176 370H177.588L180.193 366.719H180.79V370H181.963V366.719H182.56L185.145 370H186.557L183.474 366.122L186.517 362.364H185.125L182.579 365.625H181.963V362.364H180.79V365.625H180.153L177.608 362.364H176.216L179.278 366.122L176.176 370ZM190.281 370.179C191.613 370.179 192.309 369.463 192.548 368.966H192.607V370H193.781V364.969C193.781 362.543 191.931 362.264 190.957 362.264C189.803 362.264 188.491 362.662 187.894 364.054L189.008 364.452C189.266 363.895 189.878 363.298 190.996 363.298C192.075 363.298 192.607 363.87 192.607 364.849V364.889C192.607 365.456 192.031 365.406 190.639 365.585C189.222 365.769 187.675 366.082 187.675 367.832C187.675 369.324 188.829 370.179 190.281 370.179ZM190.46 369.125C189.525 369.125 188.849 368.707 188.849 367.892C188.849 366.997 189.664 366.719 190.579 366.599C191.076 366.54 192.408 366.401 192.607 366.162V367.236C192.607 368.19 191.852 369.125 190.46 369.125ZM195.046 370H195.444C197.134 370 197.621 368.688 197.731 366.182L197.85 363.457H200.654V370H201.827V362.364H196.736L196.597 365.744C196.498 368.31 196.239 368.906 195.324 368.906H195.046V370ZM206.882 370.159C208.95 370.159 210.342 368.588 210.342 366.222C210.342 363.835 208.95 362.264 206.882 362.264C204.814 362.264 203.422 363.835 203.422 366.222C203.422 368.588 204.814 370.159 206.882 370.159ZM206.882 369.105C205.311 369.105 204.595 367.753 204.595 366.222C204.595 364.69 205.311 363.318 206.882 363.318C208.453 363.318 209.169 364.69 209.169 366.222C209.169 367.753 208.453 369.105 206.882 369.105ZM217.601 359.5C217.228 359.813 216.671 359.813 215.891 359.808C215.637 359.808 215.359 359.808 215.056 359.818C212.729 359.878 211.575 361.648 211.575 365.048V365.864C211.575 368.688 212.948 370.159 214.996 370.159C217.039 370.159 218.396 368.678 218.396 366.281C218.396 363.875 217.019 362.602 215.235 362.602C214.186 362.602 213.206 363.04 212.689 363.994H212.59C212.749 362.026 213.485 360.972 215.075 360.912C216.487 360.852 217.502 360.892 218.198 360.216L217.601 359.5ZM214.996 369.105C213.604 369.105 212.749 367.991 212.749 366.281C212.774 364.611 213.614 363.656 214.976 363.656C216.373 363.656 217.223 364.611 217.223 366.281C217.223 368.001 216.378 369.105 214.996 369.105ZM221.165 365.128V362.364H219.991V370H223.193C224.983 370 225.957 368.906 225.957 367.534C225.957 366.142 224.983 365.128 223.193 365.128H221.165ZM227.17 370H228.344V362.364H227.17V370ZM221.165 366.222H223.193C224.123 366.222 224.784 366.788 224.784 367.594C224.784 368.364 224.123 368.906 223.193 368.906H221.165V366.222Z" fill="black"/>
<path opacity="0.5" d="M20.799 123H23.5866C25.277 123 26.0405 122.158 26.0405 121.043C26.0405 119.918 25.2521 119.282 24.5312 119.243V119.172C25.1989 119.001 25.7564 118.547 25.7564 117.638C25.7564 116.562 25.0107 115.727 23.4624 115.727H20.799V123ZM21.8963 122.059V119.729H23.5192C24.3999 119.729 24.9503 120.298 24.9503 120.99C24.9503 121.601 24.5348 122.059 23.4801 122.059H21.8963ZM21.8963 118.874V116.661H23.3949C24.2649 116.661 24.6804 117.119 24.6804 117.723C24.6804 118.426 24.1051 118.874 23.3665 118.874H21.8963ZM29.2659 123.11C30.555 123.11 31.3895 122.336 31.5067 121.274H30.4733C30.3384 121.864 29.8803 122.212 29.273 122.212C28.3746 122.212 27.7958 121.462 27.7958 120.273C27.7958 119.104 28.3853 118.369 29.273 118.369C29.9478 118.369 30.3597 118.795 30.4733 119.307H31.5067C31.3931 118.206 30.4946 117.474 29.2553 117.474C27.7176 117.474 26.7233 118.632 26.7233 120.298C26.7233 121.942 27.6821 123.11 29.2659 123.11ZM34.7046 123.11C35.8943 123.11 36.7359 122.524 36.9774 121.636L35.9724 121.455C35.7806 121.97 35.319 122.233 34.7153 122.233C33.8062 122.233 33.1954 121.643 33.167 120.592H37.0448V120.216C37.0448 118.245 35.8659 117.474 34.6301 117.474C33.1102 117.474 32.1088 118.632 32.1088 120.308C32.1088 122.002 33.096 123.11 34.7046 123.11ZM33.1705 119.797C33.2132 119.023 33.7742 118.352 34.6372 118.352C35.461 118.352 36.0008 118.962 36.0044 119.797H33.1705ZM41.4217 117.545H37.9345V123H38.9821V118.462H41.4217V117.545ZM44.2992 123.11C45.8368 123.11 46.8418 121.984 46.8418 120.298C46.8418 118.6 45.8368 117.474 44.2992 117.474C42.7615 117.474 41.7566 118.6 41.7566 120.298C41.7566 121.984 42.7615 123.11 44.2992 123.11ZM44.3027 122.219C43.2978 122.219 42.829 121.342 42.829 120.294C42.829 119.25 43.2978 118.362 44.3027 118.362C45.3006 118.362 45.7694 119.25 45.7694 120.294C45.7694 121.342 45.3006 122.219 44.3027 122.219ZM27.1165 140.364C27.1165 138.038 25.7244 136.628 23.8423 136.628C21.9531 136.628 20.5646 138.038 20.5646 140.364C20.5646 142.686 21.9531 144.099 23.8423 144.099C25.7244 144.099 27.1165 142.69 27.1165 140.364ZM26.0298 140.364C26.0298 142.136 25.0923 143.098 23.8423 143.098C22.5888 143.098 21.6548 142.136 21.6548 140.364C21.6548 138.592 22.5888 137.629 23.8423 137.629C25.0923 137.629 26.0298 138.592 26.0298 140.364ZM27.8055 139.462H29.5918V144H30.6287V139.462H32.4078V138.545H27.8055V139.462ZM33.2425 144H34.2758V139.462H36.6515V144H37.692V138.545H33.2425V144ZM38.8232 146.045H39.885V143.151H39.9489C40.1407 143.499 40.5313 144.107 41.5256 144.107C42.8466 144.107 43.8054 143.048 43.8054 141.283C43.8054 139.515 42.8324 138.474 41.515 138.474C40.5029 138.474 40.1371 139.092 39.9489 139.43H39.8601V138.545H38.8232V146.045ZM39.8637 141.273C39.8637 140.133 40.3608 139.376 41.2877 139.376C42.25 139.376 42.733 140.19 42.733 141.273C42.733 142.366 42.2358 143.201 41.2877 143.201C40.375 143.201 39.8637 142.42 39.8637 141.273ZM46.294 144.121C47.196 144.121 47.7038 143.663 47.9063 143.254H47.9489V144H48.9858V140.378C48.9858 138.79 47.7358 138.474 46.8693 138.474C45.8821 138.474 44.973 138.872 44.6179 139.866L45.6158 140.094C45.772 139.707 46.1697 139.334 46.8835 139.334C47.5689 139.334 47.9205 139.692 47.9205 140.31V140.335C47.9205 140.722 47.5227 140.715 46.5426 140.829C45.5092 140.95 44.451 141.219 44.451 142.459C44.451 143.531 45.2571 144.121 46.294 144.121ZM46.5249 143.268C45.9247 143.268 45.4915 142.999 45.4915 142.473C45.4915 141.905 45.9957 141.702 46.6101 141.621C46.9546 141.575 47.7713 141.482 47.924 141.33V142.033C47.924 142.679 47.4091 143.268 46.5249 143.268ZM50.1116 144H52.7182C53.9114 144 54.6109 143.396 54.6109 142.53C54.6109 141.72 53.9895 141.223 53.2615 141.138C53.9327 141.01 54.3766 140.641 54.3766 140.001C54.3766 139.107 53.6024 138.545 52.3737 138.545H50.1116V144ZM51.1095 143.112V141.596H52.7182C53.2437 141.596 53.5598 141.905 53.5598 142.413C53.5598 142.846 53.2437 143.112 52.7182 143.112H51.1095ZM51.1095 140.818V139.444H52.3737C52.9774 139.444 53.3432 139.696 53.3432 140.115C53.3432 140.552 52.981 140.818 52.3844 140.818H51.1095ZM55.0576 144H55.3985C56.5882 144 57.025 143.119 57.1102 141.315L57.1954 139.462H58.9781V144H60.0186V138.545H56.2117L56.1159 140.96C56.0484 142.643 55.8566 143.08 55.2494 143.08H55.0541L55.0576 144ZM63.497 144.11C64.6867 144.11 65.5283 143.524 65.7698 142.636L64.7648 142.455C64.573 142.97 64.1114 143.233 63.5077 143.233C62.5986 143.233 61.9878 142.643 61.9594 141.592H65.8372V141.216C65.8372 139.245 64.6583 138.474 63.4225 138.474C61.9026 138.474 60.9012 139.632 60.9012 141.308C60.9012 143.002 61.8884 144.11 63.497 144.11ZM61.9629 140.797C62.0056 140.023 62.5666 139.352 63.4296 139.352C64.2534 139.352 64.7932 139.962 64.7968 140.797H61.9629ZM67.7674 138.545H66.7269V144H67.7674V141.734H70.1289V144H71.1658V138.545H70.1289V140.815H67.7674V138.545ZM74.5955 144.11C76.1331 144.11 77.1381 142.984 77.1381 141.298C77.1381 139.6 76.1331 138.474 74.5955 138.474C73.0579 138.474 72.0529 139.6 72.0529 141.298C72.0529 142.984 73.0579 144.11 74.5955 144.11ZM74.599 143.219C73.5941 143.219 73.1253 142.342 73.1253 141.294C73.1253 140.25 73.5941 139.362 74.599 139.362C75.5969 139.362 76.0657 140.25 76.0657 141.294C76.0657 142.342 75.5969 143.219 74.599 143.219ZM20.2486 166.758H21.2997V165H26.1825V166.747H27.2337V164.07H26.4098V157.727H21.9247L21.7543 160.799C21.6442 162.823 21.2145 163.658 20.728 164.07H20.2486V166.758ZM22.0206 164.07C22.4361 163.406 22.7166 162.337 22.8054 160.799L22.919 158.672H25.3587V164.07H22.0206ZM30.3597 165.11C31.8973 165.11 32.9023 163.984 32.9023 162.298C32.9023 160.6 31.8973 159.474 30.3597 159.474C28.822 159.474 27.8171 160.6 27.8171 162.298C27.8171 163.984 28.822 165.11 30.3597 165.11ZM30.3632 164.219C29.3583 164.219 28.8895 163.342 28.8895 162.294C28.8895 161.25 29.3583 160.362 30.3632 160.362C31.3611 160.362 31.8299 161.25 31.8299 162.294C31.8299 163.342 31.3611 164.219 30.3632 164.219ZM36.0967 165.11C37.3857 165.11 38.2203 164.336 38.3374 163.274H37.3041C37.1691 163.864 36.711 164.212 36.1038 164.212C35.2053 164.212 34.6265 163.462 34.6265 162.273C34.6265 161.104 35.216 160.369 36.1038 160.369C36.7785 160.369 37.1904 160.795 37.3041 161.307H38.3374C38.2238 160.206 37.3254 159.474 36.086 159.474C34.5484 159.474 33.5541 160.632 33.5541 162.298C33.5541 163.942 34.5129 165.11 36.0967 165.11ZM38.7717 160.462H40.5579V165H41.5949V160.462H43.374V159.545H38.7717V160.462ZM45.5421 165.121C46.4441 165.121 46.9519 164.663 47.1543 164.254H47.1969V165H48.2338V161.378C48.2338 159.79 46.9838 159.474 46.1174 159.474C45.1302 159.474 44.2211 159.872 43.8659 160.866L44.8638 161.094C45.0201 160.707 45.4178 160.334 46.1316 160.334C46.8169 160.334 47.1685 160.692 47.1685 161.31V161.335C47.1685 161.722 46.7708 161.715 45.7907 161.829C44.7573 161.95 43.699 162.219 43.699 163.459C43.699 164.531 44.5052 165.121 45.5421 165.121ZM45.7729 164.268C45.1728 164.268 44.7395 163.999 44.7395 163.473C44.7395 162.905 45.2438 162.702 45.8581 162.621C46.2026 162.575 47.0194 162.482 47.1721 162.33V163.033C47.1721 163.679 46.6571 164.268 45.7729 164.268ZM49.3597 165H51.9662C53.1594 165 53.859 164.396 53.859 163.53C53.859 162.72 53.2375 162.223 52.5096 162.138C53.1807 162.01 53.6246 161.641 53.6246 161.001C53.6246 160.107 52.8505 159.545 51.6218 159.545H49.3597V165ZM50.3576 164.112V162.596H51.9662C52.4918 162.596 52.8078 162.905 52.8078 163.413C52.8078 163.846 52.4918 164.112 51.9662 164.112H50.3576ZM50.3576 161.818V160.444H51.6218C52.2255 160.444 52.5912 160.696 52.5912 161.115C52.5912 161.552 52.229 161.818 51.6324 161.818H50.3576ZM54.3057 165H54.6466C55.8362 165 56.273 164.119 56.3582 162.315L56.4435 160.462H58.2261V165H59.2666V159.545H55.4598L55.3639 161.96C55.2964 163.643 55.1047 164.08 54.4974 164.08H54.3021L54.3057 165ZM62.7451 165.11C63.9347 165.11 64.7763 164.524 65.0178 163.636L64.0128 163.455C63.8211 163.97 63.3594 164.233 62.7557 164.233C61.8466 164.233 61.2358 163.643 61.2074 162.592H65.0853V162.216C65.0853 160.245 63.9063 159.474 62.6705 159.474C61.1506 159.474 60.1492 160.632 60.1492 162.308C60.1492 164.002 61.1364 165.11 62.7451 165.11ZM61.211 161.797C61.2536 161.023 61.8147 160.352 62.6776 160.352C63.5015 160.352 64.0412 160.962 64.0448 161.797H61.211ZM67.0155 159.545H65.975V165H67.0155V162.734H69.377V165H70.4139V159.545H69.377V161.815H67.0155V159.545ZM73.8435 165.11C75.3812 165.11 76.3862 163.984 76.3862 162.298C76.3862 160.6 75.3812 159.474 73.8435 159.474C72.3059 159.474 71.3009 160.6 71.3009 162.298C71.3009 163.984 72.3059 165.11 73.8435 165.11ZM73.8471 164.219C72.8421 164.219 72.3734 163.342 72.3734 162.294C72.3734 161.25 72.8421 160.362 73.8471 160.362C74.845 160.362 75.3137 161.25 75.3137 162.294C75.3137 163.342 74.845 164.219 73.8471 164.219ZM26.4844 178.727H20.8736V186H21.9673V179.665H25.3906V186H26.4844V178.727ZM27.7887 188.045H28.8505V185.151H28.9144C29.1061 185.499 29.4968 186.107 30.4911 186.107C31.8121 186.107 32.7709 185.048 32.7709 183.283C32.7709 181.515 31.7979 180.474 30.4804 180.474C29.4684 180.474 29.1026 181.092 28.9144 181.43H28.8256V180.545H27.7887V188.045ZM28.8291 183.273C28.8291 182.133 29.3263 181.376 30.2532 181.376C31.2155 181.376 31.6985 182.19 31.6985 183.273C31.6985 184.366 31.2013 185.201 30.2532 185.201C29.3405 185.201 28.8291 184.42 28.8291 183.273ZM35.9697 186.11C37.5074 186.11 38.5123 184.984 38.5123 183.298C38.5123 181.6 37.5074 180.474 35.9697 180.474C34.4321 180.474 33.4271 181.6 33.4271 183.298C33.4271 184.984 34.4321 186.11 35.9697 186.11ZM35.9733 185.219C34.9683 185.219 34.4996 184.342 34.4996 183.294C34.4996 182.25 34.9683 181.362 35.9733 181.362C36.9711 181.362 37.4399 182.25 37.4399 183.294C37.4399 184.342 36.9711 185.219 35.9733 185.219ZM43.7877 180.545H42.7508V183.262C42.3921 183.358 42.0299 183.415 41.6144 183.415C40.89 183.415 40.4425 183.088 40.4425 182.317V180.535H39.4091V182.317C39.4091 183.681 40.265 184.331 41.6144 184.331C42.0263 184.331 42.4027 184.274 42.7508 184.185V186H43.7877V180.545ZM45.9522 184.512V180.545H44.9118V186H46.0659L48.4593 182.03V186H49.4998V180.545H48.3564L45.9522 184.512ZM49.9625 181.462H51.7487V186H52.7857V181.462H54.5648V180.545H49.9625V181.462ZM56.7329 186.121C57.6349 186.121 58.1427 185.663 58.3451 185.254H58.3877V186H59.4246V182.378C59.4246 180.79 58.1746 180.474 57.3082 180.474C56.3209 180.474 55.4118 180.872 55.0567 181.866L56.0546 182.094C56.2109 181.707 56.6086 181.334 57.3224 181.334C58.0077 181.334 58.3593 181.692 58.3593 182.31V182.335C58.3593 182.722 57.9616 182.715 56.9815 182.829C55.9481 182.95 54.8898 183.219 54.8898 184.459C54.8898 185.531 55.6959 186.121 56.7329 186.121ZM56.9637 185.268C56.3636 185.268 55.9303 184.999 55.9303 184.473C55.9303 183.905 56.4346 183.702 57.0489 183.621C57.3934 183.575 58.2101 183.482 58.3628 183.33V184.033C58.3628 184.679 57.8479 185.268 56.9637 185.268ZM61.591 180.545H60.5505V186H61.591V183.734H63.9525V186H64.9894V180.545H63.9525V182.815H61.591V180.545ZM68.419 186.11C69.9567 186.11 70.9617 184.984 70.9617 183.298C70.9617 181.6 69.9567 180.474 68.419 180.474C66.8814 180.474 65.8764 181.6 65.8764 183.298C65.8764 184.984 66.8814 186.11 68.419 186.11ZM68.4226 185.219C67.4176 185.219 66.9489 184.342 66.9489 183.294C66.9489 182.25 67.4176 181.362 68.4226 181.362C69.4205 181.362 69.8892 182.25 69.8892 183.294C69.8892 184.342 69.4205 185.219 68.4226 185.219ZM26.4844 199.727H20.8736V207H21.9673V200.665H25.3906V207H26.4844V199.727ZM30.1395 207.11C31.3291 207.11 32.1708 206.524 32.4122 205.636L31.4073 205.455C31.2155 205.97 30.7539 206.233 30.1502 206.233C29.2411 206.233 28.6303 205.643 28.6019 204.592H32.4797V204.216C32.4797 202.245 31.3007 201.474 30.0649 201.474C28.5451 201.474 27.5436 202.632 27.5436 204.308C27.5436 206.002 28.5309 207.11 30.1395 207.11ZM28.6054 203.797C28.648 203.023 29.2091 202.352 30.072 202.352C30.8959 202.352 31.4357 202.962 31.4392 203.797H28.6054ZM33.3694 209.045H34.4312V206.151H34.4951C34.6869 206.499 35.0775 207.107 36.0718 207.107C37.3928 207.107 38.3517 206.048 38.3517 204.283C38.3517 202.515 37.3786 201.474 36.0612 201.474C35.0491 201.474 34.6833 202.092 34.4951 202.43H34.4063V201.545H33.3694V209.045ZM34.4099 204.273C34.4099 203.133 34.9071 202.376 35.8339 202.376C36.7963 202.376 37.2792 203.19 37.2792 204.273C37.2792 205.366 36.7821 206.201 35.8339 206.201C34.9213 206.201 34.4099 205.42 34.4099 204.273ZM41.6037 207.11C42.7934 207.11 43.635 206.524 43.8765 205.636L42.8715 205.455C42.6797 205.97 42.2181 206.233 41.6144 206.233C40.7053 206.233 40.0945 205.643 40.0661 204.592H43.9439V204.216C43.9439 202.245 42.765 201.474 41.5292 201.474C40.0093 201.474 39.0079 202.632 39.0079 204.308C39.0079 206.002 39.9951 207.11 41.6037 207.11ZM40.0697 203.797C40.1123 203.023 40.6733 202.352 41.5363 202.352C42.3601 202.352 42.8999 202.962 42.9035 203.797H40.0697ZM45.5447 201.545H44.38L46.0561 204.273L44.3587 207H45.5234L46.7486 204.962L47.9773 207H49.1385L47.4233 204.273L49.1243 201.545H47.9631L46.7486 203.669L45.5447 201.545ZM51.9991 207.11C53.5367 207.11 54.5417 205.984 54.5417 204.298C54.5417 202.6 53.5367 201.474 51.9991 201.474C50.4614 201.474 49.4565 202.6 49.4565 204.298C49.4565 205.984 50.4614 207.11 51.9991 207.11ZM52.0026 206.219C50.9977 206.219 50.5289 205.342 50.5289 204.294C50.5289 203.25 50.9977 202.362 52.0026 202.362C53.0005 202.362 53.4692 203.25 53.4692 204.294C53.4692 205.342 53.0005 206.219 52.0026 206.219ZM54.9058 208.573H55.9569V207H59.7602V208.573H60.7971V206.08H59.9591V201.545H56.2517L56.0812 203.58C55.9676 204.955 55.8007 205.672 55.3497 206.08H54.9058V208.573ZM56.4861 206.08C56.8483 205.572 56.9832 204.727 57.0898 203.58L57.2034 202.455H58.9221V206.08H56.4861ZM63.8442 207.11C65.3818 207.11 66.3868 205.984 66.3868 204.298C66.3868 202.6 65.3818 201.474 63.8442 201.474C62.3065 201.474 61.3015 202.6 61.3015 204.298C61.3015 205.984 62.3065 207.11 63.8442 207.11ZM63.8477 206.219C62.8427 206.219 62.374 205.342 62.374 204.294C62.374 203.25 62.8427 202.362 63.8477 202.362C64.8456 202.362 65.3143 203.25 65.3143 204.294C65.3143 205.342 64.8456 206.219 63.8477 206.219ZM67.2836 207H69.8901C71.0833 207 71.7829 206.396 71.7829 205.53C71.7829 204.72 71.1614 204.223 70.4334 204.138C71.1046 204.01 71.5485 203.641 71.5485 203.001C71.5485 202.107 70.7743 201.545 69.5456 201.545H67.2836V207ZM68.2814 206.112V204.596H69.8901C70.4157 204.596 70.7317 204.905 70.7317 205.413C70.7317 205.846 70.4157 206.112 69.8901 206.112H68.2814ZM68.2814 203.818V202.444H69.5456C70.1493 202.444 70.5151 202.696 70.5151 203.115C70.5151 203.552 70.1529 203.818 69.5563 203.818H68.2814ZM27.1165 224.364C27.1165 222.038 25.7244 220.628 23.8423 220.628C21.9531 220.628 20.5646 222.038 20.5646 224.364C20.5646 226.686 21.9531 228.099 23.8423 228.099C25.7244 228.099 27.1165 226.69 27.1165 224.364ZM26.0298 224.364C26.0298 226.136 25.0923 227.098 23.8423 227.098C22.5888 227.098 21.6548 226.136 21.6548 224.364C21.6548 222.592 22.5888 221.629 23.8423 221.629C25.0923 221.629 26.0298 222.592 26.0298 224.364ZM27.8055 223.462H29.5918V228H30.6287V223.462H32.4078V222.545H27.8055V223.462ZM33.2425 228H34.2758V223.462H36.6515V228H37.692V222.545H33.2425V228ZM39.8637 226.512V222.545H38.8232V228H39.9773L42.3708 224.03V228H43.4113V222.545H42.2678L39.8637 226.512ZM46.848 228.11C48.1371 228.11 48.9716 227.336 49.0888 226.274H48.0554C47.9205 226.864 47.4624 227.212 46.8551 227.212C45.9567 227.212 45.3778 226.462 45.3778 225.273C45.3778 224.104 45.9673 223.369 46.8551 223.369C47.5298 223.369 47.9418 223.795 48.0554 224.307H49.0888C48.9751 223.206 48.0767 222.474 46.8374 222.474C45.2997 222.474 44.3054 223.632 44.3054 225.298C44.3054 226.942 45.2642 228.11 46.848 228.11ZM52.2334 228.11C53.7711 228.11 54.7761 226.984 54.7761 225.298C54.7761 223.6 53.7711 222.474 52.2334 222.474C50.6958 222.474 49.6908 223.6 49.6908 225.298C49.6908 226.984 50.6958 228.11 52.2334 228.11ZM52.237 227.219C51.232 227.219 50.7633 226.342 50.7633 225.294C50.7633 224.25 51.232 223.362 52.237 223.362C53.2349 223.362 53.7036 224.25 53.7036 225.294C53.7036 226.342 53.2349 227.219 52.237 227.219ZM55.6729 228H56.7346V225.82H57.4236L59.0677 228H60.3852L58.2474 225.198L60.3604 222.545H59.0464L57.246 224.832H56.7346V222.545H55.6729V228ZM25.5149 241.727H24.4283V244.874H23.5866L21.7827 241.727H20.4403L22.6065 245.193L20.277 249H21.5447L23.3984 245.896H24.4283V249H25.5149V245.896H26.5554L28.3842 249H29.6662L27.3509 245.2L29.5099 241.727H28.1712L26.3814 244.874H25.5149V241.727ZM31.9541 249.121C32.8561 249.121 33.3639 248.663 33.5664 248.254H33.609V249H34.6459V245.378C34.6459 243.79 33.3959 243.474 32.5294 243.474C31.5422 243.474 30.6331 243.872 30.278 244.866L31.2759 245.094C31.4321 244.707 31.8299 244.334 32.5436 244.334C33.229 244.334 33.5806 244.692 33.5806 245.31V245.335C33.5806 245.722 33.1828 245.715 32.2027 245.829C31.1693 245.95 30.1111 246.219 30.1111 247.459C30.1111 248.531 30.9172 249.121 31.9541 249.121ZM32.185 248.268C31.5848 248.268 31.1516 247.999 31.1516 247.473C31.1516 246.905 31.6559 246.702 32.2702 246.621C32.6147 246.575 33.4314 246.482 33.5841 246.33V247.033C33.5841 247.679 33.0692 248.268 32.185 248.268ZM35.3421 249H35.683C36.8726 249 37.3094 248.119 37.3946 246.315L37.4798 244.462H39.2625V249H40.303V243.545H36.4962L36.4003 245.96C36.3328 247.643 36.1411 248.08 35.5338 248.08H35.3385L35.3421 249ZM43.7282 249.11C45.2659 249.11 46.2708 247.984 46.2708 246.298C46.2708 244.6 45.2659 243.474 43.7282 243.474C42.1906 243.474 41.1856 244.6 41.1856 246.298C41.1856 247.984 42.1906 249.11 43.7282 249.11ZM43.7318 248.219C42.7268 248.219 42.258 247.342 42.258 246.294C42.258 245.25 42.7268 244.362 43.7318 244.362C44.7296 244.362 45.1984 245.25 45.1984 246.294C45.1984 247.342 44.7296 248.219 43.7318 248.219ZM51.3757 241.514C51.1094 241.727 50.7046 241.727 50.1399 241.724C49.973 241.724 49.7919 241.724 49.593 241.727C47.8246 241.763 46.9297 243.02 46.9297 245.513V246.053C46.9297 248.055 47.924 249.11 49.4474 249.11C50.9709 249.11 51.9581 248.052 51.9581 246.354C51.9581 244.678 50.9886 243.751 49.6747 243.751C48.8828 243.751 48.2223 244.089 47.8672 244.763H47.7997C47.9205 243.382 48.4389 242.697 49.6179 242.661C50.6655 242.629 51.3296 242.633 51.8161 242.185L51.3757 241.514ZM49.451 248.219C48.549 248.219 47.9986 247.498 47.9986 246.372C48.0128 245.268 48.5561 244.636 49.4403 244.636C50.3388 244.636 50.8857 245.268 50.8857 246.372C50.8857 247.501 50.3388 248.219 49.451 248.219ZM56.2544 243.545H55.2139V249H56.2544V246.734H58.6159V249H59.6528V243.545H58.6159V245.815H56.2544V243.545ZM62.3722 249.121C63.2742 249.121 63.782 248.663 63.9844 248.254H64.027V249H65.064V245.378C65.064 243.79 63.814 243.474 62.9475 243.474C61.9603 243.474 61.0512 243.872 60.6961 244.866L61.6939 245.094C61.8502 244.707 62.2479 244.334 62.9617 244.334C63.6471 244.334 63.9986 244.692 63.9986 245.31V245.335C63.9986 245.722 63.6009 245.715 62.6208 245.829C61.5874 245.95 60.5292 246.219 60.5292 247.459C60.5292 248.531 61.3353 249.121 62.3722 249.121ZM62.603 248.268C62.0029 248.268 61.5697 247.999 61.5697 247.473C61.5697 246.905 62.0739 246.702 62.6883 246.621C63.0327 246.575 63.8495 246.482 64.0022 246.33V247.033C64.0022 247.679 63.4873 248.268 62.603 248.268ZM70.8455 249.11C72.1346 249.11 72.9691 248.336 73.0863 247.274H72.0529C71.9179 247.864 71.4598 248.212 70.8526 248.212C69.9542 248.212 69.3753 247.462 69.3753 246.273C69.3753 245.104 69.9648 244.369 70.8526 244.369C71.5273 244.369 71.9392 244.795 72.0529 245.307H73.0863C72.9726 244.206 72.0742 243.474 70.8348 243.474C69.2972 243.474 68.3029 244.632 68.3029 246.298C68.3029 247.942 69.2617 249.11 70.8455 249.11ZM73.9333 249H74.9667V244.462H77.3424V249H78.3829V243.545H73.9333V249ZM81.1014 249.121C82.0034 249.121 82.5112 248.663 82.7137 248.254H82.7563V249H83.7932V245.378C83.7932 243.79 82.5432 243.474 81.6767 243.474C80.6895 243.474 79.7804 243.872 79.4253 244.866L80.4232 245.094C80.5794 244.707 80.9772 244.334 81.6909 244.334C82.3763 244.334 82.7279 244.692 82.7279 245.31V245.335C82.7279 245.722 82.3301 245.715 81.35 245.829C80.3166 245.95 79.2584 246.219 79.2584 247.459C79.2584 248.531 80.0645 249.121 81.1014 249.121ZM81.3323 248.268C80.7321 248.268 80.2989 247.999 80.2989 247.473C80.2989 246.905 80.8031 246.702 81.4175 246.621C81.762 246.575 82.5787 246.482 82.7314 246.33V247.033C82.7314 247.679 82.2165 248.268 81.3323 248.268ZM87.9801 247.686L86.2543 243.545H84.919V249H85.9595V245.033L87.586 249H88.3743L90.0291 245.048V249H91.0625V243.545H89.7415L87.9801 247.686Z" fill="#7A7B7C"/>
<path d="M114.945 123H116.092L119.256 116.7V115.727H114.447V116.668H118.119V116.722L114.945 123ZM122.585 123.099C124.105 123.114 125.113 122.02 125.11 120.624C125.113 119.232 124.101 118.234 122.841 118.234C122.074 118.234 121.41 118.604 121.037 119.218H120.983C120.987 117.549 121.612 116.572 122.677 116.572C123.377 116.572 123.817 116.995 123.966 117.616H125.049C124.883 116.448 123.977 115.61 122.677 115.61C120.987 115.61 119.932 117.062 119.932 119.609C119.932 122.286 121.292 123.089 122.585 123.099ZM122.581 122.176C121.736 122.176 121.118 121.466 121.118 120.649C121.122 119.836 121.768 119.126 122.606 119.126C123.437 119.126 124.048 119.797 124.045 120.638C124.048 121.498 123.412 122.176 122.581 122.176ZM128.572 123.099C130.085 123.099 131.154 122.24 131.161 121.061C131.154 120.145 130.511 119.374 129.698 119.229V119.186C130.405 119.016 130.884 118.352 130.891 117.567C130.884 116.455 129.904 115.628 128.572 115.628C127.226 115.628 126.246 116.455 126.253 117.567C126.246 118.348 126.726 119.016 127.447 119.186V119.229C126.619 119.374 125.976 120.145 125.984 121.061C125.976 122.24 127.045 123.099 128.572 123.099ZM128.572 122.201C127.663 122.201 127.088 121.718 127.095 120.99C127.088 120.234 127.713 119.694 128.572 119.694C129.418 119.694 130.043 120.234 130.05 120.99C130.043 121.718 129.471 122.201 128.572 122.201ZM128.572 118.817C127.837 118.817 127.315 118.352 127.322 117.659C127.315 116.977 127.82 116.526 128.572 116.526C129.311 116.526 129.815 116.977 129.822 117.659C129.815 118.352 129.297 118.817 128.572 118.817ZM134.677 123.121C136.357 123.121 137.34 121.75 137.34 119.367C137.34 117.002 136.342 115.628 134.677 115.628C133.008 115.628 132.014 116.999 132.01 119.367C132.01 121.746 132.994 123.117 134.677 123.121ZM134.677 122.173C133.693 122.173 133.1 121.185 133.1 119.367C133.104 117.556 133.697 116.558 134.677 116.558C135.653 116.558 136.25 117.556 136.25 119.367C136.25 121.185 135.657 122.173 134.677 122.173ZM114.945 144H116.092L119.256 137.7V136.727H114.447V137.668H118.119V137.722L114.945 144ZM122.585 144.099C124.105 144.114 125.113 143.02 125.11 141.624C125.113 140.232 124.101 139.234 122.841 139.234C122.074 139.234 121.41 139.604 121.037 140.218H120.983C120.987 138.549 121.612 137.572 122.677 137.572C123.377 137.572 123.817 137.995 123.966 138.616H125.049C124.883 137.448 123.977 136.61 122.677 136.61C120.987 136.61 119.932 138.062 119.932 140.609C119.932 143.286 121.292 144.089 122.585 144.099ZM122.581 143.176C121.736 143.176 121.118 142.466 121.118 141.649C121.122 140.836 121.768 140.126 122.606 140.126C123.437 140.126 124.048 140.797 124.045 141.638C124.048 142.498 123.412 143.176 122.581 143.176ZM125.962 142.58H129.41V144H130.458V142.58H131.42V141.649H130.458V136.727H129.105L125.962 141.692V142.58ZM129.418 141.649H127.113V141.592L129.361 138.034H129.418V141.649ZM134.902 144.121C136.581 144.121 137.565 142.75 137.565 140.367C137.565 138.002 136.567 136.628 134.902 136.628C133.232 136.628 132.238 137.999 132.235 140.367C132.235 142.746 133.218 144.117 134.902 144.121ZM134.902 143.173C133.918 143.173 133.325 142.185 133.325 140.367C133.328 138.556 133.921 137.558 134.902 137.558C135.878 137.558 136.475 138.556 136.475 140.367C136.475 142.185 135.882 143.173 134.902 143.173ZM114.945 165H116.092L119.256 158.7V157.727H114.447V158.668H118.119V158.722L114.945 165ZM122.568 165.099C124.053 165.099 125.143 164.212 125.139 163.004C125.143 162.085 124.585 161.424 123.619 161.275V161.218C124.379 161.023 124.873 160.426 124.869 159.609C124.873 158.54 123.996 157.628 122.597 157.628C121.261 157.628 120.189 158.434 120.153 159.616H121.215C121.24 158.949 121.869 158.544 122.582 158.544C123.325 158.544 123.811 158.995 123.807 159.666C123.811 160.369 123.246 160.831 122.44 160.831H121.826V161.726H122.44C123.449 161.726 124.031 162.237 124.031 162.969C124.031 163.675 123.417 164.155 122.561 164.155C121.773 164.155 121.158 163.75 121.116 163.104H120.001C120.047 164.29 121.098 165.099 122.568 165.099ZM128.725 165.099C130.209 165.099 131.3 164.212 131.296 163.004C131.3 162.085 130.742 161.424 129.776 161.275V161.218C130.536 161.023 131.03 160.426 131.026 159.609C131.03 158.54 130.153 157.628 128.753 157.628C127.418 157.628 126.346 158.434 126.31 159.616H127.372C127.397 158.949 128.025 158.544 128.739 158.544C129.481 158.544 129.968 158.995 129.964 159.666C129.968 160.369 129.403 160.831 128.597 160.831H127.983V161.726H128.597C129.606 161.726 130.188 162.237 130.188 162.969C130.188 163.675 129.574 164.155 128.718 164.155C127.93 164.155 127.315 163.75 127.273 163.104H126.158C126.204 164.29 127.255 165.099 128.725 165.099ZM134.882 165.121C136.562 165.121 137.545 163.75 137.545 161.367C137.545 159.002 136.547 157.628 134.882 157.628C133.213 157.628 132.219 158.999 132.215 161.367C132.215 163.746 133.199 165.117 134.882 165.121ZM134.882 164.173C133.898 164.173 133.305 163.185 133.305 161.367C133.309 159.556 133.902 158.558 134.882 158.558C135.859 158.558 136.455 159.556 136.455 161.367C136.455 163.185 135.862 164.173 134.882 164.173ZM117.118 178.61C115.591 178.599 114.593 179.693 114.593 181.085C114.593 182.477 115.602 183.479 116.862 183.479C117.633 183.479 118.293 183.102 118.666 182.491H118.723C118.719 184.164 118.091 185.141 117.026 185.141C116.33 185.141 115.882 184.714 115.74 184.093H114.657C114.817 185.268 115.726 186.099 117.026 186.099C118.716 186.099 119.771 184.647 119.774 182.101C119.771 179.427 118.414 178.621 117.118 178.61ZM117.121 179.533C117.963 179.533 118.585 180.247 118.585 181.06C118.585 181.874 117.931 182.584 117.1 182.584C116.266 182.584 115.658 181.916 115.658 181.071C115.658 180.212 116.287 179.533 117.121 179.533ZM123.308 186.099C124.828 186.114 125.836 185.02 125.833 183.624C125.836 182.232 124.824 181.234 123.563 181.234C122.796 181.234 122.132 181.604 121.759 182.218H121.706C121.71 180.549 122.335 179.572 123.4 179.572C124.1 179.572 124.54 179.995 124.689 180.616H125.772C125.605 179.448 124.7 178.61 123.4 178.61C121.71 178.61 120.655 180.062 120.655 182.609C120.655 185.286 122.015 186.089 123.308 186.099ZM123.304 185.176C122.459 185.176 121.841 184.466 121.841 183.649C121.845 182.836 122.491 182.126 123.329 182.126C124.16 182.126 124.771 182.797 124.767 183.638C124.771 184.498 124.135 185.176 123.304 185.176ZM129.238 186.099C130.701 186.099 131.745 185.066 131.742 183.649C131.745 182.243 130.765 181.22 129.441 181.22C128.901 181.22 128.4 181.426 128.116 181.703H128.073L128.304 179.668H131.39V178.727H127.392L126.983 182.392L127.988 182.541C128.262 182.296 128.752 182.129 129.192 182.129C130.055 182.136 130.68 182.783 130.68 183.67C130.68 184.544 130.073 185.176 129.238 185.176C128.535 185.176 127.978 184.729 127.921 184.104H126.855C126.898 185.261 127.903 186.099 129.238 186.099ZM117.459 199.727H116.39L114.575 200.913V201.964L116.315 200.828H116.358V207H117.459V199.727ZM118.985 205.58H122.433V207H123.481V205.58H124.443V204.649H123.481V199.727H122.128L118.985 204.692V205.58ZM122.44 204.649H120.136V204.592L122.383 201.034H122.44V204.649ZM127.793 207.099C129.256 207.099 130.3 206.066 130.296 204.649C130.3 203.243 129.32 202.22 127.995 202.22C127.456 202.22 126.955 202.426 126.671 202.703H126.628L126.859 200.668H129.945V199.727H125.946L125.538 203.392L126.543 203.541C126.816 203.296 127.306 203.129 127.747 203.129C128.61 203.136 129.235 203.783 129.235 204.67C129.235 205.544 128.627 206.176 127.793 206.176C127.09 206.176 126.532 205.729 126.475 205.104H125.41C125.453 206.261 126.458 207.099 127.793 207.099ZM117.232 228.099C118.716 228.099 119.806 227.212 119.803 226.004C119.806 225.085 119.249 224.424 118.283 224.275V224.218C119.043 224.023 119.536 223.426 119.533 222.609C119.536 221.54 118.659 220.628 117.26 220.628C115.925 220.628 114.852 221.434 114.817 222.616H115.879C115.903 221.949 116.532 221.544 117.246 221.544C117.988 221.544 118.474 221.995 118.471 222.666C118.474 223.369 117.91 223.831 117.104 223.831H116.489V224.726H117.104C118.112 224.726 118.695 225.237 118.695 225.969C118.695 226.675 118.08 227.155 117.224 227.155C116.436 227.155 115.822 226.75 115.779 226.104H114.664C114.71 227.29 115.761 228.099 117.232 228.099ZM123.388 228.121C125.068 228.121 126.052 226.75 126.052 224.367C126.052 222.002 125.054 220.628 123.388 220.628C121.719 220.628 120.725 221.999 120.722 224.367C120.722 226.746 121.705 228.117 123.388 228.121ZM123.388 227.173C122.405 227.173 121.812 226.185 121.812 224.367C121.815 222.556 122.408 221.558 123.388 221.558C124.365 221.558 124.962 222.556 124.962 224.367C124.962 226.185 124.369 227.173 123.388 227.173ZM117.239 249.099C118.759 249.114 119.767 248.02 119.763 246.624C119.767 245.232 118.755 244.234 117.494 244.234C116.727 244.234 116.063 244.604 115.69 245.218H115.637C115.641 243.549 116.266 242.572 117.331 242.572C118.031 242.572 118.471 242.995 118.62 243.616H119.703C119.536 242.448 118.631 241.61 117.331 241.61C115.641 241.61 114.586 243.062 114.586 245.609C114.586 248.286 115.946 249.089 117.239 249.099ZM117.235 248.176C116.39 248.176 115.772 247.466 115.772 246.649C115.776 245.836 116.422 245.126 117.26 245.126C118.091 245.126 118.702 245.797 118.698 246.638C118.702 247.498 118.066 248.176 117.235 248.176Z" fill="black"/>
<path d="M241.5 124H153.5C151.015 124 149 121.985 149 119.5C149 117.015 151.015 115 153.5 115H241.5C243.985 115 246 117.015 246 119.5C246 121.985 243.985 124 241.5 124Z" fill="#FFC476"/>
<path d="M238.041 144H153C150.791 144 149 142.209 149 140C149 137.791 150.791 136 153 136H238.041C240.25 136 242.041 137.791 242.041 140C242.041 142.209 240.25 144 238.041 144Z" fill="#FFC476"/>
<path d="M202.408 165H153C150.791 165 149 163.209 149 161C149 158.791 150.791 157 153 157H202.408C204.617 157 206.408 158.791 206.408 161C206.408 163.209 204.617 165 202.408 165Z" fill="#FFC476"/>
<path d="M165.786 186H153C150.791 186 149 184.209 149 182C149 179.791 150.791 178 153 178H165.786C167.995 178 169.786 179.791 169.786 182C169.786 184.209 167.995 186 165.786 186Z" fill="#FFC476"/>
<path d="M160.837 207H153C150.791 207 149 205.209 149 203C149 200.791 150.791 199 153 199H160.837C163.046 199 164.837 200.791 164.837 203C164.837 205.209 163.046 207 160.837 207Z" fill="#FFC476"/>
<path d="M160.837 228H153C150.791 228 149 226.209 149 224C149 221.791 150.791 220 153 220H160.837C163.046 220 164.837 221.791 164.837 224C164.837 226.209 163.046 228 160.837 228Z" fill="#FFC476"/>
<path d="M155.929 243.464V245.536C155.929 247.449 154.378 249 152.464 249C150.551 249 149 247.449 149 245.536V243.464C149 241.551 150.551 240 152.464 240C154.378 240 155.929 241.551 155.929 243.464Z" fill="#FFC476"/>
<path d="M33.9613 39.2967C32.2459 38.2021 30.4905 40.3609 31.1373 42.1134C32.2475 45.1214 37.525 41.7823 33.9613 39.2967Z" stroke="#574E56" stroke-width="1.28873"/>
<path d="M31.5984 44.9657C31.3575 44.7037 30.9499 44.6866 30.6879 44.9275C30.4259 45.1683 30.4088 45.5759 30.6497 45.8379L31.5984 44.9657ZM34.527 46.0321L34.041 45.609L34.527 46.0321ZM30.6497 45.8379C31.04 46.2625 31.6815 46.8452 32.4371 47.1243C32.825 47.2676 33.2707 47.341 33.7355 47.244C34.2078 47.1454 34.6406 46.883 35.013 46.4551L34.041 45.609C33.8277 45.854 33.6336 45.9488 33.4722 45.9824C33.3033 46.0177 33.1087 45.9986 32.8836 45.9154C32.4135 45.7418 31.9393 45.3365 31.5984 44.9657L30.6497 45.8379ZM35.013 46.4551C35.4487 45.9547 35.705 45.1687 35.8318 44.2932C35.9622 43.3934 35.9689 42.3051 35.8294 41.1129L34.5494 41.2626C34.6786 42.3664 34.6677 43.3401 34.5564 44.1084C34.4416 44.901 34.2325 45.3891 34.041 45.609L35.013 46.4551Z" fill="#574E56"/>
<path d="M40.6586 39.2967C38.9432 38.2021 37.1877 40.3609 37.8346 42.1134C38.9447 45.1214 44.2223 41.7823 40.6586 39.2967Z" stroke="#574E56" stroke-width="1.28873"/>
<path d="M38.2956 44.9657C38.0548 44.7037 37.6471 44.6866 37.3852 44.9275C37.1232 45.1683 37.1061 45.5759 37.3469 45.8379L38.2956 44.9657ZM41.2243 46.0321L40.7383 45.609L41.2243 46.0321ZM37.3469 45.8379C37.7373 46.2625 38.3788 46.8452 39.1344 47.1243C39.5222 47.2676 39.968 47.341 40.4328 47.244C40.9051 47.1454 41.3378 46.883 41.7103 46.4551L40.7383 45.609C40.5249 45.854 40.3308 45.9488 40.1695 45.9824C40.0006 46.0177 39.8059 45.9986 39.5809 45.9154C39.1107 45.7418 38.6365 45.3365 38.2956 44.9657L37.3469 45.8379ZM41.7103 46.4551C42.1459 45.9547 42.4023 45.1687 42.5291 44.2932C42.6594 43.3934 42.6662 42.3051 42.5267 41.1129L41.2467 41.2626C41.3759 42.3664 41.365 43.3401 41.2537 44.1084C41.1389 44.901 40.9297 45.3891 40.7383 45.609L41.7103 46.4551Z" fill="#574E56"/>
<path d="M46.6299 46.4685C47.139 46.1101 49.9909 42.3354 51.6033 39.8823" stroke="#574E56" stroke-width="1.28873" stroke-linecap="round"/>
<ellipse cx="47.2823" cy="40.6271" rx="0.964936" ry="0.970327" fill="#574E56"/>
<path d="M52.4299 45.4979C52.4299 46.0338 51.9979 46.4682 51.4649 46.4682C50.932 46.4682 50.5 46.0338 50.5 45.4979C50.5 44.962 50.932 44.5276 51.4649 44.5276C51.9979 44.5276 52.4299 44.962 52.4299 45.4979Z" fill="#574E56"/>
<path d="M41.714 24C52.5138 24 61.3164 31.6602 61.3164 42.5183C61.3164 54.8638 52.5138 62.2265 41.714 62.2265C27.2895 62.2265 22.1115 53.3764 22.1115 42.5183C22.1855 29.5034 30.9141 24 41.714 24ZM41.714 56.3513C49.2591 56.3513 55.3247 51.2197 55.3247 42.6671C55.3247 35.0812 49.2591 29.8009 41.714 29.8009C34.1689 29.8009 28.1032 33.5938 28.1032 42.6671C28.1772 50.2529 31.7278 56.3513 41.714 56.3513Z" fill="white"/>
<path d="M40.3067 24L39.9369 29.8753C32.7616 30.0984 26.9919 33.8913 26.9919 42.6671C26.9919 50.2529 30.6165 56.3513 40.6026 56.3513C48.1477 56.3513 54.2134 51.2197 54.2134 42.6671C54.2134 42.5927 54.2134 42.5927 54.2134 42.5927H60.2051C60.2051 54.8638 51.4025 62.2265 40.6026 62.2265C26.1782 62.2265 21.0002 53.3764 21.0002 42.5183C21.0002 29.5778 29.6548 24.1487 40.3067 24Z" fill="white"/>
<path d="M40.8546 24L40.4847 29.8753C33.3095 30.0984 27.5397 33.8913 27.5397 42.6671C27.5397 50.2529 31.1643 56.3513 41.1505 56.3513C48.6956 56.3513 54.7612 51.2197 54.7612 42.6671C54.7612 36.3705 48.5648 29.339 43.6728 29.8753C43.6728 28.1209 43.3323 25.031 44.2164 24.7486C48.0937 23.5099 58.5601 27.1669 60.7529 42.5927C60.7529 54.8638 51.9503 62.2265 41.1505 62.2265C26.726 62.2265 21.548 53.3764 21.548 42.5183C21.548 29.5778 30.1287 24.1487 40.8546 24Z" fill="#D18BA7"/>
<path d="M20.2486 79.7578H21.2997V78H26.1825V79.7472H27.2337V77.0696H26.4098V70.7273H21.9247L21.7543 73.799C21.6442 75.8232 21.2145 76.6577 20.728 77.0696H20.2486V79.7578ZM22.0206 77.0696C22.4361 76.4055 22.7166 75.3366 22.8054 73.799L22.919 71.6719H25.3587V77.0696H22.0206ZM30.3597 78.1101C31.8973 78.1101 32.9023 76.9844 32.9023 75.2976C32.9023 73.6001 31.8973 72.4744 30.3597 72.4744C28.822 72.4744 27.8171 73.6001 27.8171 75.2976C27.8171 76.9844 28.822 78.1101 30.3597 78.1101ZM30.3632 77.2188C29.3583 77.2188 28.8895 76.3416 28.8895 75.294C28.8895 74.25 29.3583 73.3622 30.3632 73.3622C31.3611 73.3622 31.8299 74.25 31.8299 75.294C31.8299 76.3416 31.3611 77.2188 30.3632 77.2188ZM36.0967 78.1101C37.3857 78.1101 38.2203 77.3359 38.3374 76.2741H37.3041C37.1691 76.8636 36.711 77.2116 36.1038 77.2116C35.2053 77.2116 34.6265 76.4624 34.6265 75.2727C34.6265 74.1044 35.216 73.3693 36.1038 73.3693C36.7785 73.3693 37.1904 73.7955 37.3041 74.3068H38.3374C38.2238 73.206 37.3254 72.4744 36.086 72.4744C34.5484 72.4744 33.5541 73.6321 33.5541 75.2976C33.5541 76.9418 34.5129 78.1101 36.0967 78.1101ZM38.7717 73.4616H40.5579V78H41.5949V73.4616H43.374V72.5455H38.7717V73.4616ZM45.5421 78.1207C46.4441 78.1207 46.9519 77.6626 47.1543 77.2543H47.1969V78H48.2338V74.3778C48.2338 72.7905 46.9838 72.4744 46.1174 72.4744C45.1302 72.4744 44.2211 72.8722 43.8659 73.8665L44.8638 74.0938C45.0201 73.7067 45.4178 73.3338 46.1316 73.3338C46.8169 73.3338 47.1685 73.6925 47.1685 74.3104V74.3352C47.1685 74.7223 46.7708 74.7152 45.7907 74.8288C44.7573 74.9496 43.699 75.2195 43.699 76.4588C43.699 77.5312 44.5052 78.1207 45.5421 78.1207ZM45.7729 77.2685C45.1728 77.2685 44.7395 76.9986 44.7395 76.473C44.7395 75.9048 45.2438 75.7024 45.8581 75.6207C46.2026 75.5746 47.0194 75.4822 47.1721 75.3295V76.0327C47.1721 76.679 46.6571 77.2685 45.7729 77.2685ZM49.3597 78H51.9662C53.1594 78 53.859 77.3963 53.859 76.5298C53.859 75.7202 53.2375 75.223 52.5096 75.1378C53.1807 75.0099 53.6246 74.6406 53.6246 74.0014C53.6246 73.1065 52.8505 72.5455 51.6218 72.5455H49.3597V78ZM50.3576 77.1122V75.5959H51.9662C52.4918 75.5959 52.8078 75.9048 52.8078 76.4126C52.8078 76.8459 52.4918 77.1122 51.9662 77.1122H50.3576ZM50.3576 74.8182V73.4439H51.6218C52.2255 73.4439 52.5912 73.696 52.5912 74.1151C52.5912 74.5518 52.229 74.8182 51.6324 74.8182H50.3576ZM54.3057 78H54.6466C55.8362 78 56.273 77.1193 56.3582 75.3153L56.4435 73.4616H58.2261V78H59.2666V72.5455H55.4598L55.3639 74.9602C55.2964 76.6435 55.1047 77.0803 54.4974 77.0803H54.3021L54.3057 78ZM62.7451 78.1101C63.9347 78.1101 64.7763 77.5241 65.0178 76.6364L64.0128 76.4553C63.8211 76.9702 63.3594 77.233 62.7557 77.233C61.8466 77.233 61.2358 76.6435 61.2074 75.5923H65.0853V75.2159C65.0853 73.245 63.9063 72.4744 62.6705 72.4744C61.1506 72.4744 60.1492 73.6321 60.1492 75.3082C60.1492 77.0021 61.1364 78.1101 62.7451 78.1101ZM61.211 74.7969C61.2536 74.0227 61.8147 73.3516 62.6776 73.3516C63.5015 73.3516 64.0412 73.9624 64.0448 74.7969H61.211ZM67.0155 72.5455H65.975V78H67.0155V75.7344H69.377V78H70.4139V72.5455H69.377V74.8146H67.0155V72.5455ZM73.8435 78.1101C75.3812 78.1101 76.3862 76.9844 76.3862 75.2976C76.3862 73.6001 75.3812 72.4744 73.8435 72.4744C72.3059 72.4744 71.3009 73.6001 71.3009 75.2976C71.3009 76.9844 72.3059 78.1101 73.8435 78.1101ZM73.8471 77.2188C72.8421 77.2188 72.3734 76.3416 72.3734 75.294C72.3734 74.25 72.8421 73.3622 73.8471 73.3622C74.845 73.3622 75.3137 74.25 75.3137 75.294C75.3137 76.3416 74.845 77.2188 73.8471 77.2188Z" fill="black"/>
<path opacity="0.5" d="M20.9446 93H22.0916L25.2557 86.7003V85.7273H20.4474V86.6683H24.1193V86.7216L20.9446 93ZM28.585 93.0994C30.1049 93.1136 31.1134 92.0199 31.1099 90.6243C31.1134 89.2322 30.1013 88.2344 28.8407 88.2344C28.0736 88.2344 27.4096 88.6037 27.0367 89.218H26.9834C26.987 87.549 27.612 86.5724 28.6773 86.5724C29.3769 86.5724 29.8173 86.995 29.9664 87.6165H31.0495C30.8826 86.4482 29.9771 85.6101 28.6773 85.6101C26.987 85.6101 25.9323 87.0625 25.9323 89.6087C25.9323 92.2862 27.2924 93.0888 28.585 93.0994ZM28.5815 92.1761C27.7363 92.1761 27.1184 91.4659 27.1184 90.6491C27.1219 89.8359 27.7682 89.1257 28.6063 89.1257C29.4373 89.1257 30.0481 89.7969 30.0445 90.6385C30.0481 91.4979 29.4124 92.1761 28.5815 92.1761ZM34.5724 93.0994C36.0851 93.0994 37.154 92.2401 37.1611 91.0611C37.154 90.1449 36.5113 89.3743 35.6981 89.2287V89.1861C36.4047 89.0156 36.8841 88.3516 36.8912 87.5668C36.8841 86.4553 35.904 85.6278 34.5724 85.6278C33.2265 85.6278 32.2464 86.4553 32.2535 87.5668C32.2464 88.348 32.7258 89.0156 33.4466 89.1861V89.2287C32.6192 89.3743 31.9765 90.1449 31.9836 91.0611C31.9765 92.2401 33.0454 93.0994 34.5724 93.0994ZM34.5724 92.201C33.6633 92.201 33.088 91.718 33.0951 90.9901C33.088 90.2337 33.713 89.6939 34.5724 89.6939C35.4175 89.6939 36.0425 90.2337 36.0496 90.9901C36.0425 91.718 35.4708 92.201 34.5724 92.201ZM34.5724 88.8168C33.8373 88.8168 33.3153 88.3516 33.3224 87.6591C33.3153 86.9773 33.8195 86.5263 34.5724 86.5263C35.311 86.5263 35.8153 86.9773 35.8224 87.6591C35.8153 88.3516 35.2968 88.8168 34.5724 88.8168ZM40.6769 93.1207C42.3566 93.1207 43.3402 91.75 43.3402 89.3672C43.3402 87.0021 42.3424 85.6278 40.6769 85.6278C39.0079 85.6278 38.0135 86.9986 38.01 89.3672C38.01 91.7464 38.9937 93.1172 40.6769 93.1207ZM40.6769 92.1726C39.6932 92.1726 39.1002 91.1854 39.1002 89.3672C39.1037 87.5561 39.6968 86.5582 40.6769 86.5582C41.6535 86.5582 42.25 87.5561 42.25 89.3672C42.25 91.1854 41.657 92.1726 40.6769 92.1726ZM46.6839 93H47.7173V88.4616H50.093V93H51.1335V87.5455H46.6839V93ZM53.3051 91.5121V87.5455H52.2647V93H53.4188L55.8122 89.0298V93H56.8527V87.5455H55.7093L53.3051 91.5121ZM60.2895 93.1101C61.5785 93.1101 62.413 92.3359 62.5302 91.2741H61.4969C61.3619 91.8636 60.9038 92.2116 60.2966 92.2116C59.3981 92.2116 58.8193 91.4624 58.8193 90.2727C58.8193 89.1044 59.4088 88.3693 60.2966 88.3693C60.9713 88.3693 61.3832 88.7955 61.4969 89.3068H62.5302C62.4166 88.206 61.5182 87.4744 60.2788 87.4744C58.7412 87.4744 57.7469 88.6321 57.7469 90.2976C57.7469 91.9418 58.7057 93.1101 60.2895 93.1101ZM65.7282 93.1101C66.9178 93.1101 67.7594 92.5241 68.0009 91.6364L66.9959 91.4553C66.8042 91.9702 66.3425 92.233 65.7388 92.233C64.8297 92.233 64.2189 91.6435 64.1905 90.5923H68.0684V90.2159C68.0684 88.245 66.8894 87.4744 65.6536 87.4744C64.1337 87.4744 63.1323 88.6321 63.1323 90.3082C63.1323 92.0021 64.1195 93.1101 65.7282 93.1101ZM64.1941 89.7969C64.2367 89.0227 64.7978 88.3516 65.6607 88.3516C66.4846 88.3516 67.0243 88.9624 67.0279 89.7969H64.1941ZM72.0191 91.6861L70.2933 87.5455H68.9581V93H69.9985V89.0334L71.625 93H72.4133L74.0681 89.0476V93H75.1015V87.5455H73.7805L72.0191 91.6861Z" fill="#7A7B7C"/>
<path d="M129.041 62.7878C140.082 62.7878 149.081 55.2742 149.081 44.6239C149.081 32.5146 140.082 25.2928 129.041 25.2928C114.294 25.2928 109 33.9736 109 44.6239C109.076 57.3897 117.999 62.7878 129.041 62.7878ZM129.041 31.0557C136.754 31.0557 142.955 36.089 142.955 44.478C142.955 51.9187 136.754 57.0979 129.041 57.0979C121.327 57.0979 115.126 53.3776 115.126 44.478C115.201 37.0373 118.831 31.0557 129.041 31.0557Z" fill="white"/>
<path d="M129.687 31.2951C137.023 31.5679 142.892 36.7516 142.892 45.2774C142.892 45.3456 142.892 45.3456 142.892 45.4138H148.971C148.971 33.2731 140.656 25.8386 130.246 25.2929C130.176 27.4073 129.896 29.5217 129.687 31.2951Z" fill="#FFC476"/>
<path d="M133.679 45.6716C134.188 45.3133 137.04 41.5385 138.652 39.0854" stroke="#574E56" stroke-width="1.28873" stroke-linecap="round"/>
<ellipse cx="134.33" cy="39.8302" rx="0.964936" ry="0.970327" fill="#574E56"/>
<path d="M139.477 44.701C139.477 45.2369 139.045 45.6714 138.512 45.6714C137.979 45.6714 137.547 45.2369 137.547 44.701C137.547 44.1651 137.979 43.7307 138.512 43.7307C139.045 43.7307 139.477 44.1651 139.477 44.701Z" fill="#574E56"/>
<path d="M118.344 42.0946C118.344 42.0946 121.921 37.9646 122.053 38.7641C122.186 39.5636 121.722 46.7575 121.722 46.7575" stroke="#574E56" stroke-width="1.28873" stroke-linecap="round"/>
<path d="M124.641 40.2388C124.862 38.6739 126.18 37.5286 127.638 38.1922C129.599 39.0844 129.437 40.6113 128.017 42.4512C126.881 43.923 124.736 45.7267 124.641 46.3529C124.546 46.9792 129.942 46.3529 129.942 46.3529" stroke="#574E56" stroke-width="1.28873" stroke-linecap="round"/>
<path d="M118.484 70.7273H112.874V78H113.967V71.6648H117.391V78H118.484V70.7273ZM119.789 80.0455H120.85V77.1513H120.914C121.106 77.4993 121.497 78.1065 122.491 78.1065C123.812 78.1065 124.771 77.0483 124.771 75.2834C124.771 73.5149 123.798 72.4744 122.48 72.4744C121.468 72.4744 121.103 73.0923 120.914 73.4297H120.826V72.5455H119.789V80.0455ZM120.829 75.2727C120.829 74.1328 121.326 73.3764 122.253 73.3764C123.216 73.3764 123.698 74.1896 123.698 75.2727C123.698 76.3665 123.201 77.201 122.253 77.201C121.341 77.201 120.829 76.4197 120.829 75.2727ZM127.97 78.1101C129.507 78.1101 130.512 76.9844 130.512 75.2976C130.512 73.6001 129.507 72.4744 127.97 72.4744C126.432 72.4744 125.427 73.6001 125.427 75.2976C125.427 76.9844 126.432 78.1101 127.97 78.1101ZM127.973 77.2188C126.968 77.2188 126.5 76.3416 126.5 75.294C126.5 74.25 126.968 73.3622 127.973 73.3622C128.971 73.3622 129.44 74.25 129.44 75.294C129.44 76.3416 128.971 77.2188 127.973 77.2188ZM135.788 72.5455H134.751V75.2621C134.392 75.358 134.03 75.4148 133.614 75.4148C132.89 75.4148 132.443 75.0881 132.443 74.3175V72.5348H131.409V74.3175C131.409 75.6811 132.265 76.331 133.614 76.331C134.026 76.331 134.403 76.2741 134.751 76.1854V78H135.788V72.5455ZM137.952 76.5121V72.5455H136.912V78H138.066L140.459 74.0298V78H141.5V72.5455H140.356L137.952 76.5121ZM141.962 73.4616H143.749V78H144.786V73.4616H146.565V72.5455H141.962V73.4616ZM148.733 78.1207C149.635 78.1207 150.143 77.6626 150.345 77.2543H150.388V78H151.425V74.3778C151.425 72.7905 150.175 72.4744 149.308 72.4744C148.321 72.4744 147.412 72.8722 147.057 73.8665L148.055 74.0938C148.211 73.7067 148.609 73.3338 149.322 73.3338C150.008 73.3338 150.359 73.6925 150.359 74.3104V74.3352C150.359 74.7223 149.962 74.7152 148.981 74.8288C147.948 74.9496 146.89 75.2195 146.89 76.4588C146.89 77.5312 147.696 78.1207 148.733 78.1207ZM148.964 77.2685C148.364 77.2685 147.93 76.9986 147.93 76.473C147.93 75.9048 148.435 75.7024 149.049 75.6207C149.393 75.5746 150.21 75.4822 150.363 75.3295V76.0327C150.363 76.679 149.848 77.2685 148.964 77.2685ZM153.591 72.5455H152.55V78H153.591V75.7344H155.952V78H156.989V72.5455H155.952V74.8146H153.591V72.5455ZM160.419 78.1101C161.957 78.1101 162.962 76.9844 162.962 75.2976C162.962 73.6001 161.957 72.4744 160.419 72.4744C158.881 72.4744 157.876 73.6001 157.876 75.2976C157.876 76.9844 158.881 78.1101 160.419 78.1101ZM160.423 77.2188C159.418 77.2188 158.949 76.3416 158.949 75.294C158.949 74.25 159.418 73.3622 160.423 73.3622C161.42 73.3622 161.889 74.25 161.889 75.294C161.889 76.3416 161.42 77.2188 160.423 77.2188Z" fill="black"/>
<path opacity="0.5" d="M115.459 85.7273H114.39L112.575 86.9134V87.9645L114.315 86.8281H114.358V93H115.459V85.7273ZM119.538 93.0994C121.001 93.0994 122.045 92.0661 122.042 90.6491C122.045 89.2429 121.065 88.2202 119.741 88.2202C119.201 88.2202 118.7 88.4261 118.416 88.7031H118.374L118.604 86.6683H121.69V85.7273H117.692L117.283 89.392L118.288 89.5412C118.562 89.2962 119.052 89.1293 119.492 89.1293C120.355 89.1364 120.98 89.7827 120.98 90.6705C120.98 91.544 120.373 92.1761 119.538 92.1761C118.835 92.1761 118.278 91.7287 118.221 91.1037H117.155C117.198 92.2614 118.203 93.0994 119.538 93.0994ZM123.051 93H127.837V92.0589H124.563V92.0057L126.009 90.4929C127.34 89.147 127.72 88.5043 127.72 87.6911C127.72 86.5227 126.769 85.6278 125.398 85.6278C124.038 85.6278 123.043 86.5085 123.043 87.8366H124.091C124.087 87.0554 124.592 86.544 125.377 86.544C126.115 86.544 126.676 86.9986 126.676 87.723C126.676 88.3658 126.293 88.8274 125.511 89.6548L123.051 92.2045V93ZM128.895 93H133.682V92.0589H130.408V92.0057L131.853 90.4929C133.185 89.147 133.565 88.5043 133.565 87.6911C133.565 86.5227 132.613 85.6278 131.242 85.6278C129.882 85.6278 128.888 86.5085 128.888 87.8366H129.935C129.932 87.0554 130.436 86.544 131.221 86.544C131.96 86.544 132.521 86.9986 132.521 87.723C132.521 88.3658 132.137 88.8274 131.356 89.6548L128.895 92.2045V93Z" fill="#7A7B7C"/>
<path d="M216.041 63.7239C227.082 63.7239 236.081 55.8925 236.081 44.7918C236.081 32.1704 227.082 24.6432 216.041 24.6432C201.294 24.6432 196 33.691 196 44.7918C196.076 58.0975 204.999 63.7239 216.041 63.7239ZM216.041 30.6497C223.754 30.6497 229.955 35.896 229.955 44.6397C229.955 52.395 223.754 57.7933 216.041 57.7933C208.327 57.7933 202.126 53.9157 202.126 44.6397C202.201 36.8844 205.831 30.6497 216.041 30.6497Z" fill="white"/>
<path d="M215.587 30.6186V24.717C216.878 24.4514 218.756 24.6063 219.257 24.7169C219.025 26.7579 218.186 30.6597 217.896 30.6186C217.38 30.5457 216.198 30.5448 215.587 30.6186Z" fill="#7874F4"/>
<path d="M218.483 45.6719C218.993 45.3135 221.844 41.5387 223.457 39.0857" stroke="#574E56" stroke-width="1.28873" stroke-linecap="round"/>
<ellipse cx="219.135" cy="39.8302" rx="0.964936" ry="0.970327" fill="#574E56"/>
<path d="M224.282 44.7013C224.282 45.2372 223.85 45.6716 223.317 45.6716C222.785 45.6716 222.353 45.2372 222.353 44.7013C222.353 44.1654 222.785 43.731 223.317 43.731C223.85 43.731 224.282 44.1654 224.282 44.7013Z" fill="#574E56"/>
<path d="M209.445 40.2388C209.666 38.6739 210.985 37.5286 212.443 38.1922C214.404 39.0844 214.241 40.6113 212.822 42.4512C211.686 43.923 209.54 45.7267 209.446 46.3529C209.351 46.9792 214.746 46.3529 214.746 46.3529" stroke="#574E56" stroke-width="1.28873" stroke-linecap="round"/>
<path d="M203.484 70.7273H197.874V78H198.967V71.6648H202.391V78H203.484V70.7273ZM207.14 78.1101C208.329 78.1101 209.171 77.5241 209.412 76.6364L208.407 76.4553C208.216 76.9702 207.754 77.233 207.15 77.233C206.241 77.233 205.63 76.6435 205.602 75.5923H209.48V75.2159C209.48 73.245 208.301 72.4744 207.065 72.4744C205.545 72.4744 204.544 73.6321 204.544 75.3082C204.544 77.0021 205.531 78.1101 207.14 78.1101ZM205.605 74.7969C205.648 74.0227 206.209 73.3516 207.072 73.3516C207.896 73.3516 208.436 73.9624 208.439 74.7969H205.605ZM210.369 80.0455H211.431V77.1513H211.495C211.687 77.4993 212.078 78.1065 213.072 78.1065C214.393 78.1065 215.352 77.0483 215.352 75.2834C215.352 73.5149 214.379 72.4744 213.061 72.4744C212.049 72.4744 211.683 73.0923 211.495 73.4297H211.406V72.5455H210.369V80.0455ZM211.41 75.2727C211.41 74.1328 211.907 73.3764 212.834 73.3764C213.796 73.3764 214.279 74.1896 214.279 75.2727C214.279 76.3665 213.782 77.201 212.834 77.201C211.921 77.201 211.41 76.4197 211.41 75.2727ZM218.604 78.1101C219.793 78.1101 220.635 77.5241 220.876 76.6364L219.871 76.4553C219.68 76.9702 219.218 77.233 218.614 77.233C217.705 77.233 217.095 76.6435 217.066 75.5923H220.944V75.2159C220.944 73.245 219.765 72.4744 218.529 72.4744C217.009 72.4744 216.008 73.6321 216.008 75.3082C216.008 77.0021 216.995 78.1101 218.604 78.1101ZM217.07 74.7969C217.112 74.0227 217.673 73.3516 218.536 73.3516C219.36 73.3516 219.9 73.9624 219.903 74.7969H217.07ZM222.545 72.5455H221.38L223.056 75.2727L221.359 78H222.523L223.749 75.9616L224.977 78H226.138L224.423 75.2727L226.124 72.5455H224.963L223.749 74.669L222.545 72.5455ZM228.999 78.1101C230.537 78.1101 231.542 76.9844 231.542 75.2976C231.542 73.6001 230.537 72.4744 228.999 72.4744C227.461 72.4744 226.456 73.6001 226.456 75.2976C226.456 76.9844 227.461 78.1101 228.999 78.1101ZM229.003 77.2188C227.998 77.2188 227.529 76.3416 227.529 75.294C227.529 74.25 227.998 73.3622 229.003 73.3622C230 73.3622 230.469 74.25 230.469 75.294C230.469 76.3416 230 77.2188 229.003 77.2188ZM231.906 79.5732H232.957V78H236.76V79.5732H237.797V77.0803H236.959V72.5455H233.252L233.081 74.5803C232.968 75.9545 232.801 76.6719 232.35 77.0803H231.906V79.5732ZM233.486 77.0803C233.848 76.5724 233.983 75.7273 234.09 74.5803L234.203 73.4545H235.922V77.0803H233.486ZM240.844 78.1101C242.382 78.1101 243.387 76.9844 243.387 75.2976C243.387 73.6001 242.382 72.4744 240.844 72.4744C239.307 72.4744 238.302 73.6001 238.302 75.2976C238.302 76.9844 239.307 78.1101 240.844 78.1101ZM240.848 77.2188C239.843 77.2188 239.374 76.3416 239.374 75.294C239.374 74.25 239.843 73.3622 240.848 73.3622C241.846 73.3622 242.314 74.25 242.314 75.294C242.314 76.3416 241.846 77.2188 240.848 77.2188ZM244.284 78H246.89C248.083 78 248.783 77.3963 248.783 76.5298C248.783 75.7202 248.161 75.223 247.433 75.1378C248.105 75.0099 248.548 74.6406 248.548 74.0014C248.548 73.1065 247.774 72.5455 246.546 72.5455H244.284V78ZM245.281 77.1122V75.5959H246.89C247.416 75.5959 247.732 75.9048 247.732 76.4126C247.732 76.8459 247.416 77.1122 246.89 77.1122H245.281ZM245.281 74.8182V73.4439H246.546C247.149 73.4439 247.515 73.696 247.515 74.1151C247.515 74.5518 247.153 74.8182 246.556 74.8182H245.281Z" fill="black"/>
<path opacity="0.5" d="M200.459 85.7273H199.39L197.575 86.9134V87.9645L199.315 86.8281H199.358V93H200.459V85.7273ZM204.538 93.0994C206.001 93.0994 207.045 92.0661 207.042 90.6491C207.045 89.2429 206.065 88.2202 204.741 88.2202C204.201 88.2202 203.7 88.4261 203.416 88.7031H203.374L203.604 86.6683H206.69V85.7273H202.692L202.283 89.392L203.288 89.5412C203.562 89.2962 204.052 89.1293 204.492 89.1293C205.355 89.1364 205.98 89.7827 205.98 90.6705C205.98 91.544 205.373 92.1761 204.538 92.1761C203.835 92.1761 203.278 91.7287 203.221 91.1037H202.155C202.198 92.2614 203.203 93.0994 204.538 93.0994ZM210.582 93.0994C212.067 93.0994 213.157 92.2116 213.154 91.0043C213.157 90.0845 212.6 89.424 211.634 89.2749V89.218C212.394 89.0227 212.887 88.4261 212.884 87.6094C212.887 86.5405 212.01 85.6278 210.611 85.6278C209.276 85.6278 208.203 86.4339 208.168 87.6165H209.229C209.254 86.9489 209.883 86.544 210.597 86.544C211.339 86.544 211.825 86.995 211.822 87.6662C211.825 88.3693 211.261 88.831 210.455 88.831H209.84V89.7259H210.455C211.463 89.7259 212.046 90.2372 212.046 90.9688C212.046 91.6754 211.431 92.1548 210.575 92.1548C209.787 92.1548 209.173 91.75 209.13 91.1037H208.015C208.061 92.2898 209.112 93.0994 210.582 93.0994Z" fill="#7A7B7C"/>
</svg>
