<svg width="573" height="502" viewBox="0 0 573 502" fill="none" xmlns="http://www.w3.org/2000/svg">
<path d="M219.234 1.6487C241.734 5.1487 263.034 14.8487 280.634 32.1487C298.534 49.8487 309.534 73.3487 327.534 91.0487C345.134 108.549 367.634 121.149 391.734 126.949C411.734 131.749 430.634 128.049 450.334 133.949C471.534 140.349 491.634 150.749 508.834 164.649C542.434 191.749 565.134 232.049 570.934 274.749C574.634 301.949 571.534 330.549 558.534 354.749C548.334 373.649 532.234 389.349 513.134 399.049C481.234 415.149 443.734 414.149 408.234 418.349C375.034 422.249 342.434 431.149 311.834 444.449C273.434 461.149 237.934 485.049 197.334 495.549C148.834 508.149 94.2337 499.349 54.7337 468.549C15.1337 437.949 -7.0663 384.749 2.9337 335.749C9.1337 305.649 26.1337 278.949 36.4337 250.049C45.2337 225.249 49.1337 198.649 47.8337 172.349C46.5337 147.449 40.6337 122.049 47.1337 98.0487C52.0337 79.9487 63.6337 64.2487 76.9337 51.0487C112.134 16.1487 168.834 -6.2513 219.234 1.6487Z" fill="white"/>
</svg>
