<svg width="557" height="557" viewBox="0 0 557 557" fill="none" xmlns="http://www.w3.org/2000/svg">
<path d="M224.708 236.776C211.918 235.745 199.076 236.467 186.492 239.046C180.148 240.335 173.908 242.089 167.822 244.255C161.891 246.369 155.599 248.69 150.751 252.816C146.316 256.581 143.17 262.203 144.562 268.134C145.903 274.013 150.493 278.397 155.651 281.182C161.066 284.121 167.152 285.823 173.134 287.164C179.478 288.608 185.976 289.485 192.475 289.743C206.606 290.31 220.737 288.093 233.992 283.245C235.848 282.574 236.674 285.566 234.817 286.236C221.717 291.032 207.792 293.302 193.867 292.889C180.716 292.528 166.223 290.259 154.464 284.07C144.304 278.706 137.084 266.999 143.84 256.065C147.038 250.908 152.195 247.555 157.61 245.028C163.954 242.089 170.659 239.819 177.415 237.963C192.784 233.785 208.824 232.341 224.708 233.63C226.668 233.837 226.668 236.931 224.708 236.776Z" fill="#584F57"/>
<path d="M136.413 372.107C142.705 380.513 142.396 390.467 142.138 393.459C137.187 394.593 127.594 399.957 127.594 399.957C127.594 399.957 132.803 372.52 113.772 369.322C118.723 367.465 136.413 372.107 136.413 372.107Z" fill="#732759"/>
<path d="M141.829 378.141C142.396 381.854 142.757 386.032 142.964 390.674L137.651 390.983C137.445 386.238 137.032 382.112 136.414 378.605C138.167 378.399 139.972 378.193 141.829 378.141Z" fill="#8C4D71"/>
<path d="M121.045 373.706C113.515 368.084 105.985 364.422 109.337 409.498L97.372 409.395C97.372 409.395 94.0198 372.004 119.085 363.855C119.085 363.855 130.586 361.895 136.207 367.465C136.207 367.723 121.045 373.19 121.045 373.706Z" fill="#732759"/>
<path d="M308.362 523.27C201.805 523.27 115.423 517.867 115.423 511.202C115.423 504.537 201.805 499.134 308.362 499.134C414.919 499.134 501.3 504.537 501.3 511.202C501.3 517.867 414.919 523.27 308.362 523.27Z" fill="#D4E6FF"/>
<path d="M198.044 263.595C202.583 263.595 207.121 262.925 211.608 262.306C214.754 261.893 218.107 261.274 221.253 261.945C222.026 262.099 222.645 263.079 222.336 263.853C220.84 267.618 218.932 271.331 215.683 273.91C213.001 276.076 209.803 277.314 206.709 278.655C204.904 279.428 203.305 276.798 205.162 275.973C207.792 274.787 210.628 273.807 213.001 272.105C216.095 269.887 217.952 266.483 219.396 262.976C219.757 263.595 220.118 264.266 220.479 264.884C217.282 264.162 213.517 265.091 210.319 265.555C206.245 266.122 202.17 266.638 198.096 266.638C196.033 266.69 196.033 263.595 198.044 263.595Z" fill="#584F57"/>
<path d="M360.245 181.18C361.431 204.852 346.63 225.379 328.218 238.736C318.625 245.699 307.949 251.166 297.067 255.704C285.514 260.552 273.446 264.214 261.068 266.071C247.556 268.134 233.786 268.03 220.428 264.936C220.944 264.781 221.408 264.678 221.923 264.523C216.818 269.578 209.804 273.085 202.79 274.322C200.83 274.683 200.005 271.692 201.964 271.331C207.586 270.3 212.795 267.876 217.282 264.369C218.107 263.75 218.829 262.925 219.654 262.357C221.408 261.171 224.502 262.615 226.514 262.976C240.49 265.4 254.931 264.472 268.753 261.48C282.575 258.489 295.881 253.435 308.465 246.988C320.688 240.748 332.344 233.063 341.421 222.645C351.426 211.196 357.924 196.446 357.151 181.077C357.048 179.168 360.142 179.22 360.245 181.18Z" fill="#584F57"/>
<path d="M329.455 394.748C329.455 394.748 396.502 400.937 424.61 387.631C462.362 369.735 485.106 312.178 448.643 292.631C448.849 299.284 447.199 311.714 447.199 311.714L337.759 377.007" fill="#F9B442"/>
<path d="M276.024 67.5622C269.216 54.1529 226.977 78.4959 212.794 73.7511C219.086 94.0197 237.24 98.4035 251.32 114.907C251.372 114.907 283.863 82.9828 276.024 67.5622Z" fill="#584F57"/>
<path d="M236.158 154.722C238.736 129.657 231.98 110.936 239.304 97.0624C243.584 88.9653 252.61 80.9197 259.263 77.258C260.346 76.6906 252.661 77.7221 253.59 76.9485C255.446 75.4529 268.288 73.0805 270.919 72.1521C273.601 71.1722 254.363 73.2868 256.994 71.9974C262.099 69.4187 275.457 67.562 279.532 67.4589C294.54 61.3731 320.688 61.631 334.974 64.8802C356.222 69.7281 373.035 104.799 369.116 97.836C383.969 123.365 386.496 139.766 388.353 176.332C389.9 206.245 381.906 233.373 382.164 257.819C382.37 276.746 341.627 263.182 327.495 250.598L297.789 217.539L236.158 154.722Z" fill="#F9B442"/>
<path d="M301.553 417.08C305.628 436.781 328.424 485.931 334.509 508.778C324.504 508.727 307.588 503.157 310.063 517.7L344.411 517.649L320.687 415.274" fill="#584F57"/>
<path d="M301.553 417.08C305.628 436.781 328.424 485.931 334.509 508.778C324.504 508.727 307.588 503.157 310.063 517.7L344.411 517.649L320.687 415.274" fill="url(#paint0_linear)"/>
<path d="M185.667 349.672C145.439 363.597 122.953 369.941 94.6901 372.932C89.0685 367.465 76.7423 350.239 67.459 364.629L91.5441 381.648C91.5441 381.648 162.974 377.986 195.466 372.829" fill="#584F57"/>
<path d="M185.667 349.672C145.439 363.597 122.953 369.941 94.6901 372.932C89.0685 367.465 76.7423 350.239 67.459 364.629L91.5441 381.648C91.5441 381.648 162.974 377.986 195.466 372.829" fill="url(#paint1_linear)"/>
<path d="M388.869 176.899C383.092 284.844 377.729 435.079 308.052 429.973C269.423 424.248 215.219 412.696 188.091 373.706C178.24 359.574 176.229 319.811 202.119 298.098C253.177 255.292 262.976 211.969 263.492 155.754" fill="#F9B442"/>
<path d="M388.869 176.899C383.092 284.844 377.729 435.079 308.052 429.973C269.423 424.248 215.219 412.696 188.091 373.706C178.24 359.574 176.229 319.811 202.119 298.098C253.177 255.292 262.976 211.969 263.492 155.754" fill="url(#paint2_linear)"/>
<path d="M282.213 111.452C275.457 128.368 233.27 123.417 197.374 119.342C194.125 158.229 204.182 174.166 224.089 188.297C231.155 193.3 250.289 197.219 266.999 197.632" fill="#F9B442"/>
<path d="M216.096 121.663C209.752 156.579 191.804 148.43 187.988 124.19C184.997 105.005 217.694 113.05 216.096 121.663Z" fill="#584F57"/>
<path d="M297.222 90.4608C351.529 137.651 269.423 165.759 256.942 133.422C245.441 103.612 283.606 78.6504 297.222 90.4608Z" fill="#ECF7FC"/>
<path d="M389.126 49.9751C368.755 34.606 326.928 45.9523 291.342 55.2357C296.345 76.3295 356.48 91.7501 372.984 119.549C395.418 100.002 389.126 49.9751 389.126 49.9751Z" fill="#584F57"/>
<path d="M287.069 127.131C284.819 126.504 283.862 122.882 284.931 119.04C286.001 115.199 288.692 112.592 290.942 113.219C293.192 113.845 294.149 117.467 293.08 121.309C292.01 125.151 289.319 127.757 287.069 127.131Z" fill="#584F57"/>
<path d="M243.684 124.486C241.763 123.951 240.943 120.87 241.852 117.605C242.761 114.339 245.055 112.125 246.976 112.66C248.897 113.195 249.717 116.276 248.808 119.541C247.899 122.807 245.605 125.02 243.684 124.486Z" fill="#584F57"/>
<path d="M225.533 128.11C227.854 128.11 227.854 131.668 225.533 131.668C223.212 131.72 223.212 128.161 225.533 128.11Z" fill="#F9B442"/>
<path d="M219.242 136.104C221.562 136.104 221.562 139.663 219.242 139.663C216.972 139.663 216.921 136.104 219.242 136.104Z" fill="#F9B442"/>
<path d="M223.522 130.121C225.843 130.121 225.843 133.68 223.522 133.68C221.253 133.732 221.253 130.121 223.522 130.121Z" fill="#584F57"/>
<path d="M227.958 140.178C232.548 140.127 232.599 147.296 228.009 147.347C223.419 147.347 223.367 140.178 227.958 140.178Z" fill="#584F57"/>
<path d="M217.694 142.035C220.015 142.035 220.015 145.594 217.694 145.594C215.425 145.594 215.373 142.035 217.694 142.035Z" fill="#584F57"/>
<path d="M200.076 120.749C200.058 118.243 202.007 116.197 204.428 116.18C206.849 116.163 208.826 118.181 208.844 120.687C208.861 123.194 206.913 125.24 204.492 125.257C202.071 125.274 200.094 123.256 200.076 120.749Z" fill="#ECF7FC"/>
<path d="M243.429 266.69C212.175 299.026 195.826 353.54 212.743 365.918C246.627 390.777 261.532 373.396 274.425 330.28C292.94 268.495 334.457 238.118 317.593 225.688C300.728 213.259 274.27 234.817 243.429 266.69Z" fill="#ECF7FC"/>
<path d="M390.106 176.229C391.705 182.005 383.814 186.286 379.74 188.4C370.354 193.351 359.987 196.549 349.776 199.334C337.243 202.738 324.504 205.265 311.662 206.967C300.522 208.411 289.021 209.442 277.778 208.256C271.125 207.534 260.398 205.935 258.49 198.044C258.025 196.085 261.017 195.259 261.481 197.219C262.873 202.996 271.331 204.336 276.179 204.955C286.494 206.348 297.17 205.523 307.485 204.388C319.605 202.996 331.673 200.726 343.484 197.787C353.798 195.208 364.216 192.217 373.912 187.833C377.471 186.234 381.133 184.429 384.175 181.953C385.155 181.128 386.084 180.251 386.703 179.22C387.218 178.395 387.321 177.776 387.115 177.054C386.599 175.145 389.591 174.32 390.106 176.229Z" fill="#584F57"/>
<path d="M339.409 204.852C350.6 209.081 352.354 204.852 363.752 205.781C362.566 203.202 356.377 200.211 353.385 198.663C357.46 194.434 359.729 193.197 361.637 187.523C351.838 190.669 349.363 192.423 340.595 194.383L338.532 195.208C326.722 192.939 304.906 192.681 292.992 199.385C297.273 200.881 303.101 202.48 303.565 202.893C301.192 204.491 299.181 203.666 290.929 210.732C297.17 211.97 305.421 211.402 308.052 210.577C305.421 214.084 303.874 214.548 300.47 217.385C311.043 216.302 329.042 209.597 338.996 205.007" fill="#ECF7FC"/>
<path d="M341.42 192.423C343.019 200.417 343.896 203.254 342.761 207.844C339.821 209.391 335.335 209.7 334.664 207.689C333.478 204.285 332.756 199.437 332.859 193.506C335.747 190.979 341.42 192.423 341.42 192.423Z" fill="#584F57"/>
<path d="M296.809 118.002C297.118 114.598 296.499 111.039 293.972 108.512C291.239 105.778 286.958 105.263 283.967 107.893C283.245 108.563 282.11 107.48 282.884 106.81C285.978 104.077 290.362 103.922 293.766 106.294C297.531 108.976 298.769 113.618 298.356 118.002C298.304 118.981 296.757 118.981 296.809 118.002Z" fill="#584F57"/>
<path d="M250.392 113.772C249.464 110.987 247.968 107.171 244.461 107.016C241.366 106.861 239.355 109.853 237.808 112.07C237.241 112.896 235.9 112.122 236.467 111.297C238.478 108.357 241.16 104.85 245.183 105.572C248.999 106.242 250.753 110.059 251.836 113.36C252.197 114.288 250.701 114.701 250.392 113.772Z" fill="#584F57"/>
<path d="M317.335 166.068C312.384 172.979 312.745 180.303 317.902 183.088C323.06 185.873 331.105 184.893 336.005 181.592C357.202 167.358 367.259 132.236 369.941 100.466C370.508 93.5037 367.568 84.3235 364.319 82.9826C351.683 77.8767 343.535 100.311 344.515 104.334C346.01 110.472 347.97 110.626 352.767 113.05C351.013 133.886 345.34 152.762 331.466 164.263C331.466 164.263 324.143 156.63 317.335 166.068Z" fill="#A85A82"/>
<path d="M356.48 99.2801C353.695 102.993 351.374 107.223 350.085 111.709C347.197 110.265 345.701 109.131 344.566 104.334C343.587 100.363 351.735 77.9284 364.371 82.9827C365.557 83.4469 366.743 85.0457 367.723 87.2118C363.185 90.6157 359.317 95.5152 356.48 99.2801Z" fill="#6A2D57"/>
<path d="M317.336 166.069C321.307 160.55 325.484 160.86 328.218 162.097C323.834 168.647 320.636 176.229 319.76 183.965C319.089 183.758 318.47 183.449 317.851 183.14C312.745 180.251 312.384 172.979 317.336 166.069Z" fill="#6A2D57"/>
<path opacity="0.07" d="M355.81 109.801C354.83 112.071 353.798 113.257 353.798 113.257C353.798 113.257 352.973 146.419 332.653 164.263C332.653 164.263 333.323 165.965 333.014 167.874C350.549 148.998 353.437 145.748 355.81 109.801Z" fill="#EAFCFF"/>
<path opacity="0.05" d="M316.407 169.73C317.232 167.771 322.235 162.407 325.587 162.355C319.604 166.481 316.613 175.042 317.026 181.386C314.808 178.756 314.963 173.083 316.407 169.73Z" fill="#EAFCFF"/>
<path d="M336.985 141.829C343.225 140.23 351.271 142.19 356.635 145.49C358.852 146.883 361.173 148.894 361.483 151.628C361.844 154.877 359.471 157.249 357.047 159.003C356.635 159.312 355.913 159.261 355.5 159.003C349.569 154.928 343.122 153.845 336.16 155.702C334.252 156.218 333.426 153.227 335.335 152.711C343.019 150.648 350.497 151.782 357.047 156.321C356.532 156.321 356.016 156.321 355.5 156.321C357.099 155.135 359.11 153.33 358.182 151.112C357.305 149.101 354.778 147.863 352.921 146.986C348.538 144.975 342.607 143.531 337.81 144.768C335.85 145.336 335.025 142.344 336.985 141.829Z" fill="#584F57"/>
<path d="M378.605 243.326C380.049 256.22 375.614 269.526 369.064 280.511C364.267 288.608 356.583 299.13 346.578 300.986C340.543 302.121 334.045 298.356 330.486 293.663C326.67 288.66 325.329 282.265 324.916 276.076C323.782 258.747 328.733 240.902 333.632 224.45C338.687 207.431 344.876 190.824 350.446 173.959C352.148 168.905 354.056 163.49 354.778 158.229C354.881 157.559 354.933 156.734 354.881 156.011C354.881 155.702 354.726 155.186 354.675 155.135C354.726 155.186 354.829 155.289 354.572 154.98C354.159 154.567 353.798 154.103 353.385 153.691C351.735 152.092 349.724 150.751 347.506 150.029C344.102 148.997 340.904 149.874 338.016 151.731C336.314 152.814 334.767 150.132 336.469 149.049C341.472 145.851 347.248 145.645 352.302 148.843C354.107 149.977 356.377 151.628 357.46 153.639C359.058 156.527 357.408 161.272 356.634 164.16C352.715 179.014 346.835 193.454 341.987 207.998C336.211 225.43 330.486 243.378 328.423 261.687C327.186 273.033 326.412 290.207 338.532 296.241C341.523 297.737 344.618 298.304 347.867 297.17C352.612 295.468 356.531 291.651 359.729 287.938C368.135 278.19 374.17 265.245 375.459 252.352C375.768 249.257 375.768 246.163 375.407 243.069C375.304 241.367 378.399 241.367 378.605 243.326Z" fill="#584F57"/>
<path d="M330.951 176.28C337.037 181.128 338.12 193.093 332.808 198.766C330.177 201.603 325.175 203.202 321.874 200.468C318.573 197.735 321.049 193.093 324.143 191.288C331.57 186.956 335.593 200.726 336.366 205.471C337.604 213.104 335.335 222.8 330.693 229.04C329.352 230.845 326.928 232.651 324.968 230.536C323.215 228.628 322.905 224.811 324.246 222.645C327.599 217.333 336.676 218.468 341.42 220.737C344.773 222.336 347.558 225.018 348.95 228.525C350.24 231.722 349.879 235.384 349.414 238.736C348.95 242.037 345.804 256.014 339.873 250.186C335.902 246.266 339.564 240.954 343.535 238.891C349.414 235.797 356.274 237.55 360.4 242.656C365.97 249.567 365.918 258.025 363.546 266.174C362.824 268.649 359.059 281.13 354.417 278.448C352.354 277.262 352.56 273.291 352.973 271.331C353.592 268.546 355.706 266.689 358.595 266.638C365.918 266.535 373.035 273.961 375.511 280.253C378.554 287.99 374.995 298.098 370.405 304.545C369.013 306.505 366.692 309.393 363.958 308.877C361.483 308.413 360.4 305.215 360.4 302.998C360.348 297.324 366.795 297.737 370.457 299.491C376.645 302.43 380.565 308.929 380.875 315.685C381.184 322.75 377.522 332.653 369.27 333.168C366.64 333.323 363.958 332.085 363.185 329.404C362.411 326.619 363.855 323.163 366.589 322.08C369.941 320.739 374.015 322.441 376.903 324.195C380.359 326.309 383.969 329.507 385.31 333.478C387.424 339.873 382.525 347.042 378.038 351.116C374.686 354.159 367.053 358.388 365.093 351.632C364.371 349.208 364.268 345.237 366.795 343.793C369.374 342.245 372.777 344.36 374.84 345.907C381.132 350.497 386.857 357.46 387.27 365.557C387.631 373.19 382.215 380.204 374.479 381.184C371.23 381.596 367.929 380.823 365.402 378.657C364.01 377.471 362.514 375.511 363.649 373.654C365.918 369.889 372.984 372.468 375.82 373.86C382.989 377.419 387.631 384.897 388.714 392.685C389.333 397.069 387.167 400.937 383.866 403.67C381.184 405.888 377.264 408.054 373.654 407.487C370.353 406.919 367.311 404.083 368.084 400.524C368.909 396.759 372.674 395.831 375.975 396.605C384.227 398.616 394.232 400.937 398.668 409.034C400.834 413.005 400.731 416.306 399.132 420.432C397.791 423.887 395.883 428.271 392.788 430.592C390.209 432.5 386.29 432.655 384.485 429.612C382.834 426.827 383.66 422.959 386.187 420.999C390.983 417.286 396.553 422.649 399.441 426.26C404.031 431.881 407.538 438.483 410.065 445.29C411.561 449.313 413.882 455.554 407.951 456.74C403 457.72 396.553 452.459 400.834 447.611C403.309 444.775 408.157 443.846 411.716 444.156C415.171 444.414 418.42 445.909 421.154 447.921C426.775 451.944 431.881 458.545 432.913 465.508C433.893 472.006 429.715 475.977 423.423 476.286C421.412 476.39 421.412 473.295 423.423 473.192C436.471 472.573 426.569 456.791 421.618 452.305C417.492 448.591 412.541 446.322 406.971 447.714C405.321 448.127 402.072 449.21 402.639 451.479C403 453.078 405.063 453.852 406.507 453.8C407.074 453.8 407.59 453.645 408.106 453.491C408.415 453.388 408.879 452.975 408.57 453.388C408.621 453.284 408.673 452.82 408.673 452.356C408.621 450.654 408.003 448.901 407.435 447.302C405.836 442.557 403.516 437.967 400.885 433.738C398.616 430.076 395.779 425.589 391.808 423.526C390.467 422.856 389.023 422.546 387.785 423.629C386.29 424.97 385.98 428.941 388.714 428.941C391.499 428.941 393.252 425.28 394.387 423.268C395.728 420.793 397.481 417.44 397.327 414.552C396.863 407.435 388.817 403.619 382.989 401.814C380.204 400.937 376.852 399.596 373.912 399.39C370.869 399.183 370.096 402.587 372.726 403.98C375.305 405.372 378.605 403.67 380.771 402.175C383.453 400.318 385.877 397.43 385.723 394.026C385.465 388.095 381.854 381.854 377.161 378.347C374.531 376.439 370.611 374.428 367.207 374.995C366.795 375.047 366.382 375.304 366.176 375.356C366.485 375.253 365.97 374.943 366.331 375.253C368.033 376.594 369.167 377.832 371.488 378.141C376.749 378.863 381.906 375.15 383.505 370.25C385.465 364.164 382.577 358.182 378.605 353.643C377.471 352.354 369.477 343.947 367.981 347.145C367.414 348.331 367.62 351.58 369.064 352.199C370.457 352.818 372.623 351.426 373.706 350.704C377.677 348.073 381.287 343.586 382.422 338.893C383.866 333.014 378.399 328.217 373.551 325.948C371.643 325.071 368.084 323.73 366.64 326C365.66 327.598 366.073 329.61 367.981 330.074C374.067 331.518 377.368 322.802 377.78 318.367C378.244 313.055 376.284 307.846 372.21 304.338C370.766 303.101 365.918 299.8 363.907 301.76C363.133 302.482 363.443 304.957 364.216 305.576C365.351 306.453 367.001 304.029 367.568 303.204C371.127 298.407 373.757 291.548 373.499 285.514C373.242 279.583 368.6 274.219 363.649 271.383C361.998 270.454 359.265 269.113 357.357 269.99C355.294 270.97 356.067 273.6 355.964 275.354C355.964 275.457 356.222 275.921 356.171 275.973C356.274 275.766 355.397 275.612 355.397 275.663C355.397 275.457 356.532 274.426 356.686 274.168C358.079 272.105 359.059 269.784 359.832 267.463C361.586 262.409 363.03 256.375 361.38 251.114C359.678 245.853 355.81 240.387 349.724 240.438C346.681 240.438 342.039 242.192 341.266 245.544C341.059 246.318 341.42 248.381 342.452 248.381C343.844 248.381 344.927 244.255 345.185 243.326C346.629 238.53 347.867 232.083 344.876 227.648C341.988 223.367 336.108 221.459 331.106 222.233C329.558 222.49 327.341 223.058 326.619 224.657C326.258 225.482 326.464 226.462 326.67 227.338C326.773 227.596 326.877 228.318 327.134 228.525C327.031 228.421 326.67 228.679 327.134 228.37C328.939 227.029 329.971 224.192 330.796 222.181C331.982 219.241 332.859 216.095 333.323 212.898C334.097 207.224 332.808 199.798 329.043 195.311C328.424 194.589 327.599 193.712 326.567 193.764C325.278 193.815 323.266 195.93 323.266 197.168C323.266 198.612 325.329 198.921 326.464 198.818C328.63 198.612 330.435 197.116 331.518 195.259C334.355 190.463 333.117 182.005 328.682 178.498C327.186 177.26 329.404 175.094 330.951 176.28Z" fill="#A85A82"/>
<path d="M288.815 152.659C292.528 161.736 287.99 182.263 270.764 184.119C243.791 187.008 235.539 167.822 238.788 154.206C255.085 159.261 272.414 159.364 288.815 152.659Z" fill="#584F57"/>
<path d="M405.578 462.619C403.876 477.421 399.235 488.509 392.633 501.609C392.22 502.434 392.839 503.363 393.768 503.311L465.198 500.01C465.714 500.01 466.023 499.443 465.817 499.031C460.762 488.355 453.387 479.175 452.614 463.393C434.769 458.545 405.578 462.619 405.578 462.619Z" fill="#A85A82"/>
<path d="M465.25 514.297C466.59 512.234 468.705 507.282 465.868 499.134C463.857 498.102 393.304 499.959 392.84 501.248C392.582 501.867 390.622 511.769 393.819 514.915L465.25 514.297Z" fill="#732759"/>
<path d="M442.145 472.161C445.755 476.184 446.528 482.372 444.362 487.324C443.95 488.252 443.485 489.077 442.867 489.902C440.339 493.461 436.265 495.936 431.933 496.607C426.621 497.432 420.999 495.627 416.873 492.12C414.501 490.109 413.469 487.633 413.057 484.538C412.438 480.258 414.913 469.376 426.311 467.313C431.262 466.436 438.586 468.138 442.145 472.161Z" fill="#6A2D57"/>
<path d="M442.145 470.304C445.755 474.327 446.528 480.515 444.362 485.467C442.196 490.418 437.245 493.925 431.933 494.75C426.621 495.575 420.999 493.77 416.873 490.263C414.501 488.252 413.469 485.776 413.057 482.682C412.438 478.401 414.913 467.519 426.311 465.456C431.262 464.579 438.586 466.281 442.145 470.304Z" fill="#E8FAFF"/>
<path d="M414.501 469.943H410.426V458.236C410.426 457.514 410.994 456.946 411.716 456.946H413.211C413.933 456.946 414.501 457.514 414.501 458.236V469.943Z" fill="#A85A82"/>
<path d="M446.168 469.943H442.093V458.236C442.093 457.514 442.66 456.946 443.383 456.946H444.878C445.6 456.946 446.168 457.514 446.168 458.236V469.943Z" fill="#A85A82"/>
<path d="M435.698 473.398C437.451 475.41 437.864 478.453 436.781 480.877C435.698 483.301 433.274 485.054 430.644 485.467C428.013 485.879 425.228 485.003 423.217 483.249C422.031 482.269 421.566 481.031 421.309 479.536C420.999 477.421 422.237 472.057 427.859 471.026C430.282 470.562 433.893 471.439 435.698 473.398Z" fill="#D4E6FF"/>
<path d="M435.698 472.47C437.451 474.481 437.864 477.524 436.781 479.948C435.698 482.372 433.274 484.126 430.644 484.538C428.013 484.951 425.228 484.074 423.217 482.321C422.031 481.341 421.566 480.103 421.309 478.607C420.999 476.493 422.237 471.129 427.859 470.098C430.282 469.634 433.893 470.51 435.698 472.47Z" fill="white"/>
<path d="M416.512 489.954C416.254 489.696 416.048 489.386 415.79 489.129L415.739 489.077C415.996 488.922 422.082 485.725 422.65 486.292C423.372 487.014 418.575 490.108 417.544 490.83C417.234 490.521 416.822 490.263 416.512 489.954Z" fill="#D4E6FF"/>
<path d="M415.275 489.593V488.2C415.275 488.045 415.378 487.891 415.481 487.839C416.616 487.22 422.082 484.177 422.547 484.693C423.372 485.518 416.873 489.85 416.873 489.85V491.191" fill="#732759"/>
<path d="M420.122 473.914C419.813 473.759 417.44 471.954 417.44 471.954L418.781 470.717L420.999 473.192L420.122 473.914Z" fill="#6A2D57"/>
<path d="M424.764 470.046L422.701 467.57L424.3 467.003L425.692 469.53L424.764 470.046Z" fill="#6A2D57"/>
<path d="M429.302 469.015L429.147 466.023C429.147 466.023 429.766 466.023 430.54 466.178C430.54 466.539 430.23 469.066 430.23 469.066L429.302 469.015Z" fill="#6A2D57"/>
<path d="M434.305 470.149L435.852 467.88L437.039 468.602L434.976 470.665L434.305 470.149Z" fill="#6A2D57"/>
<path d="M437.761 473.502L440.598 471.954L441.062 472.78L438.07 474.225L437.761 473.502Z" fill="#6A2D57"/>
<path d="M438.844 477.163C439.308 477.112 442.402 477.112 442.402 477.112L442.248 478.092L438.844 477.937V477.163Z" fill="#6A2D57"/>
<path d="M438.225 481.238L441.681 482.785L440.598 484.023L437.761 481.96L438.225 481.238Z" fill="#6A2D57"/>
<path d="M435.853 484.487L435.027 485.106L437.09 488.51L438.431 487.272L435.853 484.487Z" fill="#6A2D57"/>
<path d="M432.035 486.344L431.003 486.601L431.468 490.469L433.222 490.263L432.035 486.344Z" fill="#6A2D57"/>
<path d="M427.446 486.55L426.156 486.24L425.176 490.109L427.239 490.418L427.446 486.55Z" fill="#6A2D57"/>
<path opacity="0.07" d="M449.984 465.25C448.075 464.321 442.712 464.012 438.844 464.424C438.844 464.424 446.116 469.943 446.838 479.69C447.663 491.088 438.431 496.813 438.431 496.813C438.431 496.813 459.68 496.658 460.092 496.813C460.505 496.968 451.995 484.641 449.984 465.25Z" fill="#EAFCFF"/>
<path opacity="0.07" d="M407.641 465.25C409.55 464.321 414.913 464.012 418.781 464.424C418.781 464.424 411.509 469.943 410.787 479.69C409.962 491.088 419.194 496.813 419.194 496.813C419.194 496.813 397.945 496.658 397.533 496.813C397.172 496.916 405.63 484.641 407.641 465.25Z" fill="#EAFCFF"/>
<path opacity="0.05" d="M463.083 500.939C465.92 501.042 466.59 503.105 462.722 502.95C438.431 502.022 413.83 501.919 395.882 504.24C393.665 504.549 392.685 502.796 395.882 502.486C414.862 500.681 437.4 499.908 463.083 500.939Z" fill="#EAFCFF"/>
<path d="M296.087 218.055C302.018 248.536 259.005 340.131 225.482 359.213C187.317 331.363 158.59 255.034 164.315 218.726C183.449 203.254 264.472 197.529 296.087 218.055Z" fill="#732759"/>
<path d="M83.9627 390.467C84.1174 390.416 84.2721 390.364 84.4269 390.364C89.1717 390.416 160.344 391.086 185.048 392.427C185.46 392.427 185.667 393.046 185.306 393.304C175.971 399.441 162.665 403.516 155.651 407.332C155.496 407.435 155.29 407.487 155.083 407.487C140.488 408.312 78.0833 410.633 53.7403 405.836C52.451 405.579 52.1931 403.877 53.3277 403.258C62.6626 398.255 81.6419 391.293 83.9627 390.467Z" fill="#732759" stroke="#A85A82" stroke-width="2" stroke-miterlimit="10"/>
<path d="M185.357 384.433C186.543 384.897 187.059 386.393 186.337 387.424C185.099 389.333 183.758 391.189 182.417 393.097C177.26 400.524 172.721 408.363 168.905 416.512C168.596 417.131 168.08 417.543 167.409 417.647L149.1 420.689C147.708 420.947 146.47 419.71 146.728 418.317C149.101 405.733 152.453 393.252 156.63 381.132C156.94 380.307 157.713 379.74 158.59 379.74C167.77 379.998 176.796 381.132 185.357 384.433Z" fill="#CFE5FF"/>
<path d="M173.805 387.631C174.784 388.043 175.197 389.23 174.63 390.106C173.289 392.169 171.845 394.129 170.452 396.141C165.243 403.619 160.705 411.51 156.837 419.762C156.579 420.277 156.115 420.638 155.599 420.69L136.568 423.836C135.434 424.042 134.402 423.011 134.608 421.876C137.032 408.983 140.436 396.347 144.717 383.969C144.975 383.299 145.594 382.834 146.367 382.834C155.754 383.041 165.037 384.227 173.805 387.631Z" fill="#E2FAFF"/>
<path d="M130.534 416.77C130.276 417.802 129.141 418.369 128.161 417.905C125.944 416.873 123.778 415.739 121.611 414.656C113.463 410.581 94.6898 407.177 85.9737 404.547C85.458 404.392 85.0454 403.98 84.8391 403.464C84.8391 403.464 88.604 388.817 89.5323 384.072C89.6871 383.35 90.306 382.886 91.028 382.886C104.076 383.453 117.124 385.001 129.966 387.476C130.688 387.631 131.256 388.198 131.307 388.92C132.494 398.307 132.648 407.641 130.534 416.77Z" fill="#E2FAFF"/>
<path d="M104.592 421.618C104.438 422.34 103.664 422.701 102.994 422.392C100.57 421.309 98.1973 420.071 95.8249 418.885C87.6761 414.81 68.9032 411.406 60.1872 408.776C59.6714 408.621 59.2588 408.209 59.0525 407.693C59.0525 407.693 63.0753 392.015 63.8489 387.889C63.9521 387.424 64.3131 387.115 64.7772 387.115C78.1349 387.682 91.4411 389.23 104.541 391.808C105.005 391.911 105.418 392.324 105.469 392.788C106.707 402.432 106.913 412.128 104.592 421.618Z" fill="#CFE5FF"/>
<path d="M131.823 450.293C133.835 438.999 134.969 426.054 138.012 415.068C151.525 409.653 166.584 403.67 183.5 392.427C184.893 391.499 186.182 392.53 186.182 393.974C186.285 410.169 182.263 438.534 180.045 449.262C179.787 450.448 179.117 451.48 178.034 452.305C169.936 458.391 163.593 462.929 155.032 467.055C154.103 467.519 153.02 467.725 151.937 467.674C144.82 467.468 136.929 465.662 128.884 465.353C130.018 460.35 130.946 455.296 131.823 450.293Z" fill="#A85A82"/>
<path d="M89.5843 407.693L105.675 408.724C103.612 370.663 114.546 363.803 130.947 359.471C128.265 356.686 114.907 360.967 112.174 362.256C92.8334 372.365 89.5843 407.693 89.5843 407.693Z" fill="#A85A82"/>
<path d="M117.95 361.018C124.758 357.253 130.431 358.388 133.422 360.606C134.763 361.586 136.31 363.133 137.548 364.938C135.279 365.557 132.906 366.124 130.637 366.692C126.975 365.196 124.912 365.351 119.961 368.084C109.543 373.757 109.904 402.175 110.884 412.644L105.417 413.676C105.314 411.87 101.395 370.044 117.95 361.018Z" fill="#8C4D71"/>
<path d="M85.9739 398.616C83.8594 400.163 81.7964 401.659 79.6303 403.052C79.424 403.206 79.1146 403.103 78.9083 402.948C73.5446 398.358 68.7482 393.046 63.8486 387.992C63.3329 387.476 64.1581 386.651 64.6738 387.167C68.5935 391.189 72.4615 395.264 76.5359 399.183C77.2063 399.854 77.9799 400.782 78.8051 401.298C79.424 401.659 79.1661 401.711 79.785 401.556C80.146 401.504 80.9196 400.834 81.2291 400.576C82.6732 399.596 84.0141 398.565 85.4066 397.533C86.0255 397.172 86.5928 398.152 85.9739 398.616Z" fill="#594D57"/>
<path d="M180.973 399.235C180.458 415.326 180.561 431.83 177.931 447.766C177.776 448.746 176.28 448.333 176.435 447.354C179.065 431.572 178.91 415.171 179.426 399.235C179.426 398.255 180.973 398.255 180.973 399.235Z" fill="#732759"/>
<path d="M172.67 405.682C172.98 421.618 172.67 437.606 171.226 453.491C171.123 454.471 169.576 454.471 169.679 453.491C171.123 437.606 171.432 421.618 171.123 405.682C171.123 404.702 172.67 404.702 172.67 405.682Z" fill="#732759"/>
<path d="M164.264 411.51C164.934 427.446 164.779 443.692 163.232 459.577C163.129 460.557 161.582 460.557 161.685 459.577C163.232 443.692 163.439 427.446 162.716 411.51C162.665 410.478 164.212 410.478 164.264 411.51Z" fill="#732759"/>
<path d="M183.758 408.054C176.125 412.593 168.389 416.925 160.498 421.102C159.621 421.567 158.848 420.226 159.725 419.761C167.564 415.584 175.3 411.252 182.984 406.713C183.81 406.197 184.583 407.538 183.758 408.054Z" fill="#732759"/>
<path d="M183.5 417.028C176.847 422.65 168.957 426.879 160.963 430.334C160.034 430.695 159.261 429.406 160.189 428.993C168.028 425.641 175.868 421.463 182.417 415.945C183.191 415.326 184.274 416.409 183.5 417.028Z" fill="#732759"/>
<path d="M182.057 428.219C175.404 433.841 167.513 438.07 159.519 441.526C158.591 441.887 157.817 440.597 158.745 440.185C166.585 436.832 174.424 432.655 180.974 427.136C181.696 426.518 182.83 427.601 182.057 428.219Z" fill="#732759"/>
<path d="M285.669 226.616C290.672 252.558 254.157 330.384 225.688 346.578C193.248 322.905 168.802 258.025 173.702 227.184C189.896 214.032 258.799 209.133 285.669 226.616Z" fill="#A85A82"/>
<path d="M148.637 387.476C147.553 390.88 146.574 394.284 145.748 397.739C145.594 398.461 144.459 398.152 144.614 397.43C145.439 393.974 146.419 390.57 147.502 387.167C147.76 386.445 148.843 386.754 148.637 387.476Z" fill="#594D57"/>
<path d="M151.473 386.187C150.235 389.745 149.101 393.304 148.172 396.914C147.966 397.636 146.883 397.327 147.038 396.605C148.018 392.995 149.101 389.384 150.338 385.877C150.596 385.207 151.731 385.516 151.473 386.187Z" fill="#594D57"/>
<path d="M153.897 386.238C152.556 389.694 151.37 393.149 150.235 396.708C150.029 397.43 148.894 397.121 149.101 396.399C150.235 392.892 151.473 389.384 152.763 385.929C153.02 385.207 154.155 385.516 153.897 386.238Z" fill="#594D57"/>
<path d="M149.204 426.053C148.636 426.208 148.379 426.26 147.811 426.414C145.594 424.816 143.479 423.011 141.313 421.309C134.196 415.584 116.248 418.317 107.687 414.346C107.274 414.14 107.068 413.676 107.171 413.263L115.423 384.175C115.577 383.711 116.042 383.402 116.557 383.505C129.915 386.857 143.015 391.292 155.702 396.708C155.908 397.069 156.063 397.275 156.269 397.636C155.444 407.487 153.536 417.131 149.204 426.053Z" fill="#CFE5FF"/>
<path d="M143.427 405.011C138.837 407.59 133.989 409.653 128.987 411.406C128.78 411.509 128.419 411.355 128.316 411.148C123.778 402.381 120.528 392.943 115.68 384.278C115.319 383.608 116.299 383.041 116.66 383.711C120.064 389.848 122.798 396.398 125.686 402.845C126.305 404.237 126.924 405.63 127.594 407.023C127.852 407.641 128.522 409.859 129.09 410.22C129.709 410.581 134.814 408.002 135.743 407.59C138.167 406.558 140.488 405.372 142.757 404.083C143.479 403.619 144.046 404.65 143.427 405.011Z" fill="#594D57"/>
<path d="M54.3593 402.897C89.636 404.392 133.01 407.899 154.826 407.848C156.012 407.848 156.992 408.518 157.146 409.447C159.725 424.919 149.926 455.193 147.863 465.404C147.657 466.281 146.058 467.313 144.923 467.313C125.635 467.209 93.0914 464.167 61.5797 463.032C60.4966 462.98 59.6199 462.361 59.4136 461.536C55.1845 443.279 51.5227 422.856 51.9353 404.65C51.9353 403.567 53.0699 402.845 54.3593 402.897Z" fill="#A85A82"/>
<path d="M73.8023 409.911C73.5445 418.73 73.3897 427.549 73.3897 436.317C73.3897 444.259 73.4413 452.202 74.4212 460.092C74.5244 461.072 72.9772 461.072 72.874 460.092C71.8425 452.202 71.8425 444.259 71.8425 436.317C71.8425 427.498 71.9972 418.678 72.2551 409.911C72.3067 408.879 73.8539 408.879 73.8023 409.911Z" fill="#732759"/>
<path d="M84.5812 410.22C84.3232 424.455 84.0136 438.689 83.7557 452.924C83.7557 453.904 82.2078 453.904 82.2078 452.924C82.4658 438.689 82.7754 424.455 83.0333 410.22C83.0333 409.24 84.5812 409.24 84.5812 410.22Z" fill="#732759"/>
<path d="M104.386 424.3C89.4813 423.784 74.628 422.598 59.7746 421.412C58.7947 421.309 58.7947 419.761 59.7746 419.865C74.628 421.051 89.4813 422.237 104.386 422.753C105.366 422.804 105.366 424.351 104.386 424.3Z" fill="#732759"/>
<path d="M110.678 436.471C94.8967 435.079 79.115 433.377 63.2302 433.119C62.2503 433.119 62.2503 431.572 63.2302 431.572C79.115 431.83 94.8967 433.532 110.678 434.924C111.658 435.027 111.71 436.575 110.678 436.471Z" fill="#732759"/>
<path d="M95.9277 410.942C94.9993 422.546 94.5867 434.202 94.7414 445.858C94.7414 446.838 93.1942 446.838 93.1942 445.858C93.0394 434.202 93.452 422.598 94.3804 410.942C94.432 409.962 95.9793 409.962 95.9277 410.942Z" fill="#732759"/>
<path d="M269.217 252.094C266.741 271.744 259.985 288.763 256.065 295.622C246.576 298.098 198.612 296.912 195.053 296.654C191.392 288.247 181.231 262.925 180.561 252.971C185.357 251.062 228.009 246.627 269.217 252.094Z" fill="#732759"/>
<path d="M235.539 268.649C233.889 270.712 232.135 272.672 230.381 274.632C229.041 276.128 227.7 277.933 226.101 279.222C224.45 280.563 222.697 278.913 221.201 277.984C212.64 272.827 204.13 267.618 195.466 262.615C190.205 259.572 184.893 256.581 179.426 253.848C177.621 252.971 179.22 250.289 180.974 251.166C192.836 256.994 204.182 264.008 215.477 270.867C217.54 272.105 219.603 273.394 221.717 274.632C222.697 275.199 224.502 275.87 225.224 276.746C225.585 277.159 225.379 276.489 225.172 276.746C223.883 277.262 223.471 277.314 223.935 276.901C224.038 276.798 224.193 276.643 224.296 276.54C224.966 275.56 226.049 274.632 226.874 273.755C229.041 271.331 231.207 268.907 233.27 266.38C234.611 264.936 236.777 267.154 235.539 268.649Z" fill="#A85A82"/>
<defs>
<linearGradient id="paint0_linear" x1="305.141" y1="416.335" x2="328.08" y2="521.25" gradientUnits="userSpaceOnUse">
<stop stop-opacity="0"/>
<stop offset="1"/>
</linearGradient>
<linearGradient id="paint1_linear" x1="168.812" y1="352.716" x2="60.5107" y2="395.009" gradientUnits="userSpaceOnUse">
<stop stop-opacity="0"/>
<stop offset="1"/>
</linearGradient>
<linearGradient id="paint2_linear" x1="281.143" y1="220.866" x2="300.827" y2="431.492" gradientUnits="userSpaceOnUse">
<stop stop-color="#F59A2E" stop-opacity="0"/>
<stop offset="1" stop-color="#F59A2E"/>
</linearGradient>
</defs>
</svg>
