<svg width="1366" height="808" viewBox="0 0 1366 808" fill="none" xmlns="http://www.w3.org/2000/svg">
<rect width="1366" height="808" fill="#F9F9F9"/>
<rect width="1366" height="72" fill="white"/>
<path d="M134.881 27.5455V38.4375C134.881 40.2528 133.594 41.5568 131.71 41.5568C129.818 41.5568 128.54 40.2528 128.54 38.4375V27.5455H124.321V38.804C124.321 42.7074 127.27 45.2216 131.71 45.2216C136.116 45.2216 139.091 42.7074 139.091 38.804V27.5455H134.881ZM145.703 37.5341C145.711 36.0426 146.581 35.1562 147.902 35.1562C149.223 35.1562 150.007 36.0256 149.998 37.4744V45H154.166V36.6562C154.174 33.7074 152.376 31.7386 149.623 31.7386C147.688 31.7386 146.223 32.7188 145.643 34.3125H145.498V31.9091H141.535V45H145.703V37.5341ZM156.546 45H160.714V31.9091H156.546V45ZM158.634 30.3835C159.819 30.3835 160.773 29.4886 160.773 28.3892C160.773 27.2898 159.819 26.4034 158.634 26.4034C157.458 26.4034 156.495 27.2898 156.495 28.3892C156.495 29.4886 157.458 30.3835 158.634 30.3835ZM167.334 27.5455H163.166V45H167.334V27.5455ZM173.477 45.2216C175.301 45.2216 176.562 44.5142 177.278 43.1761H177.38V45H181.301V36.1023C181.301 33.3324 178.838 31.7386 175.505 31.7386C171.986 31.7386 169.991 33.5114 169.659 35.8977L173.503 36.0341C173.682 35.1989 174.372 34.6875 175.471 34.6875C176.494 34.6875 177.142 35.1818 177.142 36.0597V36.1023C177.142 36.9034 176.272 37.0739 174.039 37.2699C171.389 37.4915 169.173 38.4716 169.173 41.3693C169.173 43.9602 170.971 45.2216 173.477 45.2216ZM174.764 42.4943C173.801 42.4943 173.119 42.0341 173.119 41.1648C173.119 40.321 173.784 39.8097 174.968 39.6307C175.744 39.5199 176.699 39.3494 177.167 39.1023V40.3466C177.167 41.625 176.093 42.4943 174.764 42.4943ZM187.817 37.5341C187.825 36.0426 188.695 35.1562 190.016 35.1562C191.337 35.1562 192.121 36.0256 192.112 37.4744V45H196.28V36.6562C196.288 33.7074 194.49 31.7386 191.737 31.7386C189.803 31.7386 188.337 32.7188 187.757 34.3125H187.612V31.9091H183.649V45H187.817V37.5341ZM203.441 45.1875C205.419 45.1875 206.595 44.0881 207.123 42.8778H207.251V45H211.376V27.5455H207.208V34.1506H207.123C206.629 32.9489 205.487 31.7386 203.424 31.7386C200.688 31.7386 198.208 33.8438 198.208 38.4631C198.208 42.9205 200.552 45.1875 203.441 45.1875ZM204.89 41.9403C203.348 41.9403 202.487 40.5682 202.487 38.4545C202.487 36.3494 203.339 34.9943 204.89 34.9943C206.416 34.9943 207.302 36.3153 207.302 38.4545C207.302 40.5767 206.407 41.9403 204.89 41.9403ZM213.812 45H217.979V31.9091H213.812V45ZM215.9 30.3835C217.084 30.3835 218.039 29.4886 218.039 28.3892C218.039 27.2898 217.084 26.4034 215.9 26.4034C214.724 26.4034 213.761 27.2898 213.761 28.3892C213.761 29.4886 214.724 30.3835 215.9 30.3835ZM224.6 37.5341C224.608 36.0426 225.477 35.1562 226.798 35.1562C228.119 35.1562 228.904 36.0256 228.895 37.4744V45H233.063V36.6562C233.071 33.7074 231.273 31.7386 228.52 31.7386C226.585 31.7386 225.119 32.7188 224.54 34.3125H224.395V31.9091H220.432V45H224.6V37.5341ZM241.545 50.1818C245.491 50.1818 248.184 48.3835 248.184 45.0511V31.9091H244.034V34.1506H243.914C243.412 32.9489 242.27 31.7386 240.207 31.7386C237.471 31.7386 234.991 33.8438 234.991 38.4375C234.991 42.8864 237.352 44.821 240.224 44.821C242.15 44.821 243.437 43.9261 243.932 42.7159H244.076V45.017C244.076 46.6875 243.054 47.2926 241.656 47.2926C240.318 47.2926 239.517 46.7812 239.295 45.9716L235.349 46.1932C235.656 48.4858 237.812 50.1818 241.545 50.1818ZM241.673 41.7869C240.13 41.7869 239.27 40.5341 239.27 38.4375C239.27 36.3494 240.122 34.9943 241.673 34.9943C243.199 34.9943 244.085 36.3153 244.085 38.4375C244.085 40.5426 243.19 41.7869 241.673 41.7869Z" fill="#191D3A"/>
<path d="M1070.05 30.3636V37.9545C1070.05 39.6591 1068.88 40.8864 1066.93 40.8864C1064.99 40.8864 1063.82 39.6591 1063.82 37.9545V30.3636H1062.41V38.0682C1062.41 40.4545 1064.19 42.2045 1066.93 42.2045C1069.67 42.2045 1071.45 40.4545 1071.45 38.0682V30.3636H1070.05ZM1079.87 35.2273C1079.45 33.9886 1078.5 33.1591 1076.78 33.1591C1074.94 33.1591 1073.57 34.2045 1073.57 35.6818C1073.57 36.8864 1074.29 37.6932 1075.89 38.0682L1077.35 38.4091C1078.23 38.6136 1078.64 39.0341 1078.64 39.6364C1078.64 40.3864 1077.85 41 1076.6 41C1075.5 41 1074.81 40.5284 1074.57 39.5909L1073.3 39.9091C1073.61 41.392 1074.83 42.1818 1076.62 42.1818C1078.65 42.1818 1080.03 41.0739 1080.03 39.5682C1080.03 38.3523 1079.27 37.5852 1077.71 37.2045L1076.41 36.8864C1075.38 36.6307 1074.91 36.2841 1074.91 35.6136C1074.91 34.8636 1075.71 34.3182 1076.78 34.3182C1077.95 34.3182 1078.43 34.9659 1078.66 35.5682L1079.87 35.2273ZM1085.31 42.1818C1087.08 42.1818 1088.37 41.2955 1088.78 39.9773L1087.49 39.6136C1087.15 40.5227 1086.36 40.9773 1085.31 40.9773C1083.73 40.9773 1082.65 39.9602 1082.58 38.0909H1088.92V37.5227C1088.92 34.2727 1086.99 33.1591 1085.17 33.1591C1082.81 33.1591 1081.24 35.0227 1081.24 37.7045C1081.24 40.3864 1082.78 42.1818 1085.31 42.1818ZM1082.58 36.9318C1082.67 35.5739 1083.63 34.3636 1085.17 34.3636C1086.62 34.3636 1087.56 35.4545 1087.56 36.9318H1082.58ZM1090.56 42H1091.9V36.4773C1091.9 35.2955 1092.83 34.4318 1094.1 34.4318C1094.46 34.4318 1094.83 34.5 1094.92 34.5227V33.1591C1094.77 33.1477 1094.42 33.1364 1094.22 33.1364C1093.17 33.1364 1092.26 33.7273 1091.94 34.5909H1091.85V33.2727H1090.56V42ZM1096.11 42H1097.45V36.5455C1097.45 35.267 1098.38 34.3636 1099.43 34.3636C1100.45 34.3636 1101.16 35.0284 1101.16 36.0227V42H1102.52V36.3182C1102.52 35.1932 1103.23 34.3636 1104.45 34.3636C1105.41 34.3636 1106.23 34.8693 1106.23 36.1591V42H1107.57V36.1591C1107.57 34.108 1106.46 33.1591 1104.91 33.1591C1103.66 33.1591 1102.74 33.733 1102.29 34.6364H1102.2C1101.77 33.7045 1101.01 33.1591 1099.86 33.1591C1098.73 33.1591 1097.88 33.7045 1097.52 34.6364H1097.41V33.2727H1096.11V42ZM1112.19 42.2045C1113.71 42.2045 1114.5 41.3864 1114.78 40.8182H1114.85V42H1116.19V36.25C1116.19 33.4773 1114.07 33.1591 1112.96 33.1591C1111.64 33.1591 1110.14 33.6136 1109.46 35.2045L1110.73 35.6591C1111.03 35.0227 1111.73 34.3409 1113 34.3409C1114.24 34.3409 1114.85 34.9943 1114.85 36.1136V36.1591C1114.85 36.8068 1114.19 36.75 1112.6 36.9545C1110.98 37.1648 1109.21 37.5227 1109.21 39.5227C1109.21 41.2273 1110.53 42.2045 1112.19 42.2045ZM1112.39 41C1111.32 41 1110.55 40.5227 1110.55 39.5909C1110.55 38.5682 1111.48 38.25 1112.53 38.1136C1113.1 38.0455 1114.62 37.8864 1114.85 37.6136V38.8409C1114.85 39.9318 1113.98 41 1112.39 41ZM1118.23 42H1119.57V33.2727H1118.23V42ZM1118.92 31.8182C1119.44 31.8182 1119.87 31.4091 1119.87 30.9091C1119.87 30.4091 1119.44 30 1118.92 30C1118.39 30 1117.96 30.4091 1117.96 30.9091C1117.96 31.4091 1118.39 31.8182 1118.92 31.8182ZM1122.97 30.3636H1121.63V42H1122.97V30.3636ZM1131.73 45.0682C1132.89 45.0682 1134.37 44.7273 1135.07 44.4318L1134.75 43.3864C1134.35 43.5227 1133.03 43.9773 1131.78 43.9773C1127.89 43.9773 1125.82 41.7955 1125.82 37.9318C1125.82 34.1364 1127.94 31.8636 1131.5 31.8636C1135.12 31.8636 1136.82 34.4091 1136.82 36.9545C1136.82 39.5455 1136.55 40.7045 1135.39 40.7045C1134.71 40.7045 1134.35 40.1364 1134.35 39.5V34.3636H1133.14V35H1133.07C1132.91 34.5 1132.03 34.0682 1130.89 34.1818C1129.19 34.3636 1127.89 35.7727 1127.89 37.8182C1127.89 39.9773 1128.91 41.6364 1130.89 41.7045C1132.19 41.75 1132.87 41.1136 1133.14 40.4545H1133.21C1133.35 41.4318 1134.57 41.7727 1135.37 41.7727C1137.78 41.7727 1138 39.1818 1138 36.9773C1138 33.8636 1135.82 30.7955 1131.57 30.7955C1127.19 30.7955 1124.57 33.4545 1124.57 37.8864C1124.57 42.4773 1127.1 45.0682 1131.73 45.0682ZM1131.07 40.5455C1129.6 40.5455 1129.07 39.2045 1129.07 37.75C1129.07 36.4318 1129.82 35.2955 1131.12 35.2955C1132.48 35.2955 1133.21 35.8409 1133.21 37.75C1133.21 39.6364 1132.6 40.5455 1131.07 40.5455ZM1139.61 42H1140.95V36.5455C1140.95 35.267 1141.88 34.3636 1142.93 34.3636C1143.95 34.3636 1144.66 35.0284 1144.66 36.0227V42H1146.02V36.3182C1146.02 35.1932 1146.73 34.3636 1147.95 34.3636C1148.91 34.3636 1149.73 34.8693 1149.73 36.1591V42H1151.07V36.1591C1151.07 34.108 1149.96 33.1591 1148.41 33.1591C1147.16 33.1591 1146.24 33.733 1145.79 34.6364H1145.7C1145.27 33.7045 1144.51 33.1591 1143.36 33.1591C1142.23 33.1591 1141.38 33.7045 1141.02 34.6364H1140.91V33.2727H1139.61V42ZM1155.69 42.2045C1157.21 42.2045 1158 41.3864 1158.28 40.8182H1158.35V42H1159.69V36.25C1159.69 33.4773 1157.57 33.1591 1156.46 33.1591C1155.14 33.1591 1153.64 33.6136 1152.96 35.2045L1154.23 35.6591C1154.53 35.0227 1155.23 34.3409 1156.5 34.3409C1157.74 34.3409 1158.35 34.9943 1158.35 36.1136V36.1591C1158.35 36.8068 1157.69 36.75 1156.1 36.9545C1154.48 37.1648 1152.71 37.5227 1152.71 39.5227C1152.71 41.2273 1154.03 42.2045 1155.69 42.2045ZM1155.89 41C1154.82 41 1154.05 40.5227 1154.05 39.5909C1154.05 38.5682 1154.98 38.25 1156.03 38.1136C1156.6 38.0455 1158.12 37.8864 1158.35 37.6136V38.8409C1158.35 39.9318 1157.48 41 1155.89 41ZM1161.73 42H1163.07V33.2727H1161.73V42ZM1162.42 31.8182C1162.94 31.8182 1163.37 31.4091 1163.37 30.9091C1163.37 30.4091 1162.94 30 1162.42 30C1161.89 30 1161.46 30.4091 1161.46 30.9091C1161.46 31.4091 1161.89 31.8182 1162.42 31.8182ZM1166.47 30.3636H1165.13V42H1166.47V30.3636ZM1169.5 42.0909C1170.07 42.0909 1170.53 41.6307 1170.53 41.0682C1170.53 40.5057 1170.07 40.0455 1169.5 40.0455C1168.94 40.0455 1168.48 40.5057 1168.48 41.0682C1168.48 41.6307 1168.94 42.0909 1169.5 42.0909ZM1176.08 42.1818C1178.01 42.1818 1179.28 41 1179.51 39.4545H1178.17C1177.92 40.4091 1177.12 40.9773 1176.08 40.9773C1174.49 40.9773 1173.47 39.6591 1173.47 37.6364C1173.47 35.6591 1174.51 34.3636 1176.08 34.3636C1177.26 34.3636 1177.97 35.0909 1178.17 35.8864H1179.51C1179.28 34.25 1177.9 33.1591 1176.06 33.1591C1173.69 33.1591 1172.12 35.0227 1172.12 37.6818C1172.12 40.2955 1173.62 42.1818 1176.08 42.1818ZM1184.62 42.1818C1186.98 42.1818 1188.57 40.3864 1188.57 37.6818C1188.57 34.9545 1186.98 33.1591 1184.62 33.1591C1182.25 33.1591 1180.66 34.9545 1180.66 37.6818C1180.66 40.3864 1182.25 42.1818 1184.62 42.1818ZM1184.62 40.9773C1182.82 40.9773 1182 39.4318 1182 37.6818C1182 35.9318 1182.82 34.3636 1184.62 34.3636C1186.41 34.3636 1187.23 35.9318 1187.23 37.6818C1187.23 39.4318 1186.41 40.9773 1184.62 40.9773ZM1190.22 42H1191.56V36.5455C1191.56 35.267 1192.49 34.3636 1193.54 34.3636C1194.55 34.3636 1195.26 35.0284 1195.26 36.0227V42H1196.63V36.3182C1196.63 35.1932 1197.33 34.3636 1198.56 34.3636C1199.51 34.3636 1200.33 34.8693 1200.33 36.1591V42H1201.67V36.1591C1201.67 34.108 1200.57 33.1591 1199.01 33.1591C1197.76 33.1591 1196.85 33.733 1196.4 34.6364H1196.31C1195.88 33.7045 1195.12 33.1591 1193.97 33.1591C1192.83 33.1591 1191.99 33.7045 1191.63 34.6364H1191.51V33.2727H1190.22V42Z" fill="#191D3A"/>
<path fill-rule="evenodd" clip-rule="evenodd" d="M1230.33 40.6667H1234C1234.18 40.6667 1234.33 40.8159 1234.33 41V41.6667C1234.33 41.8508 1234.18 42 1234 42H1230.33C1229.6 42 1229 41.403 1229 40.6667V31.3333C1229 30.597 1229.6 30 1230.33 30H1234C1234.18 30 1234.33 30.1492 1234.33 30.3333V31C1234.33 31.1841 1234.18 31.3333 1234 31.3333H1230.33V40.6667ZM1237.43 32.1L1240.85 35.52C1240.95 35.6145 1241 35.7411 1241 35.8733V36.1267C1241 36.2592 1240.95 36.3863 1240.85 36.48L1237.43 39.9C1237.36 39.9631 1237.28 39.9986 1237.19 39.9986C1237.1 39.9986 1237.02 39.9631 1236.95 39.9L1236.48 39.4333C1236.42 39.3707 1236.38 39.2855 1236.38 39.1967C1236.38 39.1078 1236.42 39.0226 1236.48 38.96L1238.78 36.6667H1232C1231.82 36.6667 1231.67 36.5174 1231.67 36.3333V35.6667C1231.67 35.4826 1231.82 35.3333 1232 35.3333H1238.78L1236.48 33.04C1236.42 32.9786 1236.38 32.8945 1236.38 32.8067C1236.38 32.7189 1236.42 32.6348 1236.48 32.5733L1236.95 32.1C1237.02 32.0369 1237.1 32.0014 1237.19 32.0014C1237.28 32.0014 1237.36 32.0369 1237.43 32.1Z" fill="#191D3A"/>
<path d="M125.295 200H129.511V190.114H140.295V200H144.523V176.727H140.295V186.58H129.511V176.727H125.295V200ZM153.549 200.352C156.288 200.352 157.924 199.068 158.674 197.602H158.81V200H162.765V188.318C162.765 183.705 159.003 182.318 155.674 182.318C152.003 182.318 149.185 183.955 148.276 187.136L152.117 187.682C152.526 186.489 153.685 185.466 155.697 185.466C157.606 185.466 158.651 186.443 158.651 188.159V188.227C158.651 189.409 157.413 189.466 154.333 189.795C150.947 190.159 147.708 191.17 147.708 195.102C147.708 198.534 150.219 200.352 153.549 200.352ZM154.617 197.33C152.901 197.33 151.674 196.545 151.674 195.034C151.674 193.455 153.049 192.795 154.89 192.534C155.969 192.386 158.128 192.114 158.663 191.682V193.739C158.663 195.682 157.094 197.33 154.617 197.33ZM174.115 200.341C178.501 200.341 181.297 197.739 181.592 194.034H177.66C177.308 195.909 175.956 196.989 174.149 196.989C171.581 196.989 169.922 194.841 169.922 191.273C169.922 187.75 171.615 185.636 174.149 185.636C176.126 185.636 177.342 186.909 177.66 188.591H181.592C181.308 184.807 178.353 182.318 174.092 182.318C168.978 182.318 165.751 186.011 165.751 191.341C165.751 196.625 168.899 200.341 174.115 200.341ZM183.334 185.92H188.982V200H192.959V185.92H198.607V182.545H183.334V185.92ZM201.482 206.545H205.596V197.25H205.766C206.414 198.523 207.766 200.307 210.766 200.307C214.88 200.307 217.96 197.045 217.96 191.295C217.96 185.477 214.789 182.318 210.755 182.318C207.676 182.318 206.391 184.17 205.766 185.432H205.528V182.545H201.482V206.545ZM205.516 191.273C205.516 187.886 206.971 185.693 209.619 185.693C212.357 185.693 213.766 188.023 213.766 191.273C213.766 194.545 212.335 196.932 209.619 196.932C206.994 196.932 205.516 194.659 205.516 191.273ZM228.696 200.341C233.81 200.341 237.06 196.739 237.06 191.341C237.06 185.932 233.81 182.318 228.696 182.318C223.582 182.318 220.332 185.932 220.332 191.341C220.332 196.739 223.582 200.341 228.696 200.341ZM228.719 197.045C225.889 197.045 224.503 194.523 224.503 191.33C224.503 188.136 225.889 185.58 228.719 185.58C231.503 185.58 232.889 188.136 232.889 191.33C232.889 194.523 231.503 197.045 228.719 197.045ZM244.117 194.432V182.545H240.151V200H244.39L251.356 188.102V200H255.333V182.545H251.106L244.117 194.432ZM249.981 176.545C249.969 177.659 249.333 178.648 247.731 178.648C246.106 178.648 245.492 177.636 245.492 176.545H242.435C242.424 179.205 244.481 181 247.731 181C251.003 181 253.06 179.205 253.06 176.545H249.981ZM259.157 200H263.271V193.42H265.282L270.066 200H275.044L268.51 191.114L274.976 182.545H270.021L264.771 189.591H263.271V182.545H259.157V200ZM280.942 194.432V182.545H276.976V200H281.215L288.181 188.102V200H292.158V182.545H287.931L280.942 194.432ZM302.315 200H303.588C307.338 200 309.031 197.364 309.304 191.545L309.577 185.92H314.588V200H318.565V182.545H305.838L305.531 190.273C305.338 195.17 304.702 196.614 302.895 196.614H302.293L302.315 200ZM330.035 200.341C334.103 200.341 336.898 198.352 337.626 195.318L333.785 194.886C333.228 196.364 331.864 197.136 330.091 197.136C327.432 197.136 325.671 195.386 325.637 192.398H337.796V191.136C337.796 185.011 334.114 182.318 329.819 182.318C324.819 182.318 321.557 185.989 321.557 191.375C321.557 196.852 324.773 200.341 330.035 200.341ZM325.648 189.625C325.773 187.398 327.421 185.523 329.876 185.523C332.239 185.523 333.83 187.25 333.853 189.625H325.648ZM344.842 182.545H340.876V200H344.842V192.943H351.603V200H355.558V182.545H351.603V189.568H344.842V182.545ZM357.774 205.068H361.82V200H373.24V205.068H377.218V196.614H374.513V182.545H361.899L361.399 188.659C361.07 192.568 360.638 195.466 359.161 196.614H357.774V205.068ZM363.388 196.614C364.49 194.989 364.899 192.352 365.195 188.659L365.468 185.864H370.581V196.614H363.388ZM383.855 194.432V182.545H379.889V200H384.127L391.093 188.102V200H395.07V182.545H390.843L383.855 194.432ZM402.861 182.545H398.895V200H402.861V192.943H409.622V200H413.577V182.545H409.622V189.568H402.861V182.545ZM428.884 182.545H417.339V200H421.361V185.92H428.884V182.545ZM436.086 200.352C438.825 200.352 440.461 199.068 441.211 197.602H441.348V200H445.302V188.318C445.302 183.705 441.541 182.318 438.211 182.318C434.541 182.318 431.723 183.955 430.814 187.136L434.655 187.682C435.064 186.489 436.223 185.466 438.234 185.466C440.143 185.466 441.189 186.443 441.189 188.159V188.227C441.189 189.409 439.95 189.466 436.87 189.795C433.484 190.159 430.245 191.17 430.245 195.102C430.245 198.534 432.757 200.352 436.086 200.352ZM437.155 197.33C435.439 197.33 434.211 196.545 434.211 195.034C434.211 193.455 435.586 192.795 437.427 192.534C438.507 192.386 440.666 192.114 441.2 191.682V193.739C441.2 195.682 439.632 197.33 437.155 197.33Z" fill="#1E1F20"/>
<rect x="124" y="105" width="38" height="38" rx="11" stroke="#E0E2E9" stroke-width="2"/>
<path d="M149.667 124.333V123.667C149.667 123.483 149.517 123.333 149.333 123.333H138.553L141.52 120.373C141.583 120.311 141.618 120.226 141.618 120.137C141.618 120.048 141.583 119.963 141.52 119.9L141.047 119.433C140.984 119.37 140.899 119.335 140.81 119.335C140.721 119.335 140.636 119.37 140.573 119.433L136.48 123.52C136.386 123.614 136.333 123.741 136.333 123.873V124.127C136.335 124.259 136.387 124.386 136.48 124.48L140.573 128.567C140.636 128.63 140.721 128.665 140.81 128.665C140.899 128.665 140.984 128.63 141.047 128.567L141.52 128.093C141.583 128.032 141.618 127.948 141.618 127.86C141.618 127.772 141.583 127.688 141.52 127.627L138.553 124.667H149.333C149.517 124.667 149.667 124.517 149.667 124.333Z" fill="#191D3A"/>
<path d="M124.409 250H125.818V244.795H132.023V250H133.432V238.364H132.023V243.545H125.818V238.364H124.409V250ZM138.239 250.205C139.762 250.205 140.557 249.386 140.83 248.818H140.898V250H142.239V244.25C142.239 241.477 140.126 241.159 139.012 241.159C137.694 241.159 136.194 241.614 135.512 243.205L136.785 243.659C137.08 243.023 137.779 242.341 139.057 242.341C140.29 242.341 140.898 242.994 140.898 244.114V244.159C140.898 244.807 140.239 244.75 138.648 244.955C137.029 245.165 135.262 245.523 135.262 247.523C135.262 249.227 136.58 250.205 138.239 250.205ZM138.444 249C137.376 249 136.603 248.523 136.603 247.591C136.603 246.568 137.535 246.25 138.58 246.114C139.148 246.045 140.671 245.886 140.898 245.614V246.841C140.898 247.932 140.035 249 138.444 249ZM143.741 247.773C143.787 249.205 145.156 250.182 147.014 250.182C148.923 250.182 150.309 249.159 150.309 247.568C150.309 246.477 149.656 245.591 148.673 245.523V245.432C149.503 245.176 150.128 244.574 150.128 243.591C150.128 242.21 148.946 241.159 147.105 241.159C145.287 241.159 143.991 242.159 143.946 243.568H145.355C145.395 242.847 146.15 242.341 147.173 242.341C148.19 242.341 148.764 242.858 148.764 243.636C148.764 244.364 148.264 244.909 147.196 244.909H145.696V246.114H147.196C148.264 246.114 148.946 246.699 148.946 247.568C148.946 248.562 148.065 248.977 146.991 248.977C145.94 248.977 145.236 248.562 145.173 247.773H143.741ZM151.793 250H155.907C157.679 250 158.747 249 158.747 247.659C158.747 246.29 157.708 245.551 156.747 245.409C157.73 245.205 158.429 244.653 158.429 243.591C158.429 242.199 157.236 241.273 155.361 241.273H151.793V250ZM153.066 248.773V246.091H155.907C156.827 246.091 157.384 246.642 157.384 247.545C157.384 248.307 156.827 248.773 155.907 248.773H153.066ZM153.066 244.932V242.5H155.361C156.435 242.5 157.088 242.949 157.088 243.682C157.088 244.46 156.435 244.932 155.361 244.932H153.066ZM162.945 250.205C164.468 250.205 165.264 249.386 165.536 248.818H165.605V250H166.945V244.25C166.945 241.477 164.832 241.159 163.718 241.159C162.4 241.159 160.9 241.614 160.218 243.205L161.491 243.659C161.786 243.023 162.485 242.341 163.764 242.341C164.997 242.341 165.605 242.994 165.605 244.114V244.159C165.605 244.807 164.945 244.75 163.355 244.955C161.735 245.165 159.968 245.523 159.968 247.523C159.968 249.227 161.286 250.205 162.945 250.205ZM163.15 249C162.082 249 161.309 248.523 161.309 247.591C161.309 246.568 162.241 246.25 163.286 246.114C163.855 246.045 165.377 245.886 165.605 245.614V246.841C165.605 247.932 164.741 249 163.15 249ZM170.334 241.273H168.993V250H170.334V246.273H174.516V250H175.857V241.273H174.516V245.023H170.334V241.273ZM179.246 248.023V241.273H177.905V250H179.474L183.655 243.25V250H184.996V241.273H183.451L179.246 248.023ZM190.711 250.182C192.484 250.182 193.78 249.295 194.189 247.977L192.893 247.614C192.552 248.523 191.763 248.977 190.711 248.977C189.138 248.977 188.052 247.96 187.99 246.091H194.325V245.523C194.325 242.273 192.393 241.159 190.575 241.159C188.211 241.159 186.643 243.023 186.643 245.705C186.643 248.386 188.189 250.182 190.711 250.182ZM187.99 244.932C188.081 243.574 189.041 242.364 190.575 242.364C192.03 242.364 192.961 243.455 192.961 244.932H187.99ZM201.406 248.023V241.273H200.065V250H201.633L205.815 243.25V250H207.156V241.273H205.61L201.406 248.023ZM219.857 241.273H221.221C221.158 239.517 219.539 238.205 217.289 238.205C215.062 238.205 213.312 239.5 213.312 241.455C213.312 243.023 214.448 243.955 216.266 244.477L217.698 244.886C218.925 245.227 220.016 245.659 220.016 246.818C220.016 248.091 218.789 248.932 217.175 248.932C215.789 248.932 214.562 248.318 214.448 247H212.993C213.13 248.909 214.675 250.205 217.175 250.205C219.857 250.205 221.38 248.727 221.38 246.841C221.38 244.659 219.312 243.955 218.107 243.636L216.925 243.318C216.062 243.091 214.675 242.636 214.675 241.386C214.675 240.273 215.698 239.455 217.243 239.455C218.653 239.455 219.721 240.125 219.857 241.273ZM223.297 250H230.41V248.75H224.706V244.795H229.956V243.545H224.706V239.614H230.319V238.364H223.297V250ZM242.277 244.182C242.277 240.5 240.118 238.205 237.141 238.205C234.164 238.205 232.005 240.5 232.005 244.182C232.005 247.864 234.164 250.159 237.141 250.159C240.118 250.159 242.277 247.864 242.277 244.182ZM240.914 244.182C240.914 247.205 239.255 248.841 237.141 248.841C235.027 248.841 233.368 247.205 233.368 244.182C233.368 241.159 235.027 239.523 237.141 239.523C239.255 239.523 240.914 241.159 240.914 244.182Z" fill="#757789"/>
<path d="M285.886 250L287.057 246.705H291.761L292.932 250H294.409L290.136 238.364H288.682L284.409 250H285.886ZM287.5 245.455L289.364 240.205H289.455L291.318 245.455H287.5ZM296.981 241.273H295.64V250H296.981V246.273H301.163V250H302.503V241.273H301.163V245.023H296.981V241.273ZM307.12 250.205C308.643 250.205 309.439 249.386 309.711 248.818H309.78V250H311.12V244.25C311.12 241.477 309.007 241.159 307.893 241.159C306.575 241.159 305.075 241.614 304.393 243.205L305.666 243.659C305.961 243.023 306.66 242.341 307.939 242.341C309.172 242.341 309.78 242.994 309.78 244.114V244.159C309.78 244.807 309.12 244.75 307.53 244.955C305.91 245.165 304.143 245.523 304.143 247.523C304.143 249.227 305.461 250.205 307.12 250.205ZM307.325 249C306.257 249 305.484 248.523 305.484 247.591C305.484 246.568 306.416 246.25 307.461 246.114C308.03 246.045 309.552 245.886 309.78 245.614V246.841C309.78 247.932 308.916 249 307.325 249ZM312.395 250H312.85C314.782 250 315.338 248.5 315.463 245.636L315.6 242.523H318.804V250H320.145V241.273H314.327L314.168 245.136C314.054 248.068 313.759 248.75 312.713 248.75H312.395V250ZM323.546 248.023V241.273H322.205V250H323.774L327.955 243.25V250H329.296V241.273H327.751L323.546 248.023ZM330.165 242.523H333.051V250H334.392V242.523H337.256V241.273H330.165V242.523ZM340.153 248.023V241.273H338.812V250H340.38L344.562 243.25V250H345.903V241.273H344.357L340.153 248.023ZM347.959 250H349.299V246.318H350.504L353.368 250H355.095L351.527 245.477L355.049 241.273H353.322L350.186 245.068H349.299V241.273H347.959V250ZM358.72 250.205C360.243 250.205 361.039 249.386 361.311 248.818H361.38V250H362.72V244.25C362.72 241.477 360.607 241.159 359.493 241.159C358.175 241.159 356.675 241.614 355.993 243.205L357.266 243.659C357.561 243.023 358.26 242.341 359.539 242.341C360.772 242.341 361.38 242.994 361.38 244.114V244.159C361.38 244.807 360.72 244.75 359.13 244.955C357.51 245.165 355.743 245.523 355.743 247.523C355.743 249.227 357.061 250.205 358.72 250.205ZM358.925 249C357.857 249 357.084 248.523 357.084 247.591C357.084 246.568 358.016 246.25 359.061 246.114C359.63 246.045 361.152 245.886 361.38 245.614V246.841C361.38 247.932 360.516 249 358.925 249Z" fill="#191D3A"/>
<g filter="url(#filter0_d)">
<rect x="123" y="288" width="1120" height="448" rx="24" fill="white"/>
</g>
<path fill-rule="evenodd" clip-rule="evenodd" d="M350 556.667V553C350 552.816 349.851 552.667 349.667 552.667H349C348.816 552.667 348.667 552.816 348.667 553V556.667H339.333V547.333H343C343.184 547.333 343.333 547.184 343.333 547V546.333C343.333 546.149 343.184 546 343 546H339.333C338.597 546 338 546.597 338 547.333V556.667C338 557.403 338.597 558 339.333 558H348.667C349.403 558 350 557.403 350 556.667ZM349.673 546.153L349.853 546.333V546.327C349.944 546.417 349.996 546.539 350 546.667V551C350 551.184 349.851 551.333 349.667 551.333H349C348.816 551.333 348.667 551.184 348.667 551V548.28L343.04 553.9C342.977 553.963 342.892 553.999 342.803 553.999C342.714 553.999 342.629 553.963 342.567 553.9L342.1 553.433C342.037 553.371 342.001 553.286 342.001 553.197C342.001 553.108 342.037 553.023 342.1 552.96L347.727 547.333H345C344.816 547.333 344.667 547.184 344.667 547V546.333C344.667 546.149 344.816 546 345 546H349.333C349.462 546.005 349.584 546.06 349.673 546.153Z" fill="#4578F9"/>
<path d="M167.297 325.109H170.25C169.758 321.969 167.039 319.781 163.5 319.781C159.313 319.781 156.172 322.859 156.172 328.016C156.172 333.078 159.172 336.219 163.586 336.219C167.547 336.219 170.383 333.672 170.383 329.547V327.625H163.891V329.891H167.578C167.531 332.172 166.008 333.617 163.602 333.617C160.922 333.617 159.086 331.609 159.086 327.984C159.086 324.383 160.953 322.383 163.539 322.383C165.469 322.383 166.781 323.414 167.297 325.109ZM177.595 336.234C181.111 336.234 183.345 333.758 183.345 330.047C183.345 326.328 181.111 323.844 177.595 323.844C174.079 323.844 171.845 326.328 171.845 330.047C171.845 333.758 174.079 336.234 177.595 336.234ZM177.611 333.969C175.665 333.969 174.712 332.234 174.712 330.039C174.712 327.844 175.665 326.086 177.611 326.086C179.525 326.086 180.478 327.844 180.478 330.039C180.478 332.234 179.525 333.969 177.611 333.969ZM190.28 336.234C193.795 336.234 196.03 333.758 196.03 330.047C196.03 326.328 193.795 323.844 190.28 323.844C186.764 323.844 184.53 326.328 184.53 330.047C184.53 333.758 186.764 336.234 190.28 336.234ZM190.295 333.969C188.35 333.969 187.397 332.234 187.397 330.039C187.397 327.844 188.35 326.086 190.295 326.086C192.209 326.086 193.163 327.844 193.163 330.039C193.163 332.234 192.209 333.969 190.295 333.969ZM202.949 340.75C206.191 340.75 208.582 339.266 208.582 336.195V324H205.793V325.984H205.636C205.207 325.117 204.308 323.844 202.191 323.844C199.418 323.844 197.238 326.016 197.238 329.961C197.238 333.875 199.418 335.828 202.183 335.828C204.238 335.828 205.199 334.727 205.636 333.844H205.777V336.117C205.777 337.883 204.605 338.609 202.996 338.609C201.293 338.609 200.543 337.805 200.199 337.102L197.652 337.719C198.168 339.398 199.894 340.75 202.949 340.75ZM202.972 333.609C201.105 333.609 200.121 332.156 200.121 329.945C200.121 327.766 201.089 326.164 202.972 326.164C204.793 326.164 205.793 327.672 205.793 329.945C205.793 332.234 204.777 333.609 202.972 333.609ZM213.608 320H210.78V336H213.608V320ZM221.129 336.234C223.926 336.234 225.848 334.867 226.348 332.781L223.707 332.484C223.324 333.5 222.387 334.031 221.168 334.031C219.34 334.031 218.129 332.828 218.105 330.773H226.465V329.906C226.465 325.695 223.934 323.844 220.98 323.844C217.543 323.844 215.301 326.367 215.301 330.07C215.301 333.836 217.512 336.234 221.129 336.234ZM218.113 328.867C218.199 327.336 219.332 326.047 221.02 326.047C222.645 326.047 223.738 327.234 223.754 328.867H218.113ZM235.094 336L236.414 332.055H242.43L243.758 336H246.852L241.211 320H237.633L232 336H235.094ZM237.196 329.727L239.36 323.281H239.485L241.649 329.727H237.196ZM250.963 328.969C250.963 327.234 252.009 326.234 253.502 326.234C254.963 326.234 255.838 327.195 255.838 328.797V336H258.666V328.359C258.673 325.484 257.033 323.844 254.556 323.844C252.759 323.844 251.525 324.703 250.978 326.039H250.838V324H248.134V336H250.963V328.969ZM264.294 336.242C266.177 336.242 267.302 335.359 267.817 334.352H267.911V336H270.63V327.969C270.63 324.797 268.044 323.844 265.755 323.844C263.231 323.844 261.294 324.969 260.669 327.156L263.309 327.531C263.591 326.711 264.387 326.008 265.77 326.008C267.083 326.008 267.802 326.68 267.802 327.859V327.906C267.802 328.719 266.95 328.758 264.833 328.984C262.505 329.234 260.278 329.93 260.278 332.633C260.278 334.992 262.005 336.242 264.294 336.242ZM265.028 334.164C263.848 334.164 263.005 333.625 263.005 332.586C263.005 331.5 263.95 331.047 265.216 330.867C265.958 330.766 267.442 330.578 267.809 330.281V331.695C267.809 333.031 266.731 334.164 265.028 334.164ZM275.602 320H272.773V336H275.602V320ZM279.568 340.5C281.771 340.5 283.044 339.367 283.724 337.453L288.544 324.016L285.521 324L282.747 333.062H282.622L279.857 324H276.857L281.208 336.25L280.966 336.898C280.443 338.266 279.614 338.359 278.38 338L277.724 340.203C278.107 340.359 278.794 340.5 279.568 340.5ZM295.799 324H293.432V321.125H290.604V324H288.901V326.187H290.604V332.859C290.588 335.117 292.229 336.227 294.354 336.164C295.159 336.141 295.713 335.984 296.018 335.883L295.541 333.672C295.385 333.711 295.065 333.781 294.713 333.781C294.002 333.781 293.432 333.531 293.432 332.391V326.187H295.799V324ZM297.464 336H300.293V324H297.464V336ZM298.886 322.297C299.785 322.297 300.519 321.609 300.519 320.766C300.519 319.914 299.785 319.227 298.886 319.227C297.98 319.227 297.246 319.914 297.246 320.766C297.246 321.609 297.98 322.297 298.886 322.297ZM307.735 336.234C310.751 336.234 312.673 334.445 312.876 331.898H310.173C309.93 333.188 309.001 333.93 307.759 333.93C305.993 333.93 304.852 332.453 304.852 330C304.852 327.578 306.016 326.125 307.759 326.125C309.118 326.125 309.954 327 310.173 328.156H312.876C312.68 325.555 310.649 323.844 307.72 323.844C304.204 323.844 301.985 326.383 301.985 330.047C301.985 333.68 304.149 336.234 307.735 336.234ZM323.982 327.172C323.592 325.141 321.967 323.844 319.154 323.844C316.264 323.844 314.295 325.266 314.303 327.484C314.295 329.234 315.373 330.391 317.678 330.867L319.725 331.297C320.826 331.539 321.342 331.984 321.342 332.664C321.342 333.484 320.451 334.102 319.107 334.102C317.811 334.102 316.967 333.539 316.725 332.461L313.967 332.727C314.318 334.93 316.17 336.234 319.115 336.234C322.115 336.234 324.232 334.68 324.24 332.406C324.232 330.695 323.131 329.648 320.865 329.156L318.818 328.719C317.6 328.445 317.115 328.023 317.123 327.328C317.115 326.516 318.014 325.953 319.193 325.953C320.498 325.953 321.186 326.664 321.404 327.453L323.982 327.172Z" fill="#191D3A"/>
<path d="M167.734 560V544H161.734C158.063 544 156.094 546.062 156.094 549.117C156.094 551.289 157.086 552.898 158.969 553.656L155.508 560H158.742L161.883 554.141H164.836V560H167.734ZM164.836 551.734H162.164C160.016 551.734 159.047 550.82 159.047 549.117C159.047 547.414 160.016 546.422 162.18 546.422H164.836V551.734ZM172.788 548H170.062V560H172.788V555.148H177.437V560H180.155V548H177.437V552.828H172.788V548ZM181.254 563.484H184.036V560H191.887V563.484H194.621V557.672H192.762V548H184.09L183.746 552.203C183.52 554.891 183.223 556.883 182.207 557.672H181.254V563.484ZM185.114 557.672C185.871 556.555 186.153 554.742 186.356 552.203L186.543 550.281H190.059V557.672H185.114ZM201.345 560.234C204.142 560.234 206.064 558.867 206.564 556.781L203.923 556.484C203.541 557.5 202.603 558.031 201.384 558.031C199.556 558.031 198.345 556.828 198.322 554.773H206.681V553.906C206.681 549.695 204.15 547.844 201.197 547.844C197.759 547.844 195.517 550.367 195.517 554.07C195.517 557.836 197.728 560.234 201.345 560.234ZM198.33 552.867C198.416 551.336 199.548 550.047 201.236 550.047C202.861 550.047 203.955 551.234 203.97 552.867H198.33ZM208.374 560H211.202V555.477H212.585L215.874 560H219.296L214.804 553.891L219.249 548H215.843L212.233 552.844H211.202V548H208.374V560ZM224.939 560.234C227.955 560.234 229.877 558.445 230.08 555.898H227.377C227.135 557.188 226.205 557.93 224.963 557.93C223.197 557.93 222.057 556.453 222.057 554C222.057 551.578 223.221 550.125 224.963 550.125C226.322 550.125 227.158 551 227.377 552.156H230.08C229.885 549.555 227.854 547.844 224.924 547.844C221.408 547.844 219.189 550.383 219.189 554.047C219.189 557.68 221.354 560.234 224.939 560.234ZM233.445 560.172C234.366 560.172 235.155 559.406 235.163 558.453C235.155 557.516 234.366 556.75 233.445 556.75C232.491 556.75 231.718 557.516 231.726 558.453C231.718 559.406 232.491 560.172 233.445 560.172ZM237.508 544V560H240.289V548.984H240.438L244.86 559.953H246.938L251.36 549.008H251.508V560H254.289V544H250.743L245.993 555.594H245.805L241.055 544H237.508ZM261.933 560.234C264.73 560.234 266.652 558.867 267.152 556.781L264.511 556.484C264.129 557.5 263.191 558.031 261.972 558.031C260.144 558.031 258.933 556.828 258.91 554.773H267.269V553.906C267.269 549.695 264.738 547.844 261.785 547.844C258.347 547.844 256.105 550.367 256.105 554.07C256.105 557.836 258.316 560.234 261.933 560.234ZM258.918 552.867C259.004 551.336 260.136 550.047 261.824 550.047C263.449 550.047 264.543 551.234 264.558 552.867H258.918ZM267.962 550.32H271.845V560H274.579V550.32H278.462V548H267.962V550.32ZM280.014 564.5H282.842V558.109H282.959C283.404 558.984 284.334 560.211 286.396 560.211C289.225 560.211 291.342 557.969 291.342 554.016C291.342 550.016 289.162 547.844 286.389 547.844C284.271 547.844 283.389 549.117 282.959 549.984H282.795V548H280.014V564.5ZM282.787 554C282.787 551.672 283.787 550.164 285.607 550.164C287.49 550.164 288.459 551.766 288.459 554C288.459 556.25 287.475 557.891 285.607 557.891C283.803 557.891 282.787 556.328 282.787 554ZM295.79 556.172V548H293.064V560H295.978L300.767 551.82V560H303.501V548H300.595L295.79 556.172ZM305.705 560H308.534V555.477H309.916L313.205 560H316.627L312.135 553.891L316.58 548H313.174L309.565 552.844H308.534V548H305.705V560ZM320.984 560.242C322.867 560.242 323.992 559.359 324.507 558.352H324.601V560H327.32V551.969C327.32 548.797 324.734 547.844 322.445 547.844C319.921 547.844 317.984 548.969 317.359 551.156L320 551.531C320.281 550.711 321.078 550.008 322.461 550.008C323.773 550.008 324.492 550.68 324.492 551.859V551.906C324.492 552.719 323.64 552.758 321.523 552.984C319.195 553.234 316.968 553.93 316.968 556.633C316.968 558.992 318.695 560.242 320.984 560.242ZM321.718 558.164C320.539 558.164 319.695 557.625 319.695 556.586C319.695 555.5 320.64 555.047 321.906 554.867C322.648 554.766 324.132 554.578 324.5 554.281V555.695C324.5 557.031 323.421 558.164 321.718 558.164Z" fill="#191D3A"/>
<path d="M155.409 372.818H156.75V370H164.955V372.795H166.295V368.75H164.955V358.364H158.045L157.795 363.273C157.636 366.614 156.932 368.045 156.159 368.75H155.409V372.818ZM157.841 368.75C158.545 367.636 159 365.818 159.136 363.273L159.318 359.614H163.614V368.75H157.841ZM171.388 370.182C173.752 370.182 175.343 368.386 175.343 365.682C175.343 362.955 173.752 361.159 171.388 361.159C169.025 361.159 167.434 362.955 167.434 365.682C167.434 368.386 169.025 370.182 171.388 370.182ZM171.388 368.977C169.593 368.977 168.775 367.432 168.775 365.682C168.775 363.932 169.593 362.364 171.388 362.364C173.184 362.364 174.002 363.932 174.002 365.682C174.002 367.432 173.184 368.977 171.388 368.977ZM183.467 358C183.041 358.358 182.405 358.358 181.513 358.352C181.223 358.352 180.905 358.352 180.558 358.364C177.899 358.432 176.581 360.455 176.581 364.341V365.273C176.581 368.5 178.149 370.182 180.49 370.182C182.825 370.182 184.376 368.489 184.376 365.75C184.376 363 182.802 361.545 180.763 361.545C179.564 361.545 178.444 362.045 177.853 363.136H177.74C177.922 360.886 178.763 359.682 180.581 359.614C182.194 359.545 183.353 359.591 184.149 358.818L183.467 358ZM180.49 368.977C178.899 368.977 177.922 367.705 177.922 365.75C177.95 363.841 178.91 362.75 180.467 362.75C182.064 362.75 183.035 363.841 183.035 365.75C183.035 367.716 182.069 368.977 180.49 368.977ZM188.595 370.205C190.118 370.205 190.914 369.386 191.186 368.818H191.255V370H192.595V364.25C192.595 361.477 190.482 361.159 189.368 361.159C188.05 361.159 186.55 361.614 185.868 363.205L187.141 363.659C187.436 363.023 188.135 362.341 189.414 362.341C190.647 362.341 191.255 362.994 191.255 364.114V364.159C191.255 364.807 190.595 364.75 189.005 364.955C187.385 365.165 185.618 365.523 185.618 367.523C185.618 369.227 186.936 370.205 188.595 370.205ZM188.8 369C187.732 369 186.959 368.523 186.959 367.591C186.959 366.568 187.891 366.25 188.936 366.114C189.505 366.045 191.027 365.886 191.255 365.614V366.841C191.255 367.932 190.391 369 188.8 369ZM194.643 370H198.757C200.529 370 201.597 369 201.597 367.659C201.597 366.29 200.558 365.551 199.597 365.409C200.58 365.205 201.279 364.653 201.279 363.591C201.279 362.199 200.086 361.273 198.211 361.273H194.643V370ZM195.916 368.773V366.091H198.757C199.677 366.091 200.234 366.642 200.234 367.545C200.234 368.307 199.677 368.773 198.757 368.773H195.916ZM195.916 364.932V362.5H198.211C199.285 362.5 199.938 362.949 199.938 363.682C199.938 364.46 199.285 364.932 198.211 364.932H195.916ZM204.568 364.432V361.273H203.227V370H206.886C208.932 370 210.045 368.75 210.045 367.182C210.045 365.591 208.932 364.432 206.886 364.432H204.568ZM204.568 365.682H206.886C207.949 365.682 208.705 366.33 208.705 367.25C208.705 368.131 207.949 368.75 206.886 368.75H204.568V365.682ZM210.28 362.523H213.167V370H214.508V362.523H217.371V361.273H210.28V362.523ZM222.133 370.182C223.906 370.182 225.201 369.295 225.611 367.977L224.315 367.614C223.974 368.523 223.184 368.977 222.133 368.977C220.559 368.977 219.474 367.96 219.412 366.091H225.747V365.523C225.747 362.273 223.815 361.159 221.997 361.159C219.633 361.159 218.065 363.023 218.065 365.705C218.065 368.386 219.611 370.182 222.133 370.182ZM219.412 364.932C219.503 363.574 220.463 362.364 221.997 362.364C223.451 362.364 224.383 363.455 224.383 364.932H219.412ZM233.078 358.364H231.668V370H233.078V358.364ZM239.094 370C242.639 370 244.639 367.795 244.639 364.159C244.639 360.545 242.639 358.364 239.253 358.364H235.503V370H239.094ZM236.912 368.75V359.614H239.162C241.889 359.614 243.276 361.341 243.276 364.159C243.276 367 241.889 368.75 239.003 368.75H236.912ZM247.687 368.409H246.232L246.164 369.045C245.999 370.585 245.675 372.119 245.528 372.841H246.55C246.823 372.068 247.403 370.318 247.596 369.023L247.687 368.409ZM260.598 361.273H259.257V365.699C258.61 365.886 257.945 366 257.144 366C256.053 366 255.212 365.386 255.212 364.045V361.25H253.871V364.045C253.871 366.182 255.166 367.25 257.144 367.25C257.968 367.25 258.627 367.142 259.257 366.955V370H260.598V361.273ZM261.471 362.523H264.357V370H265.698V362.523H268.562V361.273H261.471V362.523ZM273.21 370.182C275.574 370.182 277.165 368.386 277.165 365.682C277.165 362.955 275.574 361.159 273.21 361.159C270.847 361.159 269.256 362.955 269.256 365.682C269.256 368.386 270.847 370.182 273.21 370.182ZM273.21 368.977C271.415 368.977 270.597 367.432 270.597 365.682C270.597 363.932 271.415 362.364 273.21 362.364C275.006 362.364 275.824 363.932 275.824 365.682C275.824 367.432 275.006 368.977 273.21 368.977ZM285.289 358C284.863 358.358 284.226 358.358 283.334 358.352C283.045 358.352 282.726 358.352 282.38 358.364C279.721 358.432 278.403 360.455 278.403 364.341V365.273C278.403 368.5 279.971 370.182 282.312 370.182C284.647 370.182 286.198 368.489 286.198 365.75C286.198 363 284.624 361.545 282.584 361.545C281.386 361.545 280.266 362.045 279.675 363.136H279.562C279.743 360.886 280.584 359.682 282.403 359.614C284.016 359.545 285.175 359.591 285.971 358.818L285.289 358ZM282.312 368.977C280.721 368.977 279.743 367.705 279.743 365.75C279.772 363.841 280.732 362.75 282.289 362.75C283.886 362.75 284.857 363.841 284.857 365.75C284.857 367.716 283.891 368.977 282.312 368.977ZM289.19 364.432V361.273H287.849V370H291.508C293.554 370 294.667 368.75 294.667 367.182C294.667 365.591 293.554 364.432 291.508 364.432H289.19ZM296.054 370H297.395V361.273H296.054V370ZM289.19 365.682H291.508C292.571 365.682 293.326 366.33 293.326 367.25C293.326 368.131 292.571 368.75 291.508 368.75H289.19V365.682ZM307.095 370.182C309.026 370.182 310.299 369 310.526 367.455H309.186C308.936 368.409 308.14 368.977 307.095 368.977C305.504 368.977 304.481 367.659 304.481 365.636C304.481 363.659 305.526 362.364 307.095 362.364C308.276 362.364 308.981 363.091 309.186 363.886H310.526C310.299 362.25 308.913 361.159 307.072 361.159C304.708 361.159 303.14 363.023 303.14 365.682C303.14 368.295 304.64 370.182 307.095 370.182ZM316.859 368.182L313.859 361.273H312.087V370H313.428V363.199L316.314 370H317.405L320.291 363.324V370H321.632V361.273H319.905L316.859 368.182ZM327.232 370.182C329.596 370.182 331.187 368.386 331.187 365.682C331.187 362.955 329.596 361.159 327.232 361.159C324.868 361.159 323.278 362.955 323.278 365.682C323.278 368.386 324.868 370.182 327.232 370.182ZM327.232 368.977C325.437 368.977 324.618 367.432 324.618 365.682C324.618 363.932 325.437 362.364 327.232 362.364C329.028 362.364 329.846 363.932 329.846 365.682C329.846 367.432 329.028 368.977 327.232 368.977ZM331.693 362.523H334.579V370H335.92V362.523H338.784V361.273H331.693V362.523ZM340.34 373.273H341.681V368.659H341.794C342.09 369.136 342.658 370.182 344.34 370.182C346.522 370.182 348.044 368.432 348.044 365.659C348.044 362.909 346.522 361.159 344.317 361.159C342.613 361.159 342.09 362.205 341.794 362.659H341.635V361.273H340.34V373.273ZM341.658 365.636C341.658 363.682 342.522 362.364 344.158 362.364C345.863 362.364 346.703 363.795 346.703 365.636C346.703 367.5 345.84 368.977 344.158 368.977C342.544 368.977 341.658 367.614 341.658 365.636ZM353.349 370.182C355.122 370.182 356.417 369.295 356.826 367.977L355.531 367.614C355.19 368.523 354.4 368.977 353.349 368.977C351.775 368.977 350.69 367.96 350.627 366.091H356.962V365.523C356.962 362.273 355.031 361.159 353.212 361.159C350.849 361.159 349.281 363.023 349.281 365.705C349.281 368.386 350.826 370.182 353.349 370.182ZM350.627 364.932C350.718 363.574 351.678 362.364 353.212 362.364C354.667 362.364 355.599 363.455 355.599 364.932H350.627ZM357.79 362.523H360.676V370H362.017V362.523H364.881V361.273H357.79V362.523ZM367.778 364.432V361.273H366.437V370H370.096C372.141 370 373.255 368.75 373.255 367.182C373.255 365.591 372.141 364.432 370.096 364.432H367.778ZM367.778 365.682H370.096C371.158 365.682 371.914 366.33 371.914 367.25C371.914 368.131 371.158 368.75 370.096 368.75H367.778V365.682ZM378.996 370H380.337V366.318H381.541L384.405 370H386.132L382.564 365.477L386.087 361.273H384.36L381.223 365.068H380.337V361.273H378.996V370ZM389.758 370.205C391.281 370.205 392.076 369.386 392.349 368.818H392.417V370H393.758V364.25C393.758 361.477 391.644 361.159 390.531 361.159C389.212 361.159 387.712 361.614 387.031 363.205L388.303 363.659C388.599 363.023 389.298 362.341 390.576 362.341C391.809 362.341 392.417 362.994 392.417 364.114V364.159C392.417 364.807 391.758 364.75 390.167 364.955C388.548 365.165 386.781 365.523 386.781 367.523C386.781 369.227 388.099 370.205 389.758 370.205ZM389.962 369C388.894 369 388.122 368.523 388.122 367.591C388.122 366.568 389.053 366.25 390.099 366.114C390.667 366.045 392.19 365.886 392.417 365.614V366.841C392.417 367.932 391.553 369 389.962 369ZM395.805 373.273H397.146V368.659H397.26C397.555 369.136 398.124 370.182 399.805 370.182C401.987 370.182 403.51 368.432 403.51 365.659C403.51 362.909 401.987 361.159 399.783 361.159C398.078 361.159 397.555 362.205 397.26 362.659H397.101V361.273H395.805V373.273ZM397.124 365.636C397.124 363.682 397.987 362.364 399.624 362.364C401.328 362.364 402.169 363.795 402.169 365.636C402.169 367.5 401.305 368.977 399.624 368.977C398.01 368.977 397.124 367.614 397.124 365.636ZM404.015 362.523H406.901V370H408.242V362.523H411.106V361.273H404.015V362.523ZM413.525 373.273C414.736 373.273 415.588 372.631 416.093 371.273L419.809 361.295L418.343 361.273L415.934 368.227H415.843L413.434 361.273H411.98L415.207 370.045L414.957 370.727C414.468 372.057 413.866 372.182 412.889 371.932L412.548 373.114C412.684 373.182 413.071 373.273 413.525 373.273ZM425.284 370H426.624V366.318H427.829L430.693 370H432.42L428.852 365.477L432.374 361.273H430.647L427.511 365.068H426.624V361.273H425.284V370ZM432.705 370H433.159C435.091 370 435.648 368.5 435.773 365.636L435.909 362.523H439.114V370H440.455V361.273H434.636L434.477 365.136C434.364 368.068 434.068 368.75 433.023 368.75H432.705V370ZM443.856 368.023V361.273H442.515V370H444.083L448.265 363.25V370H449.606V361.273H448.06L443.856 368.023ZM451.662 370H453.003V366.318H454.207L457.071 370H458.798L455.23 365.477L458.753 361.273H457.025L453.889 365.068H453.003V361.273H451.662V370ZM463.041 370.182C465.405 370.182 466.996 368.386 466.996 365.682C466.996 362.955 465.405 361.159 463.041 361.159C460.678 361.159 459.087 362.955 459.087 365.682C459.087 368.386 460.678 370.182 463.041 370.182ZM463.041 368.977C461.246 368.977 460.428 367.432 460.428 365.682C460.428 363.932 461.246 362.364 463.041 362.364C464.837 362.364 465.655 363.932 465.655 365.682C465.655 367.432 464.837 368.977 463.041 368.977ZM468.643 370H472.757C474.529 370 475.597 369 475.597 367.659C475.597 366.29 474.558 365.551 473.597 365.409C474.58 365.205 475.279 364.653 475.279 363.591C475.279 362.199 474.086 361.273 472.211 361.273H468.643V370ZM469.916 368.773V366.091H472.757C473.677 366.091 474.234 366.642 474.234 367.545C474.234 368.307 473.677 368.773 472.757 368.773H469.916ZM469.916 364.932V362.5H472.211C473.285 362.5 473.938 362.949 473.938 363.682C473.938 364.46 473.285 364.932 472.211 364.932H469.916ZM479.227 368.409H477.773L477.705 369.045C477.54 370.585 477.216 372.119 477.068 372.841H478.091C478.364 372.068 478.943 370.318 479.136 369.023L479.227 368.409ZM485.412 370H486.753V362.523H490.934V370H492.275V361.273H485.412V370ZM497.983 370.182C499.756 370.182 501.051 369.295 501.46 367.977L500.165 367.614C499.824 368.523 499.034 368.977 497.983 368.977C496.409 368.977 495.324 367.96 495.262 366.091H501.597V365.523C501.597 362.273 499.665 361.159 497.847 361.159C495.483 361.159 493.915 363.023 493.915 365.705C493.915 368.386 495.46 370.182 497.983 370.182ZM495.262 364.932C495.353 363.574 496.313 362.364 497.847 362.364C499.301 362.364 500.233 363.455 500.233 364.932H495.262ZM503.237 373.273H504.578V368.659H504.691C504.987 369.136 505.555 370.182 507.237 370.182C509.418 370.182 510.941 368.432 510.941 365.659C510.941 362.909 509.418 361.159 507.214 361.159C505.509 361.159 504.987 362.205 504.691 362.659H504.532V361.273H503.237V373.273ZM504.555 365.636C504.555 363.682 505.418 362.364 507.055 362.364C508.759 362.364 509.6 363.795 509.6 365.636C509.6 367.5 508.737 368.977 507.055 368.977C505.441 368.977 504.555 367.614 504.555 365.636ZM516.246 370.182C518.018 370.182 519.314 369.295 519.723 367.977L518.428 367.614C518.087 368.523 517.297 368.977 516.246 368.977C514.672 368.977 513.587 367.96 513.524 366.091H519.859V365.523C519.859 362.273 517.928 361.159 516.109 361.159C513.746 361.159 512.178 363.023 512.178 365.705C512.178 368.386 513.723 370.182 516.246 370.182ZM513.524 364.932C513.615 363.574 514.575 362.364 516.109 362.364C517.564 362.364 518.496 363.455 518.496 364.932H513.524ZM522.265 361.273H520.719L523.492 365.636L520.719 370H522.265L524.356 366.614L526.447 370H527.992L525.174 365.636L527.992 361.273H526.447L524.356 364.841L522.265 361.273ZM532.691 370.182C535.055 370.182 536.646 368.386 536.646 365.682C536.646 362.955 535.055 361.159 532.691 361.159C530.328 361.159 528.737 362.955 528.737 365.682C528.737 368.386 530.328 370.182 532.691 370.182ZM532.691 368.977C530.896 368.977 530.078 367.432 530.078 365.682C530.078 363.932 530.896 362.364 532.691 362.364C534.487 362.364 535.305 363.932 535.305 365.682C535.305 367.432 534.487 368.977 532.691 368.977ZM537.361 372.5H538.702V370H545.157V372.5H546.497V368.75H545.157V361.273H539.611L539.316 364.727C539.105 367.17 538.793 368.011 538.088 368.75H537.361V372.5ZM539.611 368.75C540.225 367.943 540.446 366.551 540.634 364.727L540.861 362.523H543.816V368.75H539.611ZM553.318 368.023V361.273H551.977V370H553.545L557.727 363.25V370H559.068V361.273H557.523L553.318 368.023ZM569.997 368.182L566.997 361.273H565.224V370H566.565V363.199L569.451 370H570.542L573.429 363.324V370H574.77V361.273H573.042L569.997 368.182ZM578.165 361.273H576.824V370H578.165V366.273H582.347V370H583.688V361.273H582.347V365.023H578.165V361.273ZM589.282 370.182C591.646 370.182 593.237 368.386 593.237 365.682C593.237 362.955 591.646 361.159 589.282 361.159C586.918 361.159 585.328 362.955 585.328 365.682C585.328 368.386 586.918 370.182 589.282 370.182ZM589.282 368.977C587.487 368.977 586.668 367.432 586.668 365.682C586.668 363.932 587.487 362.364 589.282 362.364C591.078 362.364 591.896 363.932 591.896 365.682C591.896 367.432 591.078 368.977 589.282 368.977ZM600.27 361.273H594.884V370H596.224V362.523H600.27V361.273ZM604.92 370.182C607.283 370.182 608.874 368.386 608.874 365.682C608.874 362.955 607.283 361.159 604.92 361.159C602.556 361.159 600.965 362.955 600.965 365.682C600.965 368.386 602.556 370.182 604.92 370.182ZM604.92 368.977C603.124 368.977 602.306 367.432 602.306 365.682C602.306 363.932 603.124 362.364 604.92 362.364C606.715 362.364 607.533 363.932 607.533 365.682C607.533 367.432 606.715 368.977 604.92 368.977ZM614.18 370.182C615.953 370.182 617.248 369.295 617.657 367.977L616.362 367.614C616.021 368.523 615.231 368.977 614.18 368.977C612.606 368.977 611.521 367.96 611.459 366.091H617.794V365.523C617.794 362.273 615.862 361.159 614.044 361.159C611.68 361.159 610.112 363.023 610.112 365.705C610.112 368.386 611.657 370.182 614.18 370.182ZM611.459 364.932C611.549 363.574 612.51 362.364 614.044 362.364C615.498 362.364 616.43 363.455 616.43 364.932H611.459ZM622.602 372.5H623.943V370H630.397V372.5H631.738V368.75H630.397V361.273H624.852L624.556 364.727C624.346 367.17 624.034 368.011 623.329 368.75H622.602V372.5ZM624.852 368.75C625.465 367.943 625.687 366.551 625.874 364.727L626.102 362.523H629.056V368.75H624.852ZM633.118 373.273H634.459V368.659H634.572C634.868 369.136 635.436 370.182 637.118 370.182C639.3 370.182 640.822 368.432 640.822 365.659C640.822 362.909 639.3 361.159 637.095 361.159C635.391 361.159 634.868 362.205 634.572 362.659H634.413V361.273H633.118V373.273ZM634.436 365.636C634.436 363.682 635.3 362.364 636.936 362.364C638.641 362.364 639.482 363.795 639.482 365.636C639.482 367.5 638.618 368.977 636.936 368.977C635.322 368.977 634.436 367.614 634.436 365.636ZM643.019 373.273C644.229 373.273 645.082 372.631 645.587 371.273L649.303 361.295L647.837 361.273L645.428 368.227H645.337L642.928 361.273H641.474L644.701 370.045L644.451 370.727C643.962 372.057 643.36 372.182 642.383 371.932L642.042 373.114C642.178 373.182 642.564 373.273 643.019 373.273ZM656.064 361.273H650.677V370H652.018V362.523H656.064V361.273ZM660.713 370.182C663.077 370.182 664.668 368.386 664.668 365.682C664.668 362.955 663.077 361.159 660.713 361.159C658.35 361.159 656.759 362.955 656.759 365.682C656.759 368.386 658.35 370.182 660.713 370.182ZM660.713 368.977C658.918 368.977 658.1 367.432 658.1 365.682C658.1 363.932 658.918 362.364 660.713 362.364C662.509 362.364 663.327 363.932 663.327 365.682C663.327 367.432 662.509 368.977 660.713 368.977ZM669.974 370.182C671.747 370.182 673.042 369.295 673.451 367.977L672.156 367.614C671.815 368.523 671.025 368.977 669.974 368.977C668.4 368.977 667.315 367.96 667.252 366.091H673.587V365.523C673.587 362.273 671.656 361.159 669.837 361.159C667.474 361.159 665.906 363.023 665.906 365.705C665.906 368.386 667.451 370.182 669.974 370.182ZM667.252 364.932C667.343 363.574 668.303 362.364 669.837 362.364C671.292 362.364 672.224 363.455 672.224 364.932H667.252ZM676.205 370.091C676.767 370.091 677.227 369.631 677.227 369.068C677.227 368.506 676.767 368.045 676.205 368.045C675.642 368.045 675.182 368.506 675.182 369.068C675.182 369.631 675.642 370.091 676.205 370.091ZM163.25 394H164.932L160.068 387.477L164.773 382.364H163.091L158.432 387.409H157.818V382.364H156.409V394H157.818V388.659H159.25L163.25 394ZM168.739 394.205C170.262 394.205 171.057 393.386 171.33 392.818H171.398V394H172.739V388.25C172.739 385.477 170.626 385.159 169.512 385.159C168.194 385.159 166.694 385.614 166.012 387.205L167.285 387.659C167.58 387.023 168.279 386.341 169.557 386.341C170.79 386.341 171.398 386.994 171.398 388.114V388.159C171.398 388.807 170.739 388.75 169.148 388.955C167.529 389.165 165.762 389.523 165.762 391.523C165.762 393.227 167.08 394.205 168.739 394.205ZM168.944 393C167.876 393 167.103 392.523 167.103 391.591C167.103 390.568 168.035 390.25 169.08 390.114C169.648 390.045 171.171 389.886 171.398 389.614V390.841C171.398 391.932 170.535 393 168.944 393ZM174.787 394H176.128V390.318H177.332L180.196 394H181.923L178.355 389.477L181.878 385.273H180.15L177.014 389.068H176.128V385.273H174.787V394ZM187.08 394H188.421V386.523H192.603V394H193.944V385.273H187.08V394ZM199.538 394.182C201.902 394.182 203.493 392.386 203.493 389.682C203.493 386.955 201.902 385.159 199.538 385.159C197.175 385.159 195.584 386.955 195.584 389.682C195.584 392.386 197.175 394.182 199.538 394.182ZM199.538 392.977C197.743 392.977 196.925 391.432 196.925 389.682C196.925 387.932 197.743 386.364 199.538 386.364C201.334 386.364 202.152 387.932 202.152 389.682C202.152 391.432 201.334 392.977 199.538 392.977ZM204.208 396.5H205.549V394H212.003V396.5H213.344V392.75H212.003V385.273H206.458L206.162 388.727C205.952 391.17 205.64 392.011 204.935 392.75H204.208V396.5ZM206.458 392.75C207.072 391.943 207.293 390.551 207.481 388.727L207.708 386.523H210.662V392.75H206.458ZM214.724 394H216.065V390.318H217.27L220.133 394H221.861L218.292 389.477L221.815 385.273H220.088L216.951 389.068H216.065V385.273H214.724V394ZM222.145 394H222.6C224.532 394 225.088 392.5 225.213 389.636L225.35 386.523H228.554V394H229.895V385.273H224.077L223.918 389.136C223.804 392.068 223.509 392.75 222.463 392.75H222.145V394ZM232.66 385.273H231.319V394H232.66V390.341H234.899C235.137 392.676 236.654 394.182 238.819 394.182C241.183 394.182 242.774 392.386 242.774 389.682C242.774 386.955 241.183 385.159 238.819 385.159C236.632 385.159 235.103 386.699 234.893 389.091H232.66V385.273ZM238.819 392.977C237.024 392.977 236.205 391.432 236.205 389.682C236.205 387.932 237.024 386.364 238.819 386.364C240.614 386.364 241.433 387.932 241.433 389.682C241.433 391.432 240.614 392.977 238.819 392.977ZM251.283 385.273H249.942V389.699C249.294 389.886 248.629 390 247.828 390C246.737 390 245.896 389.386 245.896 388.045V385.25H244.555V388.045C244.555 390.182 245.851 391.25 247.828 391.25C248.652 391.25 249.311 391.142 249.942 390.955V394H251.283V385.273ZM254.684 392.023V385.273H253.343V394H254.911L259.093 387.25V394H260.434V385.273H258.888L254.684 392.023ZM261.302 386.523H264.189V394H265.53V386.523H268.393V385.273H261.302V386.523ZM271.29 388.432V385.273H269.949V394H273.608C275.654 394 276.767 392.75 276.767 391.182C276.767 389.591 275.654 388.432 273.608 388.432H271.29ZM271.29 389.682H273.608C274.671 389.682 275.426 390.33 275.426 391.25C275.426 392.131 274.671 392.75 273.608 392.75H271.29V389.682Z" fill="#191D3A"/>
<path d="M155 397.182H277.586V398.273H155V397.182Z" fill="#191D3A"/>
<path d="M155.409 596.818H156.75V594H164.955V596.795H166.295V592.75H164.955V582.364H158.045L157.795 587.273C157.636 590.614 156.932 592.045 156.159 592.75H155.409V596.818ZM157.841 592.75C158.545 591.636 159 589.818 159.136 587.273L159.318 583.614H163.614V592.75H157.841ZM171.388 594.182C173.752 594.182 175.343 592.386 175.343 589.682C175.343 586.955 173.752 585.159 171.388 585.159C169.025 585.159 167.434 586.955 167.434 589.682C167.434 592.386 169.025 594.182 171.388 594.182ZM171.388 592.977C169.593 592.977 168.775 591.432 168.775 589.682C168.775 587.932 169.593 586.364 171.388 586.364C173.184 586.364 174.002 587.932 174.002 589.682C174.002 591.432 173.184 592.977 171.388 592.977ZM183.467 582C183.041 582.358 182.405 582.358 181.513 582.352C181.223 582.352 180.905 582.352 180.558 582.364C177.899 582.432 176.581 584.455 176.581 588.341V589.273C176.581 592.5 178.149 594.182 180.49 594.182C182.825 594.182 184.376 592.489 184.376 589.75C184.376 587 182.802 585.545 180.763 585.545C179.564 585.545 178.444 586.045 177.853 587.136H177.74C177.922 584.886 178.763 583.682 180.581 583.614C182.194 583.545 183.353 583.591 184.149 582.818L183.467 582ZM180.49 592.977C178.899 592.977 177.922 591.705 177.922 589.75C177.95 587.841 178.91 586.75 180.467 586.75C182.064 586.75 183.035 587.841 183.035 589.75C183.035 591.716 182.069 592.977 180.49 592.977ZM188.595 594.205C190.118 594.205 190.914 593.386 191.186 592.818H191.255V594H192.595V588.25C192.595 585.477 190.482 585.159 189.368 585.159C188.05 585.159 186.55 585.614 185.868 587.205L187.141 587.659C187.436 587.023 188.135 586.341 189.414 586.341C190.647 586.341 191.255 586.994 191.255 588.114V588.159C191.255 588.807 190.595 588.75 189.005 588.955C187.385 589.165 185.618 589.523 185.618 591.523C185.618 593.227 186.936 594.205 188.595 594.205ZM188.8 593C187.732 593 186.959 592.523 186.959 591.591C186.959 590.568 187.891 590.25 188.936 590.114C189.505 590.045 191.027 589.886 191.255 589.614V590.841C191.255 591.932 190.391 593 188.8 593ZM194.643 594H198.757C200.529 594 201.597 593 201.597 591.659C201.597 590.29 200.558 589.551 199.597 589.409C200.58 589.205 201.279 588.653 201.279 587.591C201.279 586.199 200.086 585.273 198.211 585.273H194.643V594ZM195.916 592.773V590.091H198.757C199.677 590.091 200.234 590.642 200.234 591.545C200.234 592.307 199.677 592.773 198.757 592.773H195.916ZM195.916 588.932V586.5H198.211C199.285 586.5 199.938 586.949 199.938 587.682C199.938 588.46 199.285 588.932 198.211 588.932H195.916ZM204.568 588.432V585.273H203.227V594H206.886C208.932 594 210.045 592.75 210.045 591.182C210.045 589.591 208.932 588.432 206.886 588.432H204.568ZM204.568 589.682H206.886C207.949 589.682 208.705 590.33 208.705 591.25C208.705 592.131 207.949 592.75 206.886 592.75H204.568V589.682ZM210.28 586.523H213.167V594H214.508V586.523H217.371V585.273H210.28V586.523ZM222.133 594.182C223.906 594.182 225.201 593.295 225.611 591.977L224.315 591.614C223.974 592.523 223.184 592.977 222.133 592.977C220.559 592.977 219.474 591.96 219.412 590.091H225.747V589.523C225.747 586.273 223.815 585.159 221.997 585.159C219.633 585.159 218.065 587.023 218.065 589.705C218.065 592.386 219.611 594.182 222.133 594.182ZM219.412 588.932C219.503 587.574 220.463 586.364 221.997 586.364C223.451 586.364 224.383 587.455 224.383 588.932H219.412ZM235.032 594.182C236.964 594.182 238.237 593 238.464 591.455H237.123C236.873 592.409 236.078 592.977 235.032 592.977C233.441 592.977 232.418 591.659 232.418 589.636C232.418 587.659 233.464 586.364 235.032 586.364C236.214 586.364 236.918 587.091 237.123 587.886H238.464C238.237 586.25 236.85 585.159 235.009 585.159C232.646 585.159 231.078 587.023 231.078 589.682C231.078 592.295 232.578 594.182 235.032 594.182ZM246.751 585.273H245.411V589.699C244.763 589.886 244.098 590 243.297 590C242.206 590 241.365 589.386 241.365 588.045V585.25H240.024V588.045C240.024 590.182 241.32 591.25 243.297 591.25C244.121 591.25 244.78 591.142 245.411 590.955V594H246.751V585.273ZM252.471 594.182C254.243 594.182 255.539 593.295 255.948 591.977L254.653 591.614C254.312 592.523 253.522 592.977 252.471 592.977C250.897 592.977 249.812 591.96 249.749 590.091H256.084V589.523C256.084 586.273 254.153 585.159 252.334 585.159C249.971 585.159 248.403 587.023 248.403 589.705C248.403 592.386 249.948 594.182 252.471 594.182ZM249.749 588.932C249.84 587.574 250.8 586.364 252.334 586.364C253.789 586.364 254.721 587.455 254.721 588.932H249.749ZM250.63 583.818C251.153 583.818 251.539 583.386 251.539 582.909C251.539 582.386 251.153 582 250.63 582C250.153 582 249.721 582.386 249.721 582.909C249.721 583.386 250.153 583.818 250.63 583.818ZM253.903 583.818C254.425 583.818 254.812 583.386 254.812 582.909C254.812 582.386 254.425 582 253.903 582C253.425 582 252.993 582.386 252.993 582.909C252.993 583.386 253.425 583.818 253.903 583.818ZM256.912 586.523H259.798V594H261.139V586.523H264.003V585.273H256.912V586.523ZM271.833 585.273H270.492V589.699C269.844 589.886 269.179 590 268.378 590C267.287 590 266.446 589.386 266.446 588.045V585.25H265.105V588.045C265.105 590.182 266.401 591.25 268.378 591.25C269.202 591.25 269.861 591.142 270.492 590.955V594H271.833V585.273ZM275.234 592.023V585.273H273.893V594H275.461L279.643 587.25V594H280.984V585.273H279.438L275.234 592.023ZM283.04 594H284.381V590.318H285.585L288.449 594H290.176L286.608 589.477L290.131 585.273H288.403L285.267 589.068H284.381V585.273H283.04V594ZM293.234 592.409H291.779L291.711 593.045C291.546 594.585 291.222 596.119 291.074 596.841H292.097C292.37 596.068 292.949 594.318 293.143 593.023L293.234 592.409ZM306.145 585.273H304.804V589.699C304.157 589.886 303.492 590 302.691 590C301.6 590 300.759 589.386 300.759 588.045V585.25H299.418V588.045C299.418 590.182 300.713 591.25 302.691 591.25C303.514 591.25 304.174 591.142 304.804 590.955V594H306.145V585.273ZM307.018 586.523H309.904V594H311.245V586.523H314.109V585.273H307.018V586.523ZM318.757 594.182C321.121 594.182 322.712 592.386 322.712 589.682C322.712 586.955 321.121 585.159 318.757 585.159C316.393 585.159 314.803 586.955 314.803 589.682C314.803 592.386 316.393 594.182 318.757 594.182ZM318.757 592.977C316.962 592.977 316.143 591.432 316.143 589.682C316.143 587.932 316.962 586.364 318.757 586.364C320.553 586.364 321.371 587.932 321.371 589.682C321.371 591.432 320.553 592.977 318.757 592.977ZM330.836 582C330.41 582.358 329.773 582.358 328.881 582.352C328.591 582.352 328.273 582.352 327.927 582.364C325.268 582.432 323.949 584.455 323.949 588.341V589.273C323.949 592.5 325.518 594.182 327.859 594.182C330.194 594.182 331.745 592.489 331.745 589.75C331.745 587 330.171 585.545 328.131 585.545C326.932 585.545 325.813 586.045 325.222 587.136H325.109C325.29 584.886 326.131 583.682 327.949 583.614C329.563 583.545 330.722 583.591 331.518 582.818L330.836 582ZM327.859 592.977C326.268 592.977 325.29 591.705 325.29 589.75C325.319 587.841 326.279 586.75 327.836 586.75C329.432 586.75 330.404 587.841 330.404 589.75C330.404 591.716 329.438 592.977 327.859 592.977ZM334.737 588.432V585.273H333.396V594H337.055C339.101 594 340.214 592.75 340.214 591.182C340.214 589.591 339.101 588.432 337.055 588.432H334.737ZM341.601 594H342.941V585.273H341.601V594ZM334.737 589.682H337.055C338.118 589.682 338.873 590.33 338.873 591.25C338.873 592.131 338.118 592.75 337.055 592.75H334.737V589.682ZM352.641 594.182C354.573 594.182 355.846 593 356.073 591.455H354.732C354.482 592.409 353.687 592.977 352.641 592.977C351.051 592.977 350.028 591.659 350.028 589.636C350.028 587.659 351.073 586.364 352.641 586.364C353.823 586.364 354.528 587.091 354.732 587.886H356.073C355.846 586.25 354.46 585.159 352.619 585.159C350.255 585.159 348.687 587.023 348.687 589.682C348.687 592.295 350.187 594.182 352.641 594.182ZM362.406 592.182L359.406 585.273H357.634V594H358.974V587.199L361.861 594H362.952L365.838 587.324V594H367.179V585.273H365.452L362.406 592.182ZM372.779 594.182C375.143 594.182 376.734 592.386 376.734 589.682C376.734 586.955 375.143 585.159 372.779 585.159C370.415 585.159 368.824 586.955 368.824 589.682C368.824 592.386 370.415 594.182 372.779 594.182ZM372.779 592.977C370.984 592.977 370.165 591.432 370.165 589.682C370.165 587.932 370.984 586.364 372.779 586.364C374.574 586.364 375.393 587.932 375.393 589.682C375.393 591.432 374.574 592.977 372.779 592.977ZM377.24 586.523H380.126V594H381.467V586.523H384.331V585.273H377.24V586.523ZM385.887 597.273H387.228V592.659H387.341C387.637 593.136 388.205 594.182 389.887 594.182C392.068 594.182 393.591 592.432 393.591 589.659C393.591 586.909 392.068 585.159 389.864 585.159C388.159 585.159 387.637 586.205 387.341 586.659H387.182V585.273H385.887V597.273ZM387.205 589.636C387.205 587.682 388.068 586.364 389.705 586.364C391.409 586.364 392.25 587.795 392.25 589.636C392.25 591.5 391.387 592.977 389.705 592.977C388.091 592.977 387.205 591.614 387.205 589.636ZM398.896 594.182C400.668 594.182 401.964 593.295 402.373 591.977L401.078 591.614C400.737 592.523 399.947 592.977 398.896 592.977C397.322 592.977 396.237 591.96 396.174 590.091H402.509V589.523C402.509 586.273 400.578 585.159 398.759 585.159C396.396 585.159 394.828 587.023 394.828 589.705C394.828 592.386 396.373 594.182 398.896 594.182ZM396.174 588.932C396.265 587.574 397.225 586.364 398.759 586.364C400.214 586.364 401.146 587.455 401.146 588.932H396.174ZM403.337 586.523H406.223V594H407.564V586.523H410.428V585.273H403.337V586.523ZM413.324 588.432V585.273H411.984V594H415.643C417.688 594 418.802 592.75 418.802 591.182C418.802 589.591 417.688 588.432 415.643 588.432H413.324ZM413.324 589.682H415.643C416.705 589.682 417.461 590.33 417.461 591.25C417.461 592.131 416.705 592.75 415.643 592.75H413.324V589.682ZM424.543 594H425.884V590.318H427.088L429.952 594H431.679L428.111 589.477L431.634 585.273H429.907L426.77 589.068H425.884V585.273H424.543V594ZM435.305 594.205C436.828 594.205 437.623 593.386 437.896 592.818H437.964V594H439.305V588.25C439.305 585.477 437.191 585.159 436.078 585.159C434.759 585.159 433.259 585.614 432.578 587.205L433.85 587.659C434.146 587.023 434.845 586.341 436.123 586.341C437.356 586.341 437.964 586.994 437.964 588.114V588.159C437.964 588.807 437.305 588.75 435.714 588.955C434.095 589.165 432.328 589.523 432.328 591.523C432.328 593.227 433.646 594.205 435.305 594.205ZM435.509 593C434.441 593 433.668 592.523 433.668 591.591C433.668 590.568 434.6 590.25 435.646 590.114C436.214 590.045 437.737 589.886 437.964 589.614V590.841C437.964 591.932 437.1 593 435.509 593ZM441.352 597.273H442.693V592.659H442.807C443.102 593.136 443.67 594.182 445.352 594.182C447.534 594.182 449.057 592.432 449.057 589.659C449.057 586.909 447.534 585.159 445.33 585.159C443.625 585.159 443.102 586.205 442.807 586.659H442.648V585.273H441.352V597.273ZM442.67 589.636C442.67 587.682 443.534 586.364 445.17 586.364C446.875 586.364 447.716 587.795 447.716 589.636C447.716 591.5 446.852 592.977 445.17 592.977C443.557 592.977 442.67 591.614 442.67 589.636ZM449.562 586.523H452.448V594H453.789V586.523H456.653V585.273H449.562V586.523ZM459.072 597.273C460.282 597.273 461.135 596.631 461.64 595.273L465.356 585.295L463.89 585.273L461.481 592.227H461.39L458.981 585.273H457.527L460.754 594.045L460.504 594.727C460.015 596.057 459.413 596.182 458.436 595.932L458.095 597.114C458.231 597.182 458.618 597.273 459.072 597.273ZM470.83 594H472.171V590.318H473.376L476.239 594H477.967L474.399 589.477L477.921 585.273H476.194L473.058 589.068H472.171V585.273H470.83V594ZM478.251 594H478.706C480.638 594 481.195 592.5 481.32 589.636L481.456 586.523H484.661V594H486.001V585.273H480.183L480.024 589.136C479.911 592.068 479.615 592.75 478.57 592.75H478.251V594ZM489.403 592.023V585.273H488.062V594H489.63L493.812 587.25V594H495.153V585.273H493.607L489.403 592.023ZM497.209 594H498.549V590.318H499.754L502.618 594H504.345L500.777 589.477L504.299 585.273H502.572L499.436 589.068H498.549V585.273H497.209V594ZM508.588 594.182C510.952 594.182 512.543 592.386 512.543 589.682C512.543 586.955 510.952 585.159 508.588 585.159C506.225 585.159 504.634 586.955 504.634 589.682C504.634 592.386 506.225 594.182 508.588 594.182ZM508.588 592.977C506.793 592.977 505.975 591.432 505.975 589.682C505.975 587.932 506.793 586.364 508.588 586.364C510.384 586.364 511.202 587.932 511.202 589.682C511.202 591.432 510.384 592.977 508.588 592.977ZM514.19 594H518.303C520.076 594 521.144 593 521.144 591.659C521.144 590.29 520.105 589.551 519.144 589.409C520.127 589.205 520.826 588.653 520.826 587.591C520.826 586.199 519.633 585.273 517.758 585.273H514.19V594ZM515.462 592.773V590.091H518.303C519.224 590.091 519.781 590.642 519.781 591.545C519.781 592.307 519.224 592.773 518.303 592.773H515.462ZM515.462 588.932V586.5H517.758C518.832 586.5 519.485 586.949 519.485 587.682C519.485 588.46 518.832 588.932 517.758 588.932H515.462ZM524.774 592.409H523.32L523.251 593.045C523.087 594.585 522.763 596.119 522.615 596.841H523.638C523.911 596.068 524.49 594.318 524.683 593.023L524.774 592.409ZM530.959 594H532.299V586.523H536.481V594H537.822V585.273H530.959V594ZM543.53 594.182C545.303 594.182 546.598 593.295 547.007 591.977L545.712 591.614C545.371 592.523 544.581 592.977 543.53 592.977C541.956 592.977 540.871 591.96 540.809 590.091H547.144V589.523C547.144 586.273 545.212 585.159 543.394 585.159C541.03 585.159 539.462 587.023 539.462 589.705C539.462 592.386 541.007 594.182 543.53 594.182ZM540.809 588.932C540.899 587.574 541.86 586.364 543.394 586.364C544.848 586.364 545.78 587.455 545.78 588.932H540.809ZM548.784 597.273H550.124V592.659H550.238C550.534 593.136 551.102 594.182 552.784 594.182C554.965 594.182 556.488 592.432 556.488 589.659C556.488 586.909 554.965 585.159 552.761 585.159C551.056 585.159 550.534 586.205 550.238 586.659H550.079V585.273H548.784V597.273ZM550.102 589.636C550.102 587.682 550.965 586.364 552.602 586.364C554.306 586.364 555.147 587.795 555.147 589.636C555.147 591.5 554.284 592.977 552.602 592.977C550.988 592.977 550.102 591.614 550.102 589.636ZM561.793 594.182C563.565 594.182 564.861 593.295 565.27 591.977L563.974 591.614C563.634 592.523 562.844 592.977 561.793 592.977C560.219 592.977 559.134 591.96 559.071 590.091H565.406V589.523C565.406 586.273 563.474 585.159 561.656 585.159C559.293 585.159 557.724 587.023 557.724 589.705C557.724 592.386 559.27 594.182 561.793 594.182ZM559.071 588.932C559.162 587.574 560.122 586.364 561.656 586.364C563.111 586.364 564.043 587.455 564.043 588.932H559.071ZM567.812 585.273H566.266L569.039 589.636L566.266 594H567.812L569.903 590.614L571.993 594H573.539L570.721 589.636L573.539 585.273H571.993L569.903 588.841L567.812 585.273ZM578.238 594.182C580.602 594.182 582.193 592.386 582.193 589.682C582.193 586.955 580.602 585.159 578.238 585.159C575.875 585.159 574.284 586.955 574.284 589.682C574.284 592.386 575.875 594.182 578.238 594.182ZM578.238 592.977C576.443 592.977 575.625 591.432 575.625 589.682C575.625 587.932 576.443 586.364 578.238 586.364C580.034 586.364 580.852 587.932 580.852 589.682C580.852 591.432 580.034 592.977 578.238 592.977ZM582.908 596.5H584.249V594H590.703V596.5H592.044V592.75H590.703V585.273H585.158L584.862 588.727C584.652 591.17 584.34 592.011 583.635 592.75H582.908V596.5ZM585.158 592.75C585.772 591.943 585.993 590.551 586.181 588.727L586.408 586.523H589.362V592.75H585.158ZM598.865 592.023V585.273H597.524V594H599.092L603.274 587.25V594H604.615V585.273H603.07L598.865 592.023ZM615.544 592.182L612.544 585.273H610.771V594H612.112V587.199L614.998 594H616.089L618.976 587.324V594H620.316V585.273H618.589L615.544 592.182ZM623.712 585.273H622.371V594H623.712V590.273H627.894V594H629.235V585.273H627.894V589.023H623.712V585.273ZM634.829 594.182C637.193 594.182 638.784 592.386 638.784 589.682C638.784 586.955 637.193 585.159 634.829 585.159C632.465 585.159 630.874 586.955 630.874 589.682C630.874 592.386 632.465 594.182 634.829 594.182ZM634.829 592.977C633.034 592.977 632.215 591.432 632.215 589.682C632.215 587.932 633.034 586.364 634.829 586.364C636.624 586.364 637.443 587.932 637.443 589.682C637.443 591.432 636.624 592.977 634.829 592.977ZM645.817 585.273H640.43V594H641.771V586.523H645.817V585.273ZM650.466 594.182C652.83 594.182 654.421 592.386 654.421 589.682C654.421 586.955 652.83 585.159 650.466 585.159C648.103 585.159 646.512 586.955 646.512 589.682C646.512 592.386 648.103 594.182 650.466 594.182ZM650.466 592.977C648.671 592.977 647.853 591.432 647.853 589.682C647.853 587.932 648.671 586.364 650.466 586.364C652.262 586.364 653.08 587.932 653.08 589.682C653.08 591.432 652.262 592.977 650.466 592.977ZM659.727 594.182C661.5 594.182 662.795 593.295 663.204 591.977L661.909 591.614C661.568 592.523 660.778 592.977 659.727 592.977C658.153 592.977 657.068 591.96 657.005 590.091H663.341V589.523C663.341 586.273 661.409 585.159 659.591 585.159C657.227 585.159 655.659 587.023 655.659 589.705C655.659 592.386 657.204 594.182 659.727 594.182ZM657.005 588.932C657.096 587.574 658.057 586.364 659.591 586.364C661.045 586.364 661.977 587.455 661.977 588.932H657.005ZM668.149 596.5H669.49V594H675.944V596.5H677.285V592.75H675.944V585.273H670.399L670.103 588.727C669.893 591.17 669.58 592.011 668.876 592.75H668.149V596.5ZM670.399 592.75C671.012 591.943 671.234 590.551 671.421 588.727L671.649 586.523H674.603V592.75H670.399ZM678.665 597.273H680.006V592.659H680.119C680.415 593.136 680.983 594.182 682.665 594.182C684.847 594.182 686.369 592.432 686.369 589.659C686.369 586.909 684.847 585.159 682.642 585.159C680.938 585.159 680.415 586.205 680.119 586.659H679.96V585.273H678.665V597.273ZM679.983 589.636C679.983 587.682 680.847 586.364 682.483 586.364C684.188 586.364 685.028 587.795 685.028 589.636C685.028 591.5 684.165 592.977 682.483 592.977C680.869 592.977 679.983 591.614 679.983 589.636ZM688.566 597.273C689.776 597.273 690.628 596.631 691.134 595.273L694.85 585.295L693.384 585.273L690.975 592.227H690.884L688.475 585.273H687.02L690.248 594.045L689.998 594.727C689.509 596.057 688.907 596.182 687.93 595.932L687.589 597.114C687.725 597.182 688.111 597.273 688.566 597.273ZM701.611 585.273H696.224V594H697.565V586.523H701.611V585.273ZM706.26 594.182C708.624 594.182 710.215 592.386 710.215 589.682C710.215 586.955 708.624 585.159 706.26 585.159C703.897 585.159 702.306 586.955 702.306 589.682C702.306 592.386 703.897 594.182 706.26 594.182ZM706.26 592.977C704.465 592.977 703.647 591.432 703.647 589.682C703.647 587.932 704.465 586.364 706.26 586.364C708.056 586.364 708.874 587.932 708.874 589.682C708.874 591.432 708.056 592.977 706.26 592.977ZM715.521 594.182C717.293 594.182 718.589 593.295 718.998 591.977L717.703 591.614C717.362 592.523 716.572 592.977 715.521 592.977C713.947 592.977 712.862 591.96 712.799 590.091H719.134V589.523C719.134 586.273 717.203 585.159 715.384 585.159C713.021 585.159 711.453 587.023 711.453 589.705C711.453 592.386 712.998 594.182 715.521 594.182ZM712.799 588.932C712.89 587.574 713.85 586.364 715.384 586.364C716.839 586.364 717.771 587.455 717.771 588.932H712.799ZM721.751 594.091C722.314 594.091 722.774 593.631 722.774 593.068C722.774 592.506 722.314 592.045 721.751 592.045C721.189 592.045 720.729 592.506 720.729 593.068C720.729 593.631 721.189 594.091 721.751 594.091ZM163.25 618H164.932L160.068 611.477L164.773 606.364H163.091L158.432 611.409H157.818V606.364H156.409V618H157.818V612.659H159.25L163.25 618ZM168.739 618.205C170.262 618.205 171.057 617.386 171.33 616.818H171.398V618H172.739V612.25C172.739 609.477 170.626 609.159 169.512 609.159C168.194 609.159 166.694 609.614 166.012 611.205L167.285 611.659C167.58 611.023 168.279 610.341 169.557 610.341C170.79 610.341 171.398 610.994 171.398 612.114V612.159C171.398 612.807 170.739 612.75 169.148 612.955C167.529 613.165 165.762 613.523 165.762 615.523C165.762 617.227 167.08 618.205 168.739 618.205ZM168.944 617C167.876 617 167.103 616.523 167.103 615.591C167.103 614.568 168.035 614.25 169.08 614.114C169.648 614.045 171.171 613.886 171.398 613.614V614.841C171.398 615.932 170.535 617 168.944 617ZM174.787 618H176.128V614.318H177.332L180.196 618H181.923L178.355 613.477L181.878 609.273H180.15L177.014 613.068H176.128V609.273H174.787V618ZM187.08 618H188.421V610.523H192.603V618H193.944V609.273H187.08V618ZM199.538 618.182C201.902 618.182 203.493 616.386 203.493 613.682C203.493 610.955 201.902 609.159 199.538 609.159C197.175 609.159 195.584 610.955 195.584 613.682C195.584 616.386 197.175 618.182 199.538 618.182ZM199.538 616.977C197.743 616.977 196.925 615.432 196.925 613.682C196.925 611.932 197.743 610.364 199.538 610.364C201.334 610.364 202.152 611.932 202.152 613.682C202.152 615.432 201.334 616.977 199.538 616.977ZM204.208 620.5H205.549V618H212.003V620.5H213.344V616.75H212.003V609.273H206.458L206.162 612.727C205.952 615.17 205.64 616.011 204.935 616.75H204.208V620.5ZM206.458 616.75C207.072 615.943 207.293 614.551 207.481 612.727L207.708 610.523H210.662V616.75H206.458ZM214.724 618H216.065V614.318H217.27L220.133 618H221.861L218.292 613.477L221.815 609.273H220.088L216.951 613.068H216.065V609.273H214.724V618ZM222.145 618H222.6C224.532 618 225.088 616.5 225.213 613.636L225.35 610.523H228.554V618H229.895V609.273H224.077L223.918 613.136C223.804 616.068 223.509 616.75 222.463 616.75H222.145V618ZM232.66 609.273H231.319V618H232.66V614.341H234.899C235.137 616.676 236.654 618.182 238.819 618.182C241.183 618.182 242.774 616.386 242.774 613.682C242.774 610.955 241.183 609.159 238.819 609.159C236.632 609.159 235.103 610.699 234.893 613.091H232.66V609.273ZM238.819 616.977C237.024 616.977 236.205 615.432 236.205 613.682C236.205 611.932 237.024 610.364 238.819 610.364C240.614 610.364 241.433 611.932 241.433 613.682C241.433 615.432 240.614 616.977 238.819 616.977ZM251.283 609.273H249.942V613.699C249.294 613.886 248.629 614 247.828 614C246.737 614 245.896 613.386 245.896 612.045V609.25H244.555V612.045C244.555 614.182 245.851 615.25 247.828 615.25C248.652 615.25 249.311 615.142 249.942 614.955V618H251.283V609.273ZM254.684 616.023V609.273H253.343V618H254.911L259.093 611.25V618H260.434V609.273H258.888L254.684 616.023ZM261.302 610.523H264.189V618H265.53V610.523H268.393V609.273H261.302V610.523ZM271.29 612.432V609.273H269.949V618H273.608C275.654 618 276.767 616.75 276.767 615.182C276.767 613.591 275.654 612.432 273.608 612.432H271.29ZM271.29 613.682H273.608C274.671 613.682 275.426 614.33 275.426 615.25C275.426 616.131 274.671 616.75 273.608 616.75H271.29V613.682Z" fill="#191D3A"/>
<path d="M155 621.182H277.586V622.273H155V621.182Z" fill="#191D3A"/>
<path d="M414.114 238.364H405.432V250H406.841V239.614H412.705V250H414.114V238.364ZM415.601 250H416.056C417.988 250 418.545 248.5 418.67 245.636L418.806 242.523H422.011V250H423.351V241.273H417.533L417.374 245.136C417.261 248.068 416.965 248.75 415.92 248.75H415.601V250ZM427.98 250.205C429.503 250.205 430.298 249.386 430.571 248.818H430.639V250H431.98V244.25C431.98 241.477 429.866 241.159 428.753 241.159C427.434 241.159 425.934 241.614 425.253 243.205L426.525 243.659C426.821 243.023 427.52 242.341 428.798 242.341C430.031 242.341 430.639 242.994 430.639 244.114V244.159C430.639 244.807 429.98 244.75 428.389 244.955C426.77 245.165 425.003 245.523 425.003 247.523C425.003 249.227 426.321 250.205 427.98 250.205ZM428.184 249C427.116 249 426.343 248.523 426.343 247.591C426.343 246.568 427.275 246.25 428.321 246.114C428.889 246.045 430.412 245.886 430.639 245.614V246.841C430.639 247.932 429.775 249 428.184 249ZM432.84 242.523H435.726V250H437.067V242.523H439.931V241.273H432.84V242.523ZM444.693 250.182C446.465 250.182 447.761 249.295 448.17 247.977L446.874 247.614C446.534 248.523 445.744 248.977 444.693 248.977C443.119 248.977 442.034 247.96 441.971 246.091H448.306V245.523C448.306 242.273 446.374 241.159 444.556 241.159C442.193 241.159 440.624 243.023 440.624 245.705C440.624 248.386 442.17 250.182 444.693 250.182ZM441.971 244.932C442.062 243.574 443.022 242.364 444.556 242.364C446.011 242.364 446.943 243.455 446.943 244.932H441.971ZM449.166 250H450.78L453.757 246.25H454.439V250H455.78V246.25H456.462L459.416 250H461.03L457.507 245.568L460.984 241.273H459.393L456.484 245H455.78V241.273H454.439V245H453.712L450.803 241.273H449.212L452.712 245.568L449.166 250ZM463.887 248.023V241.273H462.546V250H464.114L468.296 243.25V250H469.637V241.273H468.091L463.887 248.023Z" fill="#757789"/>
<rect x="284" y="260" width="24" height="4" rx="2" fill="#4578F9"/>
<rect x="156" y="441" width="510" height="38" rx="11" fill="white" stroke="#E0E2E9" stroke-width="2"/>
<path d="M155.676 421.912H158.878V431H160.111V421.912H163.312V420.818H155.676V421.912ZM164.063 431H165.237V426.168C165.237 425.134 166.052 424.378 167.166 424.378C167.479 424.378 167.802 424.438 167.881 424.457V423.264C167.747 423.254 167.439 423.244 167.265 423.244C166.35 423.244 165.555 423.761 165.276 424.517H165.197V423.364H164.063V431ZM171.319 431.179C172.652 431.179 173.348 430.463 173.587 429.966H173.646V431H174.819V425.969C174.819 423.543 172.97 423.264 171.996 423.264C170.842 423.264 169.53 423.662 168.933 425.054L170.047 425.452C170.305 424.895 170.917 424.298 172.035 424.298C173.114 424.298 173.646 424.87 173.646 425.849V425.889C173.646 426.456 173.069 426.406 171.677 426.585C170.261 426.769 168.714 427.082 168.714 428.832C168.714 430.324 169.868 431.179 171.319 431.179ZM171.498 430.125C170.564 430.125 169.888 429.707 169.888 428.892C169.888 427.997 170.703 427.719 171.618 427.599C172.115 427.54 173.447 427.401 173.646 427.162V428.236C173.646 429.19 172.89 430.125 171.498 430.125ZM179.863 431.159C181.554 431.159 182.667 430.125 182.866 428.773H181.693C181.474 429.608 180.778 430.105 179.863 430.105C178.471 430.105 177.576 428.952 177.576 427.182C177.576 425.452 178.491 424.318 179.863 424.318C180.897 424.318 181.514 424.955 181.693 425.651H182.866C182.667 424.219 181.454 423.264 179.843 423.264C177.775 423.264 176.403 424.895 176.403 427.222C176.403 429.509 177.716 431.159 179.863 431.159ZM184.381 431H185.555V428.141L186.375 427.381L189.234 431H190.725L187.26 426.625L190.486 423.364H189.035L185.694 426.764H185.555V420.818H184.381V431ZM191.797 431H192.97V423.364H191.797V431ZM192.393 422.091C192.85 422.091 193.228 421.733 193.228 421.295C193.228 420.858 192.85 420.5 192.393 420.5C191.936 420.5 191.558 420.858 191.558 421.295C191.558 421.733 191.936 422.091 192.393 422.091ZM196.092 426.406C196.092 425.074 196.917 424.318 198.041 424.318C199.13 424.318 199.791 425.029 199.791 426.227V431H200.964V426.148C200.964 424.199 199.925 423.264 198.379 423.264C197.226 423.264 196.51 423.781 196.152 424.557H196.052V423.364H194.919V431H196.092V426.406ZM205.991 434.023C207.82 434.023 209.292 433.188 209.292 431.219V423.364H208.158V424.577H208.039C207.78 424.179 207.303 423.264 205.812 423.264C203.883 423.264 202.55 424.795 202.55 427.142C202.55 429.528 203.942 430.881 205.792 430.881C207.283 430.881 207.761 430.006 208.019 429.588H208.118V431.139C208.118 432.412 207.224 432.989 205.991 432.989C204.604 432.989 204.116 432.258 203.803 431.835L202.868 432.491C203.346 433.292 204.285 434.023 205.991 434.023ZM205.951 429.827C204.479 429.827 203.724 428.713 203.724 427.122C203.724 425.571 204.459 424.318 205.951 424.318C207.383 424.318 208.138 425.472 208.138 427.122C208.138 428.812 207.363 429.827 205.951 429.827ZM216.369 420.818H215.136V431H216.369V420.818ZM221.783 431C224.885 431 226.635 429.071 226.635 425.889C226.635 422.727 224.885 420.818 221.922 420.818H218.641V431H221.783ZM219.874 429.906V421.912H221.843C224.229 421.912 225.442 423.423 225.442 425.889C225.442 428.375 224.229 429.906 221.704 429.906H219.874Z" fill="#191D3A"/>
<path d="M171.773 455.614H175.432V466H176.841V455.614H180.5V454.364H171.773V455.614ZM182.275 466H183.684V462.227L185.138 460.591L189.184 466H190.888L186.002 459.614L190.888 454.364H189.047L183.82 460.136H183.684V454.364H182.275V466ZM201.539 454.364H200.153V463.523H200.039L193.676 454.364H192.312V466H193.721V456.864H193.835L200.176 466H201.539V454.364ZM207.55 466C211.095 466 213.095 463.795 213.095 460.159C213.095 456.545 211.095 454.364 207.709 454.364H203.959V466H207.55ZM205.368 464.75V455.614H207.618C210.345 455.614 211.732 457.341 211.732 460.159C211.732 463 210.345 464.75 207.459 464.75H205.368ZM218.945 454.364H217.536L214.627 456.295V457.727L217.468 455.841H217.536V466H218.945V454.364ZM221.892 466H229.233V464.75H223.824V464.659L226.438 461.864C228.438 459.722 229.028 458.722 229.028 457.432C229.028 455.636 227.574 454.205 225.528 454.205C223.489 454.205 221.938 455.591 221.938 457.636H223.278C223.278 456.312 224.136 455.432 225.483 455.432C226.744 455.432 227.71 456.205 227.71 457.432C227.71 458.506 227.08 459.301 225.733 460.773L221.892 464.977V466ZM235.111 466.159C237.367 466.159 239.043 464.744 239.043 462.841C239.043 461.364 238.168 460.29 236.702 460.045V459.955C237.878 459.597 238.611 458.631 238.611 457.318C238.611 455.67 237.31 454.205 235.157 454.205C233.145 454.205 231.475 455.443 231.407 457.273H232.77C232.822 456.114 233.924 455.432 235.134 455.432C236.418 455.432 237.248 456.21 237.248 457.386C237.248 458.614 236.287 459.409 234.907 459.409H233.975V460.659H234.907C236.674 460.659 237.657 461.557 237.657 462.841C237.657 464.074 236.583 464.909 235.089 464.909C233.742 464.909 232.674 464.216 232.589 463.091H231.157C231.242 464.92 232.856 466.159 235.111 466.159ZM245.058 454.364H243.649L240.74 456.295V457.727L243.581 455.841H243.649V466H245.058V454.364ZM248.005 466H255.345V464.75H249.936V464.659L252.55 461.864C254.55 459.722 255.141 458.722 255.141 457.432C255.141 455.636 253.686 454.205 251.641 454.205C249.601 454.205 248.05 455.591 248.05 457.636H249.391C249.391 456.312 250.249 455.432 251.595 455.432C252.857 455.432 253.823 456.205 253.823 457.432C253.823 458.506 253.192 459.301 251.845 460.773L248.005 464.977V466ZM261.224 466.159C263.48 466.159 265.156 464.744 265.156 462.841C265.156 461.364 264.281 460.29 262.815 460.045V459.955C263.991 459.597 264.724 458.631 264.724 457.318C264.724 455.67 263.423 454.205 261.269 454.205C259.258 454.205 257.588 455.443 257.519 457.273H258.883C258.934 456.114 260.036 455.432 261.247 455.432C262.531 455.432 263.36 456.21 263.36 457.386C263.36 458.614 262.4 459.409 261.019 459.409H260.088V460.659H261.019C262.786 460.659 263.769 461.557 263.769 462.841C263.769 464.074 262.695 464.909 261.201 464.909C259.855 464.909 258.786 464.216 258.701 463.091H257.269C257.355 464.92 258.968 466.159 261.224 466.159ZM271.17 454.364H269.761L266.852 456.295V457.727L269.693 455.841H269.761V466H271.17V454.364ZM274.117 466H281.458V464.75H276.049V464.659L278.662 461.864C280.662 459.722 281.253 458.722 281.253 457.432C281.253 455.636 279.799 454.205 277.753 454.205C275.714 454.205 274.162 455.591 274.162 457.636H275.503C275.503 456.312 276.361 455.432 277.708 455.432C278.969 455.432 279.935 456.205 279.935 457.432C279.935 458.506 279.305 459.301 277.958 460.773L274.117 464.977V466ZM287.336 466.159C289.592 466.159 291.268 464.744 291.268 462.841C291.268 461.364 290.393 460.29 288.927 460.045V459.955C290.103 459.597 290.836 458.631 290.836 457.318C290.836 455.67 289.535 454.205 287.382 454.205C285.37 454.205 283.7 455.443 283.632 457.273H284.995C285.047 456.114 286.149 455.432 287.359 455.432C288.643 455.432 289.473 456.21 289.473 457.386C289.473 458.614 288.512 459.409 287.132 459.409H286.2V460.659H287.132C288.899 460.659 289.882 461.557 289.882 462.841C289.882 464.074 288.808 464.909 287.314 464.909C285.967 464.909 284.899 464.216 284.814 463.091H283.382C283.467 464.92 285.081 466.159 287.336 466.159Z" fill="black"/>
<rect x="156" y="665" width="510" height="38" rx="11" fill="white" stroke="#E0E2E9" stroke-width="2"/>
<path d="M164.426 648C164.048 645.912 162.378 644.679 160.33 644.679C157.724 644.679 155.835 646.688 155.835 649.909C155.835 653.131 157.724 655.139 160.33 655.139C162.378 655.139 164.048 653.906 164.426 651.818H163.193C162.895 653.23 161.682 653.986 160.33 653.986C158.48 653.986 157.028 652.554 157.028 649.909C157.028 647.264 158.48 645.832 160.33 645.832C161.682 645.832 162.895 646.588 163.193 648H164.426ZM171.946 647.364H170.772V651.237C170.206 651.401 169.624 651.5 168.923 651.5C167.969 651.5 167.233 650.963 167.233 649.79V647.344H166.059V649.79C166.059 651.659 167.193 652.594 168.923 652.594C169.644 652.594 170.221 652.499 170.772 652.335V655H171.946V647.364ZM177.1 655.159C178.651 655.159 179.785 654.384 180.143 653.23L179.009 652.912C178.711 653.707 178.02 654.105 177.1 654.105C175.723 654.105 174.773 653.215 174.719 651.58H180.262V651.082C180.262 648.239 178.572 647.264 176.981 647.264C174.913 647.264 173.541 648.895 173.541 651.241C173.541 653.588 174.893 655.159 177.1 655.159ZM174.719 650.565C174.798 649.377 175.639 648.318 176.981 648.318C178.254 648.318 179.069 649.273 179.069 650.565H174.719ZM175.489 646.091C175.947 646.091 176.285 645.713 176.285 645.295C176.285 644.838 175.947 644.5 175.489 644.5C175.072 644.5 174.694 644.838 174.694 645.295C174.694 645.713 175.072 646.091 175.489 646.091ZM178.353 646.091C178.81 646.091 179.148 645.713 179.148 645.295C179.148 644.838 178.81 644.5 178.353 644.5C177.935 644.5 177.558 644.838 177.558 645.295C177.558 645.713 177.935 646.091 178.353 646.091ZM181.136 648.457H183.662V655H184.835V648.457H187.341V647.364H181.136V648.457ZM194.342 647.364H193.169V651.237C192.602 651.401 192.02 651.5 191.319 651.5C190.365 651.5 189.629 650.963 189.629 649.79V647.344H188.456V649.79C188.456 651.659 189.589 652.594 191.319 652.594C192.04 652.594 192.617 652.499 193.169 652.335V655H194.342V647.364ZM197.468 653.27V647.364H196.295V655H197.667L201.326 649.094V655H202.499V647.364H201.147L197.468 653.27ZM204.448 655H205.621V651.778H206.675L209.181 655H210.692L207.57 651.043L210.653 647.364H209.141L206.397 650.685H205.621V647.364H204.448V655Z" fill="#191D3A"/>
<path fill-rule="evenodd" clip-rule="evenodd" d="M348 332.667V329C348 328.816 347.851 328.667 347.667 328.667H347C346.816 328.667 346.667 328.816 346.667 329V332.667H337.333V323.333H341C341.184 323.333 341.333 323.184 341.333 323V322.333C341.333 322.149 341.184 322 341 322H337.333C336.597 322 336 322.597 336 323.333V332.667C336 333.403 336.597 334 337.333 334H346.667C347.403 334 348 333.403 348 332.667ZM347.673 322.153L347.853 322.333V322.327C347.944 322.417 347.996 322.539 348 322.667V327C348 327.184 347.851 327.333 347.667 327.333H347C346.816 327.333 346.667 327.184 346.667 327V324.28L341.04 329.9C340.977 329.963 340.892 329.999 340.803 329.999C340.714 329.999 340.629 329.963 340.567 329.9L340.1 329.433C340.037 329.371 340.001 329.286 340.001 329.197C340.001 329.108 340.037 329.023 340.1 328.96L345.727 323.333H343C342.816 323.333 342.667 323.184 342.667 323V322.333C342.667 322.149 342.816 322 343 322H347.333C347.462 322.005 347.584 322.06 347.673 322.153Z" fill="#4578F9"/>
<g clip-path="url(#clip0)">
<rect x="1054" y="168" width="189" height="40" rx="12" fill="#4578F9"/>
<path d="M1083.43 186C1083.05 183.912 1081.38 182.679 1079.33 182.679C1076.72 182.679 1074.84 184.688 1074.84 187.909C1074.84 191.131 1076.72 193.139 1079.33 193.139C1081.38 193.139 1083.05 191.906 1083.43 189.818H1082.19C1081.89 191.23 1080.68 191.986 1079.33 191.986C1077.48 191.986 1076.03 190.554 1076.03 187.909C1076.03 185.264 1077.48 183.832 1079.33 183.832C1080.68 183.832 1081.89 184.588 1082.19 186H1083.43ZM1088.16 193.159C1090.23 193.159 1091.62 191.588 1091.62 189.222C1091.62 186.835 1090.23 185.264 1088.16 185.264C1086.09 185.264 1084.7 186.835 1084.7 189.222C1084.7 191.588 1086.09 193.159 1088.16 193.159ZM1088.16 192.105C1086.59 192.105 1085.87 190.753 1085.87 189.222C1085.87 187.69 1086.59 186.318 1088.16 186.318C1089.73 186.318 1090.45 187.69 1090.45 189.222C1090.45 190.753 1089.73 192.105 1088.16 192.105ZM1093.77 185.364H1092.42L1094.85 189.182L1092.42 193H1093.77L1095.6 190.037L1097.43 193H1098.78L1096.32 189.182L1098.78 185.364H1097.43L1095.6 188.486L1093.77 185.364ZM1100.26 195.864H1101.43V191.827H1101.53C1101.79 192.244 1102.29 193.159 1103.76 193.159C1105.67 193.159 1107 191.628 1107 189.202C1107 186.795 1105.67 185.264 1103.74 185.264C1102.25 185.264 1101.79 186.179 1101.53 186.577H1101.39V185.364H1100.26V195.864ZM1101.41 189.182C1101.41 187.472 1102.17 186.318 1103.6 186.318C1105.09 186.318 1105.83 187.571 1105.83 189.182C1105.83 190.812 1105.07 192.105 1103.6 192.105C1102.19 192.105 1101.41 190.912 1101.41 189.182ZM1110.84 193.179C1112.17 193.179 1112.87 192.463 1113.1 191.966H1113.16V193H1114.34V187.969C1114.34 185.543 1112.49 185.264 1111.51 185.264C1110.36 185.264 1109.05 185.662 1108.45 187.054L1109.56 187.452C1109.82 186.895 1110.43 186.298 1111.55 186.298C1112.63 186.298 1113.16 186.87 1113.16 187.849V187.889C1113.16 188.456 1112.59 188.406 1111.2 188.585C1109.78 188.769 1108.23 189.082 1108.23 190.832C1108.23 192.324 1109.39 193.179 1110.84 193.179ZM1111.02 192.125C1110.08 192.125 1109.41 191.707 1109.41 190.892C1109.41 189.997 1110.22 189.719 1111.14 189.599C1111.63 189.54 1112.97 189.401 1113.16 189.162V190.236C1113.16 191.19 1112.41 192.125 1111.02 192.125ZM1117.45 185.364H1116.28V193H1117.45V189.739H1121.11V193H1122.28V185.364H1121.11V188.645H1117.45V185.364ZM1125.4 191.27V185.364H1124.23V193H1125.6L1129.26 187.094V193H1130.43V185.364H1129.08L1125.4 191.27ZM1131.34 186.457H1133.87V193H1135.04V186.457H1137.55V185.364H1131.34V186.457ZM1140.23 188.128V185.364H1139.06V193H1142.26C1144.05 193 1145.02 191.906 1145.02 190.534C1145.02 189.142 1144.05 188.128 1142.26 188.128H1140.23ZM1140.23 189.222H1142.26C1143.19 189.222 1143.85 189.788 1143.85 190.594C1143.85 191.364 1143.19 191.906 1142.26 191.906H1140.23V189.222ZM1151.52 191.27V185.364H1150.35V193H1151.72L1155.38 187.094V193H1156.55V185.364H1155.2L1151.52 191.27ZM1158.02 191.051C1158.06 192.304 1159.26 193.159 1160.89 193.159C1162.56 193.159 1163.77 192.264 1163.77 190.872C1163.77 189.918 1163.2 189.142 1162.34 189.082V189.003C1163.06 188.779 1163.61 188.252 1163.61 187.392C1163.61 186.184 1162.58 185.264 1160.97 185.264C1159.38 185.264 1158.24 186.139 1158.2 187.372H1159.44C1159.47 186.741 1160.13 186.298 1161.03 186.298C1161.92 186.298 1162.42 186.751 1162.42 187.432C1162.42 188.068 1161.98 188.545 1161.05 188.545H1159.73V189.599H1161.05C1161.98 189.599 1162.58 190.112 1162.58 190.872C1162.58 191.742 1161.81 192.105 1160.87 192.105C1159.95 192.105 1159.33 191.742 1159.28 191.051H1158.02ZM1169.39 191.409L1166.77 185.364H1165.22V193H1166.39V187.049L1168.92 193H1169.87L1172.4 187.158V193H1173.57V185.364H1172.06L1169.39 191.409ZM1178.72 193.159C1180.27 193.159 1181.41 192.384 1181.76 191.23L1180.63 190.912C1180.33 191.707 1179.64 192.105 1178.72 192.105C1177.34 192.105 1176.39 191.215 1176.34 189.58H1181.88V189.082C1181.88 186.239 1180.19 185.264 1178.6 185.264C1176.53 185.264 1175.16 186.895 1175.16 189.241C1175.16 191.588 1176.51 193.159 1178.72 193.159ZM1176.34 188.565C1176.42 187.377 1177.26 186.318 1178.6 186.318C1179.87 186.318 1180.69 187.273 1180.69 188.565H1176.34ZM1184.64 185.364H1183.47V193H1184.64V189.739H1188.3V193H1189.47V185.364H1188.3V188.645H1184.64V185.364ZM1194.62 193.159C1196.17 193.159 1197.3 192.384 1197.66 191.23L1196.53 190.912C1196.23 191.707 1195.54 192.105 1194.62 192.105C1193.24 192.105 1192.29 191.215 1192.24 189.58H1197.78V189.082C1197.78 186.239 1196.09 185.264 1194.5 185.264C1192.43 185.264 1191.06 186.895 1191.06 189.241C1191.06 191.588 1192.41 193.159 1194.62 193.159ZM1192.24 188.565C1192.32 187.377 1193.16 186.318 1194.5 186.318C1195.77 186.318 1196.59 187.273 1196.59 188.565H1192.24ZM1200.54 185.364H1199.36V193H1200.54V189.739H1204.2V193H1205.37V185.364H1204.2V188.645H1200.54V185.364ZM1208.49 191.27V185.364H1207.31V193H1208.68L1212.34 187.094V193H1213.52V185.364H1212.16L1208.49 191.27ZM1220.06 193H1221.17V185.364H1218.03C1216.39 185.364 1215.39 186.224 1215.39 187.631C1215.39 188.68 1215.91 189.425 1216.83 189.739L1214.97 193H1216.24L1218.01 189.898H1220.06V193ZM1220.06 188.804H1217.89C1217.06 188.804 1216.56 188.362 1216.56 187.631C1216.56 186.89 1217.12 186.438 1218.03 186.438H1220.06V188.804Z" fill="white"/>
</g>
<g clip-path="url(#clip1)">
<rect x="938" y="168" width="92" height="40" rx="12" fill="white"/>
<path d="M967.824 187.909C967.824 184.688 965.935 182.679 963.33 182.679C960.724 182.679 958.835 184.688 958.835 187.909C958.835 191.131 960.724 193.139 963.33 193.139C965.935 193.139 967.824 191.131 967.824 187.909ZM966.631 187.909C966.631 190.554 965.179 191.986 963.33 191.986C961.48 191.986 960.028 190.554 960.028 187.909C960.028 185.264 961.48 183.832 963.33 183.832C965.179 183.832 966.631 185.264 966.631 187.909ZM969.1 186.457H971.626V193H972.799V186.457H975.305V185.364H969.1V186.457ZM980.993 191.409L978.368 185.364H976.816V193H977.99V187.049L980.515 193H981.47L983.995 187.158V193H985.169V185.364H983.657L980.993 191.409ZM990.318 193.159C991.869 193.159 993.003 192.384 993.361 191.23L992.227 190.912C991.929 191.707 991.238 192.105 990.318 192.105C988.941 192.105 987.991 191.215 987.937 189.58H993.48V189.082C993.48 186.239 991.79 185.264 990.199 185.264C988.131 185.264 986.758 186.895 986.758 189.241C986.758 191.588 988.111 193.159 990.318 193.159ZM987.937 188.565C988.016 187.377 988.856 186.318 990.199 186.318C991.472 186.318 992.287 187.273 992.287 188.565H987.937ZM996.238 185.364H995.065V193H996.238V189.739H999.897V193H1001.07V185.364H999.897V188.645H996.238V185.364ZM1005.26 193.179C1006.59 193.179 1007.29 192.463 1007.53 191.966H1007.59V193H1008.76V187.969C1008.76 185.543 1006.91 185.264 1005.94 185.264C1004.78 185.264 1003.47 185.662 1002.87 187.054L1003.99 187.452C1004.25 186.895 1004.86 186.298 1005.98 186.298C1007.06 186.298 1007.59 186.87 1007.59 187.849V187.889C1007.59 188.456 1007.01 188.406 1005.62 188.585C1004.2 188.769 1002.66 189.082 1002.66 190.832C1002.66 192.324 1003.81 193.179 1005.26 193.179ZM1005.44 192.125C1004.5 192.125 1003.83 191.707 1003.83 190.892C1003.83 189.997 1004.64 189.719 1005.56 189.599C1006.06 189.54 1007.39 189.401 1007.59 189.162V190.236C1007.59 191.19 1006.83 192.125 1005.44 192.125Z" fill="#191D3A"/>
</g>
<rect x="938" y="168" width="92" height="40" rx="12" stroke="#191D3A" stroke-width="2"/>
<defs>
<filter id="filter0_d" x="91" y="264" width="1184" height="512" filterUnits="userSpaceOnUse" color-interpolation-filters="sRGB">
<feFlood flood-opacity="0" result="BackgroundImageFix"/>
<feColorMatrix in="SourceAlpha" type="matrix" values="0 0 0 0 0 0 0 0 0 0 0 0 0 0 0 0 0 0 127 0"/>
<feOffset dy="8"/>
<feGaussianBlur stdDeviation="16"/>
<feColorMatrix type="matrix" values="0 0 0 0 0.0980392 0 0 0 0 0.113725 0 0 0 0 0.227451 0 0 0 0.04 0"/>
<feBlend mode="normal" in2="BackgroundImageFix" result="effect1_dropShadow"/>
<feBlend mode="normal" in="SourceGraphic" in2="effect1_dropShadow" result="shape"/>
</filter>
<clipPath id="clip0">
<rect x="1054" y="168" width="189" height="40" rx="12" fill="white"/>
</clipPath>
<clipPath id="clip1">
<rect x="938" y="168" width="92" height="40" rx="12" fill="white"/>
</clipPath>
</defs>
</svg>
