<svg width="1366" height="840" viewBox="0 0 1366 840" fill="none" xmlns="http://www.w3.org/2000/svg">
<rect width="1366" height="840" fill="#F9F9F9"/>
<rect width="1366" height="72" fill="white"/>
<path d="M134.881 27.5455V38.4375C134.881 40.2528 133.594 41.5568 131.71 41.5568C129.818 41.5568 128.54 40.2528 128.54 38.4375V27.5455H124.321V38.804C124.321 42.7074 127.27 45.2216 131.71 45.2216C136.116 45.2216 139.091 42.7074 139.091 38.804V27.5455H134.881ZM145.703 37.5341C145.711 36.0426 146.581 35.1562 147.902 35.1562C149.223 35.1562 150.007 36.0256 149.998 37.4744V45H154.166V36.6562C154.174 33.7074 152.376 31.7386 149.623 31.7386C147.688 31.7386 146.223 32.7188 145.643 34.3125H145.498V31.9091H141.535V45H145.703V37.5341ZM156.546 45H160.714V31.9091H156.546V45ZM158.634 30.3835C159.819 30.3835 160.773 29.4886 160.773 28.3892C160.773 27.2898 159.819 26.4034 158.634 26.4034C157.458 26.4034 156.495 27.2898 156.495 28.3892C156.495 29.4886 157.458 30.3835 158.634 30.3835ZM167.334 27.5455H163.166V45H167.334V27.5455ZM173.477 45.2216C175.301 45.2216 176.562 44.5142 177.278 43.1761H177.38V45H181.301V36.1023C181.301 33.3324 178.838 31.7386 175.505 31.7386C171.986 31.7386 169.991 33.5114 169.659 35.8977L173.503 36.0341C173.682 35.1989 174.372 34.6875 175.471 34.6875C176.494 34.6875 177.142 35.1818 177.142 36.0597V36.1023C177.142 36.9034 176.272 37.0739 174.039 37.2699C171.389 37.4915 169.173 38.4716 169.173 41.3693C169.173 43.9602 170.971 45.2216 173.477 45.2216ZM174.764 42.4943C173.801 42.4943 173.119 42.0341 173.119 41.1648C173.119 40.321 173.784 39.8097 174.968 39.6307C175.744 39.5199 176.699 39.3494 177.167 39.1023V40.3466C177.167 41.625 176.093 42.4943 174.764 42.4943ZM187.817 37.5341C187.825 36.0426 188.695 35.1562 190.016 35.1562C191.337 35.1562 192.121 36.0256 192.112 37.4744V45H196.28V36.6562C196.288 33.7074 194.49 31.7386 191.737 31.7386C189.803 31.7386 188.337 32.7188 187.757 34.3125H187.612V31.9091H183.649V45H187.817V37.5341ZM203.441 45.1875C205.419 45.1875 206.595 44.0881 207.123 42.8778H207.251V45H211.376V27.5455H207.208V34.1506H207.123C206.629 32.9489 205.487 31.7386 203.424 31.7386C200.688 31.7386 198.208 33.8438 198.208 38.4631C198.208 42.9205 200.552 45.1875 203.441 45.1875ZM204.89 41.9403C203.348 41.9403 202.487 40.5682 202.487 38.4545C202.487 36.3494 203.339 34.9943 204.89 34.9943C206.416 34.9943 207.302 36.3153 207.302 38.4545C207.302 40.5767 206.407 41.9403 204.89 41.9403ZM213.812 45H217.979V31.9091H213.812V45ZM215.9 30.3835C217.084 30.3835 218.039 29.4886 218.039 28.3892C218.039 27.2898 217.084 26.4034 215.9 26.4034C214.724 26.4034 213.761 27.2898 213.761 28.3892C213.761 29.4886 214.724 30.3835 215.9 30.3835ZM224.6 37.5341C224.608 36.0426 225.477 35.1562 226.798 35.1562C228.119 35.1562 228.904 36.0256 228.895 37.4744V45H233.063V36.6562C233.071 33.7074 231.273 31.7386 228.52 31.7386C226.585 31.7386 225.119 32.7188 224.54 34.3125H224.395V31.9091H220.432V45H224.6V37.5341ZM241.545 50.1818C245.491 50.1818 248.184 48.3835 248.184 45.0511V31.9091H244.034V34.1506H243.914C243.412 32.9489 242.27 31.7386 240.207 31.7386C237.471 31.7386 234.991 33.8438 234.991 38.4375C234.991 42.8864 237.352 44.821 240.224 44.821C242.15 44.821 243.437 43.9261 243.932 42.7159H244.076V45.017C244.076 46.6875 243.054 47.2926 241.656 47.2926C240.318 47.2926 239.517 46.7812 239.295 45.9716L235.349 46.1932C235.656 48.4858 237.812 50.1818 241.545 50.1818ZM241.673 41.7869C240.13 41.7869 239.27 40.5341 239.27 38.4375C239.27 36.3494 240.122 34.9943 241.673 34.9943C243.199 34.9943 244.085 36.3153 244.085 38.4375C244.085 40.5426 243.19 41.7869 241.673 41.7869Z" fill="#191D3A"/>
<path d="M1070.05 30.3636V37.9545C1070.05 39.6591 1068.88 40.8864 1066.93 40.8864C1064.99 40.8864 1063.82 39.6591 1063.82 37.9545V30.3636H1062.41V38.0682C1062.41 40.4545 1064.19 42.2045 1066.93 42.2045C1069.67 42.2045 1071.45 40.4545 1071.45 38.0682V30.3636H1070.05ZM1079.87 35.2273C1079.45 33.9886 1078.5 33.1591 1076.78 33.1591C1074.94 33.1591 1073.57 34.2045 1073.57 35.6818C1073.57 36.8864 1074.29 37.6932 1075.89 38.0682L1077.35 38.4091C1078.23 38.6136 1078.64 39.0341 1078.64 39.6364C1078.64 40.3864 1077.85 41 1076.6 41C1075.5 41 1074.81 40.5284 1074.57 39.5909L1073.3 39.9091C1073.61 41.392 1074.83 42.1818 1076.62 42.1818C1078.65 42.1818 1080.03 41.0739 1080.03 39.5682C1080.03 38.3523 1079.27 37.5852 1077.71 37.2045L1076.41 36.8864C1075.38 36.6307 1074.91 36.2841 1074.91 35.6136C1074.91 34.8636 1075.71 34.3182 1076.78 34.3182C1077.95 34.3182 1078.43 34.9659 1078.66 35.5682L1079.87 35.2273ZM1085.31 42.1818C1087.08 42.1818 1088.37 41.2955 1088.78 39.9773L1087.49 39.6136C1087.15 40.5227 1086.36 40.9773 1085.31 40.9773C1083.73 40.9773 1082.65 39.9602 1082.58 38.0909H1088.92V37.5227C1088.92 34.2727 1086.99 33.1591 1085.17 33.1591C1082.81 33.1591 1081.24 35.0227 1081.24 37.7045C1081.24 40.3864 1082.78 42.1818 1085.31 42.1818ZM1082.58 36.9318C1082.67 35.5739 1083.63 34.3636 1085.17 34.3636C1086.62 34.3636 1087.56 35.4545 1087.56 36.9318H1082.58ZM1090.56 42H1091.9V36.4773C1091.9 35.2955 1092.83 34.4318 1094.1 34.4318C1094.46 34.4318 1094.83 34.5 1094.92 34.5227V33.1591C1094.77 33.1477 1094.42 33.1364 1094.22 33.1364C1093.17 33.1364 1092.26 33.7273 1091.94 34.5909H1091.85V33.2727H1090.56V42ZM1096.11 42H1097.45V36.5455C1097.45 35.267 1098.38 34.3636 1099.43 34.3636C1100.45 34.3636 1101.16 35.0284 1101.16 36.0227V42H1102.52V36.3182C1102.52 35.1932 1103.23 34.3636 1104.45 34.3636C1105.41 34.3636 1106.23 34.8693 1106.23 36.1591V42H1107.57V36.1591C1107.57 34.108 1106.46 33.1591 1104.91 33.1591C1103.66 33.1591 1102.74 33.733 1102.29 34.6364H1102.2C1101.77 33.7045 1101.01 33.1591 1099.86 33.1591C1098.73 33.1591 1097.88 33.7045 1097.52 34.6364H1097.41V33.2727H1096.11V42ZM1112.19 42.2045C1113.71 42.2045 1114.5 41.3864 1114.78 40.8182H1114.85V42H1116.19V36.25C1116.19 33.4773 1114.07 33.1591 1112.96 33.1591C1111.64 33.1591 1110.14 33.6136 1109.46 35.2045L1110.73 35.6591C1111.03 35.0227 1111.73 34.3409 1113 34.3409C1114.24 34.3409 1114.85 34.9943 1114.85 36.1136V36.1591C1114.85 36.8068 1114.19 36.75 1112.6 36.9545C1110.98 37.1648 1109.21 37.5227 1109.21 39.5227C1109.21 41.2273 1110.53 42.2045 1112.19 42.2045ZM1112.39 41C1111.32 41 1110.55 40.5227 1110.55 39.5909C1110.55 38.5682 1111.48 38.25 1112.53 38.1136C1113.1 38.0455 1114.62 37.8864 1114.85 37.6136V38.8409C1114.85 39.9318 1113.98 41 1112.39 41ZM1118.23 42H1119.57V33.2727H1118.23V42ZM1118.92 31.8182C1119.44 31.8182 1119.87 31.4091 1119.87 30.9091C1119.87 30.4091 1119.44 30 1118.92 30C1118.39 30 1117.96 30.4091 1117.96 30.9091C1117.96 31.4091 1118.39 31.8182 1118.92 31.8182ZM1122.97 30.3636H1121.63V42H1122.97V30.3636ZM1131.73 45.0682C1132.89 45.0682 1134.37 44.7273 1135.07 44.4318L1134.75 43.3864C1134.35 43.5227 1133.03 43.9773 1131.78 43.9773C1127.89 43.9773 1125.82 41.7955 1125.82 37.9318C1125.82 34.1364 1127.94 31.8636 1131.5 31.8636C1135.12 31.8636 1136.82 34.4091 1136.82 36.9545C1136.82 39.5455 1136.55 40.7045 1135.39 40.7045C1134.71 40.7045 1134.35 40.1364 1134.35 39.5V34.3636H1133.14V35H1133.07C1132.91 34.5 1132.03 34.0682 1130.89 34.1818C1129.19 34.3636 1127.89 35.7727 1127.89 37.8182C1127.89 39.9773 1128.91 41.6364 1130.89 41.7045C1132.19 41.75 1132.87 41.1136 1133.14 40.4545H1133.21C1133.35 41.4318 1134.57 41.7727 1135.37 41.7727C1137.78 41.7727 1138 39.1818 1138 36.9773C1138 33.8636 1135.82 30.7955 1131.57 30.7955C1127.19 30.7955 1124.57 33.4545 1124.57 37.8864C1124.57 42.4773 1127.1 45.0682 1131.73 45.0682ZM1131.07 40.5455C1129.6 40.5455 1129.07 39.2045 1129.07 37.75C1129.07 36.4318 1129.82 35.2955 1131.12 35.2955C1132.48 35.2955 1133.21 35.8409 1133.21 37.75C1133.21 39.6364 1132.6 40.5455 1131.07 40.5455ZM1139.61 42H1140.95V36.5455C1140.95 35.267 1141.88 34.3636 1142.93 34.3636C1143.95 34.3636 1144.66 35.0284 1144.66 36.0227V42H1146.02V36.3182C1146.02 35.1932 1146.73 34.3636 1147.95 34.3636C1148.91 34.3636 1149.73 34.8693 1149.73 36.1591V42H1151.07V36.1591C1151.07 34.108 1149.96 33.1591 1148.41 33.1591C1147.16 33.1591 1146.24 33.733 1145.79 34.6364H1145.7C1145.27 33.7045 1144.51 33.1591 1143.36 33.1591C1142.23 33.1591 1141.38 33.7045 1141.02 34.6364H1140.91V33.2727H1139.61V42ZM1155.69 42.2045C1157.21 42.2045 1158 41.3864 1158.28 40.8182H1158.35V42H1159.69V36.25C1159.69 33.4773 1157.57 33.1591 1156.46 33.1591C1155.14 33.1591 1153.64 33.6136 1152.96 35.2045L1154.23 35.6591C1154.53 35.0227 1155.23 34.3409 1156.5 34.3409C1157.74 34.3409 1158.35 34.9943 1158.35 36.1136V36.1591C1158.35 36.8068 1157.69 36.75 1156.1 36.9545C1154.48 37.1648 1152.71 37.5227 1152.71 39.5227C1152.71 41.2273 1154.03 42.2045 1155.69 42.2045ZM1155.89 41C1154.82 41 1154.05 40.5227 1154.05 39.5909C1154.05 38.5682 1154.98 38.25 1156.03 38.1136C1156.6 38.0455 1158.12 37.8864 1158.35 37.6136V38.8409C1158.35 39.9318 1157.48 41 1155.89 41ZM1161.73 42H1163.07V33.2727H1161.73V42ZM1162.42 31.8182C1162.94 31.8182 1163.37 31.4091 1163.37 30.9091C1163.37 30.4091 1162.94 30 1162.42 30C1161.89 30 1161.46 30.4091 1161.46 30.9091C1161.46 31.4091 1161.89 31.8182 1162.42 31.8182ZM1166.47 30.3636H1165.13V42H1166.47V30.3636ZM1169.5 42.0909C1170.07 42.0909 1170.53 41.6307 1170.53 41.0682C1170.53 40.5057 1170.07 40.0455 1169.5 40.0455C1168.94 40.0455 1168.48 40.5057 1168.48 41.0682C1168.48 41.6307 1168.94 42.0909 1169.5 42.0909ZM1176.08 42.1818C1178.01 42.1818 1179.28 41 1179.51 39.4545H1178.17C1177.92 40.4091 1177.12 40.9773 1176.08 40.9773C1174.49 40.9773 1173.47 39.6591 1173.47 37.6364C1173.47 35.6591 1174.51 34.3636 1176.08 34.3636C1177.26 34.3636 1177.97 35.0909 1178.17 35.8864H1179.51C1179.28 34.25 1177.9 33.1591 1176.06 33.1591C1173.69 33.1591 1172.12 35.0227 1172.12 37.6818C1172.12 40.2955 1173.62 42.1818 1176.08 42.1818ZM1184.62 42.1818C1186.98 42.1818 1188.57 40.3864 1188.57 37.6818C1188.57 34.9545 1186.98 33.1591 1184.62 33.1591C1182.25 33.1591 1180.66 34.9545 1180.66 37.6818C1180.66 40.3864 1182.25 42.1818 1184.62 42.1818ZM1184.62 40.9773C1182.82 40.9773 1182 39.4318 1182 37.6818C1182 35.9318 1182.82 34.3636 1184.62 34.3636C1186.41 34.3636 1187.23 35.9318 1187.23 37.6818C1187.23 39.4318 1186.41 40.9773 1184.62 40.9773ZM1190.22 42H1191.56V36.5455C1191.56 35.267 1192.49 34.3636 1193.54 34.3636C1194.55 34.3636 1195.26 35.0284 1195.26 36.0227V42H1196.63V36.3182C1196.63 35.1932 1197.33 34.3636 1198.56 34.3636C1199.51 34.3636 1200.33 34.8693 1200.33 36.1591V42H1201.67V36.1591C1201.67 34.108 1200.57 33.1591 1199.01 33.1591C1197.76 33.1591 1196.85 33.733 1196.4 34.6364H1196.31C1195.88 33.7045 1195.12 33.1591 1193.97 33.1591C1192.83 33.1591 1191.99 33.7045 1191.63 34.6364H1191.51V33.2727H1190.22V42Z" fill="#191D3A"/>
<path fill-rule="evenodd" clip-rule="evenodd" d="M1230.33 40.6667H1234C1234.18 40.6667 1234.33 40.8159 1234.33 41V41.6667C1234.33 41.8508 1234.18 42 1234 42H1230.33C1229.6 42 1229 41.403 1229 40.6667V31.3333C1229 30.597 1229.6 30 1230.33 30H1234C1234.18 30 1234.33 30.1492 1234.33 30.3333V31C1234.33 31.1841 1234.18 31.3333 1234 31.3333H1230.33V40.6667ZM1237.43 32.1L1240.85 35.52C1240.95 35.6145 1241 35.7411 1241 35.8733V36.1267C1241 36.2592 1240.95 36.3863 1240.85 36.48L1237.43 39.9C1237.36 39.9631 1237.28 39.9986 1237.19 39.9986C1237.1 39.9986 1237.02 39.9631 1236.95 39.9L1236.48 39.4333C1236.42 39.3707 1236.38 39.2855 1236.38 39.1967C1236.38 39.1078 1236.42 39.0226 1236.48 38.96L1238.78 36.6667H1232C1231.82 36.6667 1231.67 36.5174 1231.67 36.3333V35.6667C1231.67 35.4826 1231.82 35.3333 1232 35.3333H1238.78L1236.48 33.04C1236.42 32.9786 1236.38 32.8945 1236.38 32.8067C1236.38 32.7189 1236.42 32.6348 1236.48 32.5733L1236.95 32.1C1237.02 32.0369 1237.1 32.0014 1237.19 32.0014C1237.28 32.0014 1237.36 32.0369 1237.43 32.1Z" fill="#191D3A"/>
<path d="M125.295 200H129.511V190.114H140.295V200H144.523V176.727H140.295V186.58H129.511V176.727H125.295V200ZM153.549 200.352C156.288 200.352 157.924 199.068 158.674 197.602H158.81V200H162.765V188.318C162.765 183.705 159.003 182.318 155.674 182.318C152.003 182.318 149.185 183.955 148.276 187.136L152.117 187.682C152.526 186.489 153.685 185.466 155.697 185.466C157.606 185.466 158.651 186.443 158.651 188.159V188.227C158.651 189.409 157.413 189.466 154.333 189.795C150.947 190.159 147.708 191.17 147.708 195.102C147.708 198.534 150.219 200.352 153.549 200.352ZM154.617 197.33C152.901 197.33 151.674 196.545 151.674 195.034C151.674 193.455 153.049 192.795 154.89 192.534C155.969 192.386 158.128 192.114 158.663 191.682V193.739C158.663 195.682 157.094 197.33 154.617 197.33ZM174.115 200.341C178.501 200.341 181.297 197.739 181.592 194.034H177.66C177.308 195.909 175.956 196.989 174.149 196.989C171.581 196.989 169.922 194.841 169.922 191.273C169.922 187.75 171.615 185.636 174.149 185.636C176.126 185.636 177.342 186.909 177.66 188.591H181.592C181.308 184.807 178.353 182.318 174.092 182.318C168.978 182.318 165.751 186.011 165.751 191.341C165.751 196.625 168.899 200.341 174.115 200.341ZM183.334 185.92H188.982V200H192.959V185.92H198.607V182.545H183.334V185.92ZM201.482 206.545H205.596V197.25H205.766C206.414 198.523 207.766 200.307 210.766 200.307C214.88 200.307 217.96 197.045 217.96 191.295C217.96 185.477 214.789 182.318 210.755 182.318C207.676 182.318 206.391 184.17 205.766 185.432H205.528V182.545H201.482V206.545ZM205.516 191.273C205.516 187.886 206.971 185.693 209.619 185.693C212.357 185.693 213.766 188.023 213.766 191.273C213.766 194.545 212.335 196.932 209.619 196.932C206.994 196.932 205.516 194.659 205.516 191.273ZM228.696 200.341C233.81 200.341 237.06 196.739 237.06 191.341C237.06 185.932 233.81 182.318 228.696 182.318C223.582 182.318 220.332 185.932 220.332 191.341C220.332 196.739 223.582 200.341 228.696 200.341ZM228.719 197.045C225.889 197.045 224.503 194.523 224.503 191.33C224.503 188.136 225.889 185.58 228.719 185.58C231.503 185.58 232.889 188.136 232.889 191.33C232.889 194.523 231.503 197.045 228.719 197.045ZM244.117 194.432V182.545H240.151V200H244.39L251.356 188.102V200H255.333V182.545H251.106L244.117 194.432ZM249.981 176.545C249.969 177.659 249.333 178.648 247.731 178.648C246.106 178.648 245.492 177.636 245.492 176.545H242.435C242.424 179.205 244.481 181 247.731 181C251.003 181 253.06 179.205 253.06 176.545H249.981ZM259.157 200H263.271V193.42H265.282L270.066 200H275.044L268.51 191.114L274.976 182.545H270.021L264.771 189.591H263.271V182.545H259.157V200ZM280.942 194.432V182.545H276.976V200H281.215L288.181 188.102V200H292.158V182.545H287.931L280.942 194.432ZM302.315 200H303.588C307.338 200 309.031 197.364 309.304 191.545L309.577 185.92H314.588V200H318.565V182.545H305.838L305.531 190.273C305.338 195.17 304.702 196.614 302.895 196.614H302.293L302.315 200ZM330.035 200.341C334.103 200.341 336.898 198.352 337.626 195.318L333.785 194.886C333.228 196.364 331.864 197.136 330.091 197.136C327.432 197.136 325.671 195.386 325.637 192.398H337.796V191.136C337.796 185.011 334.114 182.318 329.819 182.318C324.819 182.318 321.557 185.989 321.557 191.375C321.557 196.852 324.773 200.341 330.035 200.341ZM325.648 189.625C325.773 187.398 327.421 185.523 329.876 185.523C332.239 185.523 333.83 187.25 333.853 189.625H325.648ZM344.842 182.545H340.876V200H344.842V192.943H351.603V200H355.558V182.545H351.603V189.568H344.842V182.545ZM357.774 205.068H361.82V200H373.24V205.068H377.218V196.614H374.513V182.545H361.899L361.399 188.659C361.07 192.568 360.638 195.466 359.161 196.614H357.774V205.068ZM363.388 196.614C364.49 194.989 364.899 192.352 365.195 188.659L365.468 185.864H370.581V196.614H363.388ZM383.855 194.432V182.545H379.889V200H384.127L391.093 188.102V200H395.07V182.545H390.843L383.855 194.432ZM402.861 182.545H398.895V200H402.861V192.943H409.622V200H413.577V182.545H409.622V189.568H402.861V182.545ZM428.884 182.545H417.339V200H421.361V185.92H428.884V182.545ZM436.086 200.352C438.825 200.352 440.461 199.068 441.211 197.602H441.348V200H445.302V188.318C445.302 183.705 441.541 182.318 438.211 182.318C434.541 182.318 431.723 183.955 430.814 187.136L434.655 187.682C435.064 186.489 436.223 185.466 438.234 185.466C440.143 185.466 441.189 186.443 441.189 188.159V188.227C441.189 189.409 439.95 189.466 436.87 189.795C433.484 190.159 430.245 191.17 430.245 195.102C430.245 198.534 432.757 200.352 436.086 200.352ZM437.155 197.33C435.439 197.33 434.211 196.545 434.211 195.034C434.211 193.455 435.586 192.795 437.427 192.534C438.507 192.386 440.666 192.114 441.2 191.682V193.739C441.2 195.682 439.632 197.33 437.155 197.33Z" fill="#1E1F20"/>
<rect x="124" y="105" width="38" height="38" rx="11" stroke="#E0E2E9" stroke-width="2"/>
<path d="M149.667 124.333V123.667C149.667 123.483 149.517 123.333 149.333 123.333H138.553L141.52 120.373C141.583 120.311 141.618 120.226 141.618 120.137C141.618 120.048 141.583 119.963 141.52 119.9L141.047 119.433C140.984 119.37 140.899 119.335 140.81 119.335C140.721 119.335 140.636 119.37 140.573 119.433L136.48 123.52C136.386 123.614 136.333 123.741 136.333 123.873V124.127C136.335 124.259 136.387 124.386 136.48 124.48L140.573 128.567C140.636 128.63 140.721 128.665 140.81 128.665C140.899 128.665 140.984 128.63 141.047 128.567L141.52 128.093C141.583 128.032 141.618 127.948 141.618 127.86C141.618 127.772 141.583 127.688 141.52 127.627L138.553 124.667H149.333C149.517 124.667 149.667 124.517 149.667 124.333Z" fill="#191D3A"/>
<rect x="123" y="260" width="24" height="4" rx="2" fill="#4578F9"/>
<path d="M124.409 250H125.818V244.795H132.023V250H133.432V238.364H132.023V243.545H125.818V238.364H124.409V250ZM138.239 250.205C139.762 250.205 140.557 249.386 140.83 248.818H140.898V250H142.239V244.25C142.239 241.477 140.126 241.159 139.012 241.159C137.694 241.159 136.194 241.614 135.512 243.205L136.785 243.659C137.08 243.023 137.779 242.341 139.057 242.341C140.29 242.341 140.898 242.994 140.898 244.114V244.159C140.898 244.807 140.239 244.75 138.648 244.955C137.029 245.165 135.262 245.523 135.262 247.523C135.262 249.227 136.58 250.205 138.239 250.205ZM138.444 249C137.376 249 136.603 248.523 136.603 247.591C136.603 246.568 137.535 246.25 138.58 246.114C139.148 246.045 140.671 245.886 140.898 245.614V246.841C140.898 247.932 140.035 249 138.444 249ZM143.741 247.773C143.787 249.205 145.156 250.182 147.014 250.182C148.923 250.182 150.309 249.159 150.309 247.568C150.309 246.477 149.656 245.591 148.673 245.523V245.432C149.503 245.176 150.128 244.574 150.128 243.591C150.128 242.21 148.946 241.159 147.105 241.159C145.287 241.159 143.991 242.159 143.946 243.568H145.355C145.395 242.847 146.15 242.341 147.173 242.341C148.19 242.341 148.764 242.858 148.764 243.636C148.764 244.364 148.264 244.909 147.196 244.909H145.696V246.114H147.196C148.264 246.114 148.946 246.699 148.946 247.568C148.946 248.562 148.065 248.977 146.991 248.977C145.94 248.977 145.236 248.562 145.173 247.773H143.741ZM151.793 250H155.907C157.679 250 158.747 249 158.747 247.659C158.747 246.29 157.708 245.551 156.747 245.409C157.73 245.205 158.429 244.653 158.429 243.591C158.429 242.199 157.236 241.273 155.361 241.273H151.793V250ZM153.066 248.773V246.091H155.907C156.827 246.091 157.384 246.642 157.384 247.545C157.384 248.307 156.827 248.773 155.907 248.773H153.066ZM153.066 244.932V242.5H155.361C156.435 242.5 157.088 242.949 157.088 243.682C157.088 244.46 156.435 244.932 155.361 244.932H153.066ZM162.945 250.205C164.468 250.205 165.264 249.386 165.536 248.818H165.605V250H166.945V244.25C166.945 241.477 164.832 241.159 163.718 241.159C162.4 241.159 160.9 241.614 160.218 243.205L161.491 243.659C161.786 243.023 162.485 242.341 163.764 242.341C164.997 242.341 165.605 242.994 165.605 244.114V244.159C165.605 244.807 164.945 244.75 163.355 244.955C161.735 245.165 159.968 245.523 159.968 247.523C159.968 249.227 161.286 250.205 162.945 250.205ZM163.15 249C162.082 249 161.309 248.523 161.309 247.591C161.309 246.568 162.241 246.25 163.286 246.114C163.855 246.045 165.377 245.886 165.605 245.614V246.841C165.605 247.932 164.741 249 163.15 249ZM170.334 241.273H168.993V250H170.334V246.273H174.516V250H175.857V241.273H174.516V245.023H170.334V241.273ZM179.246 248.023V241.273H177.905V250H179.474L183.655 243.25V250H184.996V241.273H183.451L179.246 248.023ZM190.711 250.182C192.484 250.182 193.78 249.295 194.189 247.977L192.893 247.614C192.552 248.523 191.763 248.977 190.711 248.977C189.138 248.977 188.052 247.96 187.99 246.091H194.325V245.523C194.325 242.273 192.393 241.159 190.575 241.159C188.211 241.159 186.643 243.023 186.643 245.705C186.643 248.386 188.189 250.182 190.711 250.182ZM187.99 244.932C188.081 243.574 189.041 242.364 190.575 242.364C192.03 242.364 192.961 243.455 192.961 244.932H187.99ZM201.406 248.023V241.273H200.065V250H201.633L205.815 243.25V250H207.156V241.273H205.61L201.406 248.023ZM219.857 241.273H221.221C221.158 239.517 219.539 238.205 217.289 238.205C215.062 238.205 213.312 239.5 213.312 241.455C213.312 243.023 214.448 243.955 216.266 244.477L217.698 244.886C218.925 245.227 220.016 245.659 220.016 246.818C220.016 248.091 218.789 248.932 217.175 248.932C215.789 248.932 214.562 248.318 214.448 247H212.993C213.13 248.909 214.675 250.205 217.175 250.205C219.857 250.205 221.38 248.727 221.38 246.841C221.38 244.659 219.312 243.955 218.107 243.636L216.925 243.318C216.062 243.091 214.675 242.636 214.675 241.386C214.675 240.273 215.698 239.455 217.243 239.455C218.653 239.455 219.721 240.125 219.857 241.273ZM223.297 250H230.41V248.75H224.706V244.795H229.956V243.545H224.706V239.614H230.319V238.364H223.297V250ZM242.277 244.182C242.277 240.5 240.118 238.205 237.141 238.205C234.164 238.205 232.005 240.5 232.005 244.182C232.005 247.864 234.164 250.159 237.141 250.159C240.118 250.159 242.277 247.864 242.277 244.182ZM240.914 244.182C240.914 247.205 239.255 248.841 237.141 248.841C235.027 248.841 233.368 247.205 233.368 244.182C233.368 241.159 235.027 239.523 237.141 239.523C239.255 239.523 240.914 241.159 240.914 244.182Z" fill="#191D3A"/>
<path d="M285.886 250L287.057 246.705H291.761L292.932 250H294.409L290.136 238.364H288.682L284.409 250H285.886ZM287.5 245.455L289.364 240.205H289.455L291.318 245.455H287.5ZM296.981 241.273H295.64V250H296.981V246.273H301.163V250H302.503V241.273H301.163V245.023H296.981V241.273ZM307.12 250.205C308.643 250.205 309.439 249.386 309.711 248.818H309.78V250H311.12V244.25C311.12 241.477 309.007 241.159 307.893 241.159C306.575 241.159 305.075 241.614 304.393 243.205L305.666 243.659C305.961 243.023 306.66 242.341 307.939 242.341C309.172 242.341 309.78 242.994 309.78 244.114V244.159C309.78 244.807 309.12 244.75 307.53 244.955C305.91 245.165 304.143 245.523 304.143 247.523C304.143 249.227 305.461 250.205 307.12 250.205ZM307.325 249C306.257 249 305.484 248.523 305.484 247.591C305.484 246.568 306.416 246.25 307.461 246.114C308.03 246.045 309.552 245.886 309.78 245.614V246.841C309.78 247.932 308.916 249 307.325 249ZM312.395 250H312.85C314.782 250 315.338 248.5 315.463 245.636L315.6 242.523H318.804V250H320.145V241.273H314.327L314.168 245.136C314.054 248.068 313.759 248.75 312.713 248.75H312.395V250ZM323.546 248.023V241.273H322.205V250H323.774L327.955 243.25V250H329.296V241.273H327.751L323.546 248.023ZM330.165 242.523H333.051V250H334.392V242.523H337.256V241.273H330.165V242.523ZM340.153 248.023V241.273H338.812V250H340.38L344.562 243.25V250H345.903V241.273H344.357L340.153 248.023ZM347.959 250H349.299V246.318H350.504L353.368 250H355.095L351.527 245.477L355.049 241.273H353.322L350.186 245.068H349.299V241.273H347.959V250ZM358.72 250.205C360.243 250.205 361.039 249.386 361.311 248.818H361.38V250H362.72V244.25C362.72 241.477 360.607 241.159 359.493 241.159C358.175 241.159 356.675 241.614 355.993 243.205L357.266 243.659C357.561 243.023 358.26 242.341 359.539 242.341C360.772 242.341 361.38 242.994 361.38 244.114V244.159C361.38 244.807 360.72 244.75 359.13 244.955C357.51 245.165 355.743 245.523 355.743 247.523C355.743 249.227 357.061 250.205 358.72 250.205ZM358.925 249C357.857 249 357.084 248.523 357.084 247.591C357.084 246.568 358.016 246.25 359.061 246.114C359.63 246.045 361.152 245.886 361.38 245.614V246.841C361.38 247.932 360.516 249 358.925 249Z" fill="#757789"/>
<path d="M414.114 238.364H405.432V250H406.841V239.614H412.705V250H414.114V238.364ZM415.601 250H416.056C417.988 250 418.545 248.5 418.67 245.636L418.806 242.523H422.011V250H423.351V241.273H417.533L417.374 245.136C417.261 248.068 416.965 248.75 415.92 248.75H415.601V250ZM427.98 250.205C429.503 250.205 430.298 249.386 430.571 248.818H430.639V250H431.98V244.25C431.98 241.477 429.866 241.159 428.753 241.159C427.434 241.159 425.934 241.614 425.253 243.205L426.525 243.659C426.821 243.023 427.52 242.341 428.798 242.341C430.031 242.341 430.639 242.994 430.639 244.114V244.159C430.639 244.807 429.98 244.75 428.389 244.955C426.77 245.165 425.003 245.523 425.003 247.523C425.003 249.227 426.321 250.205 427.98 250.205ZM428.184 249C427.116 249 426.343 248.523 426.343 247.591C426.343 246.568 427.275 246.25 428.321 246.114C428.889 246.045 430.412 245.886 430.639 245.614V246.841C430.639 247.932 429.775 249 428.184 249ZM432.84 242.523H435.726V250H437.067V242.523H439.931V241.273H432.84V242.523ZM444.693 250.182C446.465 250.182 447.761 249.295 448.17 247.977L446.874 247.614C446.534 248.523 445.744 248.977 444.693 248.977C443.119 248.977 442.034 247.96 441.971 246.091H448.306V245.523C448.306 242.273 446.374 241.159 444.556 241.159C442.193 241.159 440.624 243.023 440.624 245.705C440.624 248.386 442.17 250.182 444.693 250.182ZM441.971 244.932C442.062 243.574 443.022 242.364 444.556 242.364C446.011 242.364 446.943 243.455 446.943 244.932H441.971ZM449.166 250H450.78L453.757 246.25H454.439V250H455.78V246.25H456.462L459.416 250H461.03L457.507 245.568L460.984 241.273H459.393L456.484 245H455.78V241.273H454.439V245H453.712L450.803 241.273H449.212L452.712 245.568L449.166 250ZM463.887 248.023V241.273H462.546V250H464.114L468.296 243.25V250H469.637V241.273H468.091L463.887 248.023Z" fill="#757789"/>
<g filter="url(#filter0_d)">
<rect x="123" y="288" width="1120" height="472" rx="24" fill="white"/>
</g>
<path d="M162.219 703H163.69L159.435 697.293L163.551 692.818H162.08L158.003 697.233H157.466V692.818H156.233V703H157.466V698.327H158.719L162.219 703ZM164.925 705.864H166.098V701.827H166.197C166.456 702.244 166.953 703.159 168.425 703.159C170.334 703.159 171.666 701.628 171.666 699.202C171.666 696.795 170.334 695.264 168.405 695.264C166.913 695.264 166.456 696.179 166.197 696.577H166.058V695.364H164.925V705.864ZM166.078 699.182C166.078 697.472 166.834 696.318 168.266 696.318C169.757 696.318 170.493 697.571 170.493 699.182C170.493 700.812 169.737 702.105 168.266 702.105C166.854 702.105 166.078 700.912 166.078 699.182ZM175.503 703.179C176.835 703.179 177.531 702.463 177.77 701.966H177.83V703H179.003V697.969C179.003 695.543 177.154 695.264 176.179 695.264C175.026 695.264 173.713 695.662 173.117 697.054L174.23 697.452C174.489 696.895 175.1 696.298 176.219 696.298C177.298 696.298 177.83 696.87 177.83 697.849V697.889C177.83 698.456 177.253 698.406 175.861 698.585C174.444 698.769 172.898 699.082 172.898 700.832C172.898 702.324 174.051 703.179 175.503 703.179ZM175.682 702.125C174.747 702.125 174.071 701.707 174.071 700.892C174.071 699.997 174.887 699.719 175.801 699.599C176.299 699.54 177.631 699.401 177.83 699.162V700.236C177.83 701.19 177.074 702.125 175.682 702.125ZM179.906 696.457H182.431V703H183.604V696.457H186.11V695.364H179.906V696.457ZM187.622 703H188.795V699.778H189.849L192.354 703H193.866L190.744 699.043L193.826 695.364H192.315L189.57 698.685H188.795V695.364H187.622V703ZM197.729 703.159C199.797 703.159 201.189 701.588 201.189 699.222C201.189 696.835 199.797 695.264 197.729 695.264C195.661 695.264 194.269 696.835 194.269 699.222C194.269 701.588 195.661 703.159 197.729 703.159ZM197.729 702.105C196.158 702.105 195.442 700.753 195.442 699.222C195.442 697.69 196.158 696.318 197.729 696.318C199.3 696.318 200.016 697.69 200.016 699.222C200.016 700.753 199.3 702.105 197.729 702.105ZM209.62 703.159C211.688 703.159 213.08 701.588 213.08 699.222C213.08 696.835 211.688 695.264 209.62 695.264C207.552 695.264 206.16 696.835 206.16 699.222C206.16 701.588 207.552 703.159 209.62 703.159ZM209.62 702.105C208.049 702.105 207.333 700.753 207.333 699.222C207.333 697.69 208.049 696.318 209.62 696.318C211.191 696.318 211.907 697.69 211.907 699.222C211.907 700.753 211.191 702.105 209.62 702.105ZM214.671 703H215.844V696.457H219.504V703H220.677V695.364H214.671V703ZM223.793 701.27V695.364H222.62V703H223.992L227.651 697.094V703H228.824V695.364H227.472L223.793 701.27ZM230.773 695.364V703H240.06V695.364H238.887V701.906H236.003V695.364H234.83V701.906H231.946V695.364H230.773ZM243.176 701.27V695.364H242.003V703H243.375L247.034 697.094V703H248.207V695.364H246.855L243.176 701.27ZM249.117 696.457H251.643V703H252.816V696.457H255.322V695.364H249.117V696.457ZM259.638 703.159C261.19 703.159 262.323 702.384 262.681 701.23L261.548 700.912C261.249 701.707 260.558 702.105 259.638 702.105C258.261 702.105 257.312 701.215 257.257 699.58H262.8V699.082C262.8 696.239 261.11 695.264 259.519 695.264C257.451 695.264 256.079 696.895 256.079 699.241C256.079 701.588 257.431 703.159 259.638 703.159ZM257.257 698.565C257.337 697.377 258.177 696.318 259.519 696.318C260.792 696.318 261.607 697.273 261.607 698.565H257.257ZM266.135 701.608H264.862L264.803 702.165C264.659 703.512 264.375 704.854 264.246 705.486H265.141C265.38 704.81 265.887 703.278 266.056 702.145L266.135 701.608ZM277.733 695.364H276.56V699.237C275.993 699.401 275.411 699.5 274.71 699.5C273.756 699.5 273.02 698.963 273.02 697.79V695.344H271.847V697.79C271.847 699.659 272.98 700.594 274.71 700.594C275.431 700.594 276.008 700.499 276.56 700.335V703H277.733V695.364ZM278.647 696.457H281.172V703H282.345V696.457H284.851V695.364H278.647V696.457ZM289.068 703.159C291.136 703.159 292.529 701.588 292.529 699.222C292.529 696.835 291.136 695.264 289.068 695.264C287 695.264 285.608 696.835 285.608 699.222C285.608 701.588 287 703.159 289.068 703.159ZM289.068 702.105C287.497 702.105 286.781 700.753 286.781 699.222C286.781 697.69 287.497 696.318 289.068 696.318C290.639 696.318 291.355 697.69 291.355 699.222C291.355 700.753 290.639 702.105 289.068 702.105ZM303.525 692.5C303.152 692.813 302.595 692.813 301.814 692.808C301.561 692.808 301.282 692.808 300.979 692.818C298.653 692.878 297.499 694.648 297.499 698.048V698.864C297.499 701.688 298.871 703.159 300.92 703.159C302.963 703.159 304.32 701.678 304.32 699.281C304.32 696.875 302.943 695.602 301.158 695.602C300.109 695.602 299.13 696.04 298.613 696.994H298.513C298.672 695.026 299.408 693.972 300.999 693.912C302.411 693.852 303.425 693.892 304.121 693.216L303.525 692.5ZM300.92 702.105C299.528 702.105 298.672 700.991 298.672 699.281C298.697 697.611 299.537 696.656 300.9 696.656C302.297 696.656 303.147 697.611 303.147 699.281C303.147 701.001 302.302 702.105 300.92 702.105ZM306.671 705.864C307.73 705.864 308.475 705.302 308.918 704.114L312.169 695.384L310.886 695.364L308.779 701.449H308.699L306.591 695.364H305.318L308.142 703.04L307.923 703.636C307.496 704.8 306.969 704.909 306.114 704.69L305.815 705.724C305.935 705.784 306.273 705.864 306.671 705.864ZM312.064 705.188H313.237V703H318.885V705.188H320.058V701.906H318.885V695.364H314.032L313.774 698.386C313.59 700.524 313.316 701.26 312.7 701.906H312.064V705.188ZM314.032 701.906C314.569 701.2 314.763 699.982 314.927 698.386L315.126 696.457H317.711V701.906H314.032ZM324.617 703.159C326.168 703.159 327.302 702.384 327.66 701.23L326.526 700.912C326.228 701.707 325.537 702.105 324.617 702.105C323.24 702.105 322.29 701.215 322.236 699.58H327.779V699.082C327.779 696.239 326.089 695.264 324.498 695.264C322.429 695.264 321.057 696.895 321.057 699.241C321.057 701.588 322.41 703.159 324.617 703.159ZM322.236 698.565C322.315 697.377 323.155 696.318 324.498 696.318C325.77 696.318 326.586 697.273 326.586 698.565H322.236ZM328.653 696.457H331.178V703H332.352V696.457H334.857V695.364H328.653V696.457ZM341.28 695.364H340.106V703H341.28V699.739H344.939V703H346.112V695.364H344.939V698.645H341.28V695.364ZM350.302 703.179C351.634 703.179 352.33 702.463 352.569 701.966H352.629V703H353.802V697.969C353.802 695.543 351.952 695.264 350.978 695.264C349.825 695.264 348.512 695.662 347.916 697.054L349.029 697.452C349.288 696.895 349.899 696.298 351.018 696.298C352.097 696.298 352.629 696.87 352.629 697.849V697.889C352.629 698.456 352.052 698.406 350.66 698.585C349.243 698.769 347.697 699.082 347.697 700.832C347.697 702.324 348.85 703.179 350.302 703.179ZM350.481 702.125C349.546 702.125 348.87 701.707 348.87 700.892C348.87 699.997 349.685 699.719 350.6 699.599C351.097 699.54 352.43 699.401 352.629 699.162V700.236C352.629 701.19 351.873 702.125 350.481 702.125ZM362.583 703.159C364.274 703.159 365.387 702.125 365.586 700.773H364.413C364.194 701.608 363.498 702.105 362.583 702.105C361.191 702.105 360.296 700.952 360.296 699.182C360.296 697.452 361.211 696.318 362.583 696.318C363.617 696.318 364.234 696.955 364.413 697.651H365.586C365.387 696.219 364.174 695.264 362.563 695.264C360.495 695.264 359.123 696.895 359.123 699.222C359.123 701.509 360.435 703.159 362.583 703.159ZM366.5 696.457H369.025V703H370.199V696.457H372.704V695.364H366.5V696.457ZM374.216 705.864H375.389V701.827H375.488C375.747 702.244 376.244 703.159 377.716 703.159C379.625 703.159 380.957 701.628 380.957 699.202C380.957 696.795 379.625 695.264 377.696 695.264C376.204 695.264 375.747 696.179 375.488 696.577H375.349V695.364H374.216V705.864ZM375.369 699.182C375.369 697.472 376.125 696.318 377.557 696.318C379.048 696.318 379.784 697.571 379.784 699.182C379.784 700.812 379.028 702.105 377.557 702.105C376.145 702.105 375.369 700.912 375.369 699.182ZM384.794 703.179C386.126 703.179 386.822 702.463 387.061 701.966H387.121V703H388.294V697.969C388.294 695.543 386.445 695.264 385.47 695.264C384.317 695.264 383.004 695.662 382.408 697.054L383.521 697.452C383.78 696.895 384.391 696.298 385.51 696.298C386.589 696.298 387.121 696.87 387.121 697.849V697.889C387.121 698.456 386.544 698.406 385.152 698.585C383.735 698.769 382.189 699.082 382.189 700.832C382.189 702.324 383.342 703.179 384.794 703.179ZM384.973 702.125C384.038 702.125 383.362 701.707 383.362 700.892C383.362 699.997 384.178 699.719 385.092 699.599C385.59 699.54 386.922 699.401 387.121 699.162V700.236C387.121 701.19 386.365 702.125 384.973 702.125ZM391.409 695.364H390.236V703H391.409V699.739H395.068V703H396.241V695.364H395.068V698.645H391.409V695.364ZM399.357 701.27V695.364H398.184V703H399.556L403.215 697.094V703H404.389V695.364H403.036L399.357 701.27ZM412.343 695.364H411.17V701.906H407.511V695.364H406.338V703H412.244V705.466H413.417V701.906H412.343V695.364ZM418.144 703.159C419.695 703.159 420.829 702.384 421.187 701.23L420.053 700.912C419.755 701.707 419.064 702.105 418.144 702.105C416.767 702.105 415.817 701.215 415.763 699.58H421.306V699.082C421.306 696.239 419.616 695.264 418.025 695.264C415.956 695.264 414.584 696.895 414.584 699.241C414.584 701.588 415.937 703.159 418.144 703.159ZM415.763 698.565C415.842 697.377 416.682 696.318 418.025 696.318C419.297 696.318 420.113 697.273 420.113 698.565H415.763ZM423.746 703.08C424.238 703.08 424.641 702.677 424.641 702.185C424.641 701.692 424.238 701.29 423.746 701.29C423.254 701.29 422.851 701.692 422.851 702.185C422.851 702.677 423.254 703.08 423.746 703.08ZM429.886 693.912H433.088V703H434.321V693.912H437.522V692.818H429.886V693.912ZM441.16 703.159C442.711 703.159 443.845 702.384 444.203 701.23L443.069 700.912C442.771 701.707 442.08 702.105 441.16 702.105C439.783 702.105 438.834 701.215 438.779 699.58H444.322V699.082C444.322 696.239 442.632 695.264 441.041 695.264C438.973 695.264 437.601 696.895 437.601 699.241C437.601 701.588 438.953 703.159 441.16 703.159ZM438.779 698.565C438.858 697.377 439.699 696.318 441.041 696.318C442.314 696.318 443.129 697.273 443.129 698.565H438.779ZM445.907 703H447.08V699.778H448.134L450.64 703H452.151L449.029 699.043L452.112 695.364H450.6L447.856 698.685H447.08V695.364H445.907V703ZM456.014 703.159C457.705 703.159 458.818 702.125 459.017 700.773H457.844C457.625 701.608 456.929 702.105 456.014 702.105C454.622 702.105 453.727 700.952 453.727 699.182C453.727 697.452 454.642 696.318 456.014 696.318C457.049 696.318 457.665 696.955 457.844 697.651H459.017C458.818 696.219 457.605 695.264 455.995 695.264C453.926 695.264 452.554 696.895 452.554 699.222C452.554 701.509 453.867 703.159 456.014 703.159ZM459.931 696.457H462.456V703H463.63V696.457H466.135V695.364H459.931V696.457ZM471.384 703H472.558V696.457H476.217V703H477.39V695.364H471.384V703ZM482.435 703.159C484.503 703.159 485.895 701.588 485.895 699.222C485.895 696.835 484.503 695.264 482.435 695.264C480.367 695.264 478.975 696.835 478.975 699.222C478.975 701.588 480.367 703.159 482.435 703.159ZM482.435 702.105C480.864 702.105 480.148 700.753 480.148 699.222C480.148 697.69 480.864 696.318 482.435 696.318C484.006 696.318 484.722 697.69 484.722 699.222C484.722 700.753 484.006 702.105 482.435 702.105ZM492.08 703H493.194V695.364H490.052C488.406 695.364 487.407 696.224 487.407 697.631C487.407 698.68 487.934 699.425 488.854 699.739L486.989 703H488.262L490.032 699.898H492.08V703ZM492.08 698.804H489.913C489.082 698.804 488.58 698.362 488.58 697.631C488.58 696.89 489.137 696.438 490.052 696.438H492.08V698.804ZM495.148 703H498.747C500.298 703 501.233 702.125 501.233 700.952C501.233 699.754 500.323 699.107 499.483 698.983C500.343 698.804 500.955 698.322 500.955 697.392C500.955 696.174 499.91 695.364 498.27 695.364H495.148V703ZM496.261 701.926V699.58H498.747C499.553 699.58 500.04 700.062 500.04 700.852C500.04 701.518 499.553 701.926 498.747 701.926H496.261ZM496.261 698.565V696.438H498.27C499.209 696.438 499.781 696.83 499.781 697.472C499.781 698.153 499.209 698.565 498.27 698.565H496.261ZM503.982 701.27V695.364H502.809V703H504.181L507.84 697.094V703H509.014V695.364H507.661L503.982 701.27ZM509.923 696.457H512.449V703H513.622V696.457H516.128V695.364H509.923V696.457ZM520.345 703.159C522.036 703.159 523.149 702.125 523.348 700.773H522.175C521.956 701.608 521.26 702.105 520.345 702.105C518.953 702.105 518.058 700.952 518.058 699.182C518.058 697.452 518.973 696.318 520.345 696.318C521.379 696.318 521.996 696.955 522.175 697.651H523.348C523.149 696.219 521.936 695.264 520.325 695.264C518.257 695.264 516.885 696.895 516.885 699.222C516.885 701.509 518.198 703.159 520.345 703.159ZM529.457 703H530.571V695.364H527.429C525.783 695.364 524.784 696.224 524.784 697.631C524.784 698.68 525.311 699.425 526.231 699.739L524.366 703H525.639L527.409 699.898H529.457V703ZM529.457 698.804H527.289C526.459 698.804 525.957 698.362 525.957 697.631C525.957 696.89 526.514 696.438 527.429 696.438H529.457V698.804ZM537.435 695.364H536.262V703H537.435V699.739H541.095V703H542.268V695.364H541.095V698.645H537.435V695.364ZM546.458 703.179C547.79 703.179 548.486 702.463 548.725 701.966H548.784V703H549.958V697.969C549.958 695.543 548.108 695.264 547.134 695.264C545.98 695.264 544.668 695.662 544.071 697.054L545.185 697.452C545.444 696.895 546.055 696.298 547.174 696.298C548.252 696.298 548.784 696.87 548.784 697.849V697.889C548.784 698.456 548.208 698.406 546.816 698.585C545.399 698.769 543.853 699.082 543.853 700.832C543.853 702.324 545.006 703.179 546.458 703.179ZM546.637 702.125C545.702 702.125 545.026 701.707 545.026 700.892C545.026 699.997 545.841 699.719 546.756 699.599C547.253 699.54 548.586 699.401 548.784 699.162V700.236C548.784 701.19 548.029 702.125 546.637 702.125ZM558.739 703.159C560.429 703.159 561.543 702.125 561.742 700.773H560.569C560.35 701.608 559.654 702.105 558.739 702.105C557.347 702.105 556.452 700.952 556.452 699.182C556.452 697.452 557.367 696.318 558.739 696.318C559.773 696.318 560.39 696.955 560.569 697.651H561.742C561.543 696.219 560.33 695.264 558.719 695.264C556.651 695.264 555.279 696.895 555.279 699.222C555.279 701.509 556.591 703.159 558.739 703.159ZM562.655 696.457H565.181V703H566.354V696.457H568.86V695.364H562.655V696.457ZM570.372 705.864H571.545V701.827H571.644C571.903 702.244 572.4 703.159 573.872 703.159C575.781 703.159 577.113 701.628 577.113 699.202C577.113 696.795 575.781 695.264 573.852 695.264C572.36 695.264 571.903 696.179 571.644 696.577H571.505V695.364H570.372V705.864ZM571.525 699.182C571.525 697.472 572.281 696.318 573.712 696.318C575.204 696.318 575.94 697.571 575.94 699.182C575.94 700.812 575.184 702.105 573.712 702.105C572.301 702.105 571.525 700.912 571.525 699.182ZM580.95 703.179C582.282 703.179 582.978 702.463 583.217 701.966H583.277V703H584.45V697.969C584.45 695.543 582.6 695.264 581.626 695.264C580.473 695.264 579.16 695.662 578.564 697.054L579.677 697.452C579.936 696.895 580.547 696.298 581.666 696.298C582.745 696.298 583.277 696.87 583.277 697.849V697.889C583.277 698.456 582.7 698.406 581.308 698.585C579.891 698.769 578.345 699.082 578.345 700.832C578.345 702.324 579.498 703.179 580.95 703.179ZM581.129 702.125C580.194 702.125 579.518 701.707 579.518 700.892C579.518 699.997 580.333 699.719 581.248 699.599C581.745 699.54 583.078 699.401 583.277 699.162V700.236C583.277 701.19 582.521 702.125 581.129 702.125ZM587.565 695.364H586.391V703H587.565V699.739H591.224V703H592.397V695.364H591.224V698.645H587.565V695.364ZM595.513 701.27V695.364H594.34V703H595.712L599.371 697.094V703H600.544V695.364H599.192L595.513 701.27ZM608.499 695.364H607.326V701.906H603.667V695.364H602.493V703H608.4V705.466H609.573V701.906H608.499V695.364ZM614.3 703.159C615.851 703.159 616.984 702.384 617.342 701.23L616.209 700.912C615.911 701.707 615.22 702.105 614.3 702.105C612.923 702.105 611.973 701.215 611.918 699.58H617.462V699.082C617.462 696.239 615.771 695.264 614.18 695.264C612.112 695.264 610.74 696.895 610.74 699.241C610.74 701.588 612.092 703.159 614.3 703.159ZM611.918 698.565C611.998 697.377 612.838 696.318 614.18 696.318C615.453 696.318 616.269 697.273 616.269 698.565H611.918ZM156.074 725.864H157.247V721.827H157.347C157.605 722.244 158.102 723.159 159.574 723.159C161.483 723.159 162.815 721.628 162.815 719.202C162.815 716.795 161.483 715.264 159.554 715.264C158.062 715.264 157.605 716.179 157.347 716.577H157.207V715.364H156.074V725.864ZM157.227 719.182C157.227 717.472 157.983 716.318 159.415 716.318C160.906 716.318 161.642 717.571 161.642 719.182C161.642 720.812 160.886 722.105 159.415 722.105C158.003 722.105 157.227 720.912 157.227 719.182ZM167.607 723.159C169.158 723.159 170.291 722.384 170.649 721.23L169.516 720.912C169.218 721.707 168.527 722.105 167.607 722.105C166.23 722.105 165.28 721.215 165.225 719.58H170.769V719.082C170.769 716.239 169.078 715.264 167.488 715.264C165.419 715.264 164.047 716.895 164.047 719.241C164.047 721.588 165.399 723.159 167.607 723.159ZM165.225 718.565C165.305 717.377 166.145 716.318 167.488 716.318C168.76 716.318 169.576 717.273 169.576 718.565H165.225ZM171.876 721.051C171.916 722.304 173.114 723.159 174.74 723.159C176.41 723.159 177.623 722.264 177.623 720.872C177.623 719.918 177.052 719.142 176.192 719.082V719.003C176.917 718.779 177.464 718.252 177.464 717.392C177.464 716.184 176.43 715.264 174.819 715.264C173.229 715.264 172.095 716.139 172.055 717.372H173.288C173.323 716.741 173.984 716.298 174.879 716.298C175.769 716.298 176.271 716.751 176.271 717.432C176.271 718.068 175.834 718.545 174.899 718.545H173.587V719.599H174.899C175.834 719.599 176.43 720.112 176.43 720.872C176.43 721.742 175.66 722.105 174.72 722.105C173.8 722.105 173.184 721.742 173.129 721.051H171.876ZM179.827 725.864C180.886 725.864 181.632 725.302 182.074 724.114L185.326 715.384L184.043 715.364L181.935 721.449H181.856L179.748 715.364H178.475L181.299 723.04L181.08 723.636C180.652 724.8 180.125 724.909 179.27 724.69L178.972 725.724C179.091 725.784 179.429 725.864 179.827 725.864ZM185.359 723H185.757C187.448 723 187.935 721.688 188.044 719.182L188.163 716.457H190.967V723H192.141V715.364H187.05L186.911 718.744C186.811 721.31 186.553 721.906 185.638 721.906H185.359V723ZM195.267 718.128V715.364H194.093V723H197.295C199.085 723 200.059 721.906 200.059 720.534C200.059 719.142 199.085 718.128 197.295 718.128H195.267ZM195.267 719.222H197.295C198.225 719.222 198.886 719.788 198.886 720.594C198.886 721.364 198.225 721.906 197.295 721.906H195.267V719.222ZM200.415 716.457H202.94V723H204.114V716.457H206.619V715.364H200.415V716.457ZM209.982 723.179C211.314 723.179 212.01 722.463 212.249 721.966H212.308V723H213.482V717.969C213.482 715.543 211.632 715.264 210.658 715.264C209.504 715.264 208.192 715.662 207.595 717.054L208.709 717.452C208.967 716.895 209.579 716.298 210.697 716.298C211.776 716.298 212.308 716.87 212.308 717.849V717.889C212.308 718.456 211.732 718.406 210.34 718.585C208.923 718.769 207.376 719.082 207.376 720.832C207.376 722.324 208.53 723.179 209.982 723.179ZM210.161 722.125C209.226 722.125 208.55 721.707 208.55 720.892C208.55 719.997 209.365 719.719 210.28 719.599C210.777 719.54 212.109 719.401 212.308 719.162V720.236C212.308 721.19 211.553 722.125 210.161 722.125ZM214.384 716.457H216.91V723H218.083V716.457H220.589V715.364H214.384V716.457ZM224.806 723.159C226.874 723.159 228.266 721.588 228.266 719.222C228.266 716.835 226.874 715.264 224.806 715.264C222.738 715.264 221.346 716.835 221.346 719.222C221.346 721.588 222.738 723.159 224.806 723.159ZM224.806 722.105C223.235 722.105 222.519 720.753 222.519 719.222C222.519 717.69 223.235 716.318 224.806 716.318C226.377 716.318 227.093 717.69 227.093 719.222C227.093 720.753 226.377 722.105 224.806 722.105ZM229.857 723H233.456C235.008 723 235.942 722.125 235.942 720.952C235.942 719.754 235.032 719.107 234.192 718.983C235.052 718.804 235.664 718.322 235.664 717.392C235.664 716.174 234.62 715.364 232.979 715.364H229.857V723ZM230.971 721.926V719.58H233.456C234.262 719.58 234.749 720.062 234.749 720.852C234.749 721.518 234.262 721.926 233.456 721.926H230.971ZM230.971 718.565V716.438H232.979C233.919 716.438 234.491 716.83 234.491 717.472C234.491 718.153 233.919 718.565 232.979 718.565H230.971ZM241.256 723H242.429V716.457H246.088V723H247.262V715.364H241.256V723ZM252.307 723.159C254.375 723.159 255.767 721.588 255.767 719.222C255.767 716.835 254.375 715.264 252.307 715.264C250.238 715.264 248.846 716.835 248.846 719.222C248.846 721.588 250.238 723.159 252.307 723.159ZM252.307 722.105C250.736 722.105 250.02 720.753 250.02 719.222C250.02 717.69 250.736 716.318 252.307 716.318C253.878 716.318 254.594 717.69 254.594 719.222C254.594 720.753 253.878 722.105 252.307 722.105ZM256.543 725.188H257.716V723H263.364V725.188H264.537V721.906H263.364V715.364H258.511L258.253 718.386C258.069 720.524 257.795 721.26 257.179 721.906H256.543V725.188ZM258.511 721.906C259.048 721.2 259.242 719.982 259.406 718.386L259.605 716.457H262.19V721.906H258.511ZM272.734 723.159C274.424 723.159 275.538 722.125 275.737 720.773H274.563C274.345 721.608 273.649 722.105 272.734 722.105C271.342 722.105 270.447 720.952 270.447 719.182C270.447 717.452 271.362 716.318 272.734 716.318C273.768 716.318 274.385 716.955 274.563 717.651H275.737C275.538 716.219 274.325 715.264 272.714 715.264C270.646 715.264 269.274 716.895 269.274 719.222C269.274 721.509 270.586 723.159 272.734 723.159ZM280.354 723.159C282.045 723.159 283.158 722.125 283.357 720.773H282.184C281.965 721.608 281.269 722.105 280.354 722.105C278.962 722.105 278.067 720.952 278.067 719.182C278.067 717.452 278.982 716.318 280.354 716.318C281.388 716.318 282.005 716.955 282.184 717.651H283.357C283.158 716.219 281.945 715.264 280.334 715.264C278.266 715.264 276.894 716.895 276.894 719.222C276.894 721.509 278.207 723.159 280.354 723.159ZM286.046 718.128V715.364H284.872V723H288.074C289.864 723 290.838 721.906 290.838 720.534C290.838 719.142 289.864 718.128 288.074 718.128H286.046ZM292.051 723H293.225V715.364H292.051V723ZM286.046 719.222H288.074C289.004 719.222 289.665 719.788 289.665 720.594C289.665 721.364 289.004 721.906 288.074 721.906H286.046V719.222ZM294.496 723H294.894C296.584 723 297.071 721.688 297.181 719.182L297.3 716.457H300.104V723H301.277V715.364H296.187L296.047 718.744C295.948 721.31 295.689 721.906 294.775 721.906H294.496V723ZM303.23 723H304.403V719.778H305.457L307.963 723H309.474L306.352 719.043L309.435 715.364H307.923L305.179 718.685H304.403V715.364H303.23V723ZM313.337 723.159C315.406 723.159 316.798 721.588 316.798 719.222C316.798 716.835 315.406 715.264 313.337 715.264C311.269 715.264 309.877 716.835 309.877 719.222C309.877 721.588 311.269 723.159 313.337 723.159ZM313.337 722.105C311.766 722.105 311.051 720.753 311.051 719.222C311.051 717.69 311.766 716.318 313.337 716.318C314.908 716.318 315.624 717.69 315.624 719.222C315.624 720.753 314.908 722.105 313.337 722.105ZM319.562 721.27V715.364H318.389V723H319.761L323.42 717.094V723H324.593V715.364H323.241L319.562 721.27ZM322.465 712.818C322.465 713.335 322.187 713.793 321.491 713.793C320.795 713.793 320.536 713.335 320.536 712.818H319.443C319.443 713.892 320.238 714.648 321.491 714.648C322.764 714.648 323.559 713.892 323.559 712.818H322.465Z" fill="#757789"/>
<rect x="156" y="433" width="384" height="38" rx="11" fill="white" stroke="#E0E2E9" stroke-width="2"/>
<path d="M155.358 425.466H156.531V423H163.71V425.446H164.884V421.906H163.71V412.818H157.665L157.446 417.114C157.307 420.037 156.69 421.29 156.014 421.906H155.358V425.466ZM157.486 421.906C158.102 420.932 158.5 419.341 158.619 417.114L158.778 413.912H162.537V421.906H157.486ZM169.49 423.159C171.558 423.159 172.95 421.588 172.95 419.222C172.95 416.835 171.558 415.264 169.49 415.264C167.422 415.264 166.03 416.835 166.03 419.222C166.03 421.588 167.422 423.159 169.49 423.159ZM169.49 422.105C167.919 422.105 167.203 420.753 167.203 419.222C167.203 417.69 167.919 416.318 169.49 416.318C171.061 416.318 171.777 417.69 171.777 419.222C171.777 420.753 171.061 422.105 169.49 422.105ZM178.717 421.409L176.092 415.364H174.541V423H175.714V417.049L178.24 423H179.194L181.72 417.158V423H182.893V415.364H181.382L178.717 421.409ZM188.043 423.159C189.594 423.159 190.727 422.384 191.085 421.23L189.952 420.912C189.654 421.707 188.962 422.105 188.043 422.105C186.666 422.105 185.716 421.215 185.661 419.58H191.205V419.082C191.205 416.239 189.514 415.264 187.923 415.264C185.855 415.264 184.483 416.895 184.483 419.241C184.483 421.588 185.835 423.159 188.043 423.159ZM185.661 418.565C185.741 417.377 186.581 416.318 187.923 416.318C189.196 416.318 190.012 417.273 190.012 418.565H185.661ZM193.963 415.364H192.789V423H193.963V419.739H197.622V423H198.795V415.364H197.622V418.645H193.963V415.364Z" fill="#191D3A"/>
<path d="M172.227 458H173.568V452.545C173.568 451.267 174.5 450.364 175.545 450.364C176.562 450.364 177.273 451.028 177.273 452.023V458H178.636V452.318C178.636 451.193 179.341 450.364 180.568 450.364C181.523 450.364 182.341 450.869 182.341 452.159V458H183.682V452.159C183.682 450.108 182.58 449.159 181.023 449.159C179.773 449.159 178.858 449.733 178.409 450.636H178.318C177.886 449.705 177.125 449.159 175.977 449.159C174.841 449.159 174 449.705 173.636 450.636H173.523V449.273H172.227V458ZM186.285 461.273C187.495 461.273 188.347 460.631 188.853 459.273L192.569 449.295L191.103 449.273L188.694 456.227H188.603L186.194 449.273H184.739L187.966 458.045L187.716 458.727C187.228 460.057 186.626 460.182 185.648 459.932L185.307 461.114C185.444 461.182 185.83 461.273 186.285 461.273ZM195.284 446.364H193.943V458H195.284V446.364ZM199.908 458.205C201.431 458.205 202.226 457.386 202.499 456.818H202.567V458H203.908V452.25C203.908 449.477 201.794 449.159 200.681 449.159C199.362 449.159 197.862 449.614 197.181 451.205L198.453 451.659C198.749 451.023 199.448 450.341 200.726 450.341C201.959 450.341 202.567 450.994 202.567 452.114V452.159C202.567 452.807 201.908 452.75 200.317 452.955C198.698 453.165 196.931 453.523 196.931 455.523C196.931 457.227 198.249 458.205 199.908 458.205ZM200.112 457C199.044 457 198.272 456.523 198.272 455.591C198.272 454.568 199.203 454.25 200.249 454.114C200.817 454.045 202.34 453.886 202.567 453.614V454.841C202.567 455.932 201.703 457 200.112 457ZM207.296 452.75C207.296 451.227 208.239 450.364 209.524 450.364C210.768 450.364 211.524 451.176 211.524 452.545V458H212.864V452.455C212.864 450.227 211.677 449.159 209.91 449.159C208.592 449.159 207.774 449.75 207.364 450.636H207.251V449.273H205.955V458H207.296V452.75ZM218.21 458.182C219.892 458.182 220.46 457.136 220.756 456.659H220.915V458H222.21V446.364H220.869V450.659H220.756C220.46 450.205 219.938 449.159 218.233 449.159C216.028 449.159 214.506 450.909 214.506 453.659C214.506 456.432 216.028 458.182 218.21 458.182ZM218.392 456.977C216.71 456.977 215.847 455.5 215.847 453.636C215.847 451.795 216.688 450.364 218.392 450.364C220.028 450.364 220.892 451.682 220.892 453.636C220.892 455.614 220.006 456.977 218.392 456.977ZM224.452 458H225.793V449.273H224.452V458ZM225.134 447.818C225.657 447.818 226.089 447.409 226.089 446.909C226.089 446.409 225.657 446 225.134 446C224.611 446 224.18 446.409 224.18 446.909C224.18 447.409 224.611 447.818 225.134 447.818ZM229.19 452.75C229.19 451.227 230.133 450.364 231.417 450.364C232.662 450.364 233.417 451.176 233.417 452.545V458H234.758V452.455C234.758 450.227 233.571 449.159 231.804 449.159C230.486 449.159 229.667 449.75 229.258 450.636H229.145V449.273H227.849V458H229.19V452.75ZM240.331 461.455C242.422 461.455 244.104 460.5 244.104 458.25V449.273H242.809V450.659H242.672C242.377 450.205 241.831 449.159 240.127 449.159C237.922 449.159 236.399 450.909 236.399 453.591C236.399 456.318 237.99 457.864 240.104 457.864C241.809 457.864 242.354 456.864 242.649 456.386H242.763V458.159C242.763 459.614 241.74 460.273 240.331 460.273C238.746 460.273 238.189 459.438 237.831 458.955L236.763 459.705C237.309 460.619 238.382 461.455 240.331 461.455ZM240.286 456.659C238.604 456.659 237.74 455.386 237.74 453.568C237.74 451.795 238.581 450.364 240.286 450.364C241.922 450.364 242.786 451.682 242.786 453.568C242.786 455.5 241.899 456.659 240.286 456.659Z" fill="#191D3A"/>
<path d="M559.205 458.091C559.767 458.091 560.227 457.631 560.227 457.068C560.227 456.506 559.767 456.045 559.205 456.045C558.642 456.045 558.182 456.506 558.182 457.068C558.182 457.631 558.642 458.091 559.205 458.091ZM567.734 454.432C567.734 456.068 566.484 456.818 565.484 456.818C564.37 456.818 563.574 456 563.574 454.727V449.273H562.234V454.818C562.234 457.045 563.415 458.114 565.052 458.114C566.37 458.114 567.234 457.409 567.643 456.523H567.734V458H569.074V449.273H567.734V454.432ZM572.471 452.75C572.471 451.227 573.414 450.364 574.699 450.364C575.943 450.364 576.699 451.176 576.699 452.545V458H578.039V452.455C578.039 450.227 576.852 449.159 575.085 449.159C573.767 449.159 572.949 449.75 572.539 450.636H572.426V449.273H571.13V458H572.471V452.75ZM580.09 458H581.431V449.273H580.09V458ZM580.772 447.818C581.294 447.818 581.726 447.409 581.726 446.909C581.726 446.409 581.294 446 580.772 446C580.249 446 579.817 446.409 579.817 446.909C579.817 447.409 580.249 447.818 580.772 447.818ZM589.668 451.227C589.248 449.989 588.305 449.159 586.578 449.159C584.737 449.159 583.373 450.205 583.373 451.682C583.373 452.886 584.089 453.693 585.691 454.068L587.146 454.409C588.026 454.614 588.441 455.034 588.441 455.636C588.441 456.386 587.646 457 586.396 457C585.299 457 584.612 456.528 584.373 455.591L583.1 455.909C583.413 457.392 584.634 458.182 586.418 458.182C588.447 458.182 589.828 457.074 589.828 455.568C589.828 454.352 589.066 453.585 587.509 453.205L586.214 452.886C585.18 452.631 584.714 452.284 584.714 451.614C584.714 450.864 585.509 450.318 586.578 450.318C587.748 450.318 588.231 450.966 588.464 451.568L589.668 451.227ZM595.105 458.182C596.878 458.182 598.173 457.295 598.582 455.977L597.287 455.614C596.946 456.523 596.156 456.977 595.105 456.977C593.531 456.977 592.446 455.96 592.384 454.091H598.719V453.523C598.719 450.273 596.787 449.159 594.969 449.159C592.605 449.159 591.037 451.023 591.037 453.705C591.037 456.386 592.582 458.182 595.105 458.182ZM592.384 452.932C592.474 451.574 593.435 450.364 594.969 450.364C596.423 450.364 597.355 451.455 597.355 452.932H592.384ZM601.699 452.75C601.699 451.227 602.643 450.364 603.927 450.364C605.171 450.364 605.927 451.176 605.927 452.545V458H607.268V452.455C607.268 450.227 606.08 449.159 604.313 449.159C602.995 449.159 602.177 449.75 601.768 450.636H601.654V449.273H600.359V458H601.699V452.75ZM612.613 458.182C614.295 458.182 614.863 457.136 615.159 456.659H615.318V458H616.613V446.364H615.272V450.659H615.159C614.863 450.205 614.341 449.159 612.636 449.159C610.432 449.159 608.909 450.909 608.909 453.659C608.909 456.432 610.432 458.182 612.613 458.182ZM612.795 456.977C611.113 456.977 610.25 455.5 610.25 453.636C610.25 451.795 611.091 450.364 612.795 450.364C614.432 450.364 615.295 451.682 615.295 453.636C615.295 455.614 614.409 456.977 612.795 456.977ZM622.514 458.182C624.287 458.182 625.583 457.295 625.992 455.977L624.696 455.614C624.355 456.523 623.566 456.977 622.514 456.977C620.941 456.977 619.855 455.96 619.793 454.091H626.128V453.523C626.128 450.273 624.196 449.159 622.378 449.159C620.014 449.159 618.446 451.023 618.446 453.705C618.446 456.386 619.992 458.182 622.514 458.182ZM619.793 452.932C619.884 451.574 620.844 450.364 622.378 450.364C623.833 450.364 624.764 451.455 624.764 452.932H619.793ZM627.768 458H629.109V452.477C629.109 451.295 630.041 450.432 631.313 450.432C631.671 450.432 632.041 450.5 632.132 450.523V449.159C631.978 449.148 631.626 449.136 631.427 449.136C630.382 449.136 629.472 449.727 629.154 450.591H629.063V449.273H627.768V458ZM633.298 458.091C633.861 458.091 634.321 457.631 634.321 457.068C634.321 456.506 633.861 456.045 633.298 456.045C632.736 456.045 632.276 456.506 632.276 457.068C632.276 457.631 632.736 458.091 633.298 458.091ZM639.873 458.182C641.805 458.182 643.077 457 643.305 455.455H641.964C641.714 456.409 640.918 456.977 639.873 456.977C638.282 456.977 637.259 455.659 637.259 453.636C637.259 451.659 638.305 450.364 639.873 450.364C641.055 450.364 641.759 451.091 641.964 451.886H643.305C643.077 450.25 641.691 449.159 639.85 449.159C637.486 449.159 635.918 451.023 635.918 453.682C635.918 456.295 637.418 458.182 639.873 458.182ZM648.41 458.182C650.774 458.182 652.365 456.386 652.365 453.682C652.365 450.955 650.774 449.159 648.41 449.159C646.047 449.159 644.456 450.955 644.456 453.682C644.456 456.386 646.047 458.182 648.41 458.182ZM648.41 456.977C646.615 456.977 645.797 455.432 645.797 453.682C645.797 451.932 646.615 450.364 648.41 450.364C650.206 450.364 651.024 451.932 651.024 453.682C651.024 455.432 650.206 456.977 648.41 456.977ZM654.012 458H655.353V452.545C655.353 451.267 656.284 450.364 657.33 450.364C658.347 450.364 659.057 451.028 659.057 452.023V458H660.421V452.318C660.421 451.193 661.125 450.364 662.353 450.364C663.307 450.364 664.125 450.869 664.125 452.159V458H665.466V452.159C665.466 450.108 664.364 449.159 662.807 449.159C661.557 449.159 660.642 449.733 660.193 450.636H660.103C659.671 449.705 658.909 449.159 657.762 449.159C656.625 449.159 655.784 449.705 655.421 450.636H655.307V449.273H654.012V458Z" fill="#191D3A"/>
<path d="M165.273 540.398H168.062C168.008 537.695 165.703 535.781 162.297 535.781C158.938 535.781 156.414 537.672 156.422 540.5C156.422 542.797 158.055 544.117 160.688 544.797L162.508 545.266C164.234 545.703 165.375 546.242 165.383 547.484C165.375 548.852 164.078 549.766 162.188 549.766C160.375 549.766 158.969 548.953 158.852 547.273H156C156.117 550.453 158.484 552.242 162.211 552.242C166.047 552.242 168.273 550.328 168.281 547.508C168.273 544.734 165.984 543.469 163.578 542.898L162.078 542.523C160.766 542.211 159.344 541.656 159.359 540.32C159.367 539.117 160.445 538.234 162.258 538.234C163.984 538.234 165.125 539.039 165.273 540.398ZM170.165 552H180.634V549.57H173.064V545.203H180.032V542.773H173.064V538.43H180.571V536H170.165V552ZM197.125 544C197.125 538.828 193.969 535.781 189.774 535.781C185.571 535.781 182.422 538.828 182.422 544C182.422 549.164 185.571 552.219 189.774 552.219C193.969 552.219 197.125 549.172 197.125 544ZM194.211 544C194.211 547.641 192.383 549.617 189.774 549.617C187.172 549.617 185.336 547.641 185.336 544C185.336 540.359 187.172 538.383 189.774 538.383C192.383 538.383 194.211 540.359 194.211 544Z" fill="#191D3A"/>
<rect x="156" y="337" width="510" height="38" rx="11" fill="white" stroke="#E0E2E9" stroke-width="2"/>
<path d="M156.233 327H157.466V322.446H162.895V327H164.128V316.818H162.895V321.352H157.466V316.818H156.233V327ZM168.484 327.179C169.817 327.179 170.513 326.463 170.751 325.966H170.811V327H171.984V321.969C171.984 319.543 170.135 319.264 169.16 319.264C168.007 319.264 166.695 319.662 166.098 321.054L167.212 321.452C167.47 320.895 168.082 320.298 169.2 320.298C170.279 320.298 170.811 320.87 170.811 321.849V321.889C170.811 322.456 170.234 322.406 168.842 322.585C167.425 322.769 165.879 323.082 165.879 324.832C165.879 326.324 167.033 327.179 168.484 327.179ZM168.663 326.125C167.729 326.125 167.052 325.707 167.052 324.892C167.052 323.997 167.868 323.719 168.783 323.599C169.28 323.54 170.612 323.401 170.811 323.162V324.236C170.811 325.19 170.055 326.125 168.663 326.125ZM173.449 325.051C173.488 326.304 174.686 327.159 176.312 327.159C177.983 327.159 179.196 326.264 179.196 324.872C179.196 323.918 178.624 323.142 177.764 323.082V323.003C178.49 322.779 179.037 322.252 179.037 321.392C179.037 320.184 178.003 319.264 176.392 319.264C174.801 319.264 173.667 320.139 173.628 321.372H174.86C174.895 320.741 175.556 320.298 176.451 320.298C177.341 320.298 177.843 320.751 177.843 321.432C177.843 322.068 177.406 322.545 176.471 322.545H175.159V323.599H176.471C177.406 323.599 178.003 324.112 178.003 324.872C178.003 325.742 177.232 326.105 176.292 326.105C175.373 326.105 174.756 325.742 174.701 325.051H173.449ZM180.644 327H184.243C185.794 327 186.729 326.125 186.729 324.952C186.729 323.754 185.819 323.107 184.979 322.983C185.839 322.804 186.451 322.322 186.451 321.392C186.451 320.174 185.407 319.364 183.766 319.364H180.644V327ZM181.757 325.926V323.58H184.243C185.049 323.58 185.536 324.062 185.536 324.852C185.536 325.518 185.049 325.926 184.243 325.926H181.757ZM181.757 322.565V320.438H183.766C184.706 320.438 185.277 320.83 185.277 321.472C185.277 322.153 184.706 322.565 183.766 322.565H181.757ZM190.552 327.179C191.885 327.179 192.581 326.463 192.819 325.966H192.879V327H194.052V321.969C194.052 319.543 192.203 319.264 191.228 319.264C190.075 319.264 188.763 319.662 188.166 321.054L189.28 321.452C189.538 320.895 190.15 320.298 191.268 320.298C192.347 320.298 192.879 320.87 192.879 321.849V321.889C192.879 322.456 192.302 322.406 190.91 322.585C189.493 322.769 187.947 323.082 187.947 324.832C187.947 326.324 189.101 327.179 190.552 327.179ZM190.731 326.125C189.797 326.125 189.12 325.707 189.12 324.892C189.12 323.997 189.936 323.719 190.851 323.599C191.348 323.54 192.68 323.401 192.879 323.162V324.236C192.879 325.19 192.123 326.125 190.731 326.125ZM197.167 319.364H195.994V327H197.167V323.739H200.826V327H201.999V319.364H200.826V322.645H197.167V319.364ZM205.116 325.27V319.364H203.942V327H205.314L208.973 321.094V327H210.147V319.364H208.794L205.116 325.27ZM215.297 327.159C216.849 327.159 217.982 326.384 218.34 325.23L217.207 324.912C216.908 325.707 216.217 326.105 215.297 326.105C213.92 326.105 212.971 325.215 212.916 323.58H218.459V323.082C218.459 320.239 216.769 319.264 215.178 319.264C213.11 319.264 211.738 320.895 211.738 323.241C211.738 325.588 213.09 327.159 215.297 327.159ZM212.916 322.565C212.996 321.377 213.836 320.318 215.178 320.318C216.451 320.318 217.266 321.273 217.266 322.565H212.916Z" fill="#191D3A"/>
<path d="M172.227 362H173.568V356.545C173.568 355.267 174.5 354.364 175.545 354.364C176.562 354.364 177.273 355.028 177.273 356.023V362H178.636V356.318C178.636 355.193 179.341 354.364 180.568 354.364C181.523 354.364 182.341 354.869 182.341 356.159V362H183.682V356.159C183.682 354.108 182.58 353.159 181.023 353.159C179.773 353.159 178.858 353.733 178.409 354.636H178.318C177.886 353.705 177.125 353.159 175.977 353.159C174.841 353.159 174 353.705 173.636 354.636H173.523V353.273H172.227V362ZM186.285 365.273C187.495 365.273 188.347 364.631 188.853 363.273L192.569 353.295L191.103 353.273L188.694 360.227H188.603L186.194 353.273H184.739L187.966 362.045L187.716 362.727C187.228 364.057 186.626 364.182 185.648 363.932L185.307 365.114C185.444 365.182 185.83 365.273 186.285 365.273ZM195.284 350.364H193.943V362H195.284V350.364ZM199.908 362.205C201.431 362.205 202.226 361.386 202.499 360.818H202.567V362H203.908V356.25C203.908 353.477 201.794 353.159 200.681 353.159C199.362 353.159 197.862 353.614 197.181 355.205L198.453 355.659C198.749 355.023 199.448 354.341 200.726 354.341C201.959 354.341 202.567 354.994 202.567 356.114V356.159C202.567 356.807 201.908 356.75 200.317 356.955C198.698 357.165 196.931 357.523 196.931 359.523C196.931 361.227 198.249 362.205 199.908 362.205ZM200.112 361C199.044 361 198.272 360.523 198.272 359.591C198.272 358.568 199.203 358.25 200.249 358.114C200.817 358.045 202.34 357.886 202.567 357.614V358.841C202.567 359.932 201.703 361 200.112 361ZM207.296 356.75C207.296 355.227 208.239 354.364 209.524 354.364C210.768 354.364 211.524 355.176 211.524 356.545V362H212.864V356.455C212.864 354.227 211.677 353.159 209.91 353.159C208.592 353.159 207.774 353.75 207.364 354.636H207.251V353.273H205.955V362H207.296V356.75ZM218.21 362.182C219.892 362.182 220.46 361.136 220.756 360.659H220.915V362H222.21V350.364H220.869V354.659H220.756C220.46 354.205 219.938 353.159 218.233 353.159C216.028 353.159 214.506 354.909 214.506 357.659C214.506 360.432 216.028 362.182 218.21 362.182ZM218.392 360.977C216.71 360.977 215.847 359.5 215.847 357.636C215.847 355.795 216.688 354.364 218.392 354.364C220.028 354.364 220.892 355.682 220.892 357.636C220.892 359.614 220.006 360.977 218.392 360.977ZM224.452 362H225.793V353.273H224.452V362ZM225.134 351.818C225.657 351.818 226.089 351.409 226.089 350.909C226.089 350.409 225.657 350 225.134 350C224.611 350 224.18 350.409 224.18 350.909C224.18 351.409 224.611 351.818 225.134 351.818ZM229.19 356.75C229.19 355.227 230.133 354.364 231.417 354.364C232.662 354.364 233.417 355.176 233.417 356.545V362H234.758V356.455C234.758 354.227 233.571 353.159 231.804 353.159C230.486 353.159 229.667 353.75 229.258 354.636H229.145V353.273H227.849V362H229.19V356.75ZM240.331 365.455C242.422 365.455 244.104 364.5 244.104 362.25V353.273H242.809V354.659H242.672C242.377 354.205 241.831 353.159 240.127 353.159C237.922 353.159 236.399 354.909 236.399 357.591C236.399 360.318 237.99 361.864 240.104 361.864C241.809 361.864 242.354 360.864 242.649 360.386H242.763V362.159C242.763 363.614 241.74 364.273 240.331 364.273C238.746 364.273 238.189 363.438 237.831 362.955L236.763 363.705C237.309 364.619 238.382 365.455 240.331 365.455ZM240.286 360.659C238.604 360.659 237.74 359.386 237.74 357.568C237.74 355.795 238.581 354.364 240.286 354.364C241.922 354.364 242.786 355.682 242.786 357.568C242.786 359.5 241.899 360.659 240.286 360.659Z" fill="#191D3A"/>
<rect x="156" y="609" width="510" height="74" rx="11" fill="white" stroke="#E0E2E9" stroke-width="2"/>
<path d="M164.824 593.909C164.824 590.688 162.935 588.679 160.33 588.679C157.724 588.679 155.835 590.688 155.835 593.909C155.835 597.131 157.724 599.139 160.33 599.139C162.935 599.139 164.824 597.131 164.824 593.909ZM163.631 593.909C163.631 596.554 162.179 597.986 160.33 597.986C158.48 597.986 157.028 596.554 157.028 593.909C157.028 591.264 158.48 589.832 160.33 589.832C162.179 589.832 163.631 591.264 163.631 593.909ZM166.538 599H167.711V592.457H171.37V599H172.544V591.364H166.538V599ZM175.66 597.27V591.364H174.486V599H175.859L179.518 593.094V599H180.691V591.364H179.339L175.66 597.27ZM185.742 599.159C187.432 599.159 188.546 598.125 188.745 596.773H187.572C187.353 597.608 186.657 598.105 185.742 598.105C184.35 598.105 183.455 596.952 183.455 595.182C183.455 593.452 184.37 592.318 185.742 592.318C186.776 592.318 187.393 592.955 187.572 593.651H188.745C188.546 592.219 187.333 591.264 185.722 591.264C183.654 591.264 182.282 592.895 182.282 595.222C182.282 597.509 183.594 599.159 185.742 599.159ZM192.507 599.179C193.84 599.179 194.536 598.463 194.774 597.966H194.834V599H196.007V593.969C196.007 591.543 194.158 591.264 193.183 591.264C192.03 591.264 190.718 591.662 190.121 593.054L191.235 593.452C191.493 592.895 192.105 592.298 193.223 592.298C194.302 592.298 194.834 592.87 194.834 593.849V593.889C194.834 594.456 194.257 594.406 192.865 594.585C191.448 594.769 189.902 595.082 189.902 596.832C189.902 598.324 191.056 599.179 192.507 599.179ZM192.686 598.125C191.752 598.125 191.076 597.707 191.076 596.892C191.076 595.997 191.891 595.719 192.806 595.599C193.303 595.54 194.635 595.401 194.834 595.162V596.236C194.834 597.19 194.078 598.125 192.686 598.125ZM199.122 591.364H197.949V599H199.122V595.739H202.781V599H203.955V591.364H202.781V594.645H199.122V591.364ZM207.071 597.27V591.364H205.897V599H207.269L210.929 593.094V599H212.102V591.364H210.75L207.071 597.27ZM217.253 599.159C218.804 599.159 219.937 598.384 220.295 597.23L219.162 596.912C218.863 597.707 218.172 598.105 217.253 598.105C215.875 598.105 214.926 597.215 214.871 595.58H220.414V595.082C220.414 592.239 218.724 591.264 217.133 591.264C215.065 591.264 213.693 592.895 213.693 595.241C213.693 597.588 215.045 599.159 217.253 599.159ZM214.871 594.565C214.951 593.377 215.791 592.318 217.133 592.318C218.406 592.318 219.221 593.273 219.221 594.565H214.871Z" fill="#191D3A"/>
<g clip-path="url(#clip0)">
<rect x="1054" y="168" width="189" height="40" rx="12" fill="#EEEFF1"/>
<path d="M1083.43 186C1083.05 183.912 1081.38 182.679 1079.33 182.679C1076.72 182.679 1074.84 184.688 1074.84 187.909C1074.84 191.131 1076.72 193.139 1079.33 193.139C1081.38 193.139 1083.05 191.906 1083.43 189.818H1082.19C1081.89 191.23 1080.68 191.986 1079.33 191.986C1077.48 191.986 1076.03 190.554 1076.03 187.909C1076.03 185.264 1077.48 183.832 1079.33 183.832C1080.68 183.832 1081.89 184.588 1082.19 186H1083.43ZM1088.16 193.159C1090.23 193.159 1091.62 191.588 1091.62 189.222C1091.62 186.835 1090.23 185.264 1088.16 185.264C1086.09 185.264 1084.7 186.835 1084.7 189.222C1084.7 191.588 1086.09 193.159 1088.16 193.159ZM1088.16 192.105C1086.59 192.105 1085.87 190.753 1085.87 189.222C1085.87 187.69 1086.59 186.318 1088.16 186.318C1089.73 186.318 1090.45 187.69 1090.45 189.222C1090.45 190.753 1089.73 192.105 1088.16 192.105ZM1093.77 185.364H1092.42L1094.85 189.182L1092.42 193H1093.77L1095.6 190.037L1097.43 193H1098.78L1096.32 189.182L1098.78 185.364H1097.43L1095.6 188.486L1093.77 185.364ZM1100.26 195.864H1101.43V191.827H1101.53C1101.79 192.244 1102.29 193.159 1103.76 193.159C1105.67 193.159 1107 191.628 1107 189.202C1107 186.795 1105.67 185.264 1103.74 185.264C1102.25 185.264 1101.79 186.179 1101.53 186.577H1101.39V185.364H1100.26V195.864ZM1101.41 189.182C1101.41 187.472 1102.17 186.318 1103.6 186.318C1105.09 186.318 1105.83 187.571 1105.83 189.182C1105.83 190.812 1105.07 192.105 1103.6 192.105C1102.19 192.105 1101.41 190.912 1101.41 189.182ZM1110.84 193.179C1112.17 193.179 1112.87 192.463 1113.1 191.966H1113.16V193H1114.34V187.969C1114.34 185.543 1112.49 185.264 1111.51 185.264C1110.36 185.264 1109.05 185.662 1108.45 187.054L1109.56 187.452C1109.82 186.895 1110.43 186.298 1111.55 186.298C1112.63 186.298 1113.16 186.87 1113.16 187.849V187.889C1113.16 188.456 1112.59 188.406 1111.2 188.585C1109.78 188.769 1108.23 189.082 1108.23 190.832C1108.23 192.324 1109.39 193.179 1110.84 193.179ZM1111.02 192.125C1110.08 192.125 1109.41 191.707 1109.41 190.892C1109.41 189.997 1110.22 189.719 1111.14 189.599C1111.63 189.54 1112.97 189.401 1113.16 189.162V190.236C1113.16 191.19 1112.41 192.125 1111.02 192.125ZM1117.45 185.364H1116.28V193H1117.45V189.739H1121.11V193H1122.28V185.364H1121.11V188.645H1117.45V185.364ZM1125.4 191.27V185.364H1124.23V193H1125.6L1129.26 187.094V193H1130.43V185.364H1129.08L1125.4 191.27ZM1131.34 186.457H1133.87V193H1135.04V186.457H1137.55V185.364H1131.34V186.457ZM1140.23 188.128V185.364H1139.06V193H1142.26C1144.05 193 1145.02 191.906 1145.02 190.534C1145.02 189.142 1144.05 188.128 1142.26 188.128H1140.23ZM1140.23 189.222H1142.26C1143.19 189.222 1143.85 189.788 1143.85 190.594C1143.85 191.364 1143.19 191.906 1142.26 191.906H1140.23V189.222ZM1151.52 191.27V185.364H1150.35V193H1151.72L1155.38 187.094V193H1156.55V185.364H1155.2L1151.52 191.27ZM1158.02 191.051C1158.06 192.304 1159.26 193.159 1160.89 193.159C1162.56 193.159 1163.77 192.264 1163.77 190.872C1163.77 189.918 1163.2 189.142 1162.34 189.082V189.003C1163.06 188.779 1163.61 188.252 1163.61 187.392C1163.61 186.184 1162.58 185.264 1160.97 185.264C1159.38 185.264 1158.24 186.139 1158.2 187.372H1159.44C1159.47 186.741 1160.13 186.298 1161.03 186.298C1161.92 186.298 1162.42 186.751 1162.42 187.432C1162.42 188.068 1161.98 188.545 1161.05 188.545H1159.73V189.599H1161.05C1161.98 189.599 1162.58 190.112 1162.58 190.872C1162.58 191.742 1161.81 192.105 1160.87 192.105C1159.95 192.105 1159.33 191.742 1159.28 191.051H1158.02ZM1169.39 191.409L1166.77 185.364H1165.22V193H1166.39V187.049L1168.92 193H1169.87L1172.4 187.158V193H1173.57V185.364H1172.06L1169.39 191.409ZM1178.72 193.159C1180.27 193.159 1181.41 192.384 1181.76 191.23L1180.63 190.912C1180.33 191.707 1179.64 192.105 1178.72 192.105C1177.34 192.105 1176.39 191.215 1176.34 189.58H1181.88V189.082C1181.88 186.239 1180.19 185.264 1178.6 185.264C1176.53 185.264 1175.16 186.895 1175.16 189.241C1175.16 191.588 1176.51 193.159 1178.72 193.159ZM1176.34 188.565C1176.42 187.377 1177.26 186.318 1178.6 186.318C1179.87 186.318 1180.69 187.273 1180.69 188.565H1176.34ZM1184.64 185.364H1183.47V193H1184.64V189.739H1188.3V193H1189.47V185.364H1188.3V188.645H1184.64V185.364ZM1194.62 193.159C1196.17 193.159 1197.3 192.384 1197.66 191.23L1196.53 190.912C1196.23 191.707 1195.54 192.105 1194.62 192.105C1193.24 192.105 1192.29 191.215 1192.24 189.58H1197.78V189.082C1197.78 186.239 1196.09 185.264 1194.5 185.264C1192.43 185.264 1191.06 186.895 1191.06 189.241C1191.06 191.588 1192.41 193.159 1194.62 193.159ZM1192.24 188.565C1192.32 187.377 1193.16 186.318 1194.5 186.318C1195.77 186.318 1196.59 187.273 1196.59 188.565H1192.24ZM1200.54 185.364H1199.36V193H1200.54V189.739H1204.2V193H1205.37V185.364H1204.2V188.645H1200.54V185.364ZM1208.49 191.27V185.364H1207.31V193H1208.68L1212.34 187.094V193H1213.52V185.364H1212.16L1208.49 191.27ZM1220.06 193H1221.17V185.364H1218.03C1216.39 185.364 1215.39 186.224 1215.39 187.631C1215.39 188.68 1215.91 189.425 1216.83 189.739L1214.97 193H1216.24L1218.01 189.898H1220.06V193ZM1220.06 188.804H1217.89C1217.06 188.804 1216.56 188.362 1216.56 187.631C1216.56 186.89 1217.12 186.438 1218.03 186.438H1220.06V188.804Z" fill="#9393A0"/>
</g>
<g clip-path="url(#clip1)">
<rect x="938" y="168" width="92" height="40" rx="12" fill="#EEEFF1"/>
<path d="M967.824 187.909C967.824 184.688 965.935 182.679 963.33 182.679C960.724 182.679 958.835 184.688 958.835 187.909C958.835 191.131 960.724 193.139 963.33 193.139C965.935 193.139 967.824 191.131 967.824 187.909ZM966.631 187.909C966.631 190.554 965.179 191.986 963.33 191.986C961.48 191.986 960.028 190.554 960.028 187.909C960.028 185.264 961.48 183.832 963.33 183.832C965.179 183.832 966.631 185.264 966.631 187.909ZM969.1 186.457H971.626V193H972.799V186.457H975.305V185.364H969.1V186.457ZM980.993 191.409L978.368 185.364H976.816V193H977.99V187.049L980.515 193H981.47L983.995 187.158V193H985.169V185.364H983.657L980.993 191.409ZM990.318 193.159C991.869 193.159 993.003 192.384 993.361 191.23L992.227 190.912C991.929 191.707 991.238 192.105 990.318 192.105C988.941 192.105 987.991 191.215 987.937 189.58H993.48V189.082C993.48 186.239 991.79 185.264 990.199 185.264C988.131 185.264 986.758 186.895 986.758 189.241C986.758 191.588 988.111 193.159 990.318 193.159ZM987.937 188.565C988.016 187.377 988.856 186.318 990.199 186.318C991.472 186.318 992.287 187.273 992.287 188.565H987.937ZM996.238 185.364H995.065V193H996.238V189.739H999.897V193H1001.07V185.364H999.897V188.645H996.238V185.364ZM1005.26 193.179C1006.59 193.179 1007.29 192.463 1007.53 191.966H1007.59V193H1008.76V187.969C1008.76 185.543 1006.91 185.264 1005.94 185.264C1004.78 185.264 1003.47 185.662 1002.87 187.054L1003.99 187.452C1004.25 186.895 1004.86 186.298 1005.98 186.298C1007.06 186.298 1007.59 186.87 1007.59 187.849V187.889C1007.59 188.456 1007.01 188.406 1005.62 188.585C1004.2 188.769 1002.66 189.082 1002.66 190.832C1002.66 192.324 1003.81 193.179 1005.26 193.179ZM1005.44 192.125C1004.5 192.125 1003.83 191.707 1003.83 190.892C1003.83 189.997 1004.64 189.719 1005.56 189.599C1006.06 189.54 1007.39 189.401 1007.59 189.162V190.236C1007.59 191.19 1006.83 192.125 1005.44 192.125Z" fill="#9393A0"/>
</g>
<defs>
<filter id="filter0_d" x="91" y="264" width="1184" height="536" filterUnits="userSpaceOnUse" color-interpolation-filters="sRGB">
<feFlood flood-opacity="0" result="BackgroundImageFix"/>
<feColorMatrix in="SourceAlpha" type="matrix" values="0 0 0 0 0 0 0 0 0 0 0 0 0 0 0 0 0 0 127 0"/>
<feOffset dy="8"/>
<feGaussianBlur stdDeviation="16"/>
<feColorMatrix type="matrix" values="0 0 0 0 0.0980392 0 0 0 0 0.113725 0 0 0 0 0.227451 0 0 0 0.04 0"/>
<feBlend mode="normal" in2="BackgroundImageFix" result="effect1_dropShadow"/>
<feBlend mode="normal" in="SourceGraphic" in2="effect1_dropShadow" result="shape"/>
</filter>
<clipPath id="clip0">
<rect x="1054" y="168" width="189" height="40" rx="12" fill="white"/>
</clipPath>
<clipPath id="clip1">
<rect x="938" y="168" width="92" height="40" rx="12" fill="white"/>
</clipPath>
</defs>
</svg>
