<?xml version="1.0" encoding="utf-8"?>
<!-- Generator: Adobe Illustrator 25.0.1, SVG Export Plug-In . SVG Version: 6.00 Build 0)  -->
<svg version="1.1" id="Layer_1" xmlns="http://www.w3.org/2000/svg" xmlns:xlink="http://www.w3.org/1999/xlink" x="0px" y="0px"
	 viewBox="0 0 329.9 118.7" style="enable-background:new 0 0 329.9 118.7;" xml:space="preserve">
<style type="text/css">
	.st0{fill:#231F20;}
	.st1{fill:#FBB33D;}
	.st2{fill:#FFFFFF;}
	.st3{fill:#584E56;}
</style>
<g>
	<g>
		<path class="st0" d="M113.6,51.2V36.1c0-0.6,0.3-0.9,0.9-0.9h3.8c0.6,0,0.9,0.3,0.9,0.9v14.5c0,3.2,2,4.3,4.1,4.3
			c2.1,0,4.1-1.1,4.1-4.3V36.1c0-0.6,0.3-0.9,0.9-0.9h3.8c0.6,0,0.9,0.3,0.9,0.9v15.1c0,4.8-3.4,9.1-9.7,9.1
			C117,60.3,113.6,56,113.6,51.2z"/>
		<path class="st0" d="M137,59.1v-23c0-0.6,0.3-0.9,0.9-0.9h3.8c0.5,0,0.8,0.2,1.1,0.6l9.1,14.3v-14c0-0.6,0.3-0.9,0.9-0.9h3.8
			c0.6,0,0.9,0.3,0.9,0.9v23c0,0.6-0.3,0.9-0.9,0.9h-3.8c-0.5,0-0.8-0.2-1.1-0.6l-9-14.2v13.9c0,0.6-0.3,0.9-0.9,0.9h-3.8
			C137.4,60,137,59.6,137,59.1z"/>
		<path class="st0" d="M161.6,59.1v-23c0-0.6,0.3-0.9,0.9-0.9h3.8c0.6,0,0.9,0.3,0.9,0.9v23c0,0.6-0.3,0.9-0.9,0.9h-3.8
			C161.9,60,161.6,59.6,161.6,59.1z"/>
		<path class="st0" d="M170.8,55c-0.3-0.5-0.1-0.9,0.3-1.2l3.1-2.2c0.5-0.3,0.9-0.3,1.3,0.2c1.1,1.3,3.7,3.1,6.5,3.1
			c2.6,0,3.1-1,3.1-2.1c0-1.6-3.6-2.3-5.3-2.9c-1.8-0.6-8.2-1.9-8.2-7.5c0-5.5,4.8-7.6,9.8-7.6c4.4,0,8.1,2.3,9.5,4.7
			c0.3,0.5,0.1,0.9-0.3,1.2l-3,2c-0.5,0.3-0.9,0.2-1.3-0.2c-1.1-1-3.2-2.1-5.6-2.1c-1.8,0-2.7,0.6-2.7,1.7c0,1.7,3.4,2.3,5.2,3
			c1.8,0.6,8.2,2.3,8.2,7.5c0,5.2-4.1,7.9-10,7.9C175.9,60.4,172.2,57.8,170.8,55z"/>
		<path class="st0" d="M194.5,59.1v-23c0-0.6,0.3-0.9,0.9-0.9h15.2c0.6,0,0.9,0.3,0.9,0.9v3.3c0,0.6-0.3,0.9-0.9,0.9h-10.5V45h9.7
			c0.6,0,0.9,0.3,0.9,0.9v3.3c0,0.6-0.3,0.9-0.9,0.9h-9.7v4.7h10.5c0.6,0,0.9,0.3,0.9,0.9v3.3c0,0.6-0.3,0.9-0.9,0.9h-15.2
			C194.9,60,194.5,59.6,194.5,59.1z"/>
		<path class="st0" d="M215.4,59.1v-23c0-0.6,0.3-0.9,0.9-0.9h3.8c0.5,0,0.8,0.2,1.1,0.6l9.1,14.3v-14c0-0.6,0.3-0.9,0.9-0.9h3.8
			c0.6,0,0.9,0.3,0.9,0.9v23c0,0.6-0.3,0.9-0.9,0.9h-3.8c-0.5,0-0.8-0.2-1.1-0.6l-9-14.2v13.9c0,0.6-0.3,0.9-0.9,0.9h-3.8
			C215.8,60,215.4,59.6,215.4,59.1z"/>
		<path class="st0" d="M240,59.1v-23c0-0.6,0.3-0.9,0.9-0.9h8.5c7.3,0,12.2,5,12.2,12.4c0,7.4-4.9,12.4-12.2,12.4h-8.5
			C240.3,60,240,59.6,240,59.1z M249.4,54.5c1.7,0,6.6-0.9,6.6-6.9c0-6-4.8-6.9-6.6-6.9h-3.8v13.9H249.4z"/>
		<path class="st0" d="M265.1,59.1v-23c0-0.6,0.3-0.9,0.9-0.9h15.2c0.6,0,0.9,0.3,0.9,0.9v3.3c0,0.6-0.3,0.9-0.9,0.9h-10.5V45h9.7
			c0.6,0,0.9,0.3,0.9,0.9v3.3c0,0.6-0.3,0.9-0.9,0.9h-9.7v4.7h10.5c0.6,0,0.9,0.3,0.9,0.9v3.3c0,0.6-0.3,0.9-0.9,0.9H266
			C265.4,60,265.1,59.6,265.1,59.1z"/>
		<path class="st0" d="M285.9,59.1v-23c0-0.6,0.3-0.9,0.9-0.9H298c3.7,0,7.7,2.7,7.7,8.4c0,4.1-2.2,6.7-4.8,7.8l4.6,7.6
			c0.4,0.6,0.1,1.1-0.6,1.1h-4.5c-0.5,0-0.8-0.2-1.1-0.6l-4.5-7.5h-3.2v7.2c0,0.6-0.3,0.9-0.9,0.9h-3.8
			C286.3,60,285.9,59.6,285.9,59.1z M297,46.5c1.6,0,3.1-1,3.1-2.9c0-1.9-1.5-2.9-3.1-2.9h-5.5v5.8H297z"/>
	</g>
	<g>
		<path class="st0" d="M113.2,90.8V72.8c0-0.4,0.3-0.7,0.7-0.7h8.4c3,0,5.8,1.9,5.8,5.6c0,1.8-0.7,3-1.7,3.8
			c1.4,0.8,2.4,2.3,2.4,4.4c0,3.6-3,5.7-6,5.7h-8.9C113.5,91.6,113.2,91.3,113.2,90.8z M121.6,79.7c1.2,0,1.9-0.7,1.9-1.8
			c0-1.2-0.8-1.8-1.9-1.8h-4v3.7H121.6z M122.1,87.5c1.3,0,2.1-0.9,2.1-2.1c0-1.1-0.8-2.1-2.1-2.1h-4.5v4.2H122.1z"/>
		<path class="st0" d="M131.3,86.2v-7.7c0-0.5,0.3-0.7,0.7-0.7h2.8c0.5,0,0.7,0.3,0.7,0.7v7c0,2.3,1.7,2.7,2.4,2.7
			c0.8,0,2.3-0.3,2.3-2.7v-7c0-0.5,0.3-0.7,0.7-0.7h2.8c0.5,0,0.7,0.3,0.7,0.7v12.4c0,0.4-0.3,0.7-0.7,0.7h-2.8
			c-0.5,0-0.7-0.2-0.7-0.6v-0.5c-1,1-2.4,1.3-3.7,1.3C134.3,91.8,131.3,90.5,131.3,86.2z"/>
		<path class="st0" d="M147.2,89.2c-0.2-0.4-0.1-0.7,0.3-1l1.8-1.2c0.4-0.2,0.7-0.2,1,0.2c0.7,0.6,1.9,1.4,3.1,1.4
			c1,0,1.6-0.3,1.6-1c0-0.9-1.6-1.1-2.5-1.5c-1-0.4-4.7-1.3-4.7-4.4c0-3,2.7-4.3,5.6-4.3c2.7,0,4.5,1.1,5.5,2.4
			c0.3,0.4,0.2,0.8-0.2,1l-1.6,1.1c-0.4,0.2-0.7,0.2-1-0.1c-0.7-0.5-1.8-1.1-2.8-1.1c-1,0-1.4,0.4-1.4,0.8c0,0.9,1.5,1.2,2.5,1.6
			c1,0.4,4.8,1.4,4.8,4.4c0,2.9-2.2,4.5-5.8,4.5C150.1,92,148.1,90.6,147.2,89.2z"/>
		<path class="st0" d="M161.3,73.7c0-1.4,1.2-2.2,2.3-2.2c1.1,0,2.3,0.8,2.3,2.2c0,1.5-1.2,2.3-2.3,2.3
			C162.5,76,161.3,75.1,161.3,73.7z M161.5,90.8V78.5c0-0.5,0.3-0.7,0.7-0.7h2.9c0.5,0,0.7,0.3,0.7,0.7l0,12.4
			c0,0.4-0.3,0.7-0.7,0.7h-2.8C161.7,91.6,161.5,91.3,161.5,90.8z"/>
		<path class="st0" d="M169.1,90.8V78.5c0-0.5,0.3-0.7,0.7-0.7h2.8c0.5,0,0.7,0.2,0.7,0.6v0.6c1-1,2.4-1.4,3.7-1.4
			c2.4,0,5.4,1.3,5.4,5.6v7.7c0,0.4-0.3,0.7-0.7,0.7h-2.8c-0.5,0-0.7-0.3-0.7-0.7v-7c0-2.3-1.7-2.7-2.4-2.7s-2.3,0.3-2.3,2.7v7
			c0,0.4-0.3,0.7-0.7,0.7h-2.8C169.3,91.6,169.1,91.3,169.1,90.8z"/>
		<path class="st0" d="M184.9,84.7c0-4.1,2.7-7.2,6.9-7.2c4.1,0,6.7,3.1,6.7,7.2v0.4c0,0.4-0.3,0.7-0.7,0.7h-8.7
			c0.4,1.6,1.5,2.4,2.9,2.4c1.2,0,2-0.4,2.5-0.8c0.3-0.3,0.6-0.4,1-0.1l1.8,1.3c0.4,0.3,0.5,0.6,0.2,0.9c-1.2,1.4-3.1,2.3-5.4,2.3
			C187.7,91.9,184.9,88.8,184.9,84.7z M194.5,83.1c-0.4-1.3-1.2-2.3-2.6-2.3c-1.4,0-2.3,0.9-2.7,2.3H194.5z"/>
		<path class="st0" d="M200.2,89.2c-0.2-0.4-0.1-0.7,0.3-1l1.8-1.2c0.4-0.2,0.7-0.2,1,0.2c0.7,0.6,1.9,1.4,3.1,1.4
			c1,0,1.6-0.3,1.6-1c0-0.9-1.6-1.1-2.5-1.5c-1-0.4-4.7-1.3-4.7-4.4c0-3,2.7-4.3,5.6-4.3c2.7,0,4.5,1.1,5.5,2.4
			c0.3,0.4,0.1,0.8-0.2,1l-1.6,1.1c-0.4,0.2-0.7,0.2-1-0.1c-0.7-0.5-1.8-1.1-2.8-1.1c-1,0-1.4,0.4-1.4,0.8c0,0.9,1.5,1.2,2.5,1.6
			c1,0.4,4.8,1.4,4.8,4.4c0,2.9-2.2,4.5-5.8,4.5C203.2,92,201.1,90.6,200.2,89.2z"/>
		<path class="st0" d="M213.7,89.2c-0.2-0.4-0.1-0.7,0.3-1l1.8-1.2c0.4-0.2,0.7-0.2,1,0.2c0.7,0.6,1.9,1.4,3.1,1.4
			c1,0,1.6-0.3,1.6-1c0-0.9-1.6-1.1-2.5-1.5c-1-0.4-4.7-1.3-4.7-4.4c0-3,2.7-4.3,5.6-4.3c2.7,0,4.5,1.1,5.5,2.4
			c0.3,0.4,0.2,0.8-0.2,1l-1.6,1.1c-0.4,0.2-0.7,0.2-1-0.1c-0.7-0.5-1.8-1.1-2.8-1.1c-1,0-1.3,0.4-1.3,0.8c0,0.9,1.5,1.2,2.5,1.6
			c1,0.4,4.8,1.4,4.8,4.4c0,2.9-2.2,4.5-5.8,4.5C216.7,92,214.7,90.6,213.7,89.2z"/>
	</g>
	<g>
		<path class="st1" d="M88.4,50.6C88,47.7,86.3,39.5,79.7,36c-4.4-2.3-11.7-4.8-21.4-2.6c-6.7,1.5-8.8,3.7-10.8,6.3
			c-2.3,2.9-2.2,6.9-2.6,11.8c-0.1,0.8-0.7,1.4-1.5,1.4c-4.1-0.1-8.5-0.5-12.8-0.8c-0.9-0.1-1.6,0.6-1.6,1.5
			c-0.5,13.3,2.4,20.4,9.7,24.7c3.6,2.1,7.6,3.3,14.2,1.9c0.1,0.2,0.3,0.5,0.4,0.7c3.9,9.1,3,11.8,12.3,10.5
			c1.6-0.2,3.2-0.7,4.7-1.3c7.5-3.1,16-10.6,16.1-18.6C86.4,61.8,89.5,57.7,88.4,50.6z"/>
		<path class="st2" d="M73.3,39.8c16,22-16.4,25.6-18.3,12.6C53.3,40.4,69.3,34.3,73.3,39.8z"/>
		<path class="st0" d="M73.9,45.5c-1.2-2.9-4.6-5.5-8-4.9c-0.8,0.1-0.7,1.4,0.1,1.3c2.8-0.5,5.6,1.7,6.7,4.1
			C73,46.8,74.2,46.3,73.9,45.5z"/>
		<g>
			<path class="st3" d="M39.7,56.8"/>
			<path class="st3" d="M37.6,61.4"/>
		</g>
		<path class="st0" d="M57.4,74c-0.4,0.1-0.8,0.1-1,0.1c-0.9,0.1-1.7-0.6-1.8-1.4c-0.1-0.9,0.6-1.7,1.4-1.8c0.9-0.1,8.5-1,10.8-5.4
			c0.4-0.8,1.4-1.1,2.2-0.7c0.8,0.4,1.1,1.4,0.7,2.2C67.1,72.1,60.3,73.6,57.4,74z"/>
		<path class="st0" d="M41.7,62.8c0.9-0.3,1.4-1.1,1.2-1.9c-0.2-0.8-1.1-1.2-2-0.9c-0.9,0.3-1.4,1.1-1.2,1.9
			C40,62.6,40.8,63,41.7,62.8z"/>
		<path class="st0" d="M41.6,66c0.6-0.2,1-0.8,0.8-1.3c-0.2-0.5-0.8-0.8-1.4-0.7c-0.6,0.2-1,0.8-0.8,1.3C40.4,65.9,41,66.2,41.6,66z
			"/>
		<path class="st0" d="M45.5,64.6c0.6-0.2,1-0.8,0.8-1.3c-0.2-0.5-0.8-0.8-1.4-0.7c-0.6,0.2-1,0.8-0.8,1.3
			C44.2,64.5,44.8,64.8,45.5,64.6z"/>
		<path class="st0" d="M69.4,51.9c0.4-2.7-0.6-5.1-2.4-5.4c-1.8-0.3-3.5,1.7-4,4.4c-0.4,2.7,0.6,5.1,2.4,5.4
			C67.2,56.6,69,54.6,69.4,51.9z"/>
		<path class="st0" d="M53.4,51.4c0.5-1.9-0.1-3.8-1.4-4.2c-1.3-0.4-2.8,0.9-3.3,2.8c-0.5,1.9,0.1,3.8,1.4,4.2
			C51.4,54.6,52.9,53.4,53.4,51.4z"/>
		<path class="st2" d="M66.8,51.4c0,1,0.8,1.8,1.8,1.8c0.2,0,0.4,0,0.6-0.1c0.1-0.4,0.2-0.7,0.3-1.1c0.1-0.7,0.1-1.4,0-2
			c-0.3-0.2-0.6-0.3-0.9-0.3C67.6,49.6,66.8,50.4,66.8,51.4z"/>
		<path class="st2" d="M52.5,49.6c-0.8,0-1.4,0.6-1.4,1.4c0,0.8,0.6,1.4,1.4,1.4c0.2,0,0.4,0,0.6-0.1c0.1-0.3,0.3-0.6,0.3-0.9
			c0.1-0.4,0.2-0.8,0.2-1.3C53.4,49.8,53,49.6,52.5,49.6z"/>
		<g>
			<path class="st0" d="M96.4,34c-4.7-7-15.4-4-26.2-7.8c-0.8,2.1-0.7,3.9-0.2,5.6c-1.3-0.2-2.7-0.3-4.1-0.3c-1.2,0-2.5,0.1-3.8,0.2
				c0-0.1,0-0.2-0.1-0.3c-1.4-5.5-18.8-0.1-23.6-3.1c0.4,5.9,3.9,9.1,7.2,13.3c-0.9,2.6-1,5.8-1.3,9.5c-0.1,0.8-0.7,1.4-1.5,1.4l0,0
				c-1.7,0-3.5-0.1-5.3-0.3c-1.6-3.7-14.7-6-13.2,2.5c0.7,4,2.2,7.1,4,8.7c1.1,7.4,4.2,12,9.6,15.2c2.5,1.4,5.7,2.3,9.6,2.3
				c2,0,2.8,0.1,5.1-0.4c0.1,0.2,0.3,0.5,0.4,0.7c3.4,8.1,1.8,11.1,8.9,11.1c1.2,0,2.6-0.1,4-0.3c1.7-0.2,3.3-0.7,4.8-1.3
				c7.7-3.2,18.3-10.6,18.4-18.9c0.1-9.3,1.2-13.8,0.4-20.5c4.6-3.4,6.8-9.9,7.6-13.2C97.5,36.8,97.3,35.2,96.4,34z M85.9,72
				c-0.1,7.3-9.9,13.4-16.4,16c-1.3,0.5-2.7,0.9-4.1,1.1c-1.3,0.2-2.5,0.3-3.5,0.3c-4.7,0-2.6-1.2-6-9.2l0,0l0,0
				c-0.1-0.2-0.2-0.4-0.3-0.6c0-0.1-0.1-0.1-0.1-0.2L54.5,77L52,77.5c-2,0.4-2.6,0.3-4.4,0.3c-3.1,0-5.8-0.7-8-1.9
				c-3.6-2.1-5.9-4.9-7.2-9c-0.3-1.1,0-2.2,0.9-2.9c1.3-1,2.6-3.1,3.5-6.4c0.3-1.2,1.5-2.1,2.8-2c1.1,0.1,2.1,0.1,3.2,0.1l0.1,0h0
				c2.5,0,4.5-1.9,4.8-4.4c0.1-0.8,0.1-1.6,0.2-2.4c0.2-2.1,0.3-3.9,0.7-5.4c1.2-1.7,3.4-2.7,5.3-2.7c0.8,0,0.8-1.3,0-1.3
				c-1.4,0-2.8,0.5-4.1,1.2c1.6-2,3.1-3.9,9.3-5.3c2.3-0.5,4.7-0.8,6.9-0.8c2.1,0,4.2,0.3,6.3,0.7c4.3,5,12.4,9,14.2,17
				C87.1,58.4,86,62.8,85.9,72z"/>
			<path class="st2" d="M28.8,52.8c0.9-0.3,1.4-1.1,1.2-1.9c-0.2-0.8-1.1-1.2-2-0.9c-0.9,0.3-1.4,1.1-1.2,1.9
				C27,52.6,27.9,53.1,28.8,52.8z"/>
		</g>
	</g>
</g>
</svg>
