<svg width="191" height="36" viewBox="0 0 191 36" fill="none" xmlns="http://www.w3.org/2000/svg">
<path d="M13.2632 28.3421H18.6711V8.60526H13.2632V21.3158C12.4737 22.8553 10.9342 23.6842 9.19737 23.6842C6.67105 23.6842 5.40789 21.6711 5.40789 18.9474V8.60526H0V19.8553C0 25.1053 3.11842 28.6579 8.25 28.6579C10.1053 28.6579 11.9605 28.0263 13.2632 26.7237V28.3421Z" fill="black"/>
<path d="M23.6358 28.3421H29.0437V15.4737C29.9516 14.0526 31.4516 13.2632 32.9911 13.2632C35.6753 13.2632 36.899 15.2763 36.899 18V28.3421H42.3068V17.0921C42.3068 11.8816 39.2279 8.28947 33.8989 8.28947C32.0437 8.28947 30.3068 8.84211 29.0437 10.0658V8.60526H23.6358V28.3421Z" fill="black"/>
<path d="M47.0347 28.3421H52.4426V8.60526H47.0347V28.3421ZM52.2847 5.48684C52.7979 4.89474 53.0742 4.18421 53.0742 3.31579C53.0742 1.46053 51.6137 0 49.7584 0C47.9032 0 46.4426 1.46053 46.4426 3.31579C46.4426 4.18421 46.7189 4.89474 47.2321 5.48684H52.2847Z" fill="black"/>
<path d="M57.6806 28.3421H62.0227V0.31579H57.6806V28.3421Z" fill="black"/>
<path d="M81.7596 28.3421H86.1017V8.60526H81.7596V10.3026C80.299 9 78.3648 8.28947 76.1938 8.28947C70.3911 8.28947 66.3253 12.9079 66.3253 18.4737C66.3253 24.0395 70.3911 28.6579 76.1938 28.6579C78.3648 28.6579 80.299 27.9868 81.7596 26.6842V28.3421ZM76.628 24.6316C73.1543 24.6316 70.7464 21.9474 70.7464 18.4737C70.7464 15 73.1543 12.3158 76.628 12.3158C78.9964 12.3158 80.6938 13.3816 81.7596 14.9605V22.0263C80.6938 23.5658 78.9964 24.6316 76.628 24.6316Z" fill="black"/>
<path d="M91.6418 28.3421H95.984V15.5526C96.8129 13.5 98.4708 12.3158 100.681 12.3158C103.642 12.3158 105.181 14.3684 105.181 17.2105V28.3421H109.523V16.6974C109.523 11.6447 106.405 8.28947 101.55 8.28947C99.4576 8.28947 97.3655 8.92105 95.984 10.4605V8.60526H91.6418V28.3421Z" fill="black"/>
<path d="M133.362 28.3421V0.31579H129.02V10.3026C127.56 9 125.625 8.28947 123.454 8.28947C117.652 8.28947 113.586 12.9079 113.586 18.4737C113.586 24.0395 117.652 28.6579 123.454 28.6579C125.625 28.6579 127.56 27.9868 129.02 26.6842V28.3421H133.362ZM123.888 12.3158C126.257 12.3158 128.033 13.3816 129.02 14.9605V22.0263C128.033 23.5658 126.257 24.6316 123.888 24.6316C120.415 24.6316 118.007 21.9474 118.007 18.4737C118.007 15 120.415 12.3158 123.888 12.3158Z" fill="black"/>
<path d="M138.902 28.3421H143.244V8.60526H138.902V28.3421ZM143.205 4.85526C143.718 4.34211 143.955 3.71053 143.955 2.88158C143.955 1.26316 142.731 0 141.113 0C139.494 0 138.271 1.26316 138.271 2.88158C138.271 3.71053 138.508 4.34211 139.021 4.85526H143.205Z" fill="black"/>
<path d="M148.771 28.3421H153.113V15.5526C153.942 13.5 155.6 12.3158 157.81 12.3158C160.771 12.3158 162.31 14.3684 162.31 17.2105V28.3421H166.652V16.6974C166.652 11.6447 163.534 8.28947 158.679 8.28947C156.587 8.28947 154.494 8.92105 153.113 10.4605V8.60526H148.771V28.3421Z" fill="black"/>
<path d="M180.623 36C185.675 36 190.886 33.9079 190.886 28.2632C190.886 27.0395 190.649 25.7763 190.136 24.3947V8.60526H185.794V10.3026C184.294 8.96053 182.478 8.28947 180.307 8.28947C174.425 8.28947 170.715 12.6711 170.715 17.9211C170.715 23.1711 174.425 27.5526 180.307 27.5526C182.517 27.5526 184.452 26.8816 185.873 25.5C186.307 26.1711 186.386 27.1184 186.386 27.7105C186.386 30.9079 183.544 32.0132 180.544 32.0132C178.017 32.0132 175.767 31.1842 174.149 29.9605L172.017 33.7105C174.544 35.4079 177.741 36 180.623 36ZM180.623 23.5658C177.307 23.5658 175.136 21.0789 175.136 17.9211C175.136 14.8421 177.307 12.3158 180.623 12.3158C182.991 12.3158 184.807 13.3816 185.794 14.9605V20.9211C184.807 22.4605 182.991 23.5658 180.623 23.5658Z" fill="black"/>
</svg>
